<?xml version="1.0" encoding="UTF-8"?>
<!DOCTYPE svg PUBLIC "-//W3C//DTD SVG 1.1//EN" "http://www.w3.org/Graphics/SVG/1.1/DTD/svg11.dtd">
<!-- Creator: CorelDRAW -->
<svg xmlns="http://www.w3.org/2000/svg" xml:space="preserve" width="152.4mm" height="152.4mm" version="1.1" style="shape-rendering:geometricPrecision; text-rendering:geometricPrecision; image-rendering:optimizeQuality; fill-rule:evenodd; clip-rule:evenodd"
viewBox="0 0 15240 15240"
 xmlns:xlink="http://www.w3.org/1999/xlink"
 xmlns:xodm="http://www.corel.com/coreldraw/odm/2003">
 <defs>
  <style type="text/css">
   <![CDATA[
    .fil0 {fill:none}
    .fil2 {fill:#26AAE1}
    .fil1 {fill:#F6EE22}
   ]]>
  </style>
 </defs>
 <g id="Capa_x0020_1">
  <metadata id="CorelCorpID_0Corel-Layer"/>
  <g id="_1908944928304">
   <rect class="fil0" x="-0" y="-0" width="15240" height="15240"/>
   <ellipse id="contour" class="fil1" cx="7620.01" cy="7620" rx="7200.69" ry="7200.73"/>
   <path id="contour_1" class="fil2" d="M7620.01 364.25c4007.22,0 7255.71,3248.52 7255.71,7255.75 0,4007.22 -3248.49,7255.74 -7255.71,7255.74 -4007.22,0 -7255.7,-3248.52 -7255.7,-7255.74 0,-4007.23 3248.48,-7255.75 7255.7,-7255.75zm-0.06 985.8c3462.82,0 6270.01,2807.18 6270.01,6270 0,3462.82 -2807.19,6270.01 -6270.01,6270.01 -3462.82,0 -6270,-2807.19 -6270,-6270.01 0,-3462.82 2807.18,-6270 6270,-6270z"/>
   <path id="contour_2" class="fil2" d="M4179.2 6446.89l1182.24 0 235.89 0c394.08,0 788.16,0 1182.23,0l235.89 0c394.07,0 788.16,0 1182.24,0l235.87 0c394.08,0 788.16,0 1182.24,0l235.88 0 1182.24 0 21.64 0 0 4197.93c0,92.83 -73.66,168.78 -163.69,168.78l-56.68 0 -983.51 0 -235.88 0c-394.08,0 -788.16,0 -1182.24,0l-235.87 0c-394.08,0 -788.17,0 -1182.24,0l-235.89 0c-394.07,0 -788.15,0 -1182.23,0l-235.89 0 -983.5 0 -35.05 0c-90.03,0 -163.69,-75.95 -163.69,-168.78l0 -36.13 0 -1021.61 0 -223.05 0 -1249.87 0 -216.57 0 -1450.7zm1174.89 -1506.95l0 476.14c0,121.6 -99.49,221.09 -221.09,221.09l-0.01 0c-121.6,0 -221.09,-99.49 -221.09,-221.09l0 -476.13c-176.72,83.11 -299.08,262.73 -299.08,470.95 0,287.29 232.89,520.18 520.18,520.18 287.29,0 520.18,-232.89 520.18,-520.18 0,-208.23 -122.36,-387.86 -299.09,-470.96zm2501.88 0l0 476.14c0,121.6 -99.49,221.09 -221.09,221.09 -0.01,0 -0.01,0 -0.01,0 -121.6,0 -221.09,-99.49 -221.09,-221.09l0 -476.13c-176.72,83.11 -299.08,262.73 -299.08,470.95 0,287.29 232.89,520.18 520.18,520.18 287.29,0 520.18,-232.89 520.18,-520.18 0,-208.23 -122.36,-387.86 -299.09,-470.96zm2501.87 0l0 476.14c0,121.6 -99.49,221.09 -221.09,221.09l-0.01 0c-121.6,0 -221.09,-99.49 -221.09,-221.09l0 -476.13c-176.72,83.11 -299.08,262.73 -299.08,470.95 0,287.29 232.89,520.18 520.18,520.18 287.29,0 520.18,-232.89 520.18,-520.18 0,-208.23 -122.36,-387.86 -299.09,-470.96zm-6181.57 -484.24l735.63 0 0 -544.09c0,-121.6 99.49,-221.09 221.09,-221.09l0.01 0c121.6,0 221.09,99.49 221.09,221.09l0 544.09 2059.69 0 0 -544.09c0,-121.6 99.49,-221.09 221.09,-221.09 0,0 0,0 0.01,0 121.6,0 221.09,99.49 221.09,221.09l0 544.09 2059.68 0 0 -544.09c0,-121.6 99.49,-221.09 221.09,-221.09l0.01 0c121.6,0 221.09,99.49 221.09,221.09l0 544.09 680.97 0c419.1,0 762,343.03 762,762l0 5544.05c0,418.88 -343.12,762 -762,762l-6862.54 0c-418.88,0 -762,-342.9 -762,-762l0 -5544.05c0,-419.1 342.9,-762 762,-762zm1634.13 4420.04l0 -1142 -841.47 1142 841.47 0zm-849.49 436.77c-58.77,0 -108.86,-0.67 -150.26,-2 -41.41,-1.34 -77.47,-4.01 -108.19,-8.02 -30.72,-4 -57.44,-11.35 -80.14,-22.04 -22.71,-10.68 -44.75,-26.71 -66.12,-48.08 -37.4,-37.4 -63.44,-76.8 -78.14,-118.21 -14.69,-41.4 -22.04,-78.14 -22.04,-110.19 0,-24.04 2.68,-46.08 8.02,-66.12 5.34,-20.03 15.36,-42.07 30.05,-66.11 14.69,-24.05 33.39,-52.76 56.1,-86.16 22.71,-33.39 52.76,-74.13 90.16,-122.21l1037.82 -1386.44c64.11,-85.48 118.88,-150.26 164.29,-194.34 45.41,-44.08 104.18,-66.11 176.31,-66.11 48.08,0 91.49,10.68 130.23,32.05 38.73,21.37 70.12,46.75 94.16,76.14 29.39,37.4 46.09,82.81 50.09,136.24 4.01,53.42 6.01,126.88 6.01,220.38l0 1394.45 84.15 0c53.43,0 104.18,2.67 152.27,8.02 48.08,5.34 86.82,22.7 116.2,52.09 42.74,45.41 64.12,98.84 64.12,160.28 0,58.77 -22.71,110.86 -68.12,156.27 -26.72,26.72 -62.78,43.41 -108.19,50.09 -45.42,6.68 -85.49,10.02 -120.22,10.02l-120.21 0 0 252.44c0,82.82 -2.67,151.6 -8.01,206.37 -5.34,54.76 -25.38,96.83 -60.11,126.22 -53.42,48.08 -112.19,72.12 -176.31,72.12 -64.11,0 -122.88,-22.7 -176.31,-68.12 -34.72,-32.05 -54.76,-74.79 -60.1,-128.22 -5.34,-53.43 -8.02,-122.88 -8.02,-208.37l0 -252.44 -849.49 0zm2392.14 -1995.51c24.04,-106.85 48.08,-185.66 72.12,-236.41 24.05,-50.76 76.14,-76.14 156.28,-76.14 50.75,0 90.16,7.35 118.21,22.04 28.04,14.7 48.08,31.39 60.1,50.09 12.02,18.7 19.37,37.4 22.04,56.1 2.67,18.7 4.01,32.06 4.01,40.07 0,24.04 -3.34,54.76 -10.02,92.16 -6.68,37.4 -16.7,82.81 -30.05,136.24l-548.97 2255.97c-24.04,114.86 -49.42,195.67 -76.13,242.42 -26.72,46.75 -77.47,70.12 -152.27,70.12 -50.76,0 -90.16,-7.34 -118.21,-22.03 -28.05,-14.7 -48.08,-31.39 -60.1,-50.09 -12.02,-18.7 -19.37,-37.4 -22.04,-56.1 -2.67,-18.7 -4.01,-32.06 -4.01,-40.07 0,-24.04 3.34,-54.76 10.02,-92.16 6.68,-37.4 16.7,-82.82 30.05,-136.24l548.97 -2255.97zm1633.31 1558.74l0 -1142 -841.47 1142 841.47 0zm-849.49 436.77c-58.77,0 -108.86,-0.67 -150.26,-2 -41.41,-1.34 -77.47,-4.01 -108.19,-8.02 -30.72,-4 -57.44,-11.35 -80.14,-22.04 -22.71,-10.68 -44.75,-26.71 -66.12,-48.08 -37.4,-37.4 -63.44,-76.8 -78.14,-118.21 -14.69,-41.4 -22.04,-78.14 -22.04,-110.19 0,-24.04 2.68,-46.08 8.02,-66.12 5.34,-20.03 15.36,-42.07 30.05,-66.11 14.69,-24.05 33.39,-52.76 56.1,-86.16 22.71,-33.39 52.76,-74.13 90.16,-122.21l1037.82 -1386.44c64.11,-85.48 118.88,-150.26 164.29,-194.34 45.41,-44.08 104.18,-66.11 176.31,-66.11 48.08,0 91.49,10.68 130.23,32.05 38.73,21.37 70.12,46.75 94.16,76.14 29.39,37.4 46.09,82.81 50.09,136.24 4.01,53.42 6.01,126.88 6.01,220.38l0 1394.45 84.15 0c53.43,0 104.18,2.67 152.27,8.02 48.08,5.34 86.82,22.7 116.2,52.09 42.74,45.41 64.12,98.84 64.12,160.28 0,58.77 -22.71,110.86 -68.12,156.27 -26.72,26.72 -62.78,43.41 -108.19,50.09 -45.42,6.68 -85.49,10.02 -120.22,10.02l-120.21 0 0 252.44c0,82.82 -2.67,151.6 -8.01,206.37 -5.34,54.76 -25.38,96.83 -60.11,126.22 -53.42,48.08 -112.19,72.12 -176.31,72.12 -64.11,0 -122.88,-22.7 -176.31,-68.12 -34.72,-32.05 -54.76,-74.79 -60.1,-128.22 -5.34,-53.43 -8.02,-122.88 -8.02,-208.37l0 -252.44 -849.49 0zm1788.79 -1008.94c-12.64,0 -27.29,-0.86 -43.95,-2.59 -16.66,-1.72 -32.46,-6.03 -47.4,-12.92 -16.08,-9.19 -29.87,-22.98 -41.36,-41.36 -11.49,-18.39 -17.23,-37.34 -17.23,-56.88 0,-33.32 11.2,-68.36 33.6,-105.12 22.41,-36.77 50.85,-73.82 85.31,-111.16 34.47,-37.35 72.39,-73.82 113.75,-109.44 41.36,-35.62 80.43,-68.94 117.19,-99.96 44.81,-37.92 83.59,-71.52 116.33,-100.82 32.75,-29.3 60.04,-56.87 81.87,-82.72 21.83,-25.86 37.91,-51.42 48.25,-76.7 10.34,-25.27 15.51,-52.85 15.51,-82.72 0,-32.17 -5.74,-59.75 -17.23,-82.73 -11.49,-22.97 -26.71,-41.93 -45.67,-56.87 -18.96,-14.93 -39.93,-25.85 -62.91,-32.74 -22.98,-6.9 -45.38,-10.34 -67.21,-10.34 -29.87,0 -56.01,4.88 -78.42,14.65 -22.4,9.76 -41.36,20.96 -56.87,33.6 -15.51,12.64 -27.57,26.14 -36.19,40.5 -8.62,14.36 -14.65,25.57 -18.1,33.61 -17.23,50.55 -33.32,89.04 -48.25,115.47 -14.94,26.42 -41.36,39.64 -79.28,39.64 -24.13,0 -46.82,-8.05 -68.08,-24.13 -21.25,-16.09 -31.88,-41.94 -31.88,-77.55 0,-27.58 6.61,-61.47 19.82,-101.69 13.21,-40.21 35.91,-78.99 68.08,-116.33 32.17,-37.34 75.25,-68.93 129.25,-94.79 54,-25.85 121.79,-38.77 203.37,-38.77 8.04,0 21.25,0.28 39.63,0.86 18.39,0.57 39.07,2.58 62.05,6.03 22.98,3.45 47.39,8.62 73.24,15.51 25.85,6.9 49.7,16.66 71.53,29.3 54,29.87 96.22,71.81 126.67,125.81 30.44,54 45.67,112.02 45.67,174.07 0,34.46 -4.89,68.36 -14.65,101.68 -9.77,33.32 -25.57,67.21 -47.4,101.68 -21.83,34.47 -50.84,70.66 -87.03,108.57 -36.19,37.92 -80.71,78.13 -133.56,120.64 -44.81,35.62 -80.72,64.63 -107.72,87.04 -27,22.4 -49.4,42.22 -67.21,59.45 -17.81,17.24 -33.61,34.19 -47.39,50.85 -13.79,16.66 -29.3,37.05 -46.54,61.18l411.9 0c12.64,0 28.15,0.57 46.53,1.72 18.39,1.15 36.19,4.6 53.43,10.34 17.23,5.75 31.88,15.22 43.95,28.44 12.06,13.21 18.09,32.45 18.09,57.73 0,19.53 -4.88,37.63 -14.65,54.29 -9.76,16.66 -20.97,27.86 -33.6,33.61 -12.64,5.74 -26.14,9.19 -40.5,10.34 -14.37,1.15 -27.87,1.72 -40.5,1.72l-584.24 0z"/>
  </g>
 </g>
</svg>
