<?xml version="1.0" encoding="UTF-8"?>
<!DOCTYPE svg PUBLIC "-//W3C//DTD SVG 1.1//EN" "http://www.w3.org/Graphics/SVG/1.1/DTD/svg11.dtd">
<!-- Creator: CorelDRAW -->
<svg xmlns="http://www.w3.org/2000/svg" xml:space="preserve" width="152.4mm" height="152.4mm" version="1.1" style="shape-rendering:geometricPrecision; text-rendering:geometricPrecision; image-rendering:optimizeQuality; fill-rule:evenodd; clip-rule:evenodd"
viewBox="0 0 15240 15240"
 xmlns:xlink="http://www.w3.org/1999/xlink"
 xmlns:xodm="http://www.corel.com/coreldraw/odm/2003">
 <defs>
  <style type="text/css">
   <![CDATA[
    .fil0 {fill:none}
    .fil1 {fill:#C8158D}
    .fil2 {fill:#FFDA00}
    .fil3 {fill:white;fill-rule:nonzero}
   ]]>
  </style>
 </defs>
 <g id="Capa_x0020_1">
  <metadata id="CorelCorpID_0Corel-Layer"/>
  <g id="_1555067354288">
   <rect class="fil0" x="-0" y="-0" width="15240" height="15240"/>
   <ellipse id="contour" class="fil1" cx="7620.01" cy="7620" rx="7200.69" ry="7200.73"/>
   <path id="contour_0" class="fil2" d="M7620.01 364.25c4007.22,0 7255.71,3248.52 7255.71,7255.75 0,4007.22 -3248.49,7255.74 -7255.71,7255.74 -4007.22,0 -7255.7,-3248.52 -7255.7,-7255.74 0,-4007.23 3248.48,-7255.75 7255.7,-7255.75zm-0.06 985.8c3462.82,0 6270.01,2807.18 6270.01,6270 0,3462.82 -2807.19,6270.01 -6270.01,6270.01 -3462.82,0 -6270,-2807.19 -6270,-6270.01 0,-3462.82 2807.18,-6270 6270,-6270z"/>
   <path class="fil3" d="M4139.21 4017.6l7249.74 0c223.3,0 426.22,91.26 573.24,238.28 147.02,147.02 238.28,349.94 238.28,573.24l0 5089.73c0,223.3 -91.26,426.22 -238.28,573.24 -147.02,147.02 -349.94,238.28 -573.24,238.28l-4031.42 0 -1240.25 1430.8c-63.41,73.16 -143.94,122.18 -231.32,144.39 -87.25,22.18 -181.24,17.61 -271.77,-16.31 -90.49,-33.91 -164.43,-92.39 -215.8,-166.75 -51.34,-74.29 -79.85,-163.91 -79.57,-260.14l3.36 -1131.99 -1182.97 0c-223.3,0 -426.22,-91.26 -573.24,-238.28 -147.02,-147.02 -238.28,-349.94 -238.28,-573.24l0 -5089.73c0,-223.3 91.26,-426.22 238.28,-573.24 147.02,-147.02 349.94,-238.28 573.24,-238.28zm6008.91 1715.72c815.42,0 1482.58,667.16 1482.58,1482.58l0 518.18c0,815.42 -667.16,1482.58 -1482.58,1482.58 -815.43,0 -1482.59,-667.16 -1482.59,-1482.58l0 -518.18c0,-815.42 667.16,-1482.58 1482.59,-1482.58zm-2412.33 12.57c224.5,0 408.18,183.68 408.18,408.18l0 1603.18 105.4 0c193.13,0 351.13,158 351.13,351.13l0 0.01c0,193.13 -158,351.13 -351.13,351.13l-105.4 0 0 320.7c0,224.5 -183.68,408.18 -408.18,408.18 -224.5,0 -408.18,-183.68 -408.18,-408.18l0 -320.7 -606.34 0 -654.15 0c-224.5,0 -408.18,-183.68 -408.18,-408.18 0,-53.9 10.62,-105.44 29.82,-152.66l-0.04 0c69.44,-222.71 1278.3,-1563.02 1495.23,-1814.74 112.76,-129.69 307.28,-317.94 473.73,-330.5l0 0.03c25.3,-4.95 51.41,-7.58 78.11,-7.58zm-2616.2 0c224.5,0 408.18,183.68 408.18,408.18l0 2626.15c0,224.5 -183.68,408.18 -408.18,408.18 -224.5,0 -408.18,-183.68 -408.18,-408.18l0 -2186.47 -248.33 74.71c-187.37,56.37 -386.8,-50.81 -443.17,-238.17l-0.01 -0.01c-56.37,-187.38 50.8,-386.81 238.17,-443.18l748.9 -225.33 0.02 0.03c35.8,-10.35 73.58,-15.91 112.6,-15.91zm6269.36 -1478.29l-7249.74 0c-154.29,0 -294.65,63.21 -396.48,165.04 -101.83,101.83 -165.04,242.19 -165.04,396.48l0 5089.73c0,154.29 63.21,294.65 165.04,396.48 101.83,101.83 242.19,165.04 396.48,165.04l1432.74 0 -4.11 1381.99c-0.13,44.45 12.65,85.28 35.63,118.54 22.94,33.2 56.39,59.49 97.64,74.95 41.22,15.44 83.88,17.56 123.33,7.53 39.31,-9.99 75.64,-32.16 104.36,-65.29l1315.6 -1517.72 4144.55 0c154.29,0 294.65,-63.21 396.48,-165.04 101.83,-101.83 165.04,-242.19 165.04,-396.48l0 -5089.73c0,-154.29 -63.21,-294.65 -165.04,-396.48 -101.83,-101.83 -242.19,-165.04 -396.48,-165.04z"/>
  </g>
 </g>
</svg>
