<?xml version="1.0" encoding="UTF-8"?>
<!DOCTYPE svg PUBLIC "-//W3C//DTD SVG 1.1//EN" "http://www.w3.org/Graphics/SVG/1.1/DTD/svg11.dtd">
<!-- Creator: CorelDRAW -->
<svg xmlns="http://www.w3.org/2000/svg" xml:space="preserve" width="152.4mm" height="152.4mm" version="1.1" style="shape-rendering:geometricPrecision; text-rendering:geometricPrecision; image-rendering:optimizeQuality; fill-rule:evenodd; clip-rule:evenodd"
viewBox="0 0 15240 15240"
 xmlns:xlink="http://www.w3.org/1999/xlink"
 xmlns:xodm="http://www.corel.com/coreldraw/odm/2003">
 <defs>
  <style type="text/css">
   <![CDATA[
    .fil0 {fill:none}
    .fil1 {fill:#C8158D}
    .fil2 {fill:#FFDA00}
    .fil3 {fill:white;fill-rule:nonzero}
   ]]>
  </style>
 </defs>
 <g id="Capa_x0020_1">
  <metadata id="CorelCorpID_0Corel-Layer"/>
  <g id="_1555195474736">
   <rect class="fil0" x="-0" y="-0" width="15240" height="15240"/>
   <path class="fil1" d="M5302.97 620.06c602.29,-87.67 1258.56,-139.78 1925.26,-155.94l0 -2.44c130.23,-2.33 260.7,-3.31 391.1,-2.91l1.35 0c130.4,-0.4 260.88,0.57 391.1,2.91l0 2.44c666.7,16.16 1322.97,68.27 1925.26,155.94 1168.23,170.04 2034.35,454.91 2991.98,961.24 375,198.28 624.47,507.53 738.86,916.01 546.7,1952.26 593.62,4475.73 -355.27,6693.43 -1022.72,2390.25 -2931.53,4171.57 -5219.41,5347.67l-81.42 41.85 0 0.18 -19.03 9.6 -369.3 189.85 -3.43 1.43 -3.46 -1.43 -369.29 -189.85 -19.04 -9.6 0 -0.18 -81.42 -41.85c-2287.88,-1176.1 -4196.69,-2957.42 -5219.4,-5347.67 -948.9,-2217.7 -901.98,-4741.17 -355.27,-6693.43 114.39,-408.48 363.85,-717.73 738.85,-916.01 957.63,-506.33 1823.76,-791.2 2991.98,-961.24z"/>
   <path class="fil2" d="M5272.5 527.99c610.21,-88.82 1275.11,-141.62 1950.58,-157.99l0 -2.47c131.94,-2.36 264.13,-3.35 396.24,-2.95l1.37 0c132.12,-0.4 264.31,0.58 396.24,2.95l0 2.47c675.47,16.37 1340.37,69.17 1950.59,157.99 1183.59,172.28 2061.1,460.89 3031.33,973.89 379.93,200.88 632.68,514.2 748.57,928.05 553.9,1977.94 601.43,4534.6 -359.94,6781.46 -1036.17,2421.7 -2970.08,4226.45 -5288.06,5418.02l-82.49 42.4 0 0.18 -19.28 9.73 -374.16 192.34 -3.47 1.45 -3.5 -1.45 -374.16 -192.34 -19.28 -9.73 0 -0.18 -82.49 -42.4c-2317.98,-1191.57 -4251.89,-2996.32 -5288.05,-5418.02 -961.38,-2246.86 -913.85,-4803.52 -359.95,-6781.46 115.9,-413.85 368.64,-727.17 748.58,-928.05 970.22,-513 1847.74,-801.61 3031.33,-973.89zm151.33 1039.69c-1063.03,154.73 -2023.76,454.89 -2852.19,943.01 -1334,4290.73 309.12,8747.6 5049.28,11184.3 4789.49,-2416.98 6493.14,-6893.57 5159.14,-11184.3 -810,-477.25 -1746.44,-774.83 -2781.36,-932.47 -1360.59,-207.25 -3211.6,-208.97 -4574.87,-10.54z"/>
   <path class="fil3" d="M4617.85 3229.26l6240.16 0c192.2,0 366.86,78.55 493.41,205.1 126.54,126.55 205.09,301.21 205.09,493.41l0 4380.95c0,192.2 -78.55,366.86 -205.09,493.41 -126.55,126.54 -301.21,205.09 -493.41,205.09l-3470.02 0 -1067.53 1231.55c-54.58,62.98 -123.9,105.17 -199.11,124.29 -75.1,19.09 -156,15.15 -233.92,-14.04 -77.89,-29.19 -141.54,-79.53 -185.75,-143.53 -44.19,-63.95 -68.73,-141.08 -68.49,-223.91l2.89 -974.36 -1018.23 0c-192.2,0 -366.87,-78.55 -493.41,-205.09 -126.55,-126.55 -205.1,-301.21 -205.1,-493.41l0 -4380.95c0,-192.2 78.55,-366.86 205.1,-493.41 126.54,-126.55 301.21,-205.1 493.41,-205.1zm5172.12 1476.79c701.87,0 1276.12,574.26 1276.12,1276.12l0 446.02c0,701.87 -574.25,1276.12 -1276.12,1276.12 -701.87,0 -1276.13,-574.25 -1276.13,-1276.12l0 -446.02c0,-701.86 574.26,-1276.12 1276.13,-1276.12zm-2076.39 10.82c193.23,0 351.33,158.1 351.33,351.34l0 1379.93 90.73 0c166.23,0 302.23,135.99 302.23,302.23l0 0.01c0,166.23 -136,302.23 -302.23,302.23l-90.73 0 0 276.04c0,193.24 -158.1,351.34 -351.33,351.34 -193.24,0 -351.34,-158.1 -351.34,-351.34l0 -276.04 -521.9 0 -563.06 0c-193.23,0 -351.34,-158.1 -351.34,-351.34 0,-46.39 9.15,-90.76 25.67,-131.4l-0.03 0c59.77,-191.7 1100.28,-1345.36 1287,-1562.02 97.06,-111.63 264.49,-273.67 407.76,-284.48l0 0.03c21.78,-4.26 44.26,-6.53 67.24,-6.53zm-2251.88 0c193.24,0 351.34,158.1 351.34,351.34l0 2260.44c0,193.24 -158.1,351.34 -351.34,351.34 -193.23,0 -351.33,-158.1 -351.33,-351.34l0 -1881.99 -213.75 64.31c-161.28,48.52 -332.94,-43.74 -381.46,-205.01l-0.01 0c-48.52,-161.29 43.73,-332.95 205.01,-381.47l644.61 -193.95 0.01 0.03c30.82,-8.91 63.34,-13.7 96.92,-13.7zm5396.31 -1272.42l-6240.16 0c-132.8,0 -253.62,54.4 -341.27,142.05 -87.65,87.65 -142.05,208.47 -142.05,341.27l0 4380.95c0,132.8 54.4,253.61 142.05,341.26 87.65,87.65 208.47,142.06 341.27,142.06l1233.22 0 -3.54 1189.54c-0.11,38.26 10.89,73.4 30.67,102.03 19.74,28.57 48.54,51.2 84.04,64.51 35.48,13.29 72.2,15.12 106.16,6.48 33.83,-8.6 65.1,-27.68 89.82,-56.2l1132.4 -1306.36 3567.39 0c132.8,0 253.61,-54.41 341.26,-142.06 87.65,-87.65 142.06,-208.46 142.06,-341.26l0 -4380.95c0,-132.8 -54.41,-253.62 -142.06,-341.27 -87.65,-87.65 -208.46,-142.05 -341.26,-142.05z"/>
  </g>
 </g>
</svg>
