<?xml version="1.0" encoding="UTF-8"?>
<!DOCTYPE svg PUBLIC "-//W3C//DTD SVG 1.1//EN" "http://www.w3.org/Graphics/SVG/1.1/DTD/svg11.dtd">
<!-- Creator: CorelDRAW -->
<svg xmlns="http://www.w3.org/2000/svg" xml:space="preserve" width="152.4mm" height="152.4mm" version="1.1" style="shape-rendering:geometricPrecision; text-rendering:geometricPrecision; image-rendering:optimizeQuality; fill-rule:evenodd; clip-rule:evenodd"
viewBox="0 0 15240 15240"
 xmlns:xlink="http://www.w3.org/1999/xlink"
 xmlns:xodm="http://www.corel.com/coreldraw/odm/2003">
 <defs>
  <style type="text/css">
   <![CDATA[
    .fil0 {fill:none}
    .fil1 {fill:#1C83C6}
    .fil2 {fill:#F4B1CD}
    .fil3 {fill:#FFD015}
   ]]>
  </style>
 </defs>
 <g id="Capa_x0020_1">
  <metadata id="CorelCorpID_0Corel-Layer"/>
  <g id="_2981978440496">
   <rect class="fil0" x="-0" y="-0" width="15240" height="15240"/>
   <ellipse id="contour" class="fil1" cx="7620.01" cy="7620" rx="7200.69" ry="7200.73"/>
   <path id="contour_82" class="fil2" d="M7620.01 364.25c4007.22,0 7255.71,3248.52 7255.71,7255.75 0,4007.22 -3248.49,7255.74 -7255.71,7255.74 -4007.22,0 -7255.7,-3248.52 -7255.7,-7255.74 0,-4007.23 3248.48,-7255.75 7255.7,-7255.75zm-0.06 985.8c3462.82,0 6270.01,2807.18 6270.01,6270 0,3462.82 -2807.19,6270.01 -6270.01,6270.01 -3462.82,0 -6270,-2807.19 -6270,-6270.01 0,-3462.82 2807.18,-6270 6270,-6270z"/>
   <path class="fil2" d="M3953.61 6766.87l1492.96 0 0 -2589.41 779.38 0 0 2589.41 999.09 0 0 -2589.41c259.8,0 519.59,0 779.38,0l0 2589.41 999.09 0 0 -2589.41 779.38 0 0 2589.41 1457.37 0c181.61,0 330.2,148.59 330.2,330.2l0 650.48 -7947.05 0 0 -650.48c0,-181.61 148.59,-330.2 330.2,-330.2zm7616.85 1244.56l0 3009.54 -7947.05 0 0 -3009.54 7947.05 0z"/>
   <path class="fil3" d="M5831.7 2820.03c-17.97,0 -66.48,68.6 -72.91,77.83 -72.82,104.6 -169.06,298.72 -169.06,482.36 0,233.01 70.65,372.62 186.72,405.69 18.88,5.37 38.27,7.8 57.82,7.68 15.95,-0.12 32.25,-2.14 47.72,-5.98 119.86,-29.72 193.11,-170.14 193.11,-407.39 0,-184.85 -97.5,-380.34 -170.5,-484.43 -6.35,-9.05 -53.79,-75.76 -71.47,-75.76l-0.71 0.08 -0.72 -0.08zm3556.94 0c-17.97,0 -66.48,68.6 -72.91,77.83 -72.82,104.6 -169.06,298.72 -169.06,482.36 0,233.01 70.65,372.62 186.72,405.69 18.88,5.37 38.27,7.8 57.82,7.68 15.95,-0.12 32.25,-2.14 47.72,-5.98 119.86,-29.72 193.11,-170.14 193.11,-407.39 0,-184.85 -97.5,-380.34 -170.5,-484.43 -6.35,-9.05 -53.79,-75.76 -71.47,-75.76l-0.71 0.08 -0.72 -0.08zm-1778.48 0c-17.97,0 -66.48,68.6 -72.91,77.83 -72.82,104.6 -169.06,298.72 -169.06,482.36 0,233.01 70.65,372.62 186.72,405.69 18.88,5.37 38.27,7.8 57.82,7.68 15.95,-0.12 32.25,-2.14 47.72,-5.98 119.86,-29.72 193.11,-170.14 193.11,-407.39 0,-184.85 -97.5,-380.34 -170.5,-484.43 -6.35,-9.05 -53.79,-75.76 -71.47,-75.76 -0.23,0.03 -0.47,0.06 -0.71,0.08 -0.24,-0.02 -0.48,-0.05 -0.72,-0.08z"/>
  </g>
 </g>
</svg>
