<?xml version="1.0" encoding="UTF-8"?>
<!DOCTYPE svg PUBLIC "-//W3C//DTD SVG 1.1//EN" "http://www.w3.org/Graphics/SVG/1.1/DTD/svg11.dtd">
<!-- Creator: CorelDRAW -->
<svg xmlns="http://www.w3.org/2000/svg" xml:space="preserve" width="152.4mm" height="152.4mm" version="1.1" style="shape-rendering:geometricPrecision; text-rendering:geometricPrecision; image-rendering:optimizeQuality; fill-rule:evenodd; clip-rule:evenodd"
viewBox="0 0 15240 15240"
 xmlns:xlink="http://www.w3.org/1999/xlink"
 xmlns:xodm="http://www.corel.com/coreldraw/odm/2003">
 <defs>
  <style type="text/css">
   <![CDATA[
    .fil0 {fill:none}
    .fil1 {fill:#3B54A5}
    .fil2 {fill:#DB9B13}
    .fil3 {fill:#3B54A5;fill-rule:nonzero}
   ]]>
  </style>
 </defs>
 <g id="Capa_x0020_1">
  <metadata id="CorelCorpID_0Corel-Layer"/>
  <g id="_2981911949040">
   <rect class="fil0" x="-0" y="-0" width="15240" height="15240"/>
   <ellipse id="contour" class="fil1" cx="7620" cy="7620" rx="7200.69" ry="7200.73"/>
   <path id="contour_20" class="fil2" d="M7620.01 364.25c4007.22,0 7255.71,3248.52 7255.71,7255.75 0,4007.22 -3248.49,7255.74 -7255.71,7255.74 -4007.22,0 -7255.7,-3248.52 -7255.7,-7255.74 0,-4007.23 3248.48,-7255.75 7255.7,-7255.75zm-198.58 9668.85l471.76 0c5.73,1006.54 643.42,1714.57 1417.05,1714.57 17.3,0 38.17,0.28 61.99,0.71 138.24,2.53 249.35,115.69 249.35,253.95l0 44.61c0,139.9 -114.1,254 -254,254l-3495.15 0c-139.9,0 -254,-114.1 -254,-254l0 -43.01c0,-137.87 110.38,-250.8 248.21,-253.94 56.45,-1.28 103.92,-2.32 137.74,-2.32 773.63,0 1411.32,-708.03 1417.05,-1714.57zm197.04 -279.08l3.08 0 4.2 0.02c655.52,0 1255.36,-455.02 1717.5,-1208.46 1331.91,-664.83 2500.27,-2091.3 2749.51,-3831.14 9.74,-67.97 -8.64,-130.25 -53.61,-182.15 -44.97,-51.9 -104.08,-78.9 -172.76,-78.9l-1445.7 0c12.63,-185.95 19.71,-363.34 21.09,-528.8 1.13,-133.61 -45.82,-249 -139.9,-343.88 -94.08,-94.87 -209.06,-142.79 -342.68,-142.79l-1889.19 0 -900 0 -1889.19 0c-133.62,0 -248.6,47.92 -342.68,142.79 -94.08,94.88 -141.03,210.27 -139.9,343.88 1.38,165.46 8.46,342.85 21.09,528.8l-1445.69 0c-68.68,0 -127.79,27 -172.76,78.9 -44.97,51.9 -63.35,114.18 -53.61,182.15 249.24,1739.83 1417.61,3166.3 2749.5,3831.14 462.13,753.44 1061.98,1208.46 1717.5,1208.46l4.2 -0.02zm2130.35 -2056.9c313.89,-826.62 527.2,-1848.59 627.49,-2751.41l1111.93 0c-110.82,1049.32 -850.59,2097.36 -1739.42,2751.41zm-4885.11 -2751.41c100.29,902.82 313.6,1924.79 627.48,2751.4 -888.82,-654.05 -1628.58,-1702.09 -1739.4,-2751.4l1111.92 0zm2756.24 -3595.66c3462.82,0 6270.01,2807.18 6270.01,6270 0,3462.82 -2807.19,6270.01 -6270.01,6270.01 -3462.82,0 -6270,-2807.19 -6270,-6270.01 0,-3462.82 2807.18,-6270 6270,-6270z"/>
   <path class="fil3" d="M7067.45 7430.68c0,22.26 -1.23,53.79 -3.7,94.6 -2.48,40.81 -11.13,81 -25.97,120.57 -14.84,39.57 -38.96,74.19 -72.34,103.87 -33.39,29.68 -81,44.52 -142.83,44.52 -44.52,0 -86.56,-10.51 -126.14,-31.53 -39.57,-21.02 -68.01,-48.85 -85.32,-83.48 -19.79,-37.09 -30.91,-73.57 -33.39,-109.43 -2.48,-35.86 -3.71,-74.82 -3.71,-116.86l0 -1598.93c-163.23,123.66 -293.69,213.31 -391.38,268.96 -97.7,55.64 -172.51,83.47 -224.45,83.47 -54.41,0 -100.78,-17.93 -139.11,-53.79 -38.34,-35.86 -57.51,-85.95 -57.51,-150.25 0,-49.46 16.7,-89.65 50.08,-120.57 33.39,-30.92 89.66,-64.92 168.8,-102.02 42.04,-19.78 90.89,-45.14 146.54,-76.05 55.65,-30.92 113.15,-68.01 172.5,-111.29 59.36,-43.28 116.86,-91.51 172.51,-144.69 55.65,-53.17 104.49,-111.91 146.54,-176.21 22.26,-34.63 41.43,-64.31 57.5,-89.04 16.08,-24.73 32.77,-44.52 50.08,-59.36 17.31,-14.83 35.86,-25.96 55.65,-33.39 19.78,-7.42 43.28,-11.12 70.48,-11.12 54.42,0 95.84,12.98 124.29,38.95 28.44,25.97 49.46,56.27 63.06,90.89 13.61,34.63 21.64,69.87 24.12,105.73 2.47,35.86 3.7,64.92 3.7,87.18l0 2029.27zm1814.44 -1016.49c0,-150.86 -6.19,-286.28 -18.55,-406.23 -12.37,-119.94 -35.24,-221.35 -68.64,-304.2 -33.38,-82.85 -77.9,-146.54 -133.54,-191.05 -55.65,-44.52 -125.52,-66.78 -209.61,-66.78 -93.98,0 -168.8,26.59 -224.44,79.76 -55.65,53.17 -98.31,125.52 -127.99,217.02 -29.68,91.51 -49.47,196.62 -59.36,315.34 -9.89,118.71 -14.84,242.37 -14.84,370.98 0,133.55 4.95,260.3 14.84,380.25 9.89,119.95 29.68,225.69 59.36,317.19 29.68,91.51 72.34,164.47 127.99,218.88 55.64,54.41 130.46,81.62 224.44,81.62 91.51,0 165.7,-25.35 222.59,-76.05 56.88,-50.7 100.78,-121.81 131.69,-213.32 30.92,-91.51 51.33,-198.47 61.22,-320.89 9.89,-122.43 14.84,-256.6 14.84,-402.52zm500.82 33.39c0,153.34 -10.51,309.77 -31.53,469.29 -21.02,159.52 -67.39,302.35 -139.12,428.48 -79.14,140.98 -184.25,251.04 -315.33,330.18 -131.09,79.14 -277,118.71 -437.76,118.71 -51.94,0 -115.01,-6.8 -189.2,-20.4 -74.2,-13.61 -149.63,-42.05 -226.3,-85.33 -76.67,-43.28 -151.48,-103.87 -224.45,-181.78 -72.96,-77.9 -135.4,-182.4 -187.34,-313.48 -37.1,-93.98 -64.3,-206.51 -81.62,-337.59 -17.31,-131.08 -25.96,-263.4 -25.96,-396.95 0,-66.78 1.85,-147.77 5.56,-243 3.71,-95.21 14.84,-194.14 33.39,-296.78 18.55,-102.64 46.99,-204.04 85.32,-304.21 38.34,-100.16 91.51,-189.81 159.52,-268.96 68.02,-79.14 154.58,-143.44 259.69,-192.91 105.11,-49.46 233.1,-74.19 383.97,-74.19 96.45,0 181.78,11.12 255.98,33.38 74.19,22.26 138.49,49.47 192.91,81.62 54.41,32.15 99.54,66.78 135.41,103.87 35.85,37.1 64.91,69.25 87.17,96.46 34.63,44.52 67.4,94.6 98.31,150.25 30.92,55.65 58.74,124.28 83.48,205.89 24.73,81.62 43.89,178.69 57.5,291.22 13.6,112.54 20.4,247.94 20.4,406.23z"/>
  </g>
 </g>
</svg>
