<?xml version="1.0" encoding="UTF-8"?>
<!DOCTYPE svg PUBLIC "-//W3C//DTD SVG 1.1//EN" "http://www.w3.org/Graphics/SVG/1.1/DTD/svg11.dtd">
<!-- Creator: CorelDRAW -->
<svg xmlns="http://www.w3.org/2000/svg" xml:space="preserve" width="152.4mm" height="152.4mm" version="1.1" style="shape-rendering:geometricPrecision; text-rendering:geometricPrecision; image-rendering:optimizeQuality; fill-rule:evenodd; clip-rule:evenodd"
viewBox="0 0 15240 15240"
 xmlns:xlink="http://www.w3.org/1999/xlink"
 xmlns:xodm="http://www.corel.com/coreldraw/odm/2003">
 <defs>
  <style type="text/css">
   <![CDATA[
    .fil0 {fill:none}
    .fil2 {fill:#004F7F}
    .fil1 {fill:#F9991E}
    .fil3 {fill:#004F7F;fill-rule:nonzero}
   ]]>
  </style>
 </defs>
 <g id="Capa_x0020_1">
  <metadata id="CorelCorpID_0Corel-Layer"/>
  <g id="_2981912478832">
   <rect class="fil0" x="-0" y="-0" width="15240" height="15240"/>
   <ellipse id="contour" class="fil1" cx="7620.01" cy="7620" rx="7200.69" ry="7200.73"/>
   <path id="contour_24" class="fil2" d="M7620.01 364.25c4007.22,0 7255.71,3248.52 7255.71,7255.75 0,4007.22 -3248.49,7255.74 -7255.71,7255.74 -4007.22,0 -7255.7,-3248.52 -7255.7,-7255.74 0,-4007.23 3248.48,-7255.75 7255.7,-7255.75zm-0.06 985.8c3462.82,0 6270.01,2807.18 6270.01,6270 0,3462.82 -2807.19,6270.01 -6270.01,6270.01 -3462.82,0 -6270,-2807.19 -6270,-6270.01 0,-3462.82 2807.18,-6270 6270,-6270z"/>
   <path id="path1" class="fil3" d="M8568.13 9097.33c3.91,-3.71 -56.48,-120.6 -116.87,-226.21 -14.16,-24.77 -45.78,-81.97 -70.25,-127.12 -24.48,-45.14 -51.01,-90.26 -58.96,-100.24 -7.96,-9.99 -40.12,-64.47 -71.48,-121.07 -31.35,-56.59 -61.9,-111.08 -67.87,-121.06 -5.98,-9.99 -49.49,-86.26 -96.7,-169.49 -47.21,-83.23 -90.79,-159.5 -96.85,-169.49 -29.13,-48.01 -178.7,-310.91 -185.96,-326.88 -4.54,-9.99 -18.4,-34.5 -30.8,-54.47 -12.39,-19.98 -53.47,-90.8 -91.26,-157.39 -37.8,-66.58 -73.6,-129.23 -79.57,-139.22 -72.21,-120.96 -181.72,-317 -181.72,-325.33 0,-5.88 -7.43,-16.86 -16.53,-24.4 -13.39,-11.12 -62.16,65.78 -257.26,405.58 -132.4,230.61 -252.32,439.05 -266.48,463.2 -84.84,144.64 -434.52,749.56 -497.76,861.08 -70.74,124.74 -153.58,261.65 -170.03,281.02 -22.73,26.74 -11.67,54.82 23.92,60.72 33.6,5.58 2326.36,-3.5 2332.42,-9.23l0.01 0zm-6293.5 632.51c-80.1,-27.74 -84.71,-52.11 -84.73,-448.27 0,-366.46 1.65,-379.06 56.71,-428.02 43.04,-38.28 190.33,-50.81 276.81,-23.55 34.84,10.98 68.75,26.69 75.36,34.9 6.6,8.21 26.52,62.87 44.25,121.46 24.27,80.15 38.57,108.87 57.76,115.97 14.04,5.19 141.31,10.75 282.84,12.37 251.68,2.87 257.5,2.38 265.35,-22.38 16.72,-52.67 2.14,-102.46 -38.3,-130.78 -21.39,-14.98 -44.35,-27.24 -51.01,-27.24 -13.61,0 -97.5,-43.53 -152.61,-79.18 -98.44,-63.69 -192.58,-143.03 -302.66,-255.05 -141.56,-144.07 -140.6,-142.94 -209.86,-246.12 -111.27,-165.75 -192.18,-348.93 -235.8,-533.84 -59.98,-254.19 -62.81,-282.39 -62.71,-623.08 0.12,-360.54 10.55,-438.65 91.5,-684.66 48.69,-147.98 176.32,-396.69 229.53,-447.28 3.5,-3.34 25.3,-30.45 48.43,-60.27 55.72,-71.81 207.83,-217.43 290.53,-278.13 36.46,-26.76 75.35,-55.63 86.43,-64.14 16.04,-12.34 180.2,-96.72 276.47,-142.12 9.99,-4.71 72.64,-25.19 139.23,-45.52 190.1,-58.04 396.87,-86.66 641.63,-88.82 161.2,-1.42 486.02,28.05 523.74,47.51 11.58,5.97 51.02,17.74 87.63,26.15 36.63,8.41 72.04,19.36 78.7,24.33 6.65,4.97 25.72,13.08 42.37,18.02 166.34,49.34 429.99,214.67 593.95,372.45 88.46,85.12 241.39,262.16 241.39,279.45 0,3.01 21.01,40.07 46.69,82.37 212.8,350.51 285.64,874.92 197.33,1420.71 -29.91,184.9 -109.38,418.2 -196.32,576.38 -111.04,201.99 -358.75,480.23 -533.18,598.87 -49.27,33.5 -130.43,79.04 -180.37,101.19 -119.6,53.05 -134.53,67.8 -125.41,123.96l7.2 44.38 99.49 8.28c109.28,9.1 413.47,1.55 442.64,-10.98 10.1,-4.35 31.89,-34.71 48.43,-67.47 45.68,-90.52 142.83,-263.62 197.14,-351.28 26.7,-43.09 64.81,-108.46 84.68,-145.28 19.88,-36.81 42.72,-75.1 50.76,-85.08 8.05,-9.99 18.05,-26.34 22.24,-36.33 4.2,-9.98 24.15,-45.4 44.35,-78.69 20.19,-33.29 55.85,-95.94 79.23,-139.22 23.38,-43.28 54.06,-97.76 68.16,-121.06 14.1,-23.31 37.68,-64.17 52.38,-90.8 14.71,-26.64 47.3,-83.84 72.42,-127.12 67.7,-116.64 88.55,-152.81 115.55,-200.48 48.6,-85.79 124.35,-217.99 145.26,-253.51 80.96,-137.53 145.1,-250.1 145.1,-254.66 0,-2.96 23.35,-42.21 51.9,-87.22 28.54,-45.01 72.95,-122.7 98.67,-172.64 25.73,-49.94 55.5,-104.44 66.15,-121.12 37.05,-58.03 112.8,-186.49 178.44,-302.6 16.94,-29.96 48.7,-84.44 70.58,-121.06 21.88,-36.63 51.48,-88.38 65.78,-115.01 14.3,-26.64 37.52,-67.5 51.6,-90.8 14.08,-23.31 37.64,-64.17 52.34,-90.8 32.58,-58.98 110.01,-192.55 140.37,-242.13 12.23,-19.98 47.89,-82.63 79.23,-139.22 31.35,-56.6 83.61,-141.84 116.14,-189.43 52.64,-77.01 64.06,-87.1 103.89,-91.76 102.73,-12.02 185.24,43.67 238.62,161.06 10.37,22.79 34.52,66.77 53.68,97.73 19.15,30.97 48.21,80 64.58,108.96 16.36,28.97 134.73,235.17 263.03,458.23 128.3,223.05 257.74,449.14 287.63,502.41 53.64,95.59 215.89,377.37 257.92,447.94 52.18,87.6 150.62,259.25 180.63,314.95 18,33.4 57.35,101.5 87.44,151.34 30.09,49.83 153.98,264.44 275.31,476.92 121.33,212.47 234.02,407.58 250.44,433.59 40.04,63.42 74.41,123.18 116.2,202.06 81.17,153.18 95.1,171.75 122.56,163.48 14.22,-4.29 101.13,-84.82 193.12,-178.95 91.99,-94.14 384.81,-389.23 650.72,-655.78 265.9,-266.54 483.47,-491.4 483.47,-499.68 0,-8.28 -377.27,-392.38 -838.37,-853.56 -461.1,-461.18 -856.07,-858.93 -877.72,-883.89l-39.34 -45.39 0 -145.46c0,-150.22 9.41,-188.9 56.26,-231.1 20.64,-18.58 150.18,-20.66 1621.25,-25.91 1065.42,-3.81 1619.75,-1.58 1661.54,6.69 72.62,14.35 119.44,54.2 129.76,110.45 3.84,20.89 5.34,218.56 3.33,439.27 -3.48,381.38 -4.86,402.63 -27.87,428.42 -39.72,44.53 -96.85,61.29 -210.66,61.84 -108.04,0.51 -174.26,-16.69 -204.46,-53.11 -8.59,-10.36 -26.85,-67.04 -40.57,-125.97 -37.53,-161.1 -54.56,-195.19 -106.04,-212.22 -60.49,-20.01 -1291.17,-28.53 -1303.23,-9.02 -4.93,7.98 233.88,254.37 584.38,602.91 326,324.18 606.95,611.04 624.35,637.46 35.86,54.46 45,129.39 21.38,175.16 -8.59,16.65 -312.96,328.4 -676.37,692.78 -363.42,364.37 -657.88,665.38 -654.36,668.9 3.52,3.51 297.4,7.28 653.06,8.37 578.8,1.78 653.14,-0.17 708.34,-18.52 92.06,-30.61 131.27,-85.43 144.08,-201.41 17.62,-159.51 60.59,-194.31 240.52,-194.8 122.94,-0.33 178.49,15.15 219.58,61.21 23.36,26.2 24.33,46.87 27.7,588.87 3.8,614.07 1.07,646.14 -57.81,676.58 -31.23,16.15 -518.27,18.22 -4245.88,18.06 -3331.52,-0.14 -4216.92,-3.32 -4240.87,-15.22 -16.64,-8.28 -41.14,-36.8 -54.43,-63.38 -23.14,-46.27 -24.18,-72.94 -24.22,-623.39 -0.03,-556.06 0.76,-576.14 24.17,-607.94 18.28,-24.84 56.26,-43.67 155.01,-76.89 169.78,-57.11 227.5,-90.4 323.31,-186.48 101.99,-102.27 161.11,-215.3 206.37,-394.5 63.46,-251.27 77.85,-705.61 29.32,-925.45 -43.42,-196.68 -137.82,-389.04 -253.83,-517.24 -179.94,-198.84 -390.07,-307.05 -599.4,-308.66 -281.29,-2.18 -538.45,151.96 -717.88,430.28 -140.49,217.93 -190.1,416.07 -190.1,759.27 -0.01,333.03 41.44,594.3 122.02,769.27 62.41,135.49 264.57,311.7 387.88,338.1 22.52,4.82 46.39,13.05 53.05,18.28 6.65,5.24 35.47,15.78 64.03,23.41 28.56,7.64 69.41,29.52 90.8,48.62l38.87 34.73 0 591.18c0,325.15 -4.24,611.08 -9.41,635.41 -5.18,24.33 -18.8,48.84 -30.27,54.48 -35.18,17.29 -1514.63,17.96 -1564.42,0.71l0.01 -0.01z"/>
  </g>
 </g>
</svg>
