<?xml version="1.0" encoding="UTF-8"?>
<!DOCTYPE svg PUBLIC "-//W3C//DTD SVG 1.1//EN" "http://www.w3.org/Graphics/SVG/1.1/DTD/svg11.dtd">
<!-- Creator: CorelDRAW -->
<svg xmlns="http://www.w3.org/2000/svg" xml:space="preserve" width="152.4mm" height="152.4mm" version="1.1" style="shape-rendering:geometricPrecision; text-rendering:geometricPrecision; image-rendering:optimizeQuality; fill-rule:evenodd; clip-rule:evenodd"
viewBox="0 0 15240 15240"
 xmlns:xlink="http://www.w3.org/1999/xlink"
 xmlns:xodm="http://www.corel.com/coreldraw/odm/2003">
 <defs>
  <style type="text/css">
   <![CDATA[
    .fil0 {fill:none}
    .fil1 {fill:black}
    .fil2 {fill:#ED3145}
   ]]>
  </style>
 </defs>
 <g id="Capa_x0020_1">
  <metadata id="CorelCorpID_0Corel-Layer"/>
  <g id="_2569382132736">
   <rect class="fil0" x="-0" y="-0" width="15240" height="15240"/>
   <ellipse id="contour" class="fil1" cx="7620" cy="7620" rx="7200.69" ry="7200.73"/>
   <path class="fil2" d="M7572.37 10005.36c143.54,0 259.91,116.4 259.91,259.97 0,143.54 -116.37,259.95 -259.91,259.95 -143.57,0 -259.96,-116.41 -259.96,-259.95 0,-143.57 116.39,-259.97 259.96,-259.97zm3284.95 -6519.62c9.89,622.12 15.05,789.39 29.07,944.07 9.36,103.38 20.68,210.54 25.15,238.1 4.45,27.57 8.13,86.19 8.16,130.25 0.08,90.54 -21,322.53 -33.33,366.85l-28.39 104.43c-80.64,299.26 -285.49,567.16 -404.62,827.22 -15.95,35.01 -28.58,25.09 -24.1,-18.91 5.33,-52.25 27.74,-179.79 48.09,-273.61 70.87,-327.08 116.54,-1040.02 49.84,-1311.67 -9.02,-36.76 -18.92,-83.76 -21.97,-104.44 -11.69,-79.03 -85.22,-243.11 -143.02,-319.16 -38.85,-51.1 -99.14,-106.93 -115.47,-106.93 -18.98,0 -30.8,24.17 -25.51,52.13 53.34,152.62 113.65,183.51 140.12,473.26 5.27,57.59 7.2,216.32 4.78,393.38 -4.1,300.65 -28.2,506.02 -94.11,789.75 -61.64,265.29 -154.07,489.59 -283.81,730.06 -22.34,41.38 -50.34,77.95 -152.34,198.91 -218.12,258.6 -452.58,475.67 -745.81,638.01 -32.86,18.18 -99.71,21.77 -115.31,6.19 -5.51,-5.51 -10.02,-16.05 -10.02,-23.39 0,-36.06 148.36,-203.03 266.68,-300.15 89.2,-73.19 313.88,-247.38 363.87,-313.19 56.17,-73.94 111.09,-190.93 139.44,-296.98 9.17,-34.28 20.13,-68.79 24.36,-76.71 4.23,-7.9 15.11,-64.43 24.17,-125.64 9.07,-61.21 21.26,-133.84 27.1,-161.41 18.65,-88.2 10.91,-487.48 -14.42,-743.56 -22.44,-226.82 -41.81,-316.09 -93.36,-430.25 -30.54,-67.65 -32.67,-71.02 -44.59,-71.02 -25.87,0 -27.92,47.58 -12.44,290.06 15.84,247.98 14.12,569.82 -3.85,719.15 -18.41,153.08 -76.38,380.11 -128.4,502.96 -48.14,113.68 -115.39,216.24 -190.1,289.93 -65.01,64.13 -98.5,87.73 -199.21,140.34 -296.53,154.85 -591.72,378.09 -627.6,727.6 -11.95,116.45 -31.52,155.53 -57.24,114.34 -34.47,-55.2 -58.76,-223.33 -64.91,-449.27 -5.84,-214.13 8.04,-466.43 30.44,-553.72 25.58,-99.63 29.52,-212.37 46.78,-315.17 13.58,-80.72 15.7,-194.65 4.32,-230.59 -4.22,-13.32 -14.14,-45.83 -22.04,-72.26 -7.89,-26.42 -19.18,-48.03 -25.09,-48.03 -20.8,0 -48.18,121.94 -61.9,275.7 -9.82,109.89 -44.63,322.23 -72.35,430.26 -7.07,27.56 -19.64,85.84 -27.93,129.49 -48.69,256.18 -133.92,408.96 -133.92,681.86 0,94.94 2,108.9 21.78,152.05 76.2,166.2 80.23,260.53 11.1,260.53 -19.48,0 -38.16,-12.17 -82.4,-53.72 -65.4,-61.41 -105.63,-77.7 -157.43,-63.75 -29.97,8.06 -93.83,65.58 -93.83,84.51 0,4.53 -9.14,22.72 -20.3,40.41 -44.4,70.32 -24.38,129.3 -9.64,203.48 -37.02,31.81 -39.83,39.88 -93.76,38.46 -26.17,-0.68 -58.85,-2.8 -72.65,-4.69 -46.55,-6.4 -56.65,-40.73 -32.33,-109.9 13.58,-38.55 13.52,-38.99 -13.25,-102.42 -34.54,-81.89 -84.53,-139.45 -129.86,-149.54 -48.75,-10.85 -87.85,4.15 -139.31,53.49 -24.47,23.47 -56.39,50.83 -70.91,60.78l-26.42 18.09c-32.69,-34.83 -38.65,-35.72 -36.76,-88.64 2.76,-77.25 10.54,-112.72 31.52,-143.76 125.99,-186.56 -187.21,-1193.9 -213.35,-1512.91 -11.72,-143.38 -14.52,-156.12 -37.74,-171.33 -25.32,-16.6 -34.71,-10.77 -45.62,28.25 -25.49,91.12 -16.25,320.57 20.42,507.23 38.37,195.36 58.12,394.97 57.84,584.82 -0.13,103.3 -4.41,196.06 -10.38,225.57 -5.57,27.57 -15.71,102.68 -22.55,166.91 -14.3,134.38 -22.79,152.1 -59.72,124.55 -27.63,-20.62 -33.3,-40.47 -45.1,-157.61 -44.54,-442.43 -575.09,-574.39 -826.42,-823.41 -224.46,-222.34 -248.78,-488.87 -314.96,-776.25 -20.55,-89.19 -25.18,-581.33 -7.12,-754.94 7.74,-74.39 12.87,-159.67 11.41,-189.54 -2.51,-51.42 -3.74,-54.3 -23.22,-54.3 -13.72,0 -23.86,6.94 -30.48,20.88 -83.63,176.12 -101.59,281.01 -120.92,705.96 -13.72,302.1 -6.34,1020.52 293.26,1236.56 159.72,115.12 427.65,332.04 536.6,495.97 19.46,29.26 18.49,55.92 -2.58,70.66 -15.19,10.64 -23.33,10.23 -68.68,-3.5 -243.06,-73.59 -660.43,-501.75 -800.32,-668.96 -108.5,-129.69 -119.86,-146.89 -192.85,-291.91 -232.68,-462.18 -233.79,-665.34 -316.98,-1156.3 -13.12,-77.22 -18.85,-437.77 -8.78,-551.39 4.89,-55.15 14.86,-149.14 22.15,-208.87 12.48,-102.05 15.99,-114.16 58.19,-200.51 24.71,-50.55 50.57,-113.73 57.45,-140.41l12.5 -48.53 -20.53 -9.36c-18.77,-8.55 -24.53,-5.44 -66.78,36 -136.18,133.5 -199.71,301.02 -246.96,651.04 -10.2,75.61 -3.05,574.52 9.29,647.49 34.45,203.85 43.03,467.25 101.23,665.09 24.16,82.23 19.75,149.48 -9.83,149.48 -3.29,0 -12.39,-16.75 -20.18,-37.19 -124.84,-326.68 -313.55,-521.89 -412.67,-911.81 -37.65,-148.07 -44.83,-401.16 -17.04,-600.78 23.2,-166.7 31.78,-446.52 42.03,-1370.04 3.98,-358.95 6.35,-559.16 9.16,-673.49 1.33,-54.27 2.86,-89.31 4.74,-112.72 1.18,-105.29 22.45,-196.05 -106.28,-197.38 -152.26,-1.56 -108.13,260.21 -102.33,358.79 5.91,100.51 4.67,317.14 3.98,764.46 -0.27,168.25 52.43,1073.65 -130.44,1185.16 -30.53,18.62 -49.86,19.53 -85.37,4.07 -33.89,-14.75 -100.72,-92.41 -135.62,-157.59 -144.28,-269.47 -186.21,-805.67 -197.74,-1092.03 -2.68,-66.64 -8.83,-175.03 -13.65,-240.88 -6.59,-89.96 -6.32,-125.62 1.05,-143.41 4.47,-36.12 16.05,-72.38 23.75,-104.46 26.64,-111.08 -56.17,-222.77 -104.96,-28.09 -34.06,135.91 -51.39,354.66 -56.57,378.99 -33.2,155.7 -33.11,682.53 0.14,840.54 7.12,33.9 18.63,97.37 25.56,141.05 32.58,205.36 110.02,384.43 198.78,568.17 42.53,88.04 69.99,125.73 158.25,217.22 83.06,86.09 113.01,128.5 168.07,237.95 22.1,43.91 19.08,61.85 -13.96,82.68 -128.19,80.95 -525.87,-224.54 -620.6,-314.63 -61.99,-58.94 -70.33,-64.26 -89.36,-57.04 -71.87,27.33 -20.11,187.64 112.98,349.97 42.66,52.04 99.64,104.76 179.96,166.53 40.91,31.45 201.98,108.66 284.7,136.43 43.31,14.55 121.57,33.33 173.94,41.74 52.34,8.4 101.16,20.22 108.47,26.28 0.93,0.77 295.16,569.7 390.76,690.46 163.91,207.08 415.14,475.66 630.83,669.1 48.25,43.28 110.28,99.24 137.85,124.38 48.38,44.11 150.54,129.31 274.68,229.09 32.73,26.31 68.92,55.72 80.41,65.36 27.55,23.13 123.94,96.35 150.38,114.24 11.5,7.77 30.81,22.15 42.94,31.97 19.13,15.48 37.19,18.59 136.27,23.57 62.83,3.16 143.13,11.37 178.47,18.27 35.33,6.9 107.54,18.01 160.45,24.69 239.27,30.22 377.67,130.92 450.17,327.52 13.9,37.71 27.65,86.56 30.56,108.57 7.24,54.74 -13.59,81.07 -78.28,98.92 -44.09,12.16 -86.9,27.26 -129.83,42.65 -70.1,-13.52 -133.21,-182.03 -286.76,-190.11 -187.58,-9.83 -523.47,333.94 -631.51,459.75 -149.13,173.62 -150.93,266.67 79.59,434.55 128.9,93.89 371.98,177.35 525.12,112.93 88.92,-37.43 85.4,-26.62 205.19,-106.88l177.43 -98.52c244.1,-136.9 693.91,-244.67 981.87,-215.43 153.25,15.55 298.41,62.18 331.07,167.85 105.81,342.42 -487.12,478.93 -543.06,515.53 -56.46,36.99 -612.67,160.72 -700.84,172.57 -137.17,18.49 -183.74,38.29 -334.51,56.33 -196.51,23.48 -144.53,31.27 -383.46,52.23 -106.92,9.36 -224.87,51.46 -301.94,11.6 -132.22,-68.39 -577.43,-291.86 -650.19,-58.77 -168.69,540.46 -102.24,399.93 145.68,603.57 0,356.75 35.19,409.92 112.57,705.98 58.74,224.8 289.25,657.08 427.61,822.54 89.78,107.32 218,264.72 321.99,360.01 222.13,203.46 102.8,105.61 102.09,303.9 -0.86,234.07 295.91,289.15 402.32,358.83 73.56,48.13 463.17,158.8 543.66,109.09 162.93,-100.6 184.92,-706.93 -164.9,-874.34 -177.57,-84.95 -398.31,-249.91 -554.9,-379.94 -138.02,-114.64 -301.84,-326.26 -387.19,-486.33 -84.75,-158.89 -246.97,-426.82 -41.12,-558.73 142.73,-91.47 327.46,-5.03 507.26,143.32 246.67,203.54 484.12,523.62 591.11,660.45 72.71,93 572.15,797.31 587.3,847.46 21.23,70.28 -33.99,399.8 45.15,557.77 84.92,169.43 276.58,88.81 444.31,57.38 179.88,-33.69 200.93,-74.76 206.53,-219.15 4.91,-126.34 1.46,-120.36 97.09,-169.77 298.18,-154.2 505.97,-354.69 728.63,-622.46 113.02,-135.96 147.48,-188.24 232.48,-334.89 99.95,-172.4 260.1,-506.94 296.1,-696.2 15.58,-81.86 6.66,-101.57 105.96,-114.08 104.1,-13.18 170.51,-62.51 213.94,-154.08l24.56 -51.94c13.65,-61.13 -9.58,-492.29 -10.22,-494.97 -32.98,-138 -37.8,-370.77 -193.74,-432.02 -101.14,-39.75 -263.31,27.24 -356.94,90.1 -380.17,255.24 -248.28,518.09 -313.34,897.48 -43.88,256.07 -153.74,728.76 -346.3,923.74 -99.97,101.21 -217.95,121.34 -337.38,55.44 -317.03,-174.87 -112.99,-737.49 -24.35,-1009.77 79.59,-244.52 240.76,-656.6 358.48,-906.28 46.98,-99.66 135.25,-361.23 214.14,-414.42 130.92,-88.34 483.23,-317.69 411.13,-489.06 -7.58,-17.96 -269.32,-339.05 -374.99,-338.81 -101.61,0.22 -193.35,180.02 -320.57,70.93 -44.35,-38.01 -145.65,-82.58 -257.73,-122.62l0.79 -0.79c-44.5,-16.94 -90.47,-32.75 -130.65,-44.52 -52.15,-15.29 -64.85,-22.63 -77.9,-44.97 -14.11,-24.16 -14.67,-32.83 -5.93,-91.69 9.78,-65.84 52.38,-166.58 95.56,-225.98 68.98,-94.85 193.5,-160.14 347.17,-182 48.25,-6.87 115.93,-18.4 150.4,-25.64 34.46,-7.23 119.45,-15.18 188.87,-17.67l126.22 -4.54 65.95 -48.25c92.01,-67.33 292.94,-228.13 379.25,-303.51l142.04 -123.47c71.21,-61.89 150.54,-132.96 176.25,-157.93 25.72,-24.97 63.32,-60.84 83.56,-79.7 297.97,-277.67 468.58,-501.47 681.32,-816.44 48.87,-72.27 145.91,-283.59 174.62,-380.24 7,-23.55 19.44,-48.69 27.64,-53.08 92.25,-16.75 304.05,-19.99 556.82,-194.15 81.04,-55.84 238.11,-212.05 238.11,-236.78 0,-4.52 5.65,-12.87 12.53,-18.59 20.85,-17.3 78.02,-139.48 83.04,-177.47 2.6,-19.57 1.66,-48.73 -2.09,-64.82 -6.1,-26.25 -9.52,-29.11 -33.35,-28.02 -19.87,0.91 -36.55,11.45 -66.3,41.85 -42.58,43.49 -134.98,124 -169.27,147.46 -168.28,115.12 -220.02,141.67 -346.46,177.76 -49.39,14.08 -115.86,15.41 -139.47,2.77 -53.71,-28.76 95.32,-229.17 111.36,-249.89 139.88,-180.48 175.94,-178.84 276.24,-401.05 46.14,-102.23 111.83,-313.8 132.3,-426.08 7.94,-43.65 20.3,-109.82 27.43,-147.03 18.72,-97.59 30.69,-368.8 24.77,-560.59 -1.83,-58.78 -3.45,-101.75 -2.35,-130.67l4.69 -122.83c-11.62,-378.75 -299.8,-846.9 -173.16,-87.45 4.16,15.02 0.9,127.44 -7.99,275.88 -17.33,289.66 -21.76,339.31 -36.82,413.43 -43.12,212.02 -64.54,519.83 -223.55,685.73 -37.03,38.66 -85.03,66.72 -111.95,65.47 -8.5,-0.38 -28.27,-9.82 -43.93,-20.93 -41.04,-29.18 -74.75,-101.56 -93.02,-199.74 -8.55,-45.95 -19.82,-104.22 -25.04,-129.51 -15.04,-72.63 -17.9,-669.51 -13.34,-1094.25 2.83,-264 14.35,-523.79 14.91,-788.38 -13.6,-229.04 -304.93,-242.06 -262.12,-65.01 55.9,446.13 57.27,784.78 64.75,1254.22z"/>
   <path id="contour_2" class="fil2" d="M7620.01 364.25c4007.22,0 7255.71,3248.52 7255.71,7255.75 0,4007.22 -3248.49,7255.74 -7255.71,7255.74 -4007.22,0 -7255.7,-3248.52 -7255.7,-7255.74 0,-4007.23 3248.48,-7255.75 7255.7,-7255.75zm-0.06 1179.54c3355.82,0 6076.27,2720.44 6076.27,6076.26 0,3355.82 -2720.45,6076.27 -6076.27,6076.27 -3355.82,0 -6076.26,-2720.45 -6076.26,-6076.27 0,-3355.82 2720.44,-6076.26 6076.26,-6076.26z"/>
  </g>
 </g>
</svg>
