<?xml version="1.0" encoding="UTF-8"?>
<!DOCTYPE svg PUBLIC "-//W3C//DTD SVG 1.1//EN" "http://www.w3.org/Graphics/SVG/1.1/DTD/svg11.dtd">
<!-- Creator: CorelDRAW -->
<svg xmlns="http://www.w3.org/2000/svg" xml:space="preserve" width="152.4mm" height="152.4mm" version="1.1" style="shape-rendering:geometricPrecision; text-rendering:geometricPrecision; image-rendering:optimizeQuality; fill-rule:evenodd; clip-rule:evenodd"
viewBox="0 0 15240 15240"
 xmlns:xlink="http://www.w3.org/1999/xlink"
 xmlns:xodm="http://www.corel.com/coreldraw/odm/2003">
 <defs>
  <style type="text/css">
   <![CDATA[
    .fil3 {fill:none}
    .fil1 {fill:#3D6FB7}
    .fil0 {fill:#F6EE1D}
    .fil2 {fill:#3D6FB7;fill-rule:nonzero}
   ]]>
  </style>
 </defs>
 <g id="Capa_x0020_1">
  <metadata id="CorelCorpID_0Corel-Layer"/>
  <g id="_1788837999488">
   <ellipse id="contour" class="fil0" cx="7620.01" cy="7620" rx="7255.7" ry="7255.74"/>
   <path id="contour_48" class="fil1" d="M7620.01 364.25c4007.22,0 7255.71,3248.52 7255.71,7255.75 0,4007.22 -3248.49,7255.74 -7255.71,7255.74 -4007.22,0 -7255.7,-3248.52 -7255.7,-7255.74 0,-4007.23 3248.48,-7255.75 7255.7,-7255.75zm-0.06 985.8c3462.82,0 6270.01,2807.18 6270.01,6270 0,3462.82 -2807.19,6270.01 -6270.01,6270.01 -3462.82,0 -6270,-2807.19 -6270,-6270.01 0,-3462.82 2807.18,-6270 6270,-6270z"/>
   <path id="path1" class="fil2" d="M8753.61 9007c2.35,-15.97 -1225.09,-2065.23 -1225.09,-2065.23 -415.59,647.97 -1211.37,2009.18 -1211.37,2009.18 -38.96,57.35 -37.09,71.69 9.97,76.23 21.65,2.08 575.86,2.55 1231.58,1.03 1056.44,-2.46 1192.52,-4.87 1194.92,-21.19l-0.01 -0.02zm-6230.69 779.15c-54.49,-3.22 -83.4,-29.18 -109.8,-98.62 -6.46,-16.99 -12.97,-181.53 -14.48,-365.65l-2.3 -280.96c-1.12,-137.33 112.3,-131.07 216.89,-131.07 119.88,0 176.72,-11.62 211.42,118.26 31.03,116.2 67.13,194.14 105.67,228.15 35.76,31.54 48.64,35.19 127.17,36 229.75,2.37 350.26,0.64 356.01,-5.1 5.33,-5.33 7.04,-89.64 4.48,-220.54 -0.49,-25.25 -11.22,-35.42 -58.13,-55.15 -253.05,-106.4 -437.08,-228.51 -603.07,-400.15 -372.65,-385.29 -482.76,-848.38 -482.46,-1360.71 0.35,-584.85 175.22,-1115.18 652.54,-1472.28 620.53,-464.24 1642.8,-474.16 2292.13,-34.04 610.65,413.83 852.03,1249.78 709.17,1968.55 -128.33,645.62 -507.7,1083.97 -1148.28,1289.58 -46.63,14.96 -90.03,31.65 -96.44,37.1 -11.3,9.61 -10.12,224.08 1.34,242.62 7.13,11.52 717.06,10.6 746.32,-0.97 11.78,-4.66 34.22,-32.89 49.85,-62.73 622.66,-1106.23 1911.33,-3395.01 1973.16,-3512.98 35.47,-68.1 72.02,-128.58 99.16,-174.53 78.25,-132.48 227.22,-115.19 305.9,-12.07 29.37,38.49 60.01,96.16 102.97,175.43 178.66,321.63 1891.21,3308.44 1909.36,3311.41 13.82,2.26 30.74,-4.27 48.44,-19.82 430.65,-378.28 860.65,-895.33 1290.2,-1303.39 30.43,-28.91 55.33,-56.75 55.33,-61.88 0,-5.11 -402.38,-412.02 -894.19,-904.22 -968.44,-969.23 -910.39,-902.75 -910.39,-1042.46 0,-254.32 132.95,-219.74 346.72,-225.98 0,0 2721.57,2.37 2721.57,2.37 271.98,7.56 256.28,24.73 282.17,67.49 37.04,61.13 22.54,573.15 22.54,715.73 0,102.41 6.61,182.35 -122.18,212.2 -70.96,16.46 -194.27,13.77 -239.75,-5.23 -65.54,-27.38 -85.44,-70.33 -123.11,-265.68 -23.71,-122.99 -40.52,-182.63 -53.35,-189.37 0,0 -1269.18,-6.87 -1284.3,-3.52 0.04,4.99 74.97,85.85 166.53,179.68 192.74,197.52 380.08,393.01 475.37,496.08 85.32,92.28 415.15,440.85 530.93,561.09 203.96,211.83 127.91,280.18 -60.51,475.07 -389.74,403.12 -760.44,836.89 -1146.59,1246.12 -60.32,63.92 -70.26,79.87 -53.28,85.53 29.82,9.94 750.97,2.23 1073.7,-2.29 61.38,-0.86 168.06,3.54 228.72,-8.66 46.66,-9.39 66.74,-28.44 73.42,-48.02 33.78,-98.97 78.37,-405.29 108.34,-442.21 51.65,-63.62 279.68,-77.01 358.3,-21.02 73.27,52.16 73.81,56.74 73.81,622.27l0 407.93c0,257.4 -104.4,257.87 -323.23,258.95 0,0 -7388.21,6.22 -8200.77,0.73 -92.29,-3.89 -115.52,-77.95 -120.28,-254.86 -2.7,-100.26 -3.78,-239.98 -4.41,-434.7 -1.02,-313.08 1.86,-578.01 6.39,-588.72 11.58,-27.4 41.24,-40.83 208.85,-94.56 382.28,-122.56 528.59,-304.11 596.12,-739.79 59.54,-384.17 16.7,-790.73 -134.89,-1141.02 -245.88,-568.19 -1063.63,-698.41 -1433.25,-138.16 -204.64,310.15 -301.42,821.01 -225.65,1258.7 57.47,332.01 214.25,621.93 498.51,750.26 101.89,46 186.4,31.56 203.7,161.42 10.88,81.74 10.66,233.45 12.64,534.34 1.31,199.28 1.51,333.58 0.23,420.64 -1.15,78.38 -5.44,197.51 -79.33,245.92 -29.81,19.54 -83.54,21.53 -646.08,23.94 -230.39,0.98 -448.03,2.91 -675.57,-10.45z"/>
   <rect class="fil3" x="-0" y="-0" width="15240" height="15240"/>
  </g>
 </g>
</svg>
