<?xml version="1.0" encoding="UTF-8"?>
<!DOCTYPE svg PUBLIC "-//W3C//DTD SVG 1.1//EN" "http://www.w3.org/Graphics/SVG/1.1/DTD/svg11.dtd">
<!-- Creator: CorelDRAW -->
<svg xmlns="http://www.w3.org/2000/svg" xml:space="preserve" width="152.4mm" height="152.4mm" version="1.1" style="shape-rendering:geometricPrecision; text-rendering:geometricPrecision; image-rendering:optimizeQuality; fill-rule:evenodd; clip-rule:evenodd"
viewBox="0 0 13933.22 13933.22"
 xmlns:xlink="http://www.w3.org/1999/xlink"
 xmlns:xodm="http://www.corel.com/coreldraw/odm/2003">
 <defs>
  <style type="text/css">
   <![CDATA[
    .fil0 {fill:none}
    .fil2 {fill:black}
    .fil1 {fill:#E51937}
   ]]>
  </style>
 </defs>
 <g id="Capa_x0020_1">
  <metadata id="CorelCorpID_0Corel-Layer"/>
  <g id="_2569770823936">
   <rect class="fil0" x="-0" y="-0" width="13933.22" height="13933.22"/>
   <path class="fil1" d="M4848.26 566.89c550.65,-80.15 1150.64,-127.79 1760.18,-142.57l0 -2.23c119.06,-2.13 238.35,-3.03 357.56,-2.66l1.23 0c119.22,-0.37 238.51,0.52 357.56,2.66l0 2.23c609.53,14.77 1209.53,62.42 1760.18,142.57 1068.06,155.46 1859.91,415.9 2735.43,878.82 342.85,181.28 570.92,464.01 675.51,837.47 499.82,1784.86 542.72,4091.95 -324.81,6119.49 -935.03,2185.29 -2680.16,3813.87 -4771.86,4889.13l-74.44 38.26 0 0.16 -17.4 8.78 -337.63 173.57 -3.14 1.31 -3.16 -1.31 -337.62 -173.57 -17.41 -8.78 0 -0.16 -74.44 -38.26c-2091.7,-1075.25 -3836.84,-2703.83 -4771.85,-4889.13 -867.54,-2027.54 -824.64,-4334.63 -324.81,-6119.49 104.58,-373.45 332.65,-656.19 675.5,-837.47 875.52,-462.91 1667.38,-723.36 2735.43,-878.82z"/>
   <path class="fil2" d="M6888.66 9045.87c107.7,0 195.02,86.02 195.02,192.13 0,106.08 -87.32,192.1 -195.02,192.1 -107.72,0 -195.05,-86.02 -195.05,-192.1 0,-106.11 87.33,-192.13 195.05,-192.13zm3159.58 -6317.76c9.58,593.8 14.58,753.45 28.17,901.09 9.08,98.67 20.04,200.94 24.37,227.26 4.31,26.32 7.87,82.27 7.91,124.32 0.08,86.42 -20.34,307.85 -32.3,350.15l-27.51 99.67c-78.13,285.63 -276.64,541.34 -392.09,789.55 -15.46,33.42 -27.7,23.95 -23.36,-18.05 5.17,-49.87 26.89,-171.6 46.6,-261.15 68.69,-312.19 112.94,-992.67 48.3,-1251.94 -8.73,-35.09 -18.33,-79.95 -21.29,-99.69 -11.32,-75.43 -82.58,-232.04 -138.58,-304.63 -37.65,-48.77 -96.08,-102.06 -111.9,-102.06 -18.39,0 -29.85,23.07 -24.72,49.76 51.69,145.66 110.13,175.15 135.78,451.71 5.1,54.96 6.97,206.47 4.63,375.47 -3.98,286.96 -27.33,482.98 -91.2,753.78 -59.73,253.21 -149.3,467.3 -275.02,696.82 -21.66,39.5 -48.78,74.41 -147.62,189.85 -211.37,246.83 -438.57,454.02 -722.73,608.97 -31.84,17.35 -96.61,20.78 -111.73,5.92 -5.34,-5.27 -9.71,-15.33 -9.71,-22.34 0,-34.41 143.77,-193.79 258.42,-286.48 86.43,-69.86 304.16,-236.12 352.6,-298.92 54.43,-70.58 107.65,-182.24 135.13,-283.46 8.89,-32.71 19.5,-65.65 23.61,-73.21 4.09,-7.53 14.64,-61.49 23.41,-119.91 8.8,-58.43 20.61,-127.75 26.28,-154.07 18.06,-84.18 10.56,-465.27 -13.99,-709.7 -21.75,-216.5 -40.51,-301.7 -90.46,-410.66 -29.6,-64.56 -31.67,-67.78 -43.22,-67.78 -25.07,0 -27.06,45.42 -12.06,276.85 15.35,236.69 13.7,543.88 -3.72,686.41 -17.84,146.12 -74.02,362.8 -124.43,480.07 -46.65,108.5 -111.82,206.39 -184.21,276.72 -63,61.22 -95.46,83.74 -193.05,133.95 -287.34,147.81 -573.38,360.88 -608.16,694.48 -11.58,111.15 -30.55,148.45 -55.46,109.13 -33.41,-52.69 -56.96,-213.16 -62.91,-428.81 -5.66,-204.38 7.79,-445.19 29.5,-528.51 24.79,-95.09 28.6,-202.69 45.33,-300.82 13.17,-77.04 15.22,-185.79 4.2,-220.1 -4.1,-12.71 -13.71,-43.74 -21.37,-68.96 -7.64,-25.22 -18.59,-45.84 -24.32,-45.84 -20.15,0 -46.68,116.38 -59.98,263.14 -9.5,104.89 -43.24,307.56 -70.1,410.67 -6.86,26.3 -19.03,81.94 -27.06,123.59 -47.18,244.52 -129.77,390.34 -129.77,650.82 0,90.62 1.93,103.94 21.11,145.13 73.83,158.63 77.73,248.66 10.75,248.66 -18.89,0 -36.98,-11.62 -79.85,-51.27 -63.38,-58.61 -102.36,-74.16 -152.56,-60.84 -29.04,7.69 -90.91,62.59 -90.91,80.66 0,4.32 -8.87,21.7 -19.67,38.58 -43.03,67.11 -23.64,123.41 -9.35,194.21 33.87,71.39 69.51,177.4 17.25,176.04 -76.6,-2.54 -153.99,3.61 -242.31,-0.23 -45.1,-6.1 8.9,-182.45 32.47,-248.47 13.16,-36.8 13.1,-37.22 -12.85,-97.76 -33.46,-78.17 -81.92,-133.11 -125.84,-142.73 -47.25,-10.35 -85.14,3.96 -134.99,51.05 -23.72,22.4 -54.65,48.52 -68.72,58.02l-25.61 17.27c-31.67,-33.25 -37.44,-34.1 -35.61,-84.61 2.67,-73.73 10.2,-107.58 30.53,-137.21 122.09,-178.07 -181.41,-1139.53 -206.74,-1444.02 -11.35,-136.85 -14.07,-149.01 -36.56,-163.53 -24.55,-15.84 -33.64,-10.29 -44.21,26.96 -24.7,86.97 -15.74,305.98 19.79,484.13 37.17,186.47 56.32,376.99 56.04,558.2 -0.12,98.59 -4.27,187.13 -10.06,215.3 -5.4,26.31 -15.22,98 -21.85,159.31 -13.86,128.26 -22.09,145.17 -57.87,118.88 -26.78,-19.68 -32.26,-38.63 -43.7,-150.43 -43.17,-422.29 -557.29,-548.23 -800.83,-785.92 -217.5,-212.23 -241.07,-466.62 -305.2,-740.9 -19.93,-85.14 -24.42,-554.86 -6.91,-720.57 7.5,-71 12.47,-152.4 11.05,-180.91 -2.42,-49.08 -3.62,-51.82 -22.5,-51.82 -13.29,0 -23.12,6.61 -29.54,19.92 -81.04,168.09 -98.44,268.21 -117.17,673.81 -13.29,288.35 -6.14,974.05 284.18,1180.26 154.76,109.88 414.4,316.93 520,473.39 18.84,27.92 17.91,53.36 -2.51,67.44 -14.72,10.16 -22.61,9.76 -66.57,-3.34 -235.52,-70.23 -639.96,-478.9 -775.52,-638.51 -105.15,-123.78 -116.15,-140.2 -186.87,-278.61 -225.47,-441.14 -226.56,-635.05 -307.17,-1103.65 -12.72,-73.71 -18.26,-417.83 -8.5,-526.28 4.74,-52.64 14.4,-142.35 21.46,-199.36 12.1,-97.4 15.49,-108.97 56.39,-191.38 23.95,-48.25 49,-108.56 55.67,-134.02l12.1 -46.32 -19.89 -8.94c-18.19,-8.16 -23.77,-5.19 -64.7,34.37 -131.97,127.42 -193.54,287.31 -239.32,621.4 -9.87,72.17 -2.95,548.35 9.01,618.01 33.39,194.56 41.69,445.97 98.1,634.8 23.4,78.49 19.14,142.67 -9.54,142.67 -3.19,0 -12,-15.98 -19.55,-35.49 -120.98,-311.81 -303.84,-498.13 -399.89,-870.3 -36.49,-141.33 -43.45,-382.89 -16.52,-573.42 22.49,-159.12 30.8,-426.19 40.73,-1307.66 3.87,-342.62 6.15,-533.7 8.88,-642.83 1.3,-51.8 2.77,-85.24 4.6,-107.58 1.14,-100.49 21.75,-187.12 -102.99,-188.4 -147.55,-1.48 -104.79,248.37 -99.16,342.45 5.72,95.94 4.52,302.7 3.85,729.66 -0.26,160.59 50.81,1024.76 -126.4,1131.2 -29.59,17.77 -48.32,18.63 -82.72,3.89 -32.85,-14.08 -97.61,-88.21 -131.43,-150.41 -139.8,-257.21 -180.43,-768.99 -191.62,-1042.3 -2.59,-63.61 -8.54,-167.06 -13.23,-229.92 -6.37,-85.87 -6.12,-119.9 1.02,-136.88 4.33,-34.48 15.56,-69.08 23.02,-99.7 25.82,-106.03 -54.43,-212.63 -101.72,-26.82 -33,129.72 -49.79,338.51 -54.82,361.73 -32.16,148.61 -32.08,651.46 0.14,802.27 6.91,32.36 18.07,92.94 24.79,134.63 31.56,196.01 106.61,366.92 192.61,542.29 41.21,84.04 67.84,120.01 153.37,207.33 80.48,82.17 109.51,122.65 162.86,227.12 21.41,41.9 18.5,59.03 -13.52,78.92 -124.24,77.26 -509.59,-214.32 -601.38,-300.31 -60.08,-56.25 -68.16,-61.33 -86.6,-54.43 -69.66,26.08 -19.49,179.09 109.47,334.03 41.35,49.67 96.56,99.99 174.4,158.94 39.64,30.02 195.71,103.71 275.88,130.23 41.96,13.88 117.8,31.81 168.54,39.83 50.73,8.02 98.03,19.3 105.12,25.09 0.9,0.73 286.02,543.75 378.67,659.02 158.82,197.65 402.29,453.99 611.29,638.62 46.76,41.32 106.87,94.73 133.59,118.72 46.88,42.11 145.86,123.43 266.17,218.66 31.72,25.11 66.79,53.18 77.93,62.39 26.69,22.08 120.1,91.96 145.71,109.04 11.14,7.41 29.86,21.14 41.6,30.51 18.55,14.77 36.05,17.75 132.06,22.49 60.89,3.03 138.69,10.86 172.94,17.44 34.24,6.58 104.21,17.2 155.49,23.57 231.86,28.84 365.97,124.95 436.23,312.6 13.47,35.99 26.8,82.62 29.61,103.63 6.87,51.15 -2.06,222.38 -61.24,245.56l-3.89 1.32 -0.03 0 -0.26 0.08c-1.12,0.31 -2.21,0.69 -3.27,1.12 -18.7,6.34 -37.28,13 -55.89,19.72 -64.58,-12.54 -122.74,-168.98 -264.21,-176.48 -172.83,-9.12 -482.32,310.01 -581.87,426.79 -137.4,161.16 -139.07,247.54 73.33,403.38 118.77,87.16 342.74,164.64 483.83,104.85 81.94,-34.75 78.69,-24.72 189.07,-99.21l163.48 -91.45c224.91,-127.09 639.36,-227.14 904.69,-199.99 141.21,14.44 274.96,57.73 305.04,155.82 97.51,317.87 -448.82,444.58 -500.37,478.57 -52.01,34.33 -564.51,149.19 -645.74,160.2 -126.4,17.15 -169.31,35.54 -308.21,52.29 -181.07,21.8 -133.17,29.02 -353.32,48.48 -98.52,8.69 -207.2,47.78 -278.21,10.77 -121.82,-63.48 -532.03,-270.92 -599.08,-54.55 -155.42,501.71 -94.2,371.25 134.23,560.29 0,331.17 32.42,380.53 103.72,655.36 54.12,208.68 266.51,609.95 394,763.55 82.72,99.63 200.87,245.73 296.68,334.2 204.66,188.88 94.71,98.04 94.06,282.11 -0.79,217.28 272.66,268.42 370.69,333.1 67.78,44.68 426.76,147.41 500.93,101.27 150.12,-93.39 170.38,-656.24 -151.95,-811.65 -163.6,-78.86 -366.99,-232 -511.27,-352.7 -127.18,-106.42 -278.12,-302.87 -356.76,-451.45 -78.09,-147.5 -227.55,-396.22 -37.88,-518.67 313.04,-202.11 846.34,532.67 1012.02,746.13 66.99,86.34 527.18,740.14 541.14,786.7 19.56,65.24 -31.32,371.13 41.6,517.78 78.24,157.28 254.83,82.44 409.38,53.26 165.74,-31.26 185.14,-69.39 190.3,-203.43 4.52,-117.28 1.34,-111.72 89.46,-157.59 274.74,-143.14 466.19,-329.26 671.35,-577.84 104.13,-126.2 135.88,-174.73 214.19,-310.87 92.1,-160.03 239.66,-470.59 272.83,-646.27 14.36,-75.99 6.14,-94.29 97.63,-105.91 95.91,-12.23 157.11,-58.02 197.12,-143.03l22.63 -48.21c12.58,-56.75 -8.83,-456.99 -9.41,-459.48 -30.39,-128.11 -34.82,-344.19 -178.52,-401.06 -93.19,-36.89 -242.62,25.3 -328.88,83.65 -350.29,236.95 -228.76,480.93 -288.7,833.13 -40.44,237.7 -141.65,676.5 -319.07,857.5 -92.12,93.96 -200.82,112.64 -310.86,51.46 -292.11,-162.32 -104.11,-684.6 -22.44,-937.36 73.33,-226.99 221.83,-609.52 330.3,-841.3 43.29,-92.51 124.62,-335.34 197.31,-384.71 120.64,-82 445.25,-294.9 378.81,-453.99 -6.98,-16.67 -248.15,-314.73 -345.51,-314.52 -93.62,0.21 -178.15,167.13 -295.37,65.85 -40.86,-35.29 -134.2,-76.66 -237.48,-113.83l0.74 -0.73c-41.01,-15.73 -83.36,-30.4 -120.39,-41.33 -6.44,-1.9 -12.22,-3.67 -17.44,-5.36 -59.99,-104.07 -65.67,-196.79 -56.34,-258.62 9.47,-62.85 50.75,-159 92.6,-215.7 66.84,-90.53 187.5,-152.84 336.42,-173.71 46.75,-6.56 112.34,-17.56 145.75,-24.47 33.39,-6.9 115.74,-14.49 183.02,-16.87l122.31 -4.33 63.91 -46.05c89.16,-64.27 283.88,-217.75 367.5,-289.69l137.65 -117.85c69,-59.08 145.88,-126.91 170.79,-150.74 24.92,-23.83 61.36,-58.07 80.98,-76.08 288.74,-265.02 454.06,-478.64 660.23,-779.26 47.35,-68.98 141.38,-270.67 169.21,-362.92 6.77,-22.48 18.82,-46.47 26.77,-50.67 89.4,-15.98 294.65,-19.08 539.59,-185.31 78.53,-53.29 230.74,-202.4 230.74,-226 0,-4.31 5.48,-12.27 12.13,-17.74 20.2,-16.51 75.61,-133.13 80.46,-169.39 2.53,-18.68 1.61,-46.51 -2.02,-61.86 -5.91,-25.06 -9.22,-27.78 -32.3,-26.75 -19.26,0.87 -35.44,10.93 -64.25,39.94 -41.27,41.52 -130.79,118.35 -164.04,140.75 -163.07,109.88 -213.2,135.21 -335.73,169.66 -47.86,13.44 -112.26,14.71 -135.14,2.65 -52.05,-27.46 92.36,-218.74 107.91,-238.51 135.55,-172.26 170.5,-170.7 267.69,-382.79 44.71,-97.58 108.35,-299.51 128.2,-406.68 7.68,-41.67 19.67,-104.83 26.58,-140.34 18.14,-93.14 29.73,-352.01 24,-535.07 -1.77,-56.11 -3.34,-97.11 -2.28,-124.72l4.55 -117.23c-11.25,-361.5 -290.52,-808.34 -167.8,-83.46 4.03,14.33 0.88,121.63 -7.74,263.31 -16.79,276.47 -21.08,323.86 -35.68,394.6 -41.78,202.37 -62.53,496.17 -216.63,654.5 -35.87,36.91 -82.38,63.69 -108.48,62.5 -8.24,-0.37 -27.39,-9.38 -42.58,-19.98 -39.76,-27.86 -72.43,-96.94 -90.13,-190.65 -8.28,-43.86 -19.21,-99.48 -24.26,-123.62 -14.58,-69.32 -17.35,-639.02 -12.94,-1044.42 2.75,-251.98 13.91,-499.94 14.45,-752.48 -13.17,-218.62 -295.48,-231.04 -254,-62.05 54.18,425.81 55.5,749.04 62.75,1197.11z"/>
   <path class="fil2" d="M4820.4 482.72c557.89,-81.2 1165.77,-129.48 1783.32,-144.44l0 -2.26c120.63,-2.16 241.48,-3.06 362.26,-2.7l1.25 0c120.79,-0.37 241.65,0.53 362.26,2.7l0 2.26c617.55,14.97 1225.44,63.24 1783.33,144.44 1082.1,157.51 1884.37,421.37 2771.4,890.38 347.35,183.66 578.43,470.11 684.38,848.47 506.4,1808.34 549.86,4145.77 -329.08,6199.97 -947.32,2214.05 -2715.41,3864.05 -4834.63,4953.44l-75.42 38.76 0 0.16 -17.63 8.9 -342.08 175.85 -3.17 1.33 -3.2 -1.33 -342.08 -175.85 -17.63 -8.9 0 -0.16 -75.42 -38.76c-2119.22,-1089.4 -3887.3,-2739.4 -4834.62,-4953.44 -878.94,-2054.2 -835.49,-4391.63 -329.09,-6199.97 105.96,-378.36 337.03,-664.82 684.39,-848.47 887.03,-469.01 1689.3,-732.87 2771.4,-890.38zm138.35 950.54c-971.88,141.46 -1850.23,415.88 -2607.62,862.15 -1219.61,3922.81 282.61,7997.52 4616.32,10225.28 4378.81,-2209.73 5936.38,-6302.47 4716.76,-10225.28 -740.55,-436.33 -1596.69,-708.39 -2542.87,-852.51 -1243.92,-189.48 -2936.22,-191.05 -4182.59,-9.64z"/>
  </g>
 </g>
</svg>
