<?xml version="1.0" encoding="UTF-8"?>
<!DOCTYPE svg PUBLIC "-//W3C//DTD SVG 1.1//EN" "http://www.w3.org/Graphics/SVG/1.1/DTD/svg11.dtd">
<!-- Creator: CorelDRAW -->
<svg xmlns="http://www.w3.org/2000/svg" xml:space="preserve" width="152.4mm" height="152.4mm" version="1.1" style="shape-rendering:geometricPrecision; text-rendering:geometricPrecision; image-rendering:optimizeQuality; fill-rule:evenodd; clip-rule:evenodd"
viewBox="0 0 15240 15240"
 xmlns:xlink="http://www.w3.org/1999/xlink"
 xmlns:xodm="http://www.corel.com/coreldraw/odm/2003">
 <defs>
  <style type="text/css">
   <![CDATA[
    .fil0 {fill:none}
    .fil1 {fill:#3EC4F1}
    .fil2 {fill:#824297}
   ]]>
  </style>
 </defs>
 <g id="Capa_x0020_1">
  <metadata id="CorelCorpID_0Corel-Layer"/>
  <g id="_2154409831216">
   <rect class="fil0" x="-0" y="-0" width="15240" height="15240"/>
   <ellipse id="contour" class="fil1" cx="7620.01" cy="7620" rx="7200.69" ry="7200.73"/>
   <path id="contour_3" class="fil2" d="M7620.01 364.25c4007.22,0 7255.71,3248.52 7255.71,7255.75 0,4007.22 -3248.49,7255.74 -7255.71,7255.74 -4007.22,0 -7255.7,-3248.52 -7255.7,-7255.74 0,-4007.23 3248.48,-7255.75 7255.7,-7255.75zm-0.06 985.8c3462.82,0 6270.01,2807.18 6270.01,6270 0,3462.82 -2807.19,6270.01 -6270.01,6270.01 -3462.82,0 -6270,-2807.19 -6270,-6270.01 0,-3462.82 2807.18,-6270 6270,-6270z"/>
   <path id="contour_4" class="fil2" d="M4863.71 4945.71c100.29,902.82 313.6,1924.79 627.48,2751.4 -888.82,-654.05 -1628.58,-1702.09 -1739.4,-2751.4l1111.92 0zm7230.16 -291.67c-4.56,-86.42 -39.71,-181.07 -130.01,-285.25 -49.09,60.86 -134.58,80.53 -228.92,84.6l-91.46 0 -1222.79 0c12.63,-185.95 19.71,-363.34 21.09,-528.8 1.13,-133.61 -45.82,-249 -139.9,-343.88 -94.08,-94.87 -209.06,-142.79 -342.68,-142.79l-1889.19 0 -900 0 -1889.19 0c-133.62,0 -248.6,47.92 -342.68,142.79 -94.08,94.88 -141.03,210.27 -139.9,343.88 1.38,165.46 8.46,342.85 21.09,528.8l-1223.29 0 -91.46 0c-94.34,-4.07 -179.83,-23.74 -228.92,-84.6 -93.76,108.17 -128.07,206.1 -130.4,295.17 -1.12,16.41 -0.46,33.26 2.01,50.48 7.13,49.79 15.11,99.28 23.73,148.55l1.02 6.37 0.05 -0.05c294.36,1669.38 1432.55,3031.26 2724.7,3676.27 462.13,753.44 1061.98,1208.46 1717.5,1208.46l4.2 -0.02 3.08 0 4.2 0.02c655.52,0 1255.36,-455.02 1717.5,-1208.46 1331.91,-664.83 2500.27,-2091.3 2749.51,-3831.14 2.97,-20.7 3.31,-40.88 1.11,-60.4zm-2345.05 3043.08c313.89,-826.62 527.2,-1848.59 627.49,-2751.41l1111.93 0c-110.82,1049.32 -850.59,2097.36 -1739.42,2751.41zm-2327.39 2335.98l471.76 0c5.73,1006.54 643.42,1714.57 1417.05,1714.57 17.3,0 38.17,0.28 61.99,0.71 138.24,2.53 249.35,115.69 249.35,253.95l0 44.61c0,139.9 -114.1,254 -254,254l-3495.15 0c-139.9,0 -254,-114.1 -254,-254l0 -43.01c0,-137.87 110.38,-250.8 248.21,-253.94 56.45,-1.28 103.92,-2.32 137.74,-2.32 773.63,0 1411.32,-708.03 1417.05,-1714.57zm-44.97 -4123.26c36.54,-20.56 91.92,-46.82 166.15,-78.8 74.22,-31.97 165.01,-47.96 272.35,-47.96 95.92,0 190.13,18.27 282.63,54.81 92.49,36.55 174.71,89.07 246.66,157.59 71.94,68.52 129.61,151.88 173,250.08 43.39,98.21 65.09,208.98 65.09,332.31 0,109.62 -18.84,216.39 -56.53,320.31 -37.68,103.91 -93.64,196.41 -167.86,277.49 -74.23,81.08 -166.15,146.74 -275.78,196.98 -109.62,50.25 -235.24,75.37 -376.84,75.37 -169,0 -303.75,-23.41 -404.24,-70.23 -100.49,-46.82 -179.28,-99.92 -236.38,-159.3 -61.66,-63.95 -110.77,-133.03 -147.31,-207.26 -36.54,-74.23 -54.81,-134.18 -54.81,-179.85 0,-13.71 3.99,-30.84 11.99,-51.39 7.99,-20.56 19.41,-40.54 34.26,-59.95 14.84,-19.42 34.25,-35.4 58.23,-47.96 23.98,-12.57 53.1,-18.85 87.36,-18.85 54.81,0 97.07,15.99 126.76,47.97 29.69,31.97 57.09,69.65 82.22,113.05 22.83,43.39 47.96,84.5 75.36,123.33 27.41,38.82 57.67,72.51 90.79,101.06 33.11,28.54 71.37,51.38 114.76,68.51 43.4,17.13 93.64,25.7 150.74,25.7 82.22,0 150.16,-17.7 203.83,-53.1 53.67,-35.4 97.07,-79.37 130.18,-131.9 33.12,-52.53 56.53,-109.62 70.23,-171.29 13.7,-61.66 20.56,-118.76 20.56,-171.29 0,-89.07 -12.57,-165.01 -37.69,-227.81 -25.12,-62.81 -57.67,-113.63 -97.63,-152.45 -39.97,-38.83 -85.65,-67.38 -137.04,-85.65 -51.38,-18.27 -103.34,-27.4 -155.87,-27.4 -50.24,0 -94.78,5.71 -133.61,17.13 -38.82,11.42 -74.22,25.69 -106.2,42.82 -31.97,17.13 -61.66,37.68 -89.07,61.66 -27.4,23.98 -54.81,47.39 -82.22,70.23 -20.55,18.27 -45.1,31.98 -73.65,41.11 -28.55,9.14 -54.24,13.71 -77.08,13.71 -52.53,0 -100.49,-19.42 -143.88,-58.24 -43.4,-38.83 -65.09,-83.36 -65.09,-133.61 0,-13.7 1.71,-29.69 5.13,-47.96 3.43,-18.27 7.43,-41.11 11.99,-68.52l140.46 -801.63c11.42,-63.95 26.84,-113.63 46.25,-149.03 19.41,-35.4 43.39,-62.23 71.94,-80.5 28.55,-18.27 61.1,-29.69 97.64,-34.26 36.54,-4.57 78.79,-6.85 126.75,-6.85l798.21 0c41.11,0 74.8,0.57 101.07,1.71 26.26,1.14 48.53,5.14 66.8,11.99 38.82,13.7 69.66,37.68 92.49,71.94 22.84,34.26 34.26,70.8 34.26,109.63 0,50.24 -10.85,88.5 -32.54,114.76 -21.7,26.27 -47.39,45.68 -77.08,58.24 -29.69,12.56 -60.53,19.99 -92.5,22.27 -31.97,2.28 -58.24,3.42 -78.79,3.42l-763.96 0 -92.49 537.86z"/>
  </g>
 </g>
</svg>
