<?xml version="1.0" encoding="UTF-8"?>
<!DOCTYPE svg PUBLIC "-//W3C//DTD SVG 1.1//EN" "http://www.w3.org/Graphics/SVG/1.1/DTD/svg11.dtd">
<!-- Creator: CorelDRAW -->
<svg xmlns="http://www.w3.org/2000/svg" xml:space="preserve" width="152.4mm" height="152.4mm" version="1.1" style="shape-rendering:geometricPrecision; text-rendering:geometricPrecision; image-rendering:optimizeQuality; fill-rule:evenodd; clip-rule:evenodd"
viewBox="0 0 4963.3 4963.3"
 xmlns:xlink="http://www.w3.org/1999/xlink"
 xmlns:xodm="http://www.corel.com/coreldraw/odm/2003">
 <defs>
  <style type="text/css">
   <![CDATA[
    .fil0 {fill:none}
    .fil2 {fill:black}
    .fil1 {fill:#E51937}
   ]]>
  </style>
 </defs>
 <g id="Capa_x0020_1">
  <metadata id="CorelCorpID_0Corel-Layer"/>
  <g id="_2569646686256">
   <rect class="fil0" x="-0" y="-0" width="4963.3" height="4963.3"/>
   <path class="fil1" d="M1727.05 201.94c196.15,-28.55 409.88,-45.52 627.01,-50.79l0 -0.79c42.41,-0.76 84.9,-1.08 127.37,-0.95l0.44 0c42.47,-0.13 84.96,0.19 127.37,0.95l0 0.79c217.13,5.26 430.86,22.23 627.01,50.79 380.46,55.38 662.54,148.15 974.42,313.05 122.13,64.58 203.37,165.29 240.63,298.32 178.05,635.8 193.33,1457.64 -115.7,2179.89 -333.08,778.45 -954.73,1358.58 -1699.84,1741.61l-26.52 13.63 0 0.06 -6.2 3.13 -120.27 61.83 -1.12 0.47 -1.13 -0.47 -120.27 -61.83 -6.2 -3.13 0 -0.06 -26.52 -13.63c-745.11,-383.03 -1366.76,-963.16 -1699.83,-1741.61 -309.03,-722.25 -293.75,-1544.09 -115.7,-2179.89 37.25,-133.03 118.5,-233.75 240.63,-298.32 311.88,-164.9 593.95,-257.67 974.42,-313.05z"/>
   <path class="fil2" d="M1763.6 2588.62c-74.06,206.28 -270.89,353.79 -502.11,353.79 -294.66,0 -533.53,-239.53 -533.53,-535.01 0,-193.74 102.7,-363.43 256.49,-457.31 -3.85,-16.11 -130.13,-155.58 -153.75,-183.82 -26.02,-31.12 -135.45,-153.18 -155.36,-172.34 -1.4,-19.77 406.49,4.52 440.02,6.63 57.35,3.61 182.61,7.95 238.28,13.84 38.58,4.08 121.65,7.84 157.02,13.68l120.27 13.71c38.98,6.76 161.67,19.82 191.89,28.37 20.37,5.76 116.25,20.16 143.97,28.65l57.41 13.64c21.68,6.76 49.83,13.78 60.67,15.14 9.28,1.16 14.07,-1.28 27.31,-13.88 51.98,-49.51 145.11,-122.42 210.3,-163.68 21.58,-13.66 44.57,-32 63.39,-40.81 10.49,-4.91 10.56,-9.12 20.6,-13.12l79.53 -42.25c55.33,-25.51 111.84,-48.71 150.77,-56.92 47.95,-10.11 39.65,-13.48 108.59,-13.52 68.23,-0.03 52.95,2.14 93.99,12.49 46.11,11.63 80.19,42.54 114.98,77.74 25.68,-7.69 16.25,-14.61 30.59,-33.69 9,-11.98 17.4,-31.25 30.8,-42.36 4.11,-3.41 13.69,-23.09 10.5,-27.53l-48.88 -78.44c-4.61,-7.71 -54.52,-82.53 -71.61,-89.37 -14.1,-5.64 -76.96,-26.36 -92.56,-28.36 -28.39,-3.64 -49.17,-4.31 -72.75,-2.31 -115.08,9.78 -183.78,55.66 -268.16,138.29 -21.09,20.65 -63.57,71.45 -75.99,97.16 -21.8,45.11 -156.44,75.56 -131.23,-31.68 14.58,-62.02 63.84,-120.02 107.38,-154.93l99.6 -72.47c46.26,-22.61 68.76,-37.86 117.31,-53.79 69.25,-22.72 96.62,-24.56 183.45,-24.86 77.18,-0.27 80.29,6.03 130.74,17.76 26.77,6.22 85.62,37.88 108.81,53.9 52.77,36.47 86.26,67.64 135.36,131.55 12.78,16.63 28.97,2.18 44.86,-3.03 6.3,-2.06 14.85,-5.46 19,-7.54 8.89,-4.46 72,-16.73 86.05,-16.72 10.28,0 50.22,8.93 57.58,12.87 20.6,11.03 38.22,33.53 42.01,53.67 11.74,62.39 -21.09,115.37 -54.93,160.42 -19.2,25.56 -68.72,65.48 -72.99,74.94 -7.19,15.95 8.33,28.83 14.94,41.93l41.05 65.92 92.08 148.12c417.95,-243.38 958,54.09 958,551.37 0,352.15 -285.47,637.62 -637.62,637.62 -352.15,0 -637.62,-285.47 -637.62,-637.62 0,-160.32 59.18,-306.81 156.87,-418.84l-90.36 -278.13c-15.94,-31.59 5.08,-51.23 -56.2,-37.18 -51.11,11.72 0.88,38.53 -19.88,142.78 -10.76,54.05 -31.48,88.05 -58.2,136.36 -11.77,21.28 -82.62,100.7 -85.11,109.1 -0.85,2.87 0.02,120.29 -7.72,157.36 -4.82,23.06 -6.63,48.04 -13.12,69.7 -24.48,81.75 -33.8,119.23 -92.26,200.4 -26.89,37.34 -78.76,78.75 -121.42,100.92 -106.98,55.61 -186.64,49.11 -326.84,53.13l-419.62 15.85 -145.49 6.57c-16.97,0.63 -37.45,-12.06 -57.11,-23.87zm-896.89 -182.47c-9.77,-6.85 -1.11,-67.63 0.87,-74.55 19.15,-66.82 26.29,-86.34 63.28,-149.62 21.4,-36.63 91.81,-104.63 137.5,-125.69 5.59,-2.57 24.21,-15.79 30.23,-15.79 0.9,0 77.68,-35.83 162.93,-35.87 32.29,-0.01 119.71,12.61 148,29.47 20.66,12.31 40.95,10.99 47.45,43.98 5.32,26.99 14,44.82 3.06,70.53 -17.09,40.13 -52.69,70.14 -74.85,101.99 -34.34,49.37 -25.15,15.79 -95.25,0.07 -13.58,-3.05 -27.71,-5.54 -31.39,-5.54 -25.9,0 -60.67,11.49 -82.52,22.41 -39.93,19.95 -78.53,70.82 -85.92,116.1 -2.99,18.3 -5.1,21.48 -15.91,23.98 -11.74,2.73 -201.37,2.83 -207.48,-1.45zm340.38 410.44c-36.2,-4.33 -82.17,-20.47 -118.08,-38.18 -41.52,-20.48 -65.14,-37.02 -101.85,-71.32 -74.67,-69.75 -95.91,-151.92 -103.95,-161.62 -3.58,-4.31 -0.72,-9.08 7.48,-12.51 7.71,-3.22 216.63,-3.61 227.12,-1.18 21.13,4.91 51.29,65.61 141.19,65.61 35.01,0 71.27,-12 102.25,-33.85 54.69,-38.58 64.18,-107.41 69.84,-112.1 7.26,-6.02 123.68,1.53 142.36,11.45 11.39,6.04 39.74,41.57 46.92,41.74l27.16 22.48c-7.9,30.11 -20.5,59.32 -34.66,86.11 -28.76,54.44 -93.16,120.87 -145.38,149.96 -54.55,30.39 -68.33,35.38 -131.79,50.82 -15.59,3.79 -103.75,5.58 -128.63,2.6zm2400.11 93.89c-53.19,-15.17 -100.08,-28.31 -145.73,-61.39 -17.66,-12.8 -28,-44.56 -19.72,-60.58 6.46,-12.51 8.36,-18.83 -4.9,-31.16 -89.81,-83.58 -139.17,-158.91 -178.55,-263.23 -18.67,-49.46 -27.27,-92.6 -30.43,-143.21 -1.99,-31.86 0.52,-27.72 -26.52,-43.77 -25.77,-15.29 -27.47,-21.01 -18.94,-63.67 4.09,-20.47 17.23,-62.6 20.37,-65.31 37.68,-32.43 130.43,23.47 148.81,25.55 14.28,1.61 163.39,-15.51 190.28,-23.48l71.6 -13.71c23.1,-7.24 87.12,-18.59 105.84,-28.28 20.33,-10.52 49.54,-14.81 67.43,-29.56 9.66,-7.97 26.6,-10.44 43.76,-38.94 28.75,-47.72 -18.81,-71.12 -62.26,-74.66 -60.32,-4.91 -82.2,4.08 -128.63,13.52 -28.5,5.79 -97.89,32.3 -119.93,50.56l-41.48 23.05c-79.29,35.27 -193.66,-51.31 -165.45,-93.75 26.97,-40.57 109.52,-127.76 157.27,-127.32 20.83,0.2 43.07,15.06 54.79,33.33 9.42,14.68 63.65,-10 108.53,-16.72 50.97,-7.62 44.2,-9.14 108.79,-9.2 69.86,-0.07 61.38,3.45 113.62,10.29 36.6,4.79 119.72,29.73 150.81,51.13 39.4,27.12 54.28,-32.97 94.84,-2.94 11.26,8.33 54.15,51.9 59.12,60.05 25.15,41.26 -51.39,89.43 -85.3,113.02 -21.79,15.16 -30.23,56.77 -43.41,80.12 -11.78,20.85 -66.86,160.89 -74.54,184.17 -19.09,57.92 -70.18,185.87 -19.19,233.52 26.9,25.14 63.45,24.16 87.77,-4.76 21.7,-25.81 45.81,-82.81 52.23,-116.42 4.48,-23.48 9.9,-32.08 14.33,-56.89 7.58,-42.47 9.64,-31.77 11.61,-92.08 2.19,-67.16 2.02,-53.45 17.62,-84.24 16.01,-31.59 125.48,-123.48 157.95,-25.52 10.83,32.65 18.77,105.28 14.8,144.88 -3.3,32.89 -4.94,37.54 -17.62,49.9 -26.59,25.93 -47.79,2.93 -57.5,40.56 -16.37,63.4 -43.41,123.73 -80.19,176.98l-36.08 49.15c-40.35,53.43 -107.96,112.19 -161.38,137.94 -31.27,15.08 -8.88,47.86 -26.4,66.62 -18.28,19.58 -102.88,34.86 -118.28,26.76 -52.32,-27.49 -21.77,-122.21 -37.68,-151.24 -31.15,-56.81 -118.27,-175.05 -164.21,-230.66 -29.37,-35.55 -86.53,-99.15 -125.67,-117.7 -23.33,-11.06 -49.87,-21.28 -74.22,-1.45 -56.45,45.95 64.46,191.47 95.3,217.4 42.06,35.37 84.69,65.24 129.29,88.97 73.65,39.19 70.24,172.64 27.83,194.71 -7.14,3.71 -26.75,3.55 -40.38,-0.31zm124.06 -646.56c40.19,0 72.77,32.58 72.77,72.77 0,40.19 -32.58,72.77 -72.77,72.77 -40.19,0 -72.77,-32.58 -72.77,-72.77 0,-40.19 32.58,-72.77 72.77,-72.77z"/>
   <path class="fil2" d="M1717.13 171.95c198.73,-28.93 415.27,-46.12 635.26,-51.45l0 -0.8c42.97,-0.77 86.02,-1.09 129.05,-0.96l0.45 0c43.03,-0.13 86.08,0.19 129.05,0.96l0 0.8c219.98,5.33 436.53,22.53 635.26,51.45 385.47,56.11 671.25,150.1 987.23,317.17 123.73,65.42 206.05,167.46 243.79,302.24 180.39,644.17 195.87,1476.81 -117.22,2208.56 -337.46,788.69 -967.28,1376.45 -1722.19,1764.52l-26.87 13.81 0 0.06 -6.28 3.17 -121.85 62.64 -1.13 0.47 -1.14 -0.47 -121.85 -62.64 -6.28 -3.17 0 -0.06 -26.87 -13.81c-754.91,-388.07 -1384.74,-975.83 -1722.19,-1764.52 -313.1,-731.75 -297.62,-1564.39 -117.23,-2208.56 37.75,-134.78 120.06,-236.82 243.79,-302.24 315.98,-167.07 601.76,-261.07 987.23,-317.17zm49.28 338.6c-346.2,50.39 -659.09,148.15 -928.89,307.12 -434.45,1397.39 100.67,2848.88 1644.43,3642.46 1559.82,-787.15 2114.66,-2245.07 1680.21,-3642.46 -263.8,-155.43 -568.77,-252.34 -905.82,-303.68 -443.11,-67.5 -1045.94,-68.06 -1489.93,-3.43z"/>
  </g>
 </g>
</svg>
