<?xml version="1.0" encoding="UTF-8"?>
<!DOCTYPE svg PUBLIC "-//W3C//DTD SVG 1.1//EN" "http://www.w3.org/Graphics/SVG/1.1/DTD/svg11.dtd">
<!-- Creator: CorelDRAW -->
<svg xmlns="http://www.w3.org/2000/svg" xml:space="preserve" width="152.4mm" height="152.4mm" version="1.1" style="shape-rendering:geometricPrecision; text-rendering:geometricPrecision; image-rendering:optimizeQuality; fill-rule:evenodd; clip-rule:evenodd"
viewBox="0 0 15240 15240"
 xmlns:xlink="http://www.w3.org/1999/xlink"
 xmlns:xodm="http://www.corel.com/coreldraw/odm/2003">
 <defs>
  <style type="text/css">
   <![CDATA[
    .fil0 {fill:none}
    .fil1 {fill:black}
    .fil2 {fill:#ED3145}
   ]]>
  </style>
 </defs>
 <g id="Capa_x0020_1">
  <metadata id="CorelCorpID_0Corel-Layer"/>
  <g id="_2570067363008">
   <rect class="fil0" x="-0" y="-0" width="15240" height="15240"/>
   <ellipse id="contour" class="fil1" cx="7620.01" cy="7620" rx="7200.69" ry="7200.73"/>
   <path class="fil2" d="M11219.88 10535.74c-182.48,-52.05 -343.31,-97.11 -499.93,-210.58 -60.6,-43.91 -96.05,-152.86 -67.64,-207.84 22.17,-42.92 28.66,-64.59 -16.8,-106.89 -308.12,-286.73 -477.43,-545.14 -612.53,-903.03 -64.05,-169.67 -93.53,-317.65 -104.37,-491.29 -6.82,-109.29 1.78,-95.1 -91,-150.16 -88.4,-52.46 -94.23,-72.07 -64.99,-218.43 14.03,-70.2 59.13,-214.77 69.9,-224.05 129.25,-111.25 447.43,80.52 510.5,87.64 49,5.53 560.5,-53.22 652.76,-80.57l245.64 -47.02c79.25,-24.84 298.87,-63.78 363.08,-96.99 69.75,-36.08 169.93,-50.82 231.33,-101.43 33.15,-27.33 91.24,-35.83 150.14,-133.6 98.63,-163.72 -64.55,-243.99 -213.59,-256.14 -206.91,-16.86 -281.99,14.02 -441.25,46.37 -97.78,19.86 -335.8,110.8 -411.43,173.46l-142.32 79.07c-271.98,121.01 -664.36,-176.01 -567.58,-321.62 92.5,-139.17 375.69,-438.29 539.5,-436.76 71.47,0.67 147.74,51.66 187.95,114.35 32.32,50.38 218.37,-34.31 372.34,-57.34 174.84,-26.15 151.62,-31.34 373.19,-31.58 239.67,-0.26 210.55,11.84 389.76,35.29 125.56,16.43 410.71,102 517.36,175.4 135.16,93.02 186.19,-113.12 325.35,-10.1 38.63,28.6 185.76,178.05 202.81,206.03 86.26,141.55 -176.31,306.77 -292.61,387.7 -74.75,52.01 -103.69,194.74 -148.92,274.84 -40.4,71.55 -229.38,551.94 -255.71,631.8 -65.51,198.72 -240.76,637.62 -65.82,801.09 92.29,86.24 217.67,82.9 301.09,-16.33 74.43,-88.54 157.16,-284.06 179.17,-399.37 15.38,-80.56 33.96,-110.03 49.16,-195.15 26.02,-145.69 33.08,-108.99 39.84,-315.89 7.53,-230.4 6.92,-183.37 60.46,-289 54.93,-108.37 430.47,-423.59 541.85,-87.56 37.13,112.01 64.38,361.19 50.76,497.01 -11.33,112.84 -16.97,128.8 -60.46,171.19 -91.23,88.97 -163.95,10.06 -197.26,139.14 -56.13,217.48 -148.92,424.45 -275.07,607.12l-123.79 168.61c-138.43,183.29 -370.38,384.87 -553.6,473.22 -107.29,51.74 -30.49,164.19 -90.57,228.55 -62.7,67.17 -352.94,119.58 -405.77,91.82 -179.47,-94.3 -74.68,-419.25 -129.28,-518.85 -106.85,-194.9 -405.72,-600.52 -563.32,-791.27 -100.75,-121.95 -296.84,-340.15 -431.1,-403.76 -80.05,-37.93 -171.08,-72.99 -254.63,-4.98 -193.66,157.63 221.13,656.85 326.93,745.81 144.3,121.32 290.52,223.8 443.54,305.21 252.65,134.42 240.94,592.23 95.45,667.94 -24.48,12.73 -91.76,12.19 -138.52,-1.08zm-8176.62 -275.86c-124.85,-14.94 -283.42,-70.59 -407.27,-131.69 -143.19,-70.64 -224.65,-127.69 -351.28,-245.99 -257.53,-240.58 -330.77,-523.98 -358.51,-557.42 -12.34,-14.87 -2.49,-31.32 25.81,-43.14 26.6,-11.11 747.18,-12.46 783.35,-4.05 72.88,16.95 176.9,226.28 486.96,226.28 120.76,0 245.83,-41.41 352.67,-116.77 188.64,-133.06 221.35,-370.47 240.89,-386.65 25.04,-20.74 426.55,5.3 490.99,39.5 39.29,20.85 137.06,143.38 161.84,143.97l93.69 77.52c-27.25,103.86 -70.71,204.58 -119.56,296.99 -99.18,187.76 -321.3,416.89 -501.41,517.23 -188.13,104.82 -235.68,122.02 -454.54,175.27 -53.76,13.08 -357.83,19.22 -443.63,8.95zm-1173.99 -1415.61c-33.7,-23.61 -3.83,-233.26 3.01,-257.13 66.06,-230.47 90.69,-297.79 218.25,-516.05 73.82,-126.32 316.68,-360.87 474.26,-433.52 19.27,-8.88 83.5,-54.46 104.26,-54.46 3.09,0 267.91,-123.59 561.94,-123.72 111.37,-0.05 412.87,43.48 510.45,101.64 71.25,42.46 141.25,37.92 163.67,151.68 18.35,93.08 48.3,154.59 10.54,243.27 -58.94,138.42 -181.74,241.9 -258.14,351.75 -118.44,170.28 -86.73,54.45 -328.54,0.22 -46.85,-10.51 -95.56,-19.11 -108.25,-19.11 -89.34,0 -209.25,39.64 -284.62,77.3 -137.72,68.82 -270.84,244.27 -296.33,400.43 -10.31,63.12 -17.59,74.07 -54.89,82.71 -40.48,9.4 -694.51,9.77 -715.61,-5.01zm3093.37 629.32c-255.41,711.47 -934.31,1220.21 -1731.78,1220.21 -1016.29,0 -1840.15,-826.14 -1840.15,-1845.25 0,-668.23 354.22,-1253.49 884.64,-1577.29 -13.28,-55.55 -448.82,-536.59 -530.27,-633.99 -156.86,-187.57 -164.49,-134.97 -282.73,-372.14 -35.67,-71.53 -62.55,-142.44 -62.55,-200.78 -3.14,-44.22 71.08,-48.33 149.06,-45.51 387.53,13.98 792.56,22.63 1178.03,46.9 197.81,12.45 629.83,27.41 821.82,47.74 133.06,14.09 419.57,27.04 541.56,47.2l414.79 47.3c134.44,23.31 557.59,68.35 661.82,97.85 70.24,19.88 400.96,69.53 496.54,98.83l198.01 47.04c74.77,23.31 171.85,47.53 209.24,52.22 31.99,3.99 48.52,-4.4 94.19,-47.88 179.27,-170.77 500.5,-422.24 725.32,-564.52 74.43,-47.1 153.71,-110.37 218.62,-140.76 36.19,-16.95 36.42,-31.45 71.05,-45.26l274.31 -145.73c190.83,-87.97 385.73,-168 519.99,-196.31 165.38,-34.87 136.77,-46.48 374.54,-46.61 235.31,-0.12 182.63,7.37 324.16,43.07 159.03,40.11 276.59,146.73 396.58,268.13 88.57,-26.53 56.07,-50.37 105.51,-116.19 31.05,-41.33 60.02,-107.78 106.24,-146.11 14.17,-11.75 47.21,-79.64 36.2,-94.96l-168.6 -270.53c-15.89,-26.59 -188,-284.61 -246.98,-308.22 -48.67,-19.48 -208.36,-33.83 -262.2,-40.76 -97.94,-12.6 -169.54,-14.87 -250.9,-7.95 -396.93,33.79 -690.87,134.88 -981.94,419.88 -72.79,71.27 -219.25,246.45 -262.1,335.1 -56.57,117.04 -123.43,83.63 -173.26,125.06 -18.48,15.37 -133.45,39.78 -157.34,48.67 -22.61,8.42 -65.04,13.24 -138.11,15.69 -270.09,9.07 -210.45,-96.21 -155.08,-270.16 66.66,-209.44 391.37,-442.48 541.52,-562.87l343.52 -221.42c159.55,-77.98 237.12,-130.57 404.6,-185.53 238.88,-78.39 333.21,-113.21 632.72,-114.28 266.2,-0.95 276.9,20.78 450.92,61.24 92.34,21.47 295.3,130.64 375.27,185.9 182,125.78 297.51,233.3 466.87,453.73 44.06,57.35 99.91,7.5 154.72,-10.45 21.72,-7.11 51.21,-18.81 65.52,-26 30.65,-15.38 248.33,-57.7 296.79,-57.68 35.45,0.01 173.21,30.8 198.58,44.39 71.05,38.04 131.82,115.67 144.88,185.11 40.48,215.18 -72.75,397.91 -189.46,553.29 -66.23,88.17 -237.03,225.84 -251.76,258.49 -24.82,55.02 28.72,99.42 51.53,144.63l141.6 227.34 317.58 510.87c1441.5,-839.42 3304.14,186.55 3304.14,1901.69 0,1214.56 -984.6,2199.16 -2199.16,2199.16 -1214.56,0 -2199.16,-984.6 -2199.16,-2199.16 0,-552.94 204.11,-1058.21 541.06,-1444.59l-311.63 -959.27c-54.96,-108.95 17.51,-176.68 -193.83,-128.24 -176.3,40.41 3.04,132.88 -68.56,492.44 -37.12,186.42 -108.57,303.69 -200.74,470.33 -40.6,73.4 -284.96,347.3 -293.56,376.29 -2.93,9.88 0.08,414.88 -26.62,542.73 -16.61,79.54 -22.87,165.71 -45.24,240.39 -84.44,281.97 -116.58,411.22 -318.21,691.18 -92.76,128.79 -271.65,271.59 -418.79,348.07 -368.99,191.78 -643.74,169.37 -1127.28,183.23l-1447.26 54.68 -501.81 22.67c-58.52,2.18 -129.17,-41.6 -196.98,-82.34z"/>
   <path id="contour_1" class="fil2" d="M7620.01 364.25c4007.22,0 7255.71,3248.52 7255.71,7255.75 0,4007.22 -3248.49,7255.74 -7255.71,7255.74 -4007.22,0 -7255.7,-3248.52 -7255.7,-7255.74 0,-4007.23 3248.48,-7255.75 7255.7,-7255.75zm-0.06 1068.26c3417.28,0 6187.55,2770.26 6187.55,6187.54 0,3417.28 -2770.27,6187.55 -6187.55,6187.55 -3417.28,0 -6187.54,-2770.27 -6187.54,-6187.55 0,-3417.28 2770.26,-6187.54 6187.54,-6187.54z"/>
  </g>
 </g>
</svg>
