<?xml version="1.0" encoding="UTF-8"?>
<!DOCTYPE svg PUBLIC "-//W3C//DTD SVG 1.1//EN" "http://www.w3.org/Graphics/SVG/1.1/DTD/svg11.dtd">
<!-- Creator: CorelDRAW -->
<svg xmlns="http://www.w3.org/2000/svg" xml:space="preserve" width="152.4mm" height="152.4mm" version="1.1" style="shape-rendering:geometricPrecision; text-rendering:geometricPrecision; image-rendering:optimizeQuality; fill-rule:evenodd; clip-rule:evenodd"
viewBox="0 0 4743.9 4743.9"
 xmlns:xlink="http://www.w3.org/1999/xlink"
 xmlns:xodm="http://www.corel.com/coreldraw/odm/2003">
 <defs>
  <style type="text/css">
   <![CDATA[
    .fil0 {fill:none}
    .fil2 {fill:#0B7143}
    .fil1 {fill:#B1A9A1}
    .fil3 {fill:white}
    .fil7 {fill:black;fill-rule:nonzero}
    .fil4 {fill:#0B7143;fill-rule:nonzero}
    .fil6 {fill:#397657;fill-rule:nonzero}
    .fil5 {fill:white;fill-rule:nonzero}
   ]]>
  </style>
 </defs>
 <g id="Capa_x0020_1">
  <metadata id="CorelCorpID_0Corel-Layer"/>
  <g id="_2483781475600">
   <rect class="fil0" x="-0" y="-0" width="4743.9" height="4743.9"/>
   <ellipse id="contour" class="fil1" cx="2371.95" cy="2371.95" rx="2241.43" ry="2241.44"/>
   <path id="contour_2" class="fil2" d="M2371.95 113.38c1247.37,0 2258.56,1011.2 2258.56,2258.57 0,1247.37 -1011.19,2258.56 -2258.56,2258.56 -1247.37,0 -2258.55,-1011.2 -2258.55,-2258.56 0,-1247.37 1011.19,-2258.57 2258.55,-2258.57zm-0.02 306.86c1077.91,0 1951.73,873.82 1951.73,1951.72 0,1077.91 -873.82,1951.73 -1951.73,1951.73 -1077.91,0 -1951.72,-873.82 -1951.72,-1951.73 0,-1077.91 873.82,-1951.72 1951.72,-1951.72z"/>
   <g>
    <path class="fil3" d="M1733.9 3706.35l1278.56 0c57.6,0 105.28,-43.71 110.27,-101.09l173.44 -1991.54 -1845.98 0 173.44 1991.54c5,57.38 52.68,101.09 110.27,101.09z"/>
    <path class="fil3" d="M1339.5 1536.56l981.83 0 0 0.01 1084.88 0 -15.22 -140.84 -45.81 -40.74 -34.38 -143.72c-12.09,-50.55 -49.96,-89.61 -101.94,-89.61l-784.47 0 0 -0.01 -887.53 0c-51.97,0 -89.85,39.07 -101.94,89.61l-34.38 143.72 -45.81 40.74 -15.22 140.84z"/>
    <path class="fil4" d="M1818.24 2497.61c0,-319.63 259.11,-578.76 578.77,-578.76 319.63,0 578.75,259.13 578.75,578.76 0,319.65 -259.12,578.76 -578.75,578.76 -319.67,0 -578.77,-259.12 -578.77,-578.76z"/>
    <path class="fil5" d="M1835.3 2497.61c0,-310.2 251.47,-561.68 561.7,-561.68 310.21,0 561.7,251.48 561.7,561.68 0,310.21 -251.49,561.7 -561.7,561.7 -310.23,-0.01 -561.7,-251.49 -561.7,-561.7z"/>
    <path class="fil4" d="M1853.6 2497.61c0,-300.1 243.29,-543.38 543.41,-543.38 300.1,0 543.39,243.28 543.39,543.38 0,300.11 -243.3,543.39 -543.39,543.39 -300.14,0 -543.41,-243.28 -543.41,-543.39z"/>
    <g>
     <path class="fil5" d="M2061.11 2495.31c0,-184.83 149.82,-334.65 334.63,-334.65 184.81,0 334.62,149.82 334.62,334.65 0,184.8 -149.81,334.61 -334.62,334.61 -184.81,0 -334.63,-149.81 -334.63,-334.61l0 0zm387.54 -493.24c9.16,8.22 11.76,19.04 11.29,31.03 -2.59,8.48 -7.28,16.7 -14.83,22.59 9.19,6.81 18.36,13.88 19.76,26.1 2.6,12 -0.95,22.81 -7.77,31.75 -14.33,16.22 -37.15,12 -57.86,12.68l-54.68 1.44 -0.37 -4.97 -5.62 -124.16 -0.23 -2.71c35.98,-0.23 78.31,-9.54 110.3,6.24l0 0zm101.85 17.51c-9.66,27.87 -22.34,55.4 -29.19,84.79 -0.06,0.53 -0.08,1.06 -0.08,1.6 0,7.29 5,13.63 12.09,15.34 5.78,3.18 14,3.78 18.34,0 18.59,-26.1 27.42,-58.56 39.07,-87.86 14.81,5.19 26.35,12.59 40.7,18 -15.31,32.46 -24.72,70.69 -45.89,97.37 -15.28,13.41 -39.5,10.1 -57.84,5.63 -20.94,-7.51 -43.75,-20.91 -50.1,-44.44 -4.93,-16.11 17.41,-71.38 29.63,-104.41l43.26 13.97 0 0zm0 0l0 0 0 0z"/>
    </g>
    <g>
     <path class="fil5" d="M2211.57 2174.26l-31.05 20.44c-11.59,-6.1 -18.35,-10.22 -26.81,-14.1l-34.37 28.94c3.54,8.48 8.05,18.82 11.8,28.22l-30.7 34.32 -2.47 -5.41 -54.34 -129.11 49.63 -42.7 4 2.48c38.94,23.77 78.95,51.8 118.4,74.24l-4.07 2.68 -0 0zm7.76 -4.73c-16.3,-39.76 -36.27,-86.19 -51.04,-123.48 37.41,-15.06 91.51,-52.1 124.89,-17.63 8.46,9.41 9.64,22.57 9.87,34.57 -2.1,7.75 -4.01,15.53 -9.17,21.88 11.16,13.74 31.89,29.34 46.23,42.98l-1.76 0.59 -42.33 9.34c-15.06,-12.11 -23.59,-20.65 -36.68,-29.63 -5.65,0.69 -9.54,4 -14.84,6.35l14.58 33.41 -39.74 21.63 0 0zm0 0l0 0 0 0z"/>
    </g>
    <g>
     <path class="fil4" d="M2411.96 2023.94c3.28,3.51 2.6,10.82 0.69,14.82 -6.09,7.07 -17.39,6.81 -26.79,5.63 0.68,-7.99 -2.26,-15.75 -1.67,-23.97 8,1.17 21.9,-2.84 27.78,3.52l0 0zm-155.23 32.45c2.33,5.88 2.47,15.46 -2.54,18.94l-23.28 9.87c-5.81,-10.68 -8.28,-18 -12.27,-26.68 10.81,-4 29.37,-20.23 38.09,-2.13l0 0zm162.99 21.17c1.86,8.25 -1.87,16.71 -9.88,18.36 -7.53,1.16 -13.16,0.46 -21.16,0.69 -1.18,-8.48 -1.86,-19.76 -1.18,-26.82 10.81,1.41 27.07,-4.46 32.22,7.76z"/>
    </g>
    <g>
     <path class="fil5" d="M2737.22 2123.44c8.01,9.87 13.43,22.1 16.95,34.56 -9.88,5.31 -17.41,11.31 -26.82,15.53 -2.33,-14.59 -10.34,-29.4 -24.68,-36.69 -6.82,-4.01 -16.95,-4.71 -24.7,-2.12 -12.01,4.46 -22.34,14.82 -26.81,26.81 -4,11.52 0.46,22.8 7.07,31.74 9.16,10.36 21.41,15.78 35.25,16.25 -6.22,10.23 -9.61,16.68 -15.5,24.7 -23.07,-3.31 -44.69,-16.01 -57.86,-37.41 -11.29,-18.1 -11.99,-45.85 -2.11,-64.91 10.34,-20.94 30.81,-34.35 52.9,-37.41 26.59,-0.94 50.57,9.65 66.32,28.95l0 0zm0 0l0 0 0 0z"/>
    </g>
    <g>
     <path class="fil6" d="M2126.18 2162.95c-6.61,6.09 -13.73,11.81 -21.15,16.93 -5.65,-13.41 -11.07,-25.4 -16.94,-40.22 13.51,7.19 25.38,15.52 38.1,23.3l-0.01 -0.01zm0 0l0 0 0 0z"/>
    </g>
    <g>
     <path class="fil5" d="M2807.81 2206.69c-10.81,10.82 -25.15,20 -36.7,30.35 18.36,3.99 39.04,3.28 57.87,6.34 8.47,12.25 12.93,24 21.17,38.81l-69.15 -4.92c-15.29,23.98 -29.16,48.44 -42.34,73.37 -8.22,-12 -14.56,-27.5 -22.57,-40.91 8.95,-18.12 20.58,-37.29 29.54,-55.41 -15.4,9.54 -28.93,21.88 -44.61,31.75l-24.43 -32.82c32.92,-28.22 68.43,-53.39 103.01,-79l2.8 -1.01 25.41 33.45 0 0zm-776.41 -8.69c-6.24,12.93 -14.47,21.75 -20.21,34.1l80.43 52.91c-4.24,11.99 -13.41,23.77 -21.18,35.28l-82.55 -51.51c-7.4,9.76 -12.71,19.76 -20.12,32.23 -10.82,-7.16 -18.46,-11.88 -27.16,-18.09 20.48,-34.13 39.88,-66.11 62.45,-101.52l28.34 16.61 0 -0zm0 0l0 0 0 0z"/>
    </g>
    <g>
     <path class="fil7" d="M2257.69 2512.58c0.01,0.56 0.02,1.13 0.02,1.69 0,5.01 -0.58,10.01 -1.71,14.89 -12.46,25.17 -32.68,47.26 -35.96,76.22 -14.34,9.15 -26.13,25.15 -46.58,19.75 -0.72,5.4 0.94,13.61 2.81,19.74 -16.22,-0.69 -27.29,11.29 -40.93,16.94 -7.28,-2.34 -9.17,-11.76 -11.98,-18.34 15.97,-5.4 27.5,-21.41 45.85,-21.15 2.12,-5.91 -1.19,-11.31 -2.13,-16.94 -22.82,-10.13 -59.03,50.08 -62.08,-2.12 22.8,-1.41 37.39,-22.58 59.98,-24.7l0.68 -16.94c-25.63,-2.59 -42.1,23.76 -67.73,21.16l-5.66 -22.56c29.63,1.86 47.29,-24.7 75.51,-26.13 3.75,-4.93 4.22,-12.23 4.94,-19.05 -30.81,-4.01 -51.97,30.12 -84.67,19.75 0,0 -1.11,-14.2 -1.72,-22.22l171.33 -0 0 0.01zm0 0l0 0 0 0z"/>
    </g>
    <g>
     <path class="fil7" d="M2293.84 2512.58c1.04,12.53 -2.02,25.02 -13.82,37.76 -16.94,19.97 -34.09,45.14 -21.87,71.98 12.94,29.61 53.63,52.66 35.98,89.59 -9.63,23.29 -32.7,40.94 -31.75,68.44 -6.1,-2.59 -12.44,-5.19 -17.63,-9.87 0,-35.04 49.84,-56.92 26.09,-93.85 -2.1,7.28 -2.57,17.16 -4.22,25.4 -8.25,21.4 -25.88,38.56 -32.47,60.71 -11.03,-4.26 -22.57,-13.19 -31.75,-22.6l12.72 -7.77c-1.41,-4.71 -5.19,-8.7 -8.48,-12.7 -8.25,-1.16 -13.65,4.24 -20.46,6.37 -5.88,-5.19 -11.54,-9.89 -16.23,-16.24 4.22,-12.02 37.16,-2.11 20.45,-21.87 -11.28,-7.05 -22.56,3.06 -32.44,7.77l-13.41 -16.94c11.52,-7.05 23.04,-16.94 37.37,-14.11 3.53,6.37 3.79,15.74 10.59,19.07 24.23,-0.47 41.4,-18.83 59.97,-33.18 -12.95,-19.26 -23.51,-45.86 -12.01,-69.15 9.21,-23.35 33.24,-42.99 34.33,-68.79l19.03 0 0 -0.02zm0 0l0 0 0 0z"/>
    </g>
    <path class="fil7" d="M2328.3 2512.58c1.21,10.76 -0.57,21.81 -8.08,33.5 -15.27,20.73 -35.26,42.57 -26.11,69.85 8.7,27.53 43.05,44.22 40.93,76.22 -0.23,37.85 -44.23,61.39 -31.76,103.73l-21.87 -7.07c-8.69,-37.62 31.29,-56.9 31.75,-91.72 5.65,-40.01 -45.42,-54.83 -42.36,-93.84 -0.21,-29.64 25.89,-48.46 37.41,-73.39 1.61,-4.83 2.43,-9.92 2.43,-15.01 0,-0.76 -0.02,-1.53 -0.05,-2.28l17.7 0z"/>
    <g>
     <path class="fil7" d="M2449.21 2512.58c-0.33,2.22 -0.5,4.48 -0.5,6.72 0,7.63 1.92,15.16 5.58,21.85 15.28,24.21 42.1,49.87 25.38,81.16 -17.62,25.84 -47.02,51.03 -35.27,84.64 12.94,29.41 39.99,57.39 25.39,93.87l-21.86 4.93c17.39,-35.54 -8.69,-70.78 -23.97,-101.6 -18.59,-44.22 39.97,-65.42 40.91,-105.84 -0.22,-26.09 -27.98,-40.92 -33.85,-64.91 -12.01,-10.13 -24.48,4.01 -38.83,1.39 -10.59,2.14 -26.81,-14.58 -33.15,3.54 -7.53,26.56 -41.89,46.1 -26.81,77.61 14.35,28 48.91,48.46 37.37,84.7 -10.33,33.85 -44.44,66.08 -23.28,105.12 -8.7,-2.81 -24.94,2.59 -24.7,-11.29 -13.41,-47.28 43.75,-74.8 26.1,-122.06 -8.22,-28.94 -45.63,-44.94 -37.39,-79.76 6.09,-28.65 38.2,-48.69 33.69,-80.08l105.19 -0 0 0.01zm0 0l0 0 0 0z"/>
    </g>
    <g>
     <path class="fil7" d="M2483.22 2512.58c-0.45,8.05 1.17,16.04 6.36,23.63 16.24,26.35 44.46,55.29 28.23,89.62 -18.34,27.51 -50.33,55.5 -32.47,91.73 12.94,21.63 32.95,43.25 27.55,69.85l-21.18 7.05c14.11,-49.62 -55.04,-78.81 -26.1,-128.43 17.88,-26.58 49.85,-51.52 31.76,-86.79 -10.82,-21.85 -33.17,-34.79 -32.48,-62.1l0.76 -4.57 17.57 0 0 -0.01zm0 0l0 0 0 0z"/>
    </g>
    <g>
     <path class="fil7" d="M2518.25 2512.58c0,0.21 -0.01,0.42 -0.01,0.64 0,6.83 1.8,13.54 5.19,19.46 15.29,27.55 42.82,53.63 32.47,88.19 -2.85,10.61 -11.28,18.84 -13.41,29.64 17.9,14.83 34.82,31.51 58.56,32.45 8.46,-5.4 3.76,-29.39 21.16,-18.34l25.39 12.72c-1.86,6.81 -7.52,12.94 -12.68,17.63 -9.64,-4.69 -19.05,-10.34 -31.06,-9.89 -3.55,3.77 -6.61,8.01 -6.34,13.41 8.46,1.39 16.2,4.92 23.27,9.87 -3.28,7.07 -9.65,11.52 -15.53,16.94l-19.75 -7.07c-3.28,4.71 -10.13,9.66 -7.74,14.83 4.45,1.9 9.41,4.47 12.68,7.78 -8.7,9.41 -19.74,15.5 -30.35,21.89 -9.15,-29.88 -39.28,-50.83 -36.69,-85.38l-1.39 -1.41c-7.07,7.97 -4.69,20.69 -4.23,31.03 8.47,21.64 28.7,38.37 31.76,62.1 -3.54,6.1 -11.53,7.28 -17.66,9.87 0.72,-42.8 -64.2,-75.23 -22.56,-118.53 13.88,-21.2 37.16,-41.41 28.91,-70.58 -8.46,-28.18 -38.43,-45.67 -38.17,-77.25l18.17 0 0 0.01zm0 0l0 0 0 0z"/>
    </g>
    <g>
     <path class="fil7" d="M2706.23 2512.58c0.23,7.95 0.96,14.79 -2.14,22.94 -32.22,9.17 -53.38,-24.94 -84.65,-19.79l3.52 17.67c28.93,0.95 47.04,28.69 76.91,27.49 -4.24,8.48 1.88,30.82 -16.92,21.89 -19.52,-4.7 -33.64,-21.89 -55.04,-21.89 -2.58,4.73 -0.95,11.33 -1.4,16.94 22.57,3.54 38.8,22.6 61.36,26.13 -2.12,7.76 -4.24,16.43 -10.59,21.16 -18.36,-4.47 -32.69,-20.95 -52.23,-20.48l-3.5 16.22c18.57,0.47 30.58,16.94 47.27,21.87 0.45,6.85 -5.64,12.95 -9.17,19.07 -14.81,-4.45 -26.11,-17.16 -43.04,-16.22 -0.24,-6.38 3.53,-13.65 2.1,-20.46 -19.02,5.65 -31.75,-12 -45.83,-22.6 -0.41,-34.68 -36.92,-57.46 -38.85,-89.95l172.21 0 0 0.01zm0 0l0 0 0 0z"/>
    </g>
    <g>
     <path class="fil7" d="M2086.36 2512.58c-0.22,-3.13 -0.4,-5.31 -0.4,-5.31 29.17,11.31 54.79,-9.63 79.72,-20.44 6.35,-1.9 16.22,1.4 19.07,-5.65 -0.25,-5.41 9.63,-11.76 1.41,-15.53 -36.47,-4.94 -60.69,39.05 -98.08,19.06l-2.84 -5.65c7.77,-106.3 67.75,-209.08 167.23,-259.65 88.91,-50.82 225.33,-46.57 309.06,12.7 44.47,27.28 87.03,72.21 110.1,117.85 22.08,39.98 32.21,84.88 35.25,132.64 -38.58,29.16 -64.44,-27.5 -103.74,-14.82 2.13,6.12 3.3,12.47 7.79,17.65 34.82,-0.24 58.79,36.22 95.25,21.85l0.03 5.3 -172.21 0c-0.04,-0.82 -0.07,-1.65 -0.07,-2.48 0,-6.28 1.24,-12.53 3.63,-18.33 12,-27.75 8.22,-63.76 -4.95,-89.63 -4,-6.81 -11.05,-12.21 -17.65,-16.22 9.66,20.48 21.4,44.69 15.53,69.85 -0.68,19.43 -12.12,38.08 -12.25,56.81l-18.17 0 0.07 -2.47c6.81,-32.94 27.54,-67.99 10.6,-103.03 -4.72,-14.1 -15.27,-30.1 -29.62,-35.98 21.39,24.48 29.85,64.45 17.62,97.39 -6.17,13.1 -14.68,28.68 -15.52,44.08l-17.59 0c7.28,-38.74 36.76,-75.38 16.17,-116.78 -5.41,-12.23 -16.22,-24.69 -28.21,-31.76l-0.72 0.73c24,23.29 31.28,61.63 18.35,92.43 -6.05,18.06 -19.31,36.03 -22,55.39l-105.2 0c-0.39,-2.76 -1.04,-5.48 -1.92,-8.12 -12,-33.87 -36.47,-67.73 -21.89,-107.26 4.01,-11.29 12.02,-20.94 19.05,-31.03 -23.29,12.46 -35.04,38.81 -34.57,65.62 -1.01,29.14 20.54,54.12 23.6,80.79l-17.69 -0c-1.41,-27.57 -26.25,-49.09 -22.13,-80.09 1.39,-22.81 9.15,-42.82 23.96,-59.97 -20.45,8.22 -28.91,31.75 -34.56,51.5 -9.81,31.68 13.6,60.17 15.95,88.56l-19.03 0c0.02,-0.54 0.03,-1.09 0.03,-1.64 0,-5.85 -1.12,-11.65 -3.29,-17.08 -12.69,-32.69 -17.17,-76.89 7.05,-105.83 -13.17,3.54 -20.93,19.97 -25.4,32.44 -14.56,31.92 3.86,61.49 4.49,92.1l-171.33 0 0 0.01zm0 0l0 0 0 0z"/>
    </g>
    <g>
     <path class="fil5" d="M2412.65 2239.85l38.11 2.12 -0.7 3.54 -28.22 26.81c4.92,12.01 9.87,24 14.82,35.97 21.4,-12.44 41.88,-27.97 67.75,-29.63 -2.36,13.66 -12.7,28.01 -11.31,41.63 16,-4.46 30.61,-14.33 48.01,-13.41 -10.84,20 -26.6,40.01 -27.55,64.93 -23.75,-8.92 -48.22,-19.76 -74.78,-23.98 -56.69,-9.66 -111.27,2.81 -158.09,25.4 -3.99,-23.75 -15.5,-44.46 -29.62,-64.21 8.46,-2.82 18.81,1.86 27.53,4.25 7.29,2.1 13.41,7.03 21.17,8.46 1.39,-14.11 -6.82,-27.99 -12.69,-40.94 4,-3.06 10.35,-0.72 14.82,0.72 18.57,7.04 35.28,18.09 52.22,28.22 8.69,-10.13 11.97,-24.72 15.5,-38.13l-28.91 -26.1 0 -2.81 38.1 -2.14c6.33,-11.99 10.57,-24.69 16.93,-36.68 7.77,10.59 10.35,24.47 16.92,35.97l0 0zm0 0l0 0 0 0z"/>
    </g>
    <g>
     <path class="fil7" d="M2426.06 2316.77l-3.51 3.53c-17.65,-1.88 -36.22,0.46 -52.94,0.72 -1.87,-1.88 -5.62,-4.71 -2.13,-7.07l26.82 -20.48c11.07,6.38 22.81,14.6 31.75,23.3l0 0zm0 0l0 0 0 0z"/>
    </g>
    <g>
     <path class="fil5" d="M1955.42 2326.64c-14.59,11.31 -24.94,27.78 -21.87,46.59 1.65,2.82 3.28,7.04 7.05,7.75 11.76,0 15.75,-12.68 21.15,-20.46 6.36,-14.11 18.6,-29.41 35.29,-31.04 14.34,-0.93 26.6,2.82 36,14.11 14.34,17.18 11.75,44.93 4.95,64.94 -6.38,14.82 -16.25,29.85 -30.35,39.5l-25.41 -15.53c13.88,-9.62 28.48,-25.4 30.35,-43.04 0,-6.35 -1.39,-14.82 -9.19,-15.53 -16.22,4.72 -17.86,24.23 -28.91,35.29 -8.46,8.71 -19.06,15.28 -32.47,13.4 -12.47,-0.72 -23.06,-8.46 -30.35,-18.34 -13.88,-21.15 -7.06,-52.23 1.41,-68.43 5.19,-9.19 11.31,-18.35 19.77,-25.42 7.04,4.02 15.29,10.14 22.57,16.24l0 0zm921.54 18.38c12.22,19.74 16.95,45.84 10.58,69.84l-26.11 -1.41c3.55,-15.76 6.12,-35.52 -4.94,-48.69 -3.28,-4 -9.16,-6.37 -13.41,-4.24 -14.34,16 1.21,39.06 -7.74,57.16 -4.25,8.25 -10.6,18.12 -19.77,21.86 -14.84,5.65 -33.18,2.83 -44.47,-8.46 -22.09,-23.06 -32.45,-58.81 -18.33,-88.91l27.51 0c-4.7,11.78 -7.97,28.46 -3.52,42.34 2.34,5.88 5.17,13.41 12.01,15.52 22.57,0.82 7.27,-31.52 12.68,-46.59 2.12,-11.28 8.23,-23.04 19.74,-28.22 21.16,-10.34 45.88,1.41 55.74,19.79l0 0zm-692.2 44.43c22.8,-8.71 53.85,-23.75 78.31,-7.76 -5.19,7.28 -15.27,11.29 -22.59,17.63 -11.98,11.76 -26.56,26.09 -35.26,40.92 -29.4,-5.89 -52.94,11.31 -77.63,21.18 -9.41,1.86 -21.88,2.81 -29.63,-3.53 23.29,-38.36 56.2,-73.63 47.98,-124.19 2.59,-4.47 7.05,-0.7 9.87,0.71 18.13,14.11 26.82,33.64 28.95,55.05l0 0zm464.29 -50.1c-9.15,47.97 23.75,81.86 45.86,118.54 -25.38,16.94 -49.4,-9.19 -73.38,-15.53 -10.59,-1.63 -23.04,-3.06 -33.18,-1.41 -14.56,-22.56 -34.09,-43.74 -57.85,-56.44 1.4,-7.75 12.22,-8.25 19.76,-9.18 20.93,-2.1 39.27,6.6 56.45,15.54 3.29,-7.75 4.7,-16.47 7.04,-24.69 5.67,-13.88 16.74,-28.01 31.08,-33.88 3.04,0.47 5.16,3.77 4.21,7.04l0 0zm-196.17 43.76c0.72,3.99 4.71,7.52 2.12,12 -13.88,-4.25 -29.62,-1.9 -43.04,3.51 -12.01,8.93 -10.12,27.31 -7.06,40.22l3.54 2.84c5.87,-1.42 6.12,-8.94 11.28,-10.6 8.71,2.12 20.7,5.2 28.93,0 7.28,0.24 7.07,10.34 7.75,15.53 -5.17,27.29 -16.69,56.92 -44.44,69.85 -11.53,5.65 -26.36,1.86 -37.41,-2.12 -27.28,-16.23 -42.57,-48.45 -39.51,-77.6 2.13,-4.47 5.42,-8.01 10.61,-4.95 11.02,7.52 23.02,-5.87 33.15,3.51 12.22,-5.41 4.93,-20.44 4.93,-31.73 -9.87,-12.71 -26.81,-10.84 -41.62,-9.89 -6.6,-4.01 0.47,-10.34 2.09,-14.82 16.01,-22.57 46.6,-23.04 73.38,-19.75 13.66,3.53 28.72,9.41 35.28,24l0 0zm0 0l0 0 0 0z"/>
    </g>
    <g>
     <path class="fil5" d="M2371.02 2415.56l0 2.84c-7.99,-0.71 -20.91,-8.71 -28.21,1.4 -4.69,2.1 -5.4,-3.31 -4.93,-6.35 -0.16,-0.53 -0.25,-1.08 -0.25,-1.63 0,-2.65 1.89,-4.93 4.49,-5.43 11.03,-2.59 23.5,0.7 28.9,9.17l0 0zm83.97 -3.53c-0.22,2.84 0.47,6.12 -2.82,7.77 -8.94,-3.52 -21.41,-8.47 -30.35,-1.4 -5.19,-11.06 9.18,-8.71 14.11,-12 7.3,-0.26 15.77,-0.47 19.06,5.62l0 0zm0 0l0 0 0 0z"/>
    </g>
    <g>
     <path class="fil7" d="M2409.83 2457.19c-4.22,8.94 -17.87,3.29 -25.4,4.93 -2.56,-0.95 -0.95,-3.75 -1.41,-5.63 7.53,-5.19 20.94,-5.87 26.81,0.7l0 0zm11.28 19.77c-5.61,8.46 -14.09,19.03 -25.38,18.35 -12.72,0.94 -15.53,-9.42 -24.72,-15.53l-0.69 -4.26c16.94,2.6 35.52,-0.68 50.78,1.44z"/>
    </g>
    <g>
     <path class="fil5" d="M1981.52 2587.03c14.25,-0.07 27.92,0.47 42.64,0.13l-32.74 27.38c3.15,11.52 5.88,24.77 9.87,40.23l-32.46 -22.58c-13.65,6.23 -21.87,13.88 -35.97,21.16l11.28 -38.82c-10.72,-8.77 -22.7,-17.09 -32.83,-26.02 14.77,-0.38 27.7,0.21 41.99,-0.07 6.6,-12.34 9.54,-26.48 15.53,-38.82l12.69 37.42 0 0zm167.24 185.58c2.84,6.81 6.93,12.21 8.68,22.43 -7.52,4.73 -17.02,8.61 -25.61,12.85 -2.09,-15.53 -15.75,-30.59 -31.03,-34.6 -12.69,-3.15 -26.57,2.85 -35.97,14.13 -7.77,9.15 -10.13,22.34 -7.77,33.86 6.12,15.97 23.05,28.03 40.22,28.03l4.93 0.15c-3.53,8.77 -7.82,17.34 -12.68,25.45 -28.47,-0.96 -57.16,-17.67 -67.76,-45.19 -9.17,-22.32 -5.16,-51.26 9.18,-69.85 17.41,-22.09 45.17,-28.21 71.98,-22.56 18.07,4.96 35.02,18.58 45.83,35.29l0 0.01zm548.24 -14.81l1.78 1.75 -42.33 39.41 14.11 17.04c11.99,-9.41 24.94,-19.41 37.75,-31.39 6.59,5.53 11.89,11.98 18.11,19.3 -12.68,12.09 -25.87,20.33 -36.91,31.86 4.7,5.89 8.33,12.57 15.5,19.64l45.65 -37.64 19.5 20.11c-25.87,24.57 -54.08,49.87 -80.9,69.49l-79.74 -103.02c25.41,-21.18 46.81,-40.46 69.16,-62.81 6.83,4.49 11.78,10.35 18.33,16.26l0 -0zm-448.75 86.79c14.34,18.34 14.57,46.79 5.63,67.72 -9.97,21.29 -29.15,34.83 -50.09,39.53 -25.38,3.99 -49.38,-4.22 -67.73,-21.85 -16.22,-17.89 -25.16,-43.52 -16.94,-68.44 7.29,-27.05 33.63,-46.81 60.7,-50.1 27.97,-1.66 53.85,11.27 68.43,33.15l0 0zm0 0l0 0 0 0z"/>
    </g>
    <g>
     <path class="fil4" d="M2218.63 2861.52c7.97,18.58 -1.2,36.92 -14.13,50.08 -8.22,6.58 -18.99,10.72 -29.8,6.73 -6.81,-3.29 -15.23,-9.32 -17.11,-16.62 -5.19,-18.8 3.41,-36.44 16.57,-49.38 8,-6.6 19.53,-10.35 29.62,-5.65 6.12,1.88 12.94,8.71 14.84,14.84l0 0zm0 0l0 0 0 0z"/>
    </g>
    <g>
     <path class="fil5" d="M2499.46 2891.37c-19.79,2.85 -38.69,5.2 -57.53,8.27 1.9,9.28 1.06,15.49 2.47,22.56 17.65,-0.35 33.06,-3.48 49.53,-5.61l4.82 30.17c-16.69,3.09 -33.71,5.63 -50.56,7.32 0.47,13.63 2.28,30.32 2.07,45.38 -13.87,2.13 -28.84,3.65 -43.2,2.7l-8.46 -128.64 -0.11 -2.7c31.53,-2.9 63.42,-7.22 94.59,-12.09 1.31,9.65 4.25,20.79 6.37,32.69l0.03 -0.06zm107.91 -57.83l1.19 2.21 -51.67 25.91 8.75 20.31c15.76,-6.01 29.37,-11.62 45.04,-19.53 4.78,7.17 8.05,14.84 11.99,23.59 -14.21,7.57 -28.91,13.44 -44.4,20.25 2.88,6.96 4.32,12.03 9.38,23.19l54.38 -23.32 13.09 24.81c-31.73,16.31 -65.91,32.66 -97.18,43.98l-47.63 -121.24c30.33,-13.2 56.3,-25.71 84.01,-40.86 5.32,6.2 8.4,13.23 13.05,20.71l0 0zm-228.2 72.45c-19.68,-3.3 -38.46,-6.81 -57.3,-9.64 -1.05,9.43 -3.71,15.11 -4.5,22.25 16.91,5.04 32.54,6.75 48.87,9.73l-4.59 30.24c-16.93,-2.1 -33.74,-4.96 -50.41,-8.43 -3.69,13.12 -7.01,29.59 -11.79,43.87 -13.88,-2.21 -28.62,-5.33 -42,-10.61l31.04 -125.1 0.73 -2.59c31.29,6.76 63.33,12.66 93.85,17.23 -1.71,9.58 -2.3,21.12 -3.88,33.06l-0.02 -0.03zm457.27 -318.78c14.23,-0.06 26.94,0.33 42.61,0.15l-32.71 27.38c3.18,11.5 5.88,24.75 9.85,40.23l-32.44 -22.6c-13.68,6.22 -21.89,13.88 -36,21.16l11.29 -38.8c-10.71,-8.75 -22.71,-17.11 -32.79,-26.04 14.73,-0.38 27.68,0.21 41.94,-0.07 5.76,-12.85 9.88,-25.19 15.55,-38.82l12.68 37.42 0 0zm0 0l0 0 0 0z"/>
    </g>
    <path class="fil7" d="M2759.02 2989.66c25.94,0 48.18,20.17 48.18,47.54 0,27.62 -22.23,47.78 -48.18,47.78 -26.21,0 -48.43,-20.16 -48.43,-47.78 0,-27.37 22.22,-47.54 48.43,-47.54zm0 7.71c-22.09,0 -39.18,17.1 -39.18,39.83 0,23.25 17.1,40.08 39.18,40.08 21.85,0 38.93,-16.82 38.93,-40.08 -0.01,-22.74 -17.08,-39.83 -38.93,-39.83zm-10.16 67.45l-8.47 0 0 -54.99 21.06 0c13.1,0 19.53,4.88 19.53,15.67 0,9.9 -6.18,14.14 -14.4,15.16l15.67 24.16 -9.24 0 -14.65 -23.9 -9.52 0 0 23.9 0.02 0zm0 -30.82l10.03 0c10.27,0 13.61,-2.97 13.61,-9.01 0,-5.26 -2.57,-8.22 -12.2,-8.22l-11.44 0 0 17.23 0 0z"/>
   </g>
  </g>
 </g>
</svg>
