<?xml version="1.0" encoding="UTF-8"?>
<!DOCTYPE svg PUBLIC "-//W3C//DTD SVG 1.1//EN" "http://www.w3.org/Graphics/SVG/1.1/DTD/svg11.dtd">
<!-- Creator: CorelDRAW -->
<svg xmlns="http://www.w3.org/2000/svg" xml:space="preserve" width="152.4mm" height="152.4mm" version="1.1" style="shape-rendering:geometricPrecision; text-rendering:geometricPrecision; image-rendering:optimizeQuality; fill-rule:evenodd; clip-rule:evenodd"
viewBox="0 0 15240 15240"
 xmlns:xlink="http://www.w3.org/1999/xlink"
 xmlns:xodm="http://www.corel.com/coreldraw/odm/2003">
 <defs>
  <style type="text/css">
   <![CDATA[
    .fil0 {fill:none}
    .fil2 {fill:#0B7143}
    .fil1 {fill:#B1A9A1}
    .fil3 {fill:white}
    .fil7 {fill:black;fill-rule:nonzero}
    .fil4 {fill:#0B7143;fill-rule:nonzero}
    .fil6 {fill:#397657;fill-rule:nonzero}
    .fil5 {fill:white;fill-rule:nonzero}
   ]]>
  </style>
 </defs>
 <g id="Capa_x0020_1">
  <metadata id="CorelCorpID_0Corel-Layer"/>
  <g id="_2483781461776">
   <rect class="fil0" x="-0" y="-0" width="15240" height="15240"/>
   <path class="fil1" d="M5302.97 620.06c602.29,-87.67 1258.56,-139.78 1925.26,-155.94l0 -2.44c130.23,-2.33 260.7,-3.31 391.1,-2.91l1.35 0c130.4,-0.4 260.88,0.57 391.1,2.91l0 2.44c666.7,16.16 1322.97,68.27 1925.26,155.94 1168.23,170.04 2034.35,454.91 2991.98,961.24 375,198.28 624.47,507.53 738.86,916.01 546.7,1952.26 593.62,4475.73 -355.27,6693.43 -1022.72,2390.25 -2931.53,4171.57 -5219.41,5347.67l-81.42 41.85 0 0.18 -19.03 9.6 -369.3 189.85 -3.43 1.43 -3.46 -1.43 -369.29 -189.85 -19.04 -9.6 0 -0.18 -81.42 -41.85c-2287.88,-1176.1 -4196.69,-2957.42 -5219.4,-5347.67 -948.9,-2217.7 -901.98,-4741.17 -355.27,-6693.43 114.39,-408.48 363.85,-717.73 738.85,-916.01 957.63,-506.33 1823.76,-791.2 2991.98,-961.24z"/>
   <path class="fil2" d="M5272.5 527.99c610.21,-88.82 1275.11,-141.62 1950.58,-157.99l0 -2.47c131.94,-2.36 264.13,-3.35 396.24,-2.95l1.37 0c132.12,-0.4 264.31,0.58 396.24,2.95l0 2.47c675.47,16.37 1340.37,69.17 1950.59,157.99 1183.59,172.28 2061.1,460.89 3031.33,973.89 379.93,200.88 632.68,514.2 748.57,928.05 553.9,1977.94 601.43,4534.6 -359.94,6781.46 -1036.17,2421.7 -2970.08,4226.45 -5288.06,5418.02l-82.49 42.4 0 0.18 -19.28 9.73 -374.16 192.34 -3.47 1.45 -3.5 -1.45 -374.16 -192.34 -19.28 -9.73 0 -0.18 -82.49 -42.4c-2317.98,-1191.57 -4251.89,-2996.32 -5288.05,-5418.02 -961.38,-2246.86 -913.85,-4803.52 -359.95,-6781.46 115.9,-413.85 368.64,-727.17 748.58,-928.05 970.22,-513 1847.74,-801.61 3031.33,-973.89zm151.33 1039.69c-1063.03,154.73 -2023.76,454.89 -2852.19,943.01 -1334,4290.73 309.12,8747.6 5049.28,11184.3 4789.49,-2416.98 6493.14,-6893.57 5159.14,-11184.3 -810,-477.25 -1746.44,-774.83 -2781.36,-932.47 -1360.59,-207.25 -3211.6,-208.97 -4574.87,-10.54z"/>
   <path class="fil3" d="M5479.88 11430.24l4419.9 0c199.11,0 363.94,-149.82 381.21,-346.49l599.56 -6826.15 -6381.43 0 599.55 6826.15c17.27,196.67 182.11,346.49 381.21,346.49z"/>
   <path class="fil3" d="M4179.49 4032.46l3347.5 0 0 0.02 3698.85 0 -51.91 -504.08 -156.2 -131.12 -117.22 -411.74c-45.97,-161.54 -170.37,-288.41 -347.55,-288.41l-2674.62 0 0 -0.02 -3025.97 0c-177.18,0 -301.58,126.9 -347.55,288.41l-117.22 411.74 -156.2 131.12 -51.91 504.08z"/>
   <path class="fil4" d="M5659.33 7092.43c0,-1132.79 918.31,-2051.19 2051.23,-2051.19 1132.82,0 2051.16,918.4 2051.16,2051.19 0,1132.89 -918.34,2051.19 -2051.16,2051.19 -1132.92,0 -2051.23,-918.33 -2051.23,-2051.19z"/>
   <path class="fil5" d="M5719.8 7092.43c0,-1099.38 891.24,-1990.66 1990.73,-1990.66 1099.41,0 1990.72,891.28 1990.72,1990.66 0,1099.42 -891.31,1990.72 -1990.72,1990.72 -1099.49,-0.03 -1990.73,-891.3 -1990.73,-1990.72z"/>
   <path class="fil4" d="M5784.65 7092.43c0,-1063.57 862.24,-1925.78 1925.91,-1925.78 1063.61,0 1925.84,862.21 1925.84,1925.78 0,1063.64 -862.27,1925.85 -1925.84,1925.85 -1063.71,0 -1925.91,-862.21 -1925.91,-1925.85z"/>
   <g>
    <path class="fil5" d="M6520.09 7084.31c0,-655.05 530.98,-1186.03 1185.96,-1186.03 654.98,0 1185.93,530.98 1185.93,1186.03 0,654.95 -530.95,1185.9 -1185.93,1185.9 -654.98,0 -1185.96,-530.95 -1185.96,-1185.9l0 0zm1373.49 -1748.08c32.49,29.13 41.7,67.47 40.02,109.99 -9.17,30.05 -25.81,59.18 -52.55,80.06 32.56,24.14 65.08,49.2 70.04,92.5 9.21,42.52 -3.35,80.83 -27.52,112.52 -50.8,57.48 -131.66,42.52 -205.05,44.95l-193.78 5.1 -1.31 -17.62 -19.93 -440.03 -0.82 -9.6c127.52,-0.83 277.52,-33.81 390.9,22.13l0 0zm360.98 62.04c-34.23,98.78 -79.18,196.34 -103.44,300.52 -0.2,1.87 -0.29,3.77 -0.29,5.66 0,25.85 17.71,48.32 42.83,54.37 20.49,11.28 49.62,13.39 65.01,0 65.9,-92.49 97.17,-207.55 138.47,-311.36 52.48,18.38 93.38,44.62 144.25,63.79 -54.25,115.06 -87.6,250.53 -162.63,345.1 -54.16,47.52 -140.02,35.81 -204.99,19.96 -74.22,-26.63 -155.07,-74.11 -177.56,-157.5 -17.47,-57.09 61.72,-253 105.02,-370.06l153.33 49.52 0 0zm0 0l0 0 0 0z"/>
   </g>
   <g>
    <path class="fil5" d="M7053.34 5946.45l-110.05 72.44c-41.07,-21.63 -65.04,-36.23 -95.03,-49.98l-121.83 102.56c12.53,30.06 28.51,66.69 41.82,100.03l-108.8 121.63 -8.75 -19.17 -192.59 -457.59 175.89 -151.32 14.17 8.78c138.01,84.24 279.83,183.58 419.61,263.12l-14.44 9.5 0 0zm27.49 -16.77c-57.77,-140.9 -128.53,-305.47 -180.88,-437.63 132.58,-53.36 324.31,-184.63 442.62,-62.47 29.99,33.34 34.17,80 34.99,122.52 -7.43,27.45 -14.2,55.04 -32.49,77.53 39.56,48.7 113.02,103.98 163.82,152.31l-6.25 2.11 -150.04 33.11c-53.36,-42.91 -83.58,-73.19 -130.01,-105.03 -20.03,2.44 -33.81,14.18 -52.61,22.5l51.69 118.41 -140.84 76.64 0 0zm0 0l0 0 0 0z"/>
   </g>
   <g>
    <path class="fil4" d="M7763.57 5413.73c11.64,12.43 9.2,38.34 2.43,52.51 -21.6,25.06 -61.62,24.14 -94.97,19.96 2.44,-28.31 -8.02,-55.83 -5.91,-84.97 28.34,4.15 77.6,-10.06 98.45,12.5l0 0zm-550.16 114.99c8.26,20.85 8.75,54.78 -9.01,67.14l-82.5 34.99c-20.58,-37.85 -29.33,-63.79 -43.5,-94.57 38.31,-14.17 104.1,-71.68 135.01,-7.56l0 0zm577.65 75.04c6.6,29.23 -6.65,59.22 -35.02,65.07 -26.67,4.11 -46.63,1.64 -75.01,2.47 -4.17,-30.06 -6.61,-70.04 -4.17,-95.07 38.3,5 95.91,-15.81 114.2,27.53z"/>
   </g>
   <g>
    <path class="fil5" d="M8916.32 5766.36c28.37,34.98 47.61,78.32 60.07,122.48 -35.02,18.81 -61.68,40.09 -95.06,55.05 -8.25,-51.69 -36.63,-104.21 -87.47,-130.02 -24.16,-14.2 -60.07,-16.7 -87.53,-7.53 -42.55,15.82 -79.18,52.52 -95.03,95.03 -14.17,40.84 1.65,80.83 25.06,112.49 32.45,36.7 75.89,55.93 124.92,57.58 -22.03,36.23 -34.07,59.12 -54.95,87.53 -81.74,-11.71 -158.39,-56.72 -205.05,-132.58 -40.02,-64.15 -42.49,-162.5 -7.47,-230.04 36.64,-74.22 109.21,-121.73 187.47,-132.58 94.24,-3.33 179.24,34.19 235.04,102.59l0 0zm0 0l0 0 0 0z"/>
   </g>
   <g>
    <path class="fil6" d="M6750.73 5906.37c-23.45,21.58 -48.65,41.85 -74.94,60.02 -20.03,-47.52 -39.23,-90.04 -60.05,-142.55 47.88,25.48 89.94,55.01 135.02,82.57l-0.03 -0.04zm0 0l0 0 0 0z"/>
   </g>
   <g>
    <path class="fil5" d="M9166.49 6061.41c-38.31,38.34 -89.15,70.89 -130.09,107.56 65.08,14.14 138.37,11.64 205.09,22.49 30.02,43.4 45.84,85.06 75.04,137.54l-245.07 -17.46c-54.19,85 -103.35,171.68 -150.08,260.04 -29.13,-42.52 -51.59,-97.47 -80,-144.98 31.73,-64.22 72.93,-132.15 104.7,-196.37 -54.59,33.8 -102.53,77.53 -158.1,112.52l-86.58 -116.31c116.66,-100.02 242.54,-189.2 365.09,-279.99l9.93 -3.58 90.06 118.54 0.01 0zm-2751.69 -30.81c-22.13,45.84 -51.29,77.08 -71.65,120.84l285.06 187.53c-15.03,42.48 -47.52,84.24 -75.07,125.02l-292.55 -182.56c-26.24,34.59 -45.05,70.03 -71.33,114.23 -38.34,-25.39 -65.43,-42.09 -96.24,-64.12 72.57,-120.98 141.33,-234.29 221.33,-359.8l100.45 58.86 0 0zm0 0l0 0 0 0z"/>
   </g>
   <g>
    <path class="fil7" d="M7216.8 7145.5c0.02,1.98 0.08,3.99 0.08,5.98 0,17.77 -2.05,35.5 -6.06,52.78 -44.16,89.21 -115.81,167.51 -127.45,270.13 -50.83,32.42 -92.59,89.15 -165.07,70.01 -2.53,19.14 3.33,48.24 9.97,69.94 -57.48,-2.43 -96.71,40.02 -145.08,60.04 -25.81,-8.28 -32.49,-41.69 -42.45,-65.01 56.62,-19.13 97.46,-75.86 162.5,-74.94 7.53,-20.94 -4.21,-40.08 -7.53,-60.04 -80.89,-35.91 -209.23,177.5 -220.01,-7.53 80.82,-5 132.51,-80.03 212.58,-87.53l2.43 -60.04c-90.85,-9.18 -149.21,84.21 -240.04,75l-20.05 -79.97c105.02,6.61 167.6,-87.53 267.63,-92.59 13.28,-17.46 14.96,-43.34 17.52,-67.51 -109.2,-14.21 -184.2,106.73 -300.08,70 0,0 -3.95,-50.34 -6.12,-78.75l607.23 0 0 0.03zm0 0l0 0 0 0z"/>
   </g>
   <g>
    <path class="fil7" d="M7344.91 7145.5c3.68,44.39 -7.17,88.69 -48.99,133.83 -60.05,70.77 -120.85,159.98 -77.51,255.1 45.87,104.93 190.06,186.64 127.52,317.51 -34.13,82.54 -115.88,145.08 -112.52,242.58 -21.64,-9.18 -44.1,-18.38 -62.48,-34.99 0,-124.2 176.64,-201.73 92.46,-332.6 -7.43,25.81 -9.1,60.83 -14.96,90.03 -29.23,75.86 -91.7,136.66 -115.08,215.15 -39.1,-15.1 -80.01,-46.76 -112.53,-80.1l45.08 -27.56c-4.99,-16.7 -18.38,-30.84 -30.05,-45.02 -29.23,-4.11 -48.37,15.03 -72.5,22.56 -20.85,-18.38 -40.91,-35.05 -57.52,-57.54 14.97,-42.58 131.7,-7.47 72.48,-77.51 -39.99,-24.99 -79.97,10.86 -114.99,27.56l-47.52 -60.04c40.84,-24.99 81.65,-60.05 132.45,-50.02 12.53,22.56 13.42,55.8 37.55,67.58 85.86,-1.68 146.73,-66.72 212.55,-117.59 -45.9,-68.26 -83.32,-162.54 -42.54,-245.07 32.65,-82.73 117.81,-152.35 121.66,-243.79l67.44 0 0 -0.07zm0 0l0 0 0 0z"/>
   </g>
   <path class="fil7" d="M7467.07 7145.5c4.27,38.15 -2.01,77.28 -28.64,118.74 -54.13,73.46 -124.99,150.86 -92.54,247.57 30.85,97.56 152.58,156.72 145.08,270.13 -0.82,134.16 -156.75,217.58 -112.55,367.62l-77.51 -25.05c-30.81,-133.34 110.88,-201.67 112.53,-325.04 20.02,-141.79 -160.96,-194.34 -150.11,-332.61 -0.76,-105.06 91.74,-171.74 132.58,-260.1 5.68,-17.14 8.61,-35.14 8.61,-53.21 0,-2.68 -0.06,-5.4 -0.18,-8.06l62.73 0.01z"/>
   <g>
    <path class="fil7" d="M7895.59 7145.5c-1.16,7.88 -1.77,15.86 -1.77,23.83 0,27.05 6.82,53.74 19.79,77.46 54.16,85.79 149.22,176.74 89.94,287.65 -62.45,91.58 -166.65,180.85 -125.02,299.98 45.87,104.24 141.72,203.41 90,332.67l-77.47 17.46c61.65,-125.93 -30.82,-250.85 -84.97,-360.09 -65.9,-156.72 141.65,-231.85 144.98,-375.12 -0.79,-92.46 -99.18,-145.01 -119.96,-230.04 -42.55,-35.91 -86.74,14.2 -137.61,4.93 -37.52,7.56 -95.03,-51.69 -117.49,12.53 -26.7,94.14 -148.46,163.39 -95.03,275.06 50.87,99.24 173.32,171.74 132.45,300.18 -36.63,119.95 -157.51,234.22 -82.5,372.55 -30.84,-9.96 -88.39,9.18 -87.53,-40.01 -47.52,-167.57 155.07,-265.1 92.49,-432.6 -29.13,-102.56 -161.71,-159.28 -132.51,-282.66 21.57,-101.54 135.38,-172.56 119.39,-283.8l372.82 -0.01 0 0.03zm0 0l0 0 0 0z"/>
   </g>
   <g>
    <path class="fil7" d="M8016.1 7145.5c-1.61,28.51 4.14,56.86 22.52,83.75 57.55,93.39 157.58,195.95 100.07,317.65 -65.01,97.49 -178.39,196.7 -115.09,325.1 45.87,76.68 116.76,153.3 97.62,247.57l-75.07 24.99c50.02,-175.85 -195.09,-279.3 -92.49,-455.15 63.36,-94.21 176.67,-182.6 112.55,-307.61 -38.34,-77.44 -117.55,-123.31 -115.09,-220.09l2.7 -16.17 62.28 0 0 -0.04zm0 0l0 0 0 0z"/>
   </g>
   <g>
    <path class="fil7" d="M8140.26 7145.5c0,0.72 -0.01,1.5 -0.01,2.25 0,24.19 6.35,48 18.39,68.97 54.19,97.62 151.75,190.09 115.09,312.58 -10.1,37.58 -39.99,66.78 -47.51,105.05 63.42,52.55 123.4,111.67 207.55,115.03 29.99,-19.14 13.31,-104.18 75,-65.01l90 45.08c-6.58,24.13 -26.67,45.87 -44.95,62.47 -34.16,-16.63 -67.51,-36.66 -110.09,-35.05 -12.56,13.35 -23.41,28.38 -22.46,47.52 29.99,4.93 57.41,17.46 82.47,34.98 -11.64,25.06 -34.2,40.84 -55.04,60.05l-70.01 -25.06c-11.64,16.7 -35.91,34.23 -27.42,52.55 15.78,6.74 33.34,15.85 44.95,27.55 -30.85,33.34 -69.98,54.91 -107.56,77.57 -32.42,-105.91 -139.23,-180.16 -130.05,-302.61l-4.93 -5c-25.06,28.24 -16.64,73.32 -15,109.96 30.02,76.68 101.71,135.96 112.56,220.08 -12.53,21.63 -40.88,25.81 -62.58,34.98 2.53,-151.68 -227.51,-266.64 -79.97,-420.07 49.19,-75.13 131.7,-146.75 102.46,-250.13 -29.98,-99.87 -136.19,-161.85 -135.27,-273.78l64.38 0.01 0 0.03zm0 0l0 0 0 0z"/>
   </g>
   <g>
    <path class="fil7" d="M8806.46 7145.5c0.82,28.18 3.42,52.42 -7.6,81.32 -114.2,32.49 -189.2,-88.39 -300.02,-70.14l12.47 62.61c102.52,3.35 166.71,101.67 272.59,97.43 -15.03,30.06 6.67,109.24 -59.98,77.57 -69.18,-16.64 -119.23,-77.57 -195.09,-77.57 -9.14,16.77 -3.35,40.15 -4.96,60.04 80,12.53 137.51,80.1 217.48,92.6 -7.53,27.49 -15.03,58.23 -37.52,75 -65.07,-15.84 -115.88,-74.24 -185.12,-72.57l-12.4 57.48c65.83,1.68 108.38,60.04 167.53,77.5 1.62,24.27 -19.99,45.91 -32.48,67.58 -52.48,-15.79 -92.53,-60.83 -152.54,-57.48 -0.86,-22.62 12.49,-48.37 7.43,-72.51 -67.41,20.03 -112.53,-42.51 -162.44,-80.1 -1.45,-122.91 -130.84,-203.64 -137.68,-318.79l610.33 0 0 0.03zm0 0l0 0 0 0z"/>
   </g>
   <g>
    <path class="fil7" d="M6609.6 7145.5c-0.79,-11.11 -1.42,-18.81 -1.42,-18.81 103.38,40.09 194.17,-34.13 282.56,-72.44 22.49,-6.74 57.48,4.97 67.57,-20.02 -0.88,-19.17 34.13,-41.7 5,-55.05 -129.26,-17.52 -215.08,138.41 -347.6,67.54l-10.06 -20.02c27.56,-376.73 240.11,-741 592.67,-920.24 315.11,-180.1 798.61,-165.04 1095.34,45.01 157.6,96.68 308.43,255.93 390.21,417.67 78.26,141.69 114.17,300.84 124.92,470.09 -136.72,103.35 -228.4,-97.47 -367.65,-52.52 7.53,21.71 11.7,44.2 27.62,62.55 123.4,-0.86 208.37,128.37 337.57,77.43l0.09 18.81 -610.32 0c-0.15,-2.9 -0.23,-5.86 -0.23,-8.78 0,-22.27 4.38,-44.4 12.86,-64.98 42.51,-98.35 29.13,-225.97 -17.53,-317.68 -14.17,-24.13 -39.16,-43.27 -62.54,-57.47 34.23,72.57 75.86,158.39 55.04,247.57 -2.4,68.85 -42.94,134.94 -43.4,201.33l-64.39 0.01 0.27 -8.74c24.13,-116.74 97.59,-240.96 37.55,-365.16 -16.71,-49.98 -54.13,-106.67 -104.99,-127.52 75.82,86.75 105.81,228.4 62.44,345.17 -21.87,46.43 -52.02,101.64 -55.01,156.22l-62.35 0c25.81,-137.28 130.28,-267.17 57.32,-413.89 -19.17,-43.34 -57.48,-87.5 -100,-112.55l-2.56 2.56c85.06,82.54 110.88,218.44 65.04,327.57 -21.44,64.03 -68.43,127.69 -77.97,196.31l-372.85 0c-1.37,-9.77 -3.69,-19.42 -6.8,-28.77 -42.52,-120.05 -129.26,-240.04 -77.57,-380.15 14.2,-40.02 42.58,-74.21 67.51,-109.99 -82.54,44.16 -124.2,137.55 -122.52,232.58 -3.59,103.28 72.8,191.8 83.65,286.34l-62.71 -0.01c-5,-97.73 -93.02,-173.98 -78.42,-283.84 4.93,-80.86 32.42,-151.75 84.93,-212.55 -72.47,29.13 -102.46,112.52 -122.49,182.53 -34.75,112.29 48.21,213.24 56.53,313.86l-67.44 0c0.06,-1.92 0.1,-3.87 0.1,-5.8 0,-20.73 -3.96,-41.3 -11.65,-60.53 -44.98,-115.85 -60.86,-272.5 24.99,-375.06 -46.69,12.53 -74.18,70.8 -90.03,114.99 -51.62,113.12 13.68,217.94 15.92,326.39l-607.2 0.01 0 0.03zm0 0l0 0 0 0z"/>
   </g>
   <g>
    <path class="fil5" d="M7766 6178.93l135.08 7.53 -2.5 12.53 -100.03 95.03c17.46,42.55 34.99,85.06 52.51,127.48 75.86,-44.09 148.43,-99.14 240.11,-105.02 -8.35,48.4 -45.02,99.27 -40.08,147.54 56.72,-15.82 108.48,-50.8 170.16,-47.52 -38.4,70.9 -94.27,141.79 -97.62,230.11 -84.18,-31.6 -170.89,-70.03 -265.04,-85 -200.91,-34.23 -394.35,9.97 -560.27,90.04 -14.14,-84.18 -54.95,-157.58 -105,-227.58 29.99,-10 66.65,6.61 97.56,15.06 25.85,7.43 47.52,24.92 75.04,29.99 4.93,-50.02 -24.17,-99.21 -44.98,-145.08 14.17,-10.85 36.66,-2.56 52.51,2.53 65.8,24.96 125.02,64.12 185.06,100.03 30.81,-35.91 42.42,-87.6 54.95,-135.11l-102.46 -92.5 0 -9.96 135.01 -7.57c22.46,-42.48 37.49,-87.5 60.01,-130.01 27.52,37.52 36.7,86.71 59.98,127.48l0 0zm0 0l0 0 0 0z"/>
   </g>
   <g>
    <path class="fil7" d="M7813.51 6451.52l-12.43 12.5c-62.54,-6.64 -128.37,1.64 -187.62,2.56 -6.64,-6.67 -19.93,-16.7 -7.53,-25.05l95.06 -72.57c39.23,22.62 80.86,51.75 112.52,82.56l0 0zm0 0l0 0 0 0z"/>
   </g>
   <g>
    <path class="fil5" d="M6145.53 6486.51c-51.72,40.08 -88.39,98.45 -77.5,165.1 5.85,10 11.64,24.96 24.99,27.46 41.66,0 55.83,-44.95 74.97,-72.51 22.52,-50.01 65.93,-104.23 125.08,-110.02 50.84,-3.29 94.28,10 127.59,50.01 50.83,60.9 41.66,159.25 17.52,230.15 -22.59,52.51 -57.57,105.78 -107.55,140.01l-90.07 -55.05c49.19,-34.09 100.92,-90.03 107.56,-152.54 0,-22.49 -4.93,-52.51 -32.56,-55.04 -57.47,16.7 -63.29,85.85 -102.46,125.05 -29.98,30.88 -67.54,54.16 -115.08,47.48 -44.2,-2.53 -81.75,-29.99 -107.56,-65.01 -49.19,-74.97 -25.03,-185.09 5,-242.54 18.38,-32.55 40.08,-65.04 70.07,-90.09 24.96,14.24 54.19,35.94 80,57.54l0 0zm3266.03 65.14c43.3,69.97 60.07,162.47 37.51,247.54l-92.53 -5c12.56,-55.87 21.71,-125.87 -17.49,-172.57 -11.64,-14.17 -32.49,-22.55 -47.52,-15.02 -50.83,56.69 4.28,138.43 -27.42,202.58 -15.06,29.24 -37.55,64.22 -70.07,77.47 -52.58,20.03 -117.59,10.03 -157.61,-29.98 -78.29,-81.72 -115.02,-208.44 -64.94,-315.11l97.5 0c-16.67,41.76 -28.25,100.88 -12.46,150.07 8.28,20.85 18.31,47.52 42.55,55.01 80,2.9 25.78,-111.7 44.95,-165.1 7.53,-39.98 29.16,-81.65 69.97,-100.03 75,-36.66 162.6,5 197.56,70.14l0 0zm-2453.25 157.47c80.83,-30.87 190.85,-84.17 277.56,-27.49 -18.38,25.82 -54.12,40.02 -80.07,62.48 -42.45,41.66 -94.14,92.46 -124.95,145.01 -104.2,-20.88 -187.62,40.08 -275.12,75.07 -33.35,6.61 -77.54,9.96 -105.03,-12.53 82.53,-135.93 199.17,-260.95 170.03,-440.16 9.18,-15.85 24.99,-2.46 34.99,2.53 64.25,50.02 95.06,119.23 102.59,195.09l0 0zm1645.49 -177.56c-32.45,170.03 84.18,290.12 162.54,420.14 -89.96,60.04 -175.1,-32.56 -260.06,-55.05 -37.52,-5.79 -81.65,-10.85 -117.59,-5 -51.59,-79.97 -120.81,-155.04 -205.02,-200.02 4.96,-27.46 43.3,-29.23 70.04,-32.55 74.18,-7.43 139.19,23.38 200.05,55.07 11.68,-27.45 16.67,-58.36 24.96,-87.49 20.09,-49.2 59.32,-99.28 110.16,-120.06 10.78,1.65 18.28,13.35 14.92,24.96l0 0zm-695.26 155.11c2.57,14.13 16.71,26.66 7.53,42.51 -49.19,-15.06 -104.99,-6.74 -152.54,12.43 -42.55,31.67 -35.87,96.77 -25.02,142.55l12.53 10.06c20.81,-5.03 21.7,-31.67 39.98,-37.55 30.88,7.53 73.36,18.41 102.53,0 25.81,0.85 25.06,36.66 27.49,55.04 -18.32,96.71 -59.16,201.73 -157.51,247.57 -40.87,20.03 -93.42,6.61 -132.58,-7.53 -96.67,-57.51 -150.86,-171.71 -140.01,-275.03 7.53,-15.84 19.2,-28.37 37.58,-17.52 39.07,26.63 81.59,-20.82 117.49,12.43 43.31,-19.17 17.5,-72.44 17.5,-112.46 -34.99,-45.05 -95.03,-38.41 -147.51,-35.05 -23.38,-14.21 1.67,-36.66 7.43,-52.51 56.72,-80.01 165.13,-81.65 260.06,-70.01 48.41,12.49 101.77,33.34 125.05,85.07l0 0zm0 0l0 0 0 0z"/>
   </g>
   <g>
    <path class="fil5" d="M7618.46 6801.65l0 10.07c-28.32,-2.54 -74.12,-30.88 -100,4.96 -16.64,7.43 -19.14,-11.74 -17.46,-22.52 -0.57,-1.87 -0.87,-3.82 -0.87,-5.78 0,-9.38 6.68,-17.46 15.9,-19.21 39.1,-9.18 83.29,2.46 102.43,32.48l0 0zm297.61 -12.52c-0.79,10.06 1.68,21.7 -9.99,27.55 -31.7,-12.49 -75.9,-30.02 -107.56,-4.96 -18.38,-39.2 32.55,-30.88 50.01,-42.52 25.88,-0.92 55.9,-1.68 67.54,19.93l0 0zm0 0l0 0 0 0z"/>
   </g>
   <g>
    <path class="fil7" d="M7756 6949.2c-14.96,31.66 -63.33,11.67 -90.03,17.46 -9.07,-3.36 -3.35,-13.29 -5,-19.96 26.7,-18.38 74.22,-20.82 95.03,2.5l0 0zm39.99 70.07c-19.9,29.99 -49.95,67.44 -89.94,65.04 -45.08,3.32 -55.04,-33.38 -87.59,-55.04l-2.44 -15.1c60.05,9.21 125.88,-2.4 179.97,5.1z"/>
   </g>
   <g>
    <path class="fil5" d="M6238.03 7409.35c50.5,-0.26 98.97,1.68 151.12,0.46l-116.04 97.04c11.18,40.84 20.85,87.79 34.99,142.57l-115.06 -80.03c-48.36,22.1 -77.5,49.19 -127.48,75l39.99 -137.58c-37.98,-31.07 -80.43,-60.57 -116.34,-92.23 52.35,-1.35 98.18,0.76 148.79,-0.26 23.38,-43.74 33.8,-93.85 55.04,-137.58l44.99 132.61 0 0zm592.7 657.71c10.06,24.14 24.56,43.27 30.75,79.51 -26.64,16.77 -60.31,30.51 -90.76,45.54 -7.43,-55.04 -55.83,-108.41 -109.99,-122.62 -44.98,-11.18 -94.18,10.1 -127.48,50.08 -27.56,32.42 -35.91,79.18 -27.56,120.02 21.7,56.59 81.71,99.34 142.54,99.34l17.5 0.53c-12.52,31.08 -27.72,61.47 -44.95,90.21 -100.91,-3.42 -202.59,-62.61 -240.14,-160.17 -32.49,-79.11 -18.28,-181.67 32.55,-247.57 61.69,-78.29 160.07,-99.99 255.1,-79.97 64.06,17.56 124.1,65.87 162.44,125.09l0 0.01zm1943.04 -52.48l6.32 6.18 -150.05 139.69 50.02 60.37c42.48,-33.34 88.39,-68.79 133.8,-111.24 23.34,19.6 42.15,42.45 64.18,68.39 -44.95,42.85 -91.71,72.05 -130.84,112.92 16.68,20.88 29.53,44.56 54.95,69.61l161.78 -133.4 69.12 71.29c-91.68,87.07 -191.67,176.74 -286.7,246.29l-282.62 -365.13c90.06,-75.07 165.89,-143.4 245.1,-222.61 24.2,15.91 41.73,36.69 64.94,57.64l0 0zm-1590.41 307.58c50.83,65.01 51.66,165.83 19.96,240.01 -35.35,75.46 -103.32,123.44 -177.53,140.08 -89.93,14.13 -175,-14.97 -240.04,-77.44 -57.48,-63.4 -89.18,-154.25 -60.04,-242.57 25.84,-95.89 119.19,-165.9 215.11,-177.57 99.14,-5.88 190.85,39.95 242.54,117.49l0 0zm0 0l0 0 0 0z"/>
   </g>
   <g>
    <path class="fil4" d="M7078.37 8382.2c28.24,65.83 -4.25,130.84 -50.08,177.5 -29.14,23.31 -67.31,38.01 -105.62,23.84 -24.14,-11.67 -53.96,-33.01 -60.64,-58.89 -18.38,-66.65 12.1,-129.16 58.73,-175 28.35,-23.38 69.22,-36.66 104.99,-20.03 21.71,6.65 45.87,30.88 52.62,52.58l0 0zm0 0l0 0 0 0z"/>
   </g>
   <g>
    <path class="fil5" d="M8073.68 8487.99c-70.14,10.09 -137.12,18.44 -203.9,29.29 6.74,32.88 3.74,54.92 8.77,79.97 62.55,-1.21 117.16,-12.33 175.53,-19.86l17.07 106.93c-59.16,10.95 -119.46,19.95 -179.21,25.95 1.68,48.31 8.09,107.46 7.33,160.83 -49.16,7.53 -102.23,12.92 -153.1,9.57l-29.99 -455.91 -0.39 -9.57c111.75,-10.28 224.77,-25.6 335.22,-42.84 4.64,34.2 15.07,73.69 22.56,115.84l0.11 -0.2zm382.45 -204.96l4.21 7.83 -183.12 91.84 31.01 71.98c55.86,-21.31 104.1,-41.17 159.61,-69.22 16.93,25.42 28.54,52.61 42.48,83.62 -50.34,26.83 -102.46,47.64 -157.34,71.75 10.19,24.66 15.32,42.65 33.24,82.2l192.72 -82.66 46.4 87.92c-112.46,57.81 -233.59,115.75 -344.41,155.86l-168.78 -429.7c107.49,-46.76 199.53,-91.12 297.71,-144.81 18.85,21.96 29.8,46.89 46.27,73.39l0 0zm-808.77 256.78c-69.74,-11.67 -136.3,-24.14 -203.08,-34.17 -3.72,33.41 -13.15,53.57 -15.95,78.85 59.95,17.86 115.32,23.91 173.19,34.5l-16.28 107.19c-59.99,-7.46 -119.59,-17.57 -178.64,-29.88 -13.09,46.5 -24.86,104.87 -41.79,155.5 -49.19,-7.82 -101.44,-18.87 -148.86,-37.58l110.02 -443.38 2.6 -9.18c110.88,23.97 224.46,44.89 332.61,61.06 -6.06,33.97 -8.16,74.88 -13.75,117.2l-0.07 -0.11zm1620.63 -1129.77c50.41,-0.2 95.46,1.15 151.03,0.53l-115.94 97.03c11.28,40.78 20.84,87.73 34.92,142.58l-114.96 -80.1c-48.47,22.03 -77.57,49.19 -127.58,75l40.02 -137.51c-37.95,-31.01 -80.5,-60.63 -116.21,-92.3 52.22,-1.35 98.09,0.76 148.66,-0.26 20.42,-45.55 35.02,-89.28 55.11,-137.58l44.95 132.61 0 0zm0 0l0 0 0 0z"/>
   </g>
   <path class="fil7" d="M9018.95 8861.74c91.94,0 170.76,71.49 170.76,168.49 0,97.87 -78.77,169.31 -170.76,169.31 -92.87,0 -171.64,-71.43 -171.64,-169.31 0,-97 78.77,-168.49 171.64,-168.49zm0 27.33c-78.3,0 -138.84,60.58 -138.84,141.16 0,82.38 60.58,142.04 138.84,142.04 77.42,0 137.96,-59.61 137.96,-142.04 -0.05,-80.58 -60.54,-141.16 -137.96,-141.16zm-36 239.03l-30.01 0 0 -194.87 74.64 0c46.43,0 69.21,17.3 69.21,55.52 0,35.07 -21.9,50.1 -51.03,53.72l55.53 85.63 -32.75 0 -51.91 -84.7 -33.72 0 0 84.7 0.04 0zm0 -109.24l35.54 0c36.41,0 48.24,-10.53 48.24,-31.92 0,-18.64 -9.09,-29.13 -43.24,-29.13l-40.54 0 0 61.05 0 0z"/>
  </g>
 </g>
</svg>
