<?xml version="1.0" encoding="UTF-8"?>
<!DOCTYPE svg PUBLIC "-//W3C//DTD SVG 1.1//EN" "http://www.w3.org/Graphics/SVG/1.1/DTD/svg11.dtd">
<!-- Creator: CorelDRAW -->
<svg xmlns="http://www.w3.org/2000/svg" xml:space="preserve" width="152.4mm" height="152.4mm" version="1.1" style="shape-rendering:geometricPrecision; text-rendering:geometricPrecision; image-rendering:optimizeQuality; fill-rule:evenodd; clip-rule:evenodd"
viewBox="0 0 15240 15240"
 xmlns:xlink="http://www.w3.org/1999/xlink"
 xmlns:xodm="http://www.corel.com/coreldraw/odm/2003">
 <defs>
  <style type="text/css">
   <![CDATA[
    .fil0 {fill:none}
    .fil2 {fill:#754E2A}
    .fil1 {fill:#85D4E6}
   ]]>
  </style>
 </defs>
 <g id="Capa_x0020_1">
  <metadata id="CorelCorpID_0Corel-Layer"/>
  <g id="_2981816888976">
   <rect class="fil0" x="-0" y="-0" width="15240" height="15240"/>
   <ellipse id="contour" class="fil1" cx="7620" cy="7620" rx="7200.69" ry="7200.73"/>
   <path id="contour_43" class="fil2" d="M7620.01 364.25c4007.22,0 7255.71,3248.52 7255.71,7255.75 0,4007.22 -3248.49,7255.74 -7255.71,7255.74 -4007.22,0 -7255.7,-3248.52 -7255.7,-7255.74 0,-4007.23 3248.48,-7255.75 7255.7,-7255.75zm-3672.34 3837.45l964.23 0 0 -544.09c0,-121.6 99.49,-221.09 221.09,-221.09l0.01 0c121.6,0 221.09,99.49 221.09,221.09l0 544.09 2059.69 0 0 -544.09c0,-121.6 99.49,-221.09 221.09,-221.09 0,0 0,0 0.01,0 121.6,0 221.09,99.49 221.09,221.09l0 544.09 2059.68 0 0 -544.09c0,-121.6 99.49,-221.09 221.09,-221.09l0.01 0c121.6,0 221.09,99.49 221.09,221.09l0 544.09 909.57 0c419.1,0 762,342.9 762,762l0 5544.05c0,419.1 -342.9,762 -762,762l-7319.74 0c-419.1,0 -762,-342.9 -762,-762l0 -5544.05c0,-419.1 342.9,-762 762,-762zm4988.87 3013.15c-24.01,34.68 -46.35,61.69 -67.02,81.03 -20.68,19.34 -48.35,29.01 -83.03,29.01 -36.01,0 -65.02,-10.67 -87.02,-32.01 -22.01,-21.34 -33.01,-44.68 -33.01,-70.02 0,-13.34 2.33,-28.01 7,-44.02 4.67,-16 20.34,-42.01 47.01,-78.02l242.07 -346.1 -214.06 -288.09c-2.67,-4 -7.33,-10.34 -14,-19.01 -6.67,-8.67 -13.01,-18.67 -19.01,-30 -6,-11.34 -11.34,-23.35 -16,-36.02 -4.67,-12.67 -7.01,-24.34 -7.01,-35.01 0,-30.67 11.01,-56.01 33.01,-76.02 22.01,-20 51.69,-30.01 89.03,-30.01 34.68,0 62.35,10.67 83.03,32.01 20.67,21.34 42.34,47.35 65.01,78.03l170.06 236.07 170.05 -236.07c25.34,-34.68 48.34,-61.69 69.02,-81.03 20.67,-19.34 48.35,-29.01 83.02,-29.01 36.01,0 65.02,10.34 87.03,31.01 22.01,20.67 33.01,43.68 33.01,69.02 0,13.34 -2.67,28.01 -8,44.02 -5.34,16 -22.01,43.34 -50.02,82.02l-214.06 288.09 240.07 346.1c14.67,20.01 26.01,36.68 34.01,50.02 8,13.33 13.67,24.67 17,34.01 3.34,9.33 5.34,16.67 6.01,22 0.66,5.34 1,10 1,14.01 0,33.34 -12.67,59.01 -38.02,77.02 -25.34,18 -50.68,27.01 -76.02,27.01 -12,0 -23.67,-1 -35.01,-3 -11.34,-2 -23.01,-6.67 -35.01,-14.01 -12,-7.33 -25.34,-18.34 -40.01,-33.01 -14.67,-14.67 -30.68,-34.67 -48.02,-60.02l-196.05 -282.08 -196.06 282.08zm-1523.7 0c-24.01,34.68 -46.35,61.69 -67.02,81.03 -20.68,19.34 -48.35,29.01 -83.03,29.01 -36.01,0 -65.02,-10.67 -87.02,-32.01 -22.01,-21.34 -33.01,-44.68 -33.01,-70.02 0,-13.34 2.33,-28.01 7,-44.02 4.67,-16 20.34,-42.01 47.01,-78.02l242.07 -346.1 -214.06 -288.09c-2.67,-4 -7.33,-10.34 -14,-19.01 -6.67,-8.67 -13.01,-18.67 -19.01,-30 -6,-11.34 -11.34,-23.35 -16,-36.02 -4.67,-12.67 -7.01,-24.34 -7.01,-35.01 0,-30.67 11.01,-56.01 33.01,-76.02 22.01,-20 51.69,-30.01 89.03,-30.01 34.68,0 62.35,10.67 83.03,32.01 20.67,21.34 42.34,47.35 65.01,78.03l170.06 236.07 170.05 -236.07c25.34,-34.68 48.34,-61.69 69.02,-81.03 20.67,-19.34 48.35,-29.01 83.02,-29.01 36.01,0 65.02,10.34 87.03,31.01 22.01,20.67 33.01,43.68 33.01,69.02 0,13.34 -2.67,28.01 -8,44.02 -5.34,16 -22.01,43.34 -50.02,82.02l-214.06 288.09 240.07 346.1c14.67,20.01 26.01,36.68 34.01,50.02 8,13.33 13.67,24.67 17,34.01 3.34,9.33 5.34,16.67 6.01,22 0.66,5.34 1,10 1,14.01 0,33.34 -12.67,59.01 -38.02,77.02 -25.34,18 -50.68,27.01 -76.02,27.01 -12,0 -23.67,-1 -35.01,-3 -11.34,-2 -23.01,-6.67 -35.01,-14.01 -12,-7.33 -25.34,-18.34 -40.01,-33.01 -14.67,-14.67 -30.68,-34.67 -48.02,-60.02l-196.05 -282.08 -196.06 282.08zm-1505.17 0c-24.01,34.68 -46.35,61.69 -67.02,81.03 -20.68,19.34 -48.35,29.01 -83.03,29.01 -36.01,0 -65.02,-10.67 -87.02,-32.01 -22.01,-21.34 -33.01,-44.68 -33.01,-70.02 0,-13.34 2.33,-28.01 7,-44.02 4.67,-16 20.34,-42.01 47.01,-78.02l242.07 -346.1 -214.06 -288.09c-2.67,-4 -7.33,-10.34 -14,-19.01 -6.67,-8.67 -13.01,-18.67 -19.01,-30 -6,-11.34 -11.34,-23.35 -16,-36.02 -4.67,-12.67 -7.01,-24.34 -7.01,-35.01 0,-30.67 11.01,-56.01 33.01,-76.02 22.01,-20 51.69,-30.01 89.03,-30.01 34.68,0 62.35,10.67 83.03,32.01 20.67,21.34 42.34,47.35 65.01,78.03l170.06 236.07 170.05 -236.07c25.34,-34.68 48.34,-61.69 69.02,-81.03 20.67,-19.34 48.35,-29.01 83.02,-29.01 36.01,0 65.02,10.34 87.03,31.01 22.01,20.67 33.01,43.68 33.01,69.02 0,13.34 -2.67,28.01 -8,44.02 -5.34,16 -22.01,43.34 -50.02,82.02l-214.06 288.09 240.07 346.1c14.67,20.01 26.01,36.68 34.01,50.02 8,13.33 13.67,24.67 17,34.01 3.34,9.33 5.34,16.67 6.01,22 0.66,5.34 1,10 1,14.01 0,33.34 -12.67,59.01 -38.02,77.02 -25.34,18 -50.68,27.01 -76.02,27.01 -12,0 -23.67,-1 -35.01,-3 -11.34,-2 -23.01,-6.67 -35.01,-14.01 -12,-7.33 -25.34,-18.34 -40.01,-33.01 -14.67,-14.67 -30.68,-34.67 -48.02,-60.02l-196.05 -282.08 -196.06 282.08zm-1546.96 0c-24.01,34.68 -46.35,61.69 -67.02,81.03 -20.68,19.34 -48.35,29.01 -83.03,29.01 -36.01,0 -65.02,-10.67 -87.02,-32.01 -22.01,-21.34 -33.01,-44.68 -33.01,-70.02 0,-13.34 2.33,-28.01 7,-44.02 4.67,-16 20.34,-42.01 47.01,-78.02l242.07 -346.1 -214.06 -288.09c-2.67,-4 -7.33,-10.34 -14,-19.01 -6.67,-8.67 -13.01,-18.67 -19.01,-30 -6,-11.34 -11.34,-23.35 -16,-36.02 -4.67,-12.67 -7.01,-24.34 -7.01,-35.01 0,-30.67 11.01,-56.01 33.01,-76.02 22.01,-20 51.69,-30.01 89.03,-30.01 34.68,0 62.35,10.67 83.03,32.01 20.67,21.34 42.34,47.35 65.01,78.03l170.06 236.07 170.05 -236.07c25.34,-34.68 48.34,-61.69 69.02,-81.03 20.67,-19.34 48.35,-29.01 83.02,-29.01 36.01,0 65.02,10.34 87.03,31.01 22.01,20.67 33.01,43.68 33.01,69.02 0,13.34 -2.67,28.01 -8,44.02 -5.34,16 -22.01,43.34 -50.02,82.02l-214.06 288.09 240.07 346.1c14.67,20.01 26.01,36.68 34.01,50.02 8,13.33 13.67,24.67 17,34.01 3.34,9.33 5.34,16.67 6.01,22 0.66,5.34 1,10 1,14.01 0,33.34 -12.67,59.01 -38.02,77.02 -25.34,18 -50.68,27.01 -76.02,27.01 -12,0 -23.67,-1 -35.01,-3 -11.34,-2 -23.01,-6.67 -35.01,-14.01 -12,-7.33 -25.34,-18.34 -40.01,-33.01 -14.67,-14.67 -30.68,-34.67 -48.02,-60.02l-196.05 -282.08 -196.06 282.08zm5997.13 -2528.91l0 476.14c0,121.6 -99.49,221.09 -221.09,221.09l-0.01 0c-121.6,0 -221.09,-99.49 -221.09,-221.09l0 -476.13c-176.72,83.11 -299.08,262.73 -299.08,470.95 0,287.29 232.89,520.18 520.18,520.18 287.29,0 520.18,-232.89 520.18,-520.18 0,-208.23 -122.36,-387.86 -299.09,-470.96zm-2501.87 0l0 476.14c0,121.6 -99.49,221.09 -221.09,221.09 -0.01,0 -0.01,0 -0.01,0 -121.6,0 -221.09,-99.49 -221.09,-221.09l0 -476.13c-176.72,83.11 -299.08,262.73 -299.08,470.95 0,287.29 232.89,520.18 520.18,520.18 287.29,0 520.18,-232.89 520.18,-520.18 0,-208.23 -122.36,-387.86 -299.09,-470.96zm-2501.88 0l0 476.14c0,121.6 -99.49,221.09 -221.09,221.09l-0.01 0c-121.6,0 -221.09,-99.49 -221.09,-221.09l0 -476.13c-176.72,83.11 -299.08,262.73 -299.08,470.95 0,287.29 232.89,520.18 520.18,520.18 287.29,0 520.18,-232.89 520.18,-520.18 0,-208.23 -122.36,-387.86 -299.09,-470.96zm-1407.65 1281.68l1267.67 0 0 1508.66 -1267.67 0 0 -1508.66zm0 1733.89l1267.67 0 0 1299.8 -1267.67 0 0 -1299.8zm4561.79 0c422.56,0 845.12,0 1267.67,0 0,433.27 0,866.54 0,1299.8 -422.55,0 -845.11,0 -1267.67,0 0,-433.26 0,-866.53 0,-1299.8zm-1520.59 0c422.55,0 845.11,0 1267.67,0 0,433.27 0,866.54 0,1299.8 -422.56,0 -845.12,0 -1267.67,0 0,-433.26 0,-866.53 0,-1299.8zm-1520.6 0c422.56,0 845.12,0 1267.67,0 0,433.27 0,866.54 0,1299.8 -422.55,0 -845.11,0 -1267.67,0 0,-433.26 0,-866.53 0,-1299.8zm4561.79 0l1267.67 0 0 1299.8 -1267.67 0 0 -1299.8zm-6082.39 1531.77l1267.67 0 0 1275.52 -1054.57 0c-117.37,0 -213.1,-95.73 -213.1,-213.1l0 -1062.42zm4561.79 0c422.56,0 845.12,0 1267.67,0 0,425.18 0,850.35 0,1275.52 -422.55,0 -845.11,0 -1267.67,0 0,-425.17 0,-850.34 0,-1275.52zm-1520.59 0c422.55,0 845.11,0 1267.67,0 0,425.18 0,850.35 0,1275.52 -422.56,0 -845.12,0 -1267.67,0 0,-425.17 0,-850.34 0,-1275.52zm-1520.6 0c422.56,0 845.12,0 1267.67,0 0,425.18 0,850.35 0,1275.52 -422.55,0 -845.11,0 -1267.67,0 0,-425.17 0,-850.34 0,-1275.52zm4561.79 0l1267.67 0 0 1062.42c0,117.37 -95.73,213.1 -213.1,213.1l-1054.57 0 0 -1275.52zm-1520.6 -3265.66c422.56,0 845.12,0 1267.67,0 0,502.89 0,1005.78 0,1508.66 -422.55,0 -845.11,0 -1267.67,0 0,-502.88 0,-1005.77 0,-1508.66zm-1520.59 0c422.55,0 845.11,0 1267.67,0 0,502.89 0,1005.78 0,1508.66 -422.56,0 -845.12,0 -1267.67,0 0,-502.88 0,-1005.77 0,-1508.66zm-1520.6 0c422.56,0 845.12,0 1267.67,0 0,502.89 0,1005.78 0,1508.66 -422.55,0 -845.11,0 -1267.67,0 0,-502.88 0,-1005.77 0,-1508.66zm4561.79 0l1267.67 0 0 1508.66 -1267.67 0 0 -1508.66zm-2408.88 -4617.57c3462.82,0 6270.01,2807.18 6270.01,6270 0,3462.82 -2807.19,6270.01 -6270.01,6270.01 -3462.82,0 -6270,-2807.19 -6270,-6270.01 0,-3462.82 2807.18,-6270 6270,-6270z"/>
  </g>
 </g>
</svg>
