<?xml version="1.0" encoding="UTF-8"?>
<!DOCTYPE svg PUBLIC "-//W3C//DTD SVG 1.1//EN" "http://www.w3.org/Graphics/SVG/1.1/DTD/svg11.dtd">
<!-- Creator: CorelDRAW -->
<svg xmlns="http://www.w3.org/2000/svg" xml:space="preserve" width="152.4mm" height="152.4mm" version="1.1" style="shape-rendering:geometricPrecision; text-rendering:geometricPrecision; image-rendering:optimizeQuality; fill-rule:evenodd; clip-rule:evenodd"
viewBox="0 0 15240 15240"
 xmlns:xlink="http://www.w3.org/1999/xlink"
 xmlns:xodm="http://www.corel.com/coreldraw/odm/2003">
 <defs>
  <style type="text/css">
   <![CDATA[
    .fil0 {fill:none}
    .fil2 {fill:#33BFB9}
    .fil1 {fill:#FFF571}
   ]]>
  </style>
 </defs>
 <g id="Capa_x0020_1">
  <metadata id="CorelCorpID_0Corel-Layer"/>
  <g id="_2981915246560">
   <rect class="fil0" x="-0" y="-0" width="15240" height="15240"/>
   <ellipse id="contour" class="fil1" cx="7620" cy="7620" rx="7200.69" ry="7200.73"/>
   <path id="contour_61" class="fil2" d="M7620.01 364.25c4007.22,0 7255.71,3248.52 7255.71,7255.75 0,4007.22 -3248.49,7255.74 -7255.71,7255.74 -4007.22,0 -7255.7,-3248.52 -7255.7,-7255.74 0,-4007.23 3248.48,-7255.75 7255.7,-7255.75zm-0.06 985.8c3462.82,0 6270.01,2807.18 6270.01,6270 0,3462.82 -2807.19,6270.01 -6270.01,6270.01 -3462.82,0 -6270,-2807.19 -6270,-6270.01 0,-3462.82 2807.18,-6270 6270,-6270z"/>
   <path class="fil2" d="M6900.9 9336.03l0 2518.22c0,111.76 -91.44,203.2 -203.2,203.2l-1925.54 0c-111.76,0 -203.2,-91.44 -203.2,-203.2l0 -2513.7c-179.59,-68.97 -355.82,-155.07 -526.6,-259.07l0 -2443.05c0,-434.46 307.09,-800.62 714.92,-892.27 274.76,208.73 617.44,332.69 989.11,332.69 368.51,0 708.56,-121.81 982.12,-327.33 396.57,99.84 692.43,460.48 692.43,886.91l0 2443.05c-165.5,100.23 -339.69,185.3 -520.04,254.55zm-1154.51 -6290.08c771.08,0 1396.16,625.08 1396.16,1396.16 0,771.08 -625.08,1396.16 -1396.16,1396.16 -771.08,0 -1396.16,-625.08 -1396.16,-1396.16 0,-771.08 625.08,-1396.16 1396.16,-1396.16z"/>
   <path class="fil2" d="M10852.9 9336.03l0 2518.22c0,111.76 -91.44,203.2 -203.2,203.2l-1925.54 0c-111.76,0 -203.2,-91.44 -203.2,-203.2l0 -2513.7c-179.59,-68.97 -355.82,-155.07 -526.6,-259.07l0 -2443.05c0,-434.46 307.09,-800.62 714.92,-892.27 274.76,208.73 617.44,332.69 989.11,332.69 368.51,0 708.56,-121.81 982.12,-327.33 396.57,99.84 692.43,460.48 692.43,886.91l0 2443.05c-165.5,100.23 -339.69,185.3 -520.04,254.55zm-1154.51 -6290.08c771.08,0 1396.16,625.08 1396.16,1396.16 0,771.08 -625.08,1396.16 -1396.16,1396.16 -771.08,0 -1396.16,-625.08 -1396.16,-1396.16 0,-771.08 625.08,-1396.16 1396.16,-1396.16z"/>
  </g>
 </g>
</svg>
