<?xml version="1.0" encoding="UTF-8"?>
<!DOCTYPE svg PUBLIC "-//W3C//DTD SVG 1.1//EN" "http://www.w3.org/Graphics/SVG/1.1/DTD/svg11.dtd">
<!-- Creator: CorelDRAW -->
<svg xmlns="http://www.w3.org/2000/svg" xml:space="preserve" width="152.4mm" height="152.4mm" version="1.1" style="shape-rendering:geometricPrecision; text-rendering:geometricPrecision; image-rendering:optimizeQuality; fill-rule:evenodd; clip-rule:evenodd"
viewBox="0 0 4963.29 4963.29"
 xmlns:xlink="http://www.w3.org/1999/xlink"
 xmlns:xodm="http://www.corel.com/coreldraw/odm/2003">
 <defs>
  <style type="text/css">
   <![CDATA[
    .fil0 {fill:none}
    .fil2 {fill:#00ADEF}
    .fil1 {fill:#E2E3E5}
   ]]>
  </style>
 </defs>
 <g id="Capa_x0020_1">
  <metadata id="CorelCorpID_0Corel-Layer"/>
  <g id="_1555074307488">
   <rect class="fil0" x="-0" y="-0" width="4963.29" height="4963.29"/>
   <path class="fil1" d="M1717.12 171.95c198.73,-28.93 415.27,-46.12 635.26,-51.45l0 -0.8c42.97,-0.77 86.02,-1.09 129.05,-0.96l0.45 0c43.03,-0.13 86.08,0.19 129.05,0.96l0 0.8c219.98,5.33 436.52,22.53 635.26,51.45 385.47,56.11 671.25,150.1 987.23,317.17 123.73,65.42 206.05,167.46 243.79,302.24 180.39,644.17 195.87,1476.81 -117.22,2208.55 -337.45,788.69 -967.28,1376.45 -1722.19,1764.51l-26.86 13.81 0 0.06 -6.28 3.17 -121.85 62.64 -1.13 0.47 -1.14 -0.47 -121.85 -62.64 -6.28 -3.17 0 -0.06 -26.86 -13.81c-754.91,-388.06 -1384.73,-975.83 -1722.19,-1764.51 -313.1,-731.75 -297.62,-1564.39 -117.23,-2208.55 37.75,-134.78 120.06,-236.82 243.79,-302.24 315.98,-167.07 601.76,-261.06 987.23,-317.17z"/>
   <path class="fil2" d="M2676.99 3637.27c118.8,-9.45 205.62,-29.55 247.58,-57.31 10.66,-7.05 12.15,-9.52 12.15,-20.11 0,-8.7 -2.11,-14.1 -7.53,-19.31 -4.14,-3.99 -6.86,-8.33 -6.04,-9.66 0.82,-1.33 13.96,-2.42 29.2,-2.42 37.31,0 121.59,-8.47 153.89,-15.47 6.84,-1.48 20.84,-4.4 31.1,-6.48 107.61,-21.87 226.46,-71.65 321.29,-134.54 59.76,-39.64 91.09,-64.63 137.08,-109.33 97.18,-94.44 176.67,-209.76 227.38,-329.85 3.33,-7.9 13.58,-36.68 18.81,-52.81 2.2,-6.81 4.01,-21.8 4.01,-33.32 0,-17.92 -1.21,-22.53 -8.32,-31.86 -10.16,-13.32 -26.86,-18.74 -45.14,-14.63 -6.89,1.55 -29.73,13.27 -50.75,26.04 -131.02,79.61 -173.23,96.49 -134.29,53.7 33.74,-37.08 126.12,-165.7 157.6,-219.44 17.22,-29.38 57.57,-109.92 68.56,-136.81 3.12,-7.65 6.84,-16.71 8.25,-20.13 31.21,-75.67 59.78,-187.77 70.01,-274.67 12.96,-110.07 -3.68,-210.07 -42.3,-254.04 -8.53,-9.72 -11.36,-10.98 -24.68,-10.98 -8.28,0 -15.93,1.42 -17,3.16 -4.88,7.88 -7.74,-2.65 -7.74,-28.41 0,-15.4 -1.36,-40.87 -3.03,-56.59 -1.66,-15.73 -4.56,-43.29 -6.45,-61.25 -5.3,-50.56 -17.36,-117.89 -31.11,-173.57 -12.43,-50.34 -39.8,-137.25 -52.61,-167.05 -3.68,-8.55 -9.02,-21.15 -11.86,-28 -11.41,-27.44 -64.05,-129.68 -84.07,-163.3 -76.22,-128.01 -199.7,-270.28 -324.27,-373.62 -41.41,-34.35 -87.94,-69.67 -121.43,-92.17 -75.62,-50.8 -181.37,-102.01 -284.34,-137.68 -70.45,-24.4 -202.63,-61.01 -210.65,-58.33 -2.04,0.68 7.43,5.83 21.04,11.45 39.78,16.41 72.62,31.01 135.18,60.12 71.57,33.3 171.04,86.2 204.3,108.65 7.15,4.83 13.91,8.78 15.01,8.78 1.11,0 26.05,15.95 55.43,35.45 93.07,61.77 162.78,121.34 222.39,190.07l29.68 34.22 -17.57 0.92c-14.59,0.77 -18.64,2.3 -23.9,8.98 -3.47,4.42 -6.29,10.31 -6.26,13.07 0.15,11.15 13.68,32.35 51.86,81.23 98.47,126.09 133.74,188.1 167.18,293.95 46.42,146.95 51.81,341.12 14.17,510.16 -3.35,15.04 -12.24,36.97 -14.19,35.02 -0.77,-0.78 0.15,-22.79 2.07,-48.93 5.21,-71.44 2.08,-202.98 -6.07,-255.18 -15.72,-100.62 -39.78,-181.04 -81.45,-272.17 -26.12,-57.16 -32.24,-69.61 -50.08,-102.05 -97.82,-177.9 -251.93,-334.06 -430.36,-436.12 -38.54,-22.04 -111.31,-57.6 -142.3,-69.53 -3.85,-1.49 -10.51,-4.22 -14.78,-6.08 -18.36,-8.01 -103.48,-35.65 -139.59,-45.34 -99.82,-26.79 -179.52,-39.51 -303.76,-48.49 -163.9,-11.84 -373.59,12.05 -548.9,62.54 -33.42,9.63 -83.73,25.86 -94.87,30.62 -3.42,1.45 -11.82,4.73 -18.67,7.28 -53.1,19.73 -166,77.38 -194.04,99.08 -9.88,7.64 -6.93,7.24 12.77,-1.76 92.12,-42.07 234.05,-86.81 339.92,-107.15 8.55,-1.65 23.25,-4.48 32.66,-6.3 17.39,-3.36 22.15,-4.13 60.65,-9.83 165.47,-24.52 316.69,-23.35 475.91,3.7 67.2,11.41 161.41,36.14 218.27,57.3 61.47,22.87 152.11,63.96 168.31,76.31 9.16,6.98 3.22,11.24 -8.18,5.86 -4.54,-2.14 -11.41,-5.11 -15.25,-6.59 -3.85,-1.49 -10.15,-4.01 -13.99,-5.62 -67.01,-27.98 -213.8,-65.19 -319.85,-81.07 -105.72,-15.84 -233.77,-22.79 -338.8,-18.41 -102.23,4.27 -102.07,4.23 -31.11,6.92 170.1,6.44 264.85,19.2 352.62,47.49 23.02,7.42 40.96,16.27 38.32,18.92 -0.64,0.64 -22.74,-1.23 -49.09,-4.17 -60.17,-6.71 -216.4,-7.68 -260.97,-1.62 -16.25,2.21 -40.05,5.44 -52.88,7.15 -65.2,8.74 -123.38,20.81 -199.95,41.49 -58.71,15.85 -148.49,48.89 -226.19,83.23 -75.97,33.58 -200.34,106.98 -264.39,156.03 -116.44,89.18 -212.22,184.2 -287.39,285.08 -80.36,107.86 -144.26,235.18 -174.84,348.38 -64.96,240.48 -76.29,399.67 -39.87,560.41 18.94,83.6 62.56,174.48 89.99,187.49 15.73,7.46 31.74,2.92 43.34,-12.29 8.88,-11.64 30.45,-56.37 41.99,-87.06 3.86,-10.26 8.15,-21.46 9.52,-24.88 1.38,-3.42 8.37,-21.62 15.53,-40.44 41.04,-107.99 69.25,-172.71 76.22,-174.81 2.05,-0.62 2.74,46.39 2.01,138.26 -1.06,133.72 0.98,189.01 9.24,249.62 5.21,38.2 15.47,100.19 18.8,113.54 1.71,6.84 4.48,18.05 6.18,24.89 13.19,53.36 28.25,99.1 50.6,153.67 16.55,40.41 54.51,116.81 67.65,136.17 4.85,7.16 8.82,13.82 8.82,14.81 0,2.62 18.95,29.37 49.47,69.84 14.7,19.48 29.54,39.42 32.96,44.3 3.42,4.89 32.81,35.18 65.32,67.33 81.12,80.25 158.69,138.12 258.17,192.65 31.71,17.39 132.68,66.21 136.91,66.21 0.86,0 7.51,2.63 14.76,5.86 7.25,3.23 21.23,8.83 31.07,12.44 9.84,3.62 25.24,9.32 34.22,12.68 24.44,9.12 94.21,29.95 135.44,40.42 120.98,30.72 209.39,45.38 319.47,52.95 27.37,1.89 51.17,3.96 52.88,4.61 6.85,2.62 130.06,1.53 167.97,-1.49zm-1535.03 -1825.41c0,-6.63 25.12,-51.42 47.22,-84.19 93.92,-139.3 203.53,-235.17 341.32,-298.52 27.76,-12.76 71.69,-29.31 92.04,-34.67 45.98,-12.11 71.71,-18.1 90.21,-21.01 11.98,-1.88 31.04,-4.89 42.35,-6.69 58.39,-9.29 160.51,3.86 205,26.4 15.35,7.77 24.82,20.17 24.82,32.48 0,19.12 -11.02,25.69 -54.69,32.6 -38.87,6.15 -94.52,23.36 -128.83,39.83 -88.98,42.73 -169.67,121.64 -211.92,207.24 -8.74,17.7 -12.17,22.24 -13.75,18.14 -1.88,-4.9 -0.59,-10.08 7.89,-31.8 10.13,-25.94 31.41,-66.09 47.61,-89.79 35.09,-51.36 104.04,-116.38 145.96,-137.62 8.19,-4.15 14.88,-8.41 14.88,-9.48 0,-5.66 -80.73,9.14 -104.89,19.23 -16.43,6.87 -21.71,3.93 -13.53,-7.56 15.63,-21.94 0.65,-25.22 -51.11,-11.19 -84.89,23.02 -166.66,63.2 -251.59,123.64 -71.68,51.01 -137.57,115.62 -194.18,190.44 -19.14,25.3 -34.81,44.43 -34.81,42.51zm924.87 -108.27l224.54 0 283.82 0 165.88 4.77c156.78,4.51 285.18,123.55 285.18,280.4l0 0c0,67.06 -28.88,127.7 -74.81,170.1 -18.98,17.52 -78.61,54.47 -104.6,60.31 0,0 -0.06,4.78 -0.06,4.78 29.6,6.17 86.61,34.15 110.73,50.67 82.07,56.17 136.19,150.54 136.19,256.93l0 7.97c0,173.24 -141.74,314.98 -314.98,314.98l-108.07 0 -603.8 0 -18.73 0c-63.2,0 -114.9,-51.7 -114.9,-114.9l0 -18.72 0 -232.86 0 -650.81c0,-73.5 60.13,-133.63 133.63,-133.63z"/>
  </g>
 </g>
</svg>
