<?xml version="1.0" encoding="UTF-8"?>
<!DOCTYPE svg PUBLIC "-//W3C//DTD SVG 1.1//EN" "http://www.w3.org/Graphics/SVG/1.1/DTD/svg11.dtd">
<!-- Creator: CorelDRAW -->
<svg xmlns="http://www.w3.org/2000/svg" xml:space="preserve" width="152.4mm" height="152.4mm" version="1.1" style="shape-rendering:geometricPrecision; text-rendering:geometricPrecision; image-rendering:optimizeQuality; fill-rule:evenodd; clip-rule:evenodd"
viewBox="0 0 15240 15240"
 xmlns:xlink="http://www.w3.org/1999/xlink"
 xmlns:xodm="http://www.corel.com/coreldraw/odm/2003">
 <defs>
  <style type="text/css">
   <![CDATA[
    .str0 {stroke:red;stroke-width:10;stroke-linecap:round;stroke-linejoin:round;stroke-miterlimit:22.9256}
    .fil0 {fill:none}
    .fil3 {fill:#00ADEF}
    .fil2 {fill:#3393C4}
    .fil1 {fill:#E2E3E5}
   ]]>
  </style>
 </defs>
 <g id="Capa_x0020_1">
  <metadata id="CorelCorpID_0Corel-Layer"/>
  <g id="_1590521747680">
   <rect class="fil0" x="-0" y="-0" width="15240" height="15240"/>
   <path id="contour" class="fil1" d="M7620.01 364.25c4007.22,0 7255.71,3248.52 7255.71,7255.75 0,4007.22 -3248.49,7255.74 -7255.71,7255.74 -4007.22,0 -7255.7,-3248.52 -7255.7,-7255.74 0,-4007.23 3248.48,-7255.75 7255.7,-7255.75z"/>
   <path class="fil2 str0" d="M10349.08 4534.28c-284.34,-456.23 -823.51,-900.78 -1407.05,-1160.15 -289.78,-128.82 -630.05,-243.63 -916.56,-309.28 -197.51,-45.27 -223.76,-50.24 -497.57,-94.26 -70.98,-11.42 -222.74,-27.17 -503.09,-52.24 -214.9,-19.21 -845.87,-15.21 -1087.76,6.91 -352.71,32.24 -660.36,78.81 -903.47,136.77 -28.8,6.87 -78.9,18.3 -111.31,25.43 -129.7,28.51 -594.83,178.89 -771.47,249.42 -141.09,56.36 -353.72,157.56 -457.57,217.74 -31.45,18.23 -60.91,29.39 -65.46,24.78 -10.93,-11.03 52.53,-61.76 142.27,-113.73 39.6,-22.94 89.71,-52.2 111.31,-65.03 149.28,-88.56 616.6,-295.87 792.16,-351.41 18,-5.69 91.64,-29.16 163.67,-52.13 72,-23.01 148.62,-46.77 170.22,-52.83 21.6,-6.08 62.84,-17.64 91.64,-25.75 28.8,-8.09 73.02,-19.67 98.22,-25.73 25.2,-6.08 81.16,-20.06 124.37,-31.09 275.53,-70.23 489.35,-108.36 870.73,-155.26 185.8,-22.85 970.13,-22.45 1139.14,0.59 427.73,58.32 652.6,109.21 1034.38,234.17 467.23,152.9 907.46,385.37 1296.3,684.51 165.08,126.99 457.51,424.19 561.06,570.19 126.86,178.83 230.41,398.14 201.61,426.94 -8.15,8.18 -35.12,-23.33 -75.77,-88.56z"/>
   <path class="fil3" d="M8437.91 13878.01c500.09,-39.77 865.57,-124.37 1042.17,-241.24 44.87,-29.69 51.16,-40.09 51.16,-84.67 0,-36.62 -8.87,-59.34 -31.69,-81.3 -17.44,-16.79 -28.86,-35.08 -25.43,-40.64 3.47,-5.6 58.75,-10.18 122.9,-10.18 157.06,0 511.84,-35.64 647.82,-65.1 28.8,-6.22 87.71,-18.52 130.92,-27.3 452.99,-92.06 953.27,-301.59 1352.46,-566.36 251.55,-166.88 383.44,-272.07 577.03,-460.22 409.07,-397.55 743.69,-882.98 957.14,-1388.5 14.04,-33.25 57.18,-154.41 79.17,-222.29 9.26,-28.67 16.86,-91.77 16.86,-140.27 0,-75.44 -5.08,-94.85 -35.02,-134.13 -42.78,-56.09 -113.08,-78.87 -190.02,-61.59 -29,6.55 -125.16,55.87 -213.65,109.64 -551.54,335.14 -729.22,406.19 -565.29,226.05 142.04,-156.08 530.89,-697.53 663.44,-923.75 72.46,-123.68 242.35,-462.68 288.6,-575.89 13.15,-32.2 28.8,-70.33 34.72,-84.73 131.37,-318.51 251.65,-790.42 294.72,-1156.23 54.56,-463.36 -15.51,-884.28 -178.04,-1069.36 -35.91,-40.91 -47.82,-46.21 -103.88,-46.21 -34.86,0 -67.06,5.99 -71.58,13.32 -20.52,33.18 -32.6,-11.16 -32.6,-119.59 0,-64.84 -5.72,-172.02 -12.73,-238.2 -7,-66.21 -19.21,-182.23 -27.13,-257.83 -22.29,-212.83 -73.08,-496.26 -130.95,-730.63 -52.33,-211.91 -167.56,-577.75 -221.47,-703.17 -15.48,-36 -37.96,-89.05 -49.94,-117.85 -48.05,-115.5 -269.62,-545.87 -353.89,-687.42 -320.84,-538.84 -840.63,-1137.74 -1365,-1572.76 -174.31,-144.6 -370.16,-293.28 -511.15,-388 -318.32,-213.84 -763.45,-429.39 -1196.91,-579.55 -296.58,-102.73 -852.96,-256.82 -886.74,-245.53 -8.6,2.85 31.26,24.55 88.57,48.18 167.47,69.09 305.71,130.55 569.04,253.09 301.3,140.17 720.02,362.86 860,457.34 30.08,20.33 58.55,36.95 63.2,36.95 4.68,0 109.67,67.16 233.35,149.21 391.76,260.03 685.2,510.79 936.13,800.11l124.93 144.04 -73.97 3.89c-61.4,3.24 -78.48,9.69 -100.61,37.77 -14.63,18.62 -26.47,43.4 -26.34,55.02 0.65,46.96 57.6,136.18 218.29,341.94 414.51,530.76 562.96,791.8 703.73,1237.39 195.42,618.6 218.1,1435.92 59.63,2147.5 -14.11,63.3 -51.52,155.62 -59.73,147.41 -3.24,-3.27 0.65,-95.93 8.71,-205.96 21.92,-300.74 8.77,-854.44 -25.57,-1074.17 -66.17,-423.57 -167.47,-762.08 -342.86,-1145.72 -109.96,-240.62 -135.69,-293.02 -210.8,-429.56 -411.79,-748.86 -1060.49,-1406.24 -1811.61,-1835.86 -162.23,-92.79 -468.54,-242.45 -599.02,-292.69 -16.21,-6.25 -44.22,-17.77 -62.22,-25.6 -77.31,-33.71 -435.58,-150.05 -587.6,-190.87 -420.2,-112.78 -755.7,-166.32 -1278.67,-204.12 -689.94,-49.85 -1572.62,50.73 -2310.58,263.26 -140.7,40.55 -352.48,108.86 -399.35,128.89 -14.4,6.12 -49.75,19.93 -78.58,30.63 -223.54,83.07 -698.78,325.75 -816.83,417.09 -41.57,32.17 -29.16,30.47 53.74,-7.4 387.79,-177.09 985.22,-365.41 1430.88,-451.06 36,-6.94 97.85,-18.85 137.49,-26.51 73.21,-14.14 93.24,-17.38 255.31,-41.4 696.52,-103.22 1333.09,-98.28 2003.33,15.58 282.87,48.04 679.44,152.15 918.82,241.21 258.78,96.25 640.29,269.25 708.5,321.23 38.55,29.39 13.55,47.32 -34.43,24.67 -19.12,-9 -48.01,-21.5 -64.21,-27.72 -16.21,-6.25 -42.72,-16.89 -58.92,-23.66 -282.08,-117.79 -899.96,-274.43 -1346.4,-341.26 -445.04,-66.67 -984.05,-95.93 -1426.17,-77.5 -430.31,17.97 -429.66,17.8 -130.95,29.13 716.03,27.1 1114.89,80.8 1484.36,199.9 96.91,31.23 172.41,68.5 161.29,79.63 -2.72,2.72 -95.7,-5.17 -206.65,-17.54 -253.29,-28.25 -910.93,-32.34 -1098.56,-6.81 -68.4,9.33 -168.58,22.88 -222.58,30.11 -274.46,36.79 -519.34,87.61 -841.71,174.67 -247.13,66.74 -625.08,205.8 -952.13,350.36 -319.79,141.35 -843.34,450.34 -1112.96,656.82 -490.14,375.4 -893.35,775.37 -1209.77,1200.05 -338.28,454.04 -607.27,990 -735.99,1466.52 -273.45,1012.32 -321.13,1682.4 -167.83,2359.02 79.72,351.9 263.33,734.46 378.8,789.25 66.2,31.42 133.59,12.3 182.46,-51.75 37.37,-48.99 128.16,-237.28 176.73,-366.46 16.23,-43.2 34.3,-90.33 40.09,-104.73 5.83,-14.4 35.25,-91.01 65.36,-170.22 172.74,-454.56 291.54,-727.02 320.87,-735.86 8.64,-2.62 11.52,195.29 8.44,582.01 -4.48,562.89 4.12,795.62 38.91,1050.77 21.93,160.83 65.13,421.77 79.14,477.93 7.2,28.8 18.89,75.97 26.02,104.77 55.51,224.61 118.9,417.15 213,646.87 69.68,170.12 229.45,491.71 284.77,573.2 20.42,30.12 37.14,58.16 37.14,62.35 0,11.03 79.76,123.62 208.25,293.97 61.89,82.01 124.34,165.93 138.74,186.48 14.4,20.56 138.11,148.1 274.95,283.43 341.48,337.79 667.98,581.42 1086.77,810.97 133.5,73.19 558.51,278.72 576.32,278.72 3.63,0 31.61,11.09 62.15,24.68 30.5,13.58 89.38,37.14 130.78,52.36 41.4,15.25 106.23,39.24 144.04,53.38 102.89,38.39 396.6,126.07 570.12,170.12 509.25,129.34 881.41,191.04 1344.81,222.91 115.23,7.93 215.38,16.66 222.58,19.41 28.84,11.03 547.51,6.42 707.06,-6.28zm-6461.7 -7684.05c0,-27.91 105.74,-216.46 198.75,-354.41 395.36,-586.39 856.77,-989.93 1436.78,-1256.6 116.87,-53.71 301.78,-123.39 387.43,-145.94 193.56,-50.96 301.86,-76.19 379.72,-88.43 50.43,-7.92 130.65,-20.59 178.27,-28.18 245.79,-39.11 675.67,16.23 862.94,111.11 64.61,32.7 104.47,84.9 104.47,136.74 0,80.48 -46.41,108.14 -230.21,137.23 -163.61,25.89 -397.87,98.32 -542.3,167.67 -374.55,179.87 -714.23,512.03 -892.08,872.37 -36.79,74.52 -51.25,93.64 -57.9,76.36 -7.92,-20.62 -2.48,-42.45 33.22,-133.86 42.62,-109.18 132.23,-278.19 200.4,-377.98 147.7,-216.2 437.94,-489.88 614.44,-579.29 34.46,-17.48 62.64,-35.41 62.64,-39.9 0,-23.82 -339.82,38.46 -441.54,80.97 -69.18,28.9 -91.37,16.53 -56.94,-31.81 65.78,-92.36 2.75,-106.17 -215.13,-47.1 -357.36,96.91 -701.56,266.05 -1059.05,520.45 -301.76,214.73 -579.1,486.7 -817.39,801.65 -80.58,106.49 -146.52,187.04 -146.52,178.95zm3893.21 -455.77l945.2 0 1194.73 0 698.26 20.09c659.97,18.99 1200.44,520.11 1200.44,1180.35l0 0.01c0,282.27 -121.56,537.56 -314.91,716.04 -79.9,73.76 -330.9,229.3 -440.32,253.88 0,0 -0.26,20.12 -0.26,20.12 124.6,25.97 364.58,143.77 466.12,213.27 345.47,236.45 573.28,633.71 573.28,1081.56l0 33.57c0,729.25 -596.65,1325.9 -1325.9,1325.9l-454.93 0 -2541.71 0 -78.82 0c-266.03,0 -483.68,-217.65 -483.68,-483.68l0 -78.82 0 -980.2 0 -2739.58c0,-309.38 253.13,-562.51 562.5,-562.51z"/>
  </g>
 </g>
</svg>
