<?xml version="1.0" encoding="UTF-8"?>
<!DOCTYPE svg PUBLIC "-//W3C//DTD SVG 1.1//EN" "http://www.w3.org/Graphics/SVG/1.1/DTD/svg11.dtd">
<!-- Creator: CorelDRAW -->
<svg xmlns="http://www.w3.org/2000/svg" xml:space="preserve" width="152.4mm" height="152.4mm" version="1.1" style="shape-rendering:geometricPrecision; text-rendering:geometricPrecision; image-rendering:optimizeQuality; fill-rule:evenodd; clip-rule:evenodd"
viewBox="0 0 15240 15240"
 xmlns:xlink="http://www.w3.org/1999/xlink"
 xmlns:xodm="http://www.corel.com/coreldraw/odm/2003">
 <defs>
  <style type="text/css">
   <![CDATA[
    .fil0 {fill:none}
    .fil3 {fill:#333399}
    .fil1 {fill:#33CCFF}
    .fil2 {fill:#FF9900}
    .fil4 {fill:white}
   ]]>
  </style>
 </defs>
 <g id="Capa_x0020_1">
  <metadata id="CorelCorpID_0Corel-Layer"/>
  <g id="_1590616330800">
   <rect class="fil0" x="-0" y="-0" width="15240" height="15240"/>
   <ellipse id="contour" class="fil1" cx="7620.01" cy="7620" rx="7200.69" ry="7200.73"/>
   <path id="contour_7" class="fil2" d="M7620.01 364.25c4007.22,0 7255.71,3248.52 7255.71,7255.75 0,4007.22 -3248.49,7255.74 -7255.71,7255.74 -4007.22,0 -7255.7,-3248.52 -7255.7,-7255.74 0,-4007.23 3248.48,-7255.75 7255.7,-7255.75zm-0.06 985.8c3462.82,0 6270.01,2807.18 6270.01,6270 0,3462.82 -2807.19,6270.01 -6270.01,6270.01 -3462.82,0 -6270,-2807.19 -6270,-6270.01 0,-3462.82 2807.18,-6270 6270,-6270z"/>
   <g>
    <path class="fil3" d="M7548.36 8631.59c-435.96,648.86 -865.92,1294.93 -1343.24,1915.06 -227.81,295.96 -511.03,844.98 -897.94,892.9 -201.93,25.01 -398.17,-58.46 -519.58,-165.46 -149.38,-131.64 -224.01,-337.43 -190.09,-553.56 35.15,-224.01 226.1,-412.09 372.92,-564.61l2075.17 -2134.43 502.76 610.1zm-1287.86 -2021.94l2959.49 3734.59c203.87,315.84 411.24,607.18 624.76,855.42 141.94,164.98 185.02,214.02 416.02,242.63 201.94,25.03 372.76,-33.05 494.18,-140.06 149.39,-131.65 224.06,-337.39 190.09,-553.56 -35.19,-224.06 -124.5,-285.09 -271.32,-437.61l-2484.84 -2581.48c1086.72,-1418.9 3439.24,-3807.4 3510.49,-4039.57 147.72,-253.21 43.47,-422.43 -146.57,-520.96 -406.33,-210.65 -878.13,-80.07 -1254.52,131.82 -886.43,499.05 -1887.42,1742.84 -2052.04,3414.96 0,0 -260.62,334.27 -484.24,570.27l-74.61 -77.51 -945.92 -1037.46c386.9,-1749.1 -783.22,-2600.64 -1917.96,-3294.31 -254.59,306.77 764.13,1226.71 1087.03,1835.52 120.48,181.92 -137.64,404.92 -346.83,244.03 -494.61,-465.89 -1112.38,-1349.63 -1483.83,-1397.67 -299.05,357.01 730.24,1197.85 1095.36,1796.78 102.73,210.46 -123.28,404.8 -326.69,269.03 -572.73,-451.82 -1027.71,-1305.03 -1581.56,-1385.56 23.01,740.48 744.67,1515.42 1452.57,2067.55 500.59,390.44 1115.85,496.34 1540.94,303.15z"/>
    <path class="fil3" d="M7763.77 9788.17c97.06,0 176.46,79.4 176.46,176.46l0 962.78 1234.69 772.68 -3.81 354.57 -1230.88 -449.8 0 662.16c0,20.26 -3.47,39.75 -9.83,57.91l246.75 172.91 0 303.47 -445.12 -188.08 -445.11 188.08 0 -303.47 301.49 -211.27c-0.71,-6.42 -1.1,-12.95 -1.1,-19.55l0 -654.8 -1273.66 391.64 -3.81 -354.57 1277.47 -740.15 0 -944.51c0,-97.06 79.4,-176.46 176.46,-176.46z"/>
    <path class="fil4" d="M7893.08 8493.61c-1.47,-0.13 -3.08,-0.13 -4.53,-0.18 -3.83,-0.11 -7.65,-0.2 -11.48,-0.28 -12.91,-0.27 -25.82,-0.46 -38.73,-0.65 -40.6,-0.58 -81.2,-1 -121.8,-1.36 -42.01,-0.37 -84.03,-0.83 -126.03,-1.54 -13.08,-0.22 -26.16,-0.45 -39.24,-0.81 -3.72,-0.1 -7.44,-0.2 -11.16,-0.37 -2.07,-0.09 -5.01,-0.12 -6.91,-0.89 -6.39,-2.58 -8.85,-8.54 -9.86,-14.92 -1.36,-8.53 -0.89,-18.95 -0.57,-27.58 0.29,-8.1 0.08,-21.09 5.42,-27.65 5.71,-7.02 15.89,-6.55 24.09,-6.57 18.09,-0.05 36.85,-2.57 54.25,-7.53 12.42,-3.54 27.96,-9.49 37.72,-18.2 18.19,-16.22 21.18,-60.81 22.35,-83.19 0.24,-4.51 0.18,-9.23 0.23,-13.75 0.13,-10.82 0.21,-21.64 0.29,-32.45 0.28,-37.26 0.48,-74.51 0.67,-111.77 0.59,-117.4 1.02,-234.81 1.39,-352.21 0.31,-98.98 0.67,-197.97 0.78,-296.95 0.05,-51.27 0.2,-102.63 -0.59,-153.89 -0.2,-13.03 -0.46,-26.09 -1.04,-39.11 -0.33,-7.34 -0.74,-14.81 -1.63,-22.11 -0.94,-7.61 -2.21,-12.09 -5.11,-18.97 -3.85,-9.14 -14.37,-21.04 -23.06,-25.83 -7.32,-4.04 -16.96,-6.74 -25.06,-8.64 -12.38,-2.92 -25.2,-4.77 -37.86,-5.96 -7.74,-0.74 -15.83,-1.33 -23.47,-2.69 -5.48,-0.97 -11.19,-2.5 -15.45,-6.29 -4.3,-3.83 -6.02,-8.9 -6.75,-14.47 -0.8,-6.19 -0.62,-13.01 -0.62,-19.26 0,-6.33 -0.08,-12.96 0.53,-19.26 0.46,-4.76 1.41,-9.71 4.26,-13.66 6.01,-8.35 17.58,-7.87 26.79,-7.92 6.47,-0.03 13.01,-0.35 19.47,-0.68 8.07,-0.41 16.14,-0.92 24.19,-1.56 20.76,-1.65 41.53,-3.24 62.3,-4.79 21.12,-1.58 42.26,-3.2 63.37,-4.93 19.71,-1.62 39.42,-3.27 59.14,-4.76 10.55,-0.8 21.23,-1.64 31.81,-1.97 4.67,-0.15 10.64,-0.35 15.19,0.73 3.82,0.91 6.43,2.67 8.65,5.85 3.71,5.33 3.71,18.94 3.9,25.21 0.72,24.22 0.4,48.74 0.29,72.97 -0.09,20.32 -0.08,40.67 0.2,60.99 0.03,2.42 0.07,4.84 0.11,7.26 22.42,-41.19 51.84,-78.58 88.05,-108.56 38.88,-32.19 91.76,-55.06 141.12,-65.46 10.65,-2.25 21.67,-3.56 32.51,-4.43 12.36,-1 24.8,-1.42 37.2,-1.39 12.38,0.04 24.81,0.52 37.15,1.59 10.8,0.94 21.78,2.31 32.37,4.62 81.97,17.87 144.78,52.16 202.63,112.93 80.23,84.27 113.22,190.43 121.06,304.82 6.11,89.12 -5.24,171.73 -34.23,256.26 -2.71,7.89 -6.01,15.7 -9.41,23.3 -4.14,9.24 -8.56,18.35 -13.16,27.36 -9,17.63 -18.89,35.57 -29.85,52.05 -10.67,16.06 -22.83,31.54 -35.5,46.06 -11.54,13.23 -24.28,26.66 -37.8,37.88 -3.43,2.85 -6.84,5.72 -10.22,8.62 -1.64,1.41 -3.62,3.01 -4.92,4.31 -1.71,2.25 -5.39,4.9 -7.92,6.75 -4.27,3.13 -8.68,6.11 -13.1,9.01 -10.47,6.89 -21.29,13.58 -32.26,19.65 -62.9,34.83 -122.98,48.65 -194.91,48.39 -68.76,-0.25 -126.78,-12.8 -183.46,-52.44 -28.52,-19.95 -66.51,-65.7 -81.89,-96.99 -0.3,-0.61 -0.73,-1.42 -1.24,-2.33l-0.55 41.68c-0.39,29.4 -0.43,58.83 -0.51,88.23 -0.12,42.05 -0.15,84.11 -0.09,126.17 0.05,32.88 0.03,65.78 0.42,98.65 0.22,17.94 0.4,36.23 1.71,54.13 0.6,8.16 1.45,17.44 3.92,25.28 1.69,5.37 4.14,9.53 7.14,14.24 8.1,12.73 21.18,20.42 34.96,25.75 22.41,8.68 49.48,12.44 73.29,14.85 8.62,0.87 17.3,1.93 25.85,3.36 4.29,0.72 12.99,1.96 16.29,4.84 3.64,3.18 4.37,9.71 4.88,14.26 0.68,6.05 0.95,12.24 1.05,18.32 0.13,7.48 0.34,26.77 -3.39,33.03 -3.54,5.94 -12.23,6.43 -18.39,6.89 -5.9,0.44 -11.86,0.62 -17.77,0.78 -9.56,0.26 -19.13,0.4 -28.68,0.53 -13.35,0.18 -26.72,0.3 -40.07,0.24 -4.19,-0.02 -8.39,-0.05 -12.58,-0.17 -2.01,-0.06 -4.17,-0.01 -6.14,-0.47zm3508.25 -1497.18c-14.22,-2.84 -35.12,-8.12 -47.56,-15.66 -29.8,-18.07 -49.43,-44.6 -58.38,-78.26 -6.49,-24.42 -7.26,-38.16 0.9,-62.07 10.81,-31.7 24.28,-48.44 51.37,-68.11 22.37,-16.24 42.89,-21.95 70.5,-21.52 26.98,0.43 46.96,5.68 69.71,20.2 36.14,23.05 55.02,54.75 57.48,97.59 1,17.55 0.92,26.39 -4.85,43.11 -7.68,22.26 -16.32,35.42 -33.52,51.51 -25.63,23.97 -70.87,40.15 -105.65,33.21zm-1338.32 41.33c-4.57,-4.84 -9.26,-11.32 -13,-16.84 -5.33,-7.88 -9.37,-14.42 -4.93,-23.78 3.04,-6.42 17,-22.65 21.74,-28.64 15.1,-19.11 30.34,-38.12 45.62,-57.1 29.15,-36.2 58.42,-72.99 88.6,-108.31 22.57,-26.42 64.62,-69.06 98.41,-79.87 17.22,-5.51 47.56,-5.89 64.59,0.22 25.4,9.11 38.72,25.62 51.64,48.79 8.59,15.39 6.59,51.99 -0.86,67.73 -7.58,16.01 -20.82,32.22 -34.37,43.66 -15.39,12.98 -42.91,29.83 -60.82,39.45 -13.52,7.26 -26.99,14.67 -40.45,22.03 -22.98,12.57 -46.41,24.81 -69.84,36.52 -14.09,7.03 -28.99,14.13 -42.72,21.78 -10.85,6.05 -81.69,42.29 -89.28,42.29 -5.18,0 -10.91,-4.31 -14.33,-7.93zm-4640.19 220.37c13.58,-23.69 38.11,-53.49 55.14,-70.31 68.45,-67.59 148.39,-92.44 243.79,-92.33 48.76,0.05 106.41,6.17 150.86,27.55 80.09,38.53 131.55,99.84 153.13,186.21 7.13,28.54 9.6,52.44 10.77,82.04 3.05,76.94 1.83,155.65 1.85,232.68 0.01,57.14 0.18,114.3 0.68,171.44 0.22,25.08 -1.1,58.1 1.53,82.68 2.15,20.14 7.29,38.7 23.01,52.38 22.63,19.66 72.44,24.11 100.82,27.46l22.72 2.69 0.87 34.52c0.19,7.54 1.47,30.45 -4.29,36.14 -6.5,6.43 -69.11,4.71 -78.04,4.77 -88.18,0.53 -176.45,-0.07 -264.63,-0.48 -13.5,-0.06 -132.99,2.85 -143.65,-6.63 -8.39,-7.47 -7.11,-23.36 -7.11,-33.6 0,-13.75 -0.9,-39.2 18.82,-39.2 15.93,0 68.62,-9.35 84.13,-14.37 13.18,-4.27 29.2,-14.8 35.64,-27.26 9.24,-17.89 11.9,-64.46 12.68,-84.59 3.25,-84.6 1.63,-172.61 1.78,-257.43 0.12,-67.75 1.76,-137.67 -0.92,-205.3 -0.96,-24.35 -3.42,-38.4 -9.46,-61.35 -9.17,-34.81 -36.78,-69.07 -69.5,-84.28 -47.52,-22.09 -116.34,-19.79 -165.75,-3.65 -48.7,15.91 -91.92,48.91 -120.19,91.62 -22.42,33.87 -38.85,80.12 -43.73,120.47 -2.56,21.17 -1.33,51.57 -1.54,73.3 -0.47,47.87 -0.64,95.75 -0.72,143.63 -0.07,48.23 -0.04,96.46 0.27,144.69 0.16,23.99 -0.88,53.04 1.33,76.71 6.58,70.76 42.3,75.67 107.69,83.78 7.23,0.9 30.16,3.91 35.64,8.4 8.48,6.94 6.27,24.81 5.9,34.56 -0.26,6.92 -0.84,27.88 -5.95,32.9 -8.39,8.25 -483.89,6.43 -492.49,-2.06 -7.79,-7.67 -8.08,-57.01 -1.65,-65.67 5.76,-7.78 24.19,-8.66 32.98,-9.48 18.75,-1.74 61.39,-7.84 76.99,-15.74 11.25,-5.69 21.73,-17.16 27.48,-28.36 10.41,-20.27 10.72,-57.14 11.53,-79.23 3.86,-106.5 2.27,-215.19 2.27,-321.79 0,-66.36 0.55,-133.08 -0.68,-199.43 -0.26,-14.4 0,-33.15 -3.66,-47.24 -3.05,-11.77 -5.43,-17.24 -13.57,-26.18 -20.72,-22.78 -60.21,-25 -88.87,-27.75 -6.67,-0.63 -34.53,-2.62 -39.18,-7.17 -4.82,-4.73 -4.86,-26.67 -5.07,-33.21 -1.51,-47.77 11.16,-42.73 56.76,-45.09 28.03,-1.45 56.22,-3.42 84.2,-5.71 33.25,-2.73 66.56,-5.16 99.84,-7.43 22.88,-1.56 45.81,-3.04 68.67,-4.8 12.79,-0.98 24.07,-3.12 28.29,12.69 4.59,17.17 2.48,60.28 2.48,78.71 0,7.69 -0.63,44.9 0.11,65.1zm-2100.1 598.39c-2.41,3.24 -5.04,7.65 -6.06,9.43 -3.89,6.79 -7.8,13.56 -11.7,20.34 -3.97,6.88 -8.02,13.81 -11.83,20.78 -1.82,3.34 -4.39,7.14 -6.79,10.1 -11.54,14.41 -26.65,42.78 -36.39,59.29 -4.31,7.3 -25.51,43.7 -31.26,47.86 -7.07,5.13 -39.98,3.88 -47.57,-0.33 -7.6,-4.22 -7.77,-11.65 -8.08,-19.5 -0.93,-23.86 0.26,-49.27 0.69,-73.18 2.75,-151.06 2.38,-302.86 3.12,-453.97 0.93,-189.11 1.9,-378.25 1.9,-567.36 0,-41.96 0.47,-84.38 -0.68,-126.32 -0.33,-12.18 -0.66,-24.06 -3.57,-35.93 -12.18,-49.79 -45.76,-55.3 -92.76,-59.79 -9.01,-0.85 -29.68,-2.64 -37.78,-5.81l-11.39 -4.45 0 -32.71c0,-7.92 -1.08,-30.27 5.87,-35.79 8.96,-7.13 113.22,-11.56 127.86,-12.26 33.06,-1.58 66.21,-3.6 99.23,-5.93 11.4,-0.81 89.02,-9.4 95.95,2.27 5.06,8.51 1.84,492.57 1.26,542.61 -0.13,11.09 -2.12,82.62 -0.78,114.69 28.75,-47 62.28,-88.17 110.1,-117 16.87,-10.17 46.81,-27.94 65.58,-33.16 8.93,-2.48 17.86,-5.21 26.74,-7.89 39.49,-11.89 95.03,-13.51 135.88,-9.19 64.91,6.87 120.15,27.33 174.72,63.18 22.83,15.01 56.69,44.93 74.92,65.39 6.53,7.33 38.49,46.8 38.34,53.68 0.96,1.83 3.97,6.36 5.67,9.01 22.42,34.86 44,93.75 53.66,134.45 13.74,57.87 17.83,160.26 9.59,219.26 -5.35,38.35 -12.92,78.01 -25.88,114.58 -7.6,21.45 -18.32,47.61 -29.11,67.59 -2.22,4.12 -5.44,9.63 -6.93,12.73 0.2,3.04 -6.5,12.12 -8.87,15.65 -2.42,3.62 -6.74,9.81 -8.4,13.7 -5.5,14.05 -43.94,57.4 -55.73,69.17 -36.74,36.64 -72.21,69.54 -121.25,88.44 -71.01,27.36 -129.88,39.93 -205.7,34.34 -52.96,-3.9 -109.22,-22.52 -152.84,-52.83 -32.87,-22.83 -63.83,-58.11 -85.83,-91.59 -2.34,-3.57 -4.84,-7.14 -7.37,-10.58 -4.3,-5.84 -8.87,-16.12 -11.77,-22.83 -0.99,-2.29 -2.88,-6.58 -4.76,-10.14zm1200.26 193.96c-46.22,-6.64 -84.68,-15.43 -127.85,-32.93 -35.86,-14.54 -58.99,-26.54 -90.44,-48.86 -23.73,-16.85 -57.43,-47.04 -76.3,-69.12 -37.1,-43.4 -61.3,-84.51 -84.14,-136.73 -7.98,-18.26 -18,-49.79 -21.65,-69.35 -0.67,-3.58 -1.71,-9.75 -2.84,-12.71 -7.26,-11.73 -10.84,-86.16 -11.19,-104.67 -1.07,-56.81 4.34,-117.44 22.82,-171.47 2.88,-8.43 5.84,-16.96 8.47,-25.47 6.04,-19.6 25.71,-56.37 36.53,-74.47 33.96,-56.84 92.24,-113.75 148.45,-148.88 21.36,-13.35 60.38,-33.32 84.1,-41.17 20.33,-6.72 38.13,-12.06 59.04,-16.38 17.34,-3.58 36.57,-6.02 54.22,-7.57 14.03,-1.23 28.06,-2.46 42.09,-3.72 35.27,-3.17 96.92,6.43 132.4,14.42 96.25,21.69 200.63,90.79 257.87,171.17 17.22,24.18 47.25,79.91 56.89,107.73 13.47,38.88 19.92,66.28 27.09,106.97 6.11,34.68 8.18,104.69 2.63,139.22 -1.91,11.86 -3.83,23.85 -5.38,35.77 -5.61,43.14 -28.89,112.15 -50.47,149.94 -4.52,7.92 -8.84,16.19 -12.91,24.35 -13.83,27.77 -55.61,74.72 -79.03,96.28 -24.67,22.7 -50.85,40.44 -79.1,58.44 -37.97,24.18 -103.46,45.71 -148.08,54.56 -25.57,5.08 -117.67,8.32 -143.22,4.65zm2678.26 -141.46c-0.69,1.25 -1.31,2.39 -1.81,3.29 -13.59,24.66 -37.6,56.17 -58.11,75.41 -30.33,28.45 -74.56,53.01 -114.56,64.44 -41.29,11.8 -113.04,14.65 -155.67,8.33 -64.73,-9.61 -119.82,-29.97 -166.69,-76.55 -48.65,-48.33 -70.36,-110.22 -70.36,-178.37 0,-54.68 13.16,-101.74 45.45,-145.99 21.49,-29.45 57.47,-60.48 89.35,-78.22 3.17,-1.76 6.33,-3.56 9.47,-5.39 16.5,-9.62 44.61,-22.41 62.62,-29.01 76.83,-28.18 159.13,-45.4 240.58,-52.66 16.74,-1.49 33.54,-3.07 50.25,-4.9 15.14,-1.67 31.51,-2.43 46.74,-2.46 3.56,-0.01 18.96,0.03 21.14,-0.32 2.23,-8.96 0.3,-66.82 0.16,-78.6 -0.57,-49.75 2.17,-80.29 -15.69,-126.63 -10.09,-26.21 -36.33,-56.02 -61.58,-68.41 -46.07,-22.61 -125.25,-23.73 -171.6,-1.53 -36.54,17.51 -68.06,77.24 -83.5,112.54 -14.75,33.72 -28.46,62.61 -63.1,78.76 -13.59,6.33 -25.28,6.12 -40.09,6.13 -18.17,0.01 -26.27,0.37 -42.45,-7.65 -30.9,-15.33 -44.28,-40.26 -46.39,-74.2 -3.52,-56.8 36.25,-105.84 78.44,-138.93 59.22,-46.47 125.68,-69.28 199.62,-80.56 56.3,-8.59 152,-6.24 206.48,9.24 134.62,38.23 211.57,129.63 225.49,268.95 2.68,26.8 1.23,61.81 1.43,89.09 0.46,61.73 0.61,123.47 0.63,185.21 0.03,72.98 -0.52,146.31 0.73,219.27 0.2,11.52 -0.28,34.53 3.45,45.67 11.1,33.2 40.53,38.23 70.62,27.26 8.71,-3.17 22.14,-9.46 29.06,-15.37 11.36,-9.71 23.49,-1.17 25.63,12.1 2.26,14 9.46,45.92 0.33,58.43 -7.23,9.91 -23.7,20.73 -34.59,26.63 -30.43,16.46 -68.66,22.62 -102.92,22.71 -64.01,0.16 -125.04,-18.52 -156.37,-78.22 -11.97,-22.82 -17.33,-45.03 -22.19,-69.49zm4135.67 -585.27c-2.78,-15.77 -4.04,-23.37 -13.07,-36.36 -19.09,-27.47 -44.64,-30.7 -76.26,-36.37 -7.06,-1.27 -34.54,-5.96 -39.45,-10.7 -5.59,-5.39 -5.94,-27.23 -6.18,-34.62 -0.4,-12.52 -3.87,-29.89 9.06,-36.52 15.27,-7.83 178.04,-15.35 197.79,-16.55 29.85,-1.8 59.79,-3.65 89.61,-5.95 8.01,-0.62 35.1,-3.95 41.45,2.18 8.57,8.26 5.04,374.6 5.04,397.63 0,112.4 -0.68,225.09 0.65,337.48 0.14,11.14 -0.58,50.73 3.59,61.3 8.45,21.39 20.65,33.52 42.39,41.1 14.06,4.9 60.59,13.52 75.26,13.52 5.05,0 11.94,1.55 15.64,5.1 7.26,6.97 7.15,57.03 1.69,65.36 -5.93,9.03 -35.13,8.06 -44.4,8.38 -5.56,0.19 -36.77,2.39 -39.03,0.23 -16.49,-0.75 -38.17,0.05 -56.62,-0.13 -43.54,-0.4 -87.07,-0.75 -130.61,-1.14 -19.72,-0.18 -184.59,0.54 -195.57,-3.49 -10.83,-3.97 -8.76,-27.21 -8.76,-36.28 0,-10.27 -2.25,-31.33 8.78,-36.8 9.18,-4.54 39.33,-8.16 49.79,-9.69 23.66,-3.45 45.97,-11.72 57.66,-33.89 10.38,-19.69 10.62,-40.55 11.64,-62.5 4.14,-89.48 2.71,-181.87 3.09,-271.51 0.34,-79.09 1.18,-158.46 0.3,-237.54 -0.22,-20.03 0.01,-42.44 -3.48,-62.24zm-1468.95 258.35l-0.81 1.44c-5.26,15.35 3.02,111.78 6.14,132.44 12.02,79.45 38.88,150.62 99.83,205.02 35.63,31.8 79.43,48.59 125.5,58.79 31.82,7.05 93.75,5.68 125.66,-1.52 27.47,-6.2 57.66,-16.94 82.55,-30.02 38.27,-20.12 82.97,-60.36 110,-94.33 5.66,-7.12 14.94,-19.35 25.02,-19.35 7.36,0 22.58,10 28.56,14.2 9.45,6.63 19.05,13.31 28.73,19.61 10.73,6.99 16.2,12.58 14.34,26.11 -0.87,6.29 -19,28.77 -23.27,34.18 -20.69,26.14 -49.59,55.81 -76,75.97 -18.37,14.02 -51.64,37.07 -72.43,46.28 -38.96,17.27 -75.91,28.23 -117.77,36.57 -23.76,4.73 -126.89,8.26 -149.93,4.21 -10.02,-1.76 -20.16,-3.27 -30.22,-4.84 -66.3,-10.39 -125.27,-28.6 -182.77,-63.39 -72.21,-43.68 -128.09,-107.35 -163.05,-184.14 -10.67,-23.45 -27.32,-66.91 -31.55,-91.69 -1.18,-6.91 -3.01,-14.3 -4.92,-21.05 -8.99,-31.7 -11.51,-86.62 -11.51,-120.51 -0.01,-120.36 40.61,-238.17 122.98,-326.98 73.8,-79.56 154.02,-123.55 260.34,-145.15 30.18,-6.14 104.54,-9.55 134.59,-4.64 57.14,9.33 104.07,20.74 154.84,48.73 69.56,38.35 133.51,109.21 164.2,182.47 12.13,28.95 22.67,68.63 26.23,99.78 1.99,17.47 5.63,107 -1.06,118.97l-5.08 9.08 -206.15 -1.6c-106.53,-0.82 -213.09,-1.75 -319.61,-3.15l-113.38 -1.49zm1986.12 -335.57c-8.99,-2.36 -60.46,-1.73 -67.51,-1.73 -11.39,0 -69.54,2.7 -78.61,-5.99 -7.7,-7.37 -6.38,-28.63 -6.38,-38.38 0,-36.29 -0.41,-38.8 35.77,-44.18 90.9,-13.54 147.74,-38.1 188.88,-122.66 10.79,-22.18 17.23,-41.49 24.64,-65.15 7.37,-23.53 12.33,-54.15 16.68,-78.59l1.15 -6.44 92.17 0 0.09 7.72c0.44,36.26 0.42,72.55 0.42,108.81 0,39.67 -0.07,79.41 0.55,119.08 0.11,6.95 -0.15,26.41 1.14,35.83 17.49,2.79 76.17,1.39 89.22,1.39 12.03,0 92.12,-2.1 102.04,4.88 10.74,7.56 8.23,29.92 8.23,41.52 0,7.82 0.8,34.24 -5.21,40.01 -7.19,6.91 -93.94,4.69 -104.57,4.67 -9.36,-0.02 -76.12,-1.33 -90.6,1.03 -3.55,20.77 -2.14,74.33 -2.42,93.65 -1.38,95.87 -1.88,191.8 -2.43,287.68 -0.44,77.15 -1.35,154.55 -0.63,231.69 0.19,20.62 0,43.22 3.31,63.64 4.64,28.69 9.61,54.57 41.33,60.96 18.9,3.81 35.15,-1.73 51.2,-11.8 21.97,-13.8 39.11,-39.48 52.46,-61.13 3.72,-6.03 15.51,-27.42 23.66,-27.42 5.25,0 17.3,5.86 20.34,9.53 4.73,3.86 12.85,8.66 18.49,12.28 6,3.87 20.9,14.07 23.94,20.49 6.13,12.88 -10.18,34.02 -16.84,44.28 -1.98,3.05 -5.46,8.34 -6.76,11.65 -5.19,13.55 -40.76,51.85 -52.65,62.43 -52.09,46.32 -121.38,61.94 -189.49,50.35 -41.92,-7.13 -80.58,-23.52 -111.19,-53.58 -37.23,-36.55 -53.03,-88.41 -58.79,-139.01 -3.19,-28.01 -1.85,-64.08 -1.97,-92.44 -0.35,-83.54 0.08,-167.11 0.47,-250.65 0.39,-84.62 1.06,-169.35 0.64,-253.97 -0.05,-9.01 0.67,-51.06 -0.77,-60.45zm-1201.31 0c-8.99,-2.36 -60.46,-1.73 -67.51,-1.73 -11.39,0 -69.54,2.7 -78.61,-5.99 -7.7,-7.37 -6.38,-28.63 -6.38,-38.38 0,-36.29 -0.41,-38.8 35.77,-44.18 90.9,-13.54 147.74,-38.1 188.88,-122.66 10.79,-22.18 17.23,-41.49 24.64,-65.15 7.37,-23.53 12.33,-54.15 16.68,-78.59l1.15 -6.44 92.17 0 0.09 7.72c0.44,36.26 0.42,72.55 0.42,108.81 0,39.67 -0.07,79.41 0.55,119.08 0.11,6.95 -0.15,26.41 1.14,35.83 17.49,2.79 76.17,1.39 89.22,1.39 12.03,0 92.12,-2.1 102.04,4.88 10.74,7.56 8.23,29.92 8.23,41.52 0,7.82 0.8,34.24 -5.21,40.01 -7.19,6.91 -93.94,4.69 -104.57,4.67 -9.36,-0.02 -76.12,-1.33 -90.6,1.03 -3.55,20.77 -2.14,74.33 -2.42,93.65 -1.38,95.87 -1.88,191.8 -2.43,287.68 -0.44,77.15 -1.35,154.55 -0.63,231.69 0.19,20.62 0,43.22 3.31,63.64 4.64,28.69 9.61,54.57 41.33,60.96 18.9,3.81 35.15,-1.73 51.2,-11.8 21.97,-13.8 39.11,-39.48 52.46,-61.13 3.72,-6.03 15.51,-27.42 23.66,-27.42 5.25,0 17.3,5.86 20.34,9.53 4.73,3.86 12.85,8.66 18.49,12.28 6,3.87 20.9,14.07 23.94,20.49 6.13,12.88 -10.18,34.02 -16.84,44.28 -1.98,3.05 -5.46,8.34 -6.76,11.65 -5.19,13.55 -40.76,51.85 -52.65,62.43 -52.09,46.32 -121.38,61.94 -189.49,50.35 -41.92,-7.13 -80.58,-23.52 -111.19,-53.58 -37.23,-36.55 -53.03,-88.41 -58.79,-139.01 -3.19,-28.01 -1.85,-64.08 -1.97,-92.44 -0.35,-83.54 0.08,-167.11 0.47,-250.65 0.39,-84.62 1.06,-169.35 0.64,-253.97 -0.05,-9.01 0.67,-51.06 -0.77,-60.45zm-1722.66 1247.08c-1.47,-0.13 -3.08,-0.13 -4.53,-0.18 -3.83,-0.11 -7.65,-0.2 -11.48,-0.28 -12.91,-0.27 -25.82,-0.46 -38.73,-0.65 -40.6,-0.58 -81.2,-1 -121.8,-1.36 -42.01,-0.37 -84.03,-0.83 -126.03,-1.54 -13.08,-0.22 -26.16,-0.45 -39.24,-0.81 -3.72,-0.1 -7.44,-0.2 -11.16,-0.37 -2.07,-0.09 -5.01,-0.12 -6.91,-0.89 -6.39,-2.58 -8.85,-8.54 -9.86,-14.92 -1.36,-8.53 -0.89,-18.95 -0.57,-27.58 0.29,-8.1 0.08,-21.09 5.42,-27.65 5.71,-7.02 15.89,-6.55 24.09,-6.57 18.09,-0.05 36.85,-2.57 54.25,-7.53 12.42,-3.54 27.96,-9.49 37.72,-18.2 18.19,-16.22 21.18,-60.81 22.35,-83.19 0.24,-4.51 0.18,-9.23 0.23,-13.75 0.13,-10.82 0.21,-21.64 0.29,-32.45 0.28,-37.26 0.48,-74.51 0.67,-111.77 0.59,-117.4 1.02,-234.81 1.39,-352.21 0.31,-98.98 0.67,-197.97 0.78,-296.95 0.05,-51.27 0.2,-102.63 -0.59,-153.89 -0.2,-13.03 -0.46,-26.09 -1.04,-39.11 -0.33,-7.34 -0.74,-14.81 -1.63,-22.11 -0.94,-7.61 -2.21,-12.09 -5.11,-18.97 -3.85,-9.14 -14.37,-21.04 -23.06,-25.83 -7.32,-4.04 -16.96,-6.74 -25.06,-8.64 -12.38,-2.92 -25.2,-4.77 -37.86,-5.96 -7.74,-0.74 -15.83,-1.33 -23.47,-2.69 -5.48,-0.97 -11.19,-2.5 -15.45,-6.29 -4.3,-3.83 -6.02,-8.9 -6.75,-14.47 -0.8,-6.19 -0.62,-13.01 -0.62,-19.26 0,-6.33 -0.08,-12.96 0.53,-19.26 0.46,-4.76 1.41,-9.71 4.26,-13.66 6.01,-8.35 17.58,-7.87 26.79,-7.92 6.47,-0.03 13.01,-0.35 19.47,-0.68 8.07,-0.41 16.14,-0.92 24.19,-1.56 20.76,-1.65 41.53,-3.24 62.3,-4.79 21.12,-1.58 42.26,-3.2 63.37,-4.93 19.71,-1.62 39.42,-3.27 59.14,-4.76 10.55,-0.8 21.23,-1.64 31.81,-1.97 4.67,-0.15 10.64,-0.35 15.19,0.73 3.82,0.91 6.43,2.67 8.65,5.85 3.71,5.33 3.71,18.94 3.9,25.21 0.72,24.22 0.4,48.74 0.29,72.97 -0.09,20.32 -0.08,40.67 0.2,60.99 0.03,2.42 0.07,4.84 0.11,7.26 22.42,-41.19 51.84,-78.58 88.05,-108.56 38.88,-32.19 91.76,-55.06 141.12,-65.46 10.65,-2.25 21.67,-3.56 32.51,-4.43 12.36,-1 24.8,-1.42 37.2,-1.39 12.38,0.04 24.81,0.52 37.15,1.59 10.8,0.94 21.78,2.31 32.37,4.62 81.97,17.87 144.78,52.16 202.63,112.93 80.23,84.27 113.22,190.43 121.06,304.82 6.11,89.12 -5.24,171.73 -34.23,256.26 -2.71,7.89 -6.01,15.7 -9.41,23.3 -4.14,9.24 -8.56,18.35 -13.16,27.36 -9,17.63 -18.89,35.57 -29.85,52.05 -10.67,16.06 -22.83,31.54 -35.5,46.06 -11.54,13.23 -24.28,26.66 -37.8,37.88 -3.43,2.85 -6.84,5.72 -10.22,8.62 -1.64,1.41 -3.62,3.01 -4.92,4.31 -1.71,2.25 -5.39,4.9 -7.92,6.75 -4.27,3.13 -8.68,6.11 -13.1,9.01 -10.47,6.89 -21.29,13.58 -32.26,19.65 -62.9,34.83 -122.98,48.65 -194.91,48.39 -68.76,-0.25 -126.78,-12.8 -183.46,-52.44 -28.52,-19.95 -66.51,-65.7 -81.89,-96.99 -0.3,-0.61 -0.73,-1.42 -1.24,-2.33l-0.55 41.68c-0.39,29.4 -0.43,58.83 -0.51,88.23 -0.12,42.05 -0.15,84.11 -0.09,126.17 0.05,32.88 0.03,65.78 0.42,98.65 0.22,17.94 0.4,36.23 1.71,54.13 0.6,8.16 1.45,17.44 3.92,25.28 1.69,5.37 4.14,9.53 7.14,14.24 8.1,12.73 21.18,20.42 34.96,25.75 22.41,8.68 49.48,12.44 73.29,14.85 8.62,0.87 17.3,1.93 25.85,3.36 4.29,0.72 12.99,1.96 16.29,4.84 3.64,3.18 4.37,9.71 4.88,14.26 0.68,6.05 0.95,12.24 1.05,18.32 0.13,7.48 0.34,26.77 -3.39,33.03 -3.54,5.94 -12.23,6.43 -18.39,6.89 -5.9,0.44 -11.86,0.62 -17.77,0.78 -9.56,0.26 -19.13,0.4 -28.68,0.53 -13.35,0.18 -26.72,0.3 -40.07,0.24 -4.19,-0.02 -8.39,-0.05 -12.58,-0.17 -2.01,-0.06 -4.17,-0.01 -6.14,-0.47zm-779.52 -532.32c30.02,-7.11 55.7,-18.06 79.12,-38.29 15.4,-13.3 25.77,-23.02 37.95,-39.14 56.48,-74.8 73.73,-175.35 78.22,-266.75 1.76,-35.89 2.4,-108.61 -4.39,-142.76 -1.61,-8.12 -2.83,-16.77 -3.71,-25.01 -2.12,-19.89 -10.16,-52.21 -16.99,-71.11 -2.46,-6.78 -4.92,-13.56 -7.31,-20.35 -5.45,-15.42 -18.28,-38.39 -27.5,-52.13 -27.45,-40.92 -64.93,-67.56 -112.27,-81.13 -20.4,-5.85 -37.57,-5.25 -58.81,-5.22 -47.56,0.07 -61.69,3.62 -105.22,23.1 -40.08,17.94 -77.51,54.19 -101.11,91.08 -31.11,48.62 -46.2,99.86 -56.11,156.4 -7.7,43.95 -6.03,155.51 0,200.62 11.17,83.54 34.14,173.58 102.89,228.74 25.66,20.59 50.8,33.16 82.86,40.44 23.25,5.28 36.99,5.44 61.22,5.71 17.86,0.2 33.75,-0.08 51.16,-4.2zm-4527.98 -27.07c33.11,-2.84 50.2,-9.16 80.16,-24.03 15.9,-7.89 25.95,-14.2 38.52,-26.8 17.04,-17.07 33.28,-36.95 44.91,-58.15 3.43,-6.25 6.85,-12.61 10.42,-18.78 18.83,-32.45 34.75,-82.86 42.06,-119.98 8.57,-43.55 12.05,-93.21 12.07,-137.73 0.03,-92.4 -4.71,-181.03 -53.88,-261.5 -18.65,-30.55 -46.18,-58.83 -78.19,-75.34 -48.94,-25.24 -120.32,-29.76 -172.42,-12.14 -10,3.38 -42.09,17.65 -49.33,23.03 -1.95,2.79 -15.57,10.33 -19.44,12.56 -35.81,20.6 -75.87,72.34 -92.65,110.08 -14.02,31.53 -33.25,91.03 -33.25,124.73 0,10.91 -1.66,24.1 -3.5,34.93 -2.98,17.54 -2.72,36.64 -2.18,54.36 1.63,53.8 3.66,122.82 20.33,174.38 10.06,31.09 17.84,55.04 34.1,83.18 4.56,7.89 8.95,15.97 13.26,23.99 26.97,50.18 93.46,84.78 148.74,92.2 25.46,3.42 34.43,3.22 60.27,1.01zm996.15 17.2c37.15,-6.5 56.55,-13.78 87.48,-35.2 43.03,-29.8 66.61,-64.59 88.93,-111.32 23.23,-48.61 34.31,-103.43 40.26,-156.68 3.27,-29.27 3.2,-62.03 3.2,-91.53 0,-25.64 0.58,-58.74 -3.17,-83.93 -6.92,-46.35 -14.72,-83.63 -31.55,-127.2 -22.56,-58.44 -62.76,-109.02 -118.64,-138.5 -17.57,-9.27 -53.18,-18.86 -73.09,-21.59 -20.53,-2.81 -66.46,-2.75 -86.28,1.98 -100.07,23.87 -152.37,88.26 -183.37,184.17 -23.87,73.85 -28.8,141.26 -26.66,218.78 2.09,76.05 12.91,153.93 45.56,223.37 25.79,54.85 79.09,112.06 138.29,130.23 39.28,12.06 78.58,14.5 119.04,7.42zm2579.86 -377.42c-0.25,0.04 -0.47,0.08 -0.65,0.1 -12.18,1.92 -25.94,2.75 -38.28,3.82 -46.25,4.03 -99.21,10.65 -143.78,23.07 -12.46,3.48 -39.86,11.25 -50.59,17.12 -5.67,3.11 -11.91,5.96 -17.77,8.72 -25.12,11.85 -41.94,24.64 -61.45,44.52 -37.64,38.37 -46.86,72.65 -46.86,126.05 0,43.09 8.86,88.83 39.63,121 20.96,21.91 44.95,33.38 74.9,37.82 20.76,3.09 56.32,0.63 76.59,-4.93 50.76,-13.92 91.2,-47.34 120.09,-90.79 7.17,-10.79 32.14,-56.63 33.13,-67.6 0.01,-3.84 1.47,-9.07 3.27,-12.47 2.68,-6 5.35,-20.76 6.71,-27.57 6.28,-31.48 5.62,-68.42 6.17,-100.39 0.14,-7.78 1.91,-67.55 -1.11,-78.47zm3105.75 -80.58c3.09,-8.47 -1.5,-47.27 -2.44,-54.91 -5.62,-45.78 -15.64,-95.18 -38.5,-135.77 -48.57,-86.26 -163.08,-97.5 -245.18,-55.52 -83.2,42.54 -124.39,142.1 -140.19,229.16 -0.36,2.02 -1.93,10.37 -2.4,11.34 11.27,3.74 104.44,3.25 119.05,3.47 79.26,1.18 158.61,2.49 237.89,2.72 12.67,0.03 59.65,1.5 71.77,-0.49zm-1116.75 467.87c30.02,-7.11 55.7,-18.06 79.12,-38.29 15.4,-13.3 25.77,-23.02 37.95,-39.14 56.48,-74.8 73.73,-175.35 78.22,-266.75 1.76,-35.89 2.4,-108.61 -4.39,-142.76 -1.61,-8.12 -2.83,-16.77 -3.71,-25.01 -2.12,-19.89 -10.16,-52.21 -16.99,-71.11 -2.46,-6.78 -4.92,-13.56 -7.31,-20.35 -5.45,-15.42 -18.28,-38.39 -27.5,-52.13 -27.45,-40.92 -64.93,-67.56 -112.27,-81.13 -20.4,-5.85 -37.57,-5.25 -58.81,-5.22 -47.56,0.07 -61.69,3.62 -105.22,23.1 -40.08,17.94 -77.51,54.19 -101.11,91.08 -31.11,48.62 -46.2,99.86 -56.11,156.4 -7.7,43.95 -6.03,155.51 0,200.62 11.17,83.54 34.14,173.58 102.89,228.74 25.66,20.59 50.8,33.16 82.86,40.44 23.25,5.28 36.99,5.44 61.22,5.71 17.86,0.2 33.75,-0.08 51.16,-4.2z"/>
   </g>
  </g>
 </g>
</svg>
