<?xml version="1.0" encoding="UTF-8"?>
<!DOCTYPE svg PUBLIC "-//W3C//DTD SVG 1.1//EN" "http://www.w3.org/Graphics/SVG/1.1/DTD/svg11.dtd">
<!-- Creator: CorelDRAW -->
<svg xmlns="http://www.w3.org/2000/svg" xml:space="preserve" width="152.4mm" height="152.4mm" version="1.1" style="shape-rendering:geometricPrecision; text-rendering:geometricPrecision; image-rendering:optimizeQuality; fill-rule:evenodd; clip-rule:evenodd"
viewBox="0 0 4971.19 4971.19"
 xmlns:xlink="http://www.w3.org/1999/xlink"
 xmlns:xodm="http://www.corel.com/coreldraw/odm/2003">
 <defs>
  <style type="text/css">
   <![CDATA[
    .fil0 {fill:none}
    .fil3 {fill:#333399}
    .fil1 {fill:#33CCFF}
    .fil2 {fill:#FF9900}
    .fil4 {fill:white}
   ]]>
  </style>
 </defs>
 <g id="Capa_x0020_1">
  <metadata id="CorelCorpID_0Corel-Layer"/>
  <g id="_1590616389264">
   <rect class="fil0" x="-0" y="-0" width="4971.19" height="4971.19"/>
   <path class="fil1" d="M1729.8 202.26c196.46,-28.6 410.53,-45.6 628.01,-50.87l0 -0.8c42.48,-0.76 85.04,-1.08 127.57,-0.95l0.44 0c42.54,-0.13 85.1,0.19 127.57,0.95l0 0.8c217.47,5.27 431.54,22.27 628.01,50.87 381.07,55.47 663.59,148.39 975.97,313.55 122.32,64.68 203.7,165.55 241.01,298.8 178.33,636.82 193.64,1459.96 -115.89,2183.36 -333.61,779.68 -956.25,1360.74 -1702.54,1744.38l-26.56 13.65 0 0.06 -6.21 3.13 -120.46 61.93 -1.12 0.47 -1.13 -0.47 -120.46 -61.93 -6.21 -3.13 0 -0.06 -26.56 -13.65c-746.29,-383.64 -1368.93,-964.69 -1702.54,-1744.38 -309.53,-723.4 -294.22,-1546.54 -115.89,-2183.36 37.31,-133.24 118.69,-234.12 241.01,-298.8 312.37,-165.16 594.9,-258.08 975.97,-313.55z"/>
   <path class="fil2" d="M1719.86 172.23c199.05,-28.97 415.93,-46.2 636.27,-51.54l0 -0.81c43.04,-0.77 86.16,-1.09 129.25,-0.96l0.45 0c43.1,-0.13 86.22,0.19 129.25,0.96l0 0.81c220.33,5.34 437.22,22.56 636.27,51.54 386.08,56.2 672.32,150.34 988.8,317.68 123.93,65.53 206.38,167.73 244.18,302.72 180.68,645.19 196.18,1479.16 -117.41,2212.07 -337.99,789.94 -968.82,1378.64 -1724.93,1767.32l-26.91 13.83 0 0.06 -6.29 3.17 -122.05 62.74 -1.13 0.47 -1.14 -0.47 -122.05 -62.74 -6.29 -3.17 0 -0.06 -26.91 -13.83c-756.11,-388.68 -1386.94,-977.38 -1724.93,-1767.32 -313.6,-732.91 -298.09,-1566.88 -117.41,-2212.07 37.81,-135 120.25,-237.2 244.18,-302.72 316.48,-167.34 602.72,-261.48 988.8,-317.68zm49.36 339.14c-346.75,50.47 -660.14,148.38 -930.37,307.6 -435.14,1399.61 100.83,2853.41 1647.04,3648.25 1562.3,-788.4 2118.02,-2248.64 1682.88,-3648.25 -264.22,-155.68 -569.68,-252.74 -907.26,-304.17 -443.82,-67.6 -1047.6,-68.16 -1492.29,-3.44z"/>
   <g>
    <path class="fil3" d="M2451.96 2621.81c-146.01,217.31 -290.01,433.68 -449.86,641.37 -76.3,99.12 -171.15,282.99 -300.73,299.04 -67.63,8.38 -133.35,-19.58 -174.01,-55.41 -50.03,-44.09 -75.02,-113.01 -63.66,-185.39 11.77,-75.02 75.72,-138.01 124.89,-189.09l694.99 -714.84 168.38 204.33zm-431.32 -677.17l991.16 1250.75c68.28,105.77 137.73,203.35 209.24,286.49 47.54,55.25 61.96,71.68 139.33,81.26 67.63,8.38 124.84,-11.07 165.5,-46.91 50.03,-44.09 75.04,-112.99 63.66,-185.39 -11.79,-75.04 -41.69,-95.48 -90.87,-146.56l-832.19 -864.56c363.95,-475.2 1151.83,-1275.13 1175.69,-1352.89 49.47,-84.8 14.56,-141.48 -49.09,-174.47 -136.08,-70.55 -294.09,-26.82 -420.15,44.15 -296.87,167.14 -632.11,583.69 -687.24,1143.7 0,0 -87.28,111.95 -162.18,190.99l-24.99 -25.96 -316.8 -347.45c129.57,-585.79 -262.31,-870.98 -642.34,-1103.3 -85.26,102.74 255.91,410.84 364.06,614.73 40.35,60.93 -46.1,135.61 -116.16,81.73 -165.65,-156.03 -372.55,-452 -496.95,-468.09 -100.15,119.57 244.56,401.17 366.84,601.76 34.41,70.49 -41.29,135.57 -109.41,90.1 -191.82,-151.32 -344.19,-437.06 -529.68,-464.04 7.71,248 249.4,507.53 486.48,692.44 167.65,130.76 373.71,166.23 516.07,101.53z"/>
    <path class="fil3" d="M2524.1 3009.16c32.51,0 59.1,26.59 59.1,59.1l0 322.45 413.51 258.78 -1.28 118.75 -412.23 -150.64 0 221.76c0,6.78 -1.16,13.31 -3.29,19.39l82.64 57.91 0 101.64 -149.07 -62.99 -149.07 62.99 0 -101.64 100.97 -70.75c-0.24,-2.15 -0.37,-4.34 -0.37,-6.55l0 -219.3 -426.56 131.16 -1.28 -118.75 427.84 -247.88 0 -316.33c0,-32.51 26.59,-59.1 59.1,-59.1z"/>
    <path class="fil4" d="M2567.41 2575.6c-0.49,-0.04 -1.03,-0.04 -1.52,-0.06 -1.28,-0.04 -2.56,-0.07 -3.84,-0.09 -4.33,-0.09 -8.65,-0.15 -12.97,-0.22 -13.6,-0.19 -27.19,-0.33 -40.79,-0.45 -14.07,-0.12 -28.14,-0.28 -42.21,-0.52 -4.38,-0.08 -8.76,-0.15 -13.14,-0.27 -1.25,-0.03 -2.49,-0.07 -3.73,-0.12 -0.69,-0.03 -1.68,-0.04 -2.32,-0.3 -2.14,-0.86 -2.97,-2.86 -3.3,-5 -0.46,-2.86 -0.3,-6.34 -0.19,-9.23 0.1,-2.71 0.03,-7.07 1.82,-9.26 1.91,-2.35 5.32,-2.2 8.07,-2.2 6.06,-0.02 12.34,-0.86 18.17,-2.52 4.16,-1.18 9.37,-3.18 12.63,-6.1 6.09,-5.43 7.09,-20.36 7.48,-27.86 0.08,-1.51 0.06,-3.09 0.08,-4.61 0.04,-3.62 0.07,-7.24 0.1,-10.87 0.09,-12.48 0.16,-24.95 0.23,-37.43 0.2,-39.32 0.34,-78.64 0.46,-117.96 0.1,-33.15 0.23,-66.3 0.26,-99.45 0.02,-17.17 0.07,-34.37 -0.2,-51.54 -0.07,-4.36 -0.15,-8.74 -0.35,-13.1 -0.11,-2.46 -0.25,-4.96 -0.54,-7.4 -0.32,-2.55 -0.74,-4.05 -1.71,-6.35 -1.29,-3.06 -4.81,-7.05 -7.72,-8.65 -2.45,-1.35 -5.68,-2.26 -8.39,-2.89 -4.15,-0.98 -8.44,-1.6 -12.68,-2 -2.59,-0.25 -5.3,-0.44 -7.86,-0.9 -1.84,-0.32 -3.75,-0.84 -5.18,-2.11 -1.44,-1.28 -2.02,-2.98 -2.26,-4.84 -0.27,-2.07 -0.21,-4.36 -0.21,-6.45 0,-2.12 -0.03,-4.34 0.18,-6.45 0.15,-1.6 0.47,-3.25 1.43,-4.58 2.02,-2.8 5.89,-2.64 8.97,-2.65 2.17,-0.01 4.36,-0.12 6.52,-0.23 2.7,-0.14 5.41,-0.31 8.1,-0.52 6.95,-0.55 13.91,-1.08 20.86,-1.6 7.08,-0.53 14.15,-1.07 21.22,-1.65 6.6,-0.54 13.2,-1.1 19.81,-1.59 3.54,-0.27 7.11,-0.55 10.65,-0.66 1.57,-0.05 3.57,-0.12 5.09,0.24 1.28,0.31 2.15,0.89 2.9,1.96 1.24,1.78 1.24,6.34 1.31,8.44 0.24,8.11 0.13,16.32 0.09,24.44 -0.03,6.8 -0.03,13.62 0.07,20.43 0.01,0.81 0.02,1.62 0.04,2.43 7.51,-13.79 17.36,-26.31 29.49,-36.36 13.02,-10.78 30.73,-18.44 47.26,-21.92 3.57,-0.75 7.26,-1.19 10.89,-1.48 4.14,-0.34 8.31,-0.48 12.46,-0.47 4.15,0.01 8.31,0.17 12.44,0.53 3.62,0.32 7.29,0.77 10.84,1.55 27.45,5.98 48.49,17.47 67.86,37.82 26.87,28.22 37.92,63.78 40.54,102.09 2.05,29.85 -1.75,57.51 -11.46,85.82 -0.91,2.64 -2.01,5.26 -3.15,7.81 -1.39,3.09 -2.87,6.15 -4.41,9.16 -3.01,5.9 -6.32,11.91 -9.99,17.43 -3.58,5.38 -7.65,10.56 -11.89,15.43 -3.87,4.43 -8.13,8.93 -12.66,12.69 -1.15,0.96 -2.29,1.91 -3.42,2.89 -0.55,0.47 -1.21,1.01 -1.65,1.45 -0.57,0.75 -1.8,1.64 -2.65,2.26 -1.43,1.05 -2.91,2.05 -4.39,3.02 -3.51,2.31 -7.13,4.55 -10.8,6.58 -21.07,11.66 -41.19,16.29 -65.28,16.21 -23.03,-0.08 -42.46,-4.29 -61.44,-17.56 -9.55,-6.68 -22.28,-22 -27.43,-32.48 -0.1,-0.2 -0.24,-0.48 -0.41,-0.78l-0.18 13.96c-0.13,9.85 -0.15,19.7 -0.17,29.55 -0.04,14.08 -0.05,28.17 -0.03,42.26 0.02,11.01 0.01,22.03 0.14,33.04 0.08,6.01 0.13,12.13 0.57,18.13 0.2,2.73 0.49,5.84 1.31,8.47 0.57,1.8 1.39,3.19 2.39,4.77 2.71,4.26 7.09,6.84 11.71,8.62 7.51,2.91 16.57,4.17 24.54,4.97 2.89,0.29 5.8,0.65 8.66,1.13 1.44,0.24 4.35,0.66 5.45,1.62 1.22,1.07 1.46,3.25 1.63,4.78 0.23,2.03 0.32,4.1 0.35,6.14 0.04,2.51 0.11,8.97 -1.14,11.06 -1.19,1.99 -4.1,2.15 -6.16,2.31 -1.98,0.15 -3.97,0.21 -5.95,0.26 -3.2,0.09 -6.41,0.13 -9.6,0.18 -4.47,0.06 -8.95,0.1 -13.42,0.08 -1.41,-0.01 -2.81,-0.02 -4.21,-0.06 -0.67,-0.02 -1.4,-0 -2.06,-0.16zm1174.94 -501.42c-4.76,-0.95 -11.76,-2.72 -15.93,-5.24 -9.98,-6.05 -16.55,-14.94 -19.55,-26.21 -2.17,-8.18 -2.43,-12.78 0.3,-20.79 3.62,-10.62 8.13,-16.22 17.2,-22.81 7.49,-5.44 14.37,-7.35 23.61,-7.21 9.04,0.14 15.73,1.9 23.35,6.77 12.1,7.72 18.43,18.34 19.25,32.68 0.34,5.88 0.31,8.84 -1.62,14.44 -2.57,7.46 -5.46,11.86 -11.22,17.25 -8.59,8.03 -23.74,13.45 -35.39,11.12zm-448.21 13.84c-1.53,-1.62 -3.1,-3.79 -4.35,-5.64 -1.78,-2.64 -3.14,-4.83 -1.65,-7.97 1.02,-2.15 5.69,-7.58 7.28,-9.59 5.06,-6.4 10.16,-12.77 15.28,-19.12 9.76,-12.12 19.57,-24.44 29.67,-36.27 7.56,-8.85 21.64,-23.13 32.96,-26.75 5.77,-1.85 15.93,-1.97 21.63,0.07 8.51,3.05 12.97,8.58 17.29,16.34 2.88,5.16 2.21,17.41 -0.29,22.68 -2.54,5.36 -6.97,10.79 -11.51,14.62 -5.15,4.35 -14.37,9.99 -20.37,13.21 -4.53,2.43 -9.04,4.92 -13.55,7.38 -7.69,4.21 -15.54,8.31 -23.39,12.23 -4.72,2.36 -9.71,4.73 -14.31,7.29 -3.63,2.03 -27.36,14.16 -29.9,14.16 -1.74,0 -3.65,-1.44 -4.8,-2.66zm-1554.04 73.8c4.55,-7.94 12.76,-17.91 18.47,-23.55 22.92,-22.64 49.7,-30.96 81.65,-30.92 16.33,0.02 35.64,2.07 50.53,9.23 26.82,12.9 44.06,33.43 51.28,62.36 2.39,9.56 3.21,17.56 3.6,27.48 1.02,25.77 0.61,52.13 0.62,77.93 0,19.14 0.06,38.28 0.23,57.42 0.08,8.4 -0.37,19.46 0.51,27.69 0.72,6.75 2.44,12.96 7.71,17.54 7.58,6.58 24.26,8.07 33.76,9.2l7.61 0.9 0.29 11.56c0.07,2.52 0.49,10.2 -1.44,12.1 -2.18,2.15 -23.15,1.58 -26.14,1.6 -29.53,0.18 -59.09,-0.02 -88.63,-0.16 -4.52,-0.02 -44.54,0.95 -48.11,-2.22 -2.81,-2.5 -2.38,-7.82 -2.38,-11.25 0,-4.61 -0.3,-13.13 6.31,-13.13 5.33,0 22.98,-3.13 28.17,-4.81 4.42,-1.43 9.78,-4.95 11.94,-9.13 3.09,-5.99 3.98,-21.59 4.25,-28.33 1.09,-28.33 0.54,-57.81 0.59,-86.22 0.04,-22.69 0.59,-46.1 -0.31,-68.76 -0.32,-8.15 -1.14,-12.86 -3.17,-20.55 -3.07,-11.66 -12.32,-23.13 -23.28,-28.23 -15.91,-7.4 -38.96,-6.63 -55.51,-1.22 -16.31,5.33 -30.79,16.38 -40.25,30.69 -7.51,11.34 -13.01,26.83 -14.65,40.35 -0.86,7.09 -0.44,17.27 -0.52,24.55 -0.16,16.03 -0.22,32.06 -0.24,48.1 -0.02,16.15 -0.01,32.31 0.09,48.46 0.05,8.03 -0.3,17.76 0.44,25.69 2.21,23.7 14.17,25.34 36.07,28.06 2.42,0.3 10.1,1.31 11.94,2.81 2.84,2.33 2.1,8.31 1.98,11.57 -0.09,2.32 -0.28,9.34 -1.99,11.02 -2.81,2.76 -162.06,2.16 -164.94,-0.69 -2.61,-2.57 -2.7,-19.09 -0.55,-22 1.93,-2.6 8.1,-2.9 11.04,-3.17 6.28,-0.58 20.56,-2.63 25.79,-5.27 3.77,-1.9 7.28,-5.75 9.2,-9.5 3.49,-6.79 3.59,-19.13 3.86,-26.53 1.29,-35.67 0.76,-72.07 0.76,-107.77 0,-22.22 0.19,-44.57 -0.23,-66.79 -0.08,-4.82 0,-11.1 -1.23,-15.82 -1.02,-3.94 -1.82,-5.77 -4.54,-8.77 -6.94,-7.63 -20.17,-8.37 -29.76,-9.29 -2.23,-0.21 -11.56,-0.88 -13.12,-2.4 -1.61,-1.59 -1.63,-8.93 -1.7,-11.12 -0.51,-16 3.73,-14.31 19.01,-15.1 9.39,-0.48 18.83,-1.14 28.2,-1.91 11.14,-0.91 22.29,-1.73 33.44,-2.49 7.66,-0.52 15.34,-1.02 23,-1.61 4.29,-0.33 8.06,-1.04 9.48,4.25 1.54,5.75 0.83,20.19 0.83,26.36 0,2.57 -0.21,15.04 0.04,21.8zm-703.34 200.4c-0.81,1.09 -1.69,2.56 -2.03,3.16 -1.3,2.28 -2.61,4.54 -3.92,6.81 -1.33,2.3 -2.69,4.63 -3.96,6.96 -0.61,1.12 -1.47,2.39 -2.27,3.38 -3.87,4.83 -8.92,14.33 -12.19,19.86 -1.45,2.44 -8.54,14.63 -10.47,16.03 -2.37,1.72 -13.39,1.3 -15.93,-0.11 -2.54,-1.42 -2.6,-3.9 -2.7,-6.53 -0.31,-7.99 0.08,-16.5 0.23,-24.51 0.92,-50.59 0.8,-101.43 1.05,-152.04 0.31,-63.33 0.64,-126.68 0.64,-190.01 0,-14.05 0.16,-28.26 -0.23,-42.3 -0.11,-4.08 -0.22,-8.06 -1.2,-12.03 -4.08,-16.68 -15.32,-18.52 -31.06,-20.03 -3.02,-0.28 -9.94,-0.88 -12.65,-1.94l-3.82 -1.49 0 -10.96c0,-2.65 -0.36,-10.13 1.97,-11.98 3,-2.39 37.92,-3.87 42.82,-4.11 11.07,-0.53 22.17,-1.21 33.23,-1.99 3.82,-0.27 29.81,-3.15 32.13,0.76 1.7,2.85 0.62,164.97 0.42,181.73 -0.04,3.72 -0.71,27.67 -0.26,38.41 9.63,-15.74 20.86,-29.53 36.87,-39.18 5.65,-3.41 15.68,-9.36 21.97,-11.11 2.99,-0.83 5.98,-1.75 8.95,-2.64 13.23,-3.98 31.83,-4.52 45.51,-3.08 21.74,2.3 40.24,9.15 58.52,21.16 7.65,5.03 18.98,15.05 25.09,21.9 2.19,2.46 12.89,15.67 12.84,17.98 0.32,0.61 1.33,2.13 1.9,3.02 7.51,11.67 14.73,31.4 17.97,45.03 4.6,19.38 5.97,53.67 3.21,73.43 -1.79,12.84 -4.33,26.12 -8.67,38.37 -2.54,7.18 -6.13,15.94 -9.75,22.63 -0.74,1.38 -1.82,3.23 -2.32,4.26 0.07,1.02 -2.18,4.06 -2.97,5.24 -0.81,1.21 -2.26,3.28 -2.81,4.59 -1.84,4.7 -14.71,19.22 -18.66,23.16 -12.3,12.27 -24.18,23.29 -40.61,29.62 -23.78,9.16 -43.5,13.37 -68.89,11.5 -17.74,-1.3 -36.58,-7.54 -51.19,-17.69 -11.01,-7.65 -21.38,-19.46 -28.74,-30.67 -0.78,-1.2 -1.62,-2.39 -2.47,-3.55 -1.44,-1.95 -2.97,-5.4 -3.94,-7.65 -0.33,-0.77 -0.97,-2.2 -1.6,-3.4zm401.98 64.96c-15.48,-2.22 -28.36,-5.17 -42.82,-11.03 -12.01,-4.87 -19.75,-8.89 -30.29,-16.37 -7.95,-5.64 -19.24,-15.76 -25.55,-23.15 -12.42,-14.54 -20.53,-28.3 -28.18,-45.79 -2.67,-6.12 -6.03,-16.68 -7.25,-23.23 -0.23,-1.2 -0.57,-3.27 -0.95,-4.26 -2.43,-3.93 -3.63,-28.86 -3.75,-35.06 -0.36,-19.03 1.45,-39.33 7.64,-57.43 0.96,-2.82 1.95,-5.68 2.83,-8.53 2.02,-6.56 8.61,-18.88 12.24,-24.94 11.37,-19.04 30.89,-38.1 49.72,-49.86 7.16,-4.47 20.22,-11.16 28.17,-13.79 6.81,-2.25 12.77,-4.04 19.77,-5.48 5.81,-1.2 12.25,-2.02 18.16,-2.54 4.7,-0.41 9.4,-0.82 14.09,-1.25 11.81,-1.06 32.46,2.16 44.34,4.83 32.23,7.26 67.19,30.4 86.36,57.33 5.77,8.1 15.82,26.76 19.05,36.08 4.51,13.02 6.67,22.2 9.07,35.83 2.05,11.61 2.74,35.06 0.88,46.63 -0.64,3.97 -1.28,7.99 -1.8,11.98 -1.88,14.45 -9.67,37.56 -16.9,50.22 -1.51,2.65 -2.96,5.42 -4.32,8.15 -4.63,9.3 -18.63,25.03 -26.47,32.24 -8.26,7.6 -17.03,13.54 -26.49,19.57 -12.72,8.1 -34.65,15.31 -49.59,18.27 -8.56,1.7 -39.41,2.79 -47.96,1.56zm896.97 -47.37c-0.23,0.42 -0.44,0.8 -0.61,1.1 -4.55,8.26 -12.59,18.81 -19.46,25.26 -10.16,9.53 -24.97,17.75 -38.37,21.58 -13.83,3.95 -37.86,4.91 -52.14,2.79 -21.68,-3.22 -40.13,-10.04 -55.82,-25.64 -16.29,-16.19 -23.56,-36.92 -23.56,-59.74 0,-18.31 4.41,-34.07 15.22,-48.89 7.2,-9.86 19.25,-20.25 29.93,-26.2 1.06,-0.59 2.12,-1.19 3.17,-1.8 5.53,-3.22 14.94,-7.51 20.97,-9.72 25.73,-9.44 53.29,-15.2 80.57,-17.63 5.61,-0.5 11.23,-1.03 16.83,-1.64 5.07,-0.56 10.55,-0.81 15.65,-0.82 1.19,-0 6.35,0.01 7.08,-0.11 0.75,-3 0.1,-22.38 0.05,-26.32 -0.19,-16.66 0.73,-26.89 -5.25,-42.41 -3.38,-8.78 -12.17,-18.76 -20.62,-22.91 -15.43,-7.57 -41.95,-7.95 -57.47,-0.51 -12.24,5.86 -22.79,25.87 -27.96,37.69 -4.94,11.29 -9.53,20.97 -21.13,26.38 -4.55,2.12 -8.47,2.05 -13.43,2.05 -6.09,0 -8.8,0.12 -14.22,-2.56 -10.35,-5.13 -14.83,-13.48 -15.54,-24.85 -1.18,-19.02 12.14,-35.45 26.27,-46.53 19.83,-15.57 42.09,-23.21 66.85,-26.98 18.86,-2.88 50.91,-2.09 69.15,3.1 45.08,12.8 70.86,43.41 75.52,90.08 0.9,8.97 0.41,20.7 0.48,29.84 0.15,20.67 0.21,41.35 0.21,62.03 0.01,24.44 -0.18,49 0.24,73.44 0.07,3.86 -0.09,11.56 1.15,15.3 3.72,11.12 13.57,12.8 23.65,9.13 2.92,-1.06 7.41,-3.17 9.73,-5.15 3.81,-3.25 7.87,-0.39 8.59,4.05 0.76,4.69 3.17,15.38 0.11,19.57 -2.42,3.32 -7.94,6.94 -11.59,8.92 -10.19,5.51 -22.99,7.57 -34.47,7.6 -21.44,0.06 -41.88,-6.2 -52.37,-26.2 -4.01,-7.64 -5.8,-15.08 -7.43,-23.27zm1385.07 -196.01c-0.93,-5.28 -1.35,-7.83 -4.38,-12.18 -6.39,-9.2 -14.95,-10.28 -25.54,-12.18 -2.36,-0.43 -11.57,-2 -13.21,-3.58 -1.87,-1.8 -1.99,-9.12 -2.07,-11.59 -0.13,-4.19 -1.3,-10.01 3.03,-12.23 5.11,-2.62 59.62,-5.14 66.24,-5.54 10,-0.6 20.03,-1.22 30.01,-1.99 2.68,-0.21 11.75,-1.32 13.88,0.73 2.87,2.77 1.69,125.45 1.69,133.17 0,37.64 -0.23,75.38 0.22,113.03 0.05,3.73 -0.2,16.99 1.2,20.53 2.83,7.17 6.92,11.23 14.2,13.77 4.71,1.64 20.29,4.53 25.21,4.53 1.69,0 4,0.52 5.24,1.71 2.43,2.34 2.39,19.1 0.57,21.89 -1.99,3.02 -11.77,2.7 -14.87,2.81 -1.86,0.06 -12.31,0.8 -13.07,0.08 -5.52,-0.25 -12.78,0.02 -18.96,-0.05 -14.58,-0.13 -29.16,-0.25 -43.74,-0.38 -6.61,-0.06 -61.82,0.18 -65.5,-1.17 -3.63,-1.33 -2.93,-9.11 -2.93,-12.15 0,-3.44 -0.75,-10.49 2.94,-12.32 3.08,-1.52 13.17,-2.73 16.68,-3.25 7.93,-1.15 15.4,-3.93 19.31,-11.35 3.48,-6.59 3.56,-13.58 3.9,-20.93 1.39,-29.97 0.91,-60.91 1.04,-90.93 0.11,-26.49 0.39,-53.07 0.1,-79.56 -0.07,-6.71 0.01,-14.21 -1.16,-20.84zm-491.96 86.52l-0.27 0.48c-1.76,5.14 1.01,37.44 2.06,44.36 4.03,26.61 13.02,50.44 33.43,68.66 11.93,10.65 26.6,16.27 42.03,19.69 10.66,2.36 31.4,1.9 42.09,-0.51 9.2,-2.08 19.31,-5.68 27.64,-10.06 12.82,-6.74 27.79,-20.21 36.84,-31.59 1.9,-2.38 5,-6.48 8.38,-6.48 2.47,0 7.56,3.35 9.56,4.76 3.16,2.22 6.38,4.46 9.62,6.57 3.59,2.34 5.42,4.21 4.8,8.75 -0.29,2.11 -6.36,9.64 -7.79,11.45 -6.93,8.76 -16.61,18.69 -25.45,25.44 -6.15,4.69 -17.29,12.41 -24.26,15.5 -13.05,5.78 -25.42,9.45 -39.44,12.25 -7.96,1.59 -42.5,2.77 -50.21,1.41 -3.35,-0.59 -6.75,-1.1 -10.12,-1.62 -22.21,-3.48 -41.96,-9.58 -61.21,-21.23 -24.18,-14.63 -42.9,-35.95 -54.6,-61.67 -3.58,-7.85 -9.15,-22.41 -10.57,-30.71 -0.39,-2.31 -1.01,-4.79 -1.65,-7.05 -3.01,-10.62 -3.85,-29.01 -3.85,-40.36 -0,-40.31 13.6,-79.76 41.19,-109.51 24.72,-26.65 51.58,-41.38 87.19,-48.61 10.11,-2.06 35.01,-3.2 45.07,-1.56 19.14,3.12 34.85,6.95 51.86,16.32 23.3,12.84 44.71,36.57 54.99,61.11 4.06,9.69 7.59,22.98 8.78,33.42 0.67,5.85 1.89,35.84 -0.36,39.84l-1.7 3.04 -69.04 -0.53c-35.68,-0.28 -71.36,-0.59 -107.04,-1.06l-37.97 -0.5zm665.17 -112.38c-3.01,-0.79 -20.25,-0.58 -22.61,-0.58 -3.82,0 -23.29,0.9 -26.33,-2.01 -2.58,-2.47 -2.14,-9.59 -2.14,-12.86 0,-12.15 -0.14,-12.99 11.98,-14.8 30.44,-4.53 49.48,-12.76 63.26,-41.08 3.61,-7.43 5.77,-13.9 8.25,-21.82 2.47,-7.88 4.13,-18.14 5.59,-26.32l0.38 -2.16 30.87 0 0.03 2.59c0.15,12.14 0.14,24.3 0.14,36.44 0,13.29 -0.02,26.59 0.18,39.88 0.04,2.33 -0.05,8.85 0.38,12 5.86,0.93 25.51,0.46 29.88,0.46 4.03,0 30.85,-0.7 34.17,1.63 3.6,2.53 2.76,10.02 2.76,13.91 0,2.62 0.27,11.47 -1.75,13.4 -2.41,2.32 -31.46,1.57 -35.02,1.57 -3.13,-0.01 -25.49,-0.45 -30.34,0.34 -1.19,6.96 -0.72,24.9 -0.81,31.37 -0.46,32.11 -0.63,64.23 -0.81,96.34 -0.15,25.84 -0.45,51.76 -0.21,77.6 0.07,6.91 0,14.48 1.11,21.31 1.55,9.61 3.22,18.28 13.84,20.42 6.33,1.28 11.77,-0.58 17.15,-3.95 7.36,-4.62 13.1,-13.22 17.57,-20.48 1.25,-2.02 5.2,-9.18 7.93,-9.18 1.76,0 5.79,1.96 6.81,3.19 1.59,1.29 4.3,2.9 6.19,4.11 2.01,1.3 7,4.71 8.02,6.86 2.06,4.31 -3.41,11.39 -5.64,14.83 -0.66,1.02 -1.83,2.8 -2.26,3.9 -1.74,4.54 -13.65,17.37 -17.63,20.91 -17.45,15.51 -40.65,20.75 -63.46,16.86 -14.04,-2.39 -26.99,-7.88 -37.24,-17.94 -12.47,-12.24 -17.76,-29.61 -19.69,-46.56 -1.07,-9.38 -0.62,-21.46 -0.66,-30.96 -0.12,-27.98 0.03,-55.97 0.16,-83.94 0.13,-28.34 0.36,-56.72 0.22,-85.06 -0.02,-3.02 0.23,-17.1 -0.26,-20.24zm-402.33 0c-3.01,-0.79 -20.25,-0.58 -22.61,-0.58 -3.81,0 -23.29,0.9 -26.33,-2.01 -2.58,-2.47 -2.14,-9.59 -2.14,-12.86 0,-12.15 -0.14,-12.99 11.98,-14.8 30.44,-4.53 49.48,-12.76 63.26,-41.08 3.61,-7.43 5.77,-13.9 8.25,-21.82 2.47,-7.88 4.13,-18.14 5.59,-26.32l0.38 -2.16 30.87 0 0.03 2.59c0.15,12.14 0.14,24.3 0.14,36.44 0,13.29 -0.02,26.59 0.19,39.88 0.04,2.33 -0.05,8.85 0.38,12 5.86,0.93 25.51,0.46 29.88,0.46 4.03,0 30.85,-0.7 34.18,1.63 3.59,2.53 2.76,10.02 2.76,13.91 0,2.62 0.27,11.47 -1.75,13.4 -2.41,2.32 -31.46,1.57 -35.02,1.57 -3.13,-0.01 -25.49,-0.45 -30.34,0.34 -1.19,6.96 -0.71,24.9 -0.81,31.37 -0.46,32.11 -0.63,64.23 -0.82,96.34 -0.15,25.84 -0.45,51.76 -0.21,77.6 0.06,6.91 0,14.48 1.11,21.31 1.55,9.61 3.22,18.28 13.84,20.42 6.33,1.28 11.77,-0.58 17.15,-3.95 7.36,-4.62 13.1,-13.22 17.57,-20.48 1.25,-2.02 5.19,-9.18 7.92,-9.18 1.76,0 5.79,1.96 6.81,3.19 1.58,1.29 4.3,2.9 6.19,4.11 2.01,1.3 7,4.71 8.02,6.86 2.05,4.31 -3.41,11.39 -5.64,14.83 -0.66,1.02 -1.83,2.8 -2.26,3.9 -1.74,4.54 -13.65,17.37 -17.63,20.91 -17.44,15.51 -40.65,20.75 -63.46,16.86 -14.04,-2.39 -26.99,-7.88 -37.24,-17.94 -12.47,-12.24 -17.76,-29.61 -19.69,-46.56 -1.07,-9.38 -0.62,-21.46 -0.66,-30.96 -0.12,-27.98 0.03,-55.97 0.16,-83.94 0.13,-28.34 0.36,-56.72 0.21,-85.06 -0.02,-3.02 0.23,-17.1 -0.26,-20.24zm-576.93 417.66c-0.49,-0.04 -1.03,-0.04 -1.52,-0.06 -1.28,-0.04 -2.56,-0.07 -3.85,-0.09 -4.32,-0.09 -8.65,-0.15 -12.97,-0.22 -13.6,-0.19 -27.19,-0.33 -40.79,-0.45 -14.07,-0.12 -28.14,-0.28 -42.21,-0.52 -4.38,-0.08 -8.76,-0.15 -13.14,-0.27 -1.25,-0.03 -2.49,-0.07 -3.74,-0.12 -0.69,-0.03 -1.68,-0.04 -2.31,-0.3 -2.14,-0.86 -2.97,-2.86 -3.3,-5 -0.45,-2.86 -0.3,-6.34 -0.19,-9.23 0.1,-2.71 0.03,-7.07 1.81,-9.26 1.91,-2.35 5.32,-2.2 8.07,-2.2 6.06,-0.02 12.34,-0.86 18.17,-2.52 4.16,-1.18 9.36,-3.18 12.63,-6.1 6.09,-5.43 7.09,-20.36 7.49,-27.86 0.08,-1.51 0.06,-3.09 0.08,-4.61 0.04,-3.62 0.07,-7.24 0.09,-10.87 0.09,-12.48 0.16,-24.95 0.23,-37.43 0.2,-39.32 0.34,-78.64 0.47,-117.96 0.1,-33.15 0.23,-66.3 0.26,-99.45 0.02,-17.17 0.07,-34.37 -0.2,-51.54 -0.07,-4.36 -0.15,-8.74 -0.35,-13.1 -0.11,-2.46 -0.25,-4.96 -0.55,-7.4 -0.31,-2.55 -0.74,-4.05 -1.71,-6.35 -1.29,-3.06 -4.81,-7.05 -7.72,-8.65 -2.45,-1.35 -5.68,-2.26 -8.39,-2.89 -4.15,-0.98 -8.44,-1.6 -12.68,-2 -2.59,-0.25 -5.3,-0.44 -7.86,-0.9 -1.83,-0.32 -3.75,-0.84 -5.17,-2.11 -1.44,-1.28 -2.02,-2.98 -2.26,-4.84 -0.27,-2.07 -0.21,-4.36 -0.21,-6.45 0,-2.12 -0.03,-4.34 0.18,-6.45 0.15,-1.6 0.47,-3.25 1.43,-4.58 2.01,-2.8 5.89,-2.64 8.97,-2.65 2.17,-0.01 4.35,-0.12 6.52,-0.23 2.7,-0.14 5.41,-0.31 8.1,-0.52 6.95,-0.55 13.91,-1.08 20.87,-1.6 7.07,-0.53 14.15,-1.07 21.22,-1.65 6.6,-0.54 13.2,-1.1 19.81,-1.59 3.53,-0.27 7.11,-0.55 10.65,-0.66 1.56,-0.05 3.56,-0.12 5.09,0.24 1.28,0.31 2.15,0.89 2.9,1.96 1.24,1.78 1.24,6.34 1.3,8.44 0.24,8.11 0.13,16.32 0.1,24.44 -0.03,6.8 -0.03,13.62 0.07,20.43 0.01,0.81 0.03,1.62 0.04,2.43 7.51,-13.79 17.36,-26.31 29.49,-36.36 13.02,-10.78 30.73,-18.44 47.26,-21.92 3.57,-0.75 7.26,-1.19 10.89,-1.48 4.14,-0.34 8.3,-0.48 12.46,-0.47 4.15,0.01 8.31,0.17 12.44,0.53 3.62,0.32 7.3,0.77 10.84,1.55 27.45,5.98 48.49,17.47 67.86,37.82 26.87,28.22 37.92,63.78 40.55,102.09 2.05,29.85 -1.75,57.51 -11.47,85.82 -0.91,2.64 -2.01,5.26 -3.15,7.81 -1.39,3.09 -2.87,6.15 -4.41,9.16 -3.01,5.9 -6.32,11.91 -10,17.43 -3.57,5.38 -7.65,10.56 -11.89,15.43 -3.86,4.43 -8.13,8.93 -12.66,12.69 -1.15,0.96 -2.29,1.91 -3.42,2.89 -0.55,0.47 -1.21,1.01 -1.65,1.45 -0.57,0.75 -1.8,1.64 -2.65,2.26 -1.43,1.05 -2.91,2.05 -4.39,3.02 -3.51,2.31 -7.13,4.55 -10.8,6.58 -21.07,11.66 -41.19,16.29 -65.28,16.21 -23.03,-0.08 -42.46,-4.29 -61.44,-17.56 -9.55,-6.68 -22.28,-22 -27.43,-32.48 -0.1,-0.2 -0.24,-0.48 -0.41,-0.78l-0.19 13.96c-0.13,9.85 -0.14,19.7 -0.17,29.55 -0.04,14.08 -0.05,28.17 -0.03,42.26 0.02,11.01 0.01,22.03 0.14,33.04 0.07,6.01 0.13,12.13 0.57,18.13 0.2,2.73 0.49,5.84 1.31,8.47 0.56,1.8 1.39,3.19 2.39,4.77 2.71,4.26 7.09,6.84 11.71,8.62 7.51,2.91 16.57,4.17 24.55,4.97 2.89,0.29 5.79,0.65 8.66,1.13 1.44,0.24 4.35,0.66 5.46,1.62 1.22,1.07 1.46,3.25 1.63,4.78 0.23,2.03 0.32,4.1 0.35,6.14 0.05,2.51 0.11,8.97 -1.14,11.06 -1.18,1.99 -4.09,2.15 -6.16,2.31 -1.98,0.15 -3.97,0.21 -5.95,0.26 -3.2,0.09 -6.41,0.13 -9.61,0.18 -4.47,0.06 -8.95,0.1 -13.42,0.08 -1.4,-0.01 -2.81,-0.02 -4.21,-0.06 -0.67,-0.02 -1.4,-0 -2.06,-0.16zm-261.07 -178.28c10.06,-2.38 18.66,-6.05 26.5,-12.82 5.16,-4.46 8.63,-7.71 12.71,-13.11 18.92,-25.05 24.69,-58.72 26.2,-89.33 0.59,-12.02 0.81,-36.37 -1.47,-47.81 -0.54,-2.72 -0.95,-5.62 -1.24,-8.38 -0.71,-6.66 -3.41,-17.48 -5.69,-23.82 -0.82,-2.27 -1.65,-4.54 -2.45,-6.81 -1.83,-5.16 -6.12,-12.86 -9.21,-17.46 -9.19,-13.7 -21.74,-22.63 -37.6,-27.17 -6.83,-1.96 -12.58,-1.76 -19.7,-1.75 -15.93,0.02 -20.66,1.21 -35.24,7.74 -13.42,6.01 -25.96,18.15 -33.86,30.5 -10.42,16.28 -15.47,33.44 -18.79,52.38 -2.58,14.72 -2.02,52.08 0,67.19 3.74,27.98 11.43,58.13 34.46,76.61 8.59,6.9 17.01,11.11 27.75,13.54 7.79,1.77 12.39,1.82 20.5,1.91 5.98,0.07 11.3,-0.03 17.13,-1.41zm-1516.46 -9.06c11.09,-0.95 16.81,-3.07 26.85,-8.05 5.32,-2.64 8.69,-4.76 12.9,-8.98 5.71,-5.72 11.15,-12.38 15.04,-19.47 1.15,-2.09 2.3,-4.22 3.49,-6.29 6.31,-10.87 11.64,-27.75 14.09,-40.18 2.87,-14.58 4.04,-31.22 4.04,-46.13 0.01,-30.95 -1.58,-60.63 -18.05,-87.58 -6.25,-10.23 -15.46,-19.7 -26.19,-25.23 -16.39,-8.45 -40.29,-9.97 -57.75,-4.06 -3.35,1.13 -14.09,5.91 -16.52,7.71 -0.66,0.94 -5.22,3.46 -6.51,4.21 -11.99,6.9 -25.41,24.23 -31.03,36.87 -4.69,10.56 -11.14,30.49 -11.14,41.77 0,3.65 -0.55,8.07 -1.17,11.7 -1,5.87 -0.91,12.27 -0.73,18.21 0.54,18.02 1.23,41.13 6.81,58.4 3.37,10.41 5.98,18.43 11.42,27.86 1.53,2.64 2.99,5.35 4.44,8.03 9.03,16.81 31.3,28.39 49.81,30.88 8.53,1.14 11.53,1.08 20.18,0.34zm333.62 5.76c12.44,-2.18 18.94,-4.62 29.3,-11.79 14.41,-9.98 22.31,-21.63 29.78,-37.28 7.78,-16.28 11.49,-34.64 13.48,-52.47 1.09,-9.8 1.07,-20.78 1.07,-30.66 0,-8.59 0.2,-19.67 -1.06,-28.11 -2.32,-15.52 -4.93,-28.01 -10.57,-42.6 -7.55,-19.57 -21.02,-36.51 -39.73,-46.38 -5.88,-3.11 -17.81,-6.32 -24.48,-7.23 -6.88,-0.94 -22.26,-0.92 -28.89,0.67 -33.52,8 -51.03,29.56 -61.41,61.68 -8,24.73 -9.65,47.31 -8.93,73.27 0.7,25.47 4.33,51.55 15.26,74.81 8.64,18.37 26.49,37.53 46.32,43.62 13.16,4.04 26.32,4.86 39.87,2.49zm864.02 -126.4c-0.08,0.02 -0.16,0.03 -0.22,0.04 -4.08,0.64 -8.69,0.92 -12.82,1.28 -15.49,1.35 -33.23,3.57 -48.15,7.73 -4.17,1.16 -13.35,3.77 -16.94,5.73 -1.9,1.04 -3.99,2 -5.95,2.92 -8.41,3.97 -14.05,8.25 -20.58,14.91 -12.6,12.85 -15.69,24.33 -15.69,42.21 0,14.43 2.97,29.75 13.27,40.53 7.02,7.34 15.05,11.18 25.08,12.67 6.95,1.03 18.86,0.21 25.65,-1.65 17,-4.66 30.54,-15.85 40.22,-30.4 2.4,-3.61 10.76,-18.96 11.1,-22.64 0,-1.29 0.49,-3.04 1.1,-4.18 0.9,-2.01 1.79,-6.95 2.25,-9.23 2.1,-10.54 1.88,-22.91 2.06,-33.62 0.05,-2.61 0.64,-22.62 -0.37,-26.28zm1040.14 -26.99c1.03,-2.83 -0.5,-15.83 -0.82,-18.39 -1.88,-15.33 -5.24,-31.88 -12.89,-45.47 -16.27,-28.89 -54.61,-32.66 -82.11,-18.6 -27.86,14.25 -41.66,47.59 -46.95,76.75 -0.12,0.68 -0.65,3.47 -0.81,3.8 3.77,1.25 34.98,1.09 39.87,1.16 26.55,0.39 53.12,0.84 79.67,0.91 4.24,0.01 19.98,0.5 24.04,-0.17zm-374.01 156.69c10.05,-2.38 18.66,-6.05 26.5,-12.82 5.16,-4.46 8.63,-7.71 12.71,-13.11 18.92,-25.05 24.69,-58.72 26.2,-89.33 0.59,-12.02 0.8,-36.37 -1.47,-47.81 -0.54,-2.72 -0.95,-5.62 -1.24,-8.38 -0.71,-6.66 -3.4,-17.48 -5.69,-23.82 -0.83,-2.27 -1.65,-4.54 -2.45,-6.81 -1.82,-5.16 -6.12,-12.86 -9.21,-17.46 -9.2,-13.7 -21.75,-22.63 -37.6,-27.17 -6.83,-1.96 -12.58,-1.76 -19.7,-1.75 -15.93,0.02 -20.66,1.21 -35.24,7.74 -13.42,6.01 -25.96,18.15 -33.87,30.5 -10.42,16.28 -15.47,33.44 -18.79,52.38 -2.58,14.72 -2.02,52.08 0,67.19 3.74,27.98 11.43,58.13 34.46,76.61 8.6,6.9 17.01,11.11 27.75,13.54 7.79,1.77 12.39,1.82 20.5,1.91 5.98,0.07 11.31,-0.03 17.13,-1.41z"/>
   </g>
  </g>
 </g>
</svg>
