<?xml version="1.0" encoding="UTF-8"?>
<!DOCTYPE svg PUBLIC "-//W3C//DTD SVG 1.1//EN" "http://www.w3.org/Graphics/SVG/1.1/DTD/svg11.dtd">
<!-- Creator: CorelDRAW -->
<svg xmlns="http://www.w3.org/2000/svg" xml:space="preserve" width="152.4mm" height="152.4mm" version="1.1" style="shape-rendering:geometricPrecision; text-rendering:geometricPrecision; image-rendering:optimizeQuality; fill-rule:evenodd; clip-rule:evenodd"
viewBox="0 0 4981.71 4981.71"
 xmlns:xlink="http://www.w3.org/1999/xlink"
 xmlns:xodm="http://www.corel.com/coreldraw/odm/2003">
 <defs>
  <style type="text/css">
   <![CDATA[
    .fil0 {fill:none}
    .fil1 {fill:#EBDB18}
    .fil2 {fill:#F15725}
   ]]>
  </style>
 </defs>
 <g id="Capa_x0020_1">
  <metadata id="CorelCorpID_0Corel-Layer"/>
  <g id="_2981981866768">
   <rect class="fil0" x="-0" y="-0" width="4981.71" height="4981.71"/>
   <path class="fil1" d="M1733.46 202.69c196.88,-28.66 411.4,-45.69 629.34,-50.97l0 -0.8c42.57,-0.76 85.22,-1.08 127.84,-0.95l0.44 0c42.63,-0.13 85.28,0.19 127.84,0.95l0 0.8c217.93,5.28 432.46,22.32 629.34,50.97 381.88,55.58 665,148.7 978.03,314.21 122.58,64.81 204.13,165.9 241.52,299.43 178.71,638.16 194.04,1463.05 -116.13,2187.98 -334.31,781.33 -958.27,1363.62 -1706.14,1748.07l-26.61 13.68 0 0.06 -6.22 3.14 -120.72 62.06 -1.12 0.47 -1.13 -0.47 -120.72 -62.06 -6.22 -3.14 0 -0.06 -26.61 -13.68c-747.87,-384.45 -1371.83,-966.73 -1706.14,-1748.07 -310.18,-724.93 -294.84,-1549.81 -116.13,-2187.98 37.39,-133.53 118.94,-234.61 241.52,-299.43 313.03,-165.51 596.16,-258.63 978.03,-314.21z"/>
   <path class="fil2" d="M1723.5 172.59c199.47,-29.03 416.81,-46.29 637.61,-51.64l0 -0.81c43.13,-0.77 86.34,-1.1 129.52,-0.96l0.45 0c43.19,-0.13 86.4,0.19 129.52,0.96l0 0.81c220.8,5.35 438.15,22.61 637.62,51.64 386.9,56.32 673.74,150.66 990.89,318.35 124.19,65.66 206.81,168.08 244.7,303.36 181.06,646.56 196.6,1482.29 -117.66,2216.75 -338.71,791.62 -970.87,1381.56 -1728.58,1771.06l-26.96 13.86 0 0.06 -6.3 3.18 -122.31 62.87 -1.13 0.47 -1.14 -0.47 -122.31 -62.87 -6.3 -3.18 0 -0.06 -26.96 -13.86c-757.71,-389.51 -1389.88,-979.45 -1728.58,-1771.06 -314.26,-734.46 -298.72,-1570.19 -117.66,-2216.75 37.89,-135.28 120.5,-237.7 244.7,-303.36 317.15,-167.69 604,-262.03 990.89,-318.35zm49.47 339.86c-347.49,50.58 -661.54,148.7 -932.34,308.26 -436.06,1402.57 101.05,2859.45 1650.53,3655.97 1565.61,-790.07 2122.5,-2253.4 1686.44,-3655.97 -264.78,-156.01 -570.88,-253.28 -909.18,-304.81 -444.76,-67.75 -1049.82,-68.31 -1495.45,-3.45z"/>
   <path class="fil2" d="M2498.46 1126.35c238.86,0 432.5,193.64 432.5,432.5 0,238.87 -193.64,432.5 -432.5,432.5 -238.86,0 -432.5,-193.64 -432.5,-432.5 0,-238.86 193.64,-432.5 432.5,-432.5zm0 275.1c86.93,0 157.4,70.47 157.4,157.4 0,86.93 -70.47,157.4 -157.4,157.4 -86.93,0 -157.4,-70.47 -157.4,-157.4 0,-86.93 70.47,-157.4 157.4,-157.4zm-670.4 682.96c86.93,0 157.4,70.47 157.4,157.4 0,86.93 -70.47,157.4 -157.4,157.4 -86.93,0 -157.4,-70.47 -157.4,-157.4 0,-86.93 70.47,-157.4 157.4,-157.4zm-118.84 954.14c-388.5,-57.45 -686.64,-392.26 -686.64,-796.73 0,-400.7 292.61,-733.01 675.79,-795.04 54.57,-393.11 391.96,-695.78 800.09,-695.78 410.33,0 749.18,305.92 800.98,702.12 163.09,24.91 319.96,99.85 445.5,224.96 314.23,313.17 315.09,823.65 1.92,1137.88l-671.93 674.18c-313.17,314.22 -823.64,315.08 -1137.87,1.91 -127.79,-127.36 -203.75,-287.35 -227.84,-453.5zm632.42 -279.25l671.92 -674.18c89.57,-89.87 236.38,-90.11 326.25,-0.55l0.01 0c89.87,89.57 90.11,236.38 0.54,326.24l-671.93 674.18c-89.57,89.87 -236.38,90.11 -326.24,0.54l-0.01 -0c-89.87,-89.57 -90.11,-236.38 -0.54,-326.24z"/>
  </g>
 </g>
</svg>
