<?xml version="1.0" encoding="UTF-8"?>
<!DOCTYPE svg PUBLIC "-//W3C//DTD SVG 1.1//EN" "http://www.w3.org/Graphics/SVG/1.1/DTD/svg11.dtd">
<!-- Creator: CorelDRAW -->
<svg xmlns="http://www.w3.org/2000/svg" xml:space="preserve" width="152.4mm" height="152.4mm" version="1.1" style="shape-rendering:geometricPrecision; text-rendering:geometricPrecision; image-rendering:optimizeQuality; fill-rule:evenodd; clip-rule:evenodd"
viewBox="0 0 15240 15240"
 xmlns:xlink="http://www.w3.org/1999/xlink"
 xmlns:xodm="http://www.corel.com/coreldraw/odm/2003">
 <defs>
  <style type="text/css">
   <![CDATA[
    .fil0 {fill:none}
    .fil1 {fill:#EBDB18}
    .fil2 {fill:#F15725}
   ]]>
  </style>
 </defs>
 <g id="Capa_x0020_1">
  <metadata id="CorelCorpID_0Corel-Layer"/>
  <g id="_2981977632528">
   <rect class="fil0" x="-0" y="-0" width="15240" height="15240"/>
   <ellipse id="contour" class="fil1" cx="7620.01" cy="7620" rx="7200.69" ry="7200.73"/>
   <path id="contour_112" class="fil2" d="M7620.01 364.25c4007.22,0 7255.71,3248.52 7255.71,7255.75 0,4007.22 -3248.49,7255.74 -7255.71,7255.74 -4007.22,0 -7255.7,-3248.52 -7255.7,-7255.74 0,-4007.23 3248.48,-7255.75 7255.7,-7255.75zm-0.06 985.8c3462.82,0 6270.01,2807.18 6270.01,6270 0,3462.82 -2807.19,6270.01 -6270.01,6270.01 -3462.82,0 -6270,-2807.19 -6270,-6270.01 0,-3462.82 2807.18,-6270 6270,-6270z"/>
   <path class="fil2" d="M7641.13 4297.32c706.94,0 1280.02,573.08 1280.02,1280.01 0,706.94 -573.08,1280.02 -1280.02,1280.02 -706.93,0 -1280.01,-573.08 -1280.01,-1280.02 0,-706.93 573.08,-1280.01 1280.01,-1280.01zm0 814.18c257.28,0 465.84,208.56 465.84,465.84 0,257.27 -208.56,465.84 -465.84,465.84 -257.27,0 -465.84,-208.57 -465.84,-465.84 0,-257.28 208.57,-465.84 465.84,-465.84zm-1984.1 2021.25c257.28,0 465.84,208.56 465.84,465.84 0,257.28 -208.56,465.84 -465.84,465.84 -257.28,0 -465.84,-208.56 -465.84,-465.84 0,-257.28 208.56,-465.84 465.84,-465.84zm-351.7 2823.83c-1149.79,-170.04 -2032.17,-1160.92 -2032.17,-2357.99 0,-1185.9 865.99,-2169.39 2000.05,-2352.97 161.51,-1163.45 1160.02,-2059.22 2367.92,-2059.22 1214.41,0 2217.25,905.4 2370.55,2077.98 482.68,73.73 946.95,295.51 1318.49,665.8 929.99,926.86 932.53,2437.66 5.66,3367.63l-1988.61 1995.28c-926.85,929.96 -2437.62,932.49 -3367.59,5.65 -378.2,-376.93 -603,-850.42 -674.3,-1342.16zm1871.68 -826.45l1988.61 -1995.28c265.08,-265.97 699.57,-266.69 965.54,-1.61l0.02 0.01c265.97,265.08 266.69,699.57 1.61,965.54l-1988.61 1995.28c-265.08,265.97 -699.57,266.69 -965.54,1.61l-0.02 -0.01c-265.97,-265.08 -266.69,-699.57 -1.61,-965.54z"/>
  </g>
 </g>
</svg>
