<?xml version="1.0" encoding="UTF-8"?>
<!DOCTYPE svg PUBLIC "-//W3C//DTD SVG 1.1//EN" "http://www.w3.org/Graphics/SVG/1.1/DTD/svg11.dtd">
<!-- Creator: CorelDRAW -->
<svg xmlns="http://www.w3.org/2000/svg" xml:space="preserve" width="152.4mm" height="152.4mm" version="1.1" style="shape-rendering:geometricPrecision; text-rendering:geometricPrecision; image-rendering:optimizeQuality; fill-rule:evenodd; clip-rule:evenodd"
viewBox="0 0 15240 15240"
 xmlns:xlink="http://www.w3.org/1999/xlink"
 xmlns:xodm="http://www.corel.com/coreldraw/odm/2003">
 <defs>
  <style type="text/css">
   <![CDATA[
    .fil0 {fill:none}
    .fil3 {fill:black}
    .fil2 {fill:#36C2DD}
    .fil1 {fill:white}
    .fil4 {fill:#36C2DD;fill-rule:nonzero}
   ]]>
  </style>
 </defs>
 <g id="Capa_x0020_1">
  <metadata id="CorelCorpID_0Corel-Layer"/>
  <g id="_2981955451088">
   <rect class="fil0" x="-0" y="-0" width="15240" height="15240"/>
   <path class="fil1" d="M5302.97 620.06c602.29,-87.67 1258.56,-139.78 1925.26,-155.94l0 -2.44c130.23,-2.33 260.7,-3.31 391.1,-2.91l1.35 0c130.4,-0.4 260.88,0.57 391.1,2.91l0 2.44c666.7,16.16 1322.97,68.27 1925.26,155.94 1168.23,170.04 2034.35,454.91 2991.98,961.24 375,198.28 624.47,507.53 738.86,916.01 546.7,1952.26 593.62,4475.73 -355.27,6693.43 -1022.72,2390.25 -2931.53,4171.57 -5219.41,5347.67l-81.42 41.85 0 0.18 -19.03 9.6 -369.3 189.85 -3.43 1.43 -3.46 -1.43 -369.29 -189.85 -19.04 -9.6 0 -0.18 -81.42 -41.85c-2287.88,-1176.1 -4196.69,-2957.42 -5219.4,-5347.67 -948.9,-2217.7 -901.98,-4741.17 -355.27,-6693.43 114.39,-408.48 363.85,-717.73 738.85,-916.01 957.63,-506.33 1823.76,-791.2 2991.98,-961.24z"/>
   <path class="fil2" d="M5272.5 527.99c610.21,-88.82 1275.11,-141.62 1950.58,-157.99l0 -2.47c131.94,-2.36 264.13,-3.35 396.24,-2.95l1.37 0c132.12,-0.4 264.31,0.58 396.24,2.95l0 2.47c675.47,16.37 1340.37,69.17 1950.59,157.99 1183.59,172.28 2061.1,460.89 3031.33,973.89 379.93,200.88 632.68,514.2 748.57,928.05 553.9,1977.94 601.43,4534.6 -359.94,6781.46 -1036.17,2421.7 -2970.08,4226.45 -5288.06,5418.02l-82.49 42.4 0 0.18 -19.28 9.73 -374.16 192.34 -3.47 1.45 -3.5 -1.45 -374.16 -192.34 -19.28 -9.73 0 -0.18 -82.49 -42.4c-2317.98,-1191.57 -4251.89,-2996.32 -5288.05,-5418.02 -961.38,-2246.86 -913.85,-4803.52 -359.95,-6781.46 115.9,-413.85 368.64,-727.17 748.58,-928.05 970.22,-513 1847.74,-801.61 3031.33,-973.89zm151.33 1039.69c-1063.03,154.73 -2023.76,454.89 -2852.19,943.01 -1334,4290.73 309.12,8747.6 5049.28,11184.3 4789.49,-2416.98 6493.14,-6893.57 5159.14,-11184.3 -810,-477.25 -1746.44,-774.83 -2781.36,-932.47 -1360.59,-207.25 -3211.6,-208.97 -4574.87,-10.54z"/>
   <path class="fil3" d="M3138.95 3667.41l8494.75 0c351.11,0 638.38,287.27 638.38,638.38l0 3708.35c0,351.11 -287.27,638.38 -638.38,638.38l-6004.25 0 -1731.53 1722.06 0 -1722.06 -758.97 0 0 -4985.11z"/>
   <g inkscape:connector-curvature="0">
    <path id="path18" class="fil4" d="M5124.72 5989.93c190.93,-68.22 299.99,-213.68 299.99,-499.97l0 -454.55c0,-413.57 -222.72,-618.09 -677.2,-618.09l-854.54 0 0 3272.53 863.61 0c454.54,0 681.8,-204.55 681.8,-622.74l0 -649.92c0,-240.87 -95.5,-372.68 -313.66,-427.26l0 0 0 0zm-631.75 -1040.87l199.97 0c86.36,0 127.27,40.94 127.27,127.29l0 563.55c0,86.4 -40.91,127.34 -127.27,127.34l-199.97 0 0 -818.17 0 -0.01zm336.36 2081.72c0,86.32 -40.91,127.27 -127.31,127.27l-209.05 0 0 -886.26 209.05 0c86.4,0 127.31,40.83 127.31,127.18l0 631.81zm1422.64 -1790.8l0 -277.32 -577.23 0 0 2727.2 599.93 0 0 -1963.56c90.9,-81.82 218.17,-136.34 427.26,-136.34l0 -650.01c-236.35,-13.59 -340.9,104.58 -449.96,300.03l0 0zm0 0l0 0 0 0zm1404.43 -313.63l-145.46 0c-427.24,0 -636.36,190.87 -636.36,581.79l0 372.68 554.56 0 0 -349.98c0,-63.64 27.27,-90.88 90.89,-90.88l90.9 0c63.65,0 90.92,27.24 90.92,90.88l0 445.44 -540.86 231.76c-227.26,95.51 -322.75,231.86 -322.75,513.61l0 545.46c0,300.05 163.68,450 418.18,450l9.09 0c190.91,0 354.49,-104.57 449.96,-227.28l0 200.02 577.25 0 0 -2181.72c0,-390.91 -209.1,-581.78 -636.32,-581.78l0 0 0 0zm45.44 2227.08c-50,27.32 -95.43,45.51 -154.53,45.51 -95.45,0 -136.36,-36.33 -136.36,-131.83l0 -299.99c0,-104.48 18.19,-154.47 109.08,-199.94l181.81 -95.46 0 681.71 0 0zm0 0l0 0 0 0zm3249.87 -2227.08l-163.68 0c-440.8,0 -663.66,199.99 -663.66,609.03l0 1581.72c0,409.15 222.85,609.11 663.66,609.11l163.68 0c440.81,0 663.55,-199.96 663.55,-609.11l0 -1581.72c0,-409.04 -222.74,-609.03 -663.55,-609.03l0 0zm63.54 2163.47c0,68.23 -31.82,100.03 -99.94,100.03l-90.93 0c-68.22,0 -99.94,-31.8 -99.94,-100.03l0 -1527.21c0,-68.07 31.72,-99.89 99.94,-99.89l90.93 0c68.12,0 99.94,31.83 99.94,99.89l0 1527.21zm-1786.18 -272.67l-222.7 -1854.5 -595.43 0 413.57 2727.2 772.6 0 413.73 -2727.2 -559.08 0 -222.69 1854.5z"/>
   </g>
  </g>
 </g>
</svg>
