<?xml version="1.0" encoding="UTF-8"?>
<!DOCTYPE svg PUBLIC "-//W3C//DTD SVG 1.1//EN" "http://www.w3.org/Graphics/SVG/1.1/DTD/svg11.dtd">
<!-- Creator: CorelDRAW -->
<svg xmlns="http://www.w3.org/2000/svg" xml:space="preserve" width="152.4mm" height="152.4mm" version="1.1" style="shape-rendering:geometricPrecision; text-rendering:geometricPrecision; image-rendering:optimizeQuality; fill-rule:evenodd; clip-rule:evenodd"
viewBox="0 0 15240 15240"
 xmlns:xlink="http://www.w3.org/1999/xlink"
 xmlns:xodm="http://www.corel.com/coreldraw/odm/2003">
 <defs>
  <style type="text/css">
   <![CDATA[
    .fil0 {fill:none}
    .fil3 {fill:black}
    .fil2 {fill:#36C2DD}
    .fil1 {fill:white}
    .fil4 {fill:#36C2DD;fill-rule:nonzero}
   ]]>
  </style>
 </defs>
 <g id="Capa_x0020_1">
  <metadata id="CorelCorpID_0Corel-Layer"/>
  <g id="g1">
   <g id="Capa_x0020_1_146" inkscape:groupmode="layer" inkscape:label="Capa 1">
    <g id="_2982027503072">
     <rect id="rect1" class="fil0" x="0.01" y="0" width="15240" height="15240"/>
     <path id="path1" class="fil1" d="M5302.96 620.08c602.29,-87.67 1258.57,-139.77 1925.25,-155.93l0 -2.44c130.24,-2.34 260.71,-3.32 391.1,-2.9l1.33 0.02c130.39,-0.39 260.88,0.56 391.09,2.89l0 2.44c666.72,16.16 1322.99,68.27 1925.26,155.93 1168.22,170.04 2034.36,454.91 2991.97,961.26 375,198.29 624.45,507.54 738.85,916.02 546.7,1952.27 593.62,4475.74 -355.28,6693.43 -1022.7,2390.24 -2931.5,4171.56 -5219.41,5347.65l-81.43 41.84 0 0.18 -19.01 9.6 -369.29 189.86 -3.43 1.44 -3.45 -1.44 -369.3 -189.86 -19.05 -9.6 0 -0.18 -81.43 -41.84c-2287.86,-1176.09 -4196.68,-2957.41 -5219.38,-5347.65 -948.91,-2217.71 -901.99,-4741.16 -355.28,-6693.43 114.4,-408.48 363.85,-717.72 738.85,-916.02 957.71,-506.36 1823.81,-791.23 2992.04,-961.27z"/>
     <path id="path2" class="fil2" d="M5272.52 528c610.2,-88.83 1275.12,-141.6 1950.57,-157.97l0 -2.47c131.94,-2.36 264.12,-3.35 396.24,-2.96l1.38 0c132.12,-0.39 264.3,0.56 396.24,2.96l0 2.47c675.46,16.37 1340.37,69.17 1950.57,157.97 1183.6,172.29 2061.11,460.91 3031.32,973.88 379.95,200.87 632.67,514.21 748.56,928.05 553.89,1977.96 601.41,4534.6 -359.93,6781.46 -1036.18,2421.72 -2970.07,4226.45 -5288.07,5418.02l-82.48 42.4 0 0.18 -19.29 9.73 -374.16 192.33 -3.46 1.44 -3.49 -1.44 -374.16 -192.33 -19.29 -9.73 0 -0.18 -82.48 -42.4c-2318,-1191.57 -4251.9,-2996.32 -5288.03,-5418.02 -961.39,-2246.88 -913.84,-4803.54 -359.93,-6781.46 115.89,-413.84 368.65,-727.18 748.6,-928.05 970.14,-512.97 1847.68,-801.61 3031.29,-973.88zm151.31 1039.68c-1063.03,154.73 -2023.75,454.91 -2852.18,943.01 -1334,4290.74 309.11,8747.59 5049.27,11184.3 4789.49,-2416.99 6493.16,-6893.56 5159.13,-11184.3 -810.01,-477.24 -1746.42,-774.84 -2781.37,-932.46 -1360.56,-207.26 -3211.59,-208.95 -4574.85,-10.55l0 0z"/>
     <path id="path3" class="fil3" d="M3138.95 3667.41l8494.74 0c351.12,0 638.39,287.27 638.39,638.39l0 3708.36c0,351.12 -287.27,638.39 -638.39,638.39l-6004.24 0 -1731.53 1722.05 0 -1722.05 -758.97 0 0 -4985.14z"/>
     <path id="path18" class="fil4" d="M4826.6 7028.96c0,86.29 -40.89,127.25 -127.28,127.25l-208.99 -0.01 0 -886.04 208.99 0.01c86.4,0 127.28,40.82 127.28,127.15l0 631.64zm-336.27 -2081.25l199.92 0c86.32,0 127.26,40.92 127.26,127.25l0 563.45c0,86.4 -40.9,127.32 -127.26,127.32l-199.92 0 0 -818.02zm631.98 1040.52c190.64,-68.27 299.54,-213.68 299.54,-499.71l0 -454.45c0,-413.46 -222.68,-617.92 -677.05,-617.92l-854.36 0 0 3271.73 863.43 0c454.41,0 681.64,-204.51 681.64,-622.59l0 -649.74c0,-240.71 -95.39,-372.47 -313.27,-427.07 -0.47,-0.19 -0.36,-0.11 0.07,-0.25zm1126.58 -753.43l0 -273.51 -577.06 0 0 2726.55 599.78 0 0 -1963.07c90.88,-81.81 218.12,-136.32 427.15,-136.32l0 -649.85c-234.73,-13.51 -339.44,103.04 -447.71,296.16 -2.65,4.67 -2.16,5.4 -2.16,0.04l0 0zm1449.47 1916.81c-49.96,27.27 -95.36,45.44 -154.41,45.44 -95.43,0 -136.32,-36.33 -136.32,-131.8l0 -299.93c0,-104.45 18.2,-154.44 109.04,-199.88l181.78 -95.43c0,57.86 0.04,681.5 0,681.5 -0.06,0.08 -0.06,0.1 -0.09,0.1l0 0zm-190.79 -2226.58c-427.14,0 -636.2,190.81 -636.2,581.66l0 372.6 554.43 0 0 -349.88c0,-63.64 27.27,-90.88 90.88,-90.88l90.87 0c63.64,0 90.9,27.24 90.9,90.88l0 445.35 -540.73 231.71c-227.23,95.49 -322.68,231.81 -322.68,513.5l0 545.32c0,299.98 163.65,449.9 418.08,449.9l9.09 0c190.86,0 354.4,-104.54 449.87,-227.23l0 199.96 577.11 -0.01 0 -2181.19c0,-319.44 -139.67,-505.28 -423.9,-562.51 -117.72,-23.73 -238.3,-19.18 -357.72,-19.18zm3503.48 2162.94c0,68.23 -31.82,100.02 -99.9,100.02l-90.92 0c-68.23,0 -99.91,-31.79 -99.91,-100.02l0 -1526.85c0,-68.05 31.72,-99.87 99.91,-99.87l90.92 0c68.08,0 99.9,31.83 99.9,99.87l0 1526.85zm-227.16 -2162.94c-440.69,0 -663.5,199.96 -663.5,608.89l0 1581.32c0,409.04 222.81,608.96 663.5,608.96l163.66 0.01c440.69,0 663.4,-199.92 663.4,-608.96l0 -1581.32c0,-396.62 -209.48,-596.65 -624.18,-608.33 -67.37,-1.88 -135.53,-0.57 -202.88,-0.57l0 0zm-1558.61 1890.32l-222.64 -1854.06 -595.27 0 413.46 2726.55 772.4 0 413.62 -2726.55 -558.93 0 -222.64 1854.06z" inkscape:connector-curvature="0"/>
    </g>
   </g>
  </g>
 </g>
</svg>
