<?xml version="1.0" encoding="UTF-8"?>
<!DOCTYPE svg PUBLIC "-//W3C//DTD SVG 1.1//EN" "http://www.w3.org/Graphics/SVG/1.1/DTD/svg11.dtd">
<!-- Creator: CorelDRAW -->
<svg xmlns="http://www.w3.org/2000/svg" xml:space="preserve" width="152.4mm" height="152.4mm" version="1.1" style="shape-rendering:geometricPrecision; text-rendering:geometricPrecision; image-rendering:optimizeQuality; fill-rule:evenodd; clip-rule:evenodd"
viewBox="0 0 15240 15240"
 xmlns:xlink="http://www.w3.org/1999/xlink"
 xmlns:xodm="http://www.corel.com/coreldraw/odm/2003">
 <defs>
  <style type="text/css">
   <![CDATA[
    .fil0 {fill:none}
    .fil3 {fill:black}
    .fil2 {fill:#36C2DD}
    .fil1 {fill:white}
    .fil4 {fill:#36C2DD;fill-rule:nonzero}
   ]]>
  </style>
 </defs>
 <g id="Capa_x0020_1">
  <metadata id="CorelCorpID_0Corel-Layer"/>
  <g id="_2982027503072">
   <rect class="fil0" x="-0" y="-0" width="15240" height="15240"/>
   <path class="fil1" d="M5302.97 620.06c602.29,-87.67 1258.56,-139.78 1925.26,-155.94l0 -2.44c130.23,-2.33 260.7,-3.31 391.1,-2.91l1.35 0c130.4,-0.4 260.88,0.57 391.1,2.91l0 2.44c666.7,16.16 1322.97,68.27 1925.26,155.94 1168.23,170.04 2034.35,454.91 2991.98,961.24 375,198.28 624.47,507.53 738.86,916.01 546.7,1952.26 593.62,4475.73 -355.27,6693.43 -1022.72,2390.25 -2931.53,4171.57 -5219.41,5347.67l-81.42 41.85 0 0.18 -19.03 9.6 -369.3 189.85 -3.43 1.43 -3.46 -1.43 -369.29 -189.85 -19.04 -9.6 0 -0.18 -81.42 -41.85c-2287.88,-1176.1 -4196.69,-2957.42 -5219.4,-5347.67 -948.9,-2217.7 -901.98,-4741.17 -355.27,-6693.43 114.39,-408.48 363.85,-717.73 738.85,-916.01 957.63,-506.33 1823.76,-791.2 2991.98,-961.24z"/>
   <path class="fil2" d="M5272.5 527.99c610.21,-88.82 1275.11,-141.62 1950.58,-157.99l0 -2.47c131.94,-2.36 264.13,-3.35 396.24,-2.95l1.37 0c132.12,-0.4 264.31,0.58 396.24,2.95l0 2.47c675.47,16.37 1340.37,69.17 1950.59,157.99 1183.59,172.28 2061.1,460.89 3031.33,973.89 379.93,200.88 632.68,514.2 748.57,928.05 553.9,1977.94 601.43,4534.6 -359.94,6781.46 -1036.17,2421.7 -2970.08,4226.45 -5288.06,5418.02l-82.49 42.4 0 0.18 -19.28 9.73 -374.16 192.34 -3.47 1.45 -3.5 -1.45 -374.16 -192.34 -19.28 -9.73 0 -0.18 -82.49 -42.4c-2317.98,-1191.57 -4251.89,-2996.32 -5288.05,-5418.02 -961.38,-2246.86 -913.85,-4803.52 -359.95,-6781.46 115.9,-413.85 368.64,-727.17 748.58,-928.05 970.22,-513 1847.74,-801.61 3031.33,-973.89zm151.33 1039.69c-1063.03,154.73 -2023.76,454.89 -2852.19,943.01 -1334,4290.73 309.12,8747.6 5049.28,11184.3 4789.49,-2416.98 6493.14,-6893.57 5159.14,-11184.3 -810,-477.25 -1746.44,-774.83 -2781.36,-932.47 -1360.59,-207.25 -3211.6,-208.97 -4574.87,-10.54z"/>
   <path class="fil3" d="M3138.95 3667.41l8494.75 0c351.11,0 638.38,287.27 638.38,638.38l0 3708.35c0,351.11 -287.27,638.38 -638.38,638.38l-6004.25 0 -1731.53 1722.06 0 -1722.06 -758.97 0 0 -4985.11z"/>
   <path id="path18" class="fil4" d="M4826.61 7028.93c0,86.3 -40.9,127.24 -127.28,127.24l-209 0 0 -886.05 209 0c86.38,0 127.28,40.82 127.28,127.15l0 631.66zm-336.28 -2081.22l199.93 0c86.33,0 127.23,40.93 127.23,127.25l0 563.43c0,86.38 -40.9,127.3 -127.23,127.3l-199.93 0 0 -817.98 0 0zm631.98 1040.49c190.65,-68.26 299.54,-213.69 299.54,-499.72l0 -454.44c0,-413.47 -222.67,-617.94 -677.04,-617.94l-854.34 0 0 3271.74 863.41 0c454.43,0 681.64,-204.5 681.64,-622.59l0 -649.76c0,-240.69 -95.38,-372.46 -313.25,-427.08 -0.51,-0.13 -0.4,-0.04 0.04,-0.21zm1126.6 -753.4l0 -273.5 -577.09 0 0 2726.55 599.79 0 0 -1963.08c90.87,-81.8 218.11,-136.31 427.15,-136.31l0 -649.86c-234.74,-13.5 -339.45,103.03 -447.72,296.15 -2.62,4.67 -2.13,5.39 -2.13,0.05zm1449.43 1916.81c-49.94,27.28 -95.34,45.44 -154.4,45.44 -95.42,0 -136.33,-36.32 -136.33,-131.79l0 -299.93c0,-104.44 18.19,-154.43 109.05,-199.88l181.78 -95.44c0,57.86 0.02,681.48 0,681.51 -0.05,0.04 -0.06,0.07 -0.1,0.09zm-190.76 -2226.61c-427.13,0 -636.2,190.83 -636.2,581.65l0 372.59 554.42 0 0 -349.89c0,-63.63 27.27,-90.86 90.87,-90.86l90.88 0c63.64,0 90.9,27.23 90.9,90.86l0 445.33 -540.73 231.7c-227.21,95.5 -322.68,231.81 -322.68,513.49l0 545.33c0,299.98 163.65,449.9 418.08,449.9l9.09 0c190.86,0 354.41,-104.54 449.86,-227.23l0 199.97 577.11 0 0 -2181.19c0,-319.43 -139.66,-505.27 -423.89,-562.49 -117.73,-23.71 -238.29,-19.16 -357.71,-19.16zm3503.48 2162.95c0,68.22 -31.82,100.01 -99.92,100.01l-90.91 0c-68.21,0 -99.92,-31.79 -99.92,-100.01l0 -1526.84c0,-68.05 31.71,-99.86 99.92,-99.86l90.91 0c68.1,0 99.92,31.81 99.92,99.86l0 1526.84zm-227.18 -2162.95c-440.69,0 -663.49,199.95 -663.49,608.89l0 1581.34c0,409.05 222.8,608.97 663.49,608.97l163.65 0c440.7,0 663.39,-199.92 663.39,-608.97l0 -1581.34c0,-396.63 -209.48,-596.65 -624.16,-608.34 -67.36,-1.85 -135.52,-0.55 -202.88,-0.55zm-1558.58 1890.35l-222.64 -1854.05 -595.29 0 413.46 2726.54 772.42 0 413.63 -2726.54 -558.94 0 -222.64 1854.05z" inkscape:connector-curvature="0"/>
  </g>
 </g>
</svg>
