<?xml version="1.0" encoding="utf-8"?>
<!DOCTYPE svg PUBLIC "-//W3C//DTD SVG 1.1//EN" "http://www.w3.org/Graphics/SVG/1.1/DTD/svg11.dtd">
<!-- exported from Silhouette Studio® Business Edition V4.5.815ssbe -->
<svg version="1.1" xmlns="http://www.w3.org/2000/svg" xmlns:xlink="http://www.w3.org/1999/xlink" width="152.4mm" height="152.4mm" viewBox="0 0 152.4 152.4">
<defs>
<path id="path_936bcd6a43b5482dbf54e485e3419291" d="M -0.0003278 -0.0003324 L 152.4003 -0.0003324 L 152.4003 152.4003 L -0.000325 152.4003 L -0.0003278 -0.0003324 Z" fill-rule="evenodd" fill="none" fill-opacity="1" stroke="none" stroke-opacity="1" stroke-width="0.0113779" stroke-linecap="butt" stroke-linejoin="miter"/>
<path id="path_4372aa6ac01e2e83fadaef3317cec6c1" d="M 148.2065 76.19942 C 148.2065 115.9317 115.9317 148.2064 76.19942 148.2064 C 36.4671 148.2064 4.192407 115.9317 4.19242 76.19942 C 4.192418 36.46711 36.4671 4.192412 76.19942 4.192412 C 115.9317 4.192412 148.2065 36.46711 148.2065 76.19942 Z" fill-rule="evenodd" fill="#FFFFFF" fill-opacity="1" stroke="none" stroke-opacity="1" stroke-width="0.0113779" stroke-linecap="butt" stroke-linejoin="miter"/>
<path id="path_e3a7702aa061b10a73cd3bebed3dc740" d="M 139.1441 40.08321 C 145.2596 50.71862 148.7572 63.05055 148.7572 76.19943 C 148.7572 116.2722 116.2722 148.7571 76.19944 148.7571 C 36.12664 148.7571 3.641721 116.2722 3.641719 76.19943 C 3.641725 36.12663 36.12776 3.641717 76.19942 3.641717 C 103.1233 3.641717 126.622 18.30593 139.1441 40.08321 Z M 138.9005 76.19943 C 138.9005 41.57093 110.8279 13.49949 76.19942 13.49949 C 41.57093 13.49949 13.49835 41.57206 13.49835 76.20057 C 13.49836 110.8291 41.57093 138.9005 76.19944 138.9005 C 110.828 138.9005 138.9005 110.8279 138.9005 76.19943 Z" fill-rule="evenodd" fill="#36C2DD" fill-opacity="1" stroke="none" stroke-opacity="1" stroke-width="0.0113779" stroke-linecap="butt" stroke-linejoin="miter"/>
<path id="path_c33d2c48797c7f69241807fa20a1bb48" d="M 129.838 93.4039 C 129.838 97.45555 126.5237 100.7699 122.472 100.7699 L 53.19228 100.7699 L 33.21274 120.6402 L 33.21275 100.7699 L 24.45522 100.7699 L 24.45521 43.24918 L 122.472 43.24918 C 126.5237 43.24918 129.838 46.56356 129.838 50.61522 L 129.838 93.4039 Z" fill-rule="evenodd" fill="#000000" fill-opacity="1" stroke="none" stroke-opacity="1" stroke-width="0.0113779" stroke-linecap="butt" stroke-linejoin="miter"/>
<path id="path_de8fa441d3e5d9c9b3849a9f34aa7617" d="M 47.26821 88.96828 C 46.14147 89.4324 44.75858 89.66285 43.11946 89.66285 L 33.15474 89.66285 L 33.15474 51.90204 L 43.01477 51.90204 C 48.25884 51.90204 50.8291 54.2618 50.8291 59.03368 L 50.8291 64.27886 C 50.8291 67.57958 49.573 69.2578 47.37251 70.0463 C 47.36682 70.04858 47.36682 70.04745 47.37136 70.04971 C 49.88587 70.68005 50.9861 72.20127 50.9861 74.97861 L 50.9861 82.47773 C 50.9861 85.79516 49.74705 87.94721 47.26821 88.96828 Z M 43.85447 66.00944 L 43.85447 59.50699 C 43.85447 58.51029 43.3823 58.03811 42.38558 58.03811 L 40.07817 58.03811 L 40.07817 67.47832 L 42.38558 67.47832 C 43.3823 67.47832 43.85447 67.00614 43.85447 66.00944 Z M 43.96029 82.0579 L 43.96029 74.7681 C 43.96029 73.7714 43.48811 73.30036 42.49139 73.30036 L 40.0793 73.30036 L 40.0793 83.52678 L 42.49139 83.52678 C 43.48811 83.52678 43.96029 83.05347 43.96029 82.0579 Z M 60.63678 67.00613 L 60.6368 89.66285 L 53.71453 89.66285 L 53.71453 58.19513 L 60.37511 58.19513 L 60.37511 61.35133 C 60.37511 61.41277 60.36943 61.40481 60.39901 61.3502 C 61.64942 59.12127 62.85776 57.77642 65.56682 57.93229 L 65.56682 65.43258 C 63.15358 65.43258 61.68581 66.06178 60.63678 67.00613 Z M 73.95912 64.75103 L 73.95912 68.78904 L 67.56023 68.78904 L 67.56023 64.48821 C 67.56023 59.97804 69.97234 57.77529 74.90236 57.77529 C 76.28021 57.77529 77.67177 57.72295 79.03136 57.99602 C 82.31279 58.65707 83.92386 60.8018 83.92386 64.48821 L 83.92387 89.66285 L 77.26328 89.66285 L 77.26328 87.35543 C 76.1619 88.77198 74.27428 89.97803 72.07153 89.97803 L 71.96688 89.97803 C 69.03025 89.97803 67.14153 88.24744 67.14153 84.78516 L 67.14151 78.49094 C 67.14151 75.23916 68.24286 73.66673 70.86546 72.56422 L 77.10623 69.89042 L 77.10623 64.75103 C 77.10623 64.01603 76.79109 63.702 76.05722 63.702 L 75.00815 63.702 C 74.27429 63.702 73.95912 64.01716 73.95912 64.75103 Z M 73.74748 79.01545 L 73.74748 82.47661 C 73.74748 83.57799 74.2197 83.99783 75.32108 83.99783 C 76.00262 83.99783 76.52599 83.78848 77.10285 83.4733 C 77.104 83.4733 77.10398 83.47331 77.10397 83.47216 C 77.10397 83.47216 77.10394 76.27454 77.10394 75.60666 L 75.00591 76.70803 C 73.95801 77.2337 73.74748 77.81054 73.74748 79.01545 Z M 103.7486 58.19399 L 98.97449 89.66173 L 90.05994 89.66173 L 85.2881 58.19399 L 92.15805 58.19399 L 94.72716 79.59233 L 97.29742 58.19399 L 103.7486 58.19399 Z M 111.7903 57.80235 C 112.0885 57.78429 112.3965 57.77528 112.7144 57.77528 C 113.4926 57.77528 114.2789 57.76049 115.0548 57.7821 C 119.8414 57.9175 122.2592 60.22606 122.2592 64.80338 L 122.2593 83.05344 C 122.2593 87.77412 119.689 90.08157 114.6031 90.08157 L 112.7144 90.08157 C 107.6285 90.08157 105.0571 87.77412 105.0571 83.05344 L 105.0571 64.80224 C 105.0571 60.37768 107.3171 58.07313 111.7903 57.80235 Z M 111.9805 65.11741 L 111.9805 82.73942 C 111.9805 83.52676 112.3469 83.89429 113.1343 83.89429 L 114.1833 83.89429 C 114.9695 83.89429 115.337 83.52677 115.337 82.73942 L 115.337 65.11741 C 115.337 64.33234 114.9695 63.96484 114.1833 63.96484 L 113.1342 63.96484 C 112.3469 63.96484 111.9805 64.33233 111.9805 65.11741 Z" fill-rule="evenodd" fill="#36C2DD" fill-opacity="1" stroke="none" stroke-opacity="1" stroke-width="0.0113779" stroke-linecap="butt" stroke-linejoin="miter"/>
</defs>
<g>
<g>
<use xlink:href="#path_936bcd6a43b5482dbf54e485e3419291"/>
</g>
<g>
<use xlink:href="#path_4372aa6ac01e2e83fadaef3317cec6c1"/>
</g>
<g>
<use xlink:href="#path_e3a7702aa061b10a73cd3bebed3dc740"/>
</g>
<g>
<use xlink:href="#path_c33d2c48797c7f69241807fa20a1bb48"/>
</g>
<g>
<use xlink:href="#path_de8fa441d3e5d9c9b3849a9f34aa7617"/>
</g>
</g>
</svg>