<?xml version="1.0" encoding="utf-8"?>
<!DOCTYPE svg PUBLIC "-//W3C//DTD SVG 1.1//EN" "http://www.w3.org/Graphics/SVG/1.1/DTD/svg11.dtd">
<!-- exported from Silhouette Studio® Business Edition V4.5.815ssbe -->
<svg version="1.1" xmlns="http://www.w3.org/2000/svg" xmlns:xlink="http://www.w3.org/1999/xlink" width="152.4mm" height="152.4mm" viewBox="0 0 152.4 152.4">
<defs>
<path id="path_cc738c722a74eedc51a1835af934e6ad" d="M -8.583069e-6 -0.0000153 L 152.4 -0.0000153 L 152.4 152.4 L -8.583069e-6 152.4 L -8.583069e-6 -0.0000153 Z" fill-rule="evenodd" fill="none" fill-opacity="1" stroke="none" stroke-opacity="1" stroke-width="0.0035278" stroke-linecap="butt" stroke-linejoin="miter"/>
<path id="path_388f1344d71a9f7aaffe84ddb515f242" d="M 53.02954 6.200752 C 59.05251 5.324104 65.61524 4.803047 72.28204 4.641479 L 72.28204 4.617126 C 73.5845 4.593849 74.88907 4.583969 76.19293 4.588203 L 76.20634 4.588203 C 77.51021 4.584328 78.81513 4.593849 80.11724 4.617126 L 80.11724 4.641479 C 86.78439 4.803047 93.34711 5.324104 99.36973 6.200752 C 111.052 7.901146 119.7134 10.74982 129.2895 15.81324 C 133.0396 17.79621 135.534 20.88866 136.6781 24.97347 C 142.1451 44.49621 142.6143 69.73075 133.1253 91.90777 C 122.8982 115.8102 103.8102 133.6234 80.9311 145.3842 L 80.11689 145.8026 L 80.11689 145.8044 L 79.92674 145.9004 L 76.23386 147.799 L 76.19964 147.8135 L 76.16507 147.799 L 72.4722 145.9004 L 72.2817 145.8044 L 72.2817 145.8026 L 71.46749 145.3842 C 48.5888 133.6234 29.50069 115.8102 19.27366 91.90777 C 9.784646 69.73074 10.25384 44.49621 15.72084 24.97347 C 16.86489 20.88865 19.35939 17.7962 23.10942 15.81324 C 32.68626 10.74984 41.34731 7.901146 53.02954 6.200752 Z" fill-rule="evenodd" fill="#FFFFFF" fill-opacity="1" stroke="none" stroke-opacity="1" stroke-width="0.0035278" stroke-linecap="butt" stroke-linejoin="miter"/>
<path id="path_bf79eb7cd6bf53b47bf6a6ee5aaf2434" d="M 52.72509 5.279999 C 58.82707 4.391708 65.47625 3.863945 72.23088 3.700264 L 72.23088 3.675568 C 73.55027 3.651932 74.87212 3.642052 76.19328 3.645935 L 76.20705 3.645935 C 77.5282 3.642059 78.85005 3.651596 80.16945 3.675568 L 80.16945 3.700264 C 86.92409 3.863953 93.57324 4.392059 99.67525 5.279999 C 111.5113 7.002968 120.2863 9.889061 129.9884 15.01878 C 133.7878 17.02749 136.3151 20.16087 137.474 24.29932 C 143.0129 44.07887 143.4881 69.64538 133.8746 92.11378 C 123.5128 116.3309 104.1739 134.3783 80.99389 146.294 L 80.1691 146.7181 L 80.1691 146.7198 L 79.97613 146.8173 L 76.23457 148.7406 L 76.2 148.7551 L 76.16507 148.7406 L 72.42351 146.8173 L 72.23054 146.7198 L 72.23054 146.7181 L 71.40575 146.294 C 48.22578 134.3783 28.88684 116.3309 18.52541 92.11378 C 8.911511 69.64501 9.387053 44.07848 14.92602 24.29929 C 16.08489 20.16085 18.61255 17.0275 22.41196 15.01878 C 32.1137 9.889061 40.88904 7.002609 52.72509 5.279999 Z M 54.23816 15.67673 C 43.6079 17.22402 34.00071 20.22581 25.71643 25.10683 C 12.37649 68.01414 28.80746 112.5826 76.20916 136.9497 C 124.104 112.7798 141.1407 68.01409 127.8004 25.1068 C 119.7003 20.33443 110.3362 17.35841 99.98673 15.7822 C 86.38116 13.70963 67.8709 13.69271 54.23816 15.67673 L 54.23816 15.67673 Z" fill-rule="evenodd" fill="#36C2DD" fill-opacity="1" stroke="none" stroke-opacity="1" stroke-width="0.0035278" stroke-linecap="butt" stroke-linejoin="miter"/>
<path id="path_f6b3f42b7fd08530bdb79f13d98b0c4c" d="M 31.38944 36.67405 L 116.3369 36.67405 C 119.8481 36.67405 122.7208 39.54671 122.7208 43.05791 L 122.7208 80.14158 C 122.7208 83.65276 119.8481 86.52541 116.3369 86.52541 L 56.29449 86.52541 L 38.9791 103.7459 L 38.9791 86.52541 L 31.38944 86.52541 L 31.38944 36.67405 Z" fill-rule="evenodd" fill="#000000" fill-opacity="1" stroke="none" stroke-opacity="1" stroke-width="0.0035278" stroke-linecap="butt" stroke-linejoin="miter"/>
<path id="path_131c9ae5c2f4bc4750799a1bcb68736d" d="M 48.26598 70.28953 C 48.26598 71.15241 47.85711 71.56199 46.99315 71.56199 L 44.9033 71.56199 L 44.9033 62.70164 L 46.99315 62.70164 C 47.85711 62.70164 48.26598 63.10978 48.26598 63.97301 L 48.26598 70.28953 Z M 44.9033 49.47706 L 46.90249 49.47706 C 47.76574 49.47706 48.17496 49.88628 48.17496 50.74952 L 48.17496 56.38412 C 48.17496 57.24805 47.76609 57.6573 46.90249 57.6573 L 44.9033 57.6573 L 44.9033 49.47706 Z M 51.22296 59.88226 C 53.12937 59.19964 54.2184 57.74548 54.2184 54.88517 L 54.2184 50.34066 C 54.2184 46.20611 51.99166 44.1614 47.44788 44.1614 L 38.90431 44.1614 L 38.90431 76.87875 L 47.53854 76.87875 C 52.08268 76.87875 54.35491 74.83366 54.35491 70.6529 L 54.35491 64.15546 C 54.35491 61.74845 53.401 60.43081 51.22224 59.88474 C 51.21767 59.88296 51.21873 59.88366 51.22296 59.88226 Z M 62.48893 52.34798 L 62.48893 49.61291 L 56.71818 49.61291 L 56.71818 76.8784 L 62.71611 76.8784 L 62.71611 57.2477 C 63.62487 56.42962 64.89734 55.88461 66.98755 55.88461 L 66.98755 49.38609 C 64.64017 49.25097 63.59312 50.41656 62.51044 52.34765 C 62.48398 52.39419 62.48893 52.40159 62.48893 52.34798 L 62.48893 52.34798 Z M 76.98351 71.51617 C 76.48398 71.78886 76.02995 71.97054 75.4394 71.97054 C 74.48514 71.97054 74.07627 71.60715 74.07627 70.65255 L 74.07627 67.65324 C 74.07627 66.60867 74.2583 66.1088 75.1667 65.65441 L 76.98457 64.70013 C 76.98457 65.27868 76.98492 71.51511 76.98457 71.51511 C 76.98386 71.51582 76.98387 71.51617 76.98351 71.51617 L 76.98351 71.51617 Z M 75.07568 49.25021 C 70.80425 49.25021 68.71369 51.15841 68.71369 55.06683 L 68.71369 58.79284 L 74.25795 58.79284 L 74.25795 55.29401 C 74.25795 54.6576 74.53065 54.38526 75.16671 54.38526 L 76.07546 54.38526 C 76.71187 54.38526 76.98457 54.6576 76.98457 55.29401 L 76.98457 59.74749 L 71.57719 62.06452 C 69.30495 63.01951 68.35033 64.38262 68.35033 67.19956 L 68.35033 72.65281 C 68.35033 75.65247 69.98687 77.15179 72.53111 77.15179 L 72.62212 77.15179 C 74.53065 77.15179 76.16612 76.10651 77.12074 74.87954 L 77.12074 76.8791 L 82.89184 76.8791 L 82.89184 55.06722 C 82.89184 51.87283 81.49519 50.01438 78.65286 49.44218 C 77.47564 49.20472 76.26984 49.25021 75.07568 49.25021 Z M 110.1104 70.87972 C 110.1104 71.56199 109.7922 71.87986 109.1114 71.87986 L 108.2022 71.87986 C 107.52 71.87986 107.2032 71.56199 107.2032 70.87972 L 107.2032 55.61117 C 107.2032 54.93066 107.5203 54.61245 108.2022 54.61245 L 109.1114 54.61245 C 109.7922 54.61245 110.1104 54.93066 110.1104 55.61117 L 110.1104 70.87972 Z M 107.8389 49.25021 C 103.432 49.25021 101.2038 51.24976 101.2038 55.33915 L 101.2038 71.15241 C 101.2038 75.24287 103.432 77.24206 107.8389 77.24206 L 109.4754 77.24206 C 113.8823 77.24206 116.1094 75.24287 116.1094 71.15241 L 116.1094 55.33915 C 116.1094 51.37289 114.0146 49.37263 109.8677 49.25585 C 109.1939 49.23716 108.5123 49.25021 107.8389 49.25021 L 107.8389 49.25021 Z M 92.25278 68.15347 L 90.02641 49.61291 L 84.07365 49.61291 L 88.20821 76.8784 L 95.93227 76.8784 L 100.0686 49.61291 L 94.47917 49.61291 L 92.25278 68.15347 Z" fill-rule="evenodd" fill="#36C2DD" fill-opacity="1" stroke="none" stroke-opacity="1" stroke-width="0.0035278" stroke-linecap="butt" stroke-linejoin="miter"/>
</defs>
<g>
<g>
<g>
<g>
<use xlink:href="#path_cc738c722a74eedc51a1835af934e6ad"/>
</g>
<g>
<use xlink:href="#path_388f1344d71a9f7aaffe84ddb515f242"/>
</g>
<g>
<use xlink:href="#path_bf79eb7cd6bf53b47bf6a6ee5aaf2434"/>
</g>
<g>
<use xlink:href="#path_f6b3f42b7fd08530bdb79f13d98b0c4c"/>
</g>
<g>
<use xlink:href="#path_131c9ae5c2f4bc4750799a1bcb68736d"/>
</g>
</g>
</g>
</g>
</svg>