<?xml version="1.0" encoding="UTF-8"?>
<!DOCTYPE svg PUBLIC "-//W3C//DTD SVG 1.1//EN" "http://www.w3.org/Graphics/SVG/1.1/DTD/svg11.dtd">
<!-- Creator: CorelDRAW -->
<svg xmlns="http://www.w3.org/2000/svg" xml:space="preserve" width="152.4mm" height="152.4mm" version="1.1" style="shape-rendering:geometricPrecision; text-rendering:geometricPrecision; image-rendering:optimizeQuality; fill-rule:evenodd; clip-rule:evenodd"
viewBox="0 0 4725.26 4725.26"
 xmlns:xlink="http://www.w3.org/1999/xlink"
 xmlns:xodm="http://www.corel.com/coreldraw/odm/2003">
 <defs>
  <style type="text/css">
   <![CDATA[
    .fil0 {fill:none}
    .fil3 {fill:black}
    .fil2 {fill:#36C2DD}
    .fil1 {fill:white}
    .fil4 {fill:#36C2DD;fill-rule:nonzero}
   ]]>
  </style>
 </defs>
 <g id="Capa_x0020_1">
  <metadata id="CorelCorpID_0Corel-Layer"/>
  <g id="_2981923729872">
   <rect class="fil0" x="-0" y="-0" width="4725.26" height="4725.26"/>
   <ellipse id="contour" class="fil1" cx="2362.63" cy="2362.63" rx="2232.62" ry="2232.63"/>
   <path id="contour_145" class="fil2" d="M2362.63 112.94c1242.46,0 2249.68,1007.22 2249.68,2249.69 0,1242.46 -1007.21,2249.69 -2249.68,2249.69 -1242.46,0 -2249.67,-1007.22 -2249.67,-2249.69 0,-1242.47 1007.21,-2249.69 2249.67,-2249.69zm-0.02 305.65c1073.67,0 1944.06,870.38 1944.06,1944.05 0,1073.67 -870.39,1944.06 -1944.06,1944.06 -1073.67,0 -1944.05,-870.39 -1944.05,-1944.06 0,-1073.67 870.38,-1944.05 1944.05,-1944.05z"/>
   <path class="fil3" d="M758.27 1340.98l3039.07 0c125.61,0 228.39,102.77 228.39,228.39l0 1326.69c0,125.61 -102.77,228.39 -228.39,228.39l-2148.07 0 -619.47 616.08 0 -616.08 -271.53 0 0 -1783.47z"/>
   <path id="path18" class="fil4" d="M1363.02 2544.26c0,30.88 -14.63,45.53 -45.54,45.53l-74.79 0 0 -317.07 74.79 0c30.91,0 45.54,14.61 45.54,45.5l0 226.04zm-120.34 -744.75l71.55 0c30.89,0 45.53,14.64 45.53,45.53l0 201.62c0,30.91 -14.63,45.55 -45.53,45.55l-71.55 0 0 -292.71 0 0zm226.15 372.33c68.22,-24.43 107.19,-76.47 107.19,-178.82l0 -162.62c0,-147.96 -79.68,-221.13 -242.27,-221.13l-305.72 0 0 1170.78 308.96 0c162.62,0 243.92,-73.18 243.92,-222.79l0 -232.51c0,-86.13 -34.13,-133.28 -112.09,-152.83 -0.18,-0.05 -0.15,-0.02 0.01,-0.08zm403.15 -269.6l0 -97.87 -206.51 0 0 975.68 214.63 0 0 -702.48c32.52,-29.27 78.05,-48.78 152.85,-48.78l0 -232.55c-84,-4.83 -121.47,36.87 -160.22,105.98 -0.94,1.67 -0.76,1.93 -0.76,0.02zm518.67 685.92c-17.87,9.76 -34.12,16.26 -55.25,16.26 -34.15,0 -48.78,-13 -48.78,-47.16l0 -107.33c0,-37.37 6.51,-55.26 39.02,-71.53l65.05 -34.15c0,20.71 0.01,243.87 0,243.87 -0.02,0.02 -0.02,0.02 -0.03,0.03zm-68.26 -796.78c-152.85,0 -227.66,68.29 -227.66,208.14l0 133.33 198.4 0 0 -125.21c0,-22.77 9.76,-32.51 32.52,-32.51l32.52 0c22.77,0 32.53,9.75 32.53,32.51l0 159.36 -193.5 82.91c-81.31,34.17 -115.47,82.95 -115.47,183.75l0 195.14c0,107.34 58.56,160.99 149.61,160.99l3.25 0c68.3,0 126.82,-37.41 160.98,-81.31l0 71.56 206.52 0 0 -780.53c0,-114.31 -49.97,-180.81 -151.69,-201.28 -42.13,-8.48 -85.27,-6.86 -128,-6.86zm1253.7 774c0,24.41 -11.39,35.79 -35.76,35.79l-32.53 0c-24.41,0 -35.76,-11.38 -35.76,-35.79l0 -546.37c0,-24.35 11.35,-35.73 35.76,-35.73l32.53 0c24.37,0 35.76,11.38 35.76,35.73l0 546.37zm-81.29 -774c-157.7,0 -237.43,71.55 -237.43,217.89l0 565.87c0,146.38 79.73,217.92 237.43,217.92l58.56 0c157.7,0 237.39,-71.54 237.39,-217.92l0 -565.87c0,-141.93 -74.96,-213.51 -223.36,-217.69 -24.1,-0.66 -48.49,-0.2 -72.6,-0.2zm-557.73 676.45l-79.67 -663.46 -213.02 0 147.96 975.68 276.41 0 148.01 -975.68 -200.01 0 -79.67 663.46z" inkscape:connector-curvature="0"/>
  </g>
 </g>
</svg>
