<?xml version="1.0" encoding="UTF-8"?>
<!DOCTYPE svg PUBLIC "-//W3C//DTD SVG 1.1//EN" "http://www.w3.org/Graphics/SVG/1.1/DTD/svg11.dtd">
<!-- Creator: CorelDRAW -->
<svg xmlns="http://www.w3.org/2000/svg" xml:space="preserve" width="152.4mm" height="152.4mm" version="1.1" style="shape-rendering:geometricPrecision; text-rendering:geometricPrecision; image-rendering:optimizeQuality; fill-rule:evenodd; clip-rule:evenodd"
viewBox="0 0 4806.98 4806.98"
 xmlns:xlink="http://www.w3.org/1999/xlink"
 xmlns:xodm="http://www.corel.com/coreldraw/odm/2003">
 <defs>
  <style type="text/css">
   <![CDATA[
    .fil0 {fill:none;fill-rule:nonzero}
    .fil3 {fill:black}
    .fil2 {fill:#36C2DD}
    .fil1 {fill:white}
    .fil4 {fill:#36C2DD;fill-rule:nonzero}
   ]]>
  </style>
 </defs>
 <g id="Capa_x0020_1">
  <metadata id="CorelCorpID_0Corel-Layer"/>
  <g id="g2">
   <g id="Capa_x0020_1-2">
    <g id="_2981923729872">
     <rect id="rect1-5" class="fil0" x="-0" y="0" width="4806.98" height="4806.98"/>
     <circle id="contour" class="fil1" cx="2403.47" cy="2403.47" r="2271.22"/>
     <path id="contour_145" class="fil2" d="M2403.47 114.88c1263.97,0 2288.59,1024.63 2288.59,2288.59 0,1263.96 -1024.63,2288.59 -2288.59,2288.59 -1263.96,0 -2288.59,-1024.63 -2288.59,-2288.59 0,-1263.97 1024.66,-2288.59 2288.59,-2288.59l0 0zm0 310.93c1092.24,0 1977.7,885.42 1977.7,1977.67 0,1092.24 -885.46,1977.7 -1977.7,1977.7 -1092.24,0 -1977.7,-885.42 -1977.7,-1977.67 0,-1092.24 885.46,-1977.7 1977.7,-1977.7z"/>
     <path id="path1-5" class="fil3" d="M771.37 1364.17l3091.62 0c127.79,0 232.33,104.54 232.33,232.34l0 1349.63c0,127.79 -104.54,232.34 -232.33,232.34l-2185.2 0 -630.18 626.74 0 -626.74 -276.23 0 0 -1814.3z"/>
     <path id="path18-1" class="fil4" d="M1386.59 2588.26c0,31.4 -14.89,46.33 -46.33,46.33l-76.08 0 0 -322.56 76.08 0c31.43,0 46.33,14.86 46.33,46.29l-0 229.93zm-122.45 -757.62l72.78 0c31.44,0 46.33,14.89 46.33,46.33l0 205.1c0,31.44 -14.89,46.33 -46.33,46.33l-72.78 -0 0 -297.76 0 0 0 0zm230.08 378.76c69.41,-24.87 109.02,-77.8 109.02,-181.91l0 -165.44c0,-150.51 -81.07,-224.94 -246.47,-224.94l-311 0 0 1191.04 314.3 0c165.44,0 248.13,-74.43 248.13,-226.63l0 -236.54c0,-87.6 -34.71,-135.58 -114.02,-155.47 -0.14,-0.07 -0.14,-0.03 0.04,-0.1l0 0zm410.13 -274.25l0 -99.56 -210.09 0 0 992.55 218.34 0 0 -714.63c33.09,-29.79 79.38,-49.63 155.5,-49.63l0 -236.57c-85.45,-4.91 -123.56,37.5 -163,107.81 -0.93,1.73 -0.75,1.98 -0.75,0.04l0 0zm527.62 697.77c-18.19,9.94 -34.71,16.54 -56.2,16.54 -34.74,0 -49.63,-13.24 -49.63,-47.98l0 -109.17c0,-38.01 6.64,-56.2 39.69,-72.78l66.18 -34.74c0,21.06 0,248.09 0,248.09 0,0.04 0,0.04 -0.04,0.04l0 0zm-69.4 -810.56c-155.5,0 -231.58,69.48 -231.58,211.74l0 135.66 201.83 0 0 -127.37c0,-23.15 9.94,-33.09 33.09,-33.09l33.09 0c23.15,0 33.09,9.9 33.09,33.09l0 162.1 -196.84 84.33c-82.72,34.78 -117.46,84.37 -117.46,186.94l0 198.53c0,109.21 59.57,163.79 152.2,163.79l3.31 0c69.48,0 129.02,-38.04 163.76,-82.72l0 72.78 210.08 -0.01 0 -794.05c0,-116.28 -50.82,-183.93 -154.32,-204.78 -42.88,-8.61 -86.77,-6.96 -130.23,-6.96l0 0zm1275.38 787.41c0,24.84 -11.59,36.42 -36.39,36.42l-33.09 0c-24.84,0 -36.39,-11.59 -36.39,-36.42l0 -555.83c0,-24.76 11.56,-36.35 36.39,-36.35l33.09 0c24.8,0 36.39,11.59 36.39,36.35l0 555.83zm-82.72 -787.41c-160.42,0 -241.53,72.78 -241.53,221.64l0 575.67c0,148.9 81.1,221.68 241.53,221.68l59.58 0c160.42,0 241.49,-72.78 241.49,-221.68l0 -575.64c0,-144.38 -76.26,-217.19 -227.24,-221.46 -24.48,-0.68 -49.27,-0.21 -73.82,-0.21l0 0zm-567.35 688.15l-81.03 -674.94 -216.69 0.01 150.51 992.55 281.18 0 150.58 -992.55 -203.48 0 -81.07 674.94 0 0z" inkscape:connector-curvature="0"/>
    </g>
   </g>
  </g>
 </g>
</svg>
