<?xml version="1.0" encoding="UTF-8"?>
<!DOCTYPE svg PUBLIC "-//W3C//DTD SVG 1.1//EN" "http://www.w3.org/Graphics/SVG/1.1/DTD/svg11.dtd">
<!-- Creator: CorelDRAW -->
<svg xmlns="http://www.w3.org/2000/svg" xml:space="preserve" width="152.4mm" height="152.4mm" version="1.1" style="shape-rendering:geometricPrecision; text-rendering:geometricPrecision; image-rendering:optimizeQuality; fill-rule:evenodd; clip-rule:evenodd"
viewBox="0 0 15240 15240"
 xmlns:xlink="http://www.w3.org/1999/xlink"
 xmlns:xodm="http://www.corel.com/coreldraw/odm/2003">
 <defs>
  <style type="text/css">
   <![CDATA[
    .fil0 {fill:none}
    .fil3 {fill:black}
    .fil2 {fill:#36C2DD}
    .fil1 {fill:white}
    .fil4 {fill:#36C2DD;fill-rule:nonzero}
   ]]>
  </style>
 </defs>
 <g id="Capa_x0020_1">
  <metadata id="CorelCorpID_0Corel-Layer"/>
  <g id="_2981915274400">
   <rect class="fil0" x="-0" y="-0" width="15240" height="15240"/>
   <ellipse id="contour" class="fil1" cx="7620.01" cy="7620" rx="7200.69" ry="7200.73"/>
   <path id="contour_97" class="fil2" d="M7620.01 364.25c4007.22,0 7255.71,3248.52 7255.71,7255.75 0,4007.22 -3248.49,7255.74 -7255.71,7255.74 -4007.22,0 -7255.7,-3248.52 -7255.7,-7255.74 0,-4007.23 3248.48,-7255.75 7255.7,-7255.75zm-0.06 985.8c3462.82,0 6270.01,2807.18 6270.01,6270 0,3462.82 -2807.19,6270.01 -6270.01,6270.01 -3462.82,0 -6270,-2807.19 -6270,-6270.01 0,-3462.82 2807.18,-6270 6270,-6270z"/>
   <path class="fil3" d="M2445.6 4324.97l9801.68 0c405.13,0 736.6,331.47 736.6,736.6l0 4278.88c0,405.13 -331.47,736.6 -736.6,736.6l-6928.01 0 -1997.93 1987 0 -1987 -875.74 0 0 -5752.08z"/>
   <path id="path18" class="fil4" d="M4736.89 7004.81c220.3,-78.72 346.14,-246.55 346.14,-576.89l0 -524.48c0,-477.2 -256.99,-713.18 -781.39,-713.18l-986.02 0 0 3776.01 996.48 0c524.47,0 786.7,-236.02 786.7,-718.55l0 -749.91c0,-277.93 -110.19,-430.02 -361.92,-493l0 0 0.01 0zm-728.96 -1201l230.75 0c99.64,0 146.84,47.23 146.84,146.86l0 650.27c0,99.69 -47.2,146.92 -146.84,146.92l-230.75 0 0 -944.05 0 0zm388.11 2401.99c0,99.6 -47.2,146.85 -146.89,146.85l-241.22 0 0 -1022.61 241.22 0c99.69,0 146.89,47.11 146.89,146.74l0 729.02z" inkscape:connector-curvature="0"/>
   <g inkscape:connector-curvature="0">
    <path id="path20" class="fil4" d="M6037.56 6139.48l0 -319.99 -666.04 0 0 3146.79 692.24 0 0 -2265.65c104.88,-94.41 251.73,-157.32 492.99,-157.32l0 -750.02c-272.71,-15.68 -393.34,120.67 -519.18,346.19l-0.01 0zm0 0l0 0 0 0z"/>
   </g>
   <g inkscape:connector-curvature="0">
    <path id="path22" class="fil4" d="M7658.07 5777.6l-167.84 0c-492.97,0 -734.26,220.24 -734.26,671.29l0 430.02 639.87 0 0 -403.82c0,-73.43 31.47,-104.86 104.88,-104.86l104.88 0c73.45,0 104.91,31.43 104.91,104.86l0 513.97 -624.07 267.41c-262.23,110.22 -372.41,267.54 -372.41,592.64l0 629.38c0,346.21 188.87,519.24 482.52,519.24l10.49 0c220.28,0 409.03,-120.66 519.19,-262.25l0 230.79 666.06 0 0 -2517.38c0,-451.05 -241.27,-671.29 -734.22,-671.29l0 0 0 0zm52.43 2569.73c-57.69,31.52 -110.11,52.5 -178.31,52.5 -110.13,0 -157.34,-41.92 -157.34,-152.1l0 -346.16c0,-120.54 20.99,-178.23 125.86,-230.69l209.79 -110.15 0 786.6 0 0zm0 0l0 0 0 0z"/>
   </g>
   <path id="path24" class="fil4" d="M11460.37 5777.6l-188.87 0c-508.62,0 -765.76,230.76 -765.76,702.73l0 1825.07c0,472.1 257.14,702.83 765.76,702.83l188.87 0c508.62,0 765.64,-230.73 765.64,-702.83l0 -1825.07c0,-471.97 -257.01,-702.73 -765.64,-702.73l0 0zm73.32 2496.32c0,78.73 -36.72,115.42 -115.32,115.42l-104.92 0c-78.72,0 -115.32,-36.69 -115.32,-115.42l0 -1762.17c0,-78.54 36.6,-115.25 115.32,-115.25l104.92 0c78.6,0 115.32,36.71 115.32,115.25l0 1762.17z" inkscape:connector-curvature="0"/>
   <polygon id="path26" class="fil4" points="9472.69,7959.3 9215.74,5819.49 8528.7,5819.49 9005.89,8966.27 9897.36,8966.27 10374.74,5819.49 9729.65,5819.49 " inkscape:connector-curvature="0"/>
  </g>
 </g>
</svg>
