<?xml version="1.0" encoding="UTF-8"?>
<!DOCTYPE svg PUBLIC "-//W3C//DTD SVG 1.1//EN" "http://www.w3.org/Graphics/SVG/1.1/DTD/svg11.dtd">
<!-- Creator: CorelDRAW -->
<svg xmlns="http://www.w3.org/2000/svg" xml:space="preserve" width="152.4mm" height="152.4mm" version="1.1" style="shape-rendering:geometricPrecision; text-rendering:geometricPrecision; image-rendering:optimizeQuality; fill-rule:evenodd; clip-rule:evenodd"
viewBox="0 0 15240 15240"
 xmlns:xlink="http://www.w3.org/1999/xlink"
 xmlns:xodm="http://www.corel.com/coreldraw/odm/2003">
 <defs>
  <style type="text/css">
   <![CDATA[
    .fil0 {fill:none}
    .fil2 {fill:#BE2230}
    .fil1 {fill:#ECC7CC}
   ]]>
  </style>
 </defs>
 <g id="Capa_x0020_1">
  <metadata id="CorelCorpID_0Corel-Layer"/>
  <g id="_2981912532496">
   <rect class="fil0" x="-0" y="-0" width="15240" height="15240"/>
   <ellipse id="contour" class="fil1" cx="7620.01" cy="7620" rx="7200.69" ry="7200.73"/>
   <path id="contour_40" class="fil2" d="M7620.01 364.25c4007.22,0 7255.71,3248.52 7255.71,7255.75 0,4007.22 -3248.49,7255.74 -7255.71,7255.74 -4007.22,0 -7255.7,-3248.52 -7255.7,-7255.74 0,-4007.23 3248.48,-7255.75 7255.7,-7255.75zm-0.06 985.8c3462.82,0 6270.01,2807.18 6270.01,6270 0,3462.82 -2807.19,6270.01 -6270.01,6270.01 -3462.82,0 -6270,-2807.19 -6270,-6270.01 0,-3462.82 2807.18,-6270 6270,-6270z"/>
   <path class="fil2" d="M5732.73 4141.32l0 2593.67 781.06 0c165.7,0 301.26,135.57 301.26,301.27 0,165.7 -135.56,301.27 -301.26,301.27l-2164.64 0c-165.7,0 -301.27,-135.57 -301.27,-301.27 0,-165.7 135.57,-301.27 301.27,-301.27l781.04 0 0 -2593.67 -781.04 0c-165.7,0 -301.27,-135.57 -301.27,-301.27 0,-165.7 135.57,-301.27 301.27,-301.27l2164.64 0c165.7,0 301.26,135.57 301.26,301.27 0,165.7 -135.56,301.27 -301.26,301.27l-781.06 0zm2004.35 1699.5l1387.31 1492.9 1387.32 -1492.9 464.29 -499.67c380.5,-409.45 356.79,-1055.75 -52.65,-1436.24 -409.45,-380.49 -1055.77,-356.79 -1436.24,52.67l-362.72 390.3 -362.71 -390.3c-380.49,-409.46 -1026.8,-433.16 -1436.24,-52.67 -409.46,380.49 -433.16,1026.79 -52.66,1436.24l464.3 499.67zm-2754.12 2267.2l20.14 0 0.24 -0.01 0.23 -0.01 0.24 -0.01 5.43 -0.21 0.24 -0.01 0.47 -0.01 0.24 -0.01 0.24 -0.01 0.1 0 0.13 0 0.24 -0.01 6.65 -0.09 0.24 0 0.24 0 0.24 0 0.24 0 0.24 0 0.24 0c2.23,0 4.43,0.04 6.65,0.09l0.24 0.01 0.13 0 0.1 0 0.24 0.01 0.24 0.01 0.47 0.01 0.24 0.01c1.81,0.04 3.63,0.11 5.43,0.21l0.24 0.01 0.23 0.01 0.24 0.01 826.89 0 261.29 0c453.7,0 824.89,371.2 824.89,824.9l0 178.98c0,300.21 -162.58,564.27 -404.01,708.59 276.5,151.86 465.01,446.05 465.01,782.17l0 193.44c0,490.38 -401.22,891.6 -891.6,891.6l-1150.79 0 0 -0.35 -508.39 0c-126.06,0 -229.19,-103.13 -229.19,-229.19 0,-126.06 103.13,-229.19 229.19,-229.19l260.27 0 0 -2662.57 -311.07 0c-126.06,0 -229.19,-103.13 -229.19,-229.19 0,-126.06 103.13,-229.19 229.19,-229.19l577.03 0zm336.58 458.38l0 1013.59 617.97 0c251.46,0 457.2,-205.74 457.2,-457.2l0 -99.19c0,-251.46 -205.74,-457.2 -457.2,-457.2l-77.18 0 -540.79 0zm-4.51 1529.31l618.16 0c286.93,0 521.68,234.74 521.68,521.68l0 113.18c0,286.94 -234.75,521.68 -521.68,521.68l-618.16 0 0 -1156.54zm5061.48 -1529.31l-948.58 983.29 990.01 1643.3 224.95 0c126.06,0 229.19,103.13 229.19,229.19 0,126.06 -103.13,229.19 -229.19,229.19l-1089.23 0c-126.06,0 -229.19,-103.13 -229.19,-229.19 0,-126.06 103.13,-229.19 229.19,-229.19l186.94 0 -729.62 -1211.1 -290.87 301.52 0 909.58 273.9 0c126.06,0 229.19,103.13 229.19,229.19 0,126.06 -103.13,229.19 -229.19,229.19l-1150.03 0c-126.06,0 -229.19,-103.13 -229.19,-229.19 0,-126.06 103.13,-229.19 229.19,-229.19l273.59 0 0 -2626.59 -273.59 0c-126.06,0 -229.19,-103.13 -229.19,-229.19 0,-126.06 103.13,-229.19 229.19,-229.19l1150.03 0c126.06,0 229.19,103.13 229.19,229.19 0,126.06 -103.13,229.19 -229.19,229.19l-273.9 0 0 993.46 958.39 -993.46 -169.99 0c-126.06,0 -229.19,-103.13 -229.19,-229.19 0,-126.06 103.13,-229.19 229.19,-229.19l1137.21 0c126.06,0 229.19,103.13 229.19,229.19 0,126.06 -103.13,229.19 -229.19,229.19l-269.21 0z"/>
  </g>
 </g>
</svg>
