<?xml version="1.0" encoding="UTF-8"?>
<!DOCTYPE svg PUBLIC "-//W3C//DTD SVG 1.1//EN" "http://www.w3.org/Graphics/SVG/1.1/DTD/svg11.dtd">
<!-- Creator: CorelDRAW -->
<svg xmlns="http://www.w3.org/2000/svg" xml:space="preserve" width="152.4mm" height="152.4mm" version="1.1" style="shape-rendering:geometricPrecision; text-rendering:geometricPrecision; image-rendering:optimizeQuality; fill-rule:evenodd; clip-rule:evenodd"
viewBox="0 0 15240 15240"
 xmlns:xlink="http://www.w3.org/1999/xlink"
 xmlns:xodm="http://www.corel.com/coreldraw/odm/2003">
 <defs>
  <style type="text/css">
   <![CDATA[
    .fil0 {fill:none}
    .fil1 {fill:#560B00}
    .fil2 {fill:#E81505}
   ]]>
  </style>
 </defs>
 <g id="Capa_x0020_1">
  <metadata id="CorelCorpID_0Corel-Layer"/>
  <g id="_2981923631776">
   <rect class="fil0" x="-0" y="-0" width="15240" height="15240"/>
   <path class="fil1" d="M5302.97 620.06c602.29,-87.67 1258.56,-139.78 1925.26,-155.94l0 -2.44c130.23,-2.33 260.7,-3.31 391.1,-2.91l1.35 0c130.4,-0.4 260.88,0.57 391.1,2.91l0 2.44c666.7,16.16 1322.97,68.27 1925.26,155.94 1168.23,170.04 2034.35,454.91 2991.98,961.24 375,198.28 624.47,507.53 738.86,916.01 546.7,1952.26 593.62,4475.73 -355.27,6693.43 -1022.72,2390.25 -2931.53,4171.57 -5219.41,5347.67l-81.42 41.85 0 0.18 -19.03 9.6 -369.3 189.85 -3.43 1.43 -3.46 -1.43 -369.29 -189.85 -19.04 -9.6 0 -0.18 -81.42 -41.85c-2287.88,-1176.1 -4196.69,-2957.42 -5219.4,-5347.67 -948.9,-2217.7 -901.98,-4741.17 -355.27,-6693.43 114.39,-408.48 363.85,-717.73 738.85,-916.01 957.63,-506.33 1823.76,-791.2 2991.98,-961.24z"/>
   <path class="fil2" d="M5272.5 527.99c610.21,-88.82 1275.11,-141.62 1950.58,-157.99l0 -2.47c131.94,-2.36 264.13,-3.35 396.24,-2.95l1.37 0c132.12,-0.4 264.31,0.58 396.24,2.95l0 2.47c675.47,16.37 1340.37,69.17 1950.59,157.99 1183.59,172.28 2061.1,460.89 3031.33,973.89 379.93,200.88 632.68,514.2 748.57,928.05 553.9,1977.94 601.43,4534.6 -359.94,6781.46 -1036.17,2421.7 -2970.08,4226.45 -5288.06,5418.02l-82.49 42.4 0 0.18 -19.28 9.73 -374.16 192.34 -3.47 1.45 -3.5 -1.45 -374.16 -192.34 -19.28 -9.73 0 -0.18 -82.49 -42.4c-2317.98,-1191.57 -4251.89,-2996.32 -5288.05,-5418.02 -961.38,-2246.86 -913.85,-4803.52 -359.95,-6781.46 115.9,-413.85 368.64,-727.17 748.58,-928.05 970.22,-513 1847.74,-801.61 3031.33,-973.89zm151.33 1039.69c-1063.03,154.73 -2023.76,454.89 -2852.19,943.01 -1334,4290.73 309.12,8747.6 5049.28,11184.3 4789.49,-2416.98 6493.14,-6893.57 5159.14,-11184.3 -810,-477.25 -1746.44,-774.83 -2781.36,-932.47 -1360.59,-207.25 -3211.6,-208.97 -4574.87,-10.54z"/>
   <path class="fil2" d="M8814.76 2735.74l281.99 276.74 341.61 -198.51c18.81,-10.93 41.07,-9.56 58.39,3.56 17.33,13.12 24.66,34.19 19.25,55.24l-98.67 382.59 342.71 196.59c18.85,10.82 28.8,30.76 26.11,52.32 -2.72,21.6 -17.28,38.47 -38.24,44.29l-380.65 105.85 1.09 395.1c0.06,21.75 -12.25,40.33 -32.28,48.77 -20.03,8.44 -41.93,4.27 -57.44,-10.97l-282 -276.72 -341.62 198.5c-18.8,10.92 -41.05,9.55 -58.38,-3.58 -17.33,-13.13 -24.67,-34.18 -19.24,-55.23l98.68 -382.58 -342.72 -196.6c-18.86,-10.82 -28.82,-30.78 -26.1,-52.36 2.7,-21.55 17.28,-38.43 38.22,-44.26l380.66 -105.84 -1.1 -395.09c-0.05,-21.74 12.24,-40.35 32.29,-48.78 20.03,-8.44 41.93,-4.27 57.44,10.97zm-4101.01 6562.47c-121.67,-649.79 128.66,-1122.8 778.45,-1244.47 793.94,-148.51 1822.6,-425.54 2774.6,-864.1 673,-310.04 1296.85,-695.47 1740.07,-1162.14 455.63,-478.93 1010.06,-497.82 1488.99,-42.19 285.26,271.38 353.24,767.03 265.32,1224.72 -106.76,555.69 -522,1219 -1147.68,1798.07 -935.39,865.69 -1953.57,1287.29 -3223.68,1376.41 -909.45,63.83 -2460.95,62.63 -2676.07,-1086.3zm-226.54 396.35c-621.94,66.11 -1179.73,-384.48 -1245.84,-1006.42 -66.11,-621.94 384.48,-1179.73 1006.42,-1245.84 208.39,-22.12 409.4,-47.03 603.41,-74.52 -4.59,50.97 -0.48,102.02 11.67,151.03 -128.59,32.98 -265.56,63.43 -412.83,89.18 -138.36,24.19 -262.1,51.6 -382.75,97.46 -123.6,46.99 -240.24,111.85 -359.56,209.61 -81.19,66.5 -141.37,140.55 -184.58,231.2 -41.32,86.68 -65.69,187.21 -76.94,310.2 -5.7,63.01 40.76,118.73 103.77,124.43 63.01,5.7 118.73,-40.76 124.43,-103.77 8.62,-94.21 26.46,-169.48 56.28,-232.04 27.93,-58.6 67.93,-107.36 122.58,-152.12 99.31,-81.36 194.8,-134.75 294.88,-172.79 103.05,-39.17 214.67,-63.62 341.43,-85.78 175.84,-30.74 337.36,-67.95 487.68,-108.18 31.18,32.37 67.69,60.63 109.12,83.38 11.16,6.13 22.48,11.71 33.9,16.82 -611.95,246.47 -854.89,830.41 -723.68,1531.18 22.7,121.25 57.31,232.96 102.41,335.69l-11.8 1.28zm1178.76 -2003.88c14.92,-19.08 28.53,-39.57 40.58,-61.46 34.03,-61.8 72.26,-118.16 116.43,-170.95 72.03,-23.18 141.75,-44.49 209.38,-62.92 127.37,-34.71 249.38,-70.59 367.24,-107.77 92.51,26.3 180.81,65.32 258.19,123.77 10.64,8.03 21.52,15.5 32.6,22.46 -339.73,100.74 -683.45,186.41 -1024.42,256.87zm1692.4 -476.89c1.61,-4.09 3.16,-8.21 4.65,-12.35 57.4,-133.13 123.23,-257.92 210.8,-373.8 86,-39.81 172.23,-80.81 259.34,-123.07 97.53,-47.31 195.95,-96.74 295.98,-148.92 24.55,1.43 49.08,3.1 73.58,5.02 139.33,10.93 280.72,30.41 416.4,64.46 12.13,3.04 24.26,5.54 36.4,7.55 -174.17,96.35 -350.63,184.16 -523.73,263.9 -250.12,115.22 -509.07,220.98 -773.42,317.21zm1808.21 -896.98c2.45,-7.93 4.72,-15.96 6.75,-24.1l1.03 -4.3c38.29,-126.44 91.29,-247.35 162.75,-358.65 50.1,-78.02 108.41,-149.38 174.09,-214.12l38.76 -26.67c56.07,-6.48 112.48,-8.52 169.05,-6.27 54.38,2.18 108.47,8.32 162.07,17.48 -36.66,32.84 -72.71,67.82 -108.07,105.02 -178.44,187.72 -385.21,357.86 -606.43,511.61zm1420.23 -969.52c18.45,-142.63 -32.63,-282.64 -129.92,-380.69l270 -284.33c0,0 -189.34,155.95 -302.62,254.48 -49.76,-41.28 -108.97,-72.58 -175.33,-89.86 -6.75,-1.76 -13.5,-3.49 -20.26,-5.19 57.29,-58.18 113.09,-115.53 167.7,-171.83 435.85,-448.09 1152.44,-458.02 1600.53,-22.17 445.91,433.73 457.84,1145.45 28.42,1593.94 -64.07,-184.53 -163.65,-353.65 -307.07,-490.1 -348.58,-331.62 -746.55,-464.9 -1131.45,-404.25zm-5018.07 2206.03c-79.6,144.97 -261.67,197.96 -406.64,118.36 -144.97,-79.6 -197.96,-261.67 -118.36,-406.64 85,-153.73 182.34,-283.03 302.96,-404.92 113.67,-114.87 246.24,-220.23 408.58,-332.61 56.76,-39.19 122.3,-56.05 186.22,-52.51 182.1,3.72 375.21,17.37 566.71,60.9 99.68,22.66 198.42,53.02 294.5,93.54 50.01,-89.76 105.22,-175.47 168.8,-259.36 131.44,-173.43 296.09,-336.79 520.89,-508.98 51.99,-39.7 112.83,-59.72 173.59,-61.31 206.23,-10.47 407.69,-8.41 595.92,6.37 93.55,7.34 184.88,17.81 273.02,31.41 46.25,-109.85 101.18,-215.46 165.89,-316.25 116.24,-181.05 263.13,-346.23 446.86,-492.27 41.01,-32.6 87.93,-52.69 136.17,-60.84 157.75,-34.23 311.83,-46.48 464.88,-40.37 155.17,6.2 307.63,31.25 460.55,71.3 159.85,41.42 255.87,204.6 214.45,364.45 -41.42,159.85 -204.6,255.87 -364.45,214.45 -113.3,-29.68 -224.08,-48.15 -333.99,-52.54 -85.09,-3.4 -170.73,1.6 -257.89,16.35 -105.95,92.25 -192.55,193.69 -262.68,302.91 -79.89,124.43 -139.34,259.35 -182.34,402.7l-1.68 7.1c-40.12,160.51 -202.78,258.09 -363.29,217.97 -131.67,-33.2 -281.52,-56.09 -442.38,-68.71 -139.95,-10.99 -285.27,-14.25 -431.69,-9.86 -141.66,115.28 -248.34,224.42 -333.71,337.06 -96.03,126.7 -167.58,260.1 -233.22,413.09 -10.02,29.12 -24.71,57.19 -44.27,83.1 -99.67,132.02 -287.51,158.26 -419.53,58.59 -112.53,-85.03 -241.75,-135.86 -375.66,-166.3 -117.97,-26.81 -240.49,-38.89 -360.24,-44.15 -96.41,70.36 -177.12,137.25 -245.79,206.65 -79.57,80.41 -144.51,167.03 -202.18,271.32zm3261.14 -1630.85c50.8,-118.31 110.97,-226.3 183.87,-326.25 73.33,-100.55 160.68,-194.92 265.52,-285.56 41.63,-36.02 46.18,-98.99 10.16,-140.62 -36.02,-41.63 -98.99,-46.18 -140.62,-10.16 -115.78,100.1 -213.17,205.59 -296,319.16 -83.26,114.17 -150.79,234.72 -206.53,364.53 -21.78,50.69 1.66,109.47 52.35,131.25 50.69,21.78 109.47,-1.66 131.25,-52.35zm-3535.79 1519.21c49.41,-121.72 125.15,-234.62 214.69,-335.46 105.4,-118.71 229.89,-220.93 353.68,-301.68 46.16,-29.98 59.27,-91.73 29.29,-137.89 -29.98,-46.16 -91.73,-59.27 -137.89,-29.29 -137.38,89.62 -276.06,203.65 -394.3,336.82 -104.12,117.26 -192.47,249.25 -250.63,392.5 -20.71,51.13 3.95,109.37 55.08,130.08 51.13,20.71 109.37,-3.95 130.08,-55.08zm1807.71 -730.39c49.41,-121.72 125.15,-234.62 214.69,-335.46 105.4,-118.71 229.89,-220.93 353.68,-301.68 46.16,-29.98 59.27,-91.73 29.29,-137.89 -29.98,-46.16 -91.73,-59.27 -137.89,-29.29 -137.38,89.62 -276.06,203.65 -394.3,336.82 -104.12,117.26 -192.47,249.25 -250.63,392.5 -20.71,51.13 3.95,109.37 55.08,130.08 51.13,20.71 109.37,-3.95 130.08,-55.08zm95.03 -3315.6l281.99 276.74 341.61 -198.51c18.81,-10.93 41.07,-9.56 58.39,3.56 17.33,13.12 24.66,34.19 19.25,55.24l-98.67 382.59 342.71 196.59c18.85,10.82 28.8,30.76 26.11,52.32 -2.72,21.6 -17.28,38.47 -38.24,44.29l-380.65 105.85 1.09 395.1c0.06,21.75 -12.25,40.33 -32.28,48.77 -20.03,8.44 -41.93,4.27 -57.44,-10.97l-282 -276.72 -341.62 198.5c-18.8,10.92 -41.05,9.55 -58.38,-3.58 -17.33,-13.13 -24.67,-34.18 -19.24,-55.23l98.68 -382.58 -342.72 -196.6c-18.86,-10.82 -28.82,-30.78 -26.1,-52.36 2.7,-21.55 17.28,-38.43 38.22,-44.26l380.66 -105.84 -1.1 -395.09c-0.05,-21.74 12.24,-40.35 32.29,-48.78 20.03,-8.44 41.93,-4.27 57.44,10.97zm-1585.54 700.87l281.99 276.74 341.61 -198.51c18.81,-10.93 41.07,-9.56 58.39,3.56 17.33,13.12 24.66,34.19 19.25,55.24l-98.67 382.59 342.71 196.59c18.85,10.82 28.8,30.76 26.11,52.32 -2.72,21.6 -17.28,38.47 -38.24,44.29l-380.65 105.85 1.09 395.1c0.06,21.75 -12.25,40.33 -32.28,48.77 -20.03,8.44 -41.93,4.27 -57.44,-10.97l-282 -276.72 -341.62 198.5c-18.8,10.92 -41.05,9.55 -58.38,-3.58 -17.33,-13.13 -24.67,-34.18 -19.24,-55.23l98.68 -382.58 -342.72 -196.6c-18.86,-10.82 -28.82,-30.78 -26.1,-52.36 2.7,-21.55 17.28,-38.43 38.22,-44.26l380.66 -105.84 -1.1 -395.09c-0.05,-21.74 12.24,-40.35 32.29,-48.78 20.03,-8.44 41.93,-4.27 57.44,10.97zm-1586.4 665.31l281.99 276.74 341.61 -198.51c18.81,-10.93 41.07,-9.56 58.39,3.56 17.33,13.12 24.66,34.19 19.25,55.24l-98.67 382.59 342.71 196.59c18.85,10.82 28.8,30.76 26.11,52.32 -2.72,21.6 -17.28,38.47 -38.24,44.29l-380.65 105.85 1.09 395.1c0.06,21.75 -12.25,40.33 -32.28,48.77 -20.03,8.44 -41.93,4.27 -57.44,-10.97l-282 -276.72 -341.62 198.5c-18.8,10.92 -41.05,9.55 -58.38,-3.58 -17.33,-13.13 -24.67,-34.18 -19.24,-55.23l98.68 -382.58 -342.72 -196.6c-18.86,-10.82 -28.82,-30.78 -26.1,-52.36 2.7,-21.55 17.28,-38.43 38.22,-44.26l380.66 -105.84 -1.1 -395.09c-0.05,-21.74 12.24,-40.35 32.29,-48.78 20.03,-8.44 41.93,-4.27 57.44,10.97z"/>
  </g>
 </g>
</svg>
