<?xml version="1.0" encoding="UTF-8"?>
<!DOCTYPE svg PUBLIC "-//W3C//DTD SVG 1.1//EN" "http://www.w3.org/Graphics/SVG/1.1/DTD/svg11.dtd">
<!-- Creator: CorelDRAW -->
<svg xmlns="http://www.w3.org/2000/svg" xml:space="preserve" width="152.4mm" height="152.4mm" version="1.1" style="shape-rendering:geometricPrecision; text-rendering:geometricPrecision; image-rendering:optimizeQuality; fill-rule:evenodd; clip-rule:evenodd"
viewBox="0 0 15240 15240"
 xmlns:xlink="http://www.w3.org/1999/xlink"
 xmlns:xodm="http://www.corel.com/coreldraw/odm/2003">
 <defs>
  <style type="text/css">
   <![CDATA[
    .fil0 {fill:none}
    .fil1 {fill:#560B00}
    .fil2 {fill:#E81505}
   ]]>
  </style>
 </defs>
 <g id="Capa_x0020_1">
  <metadata id="CorelCorpID_0Corel-Layer"/>
  <g id="_3017583405632">
   <rect class="fil0" x="-0" y="-0" width="15240" height="15240"/>
   <ellipse id="contour" class="fil1" cx="7620.01" cy="7620" rx="7200.69" ry="7200.73"/>
   <path id="contour_155" class="fil2" d="M7620.01 364.25c4007.22,0 7255.71,3248.52 7255.71,7255.75 0,4007.22 -3248.49,7255.74 -7255.71,7255.74 -4007.22,0 -7255.7,-3248.52 -7255.7,-7255.74 0,-4007.23 3248.48,-7255.75 7255.7,-7255.75zm-0.06 985.8c3462.82,0 6270.01,2807.18 6270.01,6270 0,3462.82 -2807.19,6270.01 -6270.01,6270.01 -3462.82,0 -6270,-2807.19 -6270,-6270.01 0,-3462.82 2807.18,-6270 6270,-6270z"/>
   <path class="fil2" d="M9264.47 3078.08l297.08 347.54 413.88 -194.28c22.79,-10.7 48.32,-6.87 66.95,10.01 18.66,16.87 24.97,41.9 16.61,65.62l-152.44 431.07 375.18 261.29c20.64,14.38 30.09,38.37 24.81,62.95 -5.32,24.63 -23.81,42.6 -48.56,47.19l-449.52 83.52 -38.7 455.57c-2.14,25.08 -18.21,45.26 -42.15,52.96 -23.94,7.7 -48.77,0.68 -65.11,-18.46l-297.09 -347.52 -413.89 194.28c-22.78,10.68 -48.29,6.85 -66.94,-10.04 -18.65,-16.88 -24.98,-41.89 -16.59,-65.61l152.45 -431.05 -375.2 -261.3c-20.64,-14.38 -30.11,-38.4 -24.79,-63 5.3,-24.57 23.81,-42.56 48.54,-47.16l449.52 -83.51 38.7 -455.56c2.14,-25.07 18.19,-45.28 42.15,-52.97 23.95,-7.7 48.77,-0.68 65.11,18.46zm-5391.35 7150.3c-74.53,-761.38 261.89,-1281.34 1023.26,-1355.87 930.26,-90.89 2144.1,-306.2 3285.91,-715.48 807.18,-289.33 1565.33,-670.55 2123.47,-1163.69 573.69,-506.01 1214.74,-471.71 1720.75,101.97 301.4,341.7 329.63,919.95 181.98,1438.68 -179.28,629.79 -725.05,1352.44 -1504.89,1956.7 -1165.87,903.34 -2382.25,1286.36 -3855.43,1260.63 -1054.85,-18.41 -2843.27,-176.72 -2975.05,-1522.94zm-301.24 433.99c-723.65,13.3 -1321.08,-562.55 -1334.39,-1286.2 -13.3,-723.65 562.55,-1321.08 1286.2,-1334.39 242.47,-4.42 476.71,-12.8 703.14,-24.87 -10.45,58.3 -10.87,117.56 -1.82,175.29 -151.58,25.01 -312.55,46.26 -484.93,61.05 -161.94,13.89 -307.36,32.97 -451.08,73.63 -147.24,41.67 -288.26,104.64 -435.7,205.27 -100.32,68.45 -177.18,147.72 -236.17,247.85 -56.4,95.75 -94.66,209.17 -120.07,349.81 -12.94,72.06 34.98,141 107.04,153.94 72.06,12.94 140.99,-34.98 153.94,-107.04 19.46,-107.73 47.64,-192.7 88.35,-261.8 38.12,-64.73 89.17,-116.89 156.69,-162.96 122.71,-83.75 238.19,-135.63 357.41,-169.36 122.76,-34.74 253.91,-51.63 402.27,-64.35 205.82,-17.66 395.78,-44.21 573.13,-75.39 32.67,40.47 71.9,76.74 117.36,107.16 12.25,8.2 24.73,15.77 37.38,22.82 -730.37,222.23 -1069.5,870.81 -989.12,1691.92 13.9,142.07 42.5,274.35 84.1,397.34l-13.73 0.28zm1561.54 -2190.81c19.13,-20.49 36.89,-42.73 53,-66.75 45.48,-67.8 95.25,-128.9 151.51,-185.29 85.38,-19.44 167.9,-36.95 247.73,-51.35 150.34,-27.13 294.62,-56.16 434.25,-87.09 103.98,39.67 201.83,93.58 285.12,168.79 11.45,10.33 23.24,20.05 35.31,29.19 -401.83,81.77 -806.73,145.76 -1206.92,192.5zm1999.21 -378.57c2.27,-4.55 4.47,-9.15 6.61,-13.77 79.63,-147.66 168.14,-284.86 280.81,-409.59 103.17,-37.19 206.72,-75.73 311.41,-115.64 117.22,-44.67 235.68,-91.7 356.27,-141.73 28.15,4.13 56.26,8.53 84.31,13.23 159.51,26.69 320.53,63.45 473.5,116.42 13.68,4.73 27.41,8.84 41.2,12.39 -210.53,93.45 -422.83,176.83 -630.44,251.24 -299.99,107.53 -609.2,203.25 -923.67,287.45zm2175.2 -851.13c3.62,-8.89 7.05,-17.92 10.22,-27.1l1.62 -4.85c56.93,-141.89 130.26,-275.91 223.89,-396.99 65.65,-84.87 140.08,-161.23 222.35,-229.22l47.38 -26.82c65.29,-1.8 130.52,1.55 195.51,9.87 62.47,8.01 124.2,20.56 185.06,36.54 -45.58,34.15 -90.68,70.83 -135.2,110.13 -224.69,198.36 -480.26,373.58 -750.83,528.44zm1735.28 -973.99c35.69,-162.56 -9.03,-329.13 -111.27,-452l340.02 -300.46c0,0 -234.05,160.63 -374.6,262.75 -53.19,-52.62 -118.28,-94.69 -193.03,-121.32 -7.6,-2.71 -15.21,-5.39 -22.83,-8.03 71.93,-61.28 142.06,-121.74 210.7,-181.12 547.77,-472.47 1374.84,-411.43 1847.31,136.33 470.17,545.1 411.93,1366.76 -128.46,1840.34 -55.2,-219.2 -152.88,-424.23 -304.41,-596.04 -368.3,-417.54 -813.59,-611.44 -1263.43,-580.45zm-6007.88 2035.51c-106.43,159.06 -321.67,201.73 -480.74,95.31 -159.07,-106.43 -201.74,-321.67 -95.31,-480.74 113.53,-168.62 238.82,-307.83 390.2,-436.14 142.66,-120.92 306.14,-228.97 504.65,-342.1 69.39,-39.44 146.65,-52.24 219.98,-41.7 209.55,22.71 430.78,57.98 647.13,127.53 112.62,36.2 223.38,81.19 330.04,137.62 66.73,-98.42 139.04,-191.64 220.82,-281.92 169.06,-186.63 375.39,-358.29 651.96,-534.05 63.94,-40.51 136.1,-57.43 206.31,-53.12 238.8,8.79 470.83,31.54 686.32,67.62 107.1,17.92 211.33,39.23 311.56,63.82 64.42,-121.95 138.43,-238.14 223.22,-347.79 152.31,-196.95 338.35,-372.51 564.92,-522.28 50.58,-33.43 106.7,-51.85 163.13,-56.36 185.32,-23.5 364.18,-22.04 539.99,0.48 178.25,22.84 351.47,67.14 523.7,128.78 180.09,63.92 274.27,261.74 210.35,441.82 -63.91,180.08 -261.74,274.27 -441.82,210.35 -127.61,-45.67 -253.44,-78.17 -379.7,-94.35 -97.75,-12.52 -196.98,-15.42 -298.95,-7.23 -131.47,95.62 -241.56,203.8 -333.45,322.62 -104.68,135.36 -186.86,284.88 -250.93,445.78l-2.65 8.01c-62.49,180.98 -259.87,277.02 -440.85,214.53 -148.42,-51.59 -318.85,-93.13 -503.01,-123.95 -160.22,-26.83 -327.42,-45.28 -496.65,-55.03 -174.96,118.56 -308.98,233.59 -418.79,354.8 -123.52,136.34 -219.49,282.89 -310.63,452.61 -14.5,32.56 -34.27,63.43 -59.44,91.32 -128.25,142.11 -347.45,153.36 -489.56,25.11 -121.12,-109.4 -264.94,-181.07 -416.23,-229.71 -133.28,-42.83 -273.3,-69.15 -410.81,-87.33 -118.26,71.36 -218.07,140.31 -304.25,213.36 -99.86,84.65 -183.48,177.94 -260.51,292.33zm3924.34 -1550.16c70.53,-131.25 150.82,-249.65 244.96,-357.5 94.71,-108.5 204.95,-208.45 334.97,-302.33 51.64,-37.32 63.25,-109.45 25.94,-161.08 -37.31,-51.63 -109.44,-63.25 -161.08,-25.94 -143.59,103.69 -266.53,215.44 -373.5,337.99 -107.53,123.19 -197.57,255.33 -274.96,399.33 -30.23,56.23 -9.16,126.36 47.07,156.6 56.24,30.23 126.37,9.16 156.6,-47.07zm-4229.66 1393.68c69.27,-135.32 168,-257.81 281.42,-365 133.51,-126.18 287.36,-231.43 438.23,-312 56.25,-29.89 77.61,-99.75 47.71,-155.99 -29.89,-56.24 -99.75,-77.6 -155.99,-47.71 -167.43,89.41 -338.84,206.84 -488.61,348.4 -131.89,124.64 -247.09,267.86 -328.62,427.11 -29.05,56.85 -6.51,126.48 50.33,155.53 56.85,29.04 126.48,6.51 155.53,-50.34zm2157.77 -659.14c69.27,-135.32 168.01,-257.8 281.43,-364.99 133.51,-126.19 287.36,-231.44 438.23,-312 56.24,-29.89 77.6,-99.75 47.71,-156 -29.89,-56.24 -99.75,-77.6 -156,-47.71 -167.43,89.42 -338.83,206.84 -488.61,348.4 -131.89,124.64 -247.08,267.86 -328.62,427.12 -29.04,56.84 -6.51,126.48 50.34,155.52 56.85,29.05 126.48,6.51 155.52,-50.34zm444.92 -3812.55l297.08 347.54 413.88 -194.28c22.79,-10.7 48.31,-6.87 66.95,10.01 18.65,16.87 24.97,41.9 16.6,65.62l-152.44 431.07 375.19 261.29c20.63,14.38 30.09,38.37 24.8,62.95 -5.32,24.63 -23.81,42.6 -48.56,47.19l-449.51 83.52 -38.71 455.57c-2.13,25.08 -18.2,45.26 -42.14,52.96 -23.95,7.7 -48.77,0.68 -65.11,-18.46l-297.09 -347.52 -413.9 194.28c-22.77,10.68 -48.28,6.85 -66.93,-10.04 -18.65,-16.88 -24.99,-41.89 -16.6,-65.61l152.46 -431.05 -375.2 -261.3c-20.65,-14.38 -30.11,-38.4 -24.79,-63 5.29,-24.57 23.81,-42.56 48.54,-47.16l449.52 -83.51 38.69 -455.56c2.14,-25.07 18.19,-45.28 42.16,-52.97 23.94,-7.7 48.77,-0.68 65.11,18.46zm-1898.68 647.58l297.08 347.54 413.89 -194.29c22.78,-10.69 48.31,-6.86 66.95,10.01 18.65,16.88 24.97,41.91 16.6,65.63l-152.44 431.06 375.18 261.29c20.64,14.38 30.09,38.38 24.81,62.96 -5.32,24.62 -23.81,42.6 -48.56,47.19l-449.52 83.52 -38.7 455.57c-2.13,25.08 -18.2,45.25 -42.15,52.96 -23.94,7.7 -48.77,0.68 -65.1,-18.46l-297.1 -347.52 -413.89 194.27c-22.78,10.69 -48.29,6.86 -66.94,-10.03 -18.65,-16.89 -24.98,-41.89 -16.59,-65.61l152.45 -431.05 -375.19 -261.3c-20.65,-14.39 -30.11,-38.4 -24.8,-63 5.3,-24.57 23.81,-42.56 48.54,-47.16l449.52 -83.51 38.7 -455.56c2.14,-25.07 18.19,-45.28 42.16,-52.97 23.94,-7.7 48.76,-0.68 65.1,18.46zm-1896.07 606.49l297.09 347.55 413.88 -194.29c22.79,-10.7 48.31,-6.86 66.95,10.01 18.65,16.88 24.97,41.91 16.6,65.63l-152.44 431.06 375.18 261.29c20.64,14.38 30.09,38.37 24.81,62.96 -5.32,24.62 -23.81,42.6 -48.56,47.19l-449.51 83.52 -38.71 455.57c-2.13,25.08 -18.2,45.25 -42.15,52.96 -23.94,7.7 -48.76,0.68 -65.1,-18.46l-297.1 -347.52 -413.89 194.27c-22.78,10.69 -48.29,6.86 -66.94,-10.03 -18.65,-16.89 -24.98,-41.9 -16.59,-65.61l152.45 -431.05 -375.19 -261.31c-20.65,-14.38 -30.11,-38.39 -24.79,-63 5.29,-24.57 23.8,-42.55 48.53,-47.15l449.53 -83.51 38.69 -455.56c2.14,-25.07 18.19,-45.28 42.16,-52.97 23.94,-7.7 48.77,-0.68 65.1,18.45z"/>
  </g>
 </g>
</svg>
