<?xml version="1.0" encoding="UTF-8"?>
<!DOCTYPE svg PUBLIC "-//W3C//DTD SVG 1.1//EN" "http://www.w3.org/Graphics/SVG/1.1/DTD/svg11.dtd">
<!-- Creator: CorelDRAW -->
<svg xmlns="http://www.w3.org/2000/svg" xml:space="preserve" width="152.4mm" height="152.4mm" version="1.1" style="shape-rendering:geometricPrecision; text-rendering:geometricPrecision; image-rendering:optimizeQuality; fill-rule:evenodd; clip-rule:evenodd"
viewBox="0 0 15240 15240"
 xmlns:xlink="http://www.w3.org/1999/xlink"
 xmlns:xodm="http://www.corel.com/coreldraw/odm/2003">
 <defs>
  <style type="text/css">
   <![CDATA[
    .fil0 {fill:none}
    .fil1 {fill:#1183C6}
    .fil2 {fill:#F4D40E}
   ]]>
  </style>
 </defs>
 <g id="Capa_x0020_1">
  <metadata id="CorelCorpID_0Corel-Layer"/>
  <g id="_2981914875680">
   <rect class="fil0" x="-0" y="-0" width="15240" height="15240"/>
   <ellipse id="contour" class="fil1" cx="7620.01" cy="7620" rx="7200.69" ry="7200.73"/>
   <path id="contour_48" class="fil2" d="M7620.01 364.25c4007.22,0 7255.71,3248.52 7255.71,7255.75 0,4007.22 -3248.49,7255.74 -7255.71,7255.74 -4007.22,0 -7255.7,-3248.52 -7255.7,-7255.74 0,-4007.23 3248.48,-7255.75 7255.7,-7255.75zm-1480.52 6892.73c5.43,17.5 12.13,42.59 20.13,75.28 8,32.69 10.99,66.39 8.95,101.12 -2.02,34.71 -12.55,67.81 -31.56,99.28 -19.02,31.47 -52.83,54.73 -101.44,69.79 -35,10.85 -70.62,12.83 -106.85,5.94 -36.24,-6.89 -65.38,-21.84 -87.42,-44.83 -24.59,-24.36 -42.22,-50.32 -52.91,-77.91 -10.67,-27.59 -21.14,-57.91 -31.38,-90.97l-389.5 -1257.04c-98.21,136.99 -178.93,239.25 -242.18,306.8 -63.25,67.54 -115.29,107.64 -156.12,120.29 -42.77,13.26 -83.6,10.45 -122.48,-8.4 -38.87,-18.85 -66.14,-53.56 -81.81,-104.12 -12.04,-38.88 -8.71,-74.55 10.01,-106.98 18.71,-32.44 54.67,-72.89 107.85,-121.33 28.24,-25.79 60.46,-57.62 96.68,-95.48 36.22,-37.87 72.39,-81.04 108.51,-129.52 36.12,-48.49 69.58,-100.41 100.37,-155.78 30.8,-55.35 54.89,-113.44 72.28,-174.23 9.07,-32.64 16.91,-60.65 23.52,-84 6.61,-23.36 14.92,-42.98 24.91,-58.87 10,-15.88 21.87,-29.15 35.62,-39.81 13.74,-10.64 31.31,-19.29 52.7,-25.91 42.78,-13.26 78.51,-13.14 107.19,0.34 28.69,13.5 52.6,32.19 71.73,56.1 19.12,23.91 34.03,49.66 44.72,77.24 10.67,27.6 18.73,50.15 24.15,67.65l494.33 1595.35zm1005.51 -1189.93c-36.75,-118.61 -74.59,-223.56 -113.54,-314.85 -38.94,-91.28 -81.63,-165.43 -128.06,-222.43 -46.44,-57.01 -96.95,-96.23 -151.54,-117.67 -54.59,-21.45 -114.94,-21.93 -181.05,-1.44 -73.88,22.89 -126.23,62.02 -157.02,117.37 -30.8,55.37 -46.72,122.63 -47.75,201.81 -1.05,79.16 9.01,166.62 30.14,262.36 21.14,95.74 47.38,194.16 78.71,295.27 32.53,105 67.3,203.45 104.29,295.34 37.01,91.89 78.32,170.19 123.94,234.9 45.62,64.72 96.94,111.68 153.94,140.9 57.01,29.23 122.46,32.39 196.34,9.49 71.94,-22.29 124.09,-60.3 156.46,-114.01 32.38,-53.72 49.57,-120.31 51.57,-199.79 2.02,-79.47 -8,-168.53 -30.03,-267.19 -22.05,-98.65 -50.85,-205.34 -86.4,-320.06zm401.87 -95.75c37.35,120.54 67.2,246.08 89.53,376.62 22.34,130.53 20.67,254.12 -4.99,370.75 -27.88,130.11 -83.7,242.24 -167.48,336.39 -83.77,94.15 -188.84,160.81 -315.24,199.97 -40.82,12.65 -92.06,22.67 -153.71,30.06 -61.64,7.37 -127.87,3.39 -198.69,-11.96 -70.83,-15.35 -144.4,-44.76 -220.74,-88.24 -76.33,-43.48 -150.89,-110.41 -223.65,-200.81 -52.06,-64.85 -100.86,-146.7 -146.4,-245.52 -45.54,-98.84 -84.58,-200.76 -117.11,-305.75 -16.27,-52.5 -34.55,-116.63 -54.82,-192.4 -20.28,-75.76 -35.63,-156.24 -46.05,-241.46 -10.42,-85.2 -12.77,-171.85 -7.03,-259.93 5.73,-88.09 25.7,-171.53 59.9,-250.31 34.19,-78.79 86.57,-150.44 157.16,-214.93 70.59,-64.49 165.19,-115.12 283.79,-151.87 75.84,-23.5 145.62,-35.53 209.38,-36.11 63.75,-0.57 120.93,5.16 171.55,17.18 50.6,12.02 94.52,28.25 131.75,48.67 37.23,20.44 67.91,38.63 92.04,54.6 38.07,26.56 76.03,57.95 113.88,94.17 37.87,36.22 76.46,83.4 115.78,141.53 39.33,58.15 78.04,129.79 116.15,214.95 38.11,85.15 76.44,189.95 115,314.4zm1190.22 -373.95c-36.75,-118.61 -74.59,-223.56 -113.54,-314.85 -38.94,-91.28 -81.63,-165.43 -128.06,-222.43 -46.44,-57.01 -96.95,-96.23 -151.54,-117.67 -54.59,-21.45 -114.94,-21.93 -181.05,-1.44 -73.88,22.89 -126.23,62.02 -157.02,117.37 -30.8,55.37 -46.72,122.63 -47.75,201.81 -1.05,79.16 9.01,166.62 30.14,262.36 21.14,95.74 47.38,194.16 78.71,295.27 32.53,105 67.3,203.45 104.29,295.34 37.01,91.89 78.32,170.19 123.94,234.9 45.62,64.72 96.94,111.68 153.94,140.9 57.01,29.23 122.46,32.39 196.34,9.49 71.94,-22.29 124.09,-60.3 156.46,-114.01 32.38,-53.72 49.57,-120.31 51.57,-199.79 2.02,-79.47 -8,-168.53 -30.03,-267.19 -22.05,-98.65 -50.85,-205.34 -86.4,-320.06zm401.87 -95.75c37.35,120.54 67.2,246.08 89.53,376.62 22.34,130.53 20.67,254.12 -4.99,370.75 -27.88,130.11 -83.7,242.24 -167.48,336.39 -83.77,94.15 -188.84,160.81 -315.24,199.97 -40.82,12.65 -92.06,22.67 -153.71,30.06 -61.64,7.37 -127.87,3.39 -198.69,-11.96 -70.83,-15.35 -144.4,-44.76 -220.74,-88.24 -76.33,-43.48 -150.89,-110.41 -223.65,-200.81 -52.06,-64.85 -100.86,-146.7 -146.4,-245.52 -45.54,-98.84 -84.58,-200.76 -117.11,-305.75 -16.27,-52.5 -34.55,-116.63 -54.82,-192.4 -20.28,-75.76 -35.63,-156.24 -46.05,-241.46 -10.42,-85.2 -12.77,-171.85 -7.03,-259.93 5.73,-88.09 25.7,-171.53 59.9,-250.31 34.19,-78.79 86.57,-150.44 157.16,-214.93 70.59,-64.49 165.19,-115.12 283.79,-151.87 75.84,-23.5 145.62,-35.53 209.38,-36.11 63.75,-0.57 120.93,5.16 171.55,17.18 50.6,12.02 94.52,28.25 131.75,48.67 37.23,20.44 67.91,38.63 92.04,54.6 38.07,26.56 76.03,57.95 113.88,94.17 37.87,36.22 76.46,83.4 115.78,141.53 39.33,58.15 78.04,129.79 116.15,214.95 38.11,85.15 76.44,189.95 115,314.4zm-5360.34 -374.92c-49.01,-169.13 48.37,-345.99 217.5,-395 169.13,-49.01 345.99,48.37 395,217.5l88.29 305.07c1235.98,-828.68 2310.67,-1257.65 3250.4,-1352.2 437.23,-43.98 1540.69,-69.14 1725.95,434.5l225.41 549.45 1152.29 -362.52c56.87,-17.89 117.69,12.07 138.17,68.05l1024.4 2799.99c20.92,57.19 2.98,118.8 -45.4,155.79 -430.54,329.24 -918.45,552.75 -1438.24,719.89 -328.73,108.37 -608.86,65.22 -624.35,-58.93 -9.82,-78.72 139.66,-110.7 313.02,-252.4 348.61,-226.76 232.68,-566.07 -250.34,-633.41 -713.69,-99.5 -3359.82,925.06 -4419.62,1565.67l1437.92 4968.43c213.98,22.07 431.12,33.5 650.93,33.5 3462.82,0 6270.01,-2807.19 6270.01,-6270.01 0,-3462.82 -2807.19,-6270 -6270.01,-6270 -3462.82,0 -6270,2807.18 -6270,6270 0,3000.28 2107.49,5507.93 4922.76,6124.42l-2494.09 -8617.79z"/>
  </g>
 </g>
</svg>
