<?xml version="1.0" encoding="UTF-8"?>
<!DOCTYPE svg PUBLIC "-//W3C//DTD SVG 1.1//EN" "http://www.w3.org/Graphics/SVG/1.1/DTD/svg11.dtd">
<!-- Creator: CorelDRAW -->
<svg xmlns="http://www.w3.org/2000/svg" xml:space="preserve" width="152.4mm" height="152.4mm" version="1.1" style="shape-rendering:geometricPrecision; text-rendering:geometricPrecision; image-rendering:optimizeQuality; fill-rule:evenodd; clip-rule:evenodd"
viewBox="0 0 4724.9 4724.9"
 xmlns:xlink="http://www.w3.org/1999/xlink"
 xmlns:xodm="http://www.corel.com/coreldraw/odm/2003">
 <defs>
  <style type="text/css">
   <![CDATA[
    .fil0 {fill:none}
    .fil1 {fill:#4177B7}
    .fil4 {fill:#D5DE23}
    .fil2 {fill:#D5DE23}
    .fil3 {fill:white}
   ]]>
  </style>
 </defs>
 <g id="Capa_x0020_1">
  <metadata id="CorelCorpID_0Corel-Layer"/>
  <g id="_2981977648080">
   <rect class="fil0" x="-0" y="-0" width="4724.9" height="4724.9"/>
   <ellipse id="contour" class="fil1" cx="2362.45" cy="2362.45" rx="2232.45" ry="2232.46"/>
   <path id="contour_124" class="fil2" d="M2362.45 112.93c1242.37,0 2249.51,1007.15 2249.51,2249.52 0,1242.37 -1007.14,2249.52 -2249.51,2249.52 -1242.37,0 -2249.51,-1007.15 -2249.51,-2249.52 0,-1242.37 1007.14,-2249.52 2249.51,-2249.52zm-0.02 305.63c1073.59,0 1943.91,870.32 1943.91,1943.91 0,1073.59 -870.32,1943.91 -1943.91,1943.91 -1073.59,0 -1943.91,-870.32 -1943.91,-1943.91 0,-1073.59 870.32,-1943.91 1943.91,-1943.91z"/>
   <path class="fil3" d="M2072.15 2292.37c263.92,0 498.1,127.22 644.62,323.67l610.41 6.68 -463.3 334.84c7.81,44.98 11.92,91.24 11.92,138.45 0,443.85 -359.81,803.65 -803.65,803.65 -404.08,0 -738.46,-298.24 -795.14,-686.6l-481.46 -237.72 150.75 -278.74 -110.93 -122.3 267.36 -210.48 185.57 554.27c80.97,-358.22 401.15,-625.73 783.85,-625.73zm481.12 392.61c113.31,0 205.17,91.86 205.17,205.17 0,113.31 -91.86,205.17 -205.17,205.17 -113.31,0 -205.17,-91.86 -205.17,-205.17 0,-113.31 91.86,-205.17 205.17,-205.17z"/>
   <path class="fil4" d="M2841.15 835.08c405.14,0 733.58,328.43 733.58,733.58 0,205.01 -84.13,390.34 -219.7,523.45l191.4 429.26 -346.76 -312.62c-106.01,59.52 -228.29,93.49 -358.52,93.49 -405.15,0 -733.58,-328.43 -733.58,-733.58 0,-405.14 328.43,-733.58 733.58,-733.58z"/>
   <path class="fil1" d="M2695.67 1774.53c-32.66,6.79 -67.88,12.48 -101.85,12.48 -144.76,0 -245.56,-64.11 -245.56,-198.24 0,-135.84 93.76,-211.9 245.56,-211.9 29.47,0 68.55,5.11 101.21,16.01l-6.39 67.44c-33.96,-17.06 -64.71,-21.05 -96.73,-21.05 -92.25,0 -149.89,62.53 -149.89,143.82 0,80.7 56.37,141.53 151.8,141.53 35.23,0 76.88,-6.82 98.01,-16.5l3.84 66.42z"/>
   <polygon class="fil1" points="2745.36,1384.02 3009.12,1384.02 3009.12,1446.43 2834.9,1446.43 2834.9,1544.02 2994.38,1544.02 2994.38,1606.44 2834.9,1606.44 2834.9,1717.46 3010.41,1717.46 3010.41,1779.84 2745.36,1779.84 "/>
   <path class="fil1" d="M3299.75 1456.33c-28.27,-10.8 -59.73,-17.06 -90.96,-17.06 -30.61,0 -70.12,11.94 -70.12,55.14 0,68.78 195.75,39.8 195.75,172.78 0,86.91 -77.7,119.81 -167.71,119.81 -48.6,0 -70.42,-5.68 -114.74,-15.32l8.36 -71.53c30.81,14.79 66.15,24.46 101.31,24.46 33.77,0 79.03,-15.36 79.03,-51.16 0,-75.59 -195.75,-44.33 -195.75,-175.62 0,-88.63 77.7,-120.97 156.23,-120.97 38.22,0 74.19,4.56 106.94,14.17l-8.33 65.3z"/>
  </g>
 </g>
</svg>
