<?xml version="1.0" encoding="UTF-8"?>
<!DOCTYPE svg PUBLIC "-//W3C//DTD SVG 1.1//EN" "http://www.w3.org/Graphics/SVG/1.1/DTD/svg11.dtd">
<!-- Creator: CorelDRAW -->
<svg xmlns="http://www.w3.org/2000/svg" xml:space="preserve" width="152.4mm" height="152.4mm" version="1.1" style="shape-rendering:geometricPrecision; text-rendering:geometricPrecision; image-rendering:optimizeQuality; fill-rule:evenodd; clip-rule:evenodd"
viewBox="0 0 15240 15240"
 xmlns:xlink="http://www.w3.org/1999/xlink"
 xmlns:xodm="http://www.corel.com/coreldraw/odm/2003">
 <defs>
  <style type="text/css">
   <![CDATA[
    .fil0 {fill:none}
    .fil1 {fill:#4177B7}
    .fil4 {fill:#D5DE23}
    .fil2 {fill:#D5DE23}
    .fil3 {fill:white}
   ]]>
  </style>
 </defs>
 <g id="Capa_x0020_1">
  <metadata id="CorelCorpID_0Corel-Layer"/>
  <g id="_2981990300144">
   <rect class="fil0" x="-0" y="-0" width="15240" height="15240"/>
   <path class="fil1" d="M5302.97 620.06c602.29,-87.67 1258.56,-139.78 1925.26,-155.94l0 -2.44c130.23,-2.33 260.7,-3.31 391.1,-2.91l1.35 0c130.4,-0.4 260.88,0.57 391.1,2.91l0 2.44c666.7,16.16 1322.97,68.27 1925.26,155.94 1168.23,170.04 2034.35,454.91 2991.98,961.24 375,198.28 624.47,507.53 738.86,916.01 546.7,1952.26 593.62,4475.73 -355.27,6693.43 -1022.72,2390.25 -2931.53,4171.57 -5219.41,5347.67l-81.42 41.85 0 0.18 -19.03 9.6 -369.3 189.85 -3.43 1.43 -3.46 -1.43 -369.29 -189.85 -19.04 -9.6 0 -0.18 -81.42 -41.85c-2287.88,-1176.1 -4196.69,-2957.42 -5219.4,-5347.67 -948.9,-2217.7 -901.98,-4741.17 -355.27,-6693.43 114.39,-408.48 363.85,-717.73 738.85,-916.01 957.63,-506.33 1823.76,-791.2 2991.98,-961.24z"/>
   <path class="fil2" d="M5272.5 527.99c610.21,-88.82 1275.11,-141.62 1950.58,-157.99l0 -2.47c131.94,-2.36 264.13,-3.35 396.24,-2.95l1.37 0c132.12,-0.4 264.31,0.58 396.24,2.95l0 2.47c675.47,16.37 1340.37,69.17 1950.59,157.99 1183.59,172.28 2061.1,460.89 3031.33,973.89 379.93,200.88 632.68,514.2 748.57,928.05 553.9,1977.94 601.43,4534.6 -359.94,6781.46 -1036.17,2421.7 -2970.08,4226.45 -5288.06,5418.02l-82.49 42.4 0 0.18 -19.28 9.73 -374.16 192.34 -3.47 1.45 -3.5 -1.45 -374.16 -192.34 -19.28 -9.73 0 -0.18 -82.49 -42.4c-2317.98,-1191.57 -4251.89,-2996.32 -5288.05,-5418.02 -961.38,-2246.86 -913.85,-4803.52 -359.95,-6781.46 115.9,-413.85 368.64,-727.17 748.58,-928.05 970.22,-513 1847.74,-801.61 3031.33,-973.89zm151.33 1039.69c-1063.03,154.73 -2023.76,454.89 -2852.19,943.01 -1334,4290.73 309.12,8747.6 5049.28,11184.3 4789.49,-2416.98 6493.14,-6893.57 5159.14,-11184.3 -810,-477.25 -1746.44,-774.83 -2781.36,-932.47 -1360.59,-207.25 -3211.6,-208.97 -4574.87,-10.54z"/>
   <path class="fil3" d="M6807.13 6574.44c667.33,0 1259.49,321.69 1629.97,818.44l1543.45 16.89 -1171.48 846.67c19.76,113.74 30.15,230.69 30.15,350.09 0,1122.3 -909.8,2032.09 -2032.09,2032.09 -1021.76,0 -1867.25,-754.12 -2010.57,-1736.11l-1217.41 -601.09 381.18 -704.82 -280.49 -309.26 676.05 -532.21 469.22 1401.51c204.72,-905.77 1014.34,-1582.2 1982.02,-1582.2zm1216.56 992.74c286.51,0 518.78,232.26 518.78,518.79 0,286.51 -232.27,518.78 -518.78,518.78 -286.53,0 -518.79,-232.27 -518.79,-518.78 0,-286.53 232.26,-518.79 518.79,-518.79z"/>
   <path class="fil4" d="M8751.59 2889.55c1024.44,0 1854.91,830.47 1854.91,1854.91 0,518.38 -212.72,987 -555.53,1323.59l483.97 1085.42 -876.8 -790.48c-268.04,150.5 -577.25,236.39 -906.55,236.39 -1024.45,0 -1854.92,-830.47 -1854.92,-1854.92 0,-1024.44 830.47,-1854.91 1854.92,-1854.91z"/>
   <path class="fil1" d="M8383.75 5265.02c-82.57,17.18 -171.65,31.55 -257.52,31.55 -366.05,0 -620.93,-162.11 -620.93,-501.27 0,-343.5 237.08,-535.79 620.93,-535.79 74.51,0 173.33,12.91 255.9,40.48l-16.14 170.52c-85.88,-43.14 -163.63,-53.23 -244.58,-53.23 -233.26,0 -379.03,158.13 -379.03,363.66 0,204.07 142.53,357.86 383.85,357.86 89.07,0 194.39,-17.25 247.81,-41.71l9.71 167.93z"/>
   <polygon class="fil1" points="8509.39,4277.61 9176.32,4277.61 9176.32,4435.41 8735.79,4435.41 8735.79,4682.16 9139.05,4682.16 9139.05,4840 8735.79,4840 8735.79,5120.72 9179.59,5120.72 9179.59,5278.46 8509.39,5278.46 "/>
   <path class="fil1" d="M9911.2 4460.44c-71.48,-27.31 -151.04,-43.13 -229.99,-43.13 -77.4,0 -177.31,30.19 -177.31,139.42 0,173.92 494.95,100.63 494.95,436.88 0,219.76 -196.47,302.95 -424.06,302.95 -122.89,0 -178.06,-14.36 -290.14,-38.73l21.12 -180.87c77.92,37.4 167.26,61.83 256.17,61.83 85.39,0 199.84,-38.83 199.84,-129.36 0,-191.13 -494.96,-112.08 -494.96,-444.06 0,-224.1 196.47,-305.87 395.04,-305.87 96.65,0 187.6,11.52 270.4,35.82l-21.06 165.12z"/>
  </g>
 </g>
</svg>
