<?xml version="1.0" encoding="UTF-8"?>
<!DOCTYPE svg PUBLIC "-//W3C//DTD SVG 1.1//EN" "http://www.w3.org/Graphics/SVG/1.1/DTD/svg11.dtd">
<!-- Creator: CorelDRAW -->
<svg xmlns="http://www.w3.org/2000/svg" xml:space="preserve" width="152.4mm" height="152.4mm" version="1.1" style="shape-rendering:geometricPrecision; text-rendering:geometricPrecision; image-rendering:optimizeQuality; fill-rule:evenodd; clip-rule:evenodd"
viewBox="0 0 15240 15240"
 xmlns:xlink="http://www.w3.org/1999/xlink"
 xmlns:xodm="http://www.corel.com/coreldraw/odm/2003">
 <defs>
  <style type="text/css">
   <![CDATA[
    .fil0 {fill:none}
    .fil1 {fill:#FCFB10}
    .fil2 {fill:#FF8C19}
   ]]>
  </style>
 </defs>
 <g id="Capa_x0020_1">
  <metadata id="CorelCorpID_0Corel-Layer"/>
  <g id="_2981915267776">
   <rect class="fil0" x="-0" y="-0" width="15240" height="15240"/>
   <ellipse id="contour" class="fil1" cx="7620.01" cy="7620" rx="7200.69" ry="7200.73"/>
   <path id="contour_132" class="fil2" d="M7620.01 364.25c4007.22,0 7255.71,3248.52 7255.71,7255.75 0,4007.22 -3248.49,7255.74 -7255.71,7255.74 -4007.22,0 -7255.7,-3248.52 -7255.7,-7255.74 0,-4007.23 3248.48,-7255.75 7255.7,-7255.75zm-0.06 985.8c3462.82,0 6270.01,2807.18 6270.01,6270 0,3462.82 -2807.19,6270.01 -6270.01,6270.01 -3462.82,0 -6270,-2807.19 -6270,-6270.01 0,-3462.82 2807.18,-6270 6270,-6270z"/>
   <path class="fil2" d="M4657.86 6416.84l-621.63 0c-66.72,0 -124.14,24.21 -170.73,71.97 -46.59,47.77 -69.35,105.78 -67.68,172.49 21.72,870.41 -111.56,1616.85 -818.01,1904.72 -81.91,33.37 -132.7,108.87 -132.7,197.32l0 1191.1 331.1 0 55.7 0c113.34,-372.39 459.45,-643.35 868.89,-643.35 409.44,0 755.56,270.96 868.9,643.35l1010.35 0c-834.25,-728.23 -1361.43,-1799.35 -1361.43,-2993.69 0,-184.54 12.87,-366.03 37.24,-543.88l0 -0.03zm6820.18 3162.52c353.39,0 639.87,286.49 639.87,639.88 0,353.4 -286.48,639.87 -639.87,639.87 -353.39,0 -639.88,-286.47 -639.88,-639.87 0,-353.39 286.49,-639.88 639.88,-639.88zm-5334.69 -4625.01l391.47 0 0 -399.9c-141.93,121.49 -272.95,255.38 -391.47,399.9zm982.53 0l1072.64 0 0 -1135.76c-382.96,47.66 -744.7,163.69 -1072.64,335.48l0 800.28zm1663.7 0l1225.88 0 0 -823.32c-372.5,-187.6 -787.14,-303.72 -1225.88,-330.63l0 1153.95zm1816.94 0l436.4 0c-130.94,-159.68 -277.1,-306.36 -436.4,-437.73l0 437.73zm809.95 571.33l0 19.72 -809.95 0 0 1225.88 1147.49 0c-26.35,-446.36 -145.14,-867.85 -337.55,-1245.6l0.01 0zm-1401 19.72l-1225.89 0 0 1225.88 1225.89 0 0 -1225.88zm-1816.94 0l-1072.65 0 0 1225.88 1072.65 0 0 -1225.88zm-1663.7 0l-775.1 0c-186.57,372.66 -301.73,787.27 -327.64,1225.88l1102.73 0 0 -1225.88 0.01 0zm-744.81 2889.57l744.81 0 0 -1072.63 -1083.1 0c48.52,383.11 165.53,744.86 338.3,1072.63l-0.01 0zm1335.86 0l1072.65 0 0 -1072.63 -1072.65 0 0 1072.63zm1663.7 0l1225.89 0 0 -1072.63 -1225.89 0 0 1072.63zm1816.95 0l789.64 0c172.74,-327.77 289.69,-689.53 338.21,-1072.63l-1127.85 0 0 1072.63zm386.87 591.07l-386.88 0 0 378.8c139.49,-115.04 268.94,-241.84 386.88,-378.8zm-977.93 0l-1225.89 0 0 1095.01c438.76,-26.91 853.38,-143.02 1225.89,-330.63l0 -764.38zm-1816.94 0l-1072.65 0 0 741.34c327.95,171.79 689.68,287.83 1072.65,335.48l0 -1076.82zm-1663.7 0l-341.92 0c105.17,122.13 219.48,236.16 341.92,340.97l0 -340.97zm2058.22 -5769.46c2045.74,0 3704.14,1658.41 3704.14,3704.15 0,892.45 -315.66,1711.15 -841.38,2350.61 -446.85,10.76 -813.68,344.25 -876.41,776.29 -574.05,365.42 -1255.44,577.23 -1986.35,577.23 -2045.72,0 -3704.14,-1658.41 -3704.14,-3704.13 0,-2045.74 1658.42,-3704.15 3704.14,-3704.15zm-4490.24 6322.78c353.39,0 639.87,286.49 639.87,639.88 0,353.4 -286.48,639.87 -639.87,639.87 -353.39,0 -639.87,-286.47 -639.87,-639.87 0,-353.39 286.48,-639.88 639.87,-639.88z"/>
  </g>
 </g>
</svg>
