<?xml version="1.0" encoding="UTF-8"?>
<!DOCTYPE svg PUBLIC "-//W3C//DTD SVG 1.1//EN" "http://www.w3.org/Graphics/SVG/1.1/DTD/svg11.dtd">
<!-- Creator: CorelDRAW -->
<svg xmlns="http://www.w3.org/2000/svg" xml:space="preserve" width="152.4mm" height="152.4mm" version="1.1" style="shape-rendering:geometricPrecision; text-rendering:geometricPrecision; image-rendering:optimizeQuality; fill-rule:evenodd; clip-rule:evenodd"
viewBox="0 0 15240 15240"
 xmlns:xlink="http://www.w3.org/1999/xlink"
 xmlns:xodm="http://www.corel.com/coreldraw/odm/2003">
 <defs>
  <style type="text/css">
   <![CDATA[
    .fil0 {fill:none}
    .fil1 {fill:#133E6A}
    .fil2 {fill:#1AD2FB}
    .fil3 {fill:#1AD2FB;fill-rule:nonzero}
   ]]>
  </style>
 </defs>
 <g id="Capa_x0020_1">
  <metadata id="CorelCorpID_0Corel-Layer"/>
  <g id="_2981971694288">
   <rect class="fil0" x="-0" y="-0" width="15240" height="15240"/>
   <path class="fil1" d="M5302.97 620.06c602.29,-87.67 1258.56,-139.78 1925.26,-155.94l0 -2.44c130.23,-2.33 260.7,-3.31 391.1,-2.91l1.35 0c130.4,-0.4 260.88,0.57 391.1,2.91l0 2.44c666.7,16.16 1322.97,68.27 1925.26,155.94 1168.23,170.04 2034.35,454.91 2991.98,961.24 375,198.28 624.47,507.53 738.86,916.01 546.7,1952.26 593.62,4475.73 -355.27,6693.43 -1022.72,2390.25 -2931.53,4171.57 -5219.41,5347.67l-81.42 41.85 0 0.18 -19.03 9.6 -369.3 189.85 -3.43 1.43 -3.46 -1.43 -369.29 -189.85 -19.04 -9.6 0 -0.18 -81.42 -41.85c-2287.88,-1176.1 -4196.69,-2957.42 -5219.4,-5347.67 -948.9,-2217.7 -901.98,-4741.17 -355.27,-6693.43 114.39,-408.48 363.85,-717.73 738.85,-916.01 957.63,-506.33 1823.76,-791.2 2991.98,-961.24z"/>
   <path class="fil2" d="M5272.5 527.99c610.21,-88.82 1275.11,-141.62 1950.58,-157.99l0 -2.47c131.94,-2.36 264.13,-3.35 396.24,-2.95l1.37 0c132.12,-0.4 264.31,0.58 396.24,2.95l0 2.47c675.47,16.37 1340.37,69.17 1950.59,157.99 1183.59,172.28 2061.1,460.89 3031.33,973.89 379.93,200.88 632.68,514.2 748.57,928.05 553.9,1977.94 601.43,4534.6 -359.94,6781.46 -1036.17,2421.7 -2970.08,4226.45 -5288.06,5418.02l-82.49 42.4 0 0.18 -19.28 9.73 -374.16 192.34 -3.47 1.45 -3.5 -1.45 -374.16 -192.34 -19.28 -9.73 0 -0.18 -82.49 -42.4c-2317.98,-1191.57 -4251.89,-2996.32 -5288.05,-5418.02 -961.38,-2246.86 -913.85,-4803.52 -359.95,-6781.46 115.9,-413.85 368.64,-727.17 748.58,-928.05 970.22,-513 1847.74,-801.61 3031.33,-973.89zm151.33 1039.69c-1063.03,154.73 -2023.76,454.89 -2852.19,943.01 -1334,4290.73 309.12,8747.6 5049.28,11184.3 4789.49,-2416.98 6493.14,-6893.57 5159.14,-11184.3 -810,-477.25 -1746.44,-774.83 -2781.36,-932.47 -1360.59,-207.25 -3211.6,-208.97 -4574.87,-10.54z"/>
   <path class="fil3" d="M4669.55 3353.59l0 0.01c246.04,50.29 437.2,140.95 563.63,258.94 86.53,64.95 155.36,142.33 199.97,234.25 46.62,96.04 65.41,203.91 49.04,325 -19.14,141.5 -88.11,299.81 -220.91,476.74 -125.55,167.27 -291.87,336.28 -470.49,516.3l24.02 358.8c165.81,-116.82 345.5,-202.37 501.49,-230.34 291.97,-52.37 439.54,45.04 601.85,230.68 393.08,449.59 125.88,1109.96 -256.01,1464.58 -175.97,163.39 -411.36,315.37 -719.75,441.11l69.19 1033.64c3.2,18.58 4.45,37.63 3.82,57.07l0.02 0.26 -0.02 0.01c-7.34,219.46 -253.82,486.69 -622.71,649.41 -444.76,196.17 -899.03,166.19 -1014.63,-66.95 -115.6,-233.15 151.22,-581.19 595.94,-777.37 220.57,-97.29 443.45,-138.93 626.23,-127.78l-43.08 -671.39c-474.57,53.08 -807.13,-19.04 -996.27,-217.58 -223.02,-234.12 -230.36,-607.25 -19.72,-1120.78 169.12,-437.54 527.29,-789.54 858.41,-1117.52l-113.45 -1768.14 99.38 13.23c101.32,7.07 196.1,19.85 283.9,37.8l0.15 0.02zm29.84 445.84l60.47 903.31c163.62,-176.43 343.6,-390.41 377.77,-516.84 18.31,-67.71 -3.09,-137.01 -104.54,-213.15 -80.1,-60.13 -199.75,-122.75 -333.7,-173.32zm143.68 2146.39l72.51 1083.31c473.77,-216.32 720.04,-494.22 805.64,-749.55 33.8,-100.82 16.01,-196.76 2.1,-281.51 -12.87,-78.48 -44.31,-146.87 -90.17,-199.32 -77.57,-88.72 -176.31,-134.37 -326.25,-107.48 -151.63,27.19 -316.62,115.95 -463.83,254.55zm-310.36 1199.81l-41.81 -651.67c-8.43,18.12 -226.72,273.87 -254.75,307.75 -164.02,-212.08 -43.94,-479.22 70.55,-714.58 39.56,-81.31 89.08,-154.92 143.78,-223.01l-21.34 -332.57c-243.38,255.74 -476.21,534.8 -586.29,820.63l-1.48 3.71c-148.9,362.41 -39.38,577.58 44.91,641.03 65.99,88.06 289.91,180.03 646.43,148.71z"/>
   <path class="fil2" d="M7552.06 4507.09l59 -1740.57 1467.69 -302.39 -58.6 1979.96 -0.02 0.01c-3.81,134.45 -173.28,287.1 -410.92,359.41 -267.3,81.33 -519.6,30.22 -563.54,-114.17 -43.94,-144.39 137.13,-327.38 404.43,-408.71 114.04,-34.7 225.32,-45.27 318.89,-34.8l29.5 -1162.17 -944.04 213.88 -36.9 1396.47 -0.02 0c13.63,138.99 -160.73,303.49 -410.24,379.41 -267.29,81.33 -519.59,30.21 -563.53,-114.17 -43.94,-144.39 137.13,-327.38 404.44,-408.71 106.02,-32.26 209.67,-43.67 298.91,-36.7l4.95 -6.75zm292.6 -1592.89l0 191.4 956.96 -212.66 6.07 -197.47 -963.03 218.73z"/>
   <path class="fil2" d="M10519.42 8682.57c133.07,-13.28 257.38,-0.78 356.08,30.74l432.13 -1844.65 1127.2 -1.88 -182.5 610.25 -809.87 0 -349.65 1464.5 -0.02 0c-15.24,145.2 -236.83,279.3 -519.06,307.48 -301.75,30.12 -558.55,-72.25 -573.54,-228.67 -15.01,-156.42 217.46,-307.65 519.23,-337.77zm1020.79 -1610.26l-59.65 207.24 577.8 1.65 54.64 -211.92 -572.79 3.03z"/>
   <path class="fil2" d="M8131.52 7589.71l1560.34 -1982.65 65.4 -228.89 136.6 -98.19 -27.9 -45.09 -5.4 3.37c-13.1,8.15 -29.82,6.47 -46.53,-4.64l-31.62 -21.01c-17.61,-11.7 -30.1,-30.64 -34.05,-51.63 -3.92,-20.99 1.81,-38.09 15.66,-46.71l104.83 -65.17c13.84,-8.59 31.86,-6.24 49.17,6.43 17.31,12.69 29.01,32.1 31.93,52.97l5.2 37.4c2.8,19.78 -3,35.44 -16.12,43.57l-10.55 6.57 25.28 40.88 173.86 -124.98 -27.33 -44.16 -5.41 3.36c-13.1,8.14 -29.82,6.48 -46.54,-4.63l-31.61 -21.01c-17.62,-11.71 -30.11,-30.66 -34.05,-51.63 -3.91,-21 1.81,-38.11 15.66,-46.71l104.84 -65.18c13.84,-8.6 31.85,-6.25 49.17,6.43 17.3,12.68 29,32.1 31.92,52.97l5.21 37.41c2.78,19.77 -3.02,35.43 -16.13,43.56l-10.54 6.57 24.71 39.96 161.18 -115.86 -31.33 -50.64 -5.41 3.36c-13.1,8.14 -29.82,6.48 -46.54,-4.63l-31.61 -21.01c-17.62,-11.71 -30.11,-30.66 -34.05,-51.63 -3.91,-21 1.81,-38.11 15.66,-46.71l104.84 -65.18c13.84,-8.6 31.85,-6.25 49.17,6.43 17.3,12.68 29,32.1 31.92,52.97l5.21 37.41c2.78,19.77 -3.02,35.43 -16.13,43.56l-10.54 6.57 28.71 46.44 175.79 -126.36 -30.98 -50.07 -5.41 3.36c-13.1,8.14 -29.82,6.48 -46.54,-4.63l-31.61 -21.01c-17.62,-11.71 -30.11,-30.66 -34.05,-51.63 -3.91,-21 1.81,-38.11 15.66,-46.71l104.84 -65.18c13.84,-8.6 31.85,-6.25 49.17,6.43 17.3,12.68 29,32.1 31.92,52.97l5.21 37.41c2.78,19.77 -3.02,35.43 -16.13,43.56l-10.54 6.57 28.36 45.87 161.36 -115.99 -30.57 -49.39 -5.41 3.36c-13.1,8.14 -29.82,6.48 -46.54,-4.63l-31.61 -21.01c-17.62,-11.71 -30.11,-30.66 -34.05,-51.63 -3.91,-21 1.81,-38.11 15.66,-46.71l104.84 -65.18c13.84,-8.6 31.85,-6.25 49.17,6.43 17.3,12.68 29,32.1 31.92,52.97l5.21 37.41c2.78,19.77 -3.02,35.43 -16.13,43.56l-10.54 6.57 27.94 45.19 166.87 -119.95 -33.34 -53.88 -5.41 3.36c-13.1,8.14 -29.82,6.48 -46.54,-4.63l-31.61 -21.01c-17.62,-11.71 -30.11,-30.66 -34.05,-51.63 -3.91,-21 1.81,-38.11 15.66,-46.71l104.84 -65.18c13.84,-8.6 31.85,-6.25 49.17,6.43 17.3,12.68 29,32.1 31.92,52.97l5.21 37.41c2.78,19.77 -3.02,35.43 -16.13,43.56l-10.54 6.57 30.72 49.68 176.49 -126.86c385.39,-42.42 600.33,419.12 217.58,652.75 -56.61,39.93 -153.2,20.82 -178.93,11.56 -28.5,-10.26 -128.11,-4.44 -143.12,5.48 -223.9,147.98 -88.24,690.95 -434.55,952.44 -189.03,-146.52 -377.62,-104.56 -442.79,150.98l-1709.33 2450.4c-5.41,190.04 213.95,300.9 411.84,209.74 258.71,-119.18 378.52,-367.05 550.26,-255.87 85.88,55.59 99.91,185.45 51.37,379.95 -137.66,636.83 -978.58,671.28 -1126.27,1040.07 -126.69,146.79 -2.66,721.26 -367.9,1364.83 -273.34,481.64 -654.75,780.71 -1211.87,625.03 -299.61,-83.73 -651.33,-274.9 -1047.83,-558.43l-15.68 -12.07 -11.07 13.85 4.11 3.09c9.95,7.48 14.95,18.64 13.91,31.06l-1.97 23.49c-1.1,13.09 -8.68,23.79 -20.66,29.17 -12,5.37 -25.01,3.91 -35.53,-4l-79.66 -59.87c-10.51,-7.9 -15.54,-20 -13.71,-33.02 1.83,-13.01 10,-23.26 22.28,-27.96l22.02 -8.41c11.63,-4.46 23.74,-2.76 33.69,4.73l8.02 6.02 11.69 -14.62c-410.15,-322.21 -729.14,-654.54 -886.54,-1004.85 -181.11,-509.19 -52.47,-916.29 377.12,-1287.68 375.45,-324.57 1145.15,-532.87 1378.14,-896.78 225.47,-352.12 252.03,-913.58 453.87,-1154.77 104.87,-172.6 507.02,-707.06 795.81,-535.66l19.76 -26.6 -4.22 -2.94c-10.2,-7.12 -15.59,-18.1 -14.99,-30.54l1.14 -23.55c0.64,-13.12 7.83,-24.09 19.62,-29.89 11.8,-5.79 24.86,-4.78 35.65,2.75l81.72 57.02c10.78,7.53 16.24,19.43 14.86,32.51 -1.36,13.07 -9.16,23.61 -21.27,28.73l-21.71 9.19c-11.47,4.86 -23.62,3.59 -33.83,-3.54l-8.24 -5.73 -21.01 28.26c5.49,5.06 10.94,10.35 16.31,16.04 149.54,158.36 -190.31,379.65 -220.52,605.45 -43.24,323.18 217.51,625.07 395.15,540.28zm-1602.87 2097.82l216.78 54.98 110.8 -193.22c6.09,-10.64 17.38,-16.27 29.6,-14.78 12.21,1.48 21.79,9.68 25.13,21.46l60.49 214.12 223.72 -1.2c12.32,-0.06 22.85,6.83 27.67,18.1 4.81,11.26 2.48,23.6 -6.12,32.35l-156.28 159.16 112.91 192.02c6.21,10.57 5.48,23.1 -1.93,32.86 -7.41,9.78 -19.33,13.94 -31.25,10.92l-216.78 -54.98 -110.81 193.23c-6.09,10.63 -17.38,16.25 -29.6,14.76 -12.22,-1.49 -21.8,-9.66 -25.12,-21.44l-60.5 -214.14 -223.72 1.22c-12.32,0.06 -22.86,-6.85 -27.67,-18.12 -4.81,-11.26 -2.47,-23.6 6.13,-32.35l156.27 -159.16 -112.91 -192.02c-6.2,-10.55 -5.47,-23.07 1.94,-32.86 7.41,-9.78 19.32,-13.93 31.25,-10.91zm-608.14 802.34l216.77 54.98 110.81 -193.22c6.09,-10.64 17.38,-16.26 29.59,-14.78 12.23,1.5 21.81,9.68 25.14,21.46l60.5 214.13 223.72 -1.2c12.3,-0.08 22.86,6.82 27.66,18.09 4.81,11.27 2.49,23.6 -6.11,32.36l-156.29 159.17 112.91 192.01c6.21,10.56 5.48,23.09 -1.93,32.87 -7.41,9.78 -19.32,13.92 -31.24,10.9l-216.79 -54.97 -110.81 193.23c-6.09,10.62 -17.38,16.26 -29.6,14.76 -12.21,-1.49 -21.8,-9.67 -25.12,-21.45l-60.5 -214.13 -223.72 1.21c-12.3,0.06 -22.86,-6.84 -27.67,-18.11 -4.8,-11.26 -2.47,-23.6 6.13,-32.35l156.28 -159.16 -112.91 -192.01c-6.21,-10.57 -5.48,-23.1 1.94,-32.87 7.4,-9.77 19.31,-13.94 31.24,-10.92zm1210.52 -1621.73l216.78 54.97 110.8 -193.22c6.1,-10.63 17.39,-16.26 29.6,-14.78 12.22,1.5 21.8,9.67 25.14,21.46l60.49 214.13 223.72 -1.2c12.31,-0.07 22.86,6.83 27.67,18.09 4.81,11.26 2.47,23.6 -6.13,32.36l-156.27 159.16 112.91 192.01c6.2,10.58 5.47,23.1 -1.93,32.87 -7.41,9.78 -19.33,13.94 -31.26,10.91l-216.77 -54.96 -110.81 193.21c-6.1,10.63 -17.39,16.27 -29.61,14.77 -12.21,-1.5 -21.79,-9.68 -25.12,-21.45l-60.49 -214.14 -223.73 1.22c-12.31,0.06 -22.85,-6.83 -27.66,-18.11 -4.81,-11.26 -2.48,-23.6 6.12,-32.36l156.28 -159.15 -112.91 -192.02c-6.21,-10.56 -5.47,-23.09 1.93,-32.86 7.42,-9.78 19.33,-13.93 31.25,-10.91zm619.88 -817.84l216.78 54.98 110.8 -193.23c6.1,-10.63 17.38,-16.26 29.6,-14.77 12.22,1.49 21.81,9.67 25.13,21.45l60.5 214.14 223.72 -1.21c12.31,-0.08 22.85,6.83 27.67,18.1 4.8,11.25 2.47,23.59 -6.13,32.35l-156.27 159.16 112.91 192.02c6.21,10.57 5.47,23.09 -1.94,32.87 -7.41,9.77 -19.32,13.93 -31.25,10.91l-216.77 -54.97 -110.81 193.21c-6.1,10.64 -17.38,16.27 -29.6,14.77 -12.22,-1.5 -21.8,-9.68 -25.13,-21.45l-60.5 -214.13 -223.72 1.2c-12.31,0.07 -22.85,-6.82 -27.66,-18.09 -4.81,-11.27 -2.48,-23.61 6.12,-32.37l156.28 -159.15 -112.91 -192.01c-6.21,-10.57 -5.47,-23.1 1.94,-32.87 7.4,-9.78 19.31,-13.94 31.24,-10.91z"/>
  </g>
 </g>
</svg>
