<?xml version="1.0" encoding="UTF-8"?>
<!DOCTYPE svg PUBLIC "-//W3C//DTD SVG 1.1//EN" "http://www.w3.org/Graphics/SVG/1.1/DTD/svg11.dtd">
<!-- Creator: CorelDRAW -->
<svg xmlns="http://www.w3.org/2000/svg" xml:space="preserve" width="152.4mm" height="152.4mm" version="1.1" style="shape-rendering:geometricPrecision; text-rendering:geometricPrecision; image-rendering:optimizeQuality; fill-rule:evenodd; clip-rule:evenodd"
viewBox="0 0 15240 15240"
 xmlns:xlink="http://www.w3.org/1999/xlink"
 xmlns:xodm="http://www.corel.com/coreldraw/odm/2003">
 <defs>
  <style type="text/css">
   <![CDATA[
    .fil0 {fill:none}
    .fil1 {fill:#133F6A}
    .fil4 {fill:#1AD2FB}
    .fil2 {fill:#238CBA}
    .fil3 {fill:#1AD2FB;fill-rule:nonzero}
   ]]>
  </style>
 </defs>
 <g id="Capa_x0020_1">
  <metadata id="CorelCorpID_0Corel-Layer"/>
  <g id="_3017583364112">
   <rect class="fil0" x="-0" y="-0" width="15240" height="15240"/>
   <ellipse id="contour" class="fil1" cx="7620.01" cy="7620" rx="7200.69" ry="7200.73"/>
   <path id="contour_154" class="fil2" d="M7620.01 364.25c4007.22,0 7255.71,3248.52 7255.71,7255.75 0,4007.22 -3248.49,7255.74 -7255.71,7255.74 -4007.22,0 -7255.7,-3248.52 -7255.7,-7255.74 0,-4007.23 3248.48,-7255.75 7255.7,-7255.75zm-0.06 985.8c3462.82,0 6270.01,2807.18 6270.01,6270 0,3462.82 -2807.19,6270.01 -6270.01,6270.01 -3462.82,0 -6270,-2807.19 -6270,-6270.01 0,-3462.82 2807.18,-6270 6270,-6270z"/>
   <g>
    <path class="fil3" d="M4103.85 2996.53l0 0.01c300.23,61.37 533.5,172 687.78,315.98 105.6,79.26 189.59,173.69 244.02,285.85 56.89,117.2 79.82,248.83 59.85,396.6 -23.36,172.67 -107.52,365.85 -269.58,581.76 -153.2,204.11 -356.16,410.35 -574.13,630.03l29.31 437.84c202.34,-142.56 421.61,-246.95 611.96,-281.08 356.29,-63.91 536.37,54.96 734.43,281.49 479.67,548.63 153.61,1354.47 -312.4,1787.21 -214.74,199.38 -501.98,384.84 -878.3,538.28l84.43 1261.33c3.9,22.68 5.43,45.92 4.66,69.64l0.03 0.32 -0.03 0.01c-8.96,267.81 -309.73,593.9 -759.88,792.47 -542.74,239.38 -1097.08,202.8 -1238.14,-81.7 -141.07,-284.51 184.53,-709.22 727.22,-948.61 269.15,-118.72 541.13,-169.54 764.17,-155.93l-52.56 -819.29c-579.12,64.78 -984.93,-23.23 -1215.74,-265.51 -272.15,-285.69 -281.1,-741.01 -24.06,-1367.67 206.37,-533.92 643.44,-963.46 1047.5,-1363.69l-138.44 -2157.64 121.27 16.15c123.64,8.63 239.3,24.22 346.44,46.12l0.19 0.03zm36.41 544.05l73.79 1102.3c199.66,-215.3 419.29,-476.41 460.99,-630.7 22.34,-82.62 -3.77,-167.19 -127.57,-260.1 -97.75,-73.37 -243.75,-149.79 -407.21,-211.5zm175.33 2619.21l88.48 1321.95c578.14,-263.98 878.66,-603.09 983.11,-914.67 41.25,-123.03 19.54,-240.1 2.57,-343.52 -15.71,-95.77 -54.08,-179.22 -110.04,-243.23 -94.66,-108.26 -215.15,-163.97 -398.12,-131.15 -185.03,33.18 -386.36,141.49 -566,310.62zm-378.73 1464.11l-51.02 -795.22c-10.29,22.11 -276.66,334.2 -310.87,375.54 -200.15,-258.8 -53.62,-584.79 86.09,-871.99 48.28,-99.22 108.71,-189.05 175.46,-272.14l-26.04 -405.83c-297,312.08 -581.12,652.61 -715.44,1001.4l-1.81 4.53c-181.7,442.25 -48.06,704.81 54.8,782.24 80.53,107.46 353.78,219.69 788.83,181.47z"/>
    <path class="fil4" d="M7621.33 4404.13l72 -2123.99 1791 -369.01 -71.51 2416.12 -0.03 0.01c-4.65,164.07 -211.45,350.35 -501.44,438.59 -326.18,99.24 -634.06,36.87 -687.68,-139.32 -53.61,-176.2 167.34,-399.5 493.52,-498.75 139.17,-42.34 274.96,-55.24 389.14,-42.46l36 -1418.18 -1152 260.99 -45.03 1704.09 -0.02 0c16.63,169.61 -196.14,370.35 -500.61,462.99 -326.17,99.25 -634.05,36.87 -687.67,-139.32 -53.62,-176.19 167.34,-399.49 493.53,-498.74 129.38,-39.37 255.86,-53.29 364.76,-44.78l6.04 -8.24zm357.06 -1943.78l0 233.56 1167.76 -259.51 7.41 -240.97 -1175.17 266.92z"/>
    <path class="fil4" d="M11242.36 9499.4c162.38,-16.2 314.07,-0.95 434.51,37.52l527.33 -2251 1375.5 -2.3 -222.7 744.68 -988.27 0 -426.68 1787.11 -0.02 0c-18.6,177.19 -289,340.83 -633.4,375.21 -368.22,36.76 -681.59,-88.16 -699.88,-279.04 -18.32,-190.88 265.36,-375.42 633.61,-412.18zm1245.65 -1964.97l-72.79 252.89 705.08 2.01 66.68 -258.6 -698.97 3.7z"/>
    <path class="fil4" d="M8328.44 8165.8l1904.06 -2419.39 79.8 -279.32 166.69 -119.82 -34.04 -55.02 -6.59 4.11c-15.99,9.95 -36.39,7.9 -56.78,-5.66l-38.59 -25.64c-21.49,-14.27 -36.73,-37.39 -41.55,-63 -4.78,-25.61 2.21,-46.48 19.11,-57l127.92 -79.52c16.89,-10.49 38.88,-7.62 60.01,7.84 21.12,15.49 35.4,39.17 38.96,64.64l6.34 45.64c3.42,24.14 -3.66,43.25 -19.67,53.17l-12.87 8.01 30.85 49.89 212.16 -152.51 -33.35 -53.89 -6.6 4.1c-15.99,9.93 -36.39,7.91 -56.8,-5.65l-38.57 -25.64c-21.5,-14.29 -36.74,-37.41 -41.55,-63 -4.77,-25.63 2.21,-46.51 19.11,-57l127.93 -79.54c16.89,-10.49 38.87,-7.63 60.01,7.85 21.11,15.47 35.38,39.17 38.95,64.64l6.35 45.65c3.4,24.12 -3.68,43.23 -19.68,53.15l-12.86 8.02 30.15 48.76 196.69 -141.38 -38.23 -61.8 -6.61 4.1c-15.98,9.94 -36.38,7.91 -56.79,-5.65l-38.57 -25.63c-21.5,-14.29 -36.74,-37.42 -41.55,-63.01 -4.77,-25.62 2.21,-46.5 19.11,-57l127.93 -79.53c16.89,-10.5 38.87,-7.63 60,7.84 21.12,15.48 35.39,39.17 38.96,64.64l6.35 45.65c3.4,24.13 -3.68,43.24 -19.68,53.16l-12.86 8.01 35.03 56.67 214.52 -154.19 -37.81 -61.1 -6.6 4.1c-15.98,9.93 -36.39,7.91 -56.79,-5.65l-38.57 -25.64c-21.51,-14.29 -36.75,-37.41 -41.55,-63 -4.78,-25.63 2.2,-46.51 19.1,-57l127.94 -79.54c16.89,-10.49 38.87,-7.63 60,7.85 21.11,15.47 35.39,39.17 38.95,64.64l6.36 45.65c3.39,24.12 -3.69,43.23 -19.68,53.15l-12.86 8.02 34.6 55.97 196.91 -141.54 -37.31 -60.27 -6.6 4.1c-15.98,9.94 -36.39,7.91 -56.79,-5.65l-38.57 -25.63c-21.51,-14.29 -36.75,-37.42 -41.55,-63.01 -4.78,-25.62 2.2,-46.5 19.11,-57l127.93 -79.54c16.89,-10.49 38.87,-7.62 60,7.85 21.11,15.47 35.39,39.17 38.95,64.64l6.36 45.65c3.39,24.12 -3.68,43.23 -19.68,53.16l-12.86 8.01 34.09 55.15 203.63 -146.38 -40.68 -65.74 -6.61 4.1c-15.98,9.93 -36.39,7.9 -56.79,-5.65l-38.57 -25.64c-21.5,-14.29 -36.74,-37.42 -41.55,-63.01 -4.77,-25.62 2.21,-46.5 19.11,-57l127.93 -79.53c16.89,-10.5 38.87,-7.63 60,7.84 21.11,15.48 35.39,39.17 38.95,64.64l6.36 45.65c3.39,24.13 -3.68,43.24 -19.68,53.16l-12.86 8.01 37.48 60.63 215.37 -154.81c470.29,-51.76 732.58,511.45 265.51,796.54 -69.08,48.73 -186.95,25.41 -218.34,14.11 -34.78,-12.52 -156.33,-5.42 -174.65,6.69 -273.22,180.58 -107.68,843.15 -530.28,1162.25 -230.67,-178.8 -460.8,-127.6 -540.33,184.24l-2085.87 2990.18c-6.6,231.91 261.08,367.19 502.57,255.95 315.7,-145.44 461.9,-447.91 671.47,-312.24 104.8,67.84 121.92,226.3 62.69,463.65 -167.99,777.11 -1194.15,819.15 -1374.37,1269.18 -154.6,179.13 -3.25,880.14 -448.95,1665.48 -333.55,587.74 -798.98,952.69 -1478.82,762.72 -365.61,-102.18 -794.81,-335.46 -1278.66,-681.45l-19.13 -14.73 -13.51 16.91 5.02 3.77c12.14,9.12 18.24,22.74 16.97,37.9l-2.4 28.66c-1.34,15.98 -10.59,29.03 -25.21,35.6 -14.65,6.55 -30.52,4.77 -43.36,-4.88l-97.21 -73.06c-12.82,-9.64 -18.96,-24.41 -16.73,-40.3 2.23,-15.87 12.2,-28.38 27.19,-34.11l26.87 -10.27c14.19,-5.44 28.97,-3.37 41.11,5.77l9.79 7.35 14.26 -17.84c-500.5,-393.19 -889.76,-798.73 -1081.83,-1226.2 -221,-621.36 -64.03,-1118.14 460.2,-1571.34 458.15,-396.07 1397.41,-650.25 1681.72,-1094.33 275.14,-429.68 307.55,-1114.83 553.85,-1409.15 127.97,-210.62 618.71,-862.81 971.12,-653.65l24.11 -32.46 -5.15 -3.59c-12.45,-8.69 -19.03,-22.09 -18.29,-37.27l1.39 -28.74c0.78,-16.01 9.55,-29.39 23.94,-36.47 14.4,-7.07 30.34,-5.83 43.5,3.35l99.72 69.59c13.16,9.18 19.82,23.71 18.14,39.67 -1.66,15.95 -11.18,28.81 -25.96,35.06l-26.49 11.21c-14,5.93 -28.82,4.38 -41.28,-4.32l-10.06 -6.99 -25.64 34.48c6.7,6.18 13.35,12.63 19.91,19.58 182.48,193.24 -232.23,463.28 -269.1,738.82 -52.76,394.37 265.42,762.76 482.2,659.29zm-1955.96 2559.94l264.53 67.09 135.21 -235.78c7.43,-12.98 21.21,-19.85 36.12,-18.04 14.9,1.81 26.59,11.82 30.66,26.19l73.82 261.29 273 -1.46c15.04,-0.08 27.89,8.33 33.77,22.08 5.87,13.74 3.02,28.8 -7.47,39.48l-190.71 194.22 137.79 234.32c7.57,12.9 6.68,28.19 -2.36,40.1 -9.04,11.93 -23.59,17.01 -38.13,13.32l-264.54 -67.09 -135.22 235.8c-7.43,12.97 -21.21,19.83 -36.12,18.01 -14.91,-1.82 -26.6,-11.79 -30.65,-26.16l-73.83 -261.32 -273 1.49c-15.03,0.08 -27.9,-8.36 -33.77,-22.11 -5.87,-13.74 -3.01,-28.8 7.48,-39.48l190.7 -194.22 -137.78 -234.32c-7.57,-12.87 -6.68,-28.15 2.36,-40.09 9.05,-11.94 23.58,-17 38.14,-13.32zm-742.11 979.09l264.52 67.09 135.22 -235.79c7.44,-12.98 21.21,-19.84 36.11,-18.03 14.93,1.83 26.62,11.81 30.68,26.19l73.83 261.3 273 -1.47c15.01,-0.1 27.9,8.32 33.75,22.08 5.87,13.75 3.04,28.79 -7.45,39.48l-190.72 194.24 137.78 234.3c7.58,12.89 6.69,28.18 -2.35,40.12 -9.05,11.93 -23.58,16.98 -38.13,13.3l-264.54 -67.08 -135.22 235.79c-7.43,12.96 -21.21,19.84 -36.12,18.01 -14.9,-1.81 -26.6,-11.8 -30.66,-26.17l-73.82 -261.3 -273 1.48c-15.01,0.07 -27.9,-8.35 -33.77,-22.1 -5.86,-13.74 -3.01,-28.8 7.48,-39.48l190.71 -194.22 -137.79 -234.31c-7.57,-12.9 -6.68,-28.19 2.37,-40.11 9.03,-11.92 23.57,-17.01 38.12,-13.32zm1477.18 -1978.98l264.54 67.08 135.2 -235.78c7.45,-12.97 21.22,-19.84 36.12,-18.04 14.92,1.83 26.61,11.8 30.68,26.19l73.82 261.3 273 -1.46c15.02,-0.09 27.9,8.33 33.76,22.07 5.87,13.74 3.02,28.8 -7.48,39.49l-190.69 194.22 137.78 234.31c7.57,12.91 6.68,28.19 -2.35,40.11 -9.04,11.93 -23.59,17.01 -38.15,13.31l-264.52 -67.07 -135.22 235.78c-7.44,12.97 -21.22,19.85 -36.13,18.02 -14.9,-1.83 -26.59,-11.81 -30.66,-26.18l-73.81 -261.31 -273.02 1.49c-15.02,0.07 -27.88,-8.33 -33.75,-22.1 -5.87,-13.74 -3.02,-28.8 7.47,-39.49l190.71 -194.21 -137.79 -234.31c-7.57,-12.89 -6.67,-28.18 2.36,-40.1 9.05,-11.94 23.59,-17 38.13,-13.32zm756.43 -997.99l264.54 67.09 135.2 -235.8c7.45,-12.97 21.21,-19.84 36.12,-18.02 14.92,1.82 26.62,11.8 30.67,26.17l73.83 261.31 273 -1.47c15.02,-0.1 27.88,8.33 33.77,22.08 5.85,13.73 3.01,28.79 -7.49,39.48l-190.69 194.22 137.78 234.32c7.58,12.9 6.68,28.18 -2.36,40.11 -9.05,11.92 -23.58,17 -38.14,13.31l-264.52 -67.07 -135.22 235.77c-7.44,12.98 -21.21,19.85 -36.12,18.02 -14.91,-1.83 -26.6,-11.81 -30.67,-26.17l-73.82 -261.3 -273 1.46c-15.03,0.09 -27.89,-8.32 -33.76,-22.07 -5.87,-13.76 -3.02,-28.82 7.47,-39.51l190.71 -194.2 -137.79 -234.31c-7.57,-12.9 -6.67,-28.19 2.37,-40.11 9.03,-11.94 23.57,-17.01 38.12,-13.31z"/>
   </g>
  </g>
 </g>
</svg>
