<?xml version="1.0" encoding="UTF-8"?>
<!DOCTYPE svg PUBLIC "-//W3C//DTD SVG 1.1//EN" "http://www.w3.org/Graphics/SVG/1.1/DTD/svg11.dtd">
<!-- Creator: CorelDRAW -->
<svg xmlns="http://www.w3.org/2000/svg" xml:space="preserve" width="152.4mm" height="152.4mm" version="1.1" style="shape-rendering:geometricPrecision; text-rendering:geometricPrecision; image-rendering:optimizeQuality; fill-rule:evenodd; clip-rule:evenodd"
viewBox="0 0 15240 15240"
 xmlns:xlink="http://www.w3.org/1999/xlink"
 xmlns:xodm="http://www.corel.com/coreldraw/odm/2003">
 <defs>
  <style type="text/css">
   <![CDATA[
    .fil0 {fill:none}
    .fil2 {fill:#45AEFF}
    .fil1 {fill:white}
   ]]>
  </style>
 </defs>
 <g id="Capa_x0020_1">
  <metadata id="CorelCorpID_0Corel-Layer"/>
  <g id="_1878412543376">
   <rect class="fil0" x="-0" y="-0" width="15240" height="15240"/>
   <path class="fil1" d="M5302.97 620.06c602.29,-87.67 1258.56,-139.78 1925.26,-155.94l0 -2.44c130.23,-2.33 260.7,-3.31 391.1,-2.91l1.35 0c130.4,-0.4 260.88,0.57 391.1,2.91l0 2.44c666.7,16.16 1322.97,68.27 1925.26,155.94 1168.23,170.04 2034.35,454.91 2991.98,961.24 375,198.28 624.47,507.53 738.86,916.01 546.7,1952.26 593.62,4475.73 -355.27,6693.43 -1022.72,2390.25 -2931.53,4171.57 -5219.41,5347.67l-81.42 41.85 0 0.18 -19.03 9.6 -369.3 189.85 -3.43 1.43 -3.46 -1.43 -369.29 -189.85 -19.04 -9.6 0 -0.18 -81.42 -41.85c-2287.88,-1176.1 -4196.69,-2957.42 -5219.4,-5347.67 -948.9,-2217.7 -901.98,-4741.17 -355.27,-6693.43 114.39,-408.48 363.85,-717.73 738.85,-916.01 957.63,-506.33 1823.76,-791.2 2991.98,-961.24z"/>
   <path class="fil2" d="M5272.5 527.99c610.21,-88.82 1275.11,-141.62 1950.58,-157.99l0 -2.47c131.94,-2.36 264.13,-3.35 396.24,-2.95l1.37 0c132.12,-0.4 264.31,0.58 396.24,2.95l0 2.47c675.47,16.37 1340.37,69.17 1950.59,157.99 1183.59,172.28 2061.1,460.89 3031.33,973.89 379.93,200.88 632.68,514.2 748.57,928.05 553.9,1977.94 601.43,4534.6 -359.94,6781.46 -1036.17,2421.7 -2970.08,4226.45 -5288.06,5418.02l-82.49 42.4 0 0.18 -19.28 9.73 -374.16 192.34 -3.47 1.45 -3.5 -1.45 -374.16 -192.34 -19.28 -9.73 0 -0.18 -82.49 -42.4c-2317.98,-1191.57 -4251.89,-2996.32 -5288.05,-5418.02 -961.38,-2246.86 -913.85,-4803.52 -359.95,-6781.46 115.9,-413.85 368.64,-727.17 748.58,-928.05 970.22,-513 1847.74,-801.61 3031.33,-973.89zm151.33 1039.69c-1063.03,154.73 -2023.76,454.89 -2852.19,943.01 -1334,4290.73 309.12,8747.6 5049.28,11184.3 4789.49,-2416.98 6493.14,-6893.57 5159.14,-11184.3 -810,-477.25 -1746.44,-774.83 -2781.36,-932.47 -1360.59,-207.25 -3211.6,-208.97 -4574.87,-10.54z"/>
   <path class="fil2" d="M4181.03 4315.58l1351.87 0 0 1161.76 579.38 0 0 -2914.74 1912.62 0 0 1001.72 1859.37 0 0 3373.34 277.47 0 0 -2511.75 920 0 0 2511.75 0 3216.22 -920 0 -277.47 0 -642.54 0 -1216.83 0 -1207.29 0 -705.33 0 -579.38 0 -745.15 0 -606.72 0 0 -5838.3zm4019.71 -460.03l330.56 0 0 330.56 -330.56 0 0 -330.56zm1171.7 0l330.57 0 0 330.56 -330.57 0 0 -330.56zm-585.85 0c110.19,0 220.38,0 330.57,0 0,110.19 0,220.38 0,330.56 -110.19,0 -220.38,0 -330.57,0 0,-110.18 0,-220.37 0,-330.56zm-585.85 711.28c110.19,0 220.37,0 330.56,0 0,110.19 0,220.37 0,330.56 -110.19,0 -220.37,0 -330.56,0 0,-110.19 0,-220.37 0,-330.56zm1171.7 0c110.19,0 220.38,0 330.57,0 0,110.19 0,220.37 0,330.56 -110.19,0 -220.38,0 -330.57,0 0,-110.19 0,-220.37 0,-330.56zm-585.85 0c110.19,0 220.38,0 330.57,0 0,110.19 0,220.37 0,330.56 -110.19,0 -220.38,0 -330.57,0 0,-110.19 0,-220.37 0,-330.56zm-585.85 711.28c110.19,0 220.37,0 330.56,0 0,110.18 0,220.37 0,330.56 -110.19,0 -220.37,0 -330.56,0 0,-110.19 0,-220.38 0,-330.56zm1171.7 0c110.19,0 220.38,0 330.57,0 0,110.18 0,220.37 0,330.56 -110.19,0 -220.38,0 -330.57,0 0,-110.19 0,-220.38 0,-330.56zm-585.85 0c110.19,0 220.38,0 330.57,0 0,110.18 0,220.37 0,330.56 -110.19,0 -220.38,0 -330.57,0 0,-110.19 0,-220.38 0,-330.56zm-585.85 711.27c110.19,0 220.37,0 330.56,0 0,110.18 0,220.37 0,330.56 -110.19,0 -220.37,0 -330.56,0 0,-110.19 0,-220.38 0,-330.56zm1171.7 0c110.19,0 220.38,0 330.57,0 0,110.18 0,220.37 0,330.56 -110.19,0 -220.38,0 -330.57,0 0,-110.19 0,-220.38 0,-330.56zm-585.85 0c110.19,0 220.38,0 330.57,0 0,110.18 0,220.37 0,330.56 -110.19,0 -220.38,0 -330.57,0 0,-110.19 0,-220.38 0,-330.56zm-585.85 711.27c110.19,0 220.37,0 330.56,0 0,110.19 0,220.38 0,330.57 -110.19,0 -220.37,0 -330.56,0 0,-110.19 0,-220.38 0,-330.57zm1171.7 0c110.19,0 220.38,0 330.57,0 0,110.19 0,220.38 0,330.57 -110.19,0 -220.38,0 -330.57,0 0,-110.19 0,-220.38 0,-330.57zm-585.85 0c110.19,0 220.38,0 330.57,0 0,110.19 0,220.38 0,330.57 -110.19,0 -220.38,0 -330.57,0 0,-110.19 0,-220.38 0,-330.57zm-585.85 711.28c110.19,0 220.37,0 330.56,0 0,110.19 0,220.38 0,330.57 -110.19,0 -220.37,0 -330.56,0 0,-110.19 0,-220.38 0,-330.57zm1171.7 0c110.19,0 220.38,0 330.57,0 0,110.19 0,220.38 0,330.57 -110.19,0 -220.38,0 -330.57,0 0,-110.19 0,-220.38 0,-330.57zm-585.85 0c110.19,0 220.38,0 330.57,0 0,110.19 0,220.38 0,330.57 -110.19,0 -220.38,0 -330.57,0 0,-110.19 0,-220.38 0,-330.57zm-585.85 711.28c110.19,0 220.37,0 330.56,0 0,110.19 0,220.38 0,330.56 -110.19,0 -220.37,0 -330.56,0 0,-110.18 0,-220.37 0,-330.56zm1171.7 0c110.19,0 220.38,0 330.57,0 0,110.19 0,220.38 0,330.56 -110.19,0 -220.38,0 -330.57,0 0,-110.18 0,-220.37 0,-330.56zm-585.85 0c110.19,0 220.38,0 330.57,0 0,110.19 0,220.38 0,330.56 -110.19,0 -220.38,0 -330.57,0 0,-110.18 0,-220.37 0,-330.56zm-585.85 711.27c110.19,0 220.37,0 330.56,0 0,110.19 0,220.38 0,330.56 -110.19,0 -220.37,0 -330.56,0 0,-110.18 0,-220.37 0,-330.56zm1171.7 0c110.19,0 220.38,0 330.57,0 0,110.19 0,220.38 0,330.56 -110.19,0 -220.38,0 -330.57,0 0,-110.18 0,-220.37 0,-330.56zm-585.85 0c110.19,0 220.38,0 330.57,0 0,110.19 0,220.38 0,330.56 -110.19,0 -220.38,0 -330.57,0 0,-110.18 0,-220.37 0,-330.56zm-585.85 711.28l330.56 0 0 330.56 -330.56 0 0 -330.56zm1171.7 0l330.57 0 0 330.56 -330.57 0 0 -330.56zm-585.85 0c110.19,0 220.38,0 330.57,0 0,110.19 0,220.37 0,330.56 -110.19,0 -220.38,0 -330.57,0 0,-110.19 0,-220.37 0,-330.56zm-4364.22 -4902.04l866.67 0 0 233.77 -866.67 0 0 -233.77zm0 616.6c288.89,0 577.78,0 866.67,0 0,77.92 0,155.85 0,233.77 -288.89,0 -577.78,0 -866.67,0 0,-77.92 0,-155.85 0,-233.77zm0 616.6c288.89,0 577.78,0 866.67,0 0,77.92 0,155.85 0,233.77 -288.89,0 -577.78,0 -866.67,0 0,-77.92 0,-155.85 0,-233.77zm0 616.59c288.89,0 577.78,0 866.67,0 0,77.93 0,155.85 0,233.77 -288.89,0 -577.78,0 -866.67,0 0,-77.92 0,-155.84 0,-233.77zm0 616.6c288.89,0 577.78,0 866.67,0 0,77.93 0,155.85 0,233.77 -288.89,0 -577.78,0 -866.67,0 0,-77.92 0,-155.84 0,-233.77zm0 616.6c288.89,0 577.78,0 866.67,0 0,77.91 0,155.84 0,233.77 -288.89,0 -577.78,0 -866.67,0 0,-77.93 0,-155.86 0,-233.77zm0 616.59c288.89,0 577.78,0 866.67,0 0,77.92 0,155.85 0,233.77 -288.89,0 -577.78,0 -866.67,0 0,-77.92 0,-155.85 0,-233.77zm0 616.6c288.89,0 577.78,0 866.67,0 0,77.92 0,155.84 0,233.77 -288.89,0 -577.78,0 -866.67,0 0,-77.93 0,-155.85 0,-233.77zm0 616.6l866.67 0 0 233.77 -866.67 0 0 -233.77zm3122.61 -6737.86l258.42 0 0 7067.75 -258.42 0 0 -7067.75zm-1175.81 0l258.42 0 0 7067.75 -258.42 0 0 -7067.75zm587.91 0c86.14,0 172.28,0 258.42,0 0,2355.92 0,4711.83 0,7067.75 -86.14,0 -172.28,0 -258.42,0 0,-2355.92 0,-4711.83 0,-7067.75z"/>
  </g>
 </g>
</svg>
