<?xml version="1.0" encoding="UTF-8"?>
<!DOCTYPE svg PUBLIC "-//W3C//DTD SVG 1.1//EN" "http://www.w3.org/Graphics/SVG/1.1/DTD/svg11.dtd">
<!-- Creator: CorelDRAW -->
<svg xmlns="http://www.w3.org/2000/svg" xml:space="preserve" width="152.4mm" height="152.4mm" version="1.1" style="shape-rendering:geometricPrecision; text-rendering:geometricPrecision; image-rendering:optimizeQuality; fill-rule:evenodd; clip-rule:evenodd"
viewBox="0 0 5006.6 5006.6"
 xmlns:xlink="http://www.w3.org/1999/xlink"
 xmlns:xodm="http://www.corel.com/coreldraw/odm/2003">
 <defs>
  <style type="text/css">
   <![CDATA[
    .fil0 {fill:none}
    .fil2 {fill:#45AEFF}
    .fil1 {fill:white}
   ]]>
  </style>
 </defs>
 <g id="Capa_x0020_1">
  <metadata id="CorelCorpID_0Corel-Layer"/>
  <g id="_1878236407632">
   <rect class="fil0" x="-0" y="-0" width="5006.6" height="5006.6"/>
   <ellipse id="contour" class="fil1" cx="2503.3" cy="2503.3" rx="2365.55" ry="2365.56"/>
   <path id="contour_2" class="fil2" d="M2503.3 119.66c1316.44,0 2383.62,1067.19 2383.62,2383.64 0,1316.44 -1067.18,2383.63 -2383.62,2383.63 -1316.44,0 -2383.62,-1067.19 -2383.62,-2383.63 0,-1316.44 1067.18,-2383.64 2383.62,-2383.64zm-0.02 323.85c1137.59,0 2059.8,922.21 2059.8,2059.8 0,1137.59 -922.21,2059.8 -2059.8,2059.8 -1137.59,0 -2059.8,-922.21 -2059.8,-2059.8 0,-1137.59 922.21,-2059.8 2059.8,-2059.8z"/>
   <path class="fil2" d="M1184.01 1567.29l519.53 0 0 446.47 222.66 0 0 -1120.15 735.03 0 0 384.97 714.57 0 0 1296.4 106.63 0 0 -965.28 353.56 0 0 965.28 0 1236.01 -353.56 0 -106.63 0 -246.93 0 -467.64 0 -463.97 0 -271.06 0 -222.66 0 -286.36 0 -233.17 0 0 -2243.7zm1544.8 -176.79l127.04 0 0 127.04 -127.04 0 0 -127.04zm450.29 0l127.04 0 0 127.04 -127.04 0 0 -127.04zm-225.15 0c42.35,0 84.69,0 127.04,0 0,42.35 0,84.69 0,127.04 -42.35,0 -84.69,0 -127.04,0 0,-42.35 0,-84.69 0,-127.04zm-225.15 273.35c42.35,0 84.69,0 127.04,0 0,42.35 0,84.69 0,127.04 -42.35,0 -84.69,0 -127.04,0 0,-42.35 0,-84.69 0,-127.04zm450.29 0c42.35,0 84.69,0 127.04,0 0,42.35 0,84.69 0,127.04 -42.35,0 -84.69,0 -127.04,0 0,-42.35 0,-84.69 0,-127.04zm-225.15 0c42.35,0 84.69,0 127.04,0 0,42.35 0,84.69 0,127.04 -42.35,0 -84.69,0 -127.04,0 0,-42.35 0,-84.69 0,-127.04zm-225.15 273.35c42.35,0 84.69,0 127.04,0 0,42.35 0,84.69 0,127.04 -42.35,0 -84.69,0 -127.04,0 0,-42.35 0,-84.69 0,-127.04zm450.29 0c42.35,0 84.69,0 127.04,0 0,42.35 0,84.69 0,127.04 -42.35,0 -84.69,0 -127.04,0 0,-42.35 0,-84.69 0,-127.04zm-225.15 0c42.35,0 84.69,0 127.04,0 0,42.35 0,84.69 0,127.04 -42.35,0 -84.69,0 -127.04,0 0,-42.35 0,-84.69 0,-127.04zm-225.15 273.35c42.35,0 84.69,0 127.04,0 0,42.35 0,84.69 0,127.04 -42.35,0 -84.69,0 -127.04,0 0,-42.35 0,-84.69 0,-127.04zm450.29 0c42.35,0 84.69,0 127.04,0 0,42.35 0,84.69 0,127.04 -42.35,0 -84.69,0 -127.04,0 0,-42.35 0,-84.69 0,-127.04zm-225.15 0c42.35,0 84.69,0 127.04,0 0,42.35 0,84.69 0,127.04 -42.35,0 -84.69,0 -127.04,0 0,-42.35 0,-84.69 0,-127.04zm-225.15 273.35c42.35,0 84.69,0 127.04,0 0,42.35 0,84.69 0,127.04 -42.35,0 -84.69,0 -127.04,0 0,-42.35 0,-84.69 0,-127.04zm450.29 0c42.35,0 84.69,0 127.04,0 0,42.35 0,84.69 0,127.04 -42.35,0 -84.69,0 -127.04,0 0,-42.35 0,-84.69 0,-127.04zm-225.15 0c42.35,0 84.69,0 127.04,0 0,42.35 0,84.69 0,127.04 -42.35,0 -84.69,0 -127.04,0 0,-42.35 0,-84.69 0,-127.04zm-225.15 273.35c42.35,0 84.69,0 127.04,0 0,42.35 0,84.69 0,127.04 -42.35,0 -84.69,0 -127.04,0 0,-42.35 0,-84.69 0,-127.04zm450.29 0c42.35,0 84.69,0 127.04,0 0,42.35 0,84.69 0,127.04 -42.35,0 -84.69,0 -127.04,0 0,-42.35 0,-84.69 0,-127.04zm-225.15 0c42.35,0 84.69,0 127.04,0 0,42.35 0,84.69 0,127.04 -42.35,0 -84.69,0 -127.04,0 0,-42.35 0,-84.69 0,-127.04zm-225.15 273.35c42.35,0 84.69,0 127.04,0 0,42.35 0,84.69 0,127.04 -42.35,0 -84.69,0 -127.04,0 0,-42.35 0,-84.69 0,-127.04zm450.29 0c42.35,0 84.69,0 127.04,0 0,42.35 0,84.69 0,127.04 -42.35,0 -84.69,0 -127.04,0 0,-42.35 0,-84.69 0,-127.04zm-225.15 0c42.35,0 84.69,0 127.04,0 0,42.35 0,84.69 0,127.04 -42.35,0 -84.69,0 -127.04,0 0,-42.35 0,-84.69 0,-127.04zm-225.15 273.35c42.35,0 84.69,0 127.04,0 0,42.35 0,84.69 0,127.04 -42.35,0 -84.69,0 -127.04,0 0,-42.35 0,-84.69 0,-127.04zm450.29 0c42.35,0 84.69,0 127.04,0 0,42.35 0,84.69 0,127.04 -42.35,0 -84.69,0 -127.04,0 0,-42.35 0,-84.69 0,-127.04zm-225.15 0c42.35,0 84.69,0 127.04,0 0,42.35 0,84.69 0,127.04 -42.35,0 -84.69,0 -127.04,0 0,-42.35 0,-84.69 0,-127.04zm-225.15 273.35l127.04 0 0 127.04 -127.04 0 0 -127.04zm450.29 0l127.04 0 0 127.04 -127.04 0 0 -127.04zm-225.15 0c42.35,0 84.69,0 127.04,0 0,42.35 0,84.69 0,127.04 -42.35,0 -84.69,0 -127.04,0 0,-42.35 0,-84.69 0,-127.04zm-1677.2 -1883.89l333.07 0 0 89.84 -333.07 0 0 -89.84zm0 236.96c111.03,0 222.05,0 333.07,0 0,29.95 0,59.9 0,89.84 -111.02,0 -222.04,0 -333.07,0 0,-29.94 0,-59.89 0,-89.84zm0 236.96c111.03,0 222.05,0 333.07,0 0,29.95 0,59.9 0,89.84 -111.02,0 -222.04,0 -333.07,0 0,-29.94 0,-59.89 0,-89.84zm0 236.96c111.03,0 222.05,0 333.07,0 0,29.95 0,59.9 0,89.84 -111.02,0 -222.04,0 -333.07,0 0,-29.94 0,-59.89 0,-89.84zm0 236.96c111.03,0 222.05,0 333.07,0 0,29.95 0,59.9 0,89.84 -111.02,0 -222.04,0 -333.07,0 0,-29.94 0,-59.89 0,-89.84zm0 236.96c111.03,0 222.05,0 333.07,0 0,29.94 0,59.89 0,89.84 -111.02,0 -222.04,0 -333.07,0 0,-29.95 0,-59.9 0,-89.84zm0 236.96c111.03,0 222.05,0 333.07,0 0,29.94 0,59.89 0,89.84 -111.02,0 -222.04,0 -333.07,0 0,-29.95 0,-59.9 0,-89.84zm0 236.96c111.03,0 222.05,0 333.07,0 0,29.94 0,59.89 0,89.84 -111.02,0 -222.04,0 -333.07,0 0,-29.95 0,-59.9 0,-89.84zm0 236.96l333.07 0 0 89.84 -333.07 0 0 -89.84zm1200.04 -2589.41l99.31 0 0 2716.18 -99.31 0 0 -2716.18zm-451.87 0l99.31 0 0 2716.18 -99.31 0 0 -2716.18zm225.94 0c33.1,0 66.21,0 99.31,0 0,905.4 0,1810.79 0,2716.18 -33.1,0 -66.21,0 -99.31,0 0,-905.4 0,-1810.79 0,-2716.18z"/>
  </g>
 </g>
</svg>
