<?xml version="1.0" encoding="UTF-8"?>
<!DOCTYPE svg PUBLIC "-//W3C//DTD SVG 1.1//EN" "http://www.w3.org/Graphics/SVG/1.1/DTD/svg11.dtd">
<!-- Creator: CorelDRAW -->
<svg xmlns="http://www.w3.org/2000/svg" xml:space="preserve" width="113.647mm" height="113.647mm" version="1.1" style="shape-rendering:geometricPrecision; text-rendering:geometricPrecision; image-rendering:optimizeQuality; fill-rule:evenodd; clip-rule:evenodd"
viewBox="0 0 2313.05 2313.05"
 xmlns:xlink="http://www.w3.org/1999/xlink"
 xmlns:xodm="http://www.corel.com/coreldraw/odm/2003">
 <defs>
  <style type="text/css">
   <![CDATA[
    .fil1 {fill:none}
    .fil0 {fill:lightgrey}
   ]]>
  </style>
 </defs>
 <g id="Capa_x0020_1">
  <metadata id="CorelCorpID_0Corel-Layer"/>
  <g id="_1904866331552">
   <g>
    <g>
     <g>
      <path class="fil0" d="M1080.16 1945.42c-38.36,-3.06 -89.88,-10.62 -111.76,-16.41 -6.44,-1.71 -18.41,-4.85 -26.61,-6.98 -82.17,-21.38 -140.72,-57.77 -155.63,-96.72 -6.15,-16.07 -6.25,-23.31 -0.53,-38.7 8.12,-21.84 22.26,-38.14 47.59,-54.82 15.36,-10.12 52.44,-27.22 73.45,-33.87 9.95,-3.15 20.01,-6.56 22.35,-7.57 10.51,-4.56 83.02,-19.1 95.26,-19.1 4.04,0 7.15,3.24 14.8,15.41 14.33,22.81 15.42,25.2 12.29,27.13 -1.45,0.89 -8.49,2.8 -15.65,4.24 -87.31,17.55 -134.52,39.22 -149.1,68.43 -11.63,23.3 -4.24,41.2 25.86,62.64 13.01,9.27 50.46,26.14 58.02,26.14 1.9,0 4.37,0.86 5.48,1.92 1.11,1.05 10.64,3.87 21.18,6.26 63.79,14.45 102.32,18.08 175.63,16.57 63.05,-1.3 81.76,-3.31 135.18,-14.47 16.97,-3.55 60.57,-18.48 74.51,-25.52 87.65,-44.26 55.35,-105.55 -70.89,-134.51 -12.53,-2.87 -28.04,-6.32 -34.48,-7.65 -15.78,-3.26 -17.03,-3.68 -17.03,-5.67 0,-4.78 23.12,-39.94 26.72,-40.63 2.23,-0.43 10.78,0.35 19,1.74 110.25,18.62 191.08,55.71 214.91,98.61 10.42,18.75 12.75,29.1 9.59,42.52 -4.02,17.08 -9.94,26.73 -26.25,42.85 -27.81,27.49 -71.27,48.5 -135.94,65.72 -6.73,1.79 -17.62,4.71 -24.2,6.48 -6.58,1.78 -32.21,6.17 -56.95,9.76 -41.76,6.06 -50.02,6.58 -115.23,7.21 -38.64,0.37 -79.83,-0.09 -91.54,-1.02zm39.38 -73.47c-1.76,-0.37 -15.13,-2.28 -29.72,-4.24 -64.66,-8.7 -110.79,-34.82 -110.79,-62.71 0,-8.5 4.98,-19 12.34,-25.99 15.03,-14.29 52.07,-30.46 72.69,-31.73 9.44,-0.58 9.48,-0.55 17.53,12.16 4.44,7.01 11.88,19.46 16.53,27.65 11.22,19.76 23.43,31.77 37.73,37.11 13.7,5.11 23.84,5.41 38.32,1.12 16.58,-4.91 27.74,-16.39 46.36,-47.63 9.04,-15.17 17.83,-28.74 19.53,-30.14 7.36,-6.1 59.62,12.85 78.67,28.52 8.47,6.97 15.8,19.96 15.8,27.98 0,17.8 -17.92,35 -49.44,47.46 -27.25,10.77 -33.28,12.31 -68.22,17.41 -24.95,3.65 -85.49,5.53 -97.35,3.03zm26.86 -94.61c-4.24,-7.1 -7.7,-13.4 -7.7,-14.01 0,-0.61 -1.81,-3.65 -4.01,-6.76 -3.75,-5.28 -6.17,-9.36 -17.49,-29.54 -2.46,-4.38 -9.07,-15.62 -14.7,-24.97 -20.66,-34.35 -48.33,-81.04 -54.13,-91.37 -3.28,-5.84 -9.54,-16.36 -13.91,-23.37 -4.36,-7.01 -13.98,-23.27 -21.36,-36.12 -7.38,-12.86 -16.99,-29.11 -21.34,-36.12 -8.95,-14.42 -30.59,-51.45 -52.16,-89.24 -8.01,-14.02 -16.18,-27.89 -18.17,-30.81 -1.99,-2.92 -7.48,-12.48 -12.2,-21.25 -4.72,-8.77 -15.04,-27.41 -22.94,-41.43 -26.38,-46.85 -35.05,-63.39 -63.52,-121.12 -15.56,-31.56 -29.78,-60.72 -31.59,-64.81 -1.81,-4.09 -5.89,-13.17 -9.07,-20.19 -3.18,-7.01 -8.6,-19.92 -12.04,-28.69 -3.45,-8.77 -8.24,-20.22 -10.66,-25.45 -5.28,-11.44 -27.73,-78.56 -32.59,-97.45 -3.21,-12.45 -8.72,-37.19 -14.05,-63.03 -11.8,-57.21 -11.27,-130.32 1.37,-188.05 7.95,-36.33 27.66,-91.32 41.51,-115.81 21.51,-38.05 29.99,-50.6 52.83,-78.24 64.24,-77.74 150.92,-130.57 251.44,-153.23 32.48,-7.33 57.62,-9.85 97.62,-9.79 51.89,0.07 83.02,4.69 133.35,19.8 22.55,6.77 74.64,28.83 84.32,35.7 3.16,2.25 6.21,4.09 6.76,4.09 2.52,0 25.72,15.18 44.49,29.1 93.93,69.7 156.51,172.9 177.56,292.82 7.02,40.01 6.07,110.67 -2.09,156.18 -8.98,50.05 -34.84,139.58 -49.72,172.12 -2.4,5.26 -7.72,17.69 -11.82,27.62 -25.47,61.78 -89.68,189.37 -129.72,257.74 -3.82,6.53 -12.22,21.08 -18.66,32.35 -19.94,34.88 -37.51,65.19 -46.81,80.71 -4.9,8.18 -13.93,23.48 -20.06,34 -30.93,53.02 -42.95,73.36 -50.2,85 -4.37,7.01 -13.51,22.31 -20.31,34 -6.8,11.69 -20.95,35.59 -31.44,53.12 -10.49,17.53 -24.55,41.44 -31.24,53.12 -28.68,50.07 -32.57,56.31 -35.15,56.31 -1.49,0 -6.18,-5.8 -10.42,-12.9zm67.88 -717.96c51.51,-13.29 94.74,-37.72 126.68,-71.57 37.68,-39.94 56.82,-76.8 70.2,-135.25 10.73,-46.84 0.42,-114.94 -24.65,-162.88 -15.44,-29.53 -27.01,-44.87 -52.33,-69.41 -20.5,-19.86 -38.97,-32.55 -65.91,-45.29 -28.49,-13.47 -38.39,-16.68 -66.49,-21.61 -29.43,-5.16 -60.53,-5.16 -89.96,0 -49.58,8.69 -94.86,30.97 -129.53,63.72 -53.27,50.33 -81.2,111.09 -83.61,181.89 -0.85,24.96 -0.27,33.34 3.6,52.06 12.87,62.22 34.95,103.17 77.81,144.23 34.23,32.8 75.29,54.32 123.9,64.94 22.64,4.95 25.24,5.13 60.25,4.32 24.44,-0.57 37.41,-1.91 50.03,-5.16z"/>
     </g>
    </g>
   </g>
   <rect class="fil1" x="-0" y="-0" width="2313.05" height="2313.05"/>
  </g>
 </g>
</svg>
