<?xml version="1.0" encoding="UTF-8"?>
<!DOCTYPE svg PUBLIC "-//W3C//DTD SVG 1.1//EN" "http://www.w3.org/Graphics/SVG/1.1/DTD/svg11.dtd">
<!-- Creator: CorelDRAW -->
<svg xmlns="http://www.w3.org/2000/svg" xml:space="preserve" width="152.4mm" height="152.4mm" version="1.1" style="shape-rendering:geometricPrecision; text-rendering:geometricPrecision; image-rendering:optimizeQuality; fill-rule:evenodd; clip-rule:evenodd"
viewBox="0 0 15240 15240"
 xmlns:xlink="http://www.w3.org/1999/xlink"
 xmlns:xodm="http://www.corel.com/coreldraw/odm/2003">
 <defs>
  <style type="text/css">
   <![CDATA[
    .fil0 {fill:none}
    .fil1 {fill:#220757}
    .fil2 {fill:#AEDFE5}
    .fil5 {fill:#ED1C24}
    .fil3 {fill:#FDEF00}
    .fil4 {fill:white}
   ]]>
  </style>
 </defs>
 <g id="Capa_x0020_1">
  <metadata id="CorelCorpID_0Corel-Layer"/>
  <g id="_1878580267328">
   <rect class="fil0" x="-0" y="-0" width="15240" height="15240"/>
   <path class="fil1" d="M5302.97 620.06c602.29,-87.67 1258.56,-139.78 1925.26,-155.94l0 -2.44c130.23,-2.33 260.7,-3.31 391.1,-2.91l1.35 0c130.4,-0.4 260.88,0.57 391.1,2.91l0 2.44c666.7,16.16 1322.97,68.27 1925.26,155.94 1168.23,170.04 2034.35,454.91 2991.98,961.24 375,198.28 624.47,507.53 738.86,916.01 546.7,1952.26 593.62,4475.73 -355.27,6693.43 -1022.72,2390.25 -2931.53,4171.57 -5219.41,5347.67l-81.42 41.85 0 0.18 -19.03 9.6 -369.3 189.85 -3.43 1.43 -3.46 -1.43 -369.29 -189.85 -19.04 -9.6 0 -0.18 -81.42 -41.85c-2287.88,-1176.1 -4196.69,-2957.42 -5219.4,-5347.67 -948.9,-2217.7 -901.98,-4741.17 -355.27,-6693.43 114.39,-408.48 363.85,-717.73 738.85,-916.01 957.63,-506.33 1823.76,-791.2 2991.98,-961.24z"/>
   <path class="fil2" d="M5272.5 527.99c610.21,-88.82 1275.11,-141.62 1950.58,-157.99l0 -2.47c131.94,-2.36 264.13,-3.35 396.24,-2.95l1.37 0c132.12,-0.4 264.31,0.58 396.24,2.95l0 2.47c675.47,16.37 1340.37,69.17 1950.59,157.99 1183.59,172.28 2061.1,460.89 3031.33,973.89 379.93,200.88 632.68,514.2 748.57,928.05 553.9,1977.94 601.43,4534.6 -359.94,6781.46 -1036.17,2421.7 -2970.08,4226.45 -5288.06,5418.02l-82.49 42.4 0 0.18 -19.28 9.73 -374.16 192.34 -3.47 1.45 -3.5 -1.45 -374.16 -192.34 -19.28 -9.73 0 -0.18 -82.49 -42.4c-2317.98,-1191.57 -4251.89,-2996.32 -5288.05,-5418.02 -961.38,-2246.86 -913.85,-4803.52 -359.95,-6781.46 115.9,-413.85 368.64,-727.17 748.58,-928.05 970.22,-513 1847.74,-801.61 3031.33,-973.89zm151.33 1039.69c-1063.03,154.73 -2023.76,454.89 -2852.19,943.01 -1334,4290.73 309.12,8747.6 5049.28,11184.3 4789.49,-2416.98 6493.14,-6893.57 5159.14,-11184.3 -810,-477.25 -1746.44,-774.83 -2781.36,-932.47 -1360.59,-207.25 -3211.6,-208.97 -4574.87,-10.54z"/>
   <g>
    <path class="fil3" d="M4488.65 6373.21c54.8,1219.87 433.32,2524.24 1071.62,3850.61 819.15,419.19 2870.81,379.83 3938.13,48.78 326.12,-576.88 622.43,-1230.71 874.04,-1928.94 241.45,-670.09 306.97,-1051.82 332.02,-1772.73 1.95,-56.12 3.46,-112.3 4.54,-168.32 -1737.64,-382.82 -3867.39,-476.67 -6069.47,-54.02 -41.76,8.02 -109.02,16.23 -150.88,24.62z"/>
    <path class="fil2" d="M4369.94 4192.7c-652.09,2148.5 -106.58,4478.39 978.87,6401.44 515.51,1120.23 4002.63,935.41 4363.74,138.87 588.24,-1087.17 1155.97,-2218.94 1345.64,-3374.86 148.05,-902.28 108.85,-2446.98 -158.03,-3022.83 68.03,-76.76 107.03,-154.18 108.96,-227.31l0.54 -3.28 -0.52 0c4.14,-273.62 -563.22,-511.7 -1182.37,-675.68 -1166.83,-309.06 -3219.42,-340.11 -4396.66,-94.35 -629.79,131.49 -1093.19,303.65 -1100.48,579.23l-0.54 3.28 0.53 0c-1.33,87.81 1.63,181.23 40.32,275.49zm6082.2 453.92c-179.78,86.16 -390.68,158.45 -613.68,205 -573.21,119.66 -1547.92,158.73 -2413.94,135.79l-2.15 -0.06c-866.15,-23.08 -1461.84,-80.29 -2027.35,-230.07 -313.57,-72.4 -535.23,-153.08 -691.88,-237.97l-2.83 -0.07c-455.06,1756.13 -84.95,3662.88 885.36,5679.18 819.16,419.18 2820,379.82 3887.33,48.78 326.12,-576.89 622.42,-1205.28 874.04,-1903.54 241.48,-670.1 306.95,-1051.81 332.02,-1772.73 31.55,-906.97 -51.41,-1826.12 -226.74,-1924.31l-0.18 0zm-2799.56 -1194.86l-2.16 -0.05c-844.33,-22.37 -1609.55,38.06 -2164.18,153.85 -202.89,42.36 -350.84,84.88 -455.32,129.15 -579.75,245.66 149.31,538.57 434.26,614.04 433.84,114.92 1001.27,187.38 1637.69,223.7l927.08 20.52c679.86,-19.8 1289.48,-126.92 1752.39,-223.56 493.83,-103.1 638.77,-136.72 647.25,-264.65l-0.34 0 0.55 -3.29c3.4,-129.45 -135.04,-227.7 -626.41,-357.84 -547.46,-145 -1307.65,-269.4 -2150.81,-291.87z"/>
    <path class="fil4" d="M5144.9 7754.29l794.45 6.94c-2.87,308.93 38.48,606.88 110.79,857.11l-677.26 99.89c-154.55,-331.16 -220.79,-651.25 -227.98,-963.94zm-179.6 -1983.35l856.6 97.09c-5.81,515.77 25.81,1067.16 93.69,1601.42l-846.68 -6.42c-157.12,-545.11 -185.98,-1110 -103.61,-1692.09z"/>
    <path class="fil5" d="M9860.85 4352.97c73.06,-460.99 13.19,-957.58 -359.41,-1537.89 -104.34,-65.94 -305.85,22.01 -429.62,-119.81 -105.81,24.3 -280.73,-109.65 -159.79,-278.28 -73.53,-272.12 183.42,-269.17 353.2,-136.63 190.74,-31.17 308.25,23.49 291.67,132.5 296.34,23.4 326.27,158.52 196.39,287.45 296.7,857.37 356.7,1316.4 316.69,1607.07l-209.13 45.59zm-1305.35 3194.52c-402.85,-88.75 -699.62,-419.14 -1223.62,-87.28 -160.67,101.74 -287.34,260.87 -384.97,464.33 -273.69,570.46 -314.66,1281.2 129.02,1778.66 193.65,217.1 461.95,383.31 781.73,503.61 650.49,172.15 1429.85,-412.27 1601.6,-1157.42 116.24,-504.3 -87.4,-1242.48 -651.87,-1364.8l-13.13 -7.55c438.49,-858.54 883.65,-1806.99 1160.44,-2852.26l-214.18 45.82c-231.01,1067.41 -685.32,1944.8 -1185.02,2676.89z"/>
   </g>
  </g>
 </g>
</svg>
