<?xml version="1.0" encoding="UTF-8"?>
<!DOCTYPE svg PUBLIC "-//W3C//DTD SVG 1.1//EN" "http://www.w3.org/Graphics/SVG/1.1/DTD/svg11.dtd">
<!-- Creator: CorelDRAW -->
<svg xmlns="http://www.w3.org/2000/svg" xml:space="preserve" width="152.4mm" height="152.4mm" version="1.1" style="shape-rendering:geometricPrecision; text-rendering:geometricPrecision; image-rendering:optimizeQuality; fill-rule:evenodd; clip-rule:evenodd"
viewBox="0 0 5017.31 5017.31"
 xmlns:xlink="http://www.w3.org/1999/xlink"
 xmlns:xodm="http://www.corel.com/coreldraw/odm/2003">
 <defs>
  <style type="text/css">
   <![CDATA[
    .fil0 {fill:none}
    .fil1 {fill:#220757}
    .fil2 {fill:#AEDFE5}
    .fil5 {fill:#ED1C24}
    .fil3 {fill:#FDEF00}
    .fil4 {fill:white}
   ]]>
  </style>
 </defs>
 <g id="Capa_x0020_1">
  <metadata id="CorelCorpID_0Corel-Layer"/>
  <g id="_1878311150448">
   <rect class="fil0" x="-0" y="-0" width="5017.31" height="5017.31"/>
   <ellipse id="contour" class="fil1" cx="2508.66" cy="2508.65" rx="2370.61" ry="2370.62"/>
   <path id="contour_1" class="fil2" d="M2508.66 119.92c1319.26,0 2388.72,1069.48 2388.72,2388.73 0,1319.26 -1069.47,2388.73 -2388.72,2388.73 -1319.26,0 -2388.72,-1069.48 -2388.72,-2388.73 0,-1319.26 1069.46,-2388.73 2388.72,-2388.73zm-0.02 324.54c1140.03,0 2064.21,924.18 2064.21,2064.21 0,1140.03 -924.18,2064.21 -2064.21,2064.21 -1140.03,0 -2064.21,-924.18 -2064.21,-2064.21 0,-1140.03 924.18,-2064.21 2064.21,-2064.21z"/>
   <g>
    <path class="fil3" d="M1366.63 2344.67c19.52,434.58 154.36,899.27 381.75,1371.8 291.82,149.34 1022.7,135.32 1402.93,17.38 116.17,-205.52 221.73,-438.44 311.37,-687.19 86.02,-238.73 109.36,-374.72 118.28,-631.55 0.69,-19.99 1.23,-40.01 1.62,-59.96 -619.02,-136.38 -1377.73,-169.81 -2162.2,-19.24 -14.88,2.85 -38.84,5.78 -53.75,8.77z"/>
    <path class="fil2" d="M1324.34 1567.85c-232.3,765.41 -37.97,1595.45 348.71,2280.54 183.65,399.08 1425.91,333.24 1554.55,49.47 209.56,-387.31 411.81,-790.51 479.38,-1202.31 52.74,-321.44 38.78,-871.74 -56.3,-1076.89 24.24,-27.34 38.13,-54.92 38.82,-80.98l0.19 -1.17 -0.19 0c1.47,-97.48 -200.64,-182.3 -421.21,-240.72 -415.67,-110.1 -1146.89,-121.16 -1566.28,-33.61 -224.36,46.84 -389.44,108.17 -392.03,206.35l-0.19 1.17 0.19 0c-0.47,31.29 0.58,64.56 14.36,98.14zm2166.74 161.71c-64.04,30.7 -139.17,56.45 -218.61,73.03 -204.2,42.63 -551.44,56.55 -859.95,48.38l-0.77 -0.02c-308.56,-8.22 -520.77,-28.6 -722.23,-81.97 -111.71,-25.79 -190.67,-54.54 -246.48,-84.78l-1.01 -0.02c-162.11,625.63 -30.26,1304.91 315.41,2023.23 291.82,149.33 1004.6,135.31 1384.83,17.38 116.17,-205.52 221.73,-429.38 311.37,-678.14 86.03,-238.73 109.35,-374.71 118.28,-631.55 11.24,-323.11 -18.31,-650.56 -80.77,-685.54l-0.07 0zm-997.32 -425.67l-0.77 -0.02c-300.78,-7.97 -573.39,13.56 -770.98,54.81 -72.27,15.09 -124.98,30.24 -162.2,46.01 -206.53,87.51 53.19,191.87 154.7,218.75 154.55,40.94 356.69,66.76 583.42,79.69l330.26 7.31c242.2,-7.06 459.37,-45.22 624.27,-79.65 175.93,-36.73 227.56,-48.7 230.58,-94.28l-0.12 0 0.19 -1.17c1.21,-46.12 -48.11,-81.12 -223.15,-127.48 -195.03,-51.66 -465.84,-95.98 -766.21,-103.98z"/>
    <path class="fil4" d="M1600.42 2836.68l283.02 2.47c-1.02,110.06 13.71,216.2 39.47,305.35l-241.27 35.59c-55.06,-117.98 -78.65,-232.01 -81.22,-343.41zm-63.98 -706.58l305.16 34.59c-2.07,183.75 9.2,380.18 33.38,570.51l-301.62 -2.29c-55.97,-194.2 -66.25,-395.44 -36.91,-602.81z"/>
    <path class="fil5" d="M3280.44 1624.95c26.02,-164.23 4.7,-341.14 -128.04,-547.88 -37.17,-23.49 -108.95,7.84 -153.04,-42.68 -37.7,8.66 -100.01,-39.06 -56.93,-99.14 -26.19,-96.95 65.34,-95.9 125.82,-48.68 67.95,-11.1 109.81,8.37 103.9,47.2 105.57,8.34 116.23,56.47 69.96,102.41 105.7,305.44 127.07,468.97 112.82,572.52l-74.5 16.24zm-465.02 1138.06c-143.51,-31.62 -249.24,-149.32 -435.91,-31.09 -57.24,36.25 -102.36,92.94 -137.14,165.42 -97.5,203.23 -112.1,456.44 45.97,633.66 68.98,77.35 164.56,136.56 278.48,179.41 231.73,61.33 509.37,-146.87 570.56,-412.33 41.41,-179.66 -31.14,-442.64 -232.22,-486.22l-4.68 -2.69c156.21,-305.86 314.79,-643.75 413.4,-1016.13l-76.3 16.32c-82.3,380.27 -244.14,692.84 -422.15,953.65z"/>
   </g>
  </g>
 </g>
</svg>
