<?xml version="1.0" encoding="UTF-8"?>
<!DOCTYPE svg PUBLIC "-//W3C//DTD SVG 1.1//EN" "http://www.w3.org/Graphics/SVG/1.1/DTD/svg11.dtd">
<!-- Creator: CorelDRAW -->
<svg xmlns="http://www.w3.org/2000/svg" xml:space="preserve" width="152.4mm" height="152.4mm" version="1.1" style="shape-rendering:geometricPrecision; text-rendering:geometricPrecision; image-rendering:optimizeQuality; fill-rule:evenodd; clip-rule:evenodd"
viewBox="0 0 15240 15240"
 xmlns:xlink="http://www.w3.org/1999/xlink"
 xmlns:xodm="http://www.corel.com/coreldraw/odm/2003">
 <defs>
  <style type="text/css">
   <![CDATA[
    .fil0 {fill:none}
    .fil2 {fill:#1C83C6}
    .fil1 {fill:#D7DF27}
   ]]>
  </style>
 </defs>
 <g id="Capa_x0020_1">
  <metadata id="CorelCorpID_0Corel-Layer"/>
  <g id="_2981804110208">
   <rect class="fil0" x="-0" y="-0" width="15240" height="15240"/>
   <ellipse id="contour" class="fil1" cx="7620" cy="7620" rx="7200.69" ry="7200.73"/>
   <path id="contour_31" class="fil2" d="M7620.01 364.25c4007.22,0 7255.71,3248.52 7255.71,7255.75 0,4007.22 -3248.49,7255.74 -7255.71,7255.74 -4007.22,0 -7255.7,-3248.52 -7255.7,-7255.74 0,-4007.23 3248.48,-7255.75 7255.7,-7255.75zm3177.26 9047.85c0,1779.79 -1422.05,3222.59 -3176.24,3222.59 -1754.19,0 -3176.24,-1442.8 -3176.24,-3222.59 0,-985.67 436.31,-1867.82 1123.49,-2458.94l-0.25 -0.08c160.2,-157.89 559.2,-398.93 835.47,-657.36 307.95,-288.06 470.51,-550.14 125.64,-691.64 -214.18,-77.98 -216.57,-254.2 -118.98,-365.33 141.4,-161.01 452.47,-78.24 643.39,-43.01 1034.7,190.99 2171.52,829.57 2912.21,1800.05 507.11,664.43 831.51,1566.37 831.51,2416.31zm-5427.28 -5362.84c275.24,0 498.36,223.12 498.36,498.36 0,275.24 -223.12,498.36 -498.36,498.36 -275.24,0 -498.36,-223.12 -498.36,-498.36 0,-275.24 223.12,-498.36 498.36,-498.36zm4050.78 -1118.23c120.81,0 218.74,97.93 218.74,218.74 0,120.81 -97.93,218.74 -218.74,218.74 -120.81,0 -218.74,-97.93 -218.74,-218.74 0,-120.81 97.93,-218.74 218.74,-218.74zm-3695.5 -109.34c116.78,0 211.44,94.66 211.44,211.44 0,116.78 -94.66,211.44 -211.44,211.44 -116.78,0 -211.44,-94.66 -211.44,-211.44 0,-116.78 94.66,-211.44 211.44,-211.44zm2399.03 -44.53c165.1,0 298.94,133.84 298.94,298.94 0,165.1 -133.84,298.94 -298.94,298.94 -165.1,0 -298.94,-133.84 -298.94,-298.94 0,-165.1 133.84,-298.94 298.94,-298.94zm-1541.08 -925.73c171.59,0 310.69,139.1 310.69,310.68 0,171.59 -139.1,310.69 -310.69,310.69 -171.58,0 -310.68,-139.1 -310.68,-310.69 0,-171.58 139.1,-310.68 310.68,-310.68zm2371.66 -358.47c18.85,60.37 29.01,124.58 29.01,191.16 0,353.89 -286.88,640.77 -640.77,640.77 -353.89,0 -640.77,-286.88 -640.77,-640.77 0,-121.35 33.74,-234.8 92.34,-331.53 -58.06,-1.6 -116.29,-2.54 -174.74,-2.54 -3462.82,0 -6270,2807.18 -6270,6270 0,3462.82 2807.18,6270.01 6270,6270.01 3462.82,0 6270.01,-2807.19 6270.01,-6270.01 0,-3004.65 -2113.65,-5515.21 -4935.08,-6127.09zm-2226 1717.88c337.64,0 611.35,273.71 611.35,611.35 0,337.64 -273.71,611.35 -611.35,611.35 -337.64,0 -611.35,-273.71 -611.35,-611.35 0,-337.64 273.71,-611.35 611.35,-611.35zm1982.37 723.86c403.31,0 730.25,326.94 730.25,730.25 0,403.31 -326.94,730.25 -730.25,730.25 -403.31,0 -730.25,-326.94 -730.25,-730.25 0,-403.31 326.94,-730.25 730.25,-730.25zm590.42 6252.9c56.79,-110.18 192.16,-153.47 302.34,-96.68 110.18,56.79 153.47,192.16 96.68,302.34 -216.04,420.39 -521.09,770.61 -884.65,1014.18 -356.8,239.05 -768.24,375.3 -1206.42,375.3 -418.85,0 -813.66,-124.84 -1159.92,-345.19 -352.64,-224.4 -653.07,-548.56 -874.54,-940.43 -26.68,-47.2 -0.08,1.6 -15.4,-26.19l-14.41 -26.59c-58.73,-109.21 -17.81,-245.37 91.4,-304.1 109.21,-58.73 245.37,-17.81 304.1,91.4l12.67 23.07c24.34,44.15 -5.62,-8.28 11.88,22.69 185.06,327.45 434.18,597.09 725.12,782.23 273.96,174.34 586.78,273.11 919.1,273.11 347.21,0 673.55,-108.17 956.82,-297.96 299.94,-200.95 553.48,-493.51 735.23,-847.18zm-3322.65 -2101.92c-58.24,-58.56 -57.98,-153.28 0.58,-211.52 58.56,-58.24 153.28,-57.98 211.52,0.58l343.8 345.28 343.8 -345.28c58.24,-58.56 152.96,-58.82 211.52,-0.58 58.56,58.24 58.82,152.96 0.58,211.52l-344.83 346.32 344.82 346.3c58.24,58.56 57.98,153.28 -0.58,211.52 -58.56,58.24 -153.28,57.98 -211.52,-0.58l-343.79 -345.27 -343.79 345.27c-58.24,58.56 -152.96,58.82 -211.52,0.58 -58.56,-58.24 -58.82,-152.96 -0.58,-211.52l344.82 -346.3 -344.83 -346.32zm2158.19 0c-58.24,-58.56 -57.98,-153.28 0.58,-211.52 58.56,-58.24 153.28,-57.98 211.52,0.58l343.8 345.28 343.8 -345.28c58.24,-58.56 152.96,-58.82 211.52,-0.58 58.56,58.24 58.82,152.96 0.58,211.52l-344.83 346.32 344.82 346.3c58.24,58.56 57.98,153.28 -0.58,211.52 -58.56,58.24 -153.28,57.98 -211.52,-0.58l-343.79 -345.27 -343.79 345.27c-58.24,58.56 -152.96,58.82 -211.52,0.58 -58.56,-58.24 -58.82,-152.96 -0.58,-211.52l344.82 -346.3 -344.83 -346.32z"/>
  </g>
 </g>
</svg>
