<?xml version="1.0" encoding="UTF-8"?>
<!DOCTYPE svg PUBLIC "-//W3C//DTD SVG 1.1//EN" "http://www.w3.org/Graphics/SVG/1.1/DTD/svg11.dtd">
<!-- Creator: CorelDRAW -->
<svg xmlns="http://www.w3.org/2000/svg" xml:space="preserve" width="152.4mm" height="152.4mm" version="1.1" style="shape-rendering:geometricPrecision; text-rendering:geometricPrecision; image-rendering:optimizeQuality; fill-rule:evenodd; clip-rule:evenodd"
viewBox="0 0 15240 15240"
 xmlns:xlink="http://www.w3.org/1999/xlink"
 xmlns:xodm="http://www.corel.com/coreldraw/odm/2003">
 <defs>
  <style type="text/css">
   <![CDATA[
    .fil0 {fill:none}
    .fil1 {fill:#26AAE1}
    .fil2 {fill:#FFCA0F}
   ]]>
  </style>
 </defs>
 <g id="Capa_x0020_1">
  <metadata id="CorelCorpID_0Corel-Layer"/>
  <g id="_1904534938944">
   <rect class="fil0" x="-0" y="-0" width="15240" height="15240"/>
   <ellipse id="contour" class="fil1" cx="7620.01" cy="7620" rx="7200.69" ry="7200.73"/>
   <path id="contour_5" class="fil2" d="M11089.33 1309.07c568.85,313.47 1090.73,701.55 1552.57,1151.13l-2980.4 3926.91c-549.95,-384.6 -1207.67,-625.49 -1918.84,-668.55l3346.67 -4409.49zm-3576.88 4961.98c1764.41,0 3194.75,1430.34 3194.75,3194.75 0,1764.41 -1430.34,3194.75 -3194.75,3194.75 -1764.41,0 -3194.75,-1430.34 -3194.75,-3194.75 0,-1764.41 1430.34,-3194.75 3194.75,-3194.75zm-777.16 4419.29c0,24.05 -1.33,58.11 -4.01,102.18 -2.67,44.08 -12.02,87.49 -28.04,130.23 -16.03,42.74 -42.08,80.14 -78.14,112.2 -36.07,32.06 -87.49,48.08 -154.27,48.08 -48.09,0 -93.5,-11.35 -136.24,-34.06 -42.74,-22.7 -73.46,-52.75 -92.16,-90.15 -21.38,-40.07 -33.4,-79.48 -36.07,-118.21 -2.67,-38.74 -4,-80.81 -4,-126.22l0 -1727.04c-176.31,133.57 -317.23,230.41 -422.75,290.51 -105.52,60.11 -186.32,90.16 -242.42,90.16 -58.77,0 -108.86,-19.37 -150.27,-58.1 -41.4,-38.74 -62.11,-92.83 -62.11,-162.29 0,-53.42 18.04,-96.83 54.1,-130.22 36.06,-33.4 96.84,-70.13 182.32,-110.2 45.41,-21.37 98.17,-48.75 158.28,-82.14 60.1,-33.39 122.21,-73.47 186.32,-120.21 64.12,-46.75 126.23,-98.84 186.33,-156.28 60.11,-57.43 112.87,-120.88 158.28,-190.33 24.04,-37.4 44.75,-69.46 62.11,-96.17 17.36,-26.72 35.39,-48.09 54.09,-64.11 18.7,-16.03 38.74,-28.05 60.11,-36.07 21.37,-8.01 46.75,-12.02 76.13,-12.02 58.77,0 103.52,14.03 134.24,42.08 30.72,28.04 53.43,60.77 68.12,98.17 14.69,37.4 23.37,75.46 26.04,114.2 2.68,38.73 4.01,70.12 4.01,94.16l0 2191.85zm2063.36 -1097.92c0,-162.96 -6.68,-309.21 -20.03,-438.78 -13.36,-129.56 -38.07,-239.08 -74.13,-328.57 -36.07,-89.49 -84.15,-158.28 -144.26,-206.37 -60.1,-48.08 -135.57,-72.12 -226.4,-72.12 -101.51,0 -182.32,28.72 -242.42,86.15 -60.11,57.43 -106.19,135.57 -138.24,234.41 -32.06,98.84 -53.43,212.37 -64.12,340.6 -10.68,128.22 -16.03,261.79 -16.03,400.7 0,144.26 5.35,281.16 16.03,410.73 10.69,129.56 32.06,243.76 64.12,342.6 32.05,98.84 78.13,177.64 138.24,236.41 60.1,58.77 140.91,88.16 242.42,88.16 98.84,0 178.98,-27.38 240.43,-82.15 61.44,-54.76 108.85,-131.56 142.25,-230.4 33.39,-98.84 55.43,-214.38 66.11,-346.61 10.69,-132.23 16.03,-277.15 16.03,-434.76zm540.95 36.06c0,165.62 -11.35,334.59 -34.06,506.89 -22.71,172.3 -72.79,326.57 -150.26,462.81 -85.49,152.27 -199.02,271.15 -340.6,356.63 -141.58,85.48 -299.19,128.22 -472.83,128.22 -56.1,0 -124.22,-7.34 -204.36,-22.03 -80.14,-14.7 -161.62,-45.42 -244.43,-92.17 -82.81,-46.74 -163.62,-112.19 -242.43,-196.34 -78.8,-84.15 -146.25,-197.01 -202.35,-338.6 -40.07,-101.51 -69.46,-223.05 -88.16,-364.64 -18.7,-141.58 -28.05,-284.5 -28.05,-428.75 0,-72.13 2.01,-159.61 6.01,-262.46 4.01,-102.85 16.03,-209.7 36.07,-320.56 20.03,-110.87 50.75,-220.39 92.16,-328.58 41.41,-108.19 98.84,-205.03 172.3,-290.51 73.46,-85.49 166.96,-154.94 280.5,-208.37 113.53,-53.43 251.77,-80.14 414.72,-80.14 104.19,0 196.35,12.02 276.49,36.06 80.14,24.05 149.6,53.43 208.37,88.16 58.77,34.73 107.52,72.13 146.25,112.2 38.74,40.07 70.13,74.79 94.17,104.18 37.4,48.08 72.79,102.18 106.18,162.28 33.4,60.11 63.45,134.24 90.16,222.4 26.72,88.15 47.42,193 62.11,314.55 14.69,121.54 22.04,267.8 22.04,438.77zm-6655.92 -7250.38c483.29,-455.3 1029.51,-844.43 1624.23,-1153.15l3076.74 4488.78c-730.42,24.45 -1408.04,257.31 -1975.03,641.35l-2725.94 -3976.98z"/>
   <path id="contour_6" class="fil2" d="M7620.01 364.25c4007.22,0 7255.71,3248.52 7255.71,7255.75 0,4007.22 -3248.49,7255.74 -7255.71,7255.74 -4007.22,0 -7255.7,-3248.52 -7255.7,-7255.74 0,-4007.23 3248.48,-7255.75 7255.7,-7255.75zm-0.06 985.8c3462.82,0 6270.01,2807.18 6270.01,6270 0,3462.82 -2807.19,6270.01 -6270.01,6270.01 -3462.82,0 -6270,-2807.19 -6270,-6270.01 0,-3462.82 2807.18,-6270 6270,-6270z"/>
  </g>
 </g>
</svg>
