<?xml version="1.0" encoding="UTF-8"?>
<!DOCTYPE svg PUBLIC "-//W3C//DTD SVG 1.1//EN" "http://www.w3.org/Graphics/SVG/1.1/DTD/svg11.dtd">
<!-- Creator: CorelDRAW -->
<svg xmlns="http://www.w3.org/2000/svg" xml:space="preserve" width="152.4mm" height="152.4mm" version="1.1" style="shape-rendering:geometricPrecision; text-rendering:geometricPrecision; image-rendering:optimizeQuality; fill-rule:evenodd; clip-rule:evenodd"
viewBox="0 0 15240 15240"
 xmlns:xlink="http://www.w3.org/1999/xlink"
 xmlns:xodm="http://www.corel.com/coreldraw/odm/2003">
 <defs>
  <style type="text/css">
   <![CDATA[
    .fil2 {fill:none}
    .fil1 {fill:#A6A8AB}
    .fil0 {fill:#DBDCDD}
   ]]>
  </style>
 </defs>
 <g id="Capa_x0020_1">
  <metadata id="CorelCorpID_0Corel-Layer"/>
  <g id="_1788488738512">
   <ellipse id="contour" class="fil0" cx="7620.01" cy="7620" rx="7255.7" ry="7255.74"/>
   <path id="contour_9" class="fil1" d="M7620.01 364.25c4007.22,0 7255.71,3248.52 7255.71,7255.75 0,4007.22 -3248.49,7255.74 -7255.71,7255.74 -4007.22,0 -7255.7,-3248.52 -7255.7,-7255.74 0,-4007.23 3248.48,-7255.75 7255.7,-7255.75zm-0.06 985.8c3462.82,0 6270.01,2807.18 6270.01,6270 0,3462.82 -2807.19,6270.01 -6270.01,6270.01 -3462.82,0 -6270,-2807.19 -6270,-6270.01 0,-3462.82 2807.18,-6270 6270,-6270z"/>
   <path id="contour_10" class="fil1" d="M7874.98 2636.49l1353.41 2839.46 3129.3 401.33c111.37,14.3 198.86,85.65 233.78,190.67 34.92,105.02 7.21,213.45 -74.07,289.73l-2298 2157.43 582.04 3098.05c20.51,109.29 -22.28,213.79 -114.06,278.52 -91.75,64.77 -206.07,71.13 -304.66,16.95l-2757.96 -1515.3 -2775.09 1516.4c-98.73,53.96 -213.05,47.35 -304.66,-17.64 -91.67,-64.99 -134.16,-169.61 -113.36,-278.82l589.46 -3093.89 -2298.77 -2165.49c-81.13,-76.42 -108.66,-184.89 -73.55,-289.84 35.06,-104.95 122.66,-176.15 234.04,-190.26l3138.41 -397.88 1337.72 -2838.35c47.64,-101.09 144.42,-161.99 257.68,-162.25 113.25,-0.22 210.26,60.32 258.34,161.18z"/>
   <rect class="fil2" x="-0" y="-0" width="15240" height="15240"/>
  </g>
 </g>
</svg>
