<?xml version="1.0" encoding="UTF-8"?>
<!DOCTYPE svg PUBLIC "-//W3C//DTD SVG 1.1//EN" "http://www.w3.org/Graphics/SVG/1.1/DTD/svg11.dtd">
<!-- Creator: CorelDRAW -->
<svg xmlns="http://www.w3.org/2000/svg" xml:space="preserve" width="152.4mm" height="152.4mm" version="1.1" style="shape-rendering:geometricPrecision; text-rendering:geometricPrecision; image-rendering:optimizeQuality; fill-rule:evenodd; clip-rule:evenodd"
viewBox="0 0 15240 15240"
 xmlns:xlink="http://www.w3.org/1999/xlink"
 xmlns:xodm="http://www.corel.com/coreldraw/odm/2003">
 <defs>
  <style type="text/css">
   <![CDATA[
    .str1 {stroke:white;stroke-width:200;stroke-miterlimit:22.9256}
    .str0 {stroke:white;stroke-width:150;stroke-miterlimit:22.9256}
    .fil2 {fill:none}
    .fil4 {fill:#E5A82D}
    .fil3 {fill:#EEA003}
    .fil0 {fill:#F9B836}
    .fil1 {fill:white}
   ]]>
  </style>
 </defs>
 <g id="Capa_x0020_1">
  <metadata id="CorelCorpID_0Corel-Layer"/>
  <g id="_1788838204512">
   <path class="fil0" d="M5272.5 527.99c610.21,-88.82 1275.11,-141.62 1950.58,-157.99l0 -2.47c131.94,-2.36 264.13,-3.35 396.24,-2.95l1.37 0c132.12,-0.4 264.31,0.58 396.24,2.95l0 2.47c675.47,16.37 1340.37,69.17 1950.59,157.99 1183.59,172.28 2061.1,460.89 3031.33,973.89 379.93,200.88 632.68,514.2 748.57,928.05 553.9,1977.94 601.43,4534.6 -359.94,6781.46 -1036.17,2421.7 -2970.08,4226.45 -5288.06,5418.02l-82.49 42.4 0 0.18 -19.28 9.73 -374.16 192.34 -3.47 1.45 -3.5 -1.45 -374.16 -192.34 -19.28 -9.73 0 -0.18 -82.49 -42.4c-2317.98,-1191.57 -4251.89,-2996.32 -5288.05,-5418.02 -961.38,-2246.86 -913.85,-4803.52 -359.95,-6781.46 115.9,-413.85 368.64,-727.17 748.58,-928.05 970.22,-513 1847.74,-801.61 3031.33,-973.89z"/>
   <path class="fil1" d="M5272.5 527.99c610.21,-88.82 1275.11,-141.62 1950.58,-157.99l0 -2.47c131.94,-2.36 264.13,-3.35 396.24,-2.95l1.37 0c132.12,-0.4 264.31,0.58 396.24,2.95l0 2.47c675.47,16.37 1340.37,69.17 1950.59,157.99 1183.59,172.28 2061.1,460.89 3031.33,973.89 379.93,200.88 632.68,514.2 748.57,928.05 158.32,565.36 275.17,1178.04 339.02,1817.21l-104.99 72.02c-2797.35,1791.57 -5253.49,-2852.6 -8959.34,-2025.28 -1337.27,298.54 -2612.12,1420.26 -3618.92,4065.05l-222.7 325.6c-187.98,-1499.92 -40.73,-2994.67 312.1,-4254.6 115.9,-413.85 368.64,-727.17 748.58,-928.05 970.22,-513 1847.74,-801.61 3031.33,-973.89z"/>
   <circle class="fil2 str0" cx="7394.66" cy="3705.93" r="500.9"/>
   <circle class="fil2 str1" cx="4616.74" cy="5369.3" r="1385.98"/>
   <circle class="fil2 str1" cx="9003.94" cy="6296.01" r="1232.51"/>
   <circle class="fil2 str0" cx="6423.51" cy="9543.52" r="982.08"/>
   <path class="fil2 str0" d="M9602.32 11727.82c-120.46,-260.83 -182.85,-544.69 -182.85,-831.98 0,-1095.75 888.31,-1984.07 1984.06,-1984.07 684.34,0 1320.36,352.66 1682.85,933.14"/>
   <path id="contour" class="fil3" d="M6050.3 5123.4c33.3,-35.16 80.39,-57.14 132.45,-57.14l815.54 0c100.54,0 182.53,82 182.53,182.54l0 594.72c0,34.64 -9.73,67.08 -26.59,94.71 26.53,28.15 44.26,64.69 48.69,105.12 27.04,-15.87 58.48,-24.98 92,-24.98l1834.89 0c51.23,0 97.65,21.3 130.86,55.49 33.2,-34.19 79.62,-55.49 130.85,-55.49l1834.89 0c100.54,0 182.54,82 182.54,182.54l0 3600.02c0,100.54 -82,182.53 -182.54,182.53l-1834.89 0c-51.23,0 -97.65,-21.29 -130.85,-55.48 -33.21,34.19 -79.63,55.48 -130.86,55.48l-1834.89 0c-100.54,0 -182.54,-81.99 -182.54,-182.53l0 -626.22c0,-66.31 35.68,-124.56 88.81,-156.53 -7.11,-4.28 -13.9,-9.03 -20.34,-14.2 -31.29,55.83 -91.05,93.7 -159.38,93.7l-815.54 0c-77.24,0 -143.54,-48.4 -170.12,-116.41 -27.82,65.35 -92.73,111.36 -168.05,111.36l-1834.89 0c-100.54,0 -182.54,-82 -182.54,-182.54l0 -2694.88c0,-100.54 82,-182.53 182.54,-182.53l946.62 0 0 -926.63c0,-100.54 82,-182.53 182.54,-182.53l705.73 0c100.54,0 182.54,81.99 182.54,182.53l0 17.35zm-1070.91 2970.28l0 -1061.65 -58.25 0 0 1061.65 58.25 0zm3262.63 -40.36l0 -1043.66 -58.73 0 0 1043.66 58.73 0zm2096.6 0l0 -1043.65 -58.73 0 0 1043.65 58.73 0z"/>
   <path class="fil1" d="M4032.87 8910.09l1834.89 0 0 -3804.04 -705.73 0 0 1109.16 -1129.16 0 0 2694.88zm3262.05 890.84l1834.89 0 0 -3600.02 -1834.89 0 0 2660.74 1129.64 0 0 313.06 -1129.64 0 0 626.22zm1129.64 -1565.08l-423.81 0 0 -1408.73 423.81 0 0 1408.73zm966.96 1565.08l1834.89 0 0 -3600.02 -1834.89 0 0 2660.74 1129.64 0 0 313.06 -1129.64 0 0 626.22zm1129.64 -1565.08l-423.8 0 0 -1408.72 423.8 0 0 1408.72zm-4315.23 679.3l815.54 0 0 -2851.84 -815.54 0 0 2851.84zm-23.18 -3071.63l815.54 0 0 -594.72 -815.54 0 0 594.72zm-1020.82 2432.7l-423.32 0 0 -1426.73 423.32 0 0 1426.73z"/>
   <path class="fil4" d="M5272.5 527.99c610.21,-88.82 1275.11,-141.62 1950.58,-157.99l0 -2.47c131.94,-2.36 264.13,-3.35 396.24,-2.95l1.37 0c132.12,-0.4 264.31,0.58 396.24,2.95l0 2.47c675.47,16.37 1340.37,69.17 1950.59,157.99 1183.59,172.28 2061.1,460.89 3031.33,973.89 379.93,200.88 632.68,514.2 748.57,928.05 553.9,1977.94 601.43,4534.6 -359.94,6781.46 -1036.17,2421.7 -2970.08,4226.45 -5288.06,5418.02l-82.49 42.4 0 0.18 -19.28 9.73 -374.16 192.34 -3.47 1.45 -3.5 -1.45 -374.16 -192.34 -19.28 -9.73 0 -0.18 -82.49 -42.4c-2317.98,-1191.57 -4251.89,-2996.32 -5288.05,-5418.02 -961.38,-2246.86 -913.85,-4803.52 -359.95,-6781.46 115.9,-413.85 368.64,-727.17 748.58,-928.05 970.22,-513 1847.74,-801.61 3031.33,-973.89zm151.33 1039.69c-1063.03,154.73 -2023.76,454.89 -2852.19,943.01 -1334,4290.73 309.12,8747.6 5049.28,11184.3 4789.49,-2416.98 6493.14,-6893.57 5159.14,-11184.3 -810,-477.25 -1746.44,-774.83 -2781.36,-932.47 -1360.59,-207.25 -3211.6,-208.97 -4574.87,-10.54z"/>
   <rect class="fil2" x="-0" y="-0" width="15240" height="15240"/>
  </g>
 </g>
</svg>
