<?xml version="1.0" encoding="UTF-8"?>
<!DOCTYPE svg PUBLIC "-//W3C//DTD SVG 1.1//EN" "http://www.w3.org/Graphics/SVG/1.1/DTD/svg11.dtd">
<!-- Creator: CorelDRAW -->
<svg xmlns="http://www.w3.org/2000/svg" xml:space="preserve" width="152.4mm" height="152.4mm" version="1.1" style="shape-rendering:geometricPrecision; text-rendering:geometricPrecision; image-rendering:optimizeQuality; fill-rule:evenodd; clip-rule:evenodd"
viewBox="0 0 15240 15240"
 xmlns:xlink="http://www.w3.org/1999/xlink"
 xmlns:xodm="http://www.corel.com/coreldraw/odm/2003">
 <defs>
  <style type="text/css">
   <![CDATA[
    .str1 {stroke:white;stroke-width:200;stroke-miterlimit:22.9256}
    .str0 {stroke:white;stroke-width:150;stroke-miterlimit:22.9256}
    .fil0 {fill:none}
    .fil3 {fill:#E0B74B}
    .fil1 {fill:#F0C556}
    .fil2 {fill:white}
   ]]>
  </style>
 </defs>
 <g id="Capa_x0020_1">
  <metadata id="CorelCorpID_0Corel-Layer"/>
  <g id="_2981911948272">
   <rect class="fil0" x="-0" y="-0" width="15240" height="15240"/>
   <g>
    <ellipse id="contour" class="fil1" cx="7620.01" cy="7620" rx="7200.69" ry="7200.73"/>
    <path id="contour_13" class="fil2" d="M7620.01 419.27c3133.22,0 5798.56,2001.4 6788.57,4795.34 -4686.7,1192.59 -6386.53,-6719.43 -13744.59,539.46 822.05,-3072.2 3624.58,-5334.8 6956.02,-5334.8z"/>
   </g>
   <circle class="fil0 str0" cx="7367.3" cy="4333.28" r="548.82"/>
   <circle class="fil0 str1" cx="4323.63" cy="6155.78" r="1518.57"/>
   <circle class="fil0 str1" cx="9130.53" cy="7171.15" r="1350.43"/>
   <circle class="fil0 str0" cx="6303.25" cy="10729.34" r="1076.03"/>
   <path class="fil0 str0" d="M9786.17 13122.61c-131.98,-285.78 -200.35,-596.8 -200.35,-911.58 0,-1200.58 973.29,-2173.87 2173.87,-2173.87 749.82,0 1446.68,386.39 1843.84,1022.41"/>
   <path id="contour_14" class="fil3" d="M5894.33 5886.35c36.49,-38.52 88.08,-62.6 145.12,-62.6l893.56 0c110.16,0 200,89.84 200,200l0 651.62c0,37.95 -10.66,73.49 -29.14,103.77 29.07,30.84 48.5,70.88 53.35,115.18 29.63,-17.39 64.08,-27.37 100.8,-27.37l2010.43 0c56.13,0 106.99,23.33 143.38,60.79 36.38,-37.46 87.24,-60.79 143.37,-60.79l2010.43 0c110.16,0 200,89.84 200,200l0 3944.42c0,110.16 -89.84,200 -200,200l-2010.43 0c-56.13,0 -106.99,-23.33 -143.37,-60.79 -36.39,37.46 -87.25,60.79 -143.38,60.79l-2010.43 0c-110.16,0 -200,-89.84 -200,-200l0 -686.12c0,-72.66 39.09,-136.48 97.31,-171.51 -7.79,-4.69 -15.24,-9.89 -22.29,-15.56 -34.28,61.17 -99.76,102.67 -174.63,102.67l-893.56 0c-84.63,0 -157.27,-53.03 -186.39,-127.55 -30.49,71.6 -101.61,122.01 -184.13,122.01l-2010.43 0c-110.16,0 -200,-89.84 -200,-200l0 -2952.69c0,-110.16 89.84,-200 200,-200l1037.18 0 0 -1015.27c0,-110.16 89.84,-200 200,-200l773.25 0c110.16,0 200,89.84 200,200l0 19zm-1173.36 3254.45l0 -1163.22 -63.82 0 0 1163.22 63.82 0zm3574.76 -44.23l0 -1143.5 -64.35 0 0 1143.5 64.35 0zm2297.18 0l0 -1143.49 -64.35 0 0 1143.49 64.35 0z"/>
   <path class="fil2" d="M3683.9 10035.31l2010.43 0 0 -4167.96 -773.25 0 0 1215.27 -1237.18 0 0 2952.69zm3574.12 976.06l2010.43 0 0 -3944.42 -2010.43 0 0 2915.28 1237.71 0 0 343.02 -1237.71 0 0 686.12zm1237.71 -1714.8l-464.35 0 0 -1543.5 464.35 0 0 1543.5zm1059.47 1714.8l2010.43 0 0 -3944.42 -2010.43 0 0 2915.28 1237.71 0 0 343.01 -1237.71 0 0 686.13zm1237.71 -1714.8l-464.35 0 0 -1543.49 464.35 0 0 1543.49zm-4728.06 744.28l893.56 0 0 -3124.67 -893.56 0 0 3124.67zm-25.4 -3365.48l893.56 0 0 -651.62 -893.56 0 0 651.62zm-1118.48 2665.43l-463.82 0 0 -1563.22 463.82 0 0 1563.22z"/>
   <path id="contour_15" class="fil3" d="M7620.01 364.25c4007.22,0 7255.71,3248.52 7255.71,7255.75 0,4007.22 -3248.49,7255.74 -7255.71,7255.74 -4007.22,0 -7255.7,-3248.52 -7255.7,-7255.74 0,-4007.23 3248.48,-7255.75 7255.7,-7255.75zm-0.06 985.8c3462.82,0 6270.01,2807.18 6270.01,6270 0,3462.82 -2807.19,6270.01 -6270.01,6270.01 -3462.82,0 -6270,-2807.19 -6270,-6270.01 0,-3462.82 2807.18,-6270 6270,-6270z"/>
  </g>
 </g>
</svg>
