<?xml version="1.0" encoding="UTF-8"?>
<!DOCTYPE svg PUBLIC "-//W3C//DTD SVG 1.1//EN" "http://www.w3.org/Graphics/SVG/1.1/DTD/svg11.dtd">
<!-- Creator: CorelDRAW -->
<svg xmlns="http://www.w3.org/2000/svg" xml:space="preserve" width="152.4mm" height="152.4mm" version="1.1" style="shape-rendering:geometricPrecision; text-rendering:geometricPrecision; image-rendering:optimizeQuality; fill-rule:evenodd; clip-rule:evenodd"
viewBox="0 0 15240 15240"
 xmlns:xlink="http://www.w3.org/1999/xlink"
 xmlns:xodm="http://www.corel.com/coreldraw/odm/2003">
 <defs>
  <style type="text/css">
   <![CDATA[
    .fil0 {fill:none}
    .fil3 {fill:#A84D10}
    .fil1 {fill:#B9E5FB}
    .fil2 {fill:#F4FBFE}
   ]]>
  </style>
 </defs>
 <g id="Capa_x0020_1">
  <metadata id="CorelCorpID_0Corel-Layer"/>
  <g id="_1904868847808">
   <rect class="fil0" x="-0" y="-0" width="15240" height="15240"/>
   <ellipse id="contour" class="fil1" cx="7620.01" cy="7620" rx="7200.69" ry="7200.73"/>
   <path id="contour_11" class="fil2" d="M14819.99 7563.61c0.15,18.82 0.71,37.54 0.71,56.39 0,905.35 -167.55,1771.45 -472.57,2569.6 -1045.05,312.41 -3254.25,899.61 -3259.41,1304.27 -156.6,527.17 -455,751.01 -1877.73,1023.49 -574.18,547.91 -1005.41,714.64 -1228.46,326.27 -287.71,-317.11 -1071.71,316.33 -1241.66,-1498.09 -283.72,-1082.32 -1121.47,-659.72 -2017.09,-1535.32 -1206.37,-706.68 -1445.54,528.07 -2157.26,630.48 -527.2,52.46 -1014.21,184.92 -1397.11,381.65 -479.81,-964.64 -750.09,-2051.85 -750.09,-3202.35 0,-1050.42 225.08,-2048.21 629.38,-2948.03 1069.27,11.97 1910.63,281.58 2304.94,1056.52 621.86,1131.39 1459.95,1349.86 2426.7,1024.94 2304.02,-854.09 2848.69,-947.83 3520.28,-722.11 584.22,196.36 869.88,632.31 1477.86,792.45 710.13,187.03 1100.42,-263.33 1664.11,-332.96 364.51,-44.99 790.2,108.37 1111.06,269.4 435.01,218.31 860.99,530.4 1266.34,803.4z"/>
   <path id="contour_12" class="fil3" d="M7893.62 424.96c42.29,1.58 84.56,3.26 126.67,5.56l77.72 2743.45 163.04 105.42 1200.08 -223.75 -195.68 687.84 486.23 124.52 0 -3127.86c93.46,28.92 185.92,60.08 277.7,92.66l72.48 3112.59 2036.04 -3.7 -583.34 658.96 -696.77 0 -226.85 210.65 -577.94 -118.83 -750.66 6748.7 423.67 3066.31c-158.06,48.27 -318.28,91.54 -480.74,129.05l-317.82 -2507.28 -709.43 -298.28 28.42 2962.32c-145.05,12.5 -291.22,21.06 -438.56,25l-79.68 -2987.88 -865.77 15.76 -261.83 218.19 -217.42 2650.16c-190.17,-32.93 -377.91,-72.95 -562.66,-120.48l378.76 -2787.07 -12.78 -585.14 -824.79 -6442.12 -4.82 -139.89 -848.97 82 -254.62 -197.26 -447.92 3.47 -547.14 -623.37 1194.08 11.59 30.79 -21.18 803.5 1.6 33.05 -2111.22 0 -990.8c76.03,-25.62 152.79,-49.6 229.93,-72.72l80.39 3159.42 1258.88 -322.06 -63.24 -477.79 850.18 196.74 217.82 -98.37 0 -2754.91zm6801.34 5851.13c37.24,197.2 66.72,397.14 87.64,599.64 -1284.84,706.52 -2670.9,1109.37 -4125.57,1306.43l72.33 -599.32c1496.96,-221.56 2811.88,-665.64 3965.6,-1306.75zm-192.04 3465.17c-84.34,273.97 -184.74,540.89 -299.81,799.84 -1212.07,581.98 -2527.81,887.86 -3863.93,1068.86l33.43 -594c1527.24,-226.05 2937.27,-629.49 4130.31,-1274.7zm-13524.04 666.17c-110.91,-263.93 -206.69,-535.77 -285.94,-814.59 1265.5,767.27 2791.1,1190.97 4482.68,1441.34l72.33 599.32c-1481.68,-200.72 -2948.27,-521.47 -4269.07,-1226.07zm-508.73 -3643.08c23.85,-201.37 55.5,-400.35 95.62,-596.28 1208.8,713.13 2599.83,1203.55 4198.49,1440.17l72.33 599.32c-1546.03,-209.44 -3014.55,-651.36 -4366.44,-1443.21zm7792.91 1332.81l-79.94 2637.88 79.94 279.77 599.51 93.26 366.37 -2857.7 -539.56 -119.91 -426.32 -33.3zm-1991.73 153.21l1292.29 -126.57 13.32 2871.03 -452.97 106.58 -492.93 19.98 -359.71 -2871.02zm1959.35 -4132.2l-12.98 129.76 269.24 9.73 -256.26 -139.49zm-629.31 -9.73l-9.73 142.73 -269.23 16.22 278.96 -158.95zm647.78 471.22l-51.85 2765.69 1114.92 293.86 267.92 -2973.12c-414.53,-101.67 -861.3,-122.73 -1330.99,-86.43zm-2524.62 20.29l1841.2 -9.35 22.8 2788.89c-482.89,153.97 -969.87,188.8 -1452.77,211.23l-411.23 -2990.77z"/>
   <path id="contour_13" class="fil3" d="M7620.01 364.25c4007.22,0 7255.71,3248.52 7255.71,7255.75 0,4007.22 -3248.49,7255.74 -7255.71,7255.74 -4007.22,0 -7255.7,-3248.52 -7255.7,-7255.74 0,-4007.23 3248.48,-7255.75 7255.7,-7255.75zm-0.06 985.8c3462.82,0 6270.01,2807.18 6270.01,6270 0,3462.82 -2807.19,6270.01 -6270.01,6270.01 -3462.82,0 -6270,-2807.19 -6270,-6270.01 0,-3462.82 2807.18,-6270 6270,-6270z"/>
  </g>
 </g>
</svg>
