<?xml version="1.0" encoding="UTF-8"?>
<!DOCTYPE svg PUBLIC "-//W3C//DTD SVG 1.1//EN" "http://www.w3.org/Graphics/SVG/1.1/DTD/svg11.dtd">
<!-- Creator: CorelDRAW -->
<svg xmlns="http://www.w3.org/2000/svg" xml:space="preserve" width="152.4mm" height="152.4mm" version="1.1" style="shape-rendering:geometricPrecision; text-rendering:geometricPrecision; image-rendering:optimizeQuality; fill-rule:evenodd; clip-rule:evenodd"
viewBox="0 0 15240 15240"
 xmlns:xlink="http://www.w3.org/1999/xlink"
 xmlns:xodm="http://www.corel.com/coreldraw/odm/2003">
 <defs>
  <style type="text/css">
   <![CDATA[
    .fil0 {fill:none}
    .fil2 {fill:#00B7F1}
    .fil1 {fill:#662D91}
    .fil3 {fill:#00B7F1;fill-rule:nonzero}
   ]]>
  </style>
 </defs>
 <g id="Capa_x0020_1">
  <metadata id="CorelCorpID_0Corel-Layer"/>
  <g id="_3018113187280">
   <g>
    <rect class="fil0" x="-0" y="-0" width="15240" height="15240"/>
    <ellipse id="contour" class="fil1" cx="7620.01" cy="7620" rx="7200.69" ry="7200.73"/>
    <path id="contour_160" class="fil2" d="M7620.01 364.25c4007.22,0 7255.71,3248.52 7255.71,7255.75 0,4007.22 -3248.49,7255.74 -7255.71,7255.74 -4007.22,0 -7255.7,-3248.52 -7255.7,-7255.74 0,-4007.23 3248.48,-7255.75 7255.7,-7255.75zm-0.06 985.8c3462.82,0 6270.01,2807.18 6270.01,6270 0,3462.82 -2807.19,6270.01 -6270.01,6270.01 -3462.82,0 -6270,-2807.19 -6270,-6270.01 0,-3462.82 2807.18,-6270 6270,-6270z"/>
    <path class="fil2" d="M7144.93 2888.26c-98.36,0.35 -177.79,80.35 -177.44,178.71 0.34,98.35 80.36,177.78 178.71,177.43 98.34,-0.36 177.77,-80.36 177.43,-178.71 -0.36,-98.35 -80.35,-177.79 -178.7,-177.43zm312.39 370.59c-98.36,0.35 -177.79,80.36 -177.44,178.71 0.34,98.35 80.36,177.78 178.71,177.43 98.34,-0.36 177.77,-80.35 177.43,-178.7 -0.36,-98.36 -80.35,-177.79 -178.7,-177.44zm-769.61 599.95c-98.35,0.34 -177.79,80.35 -177.45,178.7 0.36,98.34 80.36,177.78 178.71,177.43 98.35,-0.35 177.79,-80.35 177.43,-178.7 -0.34,-98.35 -80.35,-177.78 -178.69,-177.43zm365.4 -311.61c-98.35,0.36 -177.79,80.35 -177.43,178.71 0.33,98.35 80.35,177.79 178.69,177.43 98.34,-0.35 177.78,-80.35 177.44,-178.71 -0.35,-98.35 -80.35,-177.79 -178.7,-177.43zm-668.61 -46.8c-98.35,0.35 -177.79,80.36 -177.43,178.7 0.35,98.35 80.35,177.78 178.71,177.44 98.35,-0.35 177.78,-80.36 177.43,-178.7 -0.36,-98.35 -80.36,-177.79 -178.71,-177.44zm374.72 -312.44c-98.34,0.35 -177.78,80.36 -177.43,178.71 0.36,98.34 80.36,177.78 178.71,177.44 98.35,-0.36 177.79,-80.35 177.43,-178.7 -0.34,-98.36 -80.35,-177.79 -178.71,-177.45zm831.02 -836.12c-966.42,3.44 -1747.07,789.67 -1743.64,1756.09 1.46,410.82 144.45,788.01 382.53,1085.74l51.82 61.45 2645.33 -19.43 45.24 -51.77c235.96,-299.41 376.26,-677.63 374.8,-1088.44 -3.43,-966.42 -789.65,-1747.07 -1756.08,-1743.64zm-1140.22 4337.97l2270.11 5.15 162.78 -1161.05 -2589.23 -9.79 156.34 1165.69zm1860.41 5770.86l268.04 -5566.47 -2057.61 -7.31 353.35 5562.8c416.84,316.55 1145.15,207.2 1436.22,10.98z"/>
   </g>
   <circle class="fil1" cx="12587.93" cy="12575.02" r="2239.43"/>
   <path class="fil2" d="M12587.93 10282.72c1266,0 2292.3,1026.3 2292.3,2292.3 0,1266 -1026.3,2292.3 -2292.3,2292.3 -1266,0 -2292.3,-1026.3 -2292.3,-2292.3 0,-1266 1026.3,-2292.3 2292.3,-2292.3zm0 574.6c948.66,0 1717.7,769.04 1717.7,1717.7 0,948.66 -769.04,1717.7 -1717.7,1717.7 -948.66,0 -1717.7,-769.04 -1717.7,-1717.7 0,-948.66 769.04,-1717.7 1717.7,-1717.7z"/>
   <g>
    <polygon class="fil3" points="13777.34,13263.96 14096.92,13263.96 13726.36,12724.79 14081.24,12213.06 13769.5,12213.06 13571.47,12518.92 13375.41,12213.06 13055.83,12213.06 13410.7,12730.67 13042.1,13263.96 13353.84,13263.96 13565.59,12936.53 "/>
    <path class="fil3" d="M11472.1 11879.15l-394.08 117.63 62.74 247.04 239.19 -58.82 0 1076.39 298.02 0 0 -1382.24 -205.87 0zm1564.59 694.06c0,-399.97 -241.16,-707.79 -607.8,-707.79 -366.64,0 -611.72,311.74 -611.72,711.71 0,399.97 241.16,707.79 607.8,707.79 366.64,0 611.72,-311.74 611.72,-711.71zm-309.78 3.92c0,250.96 -115.68,435.26 -298.02,435.26 -182.34,0 -301.94,-186.26 -301.94,-439.18 0,-252.92 115.68,-435.26 298.02,-435.26 182.34,0 301.94,188.22 301.94,439.18z"/>
    <polygon class="fil3" points="13777.34,13263.96 14096.92,13263.96 13726.36,12724.79 14081.24,12213.06 13769.5,12213.06 13571.47,12518.92 13375.41,12213.06 13055.83,12213.06 13410.7,12730.67 13042.1,13263.96 13353.84,13263.96 13565.59,12936.53 "/>
    <path class="fil3" d="M11472.1 11879.15l-394.08 117.63 62.74 247.04 239.19 -58.82 0 1076.39 298.02 0 0 -1382.24 -205.87 0zm1575.46 694.06c0,-399.97 -241.16,-707.79 -607.8,-707.79 -366.64,0 -611.72,311.74 -611.72,711.71 0,399.97 241.16,707.79 607.8,707.79 366.64,0 611.72,-311.74 611.72,-711.71zm-309.78 3.92c0,250.96 -115.68,435.26 -298.02,435.26 -182.34,0 -301.94,-186.26 -301.94,-439.18 0,-252.92 115.68,-435.26 298.02,-435.26 182.34,0 301.94,188.22 301.94,439.18z"/>
   </g>
  </g>
 </g>
</svg>
