<?xml version="1.0" encoding="UTF-8"?>
<!DOCTYPE svg PUBLIC "-//W3C//DTD SVG 1.1//EN" "http://www.w3.org/Graphics/SVG/1.1/DTD/svg11.dtd">
<!-- Creator: CorelDRAW -->
<svg xmlns="http://www.w3.org/2000/svg" xml:space="preserve" width="152.4mm" height="152.4mm" version="1.1" style="shape-rendering:geometricPrecision; text-rendering:geometricPrecision; image-rendering:optimizeQuality; fill-rule:evenodd; clip-rule:evenodd"
viewBox="0 0 15240 15240"
 xmlns:xlink="http://www.w3.org/1999/xlink"
 xmlns:xodm="http://www.corel.com/coreldraw/odm/2003">
 <defs>
  <style type="text/css">
   <![CDATA[
    .fil0 {fill:none}
    .fil2 {fill:#00B7F1}
    .fil1 {fill:#662D91}
   ]]>
  </style>
 </defs>
 <g id="Capa_x0020_1">
  <metadata id="CorelCorpID_0Corel-Layer"/>
  <g id="_3018194032480">
   <rect class="fil0" x="-0" y="-0" width="15240" height="15240"/>
   <ellipse id="contour" class="fil1" cx="7620.01" cy="7620" rx="7200.69" ry="7200.73"/>
   <path id="contour_159" class="fil2" d="M7620.01 364.25c4007.22,0 7255.71,3248.52 7255.71,7255.75 0,4007.22 -3248.49,7255.74 -7255.71,7255.74 -4007.22,0 -7255.7,-3248.52 -7255.7,-7255.74 0,-4007.23 3248.48,-7255.75 7255.7,-7255.75zm-0.06 985.8c3462.82,0 6270.01,2807.18 6270.01,6270 0,3462.82 -2807.19,6270.01 -6270.01,6270.01 -3462.82,0 -6270,-2807.19 -6270,-6270.01 0,-3462.82 2807.18,-6270 6270,-6270z"/>
   <path class="fil2" d="M7144.93 2888.26c-98.36,0.35 -177.79,80.35 -177.44,178.71 0.34,98.35 80.36,177.78 178.71,177.43 98.34,-0.36 177.77,-80.36 177.43,-178.71 -0.36,-98.35 -80.35,-177.79 -178.7,-177.43zm312.39 370.59c-98.36,0.35 -177.79,80.36 -177.44,178.71 0.34,98.35 80.36,177.78 178.71,177.43 98.34,-0.36 177.77,-80.35 177.43,-178.7 -0.36,-98.36 -80.35,-177.79 -178.7,-177.44zm-769.61 599.95c-98.35,0.34 -177.79,80.35 -177.45,178.7 0.36,98.34 80.36,177.78 178.71,177.43 98.35,-0.35 177.79,-80.35 177.43,-178.7 -0.34,-98.35 -80.35,-177.78 -178.69,-177.43zm365.4 -311.61c-98.35,0.36 -177.79,80.35 -177.43,178.71 0.33,98.35 80.35,177.79 178.69,177.43 98.34,-0.35 177.78,-80.35 177.44,-178.71 -0.35,-98.35 -80.35,-177.79 -178.7,-177.43zm-668.61 -46.8c-98.35,0.35 -177.79,80.36 -177.43,178.7 0.35,98.35 80.35,177.78 178.71,177.44 98.35,-0.35 177.78,-80.36 177.43,-178.7 -0.36,-98.35 -80.36,-177.79 -178.71,-177.44zm374.72 -312.44c-98.34,0.35 -177.78,80.36 -177.43,178.71 0.36,98.34 80.36,177.78 178.71,177.44 98.35,-0.36 177.79,-80.35 177.43,-178.7 -0.34,-98.36 -80.35,-177.79 -178.71,-177.45zm831.02 -836.12c-966.42,3.44 -1747.07,789.67 -1743.64,1756.09 1.46,410.82 144.45,788.01 382.53,1085.74l51.82 61.45 2645.33 -19.43 45.24 -51.77c235.96,-299.41 376.26,-677.63 374.8,-1088.44 -3.43,-966.42 -789.65,-1747.07 -1756.08,-1743.64zm-1140.22 4337.97l2270.11 5.15 162.78 -1161.05 -2589.23 -9.79 156.34 1165.69zm1860.41 5770.86l268.04 -5566.47 -2057.61 -7.31 353.35 5562.8c416.84,316.55 1145.15,207.2 1436.22,10.98z"/>
  </g>
 </g>
</svg>
