<?xml version="1.0" encoding="UTF-8"?>
<!DOCTYPE svg PUBLIC "-//W3C//DTD SVG 1.1//EN" "http://www.w3.org/Graphics/SVG/1.1/DTD/svg11.dtd">
<!-- Creator: CorelDRAW -->
<svg xmlns="http://www.w3.org/2000/svg" xml:space="preserve" width="152.4mm" height="152.4mm" version="1.1" style="shape-rendering:geometricPrecision; text-rendering:geometricPrecision; image-rendering:optimizeQuality; fill-rule:evenodd; clip-rule:evenodd"
viewBox="0 0 15240 15240"
 xmlns:xlink="http://www.w3.org/1999/xlink"
 xmlns:xodm="http://www.corel.com/coreldraw/odm/2003">
 <defs>
  <style type="text/css">
   <![CDATA[
    .fil0 {fill:none}
    .fil3 {fill:#6CBD45}
    .fil2 {fill:#6D9C43}
    .fil1 {fill:#E7E614}
    .fil4 {fill:white}
    .fil5 {fill:#6D9C43;fill-rule:nonzero}
   ]]>
  </style>
 </defs>
 <g id="Capa_x0020_1">
  <metadata id="CorelCorpID_0Corel-Layer"/>
  <g id="_2981673675728">
   <rect class="fil0" x="-0" y="-0" width="15240" height="15240"/>
   <g>
    <ellipse id="contour" class="fil1" cx="7620.01" cy="7620" rx="7200.69" ry="7200.73"/>
    <path id="contour_50" class="fil2" d="M7620.01 419.27c3976.84,0 7200.69,3223.88 7200.69,7200.73 0,3976.84 -3223.85,7200.73 -7200.69,7200.73 -3976.84,0 -7200.69,-3223.89 -7200.69,-7200.73 0,-3976.85 3223.85,-7200.73 7200.69,-7200.73zm-0.06 978.32c3436.56,0 6222.47,2785.9 6222.47,6222.46 0,3436.56 -2785.91,6222.47 -6222.47,6222.47 -3436.56,0 -6222.46,-2785.91 -6222.46,-6222.47 0,-3436.56 2785.9,-6222.46 6222.46,-6222.46z"/>
    <path class="fil2" d="M2951.04 7197.82l83.32 449.45 -142.45 427.35 1047.6 591.82 -1076.09 -466.47 -28.49 307.68 136.75 136.74 -167.82 433.56 281.78 20.21 -0.01 172.99 1466.65 691.11 -1470.08 -565.78 177.83 760.17 3204.71 1520.3c3402.16,-2614.43 5476.91,-4520.61 6057.68,-5563.1l-155.53 -38.87 55.8 -269.6 -142.04 -22.15 -265.24 214.96 259.92 -314.35 -207.66 -957.92 -2802.85 -762.33c-604.4,1214.46 -3002.88,2265.81 -6313.78,3234.23z"/>
    <path class="fil3" d="M2951.04 7197.82c3310.9,-968.42 5709.38,-2019.77 6313.78,-3234.23l2802.85 762.33c-937.94,1216.71 -1902.76,2491.32 -5488.91,4243.64l-3627.72 -1771.74z"/>
    <path class="fil4" d="M9275.51 9593.56c579.08,-486.29 1071.65,-968.2 1505.42,-1373.53l-27.6 -1706.02 -2863.18 -1258.35c-517.23,314.23 -1153.03,617.68 -1887.38,912.16l3238.7 1293.21 34.04 2132.53z"/>
    <path class="fil5" d="M8479.93 6881.02c51.23,-62.13 123.31,-165.25 176.56,-229.85 143.34,58.46 241.72,98.62 392.98,-10.33l-458.45 -220.1c-15.23,8.23 -31.24,16.93 -48.04,26.1 -73.21,39.95 -139.88,70.44 -200.09,91.69 -59.38,20.98 -113.16,32.99 -161.26,36.48 -132.74,9.64 -253.28,-17.39 -363.44,-80.7 -70.14,-40.29 -124.4,-90.91 -162.23,-151.49 -38,-60.87 -51.37,-125.43 -40.45,-194.28 8.38,-52.76 31.11,-106.9 68.9,-163.06l-142.44 -79.04c21.22,-23.38 50.01,-55.56 71.48,-79.2l128.4 84.24c48.04,-54.8 99.75,-99.56 154.86,-134.1 62.27,-39.02 129.23,-64.81 200.35,-76.86 145.78,-24.75 294.55,-1.1 445.92,72.23 -65.46,76.53 -129.56,151.41 -192.22,224.66 -87.68,-33.53 -161.38,-44.62 -221.53,-33.76 -47.1,8.51 -91.33,31.62 -132.49,68.99l352.69 167.66c63.23,-38.3 121.87,-70.89 175.39,-97.5 55.57,-27.63 105.71,-48.74 149.9,-63.07 90.25,-29.24 185.53,-41.2 286.49,-31.93 423.71,38.88 573.45,394.46 384.92,629.1l229.2 115.39c-27.31,23.84 -46.57,63.2 -73.57,86.77l-202.77 -92.44c-169.53,254.94 -464.21,246.88 -819.06,134.4zm638.72 -315.09c164.33,-243.55 -272.35,-403.3 -422.61,-200.88l422.61 200.88zm-1184.8 -460.69c-28.19,42.56 -39.68,83.13 -34.74,121.87 19.28,151.65 334.06,129.33 396.93,50.25l-362.19 -172.12z"/>
   </g>
  </g>
 </g>
</svg>
