<?xml version="1.0" encoding="UTF-8"?>
<!DOCTYPE svg PUBLIC "-//W3C//DTD SVG 1.1//EN" "http://www.w3.org/Graphics/SVG/1.1/DTD/svg11.dtd">
<!-- Creator: CorelDRAW -->
<svg xmlns="http://www.w3.org/2000/svg" xml:space="preserve" width="152.4mm" height="152.4mm" version="1.1" style="shape-rendering:geometricPrecision; text-rendering:geometricPrecision; image-rendering:optimizeQuality; fill-rule:evenodd; clip-rule:evenodd"
viewBox="0 0 15240 15240"
 xmlns:xlink="http://www.w3.org/1999/xlink"
 xmlns:xodm="http://www.corel.com/coreldraw/odm/2003">
 <defs>
  <style type="text/css">
   <![CDATA[
    .fil0 {fill:none}
    .fil3 {fill:#6CBD45}
    .fil2 {fill:#6D9C43}
    .fil1 {fill:#E7E614}
    .fil4 {fill:white}
    .fil5 {fill:#6D9C43;fill-rule:nonzero}
   ]]>
  </style>
 </defs>
 <g id="Capa_x0020_1">
  <metadata id="CorelCorpID_0Corel-Layer"/>
  <g id="_2981914856480">
   <rect class="fil0" x="-0" y="-0" width="15240" height="15240"/>
   <path class="fil1" d="M5302.97 620.06c602.29,-87.67 1258.56,-139.78 1925.26,-155.94l0 -2.44c130.23,-2.33 260.7,-3.31 391.1,-2.91l1.35 0c130.4,-0.4 260.88,0.57 391.1,2.91l0 2.44c666.7,16.16 1322.97,68.27 1925.26,155.94 1168.23,170.04 2034.35,454.91 2991.98,961.24 375,198.28 624.47,507.53 738.86,916.01 546.7,1952.26 593.62,4475.73 -355.27,6693.43 -1022.72,2390.25 -2931.53,4171.57 -5219.41,5347.67l-81.42 41.85 0 0.18 -19.03 9.6 -369.3 189.85 -3.43 1.43 -3.46 -1.43 -369.29 -189.85 -19.04 -9.6 0 -0.18 -81.42 -41.85c-2287.88,-1176.1 -4196.69,-2957.42 -5219.4,-5347.67 -948.9,-2217.7 -901.98,-4741.17 -355.27,-6693.43 114.39,-408.48 363.85,-717.73 738.85,-916.01 957.63,-506.33 1823.76,-791.2 2991.98,-961.24z"/>
   <path class="fil2" d="M5272.5 527.99c610.21,-88.82 1275.11,-141.62 1950.58,-157.99l0 -2.47c131.94,-2.36 264.13,-3.35 396.24,-2.95l1.37 0c132.12,-0.4 264.31,0.58 396.24,2.95l0 2.47c675.47,16.37 1340.37,69.17 1950.59,157.99 1183.59,172.28 2061.1,460.89 3031.33,973.89 379.93,200.88 632.68,514.2 748.57,928.05 553.9,1977.94 601.43,4534.6 -359.94,6781.46 -1036.17,2421.7 -2970.08,4226.45 -5288.06,5418.02l-82.49 42.4 0 0.18 -19.28 9.73 -374.16 192.34 -3.47 1.45 -3.5 -1.45 -374.16 -192.34 -19.28 -9.73 0 -0.18 -82.49 -42.4c-2317.98,-1191.57 -4251.89,-2996.32 -5288.05,-5418.02 -961.38,-2246.86 -913.85,-4803.52 -359.95,-6781.46 115.9,-413.85 368.64,-727.17 748.58,-928.05 970.22,-513 1847.74,-801.61 3031.33,-973.89zm151.33 1039.69c-1063.03,154.73 -2023.76,454.89 -2852.19,943.01 -1334,4290.73 309.12,8747.6 5049.28,11184.3 4789.49,-2416.98 6493.14,-6893.57 5159.14,-11184.3 -810,-477.25 -1746.44,-774.83 -2781.36,-932.47 -1360.59,-207.25 -3211.6,-208.97 -4574.87,-10.54z"/>
   <path class="fil2" d="M3554.73 6335.09l76.87 414.73 -131.43 394.34 966.67 546.1 -992.97 -430.43 -26.29 283.91 126.19 126.18 -154.86 400.07 260.02 18.65 -0.01 159.63 1353.36 637.73 -1356.53 -522.09 164.1 701.46 2957.16 1402.87c3139.37,-2412.49 5053.86,-4171.42 5589.77,-5133.39l-143.52 -35.86 51.49 -248.78 -131.07 -20.44 -244.75 198.35 239.84 -290.06 -191.62 -883.93 -2586.34 -703.45c-557.72,1120.65 -2770.94,2090.8 -5826.08,2984.41z"/>
   <path class="fil3" d="M3554.73 6335.09c3055.14,-893.61 5268.36,-1863.76 5826.08,-2984.41l2586.34 703.45c-865.48,1122.72 -1755.78,2298.88 -5064.93,3915.84l-3347.49 -1634.88z"/>
   <path class="fil4" d="M9390.67 8545.78c534.35,-448.74 988.87,-893.42 1389.13,-1267.44l-25.46 -1574.24 -2642.02 -1161.15c-477.28,289.96 -1063.97,569.97 -1741.6,841.71l2988.54 1193.31 31.41 1967.81z"/>
   <path class="fil5" d="M8656.54 6042.76c47.27,-57.33 113.79,-152.49 162.93,-212.09 132.26,53.94 223.05,91 362.62,-9.54l-423.04 -203.09c-14.05,7.59 -28.83,15.62 -44.33,24.08 -67.55,36.86 -129.08,65 -184.63,84.61 -54.79,19.36 -104.42,30.44 -148.81,33.66 -122.48,8.89 -233.71,-16.05 -335.37,-74.47 -64.71,-37.18 -114.79,-83.89 -149.7,-139.79 -35.06,-56.16 -47.39,-115.74 -37.31,-179.27 7.73,-48.69 28.7,-98.64 63.57,-150.47l-131.44 -72.93c19.59,-21.57 46.15,-51.27 65.96,-73.08l118.48 77.73c44.34,-50.56 92.05,-91.86 142.9,-123.74 57.46,-36.01 119.25,-59.8 184.87,-70.93 134.53,-22.83 271.81,-1 411.48,66.66 -60.4,70.61 -119.55,139.71 -177.37,207.3 -80.91,-30.93 -148.91,-41.17 -204.42,-31.14 -43.46,7.84 -84.28,29.17 -122.25,63.65l325.44 154.71c58.35,-35.34 112.46,-65.41 161.84,-89.97 51.28,-25.49 97.55,-44.97 138.33,-58.19 83.28,-26.99 171.2,-38.02 264.36,-29.47 390.97,35.88 529.15,364 355.19,580.51l211.49 106.47c-25.2,22 -42.98,58.32 -67.88,80.07l-187.11 -85.3c-156.44,235.25 -428.36,227.81 -755.8,124.02zm589.39 -290.75c151.64,-224.73 -251.32,-372.14 -389.97,-185.37l389.97 185.37zm-1093.28 -425.1c-26.02,39.27 -36.63,76.7 -32.06,112.45 17.79,139.94 308.25,119.34 366.27,46.37l-334.21 -158.82z"/>
  </g>
 </g>
</svg>
