<?xml version="1.0" encoding="UTF-8"?>
<!DOCTYPE svg PUBLIC "-//W3C//DTD SVG 1.1//EN" "http://www.w3.org/Graphics/SVG/1.1/DTD/svg11.dtd">
<!-- Creator: CorelDRAW -->
<svg xmlns="http://www.w3.org/2000/svg" xml:space="preserve" width="152.4mm" height="152.4mm" version="1.1" style="shape-rendering:geometricPrecision; text-rendering:geometricPrecision; image-rendering:optimizeQuality; fill-rule:evenodd; clip-rule:evenodd"
viewBox="0 0 15240 15240"
 xmlns:xlink="http://www.w3.org/1999/xlink"
 xmlns:xodm="http://www.corel.com/coreldraw/odm/2003">
 <defs>
  <style type="text/css">
   <![CDATA[
    .fil5 {fill:none}
    .fil2 {fill:#6CBD45}
    .fil1 {fill:#6D9C43}
    .fil0 {fill:#E7E614}
    .fil3 {fill:white}
    .fil4 {fill:#6D9C43;fill-rule:nonzero}
   ]]>
  </style>
 </defs>
 <g id="Capa_x0020_1">
  <metadata id="CorelCorpID_0Corel-Layer"/>
  <g id="_1788488710576">
   <g>
    <ellipse id="contour" class="fil0" cx="7620.01" cy="7620" rx="7255.7" ry="7255.74"/>
    <path id="contour_19" class="fil1" d="M7620.01 364.25c4007.22,0 7255.71,3248.52 7255.71,7255.75 0,4007.22 -3248.49,7255.74 -7255.71,7255.74 -4007.22,0 -7255.7,-3248.52 -7255.7,-7255.74 0,-4007.23 3248.48,-7255.75 7255.7,-7255.75zm-0.06 985.8c3462.82,0 6270.01,2807.18 6270.01,6270 0,3462.82 -2807.19,6270.01 -6270.01,6270.01 -3462.82,0 -6270,-2807.19 -6270,-6270.01 0,-3462.82 2807.18,-6270 6270,-6270z"/>
    <path class="fil1" d="M2915.37 7194.59l83.95 452.89 -143.53 430.61 1055.6 596.34 -1084.31 -470.03 -28.71 310.03 137.8 137.79 -169.11 436.87 283.94 20.36 -0.01 174.32 1477.85 696.39 -1481.31 -570.11 179.19 765.98 3229.19 1531.92c3428.16,-2634.41 5518.76,-4555.15 6103.97,-5605.61l-156.72 -39.16 56.22 -271.66 -143.12 -22.32 -267.27 216.6 261.91 -316.75 -209.25 -965.24 -2824.26 -768.16c-609.02,1223.74 -3025.83,2283.13 -6362.02,3258.94z"/>
    <path class="fil2" d="M2915.37 7194.59c3336.19,-975.81 5753,-2035.2 6362.02,-3258.94l2824.26 768.16c-945.1,1226 -1917.3,2510.35 -5530.85,4276.06l-3655.43 -1785.28z"/>
    <path class="fil3" d="M9288.16 9608.64c583.5,-490.01 1079.84,-975.6 1516.92,-1384.03l-27.81 -1719.05 -2885.06 -1267.96c-521.18,316.63 -1161.84,622.4 -1901.8,919.13l3263.45 1303.09 34.3 2148.82z"/>
    <path class="fil4" d="M8486.5 6875.37c51.62,-62.6 124.25,-166.51 177.91,-231.6 144.43,58.9 243.57,99.37 395.98,-10.41l-461.95 -221.78c-15.35,8.29 -31.48,17.06 -48.41,26.3 -73.77,40.25 -140.95,70.98 -201.62,92.39 -59.83,21.14 -114.02,33.24 -162.49,36.76 -133.75,9.71 -255.21,-17.53 -366.22,-81.32 -70.67,-40.6 -125.35,-91.61 -163.47,-152.65 -38.29,-61.33 -51.76,-126.39 -40.75,-195.76 8.44,-53.17 31.34,-107.72 69.42,-164.31l-143.53 -79.64c21.39,-23.56 50.4,-55.99 72.03,-79.81l129.38 84.89c48.41,-55.22 100.51,-100.32 156.04,-135.13 62.75,-39.32 130.22,-65.3 201.88,-77.45 146.9,-24.93 296.81,-1.1 449.33,72.79 -65.96,77.11 -130.55,152.56 -193.69,226.37 -88.35,-33.78 -162.61,-44.96 -223.22,-34.01 -47.46,8.57 -92.03,31.86 -133.5,69.51l355.38 168.94c63.72,-38.59 122.8,-71.43 176.73,-98.24 56,-27.84 106.52,-49.11 151.05,-63.55 90.94,-29.47 186.95,-41.52 288.68,-32.18 426.94,39.18 577.83,397.48 387.86,633.91l230.95 116.27c-27.52,24.02 -46.93,63.68 -74.13,87.43l-204.32 -93.14c-170.83,256.88 -467.76,248.76 -825.32,135.42zm643.6 -317.49c165.59,-245.41 -274.43,-406.38 -425.84,-202.42l425.84 202.42zm-1193.85 -464.21c-28.41,42.88 -39.99,83.76 -35.01,122.8 19.43,152.81 336.61,130.32 399.97,50.63l-364.96 -173.43z"/>
   </g>
   <rect class="fil5" x="-0" y="-0" width="15240" height="15240"/>
  </g>
 </g>
</svg>
