<?xml version="1.0" encoding="UTF-8"?>
<!DOCTYPE svg PUBLIC "-//W3C//DTD SVG 1.1//EN" "http://www.w3.org/Graphics/SVG/1.1/DTD/svg11.dtd">
<!-- Creator: CorelDRAW -->
<svg xmlns="http://www.w3.org/2000/svg" xml:space="preserve" width="152.4mm" height="152.4mm" version="1.1" style="shape-rendering:geometricPrecision; text-rendering:geometricPrecision; image-rendering:optimizeQuality; fill-rule:evenodd; clip-rule:evenodd"
viewBox="0 0 15240 15240"
 xmlns:xlink="http://www.w3.org/1999/xlink"
 xmlns:xodm="http://www.corel.com/coreldraw/odm/2003">
 <defs>
  <style type="text/css">
   <![CDATA[
    .fil0 {fill:none}
    .fil1 {fill:#8CC63F}
    .fil2 {fill:#EC008C}
   ]]>
  </style>
 </defs>
 <g id="Capa_x0020_1">
  <metadata id="CorelCorpID_0Corel-Layer"/>
  <g id="_2981912527216">
   <rect class="fil0" x="-0" y="-0" width="15240" height="15240"/>
   <ellipse id="contour" class="fil1" cx="7620.01" cy="7620" rx="7200.69" ry="7200.73"/>
   <path id="contour_25" class="fil2" d="M7620.01 364.25c4007.22,0 7255.71,3248.52 7255.71,7255.75 0,4007.22 -3248.49,7255.74 -7255.71,7255.74 -4007.22,0 -7255.7,-3248.52 -7255.7,-7255.74 0,-4007.23 3248.48,-7255.75 7255.7,-7255.75zm-0.06 985.8c3462.82,0 6270.01,2807.18 6270.01,6270 0,3462.82 -2807.19,6270.01 -6270.01,6270.01 -3462.82,0 -6270,-2807.19 -6270,-6270.01 0,-3462.82 2807.18,-6270 6270,-6270z"/>
   <path id="contour_26" class="fil2" d="M10507.24 14278c-884.86,384.25 -1861.04,597.74 -2887.23,597.74 -1045.08,0 -2038.33,-221.35 -2936.03,-619.09l-19.31 -6442.65 -1481.8 -90.31 -0.78 -2378.04 3067.54 -644.95 -353.25 -840.58c-38.61,-91.89 -90.88,-241.78 89.5,-200.05l1059.11 245.06 560.04 2233.7 19.02 0 19.39 0 19.02 0 560.04 -2233.7 1059.11 -245.06c180.38,-41.73 128.11,108.16 89.5,200.05l-353.25 840.58 2991.34 644.95 -0.78 2378.04 -1481.8 90.31 -19.38 6464zm1941.3 -8878.96l-198.03 -32.14 0 2302.56 198.03 -32.14c66.75,-10.84 114.97,-67.45 114.97,-135.13l0 -1968.02c0,-67.68 -48.17,-124.29 -114.97,-135.13zm-9705.79 0l198.03 -32.14 0 2302.56 -198.03 -32.14c-66.8,-10.84 -114.97,-67.45 -114.97,-135.13l0 -1968.02c0,-67.68 48.17,-124.29 114.97,-135.13z"/>
  </g>
 </g>
</svg>
