<?xml version="1.0" encoding="UTF-8"?>
<!DOCTYPE svg PUBLIC "-//W3C//DTD SVG 1.1//EN" "http://www.w3.org/Graphics/SVG/1.1/DTD/svg11.dtd">
<!-- Creator: CorelDRAW -->
<svg xmlns="http://www.w3.org/2000/svg" xml:space="preserve" width="152.4mm" height="152.4mm" version="1.1" style="shape-rendering:geometricPrecision; text-rendering:geometricPrecision; image-rendering:optimizeQuality; fill-rule:evenodd; clip-rule:evenodd"
viewBox="0 0 15240 15240"
 xmlns:xlink="http://www.w3.org/1999/xlink"
 xmlns:xodm="http://www.corel.com/coreldraw/odm/2003">
 <defs>
  <style type="text/css">
   <![CDATA[
    .fil0 {fill:none}
    .fil1 {fill:#F2F082}
    .fil2 {fill:#F47521}
   ]]>
  </style>
 </defs>
 <g id="Capa_x0020_1">
  <metadata id="CorelCorpID_0Corel-Layer"/>
  <g id="_2154410925536">
   <rect class="fil0" x="-0" y="-0" width="15240" height="15240"/>
   <ellipse id="contour" class="fil1" cx="7620.01" cy="7620" rx="7200.69" ry="7200.73"/>
   <path id="contour_1" class="fil2" d="M11513.14 13678.39c-1122.5,722.82 -2458.79,1142.33 -3893.13,1142.33 -1432.21,0 -2766.7,-418.2 -3888.17,-1139.06l0 -8199.78c0,-670.56 548.64,-1219.2 1219.2,-1219.2l4209.06 0 0 -1488.82c0,-283.84 232.23,-516.07 516.07,-516.07 283.84,0 516.07,232.23 516.07,516.07l0 1488.82 101.7 0c670.56,0 1219.2,548.64 1219.2,1219.2l0 8196.51zm-6184.89 -7271.77c85.48,-5.34 159.61,21.37 222.39,80.14 62.78,58.77 94.17,130.9 94.17,216.38 0,90.83 -32.06,162.95 -96.17,216.38 -64.11,53.43 -134.91,80.14 -212.38,80.14 -42.74,0 -84.14,-8.01 -124.21,-24.04 -40.07,-16.03 -76.14,-42.08 -108.19,-78.14 -32.06,-36.06 -57.44,-81.48 -76.14,-136.24 -18.7,-54.76 -28.05,-120.88 -28.05,-198.35 0,-109.52 18.04,-209.7 54.1,-300.52 36.06,-90.83 80.14,-168.3 132.23,-232.41 52.09,-64.12 107.52,-114.2 166.29,-150.27 58.77,-36.06 109.53,-54.09 152.27,-54.09 45.41,0 78.81,14.69 100.18,44.08 21.37,29.38 32.05,58.77 32.05,88.15 0,29.38 -8.01,54.76 -24.04,76.13 -16.03,21.37 -34.73,38.74 -56.1,52.1 -18.7,10.68 -40.74,24.04 -66.11,40.07 -25.38,16.02 -49.42,36.73 -72.13,62.1 -22.71,25.38 -42.74,55.44 -60.11,90.16 -17.36,34.73 -27.38,77.47 -30.05,128.23zm3494.69 -192.33c-77.47,0 -144.26,17.36 -200.36,52.09 -56.09,34.73 -102.18,79.47 -138.24,134.23 -36.06,54.77 -62.78,116.88 -80.14,186.33 -17.36,69.46 -26.05,140.25 -26.05,212.37 0,189.67 44.75,331.92 134.24,426.75 89.49,94.84 194.34,142.25 314.55,142.25 40.07,0 88.16,-8.68 144.26,-26.04 56.1,-17.37 108.85,-46.75 158.27,-88.16 49.42,-41.4 91.5,-96.83 126.23,-166.29 34.72,-69.45 52.09,-156.27 52.09,-260.46 0,-72.12 -10.69,-144.25 -32.06,-216.38 -21.37,-72.12 -52.09,-137.57 -92.16,-196.34 -40.07,-58.77 -90.16,-106.86 -150.26,-144.25 -60.11,-37.4 -130.23,-56.1 -210.37,-56.1zm528.93 1214.13c-85.49,101.51 -180.32,178.31 -284.5,230.4 -104.19,52.1 -224.4,78.14 -360.64,78.14 -133.57,0 -253.78,-26.04 -360.63,-78.14 -106.86,-52.09 -197.68,-121.54 -272.48,-208.36 -74.8,-86.82 -131.56,-185.66 -170.3,-296.52 -38.73,-110.86 -58.1,-226.4 -58.1,-346.61 0,-125.56 21.37,-247.1 64.11,-364.64 42.74,-117.54 106.19,-221.72 190.34,-312.55 84.14,-90.83 188.33,-163.62 312.54,-218.38 124.22,-54.77 266.47,-82.15 426.75,-82.15 333.92,0 593.05,120.21 777.37,360.63 184.32,240.43 276.49,581.03 276.49,1021.8 0,45.41 -2.01,114.87 -6.01,208.37 -4.01,93.49 -16.03,195.67 -36.07,306.53 -20.03,110.87 -49.42,224.4 -88.15,340.6 -38.74,116.21 -94.17,219.72 -166.3,310.55 -96.16,128.22 -214.37,224.39 -354.62,288.51 -140.24,64.11 -287.84,96.16 -442.78,96.16 -165.62,0 -302.53,-24.71 -410.72,-74.13 -108.19,-49.42 -193.67,-108.19 -256.45,-176.31 -62.78,-68.12 -106.85,-136.9 -132.23,-206.36 -25.38,-69.45 -38.07,-124.22 -38.07,-164.29 0,-45.41 18.7,-91.49 56.1,-138.24 37.4,-46.75 89.49,-70.12 156.28,-70.12 40.07,0 74.79,6.68 104.18,20.03 29.38,13.36 54.09,29.39 74.13,48.09 20.03,18.7 36.06,40.07 48.08,64.11 12.02,24.04 23.38,45.41 34.06,64.11 10.69,24.04 25.38,50.76 44.08,80.14 18.7,29.39 42.07,56.1 70.12,80.14 28.05,24.05 62.78,44.75 104.19,62.11 41.4,17.37 91.49,26.05 150.26,26.05 29.39,0 64.11,-4.01 104.18,-12.02 40.07,-8.02 80.81,-24.04 122.22,-48.09 41.4,-24.04 81.48,-58.77 120.21,-104.18 38.73,-45.41 72.79,-105.52 102.18,-180.32 18.7,-50.75 34.06,-104.18 46.08,-160.28 12.02,-56.1 22.04,-111.53 30.05,-166.29 8.02,-54.76 13.36,-106.85 16.03,-156.28 2.67,-49.42 5.34,-90.15 8.02,-122.21zm-2147.53 -156.27c0,-162.96 -6.68,-309.21 -20.03,-438.78 -13.36,-129.56 -38.07,-239.08 -74.13,-328.57 -36.07,-89.49 -84.15,-158.28 -144.26,-206.37 -60.1,-48.08 -135.57,-72.12 -226.4,-72.12 -101.51,0 -182.32,28.72 -242.42,86.15 -60.11,57.43 -106.19,135.57 -138.24,234.41 -32.06,98.84 -53.43,212.37 -64.12,340.6 -10.68,128.22 -16.03,261.79 -16.03,400.7 0,144.26 5.35,281.16 16.03,410.73 10.69,129.56 32.06,243.76 64.12,342.6 32.05,98.84 78.13,177.64 138.24,236.41 60.1,58.77 140.91,88.16 242.42,88.16 98.84,0 178.98,-27.38 240.43,-82.15 61.44,-54.76 108.85,-131.56 142.25,-230.4 33.39,-98.84 55.43,-214.38 66.11,-346.61 10.69,-132.23 16.03,-277.15 16.03,-434.76zm540.95 36.06c0,165.62 -11.35,334.59 -34.06,506.89 -22.71,172.3 -72.79,326.57 -150.26,462.81 -85.49,152.27 -199.02,271.15 -340.6,356.63 -141.58,85.48 -299.19,128.22 -472.83,128.22 -56.1,0 -124.22,-7.34 -204.36,-22.03 -80.14,-14.7 -161.62,-45.42 -244.43,-92.17 -82.81,-46.74 -163.62,-112.19 -242.43,-196.34 -78.8,-84.15 -146.25,-197.01 -202.35,-338.6 -40.07,-101.51 -69.46,-223.05 -88.16,-364.64 -18.7,-141.58 -28.05,-284.5 -28.05,-428.75 0,-72.13 2.01,-159.61 6.01,-262.46 4.01,-102.85 16.03,-209.7 36.07,-320.56 20.03,-110.87 50.75,-220.39 92.16,-328.58 41.41,-108.19 98.84,-205.03 172.3,-290.51 73.46,-85.49 166.96,-154.94 280.5,-208.37 113.53,-53.43 251.77,-80.14 414.72,-80.14 104.19,0 196.35,12.02 276.49,36.06 80.14,24.05 149.6,53.43 208.37,88.16 58.77,34.73 107.52,72.13 146.25,112.2 38.74,40.07 70.13,74.79 94.17,104.18 37.4,48.08 72.79,102.18 106.18,162.28 33.4,60.11 63.45,134.24 90.16,222.4 26.72,88.15 47.42,193 62.11,314.55 14.69,121.54 22.04,267.8 22.04,438.77zm-2995.51 -1859.05l5713.15 0 0 3766.63 -5713.15 0 0 -3766.63zm435.58 4420.13l736.97 0c209.55,0 381,171.45 381,381l0 545.87c0,209.55 -171.45,381 -381,381l-736.97 0c-209.55,0 -381,-171.45 -381,-381l0 -545.87c0,-209.55 171.45,-381 381,-381zm2121.36 0c245.66,0 491.32,0 736.97,0 209.55,0 381,171.45 381,381 0,181.95 0,363.91 0,545.87 0,209.55 -171.45,381 -381,381 -245.65,0 -491.31,0 -736.97,0 -209.55,0 -381,-171.45 -381,-381 0,-181.96 0,-363.92 0,-545.87 0,-209.55 171.45,-381 381,-381zm2121.36 0l736.97 0c209.55,0 381,171.45 381,381l0 545.87c0,209.55 -171.45,381 -381,381l-736.97 0c-209.55,0 -381,-171.45 -381,-381l0 -545.87c0,-209.55 171.45,-381 381,-381zm-4242.72 1654.66l736.97 0c209.55,0 381,171.45 381,381l0 545.87c0,209.55 -171.45,381 -381,381l-736.97 0c-209.55,0 -381,-171.45 -381,-381l0 -545.87c0,-209.55 171.45,-381 381,-381zm2121.36 0c245.66,0 491.32,0 736.97,0 209.55,0 381,171.45 381,381 0,181.95 0,363.91 0,545.87 0,209.55 -171.45,381 -381,381 -245.65,0 -491.31,0 -736.97,0 -209.55,0 -381,-171.45 -381,-381 0,-181.96 0,-363.92 0,-545.87 0,-209.55 171.45,-381 381,-381zm2121.36 0l736.97 0c209.55,0 381,171.45 381,381l0 545.87c0,209.55 -171.45,381 -381,381l-736.97 0c-209.55,0 -381,-171.45 -381,-381l0 -545.87c0,-209.55 171.45,-381 381,-381z"/>
   <path id="contour_2" class="fil2" d="M7620.01 364.25c4007.22,0 7255.71,3248.52 7255.71,7255.75 0,4007.22 -3248.49,7255.74 -7255.71,7255.74 -4007.22,0 -7255.7,-3248.52 -7255.7,-7255.74 0,-4007.23 3248.48,-7255.75 7255.7,-7255.75zm-0.06 985.8c3462.82,0 6270.01,2807.18 6270.01,6270 0,3462.82 -2807.19,6270.01 -6270.01,6270.01 -3462.82,0 -6270,-2807.19 -6270,-6270.01 0,-3462.82 2807.18,-6270 6270,-6270z"/>
  </g>
 </g>
</svg>
