<?xml version="1.0" encoding="UTF-8"?>
<!DOCTYPE svg PUBLIC "-//W3C//DTD SVG 1.1//EN" "http://www.w3.org/Graphics/SVG/1.1/DTD/svg11.dtd">
<!-- Creator: CorelDRAW -->
<svg xmlns="http://www.w3.org/2000/svg" xml:space="preserve" width="152.4mm" height="152.4mm" version="1.1" style="shape-rendering:geometricPrecision; text-rendering:geometricPrecision; image-rendering:optimizeQuality; fill-rule:evenodd; clip-rule:evenodd"
viewBox="0 0 15240 15240"
 xmlns:xlink="http://www.w3.org/1999/xlink"
 xmlns:xodm="http://www.corel.com/coreldraw/odm/2003">
 <defs>
  <style type="text/css">
   <![CDATA[
    .fil0 {fill:none}
    .fil2 {fill:#ACDFE8}
    .fil1 {fill:#FE8A7E}
    .fil3 {fill:#FE8A7E;fill-rule:nonzero}
   ]]>
  </style>
 </defs>
 <g id="Capa_x0020_1">
  <metadata id="CorelCorpID_0Corel-Layer"/>
  <g id="_1554921901264">
   <rect class="fil0" x="-0" y="-0" width="15240" height="15240"/>
   <path class="fil1" d="M5302.97 620.06c602.29,-87.67 1258.56,-139.78 1925.26,-155.94l0 -2.44c130.23,-2.33 260.7,-3.31 391.1,-2.91l1.35 0c130.4,-0.4 260.88,0.57 391.1,2.91l0 2.44c666.7,16.16 1322.97,68.27 1925.26,155.94 1168.23,170.04 2034.35,454.91 2991.98,961.24 375,198.28 624.47,507.53 738.86,916.01 546.7,1952.26 593.62,4475.73 -355.27,6693.43 -1022.72,2390.25 -2931.53,4171.57 -5219.41,5347.67l-81.42 41.85 0 0.18 -19.03 9.6 -369.3 189.85 -3.43 1.43 -3.46 -1.43 -369.29 -189.85 -19.04 -9.6 0 -0.18 -81.42 -41.85c-2287.88,-1176.1 -4196.69,-2957.42 -5219.4,-5347.67 -948.9,-2217.7 -901.98,-4741.17 -355.27,-6693.43 114.39,-408.48 363.85,-717.73 738.85,-916.01 957.63,-506.33 1823.76,-791.2 2991.98,-961.24z"/>
   <path class="fil2" d="M5272.5 527.99c610.21,-88.82 1275.11,-141.62 1950.58,-157.99l0 -2.47c131.94,-2.36 264.13,-3.35 396.24,-2.95l1.37 0c132.12,-0.4 264.31,0.58 396.24,2.95l0 2.47c675.47,16.37 1340.37,69.17 1950.59,157.99 1183.59,172.28 2061.1,460.89 3031.33,973.89 379.93,200.88 632.68,514.2 748.57,928.05 553.9,1977.94 601.43,4534.6 -359.94,6781.46 -1036.17,2421.7 -2970.08,4226.45 -5288.06,5418.02l-82.49 42.4 0 0.18 -19.28 9.73 -374.16 192.34 -3.47 1.45 -3.5 -1.45 -374.16 -192.34 -19.28 -9.73 0 -0.18 -82.49 -42.4c-2317.98,-1191.57 -4251.89,-2996.32 -5288.05,-5418.02 -961.38,-2246.86 -913.85,-4803.52 -359.95,-6781.46 115.9,-413.85 368.64,-727.17 748.58,-928.05 970.22,-513 1847.74,-801.61 3031.33,-973.89zm151.33 1039.69c-1063.03,154.73 -2023.76,454.89 -2852.19,943.01 -1334,4290.73 309.12,8747.6 5049.28,11184.3 4789.49,-2416.98 6493.14,-6893.57 5159.14,-11184.3 -810,-477.25 -1746.44,-774.83 -2781.36,-932.47 -1360.59,-207.25 -3211.6,-208.97 -4574.87,-10.54z"/>
   <path class="fil2" d="M4271.59 10186.9c-188.22,-1297.93 -113.74,-3020.18 33.75,-4860.37 4.11,-51.28 8.28,-102.64 12.5,-154.1 5.35,-65.14 59.41,-114.96 124.78,-114.96l211.02 0 529.94 0c241.75,-482.09 270.55,-925.95 469.91,-1405.73 187.78,-451.85 427.35,-792.12 709.51,-1040.68 812.5,-715.76 1908.43,-690.05 2637.43,130.9 331.54,368.1 585.21,859.47 767.18,1464.36 86.1,246.13 179.7,651.7 188.95,851.15l835.08 0c43.05,0 78.81,32.32 83.06,75.15 116.14,1170.59 292.34,4788.22 50.27,5072.86 -2241.05,75.16 -4460.15,73.56 -6653.38,-18.58zm1283.51 -5129.43l4063.97 0c124.41,-402.15 29.47,-792.04 -109.25,-1182.97 -373.47,-1052.44 -1129.98,-1621.08 -1949.76,-1648.3 -905.06,51.32 -1535.92,670.7 -1919.29,1802.73 -105.39,367.96 -121.91,844.66 -85.67,1028.54z"/>
   <path class="fil3" d="M4398.03 9305.58l1104.63 0 0 -290.35 -745.57 0 0 -1495.23 -359.06 0 0 1785.58zm3184.64 -1297.01c249.74,0 467.37,137.38 581.53,340.67 -86.68,46.79 -197.94,106.92 -277.41,150.09 -55.03,-133.02 -170.52,-224.63 -304.12,-224.63 -186.9,0 -338.4,179.27 -338.4,400.41 0,221.13 151.5,400.4 338.4,400.4 147.47,0 272.89,-111.64 319.25,-267.37l283.58 151.6c-106.76,225.73 -336.54,381.9 -602.83,381.9 -368.12,0 -666.53,-298.42 -666.53,-666.53 0,-368.12 298.41,-666.54 666.53,-666.54zm2863.45 1327.27l410.65 -1277.96 -346.99 0 -256.94 953.98 -267.92 -953.98 -353.57 0 482.05 1314.95c-47.6,144.27 -219.72,144.23 -310.17,120.69l1.62 241.55c570.01,56.06 562.08,-152.8 641.27,-399.23zm-1239.72 -30.26l382.12 0 -567.72 -777.4 489.75 -470.3 -399.69 0 -516.11 474.78 0 -1030.71 -312.94 0 0 1803.63 312.94 0 0 -400.3 199.86 -172.09 411.79 572.39zm-2701.02 0l311.2 0 0 -1247.7 -311.2 0 0 696.01c0,382.86 -605.9,431.7 -605.9,0l0 -696.01 -290.33 0 0 807.75c0,286.31 164.76,463.23 447.56,463.23 189.35,0 362.61,-95.45 448.67,-200.2l0 176.92z"/>
  </g>
 </g>
</svg>
