<?xml version="1.0" encoding="UTF-8"?>
<!DOCTYPE svg PUBLIC "-//W3C//DTD SVG 1.1//EN" "http://www.w3.org/Graphics/SVG/1.1/DTD/svg11.dtd">
<!-- Creator: CorelDRAW -->
<svg xmlns="http://www.w3.org/2000/svg" xml:space="preserve" width="152.4mm" height="152.4mm" version="1.1" style="shape-rendering:geometricPrecision; text-rendering:geometricPrecision; image-rendering:optimizeQuality; fill-rule:evenodd; clip-rule:evenodd"
viewBox="0 0 12924.94 12924.94"
 xmlns:xlink="http://www.w3.org/1999/xlink"
 xmlns:xodm="http://www.corel.com/coreldraw/odm/2003">
 <defs>
  <style type="text/css">
   <![CDATA[
    .fil0 {fill:none}
    .fil2 {fill:#ACDFE8}
    .fil1 {fill:#FE8A7E}
    .fil3 {fill:#FE8A7E;fill-rule:nonzero}
   ]]>
  </style>
 </defs>
 <g id="Capa_x0020_1">
  <metadata id="CorelCorpID_0Corel-Layer"/>
  <g id="_1555064005648">
   <rect class="fil0" x="-0" y="-0" width="12924.94" height="12924.94"/>
   <ellipse id="contour" class="fil1" cx="6462.48" cy="6462.47" rx="6106.86" ry="6106.89"/>
   <path id="contour_1" class="fil2" d="M6462.48 308.92c3398.5,0 6153.52,2755.05 6153.52,6153.55 0,3398.5 -2755.02,6153.54 -6153.52,6153.54 -3398.5,0 -6153.51,-2755.05 -6153.51,-6153.54 0,-3398.51 2755.01,-6153.55 6153.51,-6153.55zm-0.05 836.05c2936.79,0 5317.55,2380.75 5317.55,5317.55 0,2936.79 -2380.76,5317.55 -5317.55,5317.55 -2936.79,0 -5317.55,-2380.76 -5317.55,-5317.55 0,-2936.79 2380.75,-5317.55 5317.55,-5317.55z"/>
   <path class="fil2" d="M3016.02 9901.04c-194.31,-1339.91 -117.42,-3117.85 34.85,-5017.57 4.24,-52.94 8.55,-105.96 12.9,-159.08 5.52,-67.25 61.33,-118.68 128.82,-118.68l217.85 0 547.08 0c249.57,-497.68 279.29,-955.89 485.11,-1451.2 193.85,-466.46 441.17,-817.74 732.45,-1074.34 838.78,-738.9 1970.15,-712.36 2722.74,135.14 342.26,380.01 604.14,887.28 791.99,1511.73 88.88,254.09 185.51,672.78 195.06,878.68l862.09 0c44.44,0 81.36,33.36 85.74,77.58 119.9,1208.45 301.8,4943.08 51.9,5236.93 -2313.53,77.59 -4604.4,75.94 -6868.57,-19.18zm1325.03 -5295.33l4195.41 0c128.44,-415.16 30.42,-817.66 -112.78,-1221.23 -385.55,-1086.48 -1166.54,-1673.51 -2012.82,-1701.61 -934.34,52.98 -1585.6,692.39 -1981.37,1861.03 -108.8,379.86 -125.86,871.98 -88.44,1061.8z"/>
   <path class="fil3" d="M3146.55 8991.21l1140.36 0 0 -299.73 -769.69 0 0 -1543.59 -370.68 0 0 1843.32zm3287.64 -1338.95c257.82,0 482.49,141.83 600.34,351.69 -89.48,48.31 -204.35,110.38 -286.38,154.95 -56.81,-137.32 -176.04,-231.89 -313.96,-231.89 -192.94,0 -349.35,185.06 -349.35,413.35 0,228.29 156.41,413.35 349.35,413.35 152.24,0 281.72,-115.25 329.58,-276.01l292.75 156.5c-110.22,233.03 -347.43,394.25 -622.33,394.25 -380.02,0 -688.09,-308.07 -688.09,-688.09 0,-380.02 308.07,-688.09 688.09,-688.09zm2956.05 1370.2l423.94 -1319.29 -358.21 0 -265.25 984.83 -276.59 -984.83 -365 0 497.64 1357.48c-49.14,148.93 -226.82,148.89 -320.2,124.59l1.67 249.36c588.44,57.87 580.26,-157.75 662,-412.14zm-1279.82 -31.24l394.48 0 -586.07 -802.54 505.58 -485.51 -412.61 0 -532.81 490.14 0 -1064.04 -323.06 0 0 1861.96 323.06 0 0 -413.24 206.33 -177.66 425.1 590.9zm-2788.37 0l321.26 0 0 -1288.05 -321.26 0 0 718.52c0,395.25 -625.5,445.66 -625.5,0l0 -718.52 -299.72 0 0 833.87c0,295.58 170.09,478.21 462.03,478.21 195.48,0 374.34,-98.53 463.19,-206.67l0 182.64z"/>
  </g>
 </g>
</svg>
