<?xml version="1.0" encoding="UTF-8"?>
<!DOCTYPE svg PUBLIC "-//W3C//DTD SVG 1.1//EN" "http://www.w3.org/Graphics/SVG/1.1/DTD/svg11.dtd">
<!-- Creator: CorelDRAW -->
<svg xmlns="http://www.w3.org/2000/svg" xml:space="preserve" width="152.4mm" height="152.4mm" version="1.1" style="shape-rendering:geometricPrecision; text-rendering:geometricPrecision; image-rendering:optimizeQuality; fill-rule:evenodd; clip-rule:evenodd"
viewBox="0 0 15240 15240"
 xmlns:xlink="http://www.w3.org/1999/xlink"
 xmlns:xodm="http://www.corel.com/coreldraw/odm/2003">
 <defs>
  <style type="text/css">
   <![CDATA[
    .fil2 {fill:none}
    .fil1 {fill:#F1592A}
    .fil0 {fill:#FFFABA}
   ]]>
  </style>
 </defs>
 <g id="Capa_x0020_1">
  <metadata id="CorelCorpID_0Corel-Layer"/>
  <g id="_1788838222704">
   <g>
    <ellipse id="contour" class="fil0" cx="7620.01" cy="7620" rx="7255.7" ry="7255.74"/>
    <path id="contour_60" class="fil1" d="M7620.01 364.25c4007.22,0 7255.71,3248.52 7255.71,7255.75 0,4007.22 -3248.49,7255.74 -7255.71,7255.74 -4007.22,0 -7255.7,-3248.52 -7255.7,-7255.74 0,-4007.23 3248.48,-7255.75 7255.7,-7255.75zm-0.06 985.8c3462.82,0 6270.01,2807.18 6270.01,6270 0,3462.82 -2807.19,6270.01 -6270.01,6270.01 -3462.82,0 -6270,-2807.19 -6270,-6270.01 0,-3462.82 2807.18,-6270 6270,-6270z"/>
    <path class="fil1" d="M7623.15 2219.76c906.05,0 1640.54,734.49 1640.54,1640.54 0,906.05 -734.49,1640.54 -1640.54,1640.54 -906.05,0 -1640.54,-734.49 -1640.54,-1640.54 0,-906.05 734.49,-1640.54 1640.54,-1640.54zm-2987.7 1769.19c604.77,0 1095.01,490.25 1095.01,1095.01 0,604.75 -490.24,1095.01 -1095.01,1095.01 -604.75,0 -1095.01,-490.26 -1095.01,-1095.01 0,-604.76 490.26,-1095.01 1095.01,-1095.01zm6075.58 0c604.77,0 1095.01,490.25 1095.01,1095.01 0,604.75 -490.24,1095.01 -1095.01,1095.01 -604.75,0 -1095.01,-490.26 -1095.01,-1095.01 0,-604.76 490.26,-1095.01 1095.01,-1095.01zm752.68 2074.34c324.56,73.5 568.82,365.15 568.82,711.1l0 1897.94c0,49.95 -29.14,92.55 -75.69,110.66l-330.22 128.49 0 1981.24c0,102.57 -83.92,186.49 -186.49,186.49l-1477.87 0c-102.58,0 -186.49,-83.92 -186.49,-186.49l0 -1489.23c24.1,-50.9 37.24,-107.64 37.24,-167.08l0 -2843.49c0,-94.01 -10.22,-186.12 -29.63,-275.21 53.62,-25.95 110.82,-45.57 170.65,-57.75 209.09,162.42 471.74,259.17 757,259.17 283.31,0 544.29,-95.45 752.68,-255.84zm-6075.58 0c18.48,4.18 36.69,9.12 54.61,14.68 -25.44,101.29 -38.94,206.86 -38.94,314.95l0 2831.18c0,121.9 55.13,232.49 147.24,304.63l0 1363.99c0,102.57 -83.92,186.49 -186.49,186.49l-1477.87 0c-102.58,0 -186.49,-83.92 -186.49,-186.49l0 -1980.76 -332.71 -138.19c-45.27,-18.8 -73.2,-60.64 -73.2,-109.65l0 -1889.73c0,-351.39 251.98,-646.78 584.17,-714.43 209.09,162.42 471.74,259.17 757,259.17 283.31,0 544.29,-95.45 752.68,-255.84zm3362.68 -735.76c486.26,110.13 852.2,547.08 852.2,1065.39l0 2843.49c0,74.84 -43.65,138.65 -113.39,165.79l-494.74 192.51 0 2968.29c0,153.67 -125.72,279.4 -279.4,279.4l-2214.15 0c-153.67,0 -279.4,-125.73 -279.4,-279.4l0 -2967.58 -498.47 -207.03c-67.81,-28.17 -109.66,-90.86 -109.66,-164.29l0 -2831.18c0,-526.46 377.51,-969.01 875.2,-1070.37 313.27,243.34 706.76,388.29 1134.15,388.29 424.45,0 815.45,-143 1127.66,-383.31z"/>
    <rect class="fil2" x="-0" y="-0" width="15240" height="15240"/>
   </g>
   <rect class="fil2" x="-0" y="-0" width="15240" height="15240"/>
  </g>
 </g>
</svg>
