<?xml version="1.0" encoding="UTF-8"?>
<!DOCTYPE svg PUBLIC "-//W3C//DTD SVG 1.1//EN" "http://www.w3.org/Graphics/SVG/1.1/DTD/svg11.dtd">
<!-- Creator: CorelDRAW -->
<svg xmlns="http://www.w3.org/2000/svg" xml:space="preserve" width="113.647mm" height="113.647mm" version="1.1" style="shape-rendering:geometricPrecision; text-rendering:geometricPrecision; image-rendering:optimizeQuality; fill-rule:evenodd; clip-rule:evenodd"
viewBox="0 0 9473.85 9473.85"
 xmlns:xlink="http://www.w3.org/1999/xlink"
 xmlns:xodm="http://www.corel.com/coreldraw/odm/2003">
 <defs>
  <style type="text/css">
   <![CDATA[
    .fil1 {fill:none}
    .fil0 {fill:lightgrey}
   ]]>
  </style>
 </defs>
 <g id="Capa_x0020_1">
  <metadata id="CorelCorpID_0Corel-Layer"/>
  <g id="_1788436871520">
   <path class="fil0" d="M1660.21 3978l5.84 1255.01c134.49,24.86 237.22,141.86 239.12,283.82 1.69,125.13 -75.4,232.96 -185.3,276.29l156.9 1806.91c-95,161.56 -341.03,167.93 -450.92,-0.18l79.79 -1806.57c-107.39,-42.19 -184.07,-146.06 -185.73,-268.55 -1.77,-131.3 83.21,-243.57 201.81,-282.24l-6 -1329.18 -871.84 -390.4 4161.04 -1772.64 4025.07 1735.51 -1446.07 750.36c211.25,-423.43 -746.44,-763.9 -1048.18,-876.08 -1284.78,-477.63 -2633.09,-332.12 -4038.52,373.78 -320.84,169.58 -288.23,265.36 -193.85,442.62l-443.17 -198.44zm740.71 79.4l-16.03 1140.37c-0.52,37.92 12.67,70.74 39.31,97.73 26.66,26.99 59.3,40.63 97.23,40.58 620.49,-0.81 1594.33,70.99 2196.74,755.79 616.12,-499.39 1363.46,-740.03 2214.55,-776.1 72.89,-3.08 130.39,-62.9 130.6,-135.86l3.19 -1093.99c-1369.43,-911.16 -3166.03,-915.75 -4665.59,-28.51z"/>
   <rect class="fil1" x="-0" y="-0" width="9473.85" height="9473.85"/>
  </g>
 </g>
</svg>
