<?xml version="1.0" encoding="UTF-8"?>
<!DOCTYPE svg PUBLIC "-//W3C//DTD SVG 1.1//EN" "http://www.w3.org/Graphics/SVG/1.1/DTD/svg11.dtd">
<!-- Creator: CorelDRAW -->
<svg xmlns="http://www.w3.org/2000/svg" xml:space="preserve" width="152.4mm" height="152.4mm" version="1.1" style="shape-rendering:geometricPrecision; text-rendering:geometricPrecision; image-rendering:optimizeQuality; fill-rule:evenodd; clip-rule:evenodd"
viewBox="0 0 15240 15240"
 xmlns:xlink="http://www.w3.org/1999/xlink"
 xmlns:xodm="http://www.corel.com/coreldraw/odm/2003">
 <defs>
  <style type="text/css">
   <![CDATA[
    .fil0 {fill:none}
    .fil1 {fill:#3C55A4}
    .fil2 {fill:#A5A7A9}
    .fil3 {fill:#3C55A4;fill-rule:nonzero}
   ]]>
  </style>
 </defs>
 <g id="Capa_x0020_1">
  <metadata id="CorelCorpID_0Corel-Layer"/>
  <g id="_2981911947984">
   <rect class="fil0" x="-0" y="-0" width="15240" height="15240"/>
   <ellipse id="contour" class="fil1" cx="7620" cy="7620" rx="7200.69" ry="7200.73"/>
   <path id="contour_72" class="fil2" d="M7620.01 364.25c4007.22,0 7255.71,3248.52 7255.71,7255.75 0,4007.22 -3248.49,7255.74 -7255.71,7255.74 -4007.22,0 -7255.7,-3248.52 -7255.7,-7255.74 0,-4007.23 3248.48,-7255.75 7255.7,-7255.75zm-198.58 9668.85l471.76 0c5.73,1006.54 643.42,1714.57 1417.05,1714.57 17.3,0 38.17,0.28 61.99,0.71 138.24,2.53 249.35,115.69 249.35,253.95l0 44.61c0,139.9 -114.1,254 -254,254l-3495.15 0c-139.9,0 -254,-114.1 -254,-254l0 -43.01c0,-137.87 110.38,-250.8 248.21,-253.94 56.45,-1.28 103.92,-2.32 137.74,-2.32 773.63,0 1411.32,-708.03 1417.05,-1714.57zm197.04 -279.08l3.08 0 4.2 0.02c655.52,0 1255.36,-455.02 1717.5,-1208.46 1331.91,-664.83 2500.27,-2091.3 2749.51,-3831.14 9.74,-67.97 -8.64,-130.25 -53.61,-182.15 -44.97,-51.9 -104.08,-78.9 -172.76,-78.9l-1445.7 0c12.63,-185.95 19.71,-363.34 21.09,-528.8 1.13,-133.61 -45.82,-249 -139.9,-343.88 -94.08,-94.87 -209.06,-142.79 -342.68,-142.79l-1889.19 0 -900 0 -1889.19 0c-133.62,0 -248.6,47.92 -342.68,142.79 -94.08,94.88 -141.03,210.27 -139.9,343.88 1.38,165.46 8.46,342.85 21.09,528.8l-1445.69 0c-68.68,0 -127.79,27 -172.76,78.9 -44.97,51.9 -63.35,114.18 -53.61,182.15 249.24,1739.83 1417.61,3166.3 2749.5,3831.14 462.13,753.44 1061.98,1208.46 1717.5,1208.46l4.2 -0.02zm2130.35 -2056.9c313.89,-826.62 527.2,-1848.59 627.49,-2751.41l1111.93 0c-110.82,1049.32 -850.59,2097.36 -1739.42,2751.41zm-4885.11 -2751.41c100.29,902.82 313.6,1924.79 627.48,2751.4 -888.82,-654.05 -1628.58,-1702.09 -1739.4,-2751.4l1111.92 0zm2756.24 -3595.66c3462.82,0 6270.01,2807.18 6270.01,6270 0,3462.82 -2807.19,6270.01 -6270.01,6270.01 -3462.82,0 -6270,-2807.19 -6270,-6270.01 0,-3462.82 2807.18,-6270 6270,-6270z"/>
   <path class="fil3" d="M6203.79 7389.74c-24.99,0 -53.94,-1.7 -86.88,-5.11 -32.93,-3.41 -64.16,-11.92 -93.68,-25.55 -31.8,-18.17 -59.06,-45.43 -81.77,-81.76 -22.71,-36.34 -34.07,-73.82 -34.07,-112.43 0,-65.86 22.15,-135.14 66.44,-207.81 44.29,-72.68 100.5,-145.93 168.63,-219.74 68.14,-73.82 143.09,-145.93 224.85,-216.34 81.77,-70.4 158.99,-136.27 231.67,-197.59 88.57,-74.95 165.23,-141.38 229.96,-199.3 64.73,-57.92 118.67,-112.42 161.82,-163.53 43.15,-51.1 74.95,-101.63 95.39,-151.6 20.44,-49.97 30.66,-104.48 30.66,-163.53 0,-63.59 -11.35,-118.1 -34.07,-163.52 -22.71,-45.43 -52.8,-82.9 -90.28,-112.43 -37.47,-29.52 -78.92,-51.1 -124.35,-64.73 -45.42,-13.63 -89.71,-20.44 -132.86,-20.44 -59.05,0 -110.72,9.65 -155.01,28.96 -44.29,19.3 -81.76,41.45 -112.43,66.43 -30.66,24.99 -54.5,51.67 -71.54,80.06 -17.03,28.39 -28.96,50.54 -35.77,66.43 -34.07,99.94 -65.86,176.02 -95.39,228.26 -29.53,52.24 -81.76,78.36 -156.71,78.36 -47.7,0 -92.56,-15.9 -134.57,-47.7 -42.02,-31.79 -63.03,-82.9 -63.03,-153.3 0,-54.51 13.06,-121.51 39.18,-201.01 26.12,-79.49 70.97,-156.14 134.57,-229.96 63.59,-73.81 148.76,-136.27 255.51,-187.37 106.75,-51.1 240.75,-76.65 402,-76.65 15.9,0 42.02,0.56 78.36,1.7 36.34,1.14 77.22,5.11 122.64,11.92 45.43,6.82 93.69,17.04 144.79,30.67 51.11,13.62 98.23,32.93 141.39,57.91 106.74,59.05 190.21,141.95 250.4,248.7 60.18,106.74 90.28,221.44 90.28,344.09 0,68.13 -9.65,135.13 -28.96,201 -19.31,65.86 -50.53,132.86 -93.69,201 -43.15,68.14 -100.5,139.68 -172.04,214.63 -71.54,74.95 -159.55,154.44 -264.03,238.48 -88.58,70.4 -159.55,127.75 -212.92,172.04 -53.38,44.29 -97.67,83.47 -132.87,117.53 -35.2,34.07 -66.43,67.57 -93.69,100.51 -27.25,32.93 -57.91,73.24 -91.98,120.94l814.23 0c24.98,0 55.64,1.13 91.98,3.4 36.34,2.27 71.54,9.09 105.61,20.44 34.07,11.36 63.03,30.1 86.87,56.22 23.85,26.12 35.78,64.16 35.78,114.13 0,38.61 -9.66,74.38 -28.96,107.31 -19.31,32.93 -41.45,55.08 -66.43,66.43 -24.99,11.36 -51.67,18.17 -80.06,20.44 -28.39,2.27 -55.08,3.41 -80.06,3.41l-1154.91 0z"/>
   <path class="fil3" d="M8282.85 5900.96c36.34,-20.44 91.42,-46.56 165.23,-78.35 73.82,-31.8 164.1,-47.7 270.84,-47.7 95.39,0 189.08,18.17 281.07,54.51 91.98,36.34 173.74,88.58 245.29,156.71 71.54,68.14 128.89,151.04 172.04,248.7 43.15,97.66 64.73,207.82 64.73,330.46 0,109.02 -18.74,215.2 -56.21,318.54 -37.48,103.34 -93.12,195.32 -166.94,275.95 -73.81,80.63 -165.23,145.93 -274.24,195.89 -109.02,49.97 -233.94,74.95 -374.75,74.95 -168.07,0 -302.07,-23.28 -402.01,-69.84 -99.93,-46.56 -178.29,-99.36 -235.07,-158.41 -61.32,-63.6 -110.15,-132.3 -146.49,-206.12 -36.34,-73.81 -54.51,-133.43 -54.51,-178.85 0,-13.63 3.98,-30.67 11.92,-51.11 7.95,-20.44 19.31,-40.31 34.07,-59.62 14.77,-19.3 34.07,-35.2 57.92,-47.69 23.85,-12.49 52.8,-18.74 86.87,-18.74 54.51,0 96.53,15.9 126.05,47.7 29.53,31.79 56.78,69.27 81.77,112.42 22.71,43.15 47.69,84.04 74.95,122.65 27.25,38.61 57.35,72.11 90.28,100.5 32.93,28.39 70.97,51.1 114.13,68.13 43.15,17.04 93.12,25.56 149.9,25.56 81.76,0 149.33,-17.61 202.7,-52.81 53.37,-35.2 96.53,-78.92 129.46,-131.16 32.93,-52.24 56.21,-109.02 69.84,-170.34 13.63,-61.33 20.44,-118.11 20.44,-170.34 0,-88.58 -12.49,-164.1 -37.47,-226.56 -24.99,-62.45 -57.35,-112.99 -97.1,-151.6 -39.74,-38.61 -85.17,-67 -136.27,-85.17 -51.1,-18.17 -102.77,-27.25 -155.01,-27.25 -49.97,0 -94.26,5.67 -132.87,17.03 -38.61,11.36 -73.81,25.55 -105.61,42.58 -31.79,17.04 -61.32,37.48 -88.57,61.33 -27.26,23.85 -54.51,47.13 -81.77,69.84 -20.44,18.17 -44.85,31.79 -73.24,40.88 -28.39,9.08 -53.95,13.63 -76.66,13.63 -52.24,0 -99.93,-19.31 -143.08,-57.92 -43.16,-38.61 -64.73,-82.9 -64.73,-132.87 0,-13.62 1.7,-29.52 5.11,-47.69 3.4,-18.17 7.38,-40.88 11.92,-68.14l139.68 -797.19c11.36,-63.59 26.69,-112.99 45.99,-148.2 19.31,-35.2 43.15,-61.89 71.54,-80.06 28.4,-18.17 60.76,-29.52 97.1,-34.06 36.34,-4.55 78.36,-6.82 126.05,-6.82l793.79 0c40.88,0 74.38,0.57 100.5,1.71 26.12,1.13 48.26,5.11 66.43,11.92 38.61,13.63 69.27,37.47 91.99,71.54 22.71,34.07 34.06,70.41 34.06,109.02 0,49.97 -10.78,88.01 -32.36,114.13 -21.58,26.12 -47.13,45.42 -76.65,57.91 -29.53,12.5 -60.19,19.88 -91.99,22.15 -31.8,2.27 -57.91,3.4 -78.36,3.4l-759.71 0 -91.99 534.87z"/>
  </g>
 </g>
</svg>
