<?xml version="1.0" encoding="UTF-8"?>
<!DOCTYPE svg PUBLIC "-//W3C//DTD SVG 1.1//EN" "http://www.w3.org/Graphics/SVG/1.1/DTD/svg11.dtd">
<!-- Creator: CorelDRAW -->
<svg xmlns="http://www.w3.org/2000/svg" xml:space="preserve" width="152.4mm" height="152.4mm" version="1.1" style="shape-rendering:geometricPrecision; text-rendering:geometricPrecision; image-rendering:optimizeQuality; fill-rule:evenodd; clip-rule:evenodd"
viewBox="0 0 15240 15240"
 xmlns:xlink="http://www.w3.org/1999/xlink"
 xmlns:xodm="http://www.corel.com/coreldraw/odm/2003">
 <defs>
  <style type="text/css">
   <![CDATA[
    .fil0 {fill:none}
    .fil1 {fill:#3C3B3C}
    .fil2 {fill:#EDC416}
   ]]>
  </style>
 </defs>
 <g id="Capa_x0020_1">
  <metadata id="CorelCorpID_0Corel-Layer"/>
  <g id="_2981804098592">
   <rect class="fil0" x="-0" y="-0" width="15240" height="15240"/>
   <ellipse id="contour" class="fil1" cx="7620.01" cy="7620" rx="7200.69" ry="7200.73"/>
   <path id="contour_44" class="fil2" d="M7620.01 364.25c4007.22,0 7255.71,3248.52 7255.71,7255.75 0,4007.22 -3248.49,7255.74 -7255.71,7255.74 -4007.22,0 -7255.7,-3248.52 -7255.7,-7255.74 0,-4007.23 3248.48,-7255.75 7255.7,-7255.75zm-0.06 985.8c3462.82,0 6270.01,2807.18 6270.01,6270 0,3462.82 -2807.19,6270.01 -6270.01,6270.01 -3462.82,0 -6270,-2807.19 -6270,-6270.01 0,-3462.82 2807.18,-6270 6270,-6270z"/>
   <path class="fil2" d="M10854.65 6878.5c411.63,76.09 725.95,438.97 725.95,871.76l0 2320.05 -523.26 0 0 626.8c0,335.28 -274.32,609.6 -609.6,609.6l-74.64 0c-335.28,0 -609.6,-274.32 -609.6,-609.6l0 -626.8 -4331 0 0 626.8c0,335.28 -274.32,609.6 -609.6,609.6l-74.64 0c-335.28,0 -609.6,-274.32 -609.6,-609.6l0 -626.8 -523.26 0 0 -2320.61c0,-402.48 272.02,-744.47 641.27,-851.3l750.76 -1665.61c165.4,-366.94 509.62,-589.37 912.12,-589.37l804.38 0 0 -462.05c0,-139.7 114.3,-254 254,-254l1161.36 0c139.7,0 254,114.3 254,254l0 462.05 903.16 0c420.07,0 778.33,244.43 931.56,635.55l626.64 1599.53zm-5999.65 674.9c307.5,0 556.77,249.27 556.77,556.77 0,307.5 -249.27,556.77 -556.77,556.77 -307.5,0 -556.77,-249.27 -556.77,-556.77 0,-307.5 249.27,-556.77 556.77,-556.77zm5486 0c307.5,0 556.77,249.27 556.77,556.77 0,307.5 -249.27,556.77 -556.77,556.77 -307.5,0 -556.77,-249.27 -556.77,-556.77 0,-307.5 249.27,-556.77 556.77,-556.77zm-4388.04 -2084.67l3211.29 0c202.67,0 375.77,111.74 454.16,293.19l528.66 1223.63 -5176.93 0 528.66 -1223.63c78.39,-181.45 251.49,-293.19 454.16,-293.19z"/>
  </g>
 </g>
</svg>
