<?xml version="1.0" encoding="UTF-8"?>
<!DOCTYPE svg PUBLIC "-//W3C//DTD SVG 1.1//EN" "http://www.w3.org/Graphics/SVG/1.1/DTD/svg11.dtd">
<!-- Creator: CorelDRAW -->
<svg xmlns="http://www.w3.org/2000/svg" xml:space="preserve" width="152.4mm" height="152.4mm" version="1.1" style="shape-rendering:geometricPrecision; text-rendering:geometricPrecision; image-rendering:optimizeQuality; fill-rule:evenodd; clip-rule:evenodd"
viewBox="0 0 15240 15240"
 xmlns:xlink="http://www.w3.org/1999/xlink"
 xmlns:xodm="http://www.corel.com/coreldraw/odm/2003">
 <defs>
  <style type="text/css">
   <![CDATA[
    .fil0 {fill:none}
    .fil1 {fill:#2EB14B}
    .fil2 {fill:#FADD0C}
   ]]>
  </style>
 </defs>
 <g id="Capa_x0020_1">
  <metadata id="CorelCorpID_0Corel-Layer"/>
  <g id="_1904149552512">
   <rect class="fil0" x="-0" y="-0" width="15240" height="15240"/>
   <ellipse id="contour" class="fil1" cx="7620.01" cy="7620" rx="7200.69" ry="7200.73"/>
   <path id="contour_10" class="fil2" d="M7620.01 364.25c4007.22,0 7255.71,3248.52 7255.71,7255.75 0,4007.22 -3248.49,7255.74 -7255.71,7255.74 -4007.22,0 -7255.7,-3248.52 -7255.7,-7255.74 0,-4007.23 3248.48,-7255.75 7255.7,-7255.75zm-0.06 985.8c3462.82,0 6270.01,2807.18 6270.01,6270 0,3462.82 -2807.19,6270.01 -6270.01,6270.01 -3462.82,0 -6270,-2807.19 -6270,-6270.01 0,-3462.82 2807.18,-6270 6270,-6270z"/>
   <path class="fil2" d="M6992.36 3946.42l1212.08 0c125.73,0 228.6,102.88 228.6,228.6l0 528.52 1237.41 0c291.08,0 539.77,164.22 654.07,431.92l760.85 1781.9c401.67,126.48 695.08,503.27 695.08,945.29l0 2154.53 -719.48 0c0.16,5.7 0.25,11.43 0.25,17.17l0 763.69c0,340.57 -278.64,619.21 -619.21,619.21 -340.57,0 -619.21,-278.64 -619.21,-619.21l0 -763.69c0,-5.74 0.09,-11.47 0.25,-17.17l-4440.36 0c0.16,5.7 0.25,11.43 0.25,17.17l0 763.69c0,340.57 -278.64,619.21 -619.21,619.21 -340.57,0 -619.21,-278.64 -619.21,-619.21l0 -763.69c0,-5.74 0.09,-11.47 0.25,-17.17l-728.42 0 0 -2154.53c0,-443.58 295.49,-821.47 699.35,-946.61l850.32 -1804.47c120.17,-255 361.45,-408.03 643.35,-408.03l1154.39 0 0 -528.52c0,-125.72 102.87,-228.6 228.6,-228.6zm-1013.99 1227.72l3240.05 0c239.21,0 442.92,142.51 524.93,367.22l523.15 1433.43 -5336.21 0 523.15 -1433.43c82.01,-224.71 285.72,-367.22 524.93,-367.22zm-1215.6 2359.96c324.3,0 587.2,262.9 587.2,587.2 0,324.3 -262.9,587.2 -587.2,587.2 -324.3,0 -587.2,-262.9 -587.2,-587.2 0,-324.3 262.9,-587.2 587.2,-587.2zm5646.2 0c324.3,0 587.2,262.9 587.2,587.2 0,324.3 -262.9,587.2 -587.2,587.2 -324.3,0 -587.2,-262.9 -587.2,-587.2 0,-324.3 262.9,-587.2 587.2,-587.2z"/>
  </g>
 </g>
</svg>
