<?xml version="1.0" encoding="UTF-8"?>
<!DOCTYPE svg PUBLIC "-//W3C//DTD SVG 1.1//EN" "http://www.w3.org/Graphics/SVG/1.1/DTD/svg11.dtd">
<!-- Creator: CorelDRAW -->
<svg xmlns="http://www.w3.org/2000/svg" xml:space="preserve" width="152.4mm" height="152.4mm" version="1.1" style="shape-rendering:geometricPrecision; text-rendering:geometricPrecision; image-rendering:optimizeQuality; fill-rule:evenodd; clip-rule:evenodd"
viewBox="0 0 15240 15240"
 xmlns:xlink="http://www.w3.org/1999/xlink"
 xmlns:xodm="http://www.corel.com/coreldraw/odm/2003">
 <defs>
  <style type="text/css">
   <![CDATA[
    .fil0 {fill:none}
    .fil2 {fill:#092A72}
    .fil1 {fill:#3DB5F2}
   ]]>
  </style>
 </defs>
 <g id="Capa_x0020_1">
  <metadata id="CorelCorpID_0Corel-Layer"/>
  <g id="_2981955458192">
   <rect class="fil0" x="-0" y="-0" width="15240" height="15240"/>
   <path class="fil1" d="M5302.97 620.06c602.29,-87.67 1258.56,-139.78 1925.26,-155.94l0 -2.44c130.23,-2.33 260.7,-3.31 391.1,-2.91l1.35 0c130.4,-0.4 260.88,0.57 391.1,2.91l0 2.44c666.7,16.16 1322.97,68.27 1925.26,155.94 1168.23,170.04 2034.35,454.91 2991.98,961.24 375,198.28 624.47,507.53 738.86,916.01 546.7,1952.26 593.62,4475.73 -355.27,6693.43 -1022.72,2390.25 -2931.53,4171.57 -5219.41,5347.67l-81.42 41.85 0 0.18 -19.03 9.6 -369.3 189.85 -3.43 1.43 -3.46 -1.43 -369.29 -189.85 -19.04 -9.6 0 -0.18 -81.42 -41.85c-2287.88,-1176.1 -4196.69,-2957.42 -5219.4,-5347.67 -948.9,-2217.7 -901.98,-4741.17 -355.27,-6693.43 114.39,-408.48 363.85,-717.73 738.85,-916.01 957.63,-506.33 1823.76,-791.2 2991.98,-961.24z"/>
   <path class="fil2" d="M5272.5 527.99c610.21,-88.82 1275.11,-141.62 1950.58,-157.99l0 -2.47c131.94,-2.36 264.13,-3.35 396.24,-2.95l1.37 0c132.12,-0.4 264.31,0.58 396.24,2.95l0 2.47c675.47,16.37 1340.37,69.17 1950.59,157.99 1183.59,172.28 2061.1,460.89 3031.33,973.89 379.93,200.88 632.68,514.2 748.57,928.05 553.9,1977.94 601.43,4534.6 -359.94,6781.46 -1036.17,2421.7 -2970.08,4226.45 -5288.06,5418.02l-82.49 42.4 0 0.18 -19.28 9.73 -374.16 192.34 -3.47 1.45 -3.5 -1.45 -374.16 -192.34 -19.28 -9.73 0 -0.18 -82.49 -42.4c-2317.98,-1191.57 -4251.89,-2996.32 -5288.05,-5418.02 -961.38,-2246.86 -913.85,-4803.52 -359.95,-6781.46 115.9,-413.85 368.64,-727.17 748.58,-928.05 970.22,-513 1847.74,-801.61 3031.33,-973.89zm151.33 1039.69c-1063.03,154.73 -2023.76,454.89 -2852.19,943.01 -1334,4290.73 309.12,8747.6 5049.28,11184.3 4789.49,-2416.98 6493.14,-6893.57 5159.14,-11184.3 -810,-477.25 -1746.44,-774.83 -2781.36,-932.47 -1360.59,-207.25 -3211.6,-208.97 -4574.87,-10.54z"/>
   <path class="fil2" d="M7647.15 8877c-26.97,-20.18 -59.51,-42.92 -84.11,-58.77 -40.71,-26.22 -154.67,-118.49 -257.12,-208.17 -343.22,-300.39 -919.12,-1043.76 -1102.98,-1573.93 -21.04,-60.67 -73.59,-235.92 -84.61,-304.86 -9.37,-58.55 -20.03,-75.78 -60.06,-97.1 -12,-6.39 -28.22,-20.86 -36.02,-32.14 -48.8,-70.49 -126.38,-234.51 -207,-264.91 -67.83,-25.62 -234.06,-68.22 -285.14,-8.99 -37.87,43.9 -80.43,164.34 -153.44,177.98 -27.18,5.11 -32.78,12.39 -38.37,49.95 -56.78,382.72 -403.87,1182.18 -662.64,1437.75 -159.14,157.18 -361.07,251.65 -618.38,203.29 -357.94,-67.25 -665.88,-439.14 -822.66,-705.86 -243.87,-414.87 -400.07,-926.59 -475.78,-1308.07 -41.66,-209.9 -67.13,-479.3 -41.46,-727.14 24.34,-235 94.67,-450.63 240.74,-577.81 169.77,-147.8 421.26,-189.75 636.36,-189.75 412.19,-0.03 661.91,142.1 837.8,172.18 314.07,53.68 1520.37,175.76 1984.27,208.04 111.48,7.75 184.16,15.74 230.54,25.31 50.31,10.39 292.94,26.79 370.73,25.08 264.1,-5.86 543.34,1.34 579.48,14.95 12.71,4.78 67.32,10.13 130.86,12.78 632.37,26.54 1802.74,305.59 2359.1,729.63 137.74,105.03 418.74,428.72 488.11,667.74 7.72,3.07 167.44,-93.96 181.3,-104.22 21.98,-16.26 95.26,-25.38 138.38,-17.24 18.72,3.54 44.21,14.43 59.64,25.52 23.33,16.73 30.35,18.77 52.4,15.24 -12.68,1.43 908.25,-518.95 908.25,-553.77 0,-19.37 51.16,-110.72 71.18,-127.12 34.37,-28.14 336.13,-237.45 466.54,-318.03 29.43,-18.17 50.13,-29.82 57.08,-31.32 27.16,-13.71 99.43,-39.98 187.35,18.99 78.03,52.35 104.35,156.33 64.31,240.44 -8.98,18.88 -19.47,49.29 -23.32,67.59 0,0 -452,1244.53 -452,1244.53 -56.18,243.07 -370.33,247 -394.4,-3.38 -3.02,-31.38 20.49,-125.18 41.89,-167.17 8.27,-16.74 242.96,-671.93 242.96,-671.93 6.92,-12.91 12.58,-29.75 12.58,-37.42 0,-13.41 -2.01,-13.91 -51.42,-12.79 -28.26,0.64 -65.43,-1.13 -82.56,-3.92 -29.12,-4.77 -32.74,-3.84 -55.36,14.25 0,0 -687.28,427.65 -914.63,552.03 -27.15,14.85 -29.65,18.37 -37.04,51.93 -11.94,54.32 -40.4,110.45 -67.9,133.9 -42.07,35.89 -64.15,51.5 -87.66,62.07 -57.3,25.74 -146.35,91.74 -206.45,126.05 -47.04,26.85 -60.95,49.95 -60.99,101.28 -0.02,23.7 -2.52,52.9 -5.57,64.91 -3.04,12.01 -8.99,68.14 -13.22,124.75 -39.08,523.9 -245.3,1011.77 -561.92,1427.22 -530.85,696.85 -1769.18,580.74 -2397.64,110.43zm-1585.72 -2853.81c5.62,-9.13 11.77,-449.97 201.54,-605.97l-21.15 -8.85c-35.56,-9.27 -879.49,-85.45 -1054.05,-106.7 -23.82,-2.91 -26.55,-1.8 -30.03,12.07 115.48,168.42 202.06,522.71 215.63,600.65 9.58,55.11 15.82,58.85 67.1,40.33 231.75,-83.61 518.56,23.21 597.17,74.16 10.95,0.34 21.65,-2.21 23.79,-5.69zm1239.91 -1159.4c-27.96,-7.58 -73.67,-39.49 -175.13,-122.3 -156.09,-127.4 -319.38,-249.37 -472.9,-378.69 -38.85,-32.78 -53.75,-37.22 -100.22,-29.77 -40.44,8.2 -814.76,220.34 -845.73,225.34 -45.83,18.23 -83.26,16.95 -119.1,-4.08 -24.75,-14.53 -33.56,-16.52 -58.12,-13.14 -153.12,21.02 -468.7,143.58 -521.79,139.12 -16.91,-0.88 -389.54,-38.14 -403.36,-41.94 0,0 696.19,-223.79 836.42,-267.07 36.93,-6.36 42.8,-9.6 66.74,-36.68 14.42,-16.34 26.34,-31.57 26.48,-33.85 0.66,-11.48 82.54,-48.73 122.03,-55.52 34.46,-6.37 809.43,-213.06 843.77,-224.06 112.17,-37.3 190.48,-37.6 235.17,-0.88 10.97,9.02 33.41,26.85 49.84,39.63 210.58,163.83 429.88,335.26 632.84,507.46 171.36,145.45 38.79,338.59 -116.94,296.43z"/>
  </g>
 </g>
</svg>
