<?xml version="1.0" encoding="UTF-8"?>
<!DOCTYPE svg PUBLIC "-//W3C//DTD SVG 1.1//EN" "http://www.w3.org/Graphics/SVG/1.1/DTD/svg11.dtd">
<!-- Creator: CorelDRAW -->
<svg xmlns="http://www.w3.org/2000/svg" xml:space="preserve" width="152.4mm" height="152.4mm" version="1.1" style="shape-rendering:geometricPrecision; text-rendering:geometricPrecision; image-rendering:optimizeQuality; fill-rule:evenodd; clip-rule:evenodd"
viewBox="0 0 15240 15240"
 xmlns:xlink="http://www.w3.org/1999/xlink"
 xmlns:xodm="http://www.corel.com/coreldraw/odm/2003">
 <defs>
  <style type="text/css">
   <![CDATA[
    .fil0 {fill:none}
    .fil2 {fill:#092A72}
    .fil1 {fill:#3DB5F2}
   ]]>
  </style>
 </defs>
 <g id="Capa_x0020_1">
  <metadata id="CorelCorpID_0Corel-Layer"/>
  <g id="_2981993115392">
   <rect class="fil0" x="-0" y="-0" width="15240" height="15240"/>
   <ellipse id="contour" class="fil1" cx="7620.01" cy="7620" rx="7200.69" ry="7200.73"/>
   <path id="contour_130" class="fil2" d="M7620.01 364.25c4007.22,0 7255.71,3248.52 7255.71,7255.75 0,4007.22 -3248.49,7255.74 -7255.71,7255.74 -4007.22,0 -7255.7,-3248.52 -7255.7,-7255.74 0,-4007.23 3248.48,-7255.75 7255.7,-7255.75zm-0.06 985.8c3462.82,0 6270.01,2807.18 6270.01,6270 0,3462.82 -2807.19,6270.01 -6270.01,6270.01 -3462.82,0 -6270,-2807.19 -6270,-6270.01 0,-3462.82 2807.18,-6270 6270,-6270z"/>
   <path class="fil2" d="M7550.22 10017.56c-31.72,-23.73 -69.99,-50.47 -98.92,-69.11 -47.87,-30.84 -181.89,-139.34 -302.37,-244.81 -403.63,-353.26 -1080.89,-1227.47 -1297.11,-1850.95 -24.74,-71.35 -86.54,-277.44 -99.5,-358.52 -11.03,-68.85 -23.56,-89.11 -70.64,-114.18 -14.11,-7.52 -33.18,-24.53 -42.35,-37.8 -57.39,-82.9 -148.62,-275.79 -243.43,-311.54 -79.78,-30.13 -275.26,-80.23 -335.33,-10.57 -44.54,51.62 -94.59,193.26 -180.45,209.3 -31.97,6.01 -38.54,14.57 -45.12,58.74 -66.78,450.09 -474.96,1390.26 -779.27,1690.81 -187.15,184.85 -424.62,295.93 -727.21,239.06 -420.95,-79.08 -783.09,-516.42 -967.46,-830.09 -286.79,-487.89 -470.48,-1089.67 -559.52,-1538.29 -48.99,-246.84 -78.95,-563.66 -48.76,-855.13 28.63,-276.35 111.33,-529.94 283.12,-679.5 199.65,-173.81 495.4,-223.14 748.36,-223.14 484.74,-0.05 778.41,167.11 985.26,202.47 369.34,63.13 1787.95,206.7 2333.5,244.66 131.1,9.12 216.58,18.51 271.12,29.77 59.17,12.22 344.5,31.51 435.98,29.49 310.59,-6.89 638.97,1.58 681.48,17.58 14.94,5.63 79.16,11.91 153.88,15.04 743.68,31.2 2120.03,359.36 2774.31,858.04 161.99,123.52 492.45,504.17 574.03,785.26 9.08,3.61 196.91,-110.49 213.21,-122.55 25.84,-19.13 112.02,-29.86 162.73,-20.28 22.02,4.16 51.99,16.97 70.13,30.01 27.45,19.67 35.7,22.07 61.63,17.92 -14.91,1.68 1068.1,-610.28 1068.1,-651.24 0,-22.77 60.17,-130.2 83.72,-149.49 40.41,-33.09 395.28,-279.24 548.65,-374 34.61,-21.37 58.95,-35.07 67.12,-36.84 31.95,-16.12 116.94,-47.01 220.33,22.34 91.76,61.56 122.72,183.84 75.62,282.76 -10.55,22.2 -22.89,57.96 -27.42,79.48 0,0 -531.55,1463.57 -531.55,1463.57 -66.07,285.85 -435.51,290.48 -463.82,-3.97 -3.55,-36.9 24.1,-147.21 49.27,-196.59 9.72,-19.69 285.72,-790.2 285.72,-790.2 8.13,-15.18 14.79,-34.98 14.79,-44 0,-15.77 -2.36,-16.36 -60.47,-15.04 -33.24,0.75 -76.94,-1.34 -97.09,-4.62 -34.24,-5.6 -38.5,-4.51 -65.11,16.76 0,0 -808.24,502.92 -1075.6,649.19 -31.93,17.47 -34.87,21.6 -43.56,61.07 -14.04,63.88 -47.52,129.9 -79.85,157.47 -49.48,42.2 -75.44,60.57 -103.09,72.99 -67.39,30.28 -172.11,107.9 -242.78,148.24 -55.32,31.58 -71.69,58.74 -71.73,119.11 -0.02,27.87 -2.97,62.21 -6.55,76.33 -3.58,14.12 -10.58,80.14 -15.54,146.71 -45.97,616.11 -288.49,1189.84 -660.83,1678.42 -624.28,819.49 -2080.57,682.95 -2819.63,129.86zm-1864.82 -3356.09c6.61,-10.74 13.85,-529.17 237.02,-712.63l-24.88 -10.4c-41.82,-10.91 -1034.28,-100.49 -1239.57,-125.49 -28.01,-3.42 -31.22,-2.11 -35.31,14.2 135.8,198.06 237.62,614.71 253.58,706.37 11.27,64.81 18.61,69.2 78.91,47.43 272.54,-98.33 609.83,27.29 702.28,87.21 12.87,0.4 25.45,-2.6 27.97,-6.69zm1458.14 -1363.47c-32.88,-8.9 -86.63,-46.43 -205.96,-143.82 -183.56,-149.82 -375.59,-293.25 -556.12,-445.34 -45.7,-38.55 -63.21,-43.76 -117.86,-35.01 -47.56,9.64 -958.17,259.12 -994.59,265.01 -53.89,21.43 -97.91,19.93 -140.06,-4.81 -29.11,-17.08 -39.46,-19.42 -68.35,-15.45 -180.07,24.72 -551.19,168.85 -613.62,163.61 -19.89,-1.04 -458.11,-44.85 -474.36,-49.33 0,0 818.72,-263.17 983.63,-314.07 43.43,-7.48 50.34,-11.29 78.49,-43.14 16.97,-19.21 30.98,-37.12 31.14,-39.8 0.78,-13.5 97.07,-57.31 143.51,-65.3 40.53,-7.48 951.89,-250.55 992.28,-263.49 131.91,-43.86 224,-44.21 276.56,-1.04 12.9,10.61 39.29,31.58 58.61,46.61 247.64,192.67 505.55,394.27 744.22,596.77 201.52,171.06 45.62,398.19 -137.52,348.6z"/>
  </g>
 </g>
</svg>
