<?xml version="1.0" encoding="UTF-8"?>
<!DOCTYPE svg PUBLIC "-//W3C//DTD SVG 1.1//EN" "http://www.w3.org/Graphics/SVG/1.1/DTD/svg11.dtd">
<!-- Creator: CorelDRAW -->
<svg xmlns="http://www.w3.org/2000/svg" xml:space="preserve" width="152.4mm" height="152.4mm" version="1.1" style="shape-rendering:geometricPrecision; text-rendering:geometricPrecision; image-rendering:optimizeQuality; fill-rule:evenodd; clip-rule:evenodd"
viewBox="0 0 15240 15240"
 xmlns:xlink="http://www.w3.org/1999/xlink"
 xmlns:xodm="http://www.corel.com/coreldraw/odm/2003">
 <defs>
  <style type="text/css">
   <![CDATA[
    .fil0 {fill:none}
    .fil1 {fill:#404041}
    .fil2 {fill:#FAF02F}
    .fil3 {fill:white;fill-rule:nonzero}
   ]]>
  </style>
 </defs>
 <g id="Capa_x0020_1">
  <metadata id="CorelCorpID_0Corel-Layer"/>
  <g id="_3018019915040">
   <rect class="fil0" x="-0" y="-0" width="15240" height="15240"/>
   <ellipse id="contour" class="fil1" cx="7620.01" cy="7620" rx="7200.69" ry="7200.73"/>
   <path id="contour_163" class="fil2" d="M7620.01 364.25c4007.22,0 7255.71,3248.52 7255.71,7255.75 0,4007.22 -3248.49,7255.74 -7255.71,7255.74 -4007.22,0 -7255.7,-3248.52 -7255.7,-7255.74 0,-4007.23 3248.48,-7255.75 7255.7,-7255.75zm-0.06 985.8c3462.82,0 6270.01,2807.18 6270.01,6270 0,3462.82 -2807.19,6270.01 -6270.01,6270.01 -3462.82,0 -6270,-2807.19 -6270,-6270.01 0,-3462.82 2807.18,-6270 6270,-6270z"/>
   <g>
    <path id="XMLID_1_" class="fil3" d="M10662.78 11704.6c-59.23,-103.27 -143.32,-143.52 -254.9,-146.6 27.45,-79.77 15.81,-158.54 -28.94,-236.55 -100.07,-174.41 -276.99,-201.05 -499.61,-73.34l-688.51 394.91 568.74 991.47 658.67 -377.83c272.12,-153.06 360.4,-350.11 244.55,-552.06l0 0zm526.9 -197.08c211.79,-43.15 425.65,-173.08 601.94,-391.2 246.14,-304.55 260.62,-558.21 81.6,-702.88 -218.11,-176.29 -431.83,8.17 -617.94,204.77l-37.38 37.83c-116.74,123.38 -219.29,220.79 -278.97,172.57 -53.48,-43.23 -29.87,-139.81 83.23,-279.74 101.45,-125.54 235.34,-211.23 388.45,-257.57l-71.97 -235.06c-177.89,43.32 -357.87,173.42 -484.27,329.81 -271.08,335.41 -210.59,551 -78.89,657.45 214.01,172.95 434.78,-16.01 605.91,-194.09l37.37 -37.83c130.44,-136.12 225.54,-232.75 295.5,-176.2 65.86,53.21 23.53,168.7 -102.86,325.09 -133.05,164.62 -283.89,250.22 -482.92,307.09l61.2 239.96zm-8514.17 -1924.63l68.36 -662.92 167.91 -1.62 15.86 -353.02 223.35 258.74 69.11 208.77 947.36 -43.44 -386.91 -1361.3 -1055.49 -256.78 216.41 -1180.41 1101.86 460.53 719.34 -1642.13 1224.24 -380.26 460.98 9.9 206.35 -142.26 94.1 79.65 387.84 -310.8 221.28 -59.05 -28.75 -442.4 528.21 -300.73 747.74 84.96 216.38 2132.27 -724.77 419.72 -725.19 -216.25 -2.55 -440.63 -252.75 13.85 -341.99 -319.56 -518.77 94.31 -1024.73 254.35 -389.61 1154.31 1809.94 475.22 1334.22 -531.48 626.62 -213.2 2114.05 19.28 284.75 -861.86 586.56 110.43 -308.07 1427.97 -772.64 4.2 -1751.93 184.17 -1609.09 818.97 642.22 1600.04 1017.25 27.06 1057.33 -138.88 589.51 1000.53 -570.24 268.23 -416.58 -562.41 -2153.78 190.88 -1009.62 -1734.91 -1591.62 -501.8 -6.24 1374.01 -1595.68 -179.89 -442.13 165.64zm4193.47 -4747.12l360.12 320.85 91.12 2.18 7.01 -600.62 -49.18 -0.96 -409.07 278.55zm-4062.32 4577.27l296.71 -111.16 1497.48 168.82 6.37 -1401.51 1779.66 561.08 995.31 1710.32 2176.44 -202.8 393.82 549.83 349.69 -172.09 -489.68 -831.1 -992.01 130.3 -1100.38 -29.27 -708.4 -1764.91 1719.88 -875.36 1778.33 -186.95 687.51 -3.74 264.46 -1225.81 -375.29 -70.65 -279.59 846.26 -2177.31 -19.86 -605.67 206.07 -1366.1 544.18 -1963.04 -515.42 448.13 -1327.69 1088.29 -270.13 390.89 -71.06 -66.63 -108.65 133.82 -33.79 120.11 108.39 348.27 325.43 323.15 -17.71 2.75 475.6 598.2 178.39 619.38 -358.69 -199.82 -1969.01 -620.59 -70.51 -434.7 247.49 30.18 464.45 -287.97 76.85 -514.71 391.3 -89.87 -94.77 -101.75 87.59 -479.11 -10.29 -1157.37 359.49 -743.22 1696.64 -1074.93 -449.27 -171.85 937.4 1015.77 247.11 443.94 1561.95 -1175.5 53.91 -88.97 -268.76 -22.93 -26.57 -7.91 175.99 -173.95 1.68 -39.29 381.01zm3879 -4589.2l558.56 -380.34 197.35 3.85 -9.65 827.19 -247.02 -5.91 -499.24 -444.79zm-2800.52 -1383.19l185.32 -140.94 581.9 205.65c45.06,15.59 81.14,28.04 124.11,45.22 -5.07,-46.02 -7.44,-84.09 -10.41,-131.7l-40.64 -617.28 170.57 -129.74 691.92 909.77 -202.18 153.76 -344.36 -452.77c-20.82,-27.38 -40.04,-52.66 -57.15,-79.52 3.39,30.67 7.86,67.15 10.24,105.23l39.38 584.99 -562.25 -197.3c-36.06,-12.46 -66.31,-26.02 -98.17,-41.68 21.33,23.67 40.56,48.94 61.37,76.33l349.16 459.09 -204.3 155.35 -690.3 -907.65 -4.21 3.19zm3287.69 -300.71l271.08 -50.77 -761.97 -1019.12 -225.49 42.21 -362.93 1229.81 266.03 -49.82 78.87 -278.34 565 -105.81 169.41 231.84zm-664.03 -378.55l80.5 -284.02c9.66,-34.09 19.31,-68.16 24.83,-96.09 14.73,24.14 35.49,52.51 56.22,80.9l175.42 236.09 -336.97 63.12zm2372.88 576.24l303.97 71.24 -190.09 -487.51c190.58,-1.53 322.59,-101.01 363.04,-273.61 52.53,-224.11 -76.38,-392.93 -357.16,-458.74l-710.98 -166.64 -260.83 1112.82 257.59 60.38 93.59 -399.29 324.59 76.1 176.28 465.25zm-389.17 -1017.9l455.97 106.88c128.79,30.18 164.87,84.85 146.16,164.7 -18.7,79.86 -77.91,112.19 -204.13,82.6l-455.95 -106.88 57.95 -247.3zm1570 883.23c-225.12,274.91 -176.72,611.73 150.75,879.86 198.1,162.22 410.42,224.64 639.66,196.22l-27.85 -242.31c-188.24,11.33 -320.03,-25.66 -459.51,-139.86 -194.07,-158.91 -229.65,-367.03 -98.88,-526.72 130.76,-159.7 341.07,-173.23 539.16,-11.01 119.27,97.65 176.41,205.22 210.9,365.16l256.29 -36.65c-42.96,-207.39 -142.7,-370.13 -316.54,-512.48 -311.31,-254.9 -673.84,-241.07 -893.98,27.79zm-6697.14 6994.53c-279,206.21 -305.99,473.26 -89.53,755.41 219.63,286.31 461.53,325.32 706.7,144.1l549.55 -406.17 -159.17 -207.48 -532.63 393.67c-122.58,90.64 -257.01,79.45 -368.42,-65.78 -116.2,-151.46 -88.46,-305.26 76.42,-427.12l33.81 -24.99 -159.15 -207.46 -59.18 43.74 1.6 2.08zm1637.43 2251.45l237.05 148.89 92.65 -1281.6 -195.33 -122.7 -1067.22 669.47 230.47 144.76 239.12 -153.75 489.47 307.45 -26.21 287.48zm-247.2 -735.26l243.98 -156.87c29.28,-18.82 58.54,-37.65 80.76,-54.72 -4.64,28.11 -7.59,63.48 -10.52,98.83l-22.31 296.14 -291.91 -183.38zm1174.03 537.38c-81.3,350.52 113.49,634.75 531.04,731.59 252.58,58.6 473.34,20.18 668.82,-108.32l-133.82 -207.57c-165.9,94.6 -302.17,120.02 -480,78.78 -247.44,-57.41 -372.97,-230.48 -325.74,-434.11 47.23,-203.6 232.18,-310.07 484.78,-251.48 152.06,35.27 252.12,107.39 355.11,237.18l216.32 -148.08c-131.88,-169.12 -295.39,-272.24 -517.02,-323.65 -396.93,-92.07 -719.99,82.87 -799.49,425.66zm1747.38 191.02c3.52,351.89 286.06,587.43 685.49,583.82 402.21,-3.65 677.19,-244.31 673.68,-596.18 -3.52,-351.88 -286.09,-592.72 -685.51,-589.1 -402.22,3.64 -677.14,252.24 -673.66,601.46zm1073.48 -9.76c2.11,211.65 -154.65,348.03 -393.19,350.19 -238.53,2.16 -397.99,-131.34 -400.12,-342.98 -2.09,-211.64 157.35,-355.97 393.11,-358.12 235.77,-2.16 398.1,139.25 400.2,350.91zm1226.65 -965.82c89.54,-51.35 150.26,-46.53 184.47,13.15 34.24,59.66 6.43,112.23 -83.07,163.56l-442.94 254.08 -101.38 -176.72 442.92 -254.07zm453.86 371.05c36.85,64.26 19.24,129.29 -86.33,189.83l-477.37 273.83 -114.53 -199.67 479.65 -275.13c98.7,-56.61 164.34,-48.51 198.58,11.14l0 0z"/>
   </g>
  </g>
 </g>
</svg>
