<?xml version="1.0" encoding="UTF-8"?>
<!DOCTYPE svg PUBLIC "-//W3C//DTD SVG 1.1//EN" "http://www.w3.org/Graphics/SVG/1.1/DTD/svg11.dtd">
<!-- Creator: CorelDRAW -->
<svg xmlns="http://www.w3.org/2000/svg" xml:space="preserve" width="152.4mm" height="152.4mm" version="1.1" style="shape-rendering:geometricPrecision; text-rendering:geometricPrecision; image-rendering:optimizeQuality; fill-rule:evenodd; clip-rule:evenodd"
viewBox="0 0 15240 15240"
 xmlns:xlink="http://www.w3.org/1999/xlink"
 xmlns:xodm="http://www.corel.com/coreldraw/odm/2003">
 <defs>
  <style type="text/css">
   <![CDATA[
    .fil0 {fill:none}
    .fil1 {fill:black}
    .fil2 {fill:#FFF200}
    .fil3 {fill:white;fill-rule:nonzero}
   ]]>
  </style>
 </defs>
 <g id="Capa_x0020_1">
  <metadata id="CorelCorpID_0Corel-Layer"/>
  <g id="_3017583396032">
   <rect class="fil0" x="-0" y="-0" width="15240" height="15240"/>
   <path class="fil1" d="M5302.97 620.06c602.29,-87.67 1258.56,-139.78 1925.26,-155.94l0 -2.44c130.23,-2.33 260.7,-3.31 391.1,-2.91l1.35 0c130.4,-0.4 260.88,0.57 391.1,2.91l0 2.44c666.7,16.16 1322.97,68.27 1925.26,155.94 1168.23,170.04 2034.35,454.91 2991.98,961.24 375,198.28 624.47,507.53 738.86,916.01 546.7,1952.26 593.62,4475.73 -355.27,6693.43 -1022.72,2390.25 -2931.53,4171.57 -5219.41,5347.67l-81.42 41.85 0 0.18 -19.03 9.6 -369.3 189.85 -3.43 1.43 -3.46 -1.43 -369.29 -189.85 -19.04 -9.6 0 -0.18 -81.42 -41.85c-2287.88,-1176.1 -4196.69,-2957.42 -5219.4,-5347.67 -948.9,-2217.7 -901.98,-4741.17 -355.27,-6693.43 114.39,-408.48 363.85,-717.73 738.85,-916.01 957.63,-506.33 1823.76,-791.2 2991.98,-961.24z"/>
   <path class="fil2" d="M5272.5 527.99c610.21,-88.82 1275.11,-141.62 1950.58,-157.99l0 -2.47c131.94,-2.36 264.13,-3.35 396.24,-2.95l1.37 0c132.12,-0.4 264.31,0.58 396.24,2.95l0 2.47c675.47,16.37 1340.37,69.17 1950.59,157.99 1183.59,172.28 2061.1,460.89 3031.33,973.89 379.93,200.88 632.68,514.2 748.57,928.05 553.9,1977.94 601.43,4534.6 -359.94,6781.46 -1036.17,2421.7 -2970.08,4226.45 -5288.06,5418.02l-82.49 42.4 0 0.18 -19.28 9.73 -374.16 192.34 -3.47 1.45 -3.5 -1.45 -374.16 -192.34 -19.28 -9.73 0 -0.18 -82.49 -42.4c-2317.98,-1191.57 -4251.89,-2996.32 -5288.05,-5418.02 -961.38,-2246.86 -913.85,-4803.52 -359.95,-6781.46 115.9,-413.85 368.64,-727.17 748.58,-928.05 970.22,-513 1847.74,-801.61 3031.33,-973.89zm151.33 1039.69c-1063.03,154.73 -2023.76,454.89 -2852.19,943.01 -1334,4290.73 309.12,8747.6 5049.28,11184.3 4789.49,-2416.98 6493.14,-6893.57 5159.14,-11184.3 -810,-477.25 -1746.44,-774.83 -2781.36,-932.47 -1360.59,-207.25 -3211.6,-208.97 -4574.87,-10.54z"/>
   <path id="XMLID_1_" class="fil3" d="M6444.59 11726.08c-199.15,323.02 -100.02,672.62 284.77,909.87 232.76,143.51 466.37,179.35 704.98,116.66l-63.96 -252.5c-197.64,38.77 -342.41,18.34 -506.29,-82.69 -228.01,-140.59 -295.28,-355.8 -179.61,-543.43 115.69,-187.63 336.37,-231.88 569.14,-88.36 140.14,86.38 215.91,192.12 275.17,356.5l266.06 -75.27c-74.96,-213.4 -203.71,-371.44 -407.96,-497.39 -365.77,-225.52 -747.54,-159.3 -942.3,156.61zm-4140.04 -7086.42l558.56 -518.18 107.68 107.67 262.45 -235.53 6.73 376.86 -87.48 181.7 868.12 632.58 632.58 -1426.68 -713.34 -962.34 1016.27 -847.69 608.88 1167.73 1768.27 -884.14 1305.83 541.52 383.68 333.64 275.26 25.03 0 133.45 571.53 10.7 229.2 106.08 287.78 -395.22 664.91 96.24 568.68 621.17 -1321.08 1959.75 -874.89 -183.73 -472.44 -682.41 332.46 -367.45 -235.58 -167.19 -44.38 -471.48 -454.94 -481.19 -1198.6 -402.45 -1102.36 761.16 1198.6 1679.78 1505.74 490.96 681.48 261.44 1778.03 1507.95 849.42 -529.51 419.19 507.45 -1268.61 992.82 -584.66 -573.63 -1687.8 -1047.98 -1941.53 -441.26 -584.66 1809.15 843.02 740.67 994.06 628.32 -206.34 1263.88 -651.17 -157.24 56.67 -777.91 -1994.24 -1368.31 407.08 -2198.22 -1046.98 -1553.77 -961.22 1181.11 -1225.4 -1278.32 -524.46 -166.98zm6961.85 -1071.26l141.15 611.65 255.42 235.25 490.66 -705.75 -332.71 -157.95 -554.52 16.8zm-5495.84 2888.48l63.65 230.99 -430.57 473.99c-33.02,36.85 -59.42,66.35 -93.15,100.58 46.75,13.01 84.72,25.52 132.21,41.15l616.48 200.62 58.59 212.6 -1159.01 305.74 -69.44 -252 576.82 -152.15c34.88,-9.2 67.06,-17.69 99.99,-23.56 -31.18,-8.67 -68.43,-18.55 -106.42,-31.06l-584.58 -189.3 414.71 -458.53c26.39,-29.49 51.56,-53.03 79.41,-77.26 -31.46,11.12 -63.67,19.6 -98.54,28.8l-584.88 154.29 -70.15 -254.63 1156.33 -305.03 -1.45 -5.24zm122.45 3395.76l147.18 253.27 717.27 -1119.79 -122.45 -210.66 -1328.02 68.74 144.44 248.55 299.39 -18.8 306.77 527.88 -164.58 250.81zm129.03 -796.98l305.49 -19.19c36.66,-2.3 73.31,-4.6 102.49,-8.9 -18.18,23.22 -38.33,53.95 -58.49,84.64l-166.55 258.3 -182.94 -314.85zm1192.81 2412.76l228.42 236.52 109.9 -540.06c169.59,107.39 343.24,94.65 477.52,-35.06 174.37,-168.44 156.57,-391.45 -54.44,-609.91l-534.35 -553.21 -865.87 836.35 193.62 200.44 310.66 -300.08 243.94 252.56 -109.4 512.45zm236.24 -1123.15l342.69 354.75c96.79,100.23 97.56,169.22 35.44,229.23 -62.14,60.02 -132.99,54.85 -227.86,-43.36l-342.67 -354.77 192.4 -185.85z"/>
  </g>
 </g>
</svg>
