<?xml version="1.0" encoding="UTF-8"?>
<!DOCTYPE svg PUBLIC "-//W3C//DTD SVG 1.1//EN" "http://www.w3.org/Graphics/SVG/1.1/DTD/svg11.dtd">
<!-- Creator: CorelDRAW -->
<svg xmlns="http://www.w3.org/2000/svg" xml:space="preserve" width="152.4mm" height="152.4mm" version="1.1" style="shape-rendering:geometricPrecision; text-rendering:geometricPrecision; image-rendering:optimizeQuality; fill-rule:evenodd; clip-rule:evenodd"
viewBox="0 0 15240 15240"
 xmlns:xlink="http://www.w3.org/1999/xlink"
 xmlns:xodm="http://www.corel.com/coreldraw/odm/2003">
 <defs>
  <style type="text/css">
   <![CDATA[
    .fil0 {fill:none}
    .fil2 {fill:#7E5E27}
    .fil1 {fill:#83D3F4}
   ]]>
  </style>
 </defs>
 <g id="Capa_x0020_1">
  <metadata id="CorelCorpID_0Corel-Layer"/>
  <g id="_1904132199856">
   <rect class="fil0" x="-0" y="-0" width="15240" height="15240"/>
   <ellipse id="contour" class="fil1" cx="7620.01" cy="7620" rx="7200.69" ry="7200.73"/>
   <path id="contour_8" class="fil2" d="M7620.01 364.25c4007.22,0 7255.71,3248.52 7255.71,7255.75 0,4007.22 -3248.49,7255.74 -7255.71,7255.74 -4007.22,0 -7255.7,-3248.52 -7255.7,-7255.74 0,-4007.23 3248.48,-7255.75 7255.7,-7255.75zm-0.06 985.8c3462.82,0 6270.01,2807.18 6270.01,6270 0,3462.82 -2807.19,6270.01 -6270.01,6270.01 -3462.82,0 -6270,-2807.19 -6270,-6270.01 0,-3462.82 2807.18,-6270 6270,-6270z"/>
   <path class="fil2" d="M8910.17 8692.72c-1439.71,153.65 -2714.94,12.58 -3805.55,-459.29 68.16,-1330.27 145.22,-2651.62 257.66,-3937.57 63.32,-684.24 418.33,-1028.4 881.11,-1040.4 606.82,-15.73 923.33,485.19 1468.19,502.44 414.57,13.12 856.46,-499.29 1362.04,-508.84 521.64,-9.87 889.76,418.93 951.97,949.18 71.39,1415.32 71.58,2839.02 107.37,4258.53l1835.41 -508.24c292.87,-81.09 951.2,-312.42 1179.55,-92.18 244.15,235.51 -85.76,772.51 -238.82,997.77 -368.11,541.7 -882.77,991.83 -1602.14,1314.02 -186.62,-132.2 -414.55,-209.93 -660.61,-209.93 -506.27,0 -935.78,328.98 -1086.54,784.76 -615.87,121.73 -1271.29,179.59 -1961.9,180.59 -515.09,4.89 -995.73,-26.83 -1446.55,-90.22 -121.07,-502.02 -573.16,-875.13 -1112.31,-875.13 -324.89,0 -618.17,135.49 -826.48,353.01 -8.85,-3.65 -17.71,-7.29 -26.53,-10.98 -639.45,-224.38 -1191.28,-560.74 -1633.33,-1037.34 -260.37,-280.71 -703.07,-859.32 -497.14,-1258.99 216.09,-419.44 1192.71,-26.71 1561.91,83 3034.54,901.9 4357.71,860.81 5292.69,605.81zm1736.18 1556.72c485.13,0 878.41,393.28 878.41,878.41 0,485.13 -393.28,878.41 -878.41,878.41 -485.13,0 -878.41,-393.28 -878.41,-878.41 0,-485.13 393.28,-878.41 878.41,-878.41zm0 571.41c169.55,0 307,137.45 307,307 0,169.55 -137.45,307 -307,307 -169.55,0 -307,-137.45 -307,-307 0,-169.55 137.45,-307 307,-307zm-5607.3 -571.41c485.13,0 878.41,393.28 878.41,878.41 0,485.13 -393.28,878.41 -878.41,878.41 -485.13,0 -878.41,-393.28 -878.41,-878.41 0,-485.13 393.28,-878.41 878.41,-878.41zm0 571.41c169.55,0 307,137.45 307,307 0,169.55 -137.45,307 -307,307 -169.55,0 -307,-137.45 -307,-307 0,-169.55 137.45,-307 307,-307z"/>
  </g>
 </g>
</svg>
