<?xml version="1.0" encoding="UTF-8"?>
<!DOCTYPE svg PUBLIC "-//W3C//DTD SVG 1.1//EN" "http://www.w3.org/Graphics/SVG/1.1/DTD/svg11.dtd">
<!-- Creator: CorelDRAW -->
<svg xmlns="http://www.w3.org/2000/svg" xml:space="preserve" width="152.4mm" height="152.4mm" version="1.1" style="shape-rendering:geometricPrecision; text-rendering:geometricPrecision; image-rendering:optimizeQuality; fill-rule:evenodd; clip-rule:evenodd"
viewBox="0 0 15240 15240"
 xmlns:xlink="http://www.w3.org/1999/xlink"
 xmlns:xodm="http://www.corel.com/coreldraw/odm/2003">
 <defs>
  <style type="text/css">
   <![CDATA[
    .fil0 {fill:none}
    .fil3 {fill:#E0ABA2}
    .fil4 {fill:#F26122}
    .fil2 {fill:white}
    .fil1 {fill:url(#id0)}
   ]]>
  </style>
  <radialGradient id="id0" gradientUnits="userSpaceOnUse" gradientTransform="matrix(1.10223 -0.11242 0.11242 1.10223 -1636 78)" cx="7619.97" cy="7619.96" r="1492.79" fx="7619.97" fy="7619.96">
   <stop offset="0" style="stop-opacity:1; stop-color:#A93235"/>
   <stop offset="0.94902" style="stop-opacity:1; stop-color:#A03133"/>
   <stop offset="1" style="stop-opacity:1; stop-color:#973132"/>
  </radialGradient>
 </defs>
 <g id="Capa_x0020_1">
  <metadata id="CorelCorpID_0Corel-Layer"/>
  <g id="_1788432065200">
   <rect class="fil0" x="-0" y="-0" width="15240" height="15240"/>
   <ellipse id="contour" class="fil1" cx="7620.01" cy="7620" rx="7255.7" ry="7255.74"/>
   <path class="fil2" d="M9813.84 10848.39l-156.39 -519.11 -173.24 519.11 329.63 0zm101.03 -1085.33l632.76 1691.76 -552.17 0 -72.19 -238.9 -561.77 0 -79.39 238.9 -552.15 0 665.24 -1691.76 519.67 0zm-3774.85 1085.33l-156.03 -519.11 -173.51 519.11 329.54 0zm101.8 -1085.33l633.78 1691.76 -553.65 0 -71.68 -238.9 -562.69 0 -80.12 238.9 -553.03 0 666.31 -1691.76 521.08 0zm-2765.9 441.02l0 -441.02 1490.82 0 0 381.88 -831.29 868.85c-3.51,12.09 0.66,19.76 12.52,22.97l837.86 0 0 418.06 -1543.3 0 0 -408.87 -0.6 0 803.85 -826.93c2.64,-6.47 0.62,-11.44 -5.97,-14.93l-763.89 -0.01zm3838.22 -396.06c117.47,-60.33 257.37,-95.25 419.73,-104.75 188.65,2.14 346.52,36.28 473.66,102.4 197.15,102.63 320.3,282.29 369.48,538.94l-534.3 0c-27.1,-120.52 -92.45,-190.74 -196.08,-210.67 -139.71,-23.19 -248.19,15.82 -325.36,117.04 -4.49,7.04 -9.2,14.44 -14.12,22.24 -5.7,7.81 -10.61,15.98 -14.68,24.58 -6.54,12.49 -13.07,25.74 -19.62,39.79 -4.06,8.59 -7.33,17.94 -9.79,28.1 -3.28,10.93 -6.11,21.85 -8.57,32.77 -1.64,10.14 -3.69,20.28 -6.11,30.42 -3.28,14.04 -6.13,28.48 -8.59,43.3 -42.38,281.91 31.16,470.35 220.58,565.27l19.62 9.34c205.38,68.71 354.06,9.42 446.06,-177.87l-254.87 -0.02 0 -351.09 735.28 0 0 936.26 -362.77 0 0 -168.54c-70.28,64.19 -142.61,113.35 -216.91,147.45 -44.65,20.16 -90,35.01 -136.02,44.49 -163.25,27.69 -313.57,18.32 -450.99,-28.09 -40.02,-13.23 -78.21,-29.41 -114.57,-48.58 -185.45,-97.5 -323.71,-271.69 -414.82,-522.55 -46.27,-181.81 -49.56,-351.9 -9.82,-510.26 67.3,-266.5 205.17,-453.17 413.58,-559.97zm4612.21 1429.38c-10.28,-18.91 -25.34,-33.48 -45.1,-43.79 -18.89,-10.33 -38.21,-15.45 -57.96,-15.45 -20.61,0 -40.77,5.14 -60.52,15.45 -18.91,10.31 -33.49,24.9 -43.8,43.79 -11.16,19.73 -16.76,39.91 -16.76,60.52 0,20.61 5.17,40.81 15.49,60.55 11.17,18.03 26.18,32.63 45.09,43.79 18.9,10.32 39.07,15.49 60.53,15.49 20.6,0 40.36,-5.17 59.24,-15.49 18.9,-11.14 33.5,-25.75 43.79,-43.79 10.33,-19.74 15.49,-39.94 15.49,-60.55 0,-20.61 -5.17,-40.79 -15.49,-60.52zm20.61 -11.62c13.77,23.22 20.62,47.23 20.62,72.12 0,24.91 -6.87,48.97 -20.62,72.12 -12.01,22.33 -29.61,39.94 -52.8,52.83 -23.16,12.88 -46.79,19.33 -70.86,19.33 -25.75,0 -49.8,-6.42 -72.11,-19.33 -23.19,-12.89 -41.19,-30.5 -54.07,-52.83 -12.03,-23.15 -18.05,-47.21 -18.05,-72.12 0,-24.89 6.02,-48.91 18.05,-72.12 12.88,-23.2 30.89,-40.75 54.07,-52.79 23.21,-12.89 47.22,-19.34 72.11,-19.34 24.05,0 47.24,6.41 69.56,19.34 23.21,12.04 41.23,29.62 54.1,52.79zm-97.89 28.34c-3.42,-3.42 -6.87,-6.02 -10.28,-7.72 -5.17,-1.71 -13.77,-2.55 -25.76,-2.55l-28.36 0 0 46.35 29.63 0c14.59,0 24.48,-2.12 29.6,-6.42 6.02,-4.3 9.04,-9.9 9.04,-16.75 0.02,-5.17 -1.27,-9.46 -3.87,-12.91zm21.9 -12.87c5.14,6.85 7.72,14.62 7.72,23.2 0,11.16 -3.86,21.03 -11.58,29.62 -8.6,8.59 -19.74,13.31 -33.49,14.18 6.03,2.55 10.72,5.16 14.18,7.71 6.01,6.03 13.31,16.32 21.88,30.93l20.62 30.92 -30.91 -0.01 -14.17 -24.48c-11.16,-19.73 -20.22,-31.77 -27.06,-36.07 -3.43,-3.42 -9.88,-5.17 -19.32,-5.17l-14.17 0.03 0 65.69 -25.76 0 0 -155.87 54.12 0.01c18.02,0 30.89,1.31 38.64,3.86 8.58,3.44 15.01,8.56 19.3,15.45zm84.55 -1037.17l-509.18 0 0 1250.74 -546.09 0 0 -1250.74 -505.47 0 0 -441.02 1560.74 0 0 441.02z"/>
   <path id="contour_3" class="fil3" d="M2161.51 2840.24c166.37,-189.82 342.53,-370.81 527.6,-542.36 207.22,203.89 525.72,519.61 630.51,636.34l362.4 403.68c574.57,275.91 1416.65,912.72 2593.12,1831.48 975.46,761.77 1692.77,1322.41 2319.61,2413.02 152.08,264.61 286.75,541.87 399.23,831.98 54.06,139.47 48.85,239.75 -16.76,301.52 -90.06,84.79 -180.54,156.47 -297.75,207.39 -819.13,-27.62 -3072.93,-2398.54 -5693.69,-5368.79l-213.01 -185.7c-89,-77.59 -391.82,-352.86 -611.26,-528.56zm2135.53 -1671.77c116.32,-60.06 234.49,-117.04 354.37,-170.88l346.18 360.43 946.21 902.88c218.55,175.84 690.57,231.43 1243.98,248.42 674.25,-1.27 1214.73,761.98 1319.75,837.42l2689.25 2793.32 -259.28 257.66 -2885.44 -2684.18c-378.33,-356.71 -568.93,-50.65 -244.45,250.24l2815.11 2772.98 -261.59 278.89 -2907.14 -2698.76c-339.96,-302.46 -568.01,-133.27 -240.74,244.27l2833.11 2771.11 -233.99 248.62 -2837.69 -2507.23c-341.7,-301.91 -898.15,-744.06 -934.24,-1213.72 -32.95,-679.87 -146.21,-1103.92 -297.54,-1326.72l-1145.47 -1114.51 -300.39 -250.24z"/>
   <path id="contour_4" class="fil4" d="M7620.01 364.25c4007.22,0 7255.71,3248.52 7255.71,7255.75 0,4007.22 -3248.49,7255.74 -7255.71,7255.74 -4007.22,0 -7255.7,-3248.52 -7255.7,-7255.74 0,-4007.23 3248.48,-7255.75 7255.7,-7255.75zm-0.06 985.8c3462.82,0 6270.01,2807.18 6270.01,6270 0,3462.82 -2807.19,6270.01 -6270.01,6270.01 -3462.82,0 -6270,-2807.19 -6270,-6270.01 0,-3462.82 2807.18,-6270 6270,-6270z"/>
  </g>
 </g>
</svg>
