<?xml version="1.0" encoding="UTF-8"?>
<!DOCTYPE svg PUBLIC "-//W3C//DTD SVG 1.1//EN" "http://www.w3.org/Graphics/SVG/1.1/DTD/svg11.dtd">
<!-- Creator: CorelDRAW -->
<svg xmlns="http://www.w3.org/2000/svg" xml:space="preserve" width="152.4mm" height="152.4mm" version="1.1" style="shape-rendering:geometricPrecision; text-rendering:geometricPrecision; image-rendering:optimizeQuality; fill-rule:evenodd; clip-rule:evenodd"
viewBox="0 0 15240 15240"
 xmlns:xlink="http://www.w3.org/1999/xlink"
 xmlns:xodm="http://www.corel.com/coreldraw/odm/2003">
 <defs>
  <style type="text/css">
   <![CDATA[
    .fil0 {fill:none}
    .fil1 {fill:#910626}
    .fil2 {fill:#920626}
    .fil4 {fill:#930526}
    .fil3 {fill:#930626}
    .fil5 {fill:#940526}
    .fil6 {fill:#950526}
    .fil7 {fill:#950527}
    .fil8 {fill:#960527}
    .fil9 {fill:#970527}
    .fil10 {fill:#980427}
    .fil11 {fill:#990427}
    .fil12 {fill:#9A0427}
    .fil13 {fill:#9B0427}
    .fil14 {fill:#9C0327}
    .fil15 {fill:#9D0327}
    .fil16 {fill:#9E0328}
    .fil17 {fill:#9F0328}
    .fil18 {fill:#A00228}
    .fil19 {fill:#A10228}
    .fil20 {fill:#A20228}
    .fil21 {fill:#A30228}
    .fil22 {fill:#A40128}
    .fil23 {fill:#A50128}
    .fil24 {fill:#A60128}
    .fil25 {fill:#A60129}
    .fil26 {fill:#A70129}
    .fil28 {fill:#A80029}
    .fil27 {fill:#A80129}
    .fil29 {fill:#A90029}
    .fil30 {fill:#AA0029}
    .fil32 {fill:#E0ABA2}
    .fil33 {fill:#F26122}
    .fil31 {fill:white}
   ]]>
  </style>
 </defs>
 <g id="Capa_x0020_1">
  <metadata id="CorelCorpID_0Corel-Layer"/>
  <g id="_1752625643072">
   <rect class="fil0" x="-0" y="-0" width="15240" height="15240"/>
   <ellipse id="contour" class="fil1" cx="7620.01" cy="7620" rx="7255.7" ry="7255.74"/>
   <g>
    <rect class="fil0" x="344.94" y="344.94" width="14550.12" height="14550.12"/>
    <ellipse id="contour_5" class="fil1" cx="7620.01" cy="7620" rx="6927.26" ry="6927.29"/>
    <path class="fil2" d="M7620.01 720.35c3810.56,0 6899.61,3089.08 6899.61,6899.65 0,3810.56 -3089.05,6899.64 -6899.61,6899.64 -3810.56,0 -6899.6,-3089.08 -6899.6,-6899.64 0,-3810.57 3089.04,-6899.65 6899.6,-6899.65z"/>
    <path class="fil2" d="M7620.01 748c3795.28,0 6871.96,3076.71 6871.96,6872 0,3795.28 -3076.68,6871.99 -6871.96,6871.99 -3795.28,0 -6871.95,-3076.71 -6871.95,-6871.99 0,-3795.29 3076.67,-6872 6871.95,-6872z"/>
    <path class="fil3" d="M7620.01 775.66c3780.01,0 6844.31,3064.32 6844.31,6844.34 0,3780.01 -3064.3,6844.33 -6844.31,6844.33 -3780.01,0 -6844.3,-3064.32 -6844.3,-6844.33 0,-3780.02 3064.29,-6844.34 6844.3,-6844.34z"/>
    <path class="fil4" d="M7620.01 803.31c3764.74,0 6816.66,3051.94 6816.66,6816.69 0,3764.74 -3051.92,6816.68 -6816.66,6816.68 -3764.74,0 -6816.66,-3051.94 -6816.66,-6816.68 0,-3764.75 3051.92,-6816.69 6816.66,-6816.69z"/>
    <path class="fil5" d="M7620.01 830.96c3749.47,0 6789.01,3039.56 6789.01,6789.04 0,3749.47 -3039.54,6789.03 -6789.01,6789.03 -3749.47,0 -6789.01,-3039.56 -6789.01,-6789.03 0,-3749.48 3039.54,-6789.04 6789.01,-6789.04z"/>
    <path class="fil6" d="M7620.01 858.61c3734.2,0 6761.36,3027.18 6761.36,6761.39 0,3734.2 -3027.16,6761.39 -6761.36,6761.39 -3734.2,0 -6761.36,-3027.19 -6761.36,-6761.39 0,-3734.21 3027.16,-6761.39 6761.36,-6761.39z"/>
    <path class="fil7" d="M7620.01 886.25c3718.93,0 6733.71,3014.81 6733.71,6733.75 0,3718.93 -3014.78,6733.74 -6733.71,6733.74 -3718.93,0 -6733.71,-3014.81 -6733.71,-6733.74 0,-3718.94 3014.78,-6733.75 6733.71,-6733.75z"/>
    <path class="fil8" d="M7620.01 913.91c3703.65,0 6706.06,3002.43 6706.06,6706.09 0,3703.65 -3002.41,6706.09 -6706.06,6706.09 -3703.66,0 -6706.06,-3002.44 -6706.06,-6706.09 0,-3703.66 3002.4,-6706.09 6706.06,-6706.09z"/>
    <path class="fil8" d="M7620.01 941.56c3688.39,0 6678.41,2990.04 6678.41,6678.44 0,3688.39 -2990.02,6678.43 -6678.41,6678.43 -3688.39,0 -6678.41,-2990.04 -6678.41,-6678.43 0,-3688.4 2990.02,-6678.44 6678.41,-6678.44z"/>
    <path class="fil9" d="M7620.01 969.21c3673.11,0 6650.76,2977.67 6650.76,6650.79 0,3673.11 -2977.65,6650.78 -6650.76,6650.78 -3673.12,0 -6650.76,-2977.67 -6650.76,-6650.78 0,-3673.12 2977.64,-6650.79 6650.76,-6650.79z"/>
    <path class="fil10" d="M7620.01 996.86c3657.85,0 6623.11,2965.28 6623.11,6623.14 0,3657.85 -2965.26,6623.13 -6623.11,6623.13 -3657.85,0 -6623.1,-2965.28 -6623.1,-6623.13 0,-3657.86 2965.25,-6623.14 6623.1,-6623.14z"/>
    <path class="fil10" d="M7620.01 1024.51c3642.57,0 6595.46,2952.91 6595.46,6595.49 0,3642.57 -2952.89,6595.48 -6595.46,6595.48 -3642.58,0 -6595.45,-2952.91 -6595.45,-6595.48 0,-3642.58 2952.87,-6595.49 6595.45,-6595.49z"/>
    <path class="fil11" d="M7620.01 1052.17c3627.3,0 6567.8,2940.52 6567.8,6567.83 0,3627.3 -2940.5,6567.83 -6567.8,6567.83 -3627.31,0 -6567.8,-2940.53 -6567.8,-6567.83 0,-3627.31 2940.49,-6567.83 6567.8,-6567.83z"/>
    <path class="fil12" d="M7620.01 1079.82c3612.03,0 6540.15,2928.14 6540.15,6540.18 0,3612.04 -2928.12,6540.18 -6540.15,6540.18 -3612.04,0 -6540.16,-2928.14 -6540.16,-6540.18 0,-3612.04 2928.12,-6540.18 6540.16,-6540.18z"/>
    <path class="fil12" d="M7620.01 1107.47c3596.76,0 6512.51,2915.76 6512.51,6512.53 0,3596.76 -2915.75,6512.52 -6512.51,6512.52 -3596.76,0 -6512.51,-2915.76 -6512.51,-6512.52 0,-3596.77 2915.75,-6512.53 6512.51,-6512.53z"/>
    <path class="fil13" d="M7620.01 1135.11c3581.49,0 6484.86,2903.39 6484.86,6484.89 0,3581.5 -2903.37,6484.88 -6484.86,6484.88 -3581.5,0 -6484.86,-2903.38 -6484.86,-6484.88 0,-3581.5 2903.36,-6484.89 6484.86,-6484.89z"/>
    <path class="fil13" d="M7620.01 1162.76c3566.22,0 6457.21,2891.01 6457.21,6457.24 0,3566.22 -2890.99,6457.23 -6457.21,6457.23 -3566.23,0 -6457.21,-2891.01 -6457.21,-6457.23 0,-3566.23 2890.98,-6457.24 6457.21,-6457.24z"/>
    <path class="fil14" d="M7620.01 1190.42c3550.94,0 6429.56,2878.63 6429.56,6429.58 0,3550.95 -2878.62,6429.58 -6429.56,6429.58 -3550.96,0 -6429.56,-2878.63 -6429.56,-6429.58 0,-3550.95 2878.6,-6429.58 6429.56,-6429.58z"/>
    <path class="fil15" d="M7620.01 1218.07c3535.68,0 6401.91,2866.24 6401.91,6401.93 0,3535.68 -2866.23,6401.93 -6401.91,6401.93 -3535.69,0 -6401.91,-2866.25 -6401.91,-6401.93 0,-3535.69 2866.22,-6401.93 6401.91,-6401.93z"/>
    <path class="fil15" d="M7620.01 1245.72c3520.4,0 6374.26,2853.87 6374.26,6374.28 0,3520.41 -2853.86,6374.28 -6374.26,6374.28 -3520.41,0 -6374.26,-2853.87 -6374.26,-6374.28 0,-3520.41 2853.85,-6374.28 6374.26,-6374.28z"/>
    <path class="fil16" d="M7620 1273.37c3505.15,0 6346.61,2841.48 6346.61,6346.63 0,3505.14 -2841.46,6346.62 -6346.61,6346.62 -3505.14,0 -6346.6,-2841.48 -6346.6,-6346.62 0,-3505.15 2841.46,-6346.63 6346.6,-6346.63z"/>
    <path class="fil16" d="M7620 1301.02c3489.87,0 6318.96,2829.11 6318.96,6318.98 0,3489.87 -2829.09,6318.97 -6318.96,6318.97 -3489.86,0 -6318.95,-2829.1 -6318.95,-6318.97 0,-3489.87 2829.09,-6318.98 6318.95,-6318.98z"/>
    <path class="fil17" d="M7620 1328.67c3474.6,0 6291.31,2816.73 6291.31,6291.33 0,3474.6 -2816.71,6291.32 -6291.31,6291.32 -3474.6,0 -6291.3,-2816.72 -6291.3,-6291.32 0,-3474.6 2816.7,-6291.33 6291.3,-6291.33z"/>
    <path class="fil18" d="M7620 1356.33c3459.33,0 6263.66,2804.34 6263.66,6263.67 0,3459.33 -2804.33,6263.67 -6263.66,6263.67 -3459.32,0 -6263.65,-2804.34 -6263.65,-6263.67 0,-3459.33 2804.33,-6263.67 6263.65,-6263.67z"/>
    <path class="fil18" d="M7620 1383.98c3444.06,0 6236.02,2791.96 6236.02,6236.02 0,3444.05 -2791.96,6236.02 -6236.02,6236.02 -3444.05,0 -6236.01,-2791.97 -6236.01,-6236.02 0,-3444.06 2791.96,-6236.02 6236.01,-6236.02z"/>
    <path class="fil19" d="M7620 1411.62c3428.79,0 6208.37,2779.59 6208.37,6208.38 0,3428.79 -2779.58,6208.38 -6208.37,6208.38 -3428.79,0 -6208.36,-2779.59 -6208.36,-6208.38 0,-3428.79 2779.57,-6208.38 6208.36,-6208.38z"/>
    <path class="fil19" d="M7620 1439.27c3413.52,0 6180.72,2767.21 6180.72,6180.73 0,3413.51 -2767.2,6180.72 -6180.72,6180.72 -3413.51,0 -6180.71,-2767.21 -6180.71,-6180.72 0,-3413.52 2767.2,-6180.73 6180.71,-6180.73z"/>
    <path class="fil20" d="M7620 1466.92c3398.25,0 6153.07,2754.83 6153.07,6153.08 0,3398.25 -2754.82,6153.07 -6153.07,6153.07 -3398.25,0 -6153.06,-2754.82 -6153.06,-6153.07 0,-3398.25 2754.81,-6153.08 6153.06,-6153.08z"/>
    <path class="fil21" d="M7620 1494.58c3382.98,0 6125.41,2742.44 6125.41,6125.42 0,3382.98 -2742.43,6125.42 -6125.41,6125.42 -3382.97,0 -6125.41,-2742.44 -6125.41,-6125.42 0,-3382.98 2742.44,-6125.42 6125.41,-6125.42z"/>
    <path class="fil21" d="M7620 1522.23c3367.7,0 6097.76,2730.07 6097.76,6097.77 0,3367.7 -2730.06,6097.77 -6097.76,6097.77 -3367.7,0 -6097.76,-2730.07 -6097.76,-6097.77 0,-3367.7 2730.06,-6097.77 6097.76,-6097.77z"/>
    <path class="fil22" d="M7620 1549.88c3352.44,0 6070.11,2717.68 6070.11,6070.12 0,3352.44 -2717.67,6070.12 -6070.11,6070.12 -3352.43,0 -6070.1,-2717.68 -6070.1,-6070.12 0,-3352.44 2717.67,-6070.12 6070.1,-6070.12z"/>
    <path class="fil23" d="M7620 1577.53c3337.16,0 6042.46,2705.31 6042.46,6042.47 0,3337.16 -2705.3,6042.47 -6042.46,6042.47 -3337.16,0 -6042.45,-2705.31 -6042.45,-6042.47 0,-3337.16 2705.29,-6042.47 6042.45,-6042.47z"/>
    <path class="fil23" d="M7620 1605.18c3321.9,0 6014.81,2692.92 6014.81,6014.82 0,3321.9 -2692.91,6014.81 -6014.81,6014.81 -3321.9,0 -6014.8,-2692.91 -6014.8,-6014.81 0,-3321.9 2692.9,-6014.82 6014.8,-6014.82z"/>
    <path class="fil24" d="M7620 1632.84c3306.62,0 5987.16,2680.54 5987.16,5987.16 0,3306.62 -2680.54,5987.16 -5987.16,5987.16 -3306.62,0 -5987.15,-2680.54 -5987.15,-5987.16 0,-3306.62 2680.53,-5987.16 5987.15,-5987.16z"/>
    <path class="fil25" d="M7620 1660.48c3291.35,0 5959.52,2668.17 5959.52,5959.52 0,3291.35 -2668.17,5959.52 -5959.52,5959.52 -3291.35,0 -5959.51,-2668.17 -5959.51,-5959.52 0,-3291.35 2668.16,-5959.52 5959.51,-5959.52z"/>
    <path class="fil26" d="M7620 1688.13c3276.08,0 5931.87,2655.79 5931.87,5931.87 0,3276.08 -2655.79,5931.87 -5931.87,5931.87 -3276.08,0 -5931.86,-2655.79 -5931.86,-5931.87 0,-3276.08 2655.78,-5931.87 5931.86,-5931.87z"/>
    <path class="fil27" d="M7620 1715.78c3260.81,0 5904.21,2643.41 5904.21,5904.22 0,3260.81 -2643.4,5904.22 -5904.21,5904.22 -3260.81,0 -5904.21,-2643.41 -5904.21,-5904.22 0,-3260.81 2643.4,-5904.22 5904.21,-5904.22z"/>
    <path class="fil28" d="M7620 1743.43c3245.54,0 5876.56,2631.03 5876.56,5876.57 0,3245.54 -2631.02,5876.57 -5876.56,5876.57 -3245.54,0 -5876.56,-2631.03 -5876.56,-5876.57 0,-3245.54 2631.02,-5876.57 5876.56,-5876.57z"/>
    <path class="fil29" d="M7620 1771.09c3230.27,0 5848.91,2618.64 5848.91,5848.91 0,3230.27 -2618.64,5848.91 -5848.91,5848.91 -3230.27,0 -5848.91,-2618.64 -5848.91,-5848.91 0,-3230.27 2618.64,-5848.91 5848.91,-5848.91z"/>
    <path class="fil29" d="M7620 1798.74c3214.99,0 5821.26,2606.27 5821.26,5821.26 0,3214.99 -2606.27,5821.26 -5821.26,5821.26 -3214.99,0 -5821.26,-2606.27 -5821.26,-5821.26 0,-3214.99 2606.27,-5821.26 5821.26,-5821.26z"/>
    <circle class="fil30" cx="7620" cy="7620" r="5793.61"/>
   </g>
   <g>
    <path class="fil31" d="M9813.84 10848.39l-156.39 -519.11 -173.24 519.11 329.63 0zm101.03 -1085.33l632.76 1691.76 -552.17 0 -72.19 -238.9 -561.77 0 -79.39 238.9 -552.15 0 665.24 -1691.76 519.67 0zm-3774.85 1085.33l-156.03 -519.11 -173.51 519.11 329.54 0zm101.8 -1085.33l633.78 1691.76 -553.65 0 -71.68 -238.9 -562.69 0 -80.12 238.9 -553.03 0 666.31 -1691.76 521.08 0zm-2765.9 441.02l0 -441.02 1490.82 0 0 381.88 -831.29 868.85c-3.51,12.09 0.66,19.76 12.52,22.97l837.86 0 0 418.06 -1543.3 0 0 -408.87 -0.6 0 803.85 -826.93c2.64,-6.47 0.62,-11.44 -5.97,-14.93l-763.89 -0.01zm3838.22 -396.06c117.47,-60.33 257.37,-95.25 419.73,-104.75 188.65,2.14 346.52,36.28 473.66,102.4 197.15,102.63 320.3,282.29 369.48,538.94l-534.3 0c-27.1,-120.52 -92.45,-190.74 -196.08,-210.67 -139.71,-23.19 -248.19,15.82 -325.36,117.04 -4.49,7.04 -9.2,14.44 -14.12,22.24 -5.7,7.81 -10.61,15.98 -14.68,24.58 -6.54,12.49 -13.07,25.74 -19.62,39.79 -4.06,8.59 -7.33,17.94 -9.79,28.1 -3.28,10.93 -6.11,21.85 -8.57,32.77 -1.64,10.14 -3.69,20.28 -6.11,30.42 -3.28,14.04 -6.13,28.48 -8.59,43.3 -42.38,281.91 31.16,470.35 220.58,565.27l19.62 9.34c205.38,68.71 354.06,9.42 446.06,-177.87l-254.87 -0.02 0 -351.09 735.28 0 0 936.26 -362.77 0 0 -168.54c-70.28,64.19 -142.61,113.35 -216.91,147.45 -44.65,20.16 -90,35.01 -136.02,44.49 -163.25,27.69 -313.57,18.32 -450.99,-28.09 -40.02,-13.23 -78.21,-29.41 -114.57,-48.58 -185.45,-97.5 -323.71,-271.69 -414.82,-522.55 -46.27,-181.81 -49.56,-351.9 -9.82,-510.26 67.3,-266.5 205.17,-453.17 413.58,-559.97zm4612.21 1429.38c-10.28,-18.91 -25.34,-33.48 -45.1,-43.79 -18.89,-10.33 -38.21,-15.45 -57.96,-15.45 -20.61,0 -40.77,5.14 -60.52,15.45 -18.91,10.31 -33.49,24.9 -43.8,43.79 -11.16,19.73 -16.76,39.91 -16.76,60.52 0,20.61 5.17,40.81 15.49,60.55 11.17,18.03 26.18,32.63 45.09,43.79 18.9,10.32 39.07,15.49 60.53,15.49 20.6,0 40.36,-5.17 59.24,-15.49 18.9,-11.14 33.5,-25.75 43.79,-43.79 10.33,-19.74 15.49,-39.94 15.49,-60.55 0,-20.61 -5.17,-40.79 -15.49,-60.52zm20.61 -11.62c13.77,23.22 20.62,47.23 20.62,72.12 0,24.91 -6.87,48.97 -20.62,72.12 -12.01,22.33 -29.61,39.94 -52.8,52.83 -23.16,12.88 -46.79,19.33 -70.86,19.33 -25.75,0 -49.8,-6.42 -72.11,-19.33 -23.19,-12.89 -41.19,-30.5 -54.07,-52.83 -12.03,-23.15 -18.05,-47.21 -18.05,-72.12 0,-24.89 6.02,-48.91 18.05,-72.12 12.88,-23.2 30.89,-40.75 54.07,-52.79 23.21,-12.89 47.22,-19.34 72.11,-19.34 24.05,0 47.24,6.41 69.56,19.34 23.21,12.04 41.23,29.62 54.1,52.79zm-97.89 28.34c-3.42,-3.42 -6.87,-6.02 -10.28,-7.72 -5.17,-1.71 -13.77,-2.55 -25.76,-2.55l-28.36 0 0 46.35 29.63 0c14.59,0 24.48,-2.12 29.6,-6.42 6.02,-4.3 9.04,-9.9 9.04,-16.75 0.02,-5.17 -1.27,-9.46 -3.87,-12.91zm21.9 -12.87c5.14,6.85 7.72,14.62 7.72,23.2 0,11.16 -3.86,21.03 -11.58,29.62 -8.6,8.59 -19.74,13.31 -33.49,14.18 6.03,2.55 10.72,5.16 14.18,7.71 6.01,6.03 13.31,16.32 21.88,30.93l20.62 30.92 -30.91 -0.01 -14.17 -24.48c-11.16,-19.73 -20.22,-31.77 -27.06,-36.07 -3.43,-3.42 -9.88,-5.17 -19.32,-5.17l-14.17 0.03 0 65.69 -25.76 0 0 -155.87 54.12 0.01c18.02,0 30.89,1.31 38.64,3.86 8.58,3.44 15.01,8.56 19.3,15.45zm84.55 -1037.17l-509.18 0 0 1250.74 -546.09 0 0 -1250.74 -505.47 0 0 -441.02 1560.74 0 0 441.02z"/>
    <path id="contour_6" class="fil32" d="M2161.51 2840.24c166.37,-189.82 342.53,-370.81 527.6,-542.36 207.22,203.89 525.72,519.61 630.51,636.34l362.4 403.68c574.57,275.91 1416.65,912.72 2593.12,1831.48 975.46,761.77 1692.77,1322.41 2319.61,2413.02 152.08,264.61 286.75,541.87 399.23,831.98 54.06,139.47 48.85,239.75 -16.76,301.52 -90.06,84.79 -180.54,156.47 -297.75,207.39 -819.13,-27.62 -3072.93,-2398.54 -5693.69,-5368.79l-213.01 -185.7c-89,-77.59 -391.82,-352.86 -611.26,-528.56zm2135.53 -1671.77c116.32,-60.06 234.49,-117.04 354.37,-170.88l346.18 360.43 946.21 902.88c218.55,175.84 690.57,231.43 1243.98,248.42 674.25,-1.27 1214.73,761.98 1319.75,837.42l2689.25 2793.32 -259.28 257.66 -2885.44 -2684.18c-378.33,-356.71 -568.93,-50.65 -244.45,250.24l2815.11 2772.98 -261.59 278.89 -2907.14 -2698.76c-339.96,-302.46 -568.01,-133.27 -240.74,244.27l2833.11 2771.11 -233.99 248.62 -2837.69 -2507.23c-341.7,-301.91 -898.15,-744.06 -934.24,-1213.72 -32.95,-679.87 -146.21,-1103.92 -297.54,-1326.72l-1145.47 -1114.51 -300.39 -250.24z"/>
   </g>
   <path id="contour_7" class="fil33" d="M7620.01 364.25c4007.22,0 7255.71,3248.52 7255.71,7255.75 0,4007.22 -3248.49,7255.74 -7255.71,7255.74 -4007.22,0 -7255.7,-3248.52 -7255.7,-7255.74 0,-4007.23 3248.48,-7255.75 7255.7,-7255.75zm-0.06 985.8c3462.82,0 6270.01,2807.18 6270.01,6270 0,3462.82 -2807.19,6270.01 -6270.01,6270.01 -3462.82,0 -6270,-2807.19 -6270,-6270.01 0,-3462.82 2807.18,-6270 6270,-6270z"/>
  </g>
 </g>
</svg>
