<?xml version="1.0" encoding="UTF-8"?>
<!DOCTYPE svg PUBLIC "-//W3C//DTD SVG 1.1//EN" "http://www.w3.org/Graphics/SVG/1.1/DTD/svg11.dtd">
<!-- Creator: CorelDRAW -->
<svg xmlns="http://www.w3.org/2000/svg" xml:space="preserve" width="152.4mm" height="152.4mm" version="1.1" style="shape-rendering:geometricPrecision; text-rendering:geometricPrecision; image-rendering:optimizeQuality; fill-rule:evenodd; clip-rule:evenodd"
viewBox="0 0 15240 15240"
 xmlns:xlink="http://www.w3.org/1999/xlink"
 xmlns:xodm="http://www.corel.com/coreldraw/odm/2003">
 <defs>
  <style type="text/css">
   <![CDATA[
    .fil0 {fill:none}
    .fil1 {fill:#910626}
    .fil2 {fill:#920626}
    .fil4 {fill:#930526}
    .fil3 {fill:#930626}
    .fil5 {fill:#940526}
    .fil6 {fill:#950526}
    .fil7 {fill:#950527}
    .fil8 {fill:#960527}
    .fil9 {fill:#970527}
    .fil10 {fill:#980427}
    .fil11 {fill:#990427}
    .fil12 {fill:#9A0427}
    .fil13 {fill:#9B0427}
    .fil14 {fill:#9C0327}
    .fil15 {fill:#9D0327}
    .fil16 {fill:#9E0328}
    .fil17 {fill:#9F0328}
    .fil18 {fill:#A00228}
    .fil19 {fill:#A10228}
    .fil20 {fill:#A20228}
    .fil21 {fill:#A30228}
    .fil22 {fill:#A40128}
    .fil23 {fill:#A50128}
    .fil24 {fill:#A60128}
    .fil25 {fill:#A60129}
    .fil26 {fill:#A70129}
    .fil28 {fill:#A80029}
    .fil27 {fill:#A80129}
    .fil29 {fill:#A90029}
    .fil30 {fill:#AA0029}
    .fil32 {fill:#E0ABA2}
    .fil33 {fill:#F26122}
    .fil31 {fill:white}
   ]]>
  </style>
 </defs>
 <g id="Capa_x0020_1">
  <metadata id="CorelCorpID_0Corel-Layer"/>
  <g id="_2981918851008">
   <g>
    <rect class="fil0" x="51.65" y="51.65" width="15136.7" height="15136.7"/>
    <ellipse id="contour" class="fil1" cx="7620.01" cy="7620" rx="7206.52" ry="7206.56"/>
    <path class="fil2" d="M7620.01 442.19c3964.18,0 7177.77,3213.62 7177.77,7177.81 0,3964.18 -3213.59,7177.8 -7177.77,7177.8 -3964.18,0 -7177.76,-3213.62 -7177.76,-7177.8 0,-3964.19 3213.58,-7177.81 7177.76,-7177.81z"/>
    <path class="fil2" d="M7620.01 470.96c3948.28,0 7149,3200.75 7149,7149.04 0,3948.29 -3200.72,7149.03 -7149,7149.03 -3948.29,0 -7148.99,-3200.74 -7148.99,-7149.03 0,-3948.29 3200.7,-7149.04 7148.99,-7149.04z"/>
    <path class="fil3" d="M7620.01 499.73c3932.4,0 7120.24,3187.86 7120.24,7120.27 0,3932.4 -3187.84,7120.26 -7120.24,7120.26 -3932.4,0 -7120.23,-3187.86 -7120.23,-7120.26 0,-3932.41 3187.83,-7120.27 7120.23,-7120.27z"/>
    <path class="fil4" d="M7620.01 528.5c3916.51,0 7091.47,3174.98 7091.47,7091.5 0,3916.51 -3174.96,7091.49 -7091.47,7091.49 -3916.51,0 -7091.46,-3174.98 -7091.46,-7091.49 0,-3916.52 3174.95,-7091.5 7091.46,-7091.5z"/>
    <path class="fil5" d="M7620.01 557.26c3900.63,0 7062.7,3162.1 7062.7,7062.74 0,3900.63 -3162.07,7062.73 -7062.7,7062.73 -3900.63,0 -7062.7,-3162.1 -7062.7,-7062.73 0,-3900.64 3162.07,-7062.74 7062.7,-7062.74z"/>
    <path class="fil6" d="M7620.01 586.02c3884.74,0 7033.94,3149.23 7033.94,7033.98 0,3884.74 -3149.2,7033.97 -7033.94,7033.97 -3884.74,0 -7033.94,-3149.23 -7033.94,-7033.97 0,-3884.75 3149.2,-7033.98 7033.94,-7033.98z"/>
    <path class="fil7" d="M7620.01 614.79c3868.86,0 7005.17,3136.34 7005.17,7005.21 0,3868.86 -3136.31,7005.2 -7005.17,7005.2 -3868.86,0 -7005.17,-3136.34 -7005.17,-7005.2 0,-3868.87 3136.31,-7005.21 7005.17,-7005.21z"/>
    <path class="fil8" d="M7620.01 643.56c3852.97,0 6976.41,3123.46 6976.41,6976.44 0,3852.97 -3123.44,6976.44 -6976.41,6976.44 -3852.97,0 -6976.41,-3123.47 -6976.41,-6976.44 0,-3852.98 3123.44,-6976.44 6976.41,-6976.44z"/>
    <path class="fil8" d="M7620.01 672.32c3837.08,0 6947.65,3110.59 6947.65,6947.68 0,3837.08 -3110.57,6947.67 -6947.65,6947.67 -3837.08,0 -6947.65,-3110.59 -6947.65,-6947.67 0,-3837.09 3110.57,-6947.68 6947.65,-6947.68z"/>
    <path class="fil9" d="M7620.01 701.09c3821.19,0 6918.88,3097.71 6918.88,6918.91 0,3821.19 -3097.69,6918.9 -6918.88,6918.9 -3821.2,0 -6918.88,-3097.71 -6918.88,-6918.9 0,-3821.2 3097.68,-6918.91 6918.88,-6918.91z"/>
    <path class="fil10" d="M7620.01 729.85c3805.31,0 6890.12,3084.83 6890.12,6890.15 0,3805.31 -3084.81,6890.14 -6890.12,6890.14 -3805.31,0 -6890.11,-3084.83 -6890.11,-6890.14 0,-3805.32 3084.8,-6890.15 6890.11,-6890.15z"/>
    <path class="fil10" d="M7620.01 758.62c3789.42,0 6861.35,3071.95 6861.35,6861.38 0,3789.42 -3071.93,6861.37 -6861.35,6861.37 -3789.43,0 -6861.35,-3071.95 -6861.35,-6861.37 0,-3789.43 3071.92,-6861.38 6861.35,-6861.38z"/>
    <path class="fil11" d="M7620.01 787.39c3773.54,0 6832.58,3059.06 6832.58,6832.61 0,3773.54 -3059.04,6832.61 -6832.58,6832.61 -3773.54,0 -6832.58,-3059.07 -6832.58,-6832.61 0,-3773.55 3059.04,-6832.61 6832.58,-6832.61z"/>
    <path class="fil12" d="M7620.01 816.15c3757.65,0 6803.82,3046.19 6803.82,6803.85 0,3757.66 -3046.17,6803.85 -6803.82,6803.85 -3757.66,0 -6803.82,-3046.19 -6803.82,-6803.85 0,-3757.66 3046.16,-6803.85 6803.82,-6803.85z"/>
    <path class="fil12" d="M7620.01 844.92c3741.76,0 6775.05,3033.31 6775.05,6775.08 0,3741.76 -3033.29,6775.07 -6775.05,6775.07 -3741.76,0 -6775.05,-3033.31 -6775.05,-6775.07 0,-3741.77 3033.29,-6775.08 6775.05,-6775.08z"/>
    <path class="fil13" d="M7620.01 873.68c3725.87,0 6746.29,3020.44 6746.29,6746.32 0,3725.88 -3020.42,6746.31 -6746.29,6746.31 -3725.88,0 -6746.29,-3020.43 -6746.29,-6746.31 0,-3725.88 3020.41,-6746.32 6746.29,-6746.32z"/>
    <path class="fil13" d="M7620.01 902.44c3709.99,0 6717.53,3007.56 6717.53,6717.56 0,3709.99 -3007.54,6717.55 -6717.53,6717.55 -3710,0 -6717.53,-3007.56 -6717.53,-6717.55 0,-3710 3007.53,-6717.56 6717.53,-6717.56z"/>
    <path class="fil14" d="M7620.01 931.22c3694.1,0 6688.76,2994.67 6688.76,6688.78 0,3694.11 -2994.66,6688.78 -6688.76,6688.78 -3694.11,0 -6688.76,-2994.67 -6688.76,-6688.78 0,-3694.11 2994.65,-6688.78 6688.76,-6688.78z"/>
    <path class="fil15" d="M7620.01 959.98c3678.22,0 6660,2981.79 6660,6660.02 0,3678.22 -2981.78,6660.02 -6660,6660.02 -3678.23,0 -6660,-2981.8 -6660,-6660.02 0,-3678.23 2981.77,-6660.02 6660,-6660.02z"/>
    <path class="fil15" d="M7620.01 988.74c3662.33,0 6631.24,2968.92 6631.24,6631.26 0,3662.34 -2968.91,6631.26 -6631.24,6631.26 -3662.34,0 -6631.24,-2968.92 -6631.24,-6631.26 0,-3662.34 2968.9,-6631.26 6631.24,-6631.26z"/>
    <path class="fil16" d="M7620 1017.51c3646.45,0 6602.47,2956.04 6602.47,6602.49 0,3646.44 -2956.02,6602.48 -6602.47,6602.48 -3646.44,0 -6602.46,-2956.04 -6602.46,-6602.48 0,-3646.45 2956.02,-6602.49 6602.46,-6602.49z"/>
    <path class="fil16" d="M7620 1046.27c3630.56,0 6573.71,2943.17 6573.71,6573.73 0,3630.56 -2943.15,6573.72 -6573.71,6573.72 -3630.55,0 -6573.7,-2943.16 -6573.7,-6573.72 0,-3630.56 2943.15,-6573.73 6573.7,-6573.73z"/>
    <path class="fil17" d="M7620 1075.04c3614.68,0 6544.94,2930.28 6544.94,6544.96 0,3614.67 -2930.26,6544.95 -6544.94,6544.95 -3614.67,0 -6544.93,-2930.28 -6544.93,-6544.95 0,-3614.68 2930.26,-6544.96 6544.93,-6544.96z"/>
    <path class="fil18" d="M7620 1103.81c3598.79,0 6516.18,2917.4 6516.18,6516.19 0,3598.79 -2917.39,6516.19 -6516.18,6516.19 -3598.78,0 -6516.17,-2917.4 -6516.17,-6516.19 0,-3598.79 2917.39,-6516.19 6516.17,-6516.19z"/>
    <path class="fil18" d="M7620 1132.57c3582.91,0 6487.42,2904.52 6487.42,6487.43 0,3582.9 -2904.51,6487.43 -6487.42,6487.43 -3582.9,0 -6487.41,-2904.53 -6487.41,-6487.43 0,-3582.91 2904.51,-6487.43 6487.41,-6487.43z"/>
    <path class="fil19" d="M7620 1161.34c3567.02,0 6458.65,2891.64 6458.65,6458.66 0,3567.02 -2891.63,6458.66 -6458.65,6458.66 -3567.02,0 -6458.64,-2891.64 -6458.64,-6458.66 0,-3567.02 2891.62,-6458.66 6458.64,-6458.66z"/>
    <path class="fil19" d="M7620 1190.1c3551.14,0 6429.89,2878.76 6429.89,6429.9 0,3551.13 -2878.75,6429.89 -6429.89,6429.89 -3551.13,0 -6429.88,-2878.76 -6429.88,-6429.89 0,-3551.14 2878.75,-6429.9 6429.88,-6429.9z"/>
    <path class="fil20" d="M7620 1218.86c3535.24,0 6401.13,2865.9 6401.13,6401.14 0,3535.24 -2865.89,6401.13 -6401.13,6401.13 -3535.24,0 -6401.12,-2865.89 -6401.12,-6401.13 0,-3535.24 2865.88,-6401.14 6401.12,-6401.14z"/>
    <path class="fil21" d="M7620 1247.64c3519.36,0 6372.35,2853 6372.35,6372.36 0,3519.36 -2852.99,6372.36 -6372.35,6372.36 -3519.35,0 -6372.35,-2853 -6372.35,-6372.36 0,-3519.36 2853,-6372.36 6372.35,-6372.36z"/>
    <path class="fil21" d="M7620 1276.4c3503.47,0 6343.59,2840.13 6343.59,6343.6 0,3503.47 -2840.12,6343.6 -6343.59,6343.6 -3503.47,0 -6343.59,-2840.13 -6343.59,-6343.6 0,-3503.47 2840.12,-6343.6 6343.59,-6343.6z"/>
    <path class="fil22" d="M7620 1305.17c3487.59,0 6314.82,2827.24 6314.82,6314.83 0,3487.59 -2827.23,6314.83 -6314.82,6314.83 -3487.58,0 -6314.81,-2827.24 -6314.81,-6314.83 0,-3487.59 2827.23,-6314.83 6314.81,-6314.83z"/>
    <path class="fil23" d="M7620 1333.93c3471.7,0 6286.06,2814.37 6286.06,6286.07 0,3471.7 -2814.36,6286.07 -6286.06,6286.07 -3471.7,0 -6286.05,-2814.37 -6286.05,-6286.07 0,-3471.7 2814.35,-6286.07 6286.05,-6286.07z"/>
    <path class="fil23" d="M7620 1362.69c3455.82,0 6257.3,2801.49 6257.3,6257.31 0,3455.82 -2801.48,6257.3 -6257.3,6257.3 -3455.82,0 -6257.29,-2801.48 -6257.29,-6257.3 0,-3455.82 2801.47,-6257.31 6257.29,-6257.31z"/>
    <path class="fil24" d="M7620 1391.47c3439.92,0 6228.53,2788.61 6228.53,6228.53 0,3439.92 -2788.61,6228.53 -6228.53,6228.53 -3439.92,0 -6228.52,-2788.61 -6228.52,-6228.53 0,-3439.92 2788.6,-6228.53 6228.52,-6228.53z"/>
    <path class="fil25" d="M7620 1420.23c3424.04,0 6199.77,2775.73 6199.77,6199.77 0,3424.04 -2775.73,6199.77 -6199.77,6199.77 -3424.04,0 -6199.76,-2775.73 -6199.76,-6199.77 0,-3424.04 2775.72,-6199.77 6199.76,-6199.77z"/>
    <path class="fil26" d="M7620 1448.99c3408.15,0 6171.01,2762.86 6171.01,6171.01 0,3408.15 -2762.86,6171.01 -6171.01,6171.01 -3408.15,0 -6171,-2762.86 -6171,-6171.01 0,-3408.15 2762.85,-6171.01 6171,-6171.01z"/>
    <path class="fil27" d="M7620 1477.76c3392.27,0 6142.23,2749.97 6142.23,6142.24 0,3392.27 -2749.96,6142.24 -6142.23,6142.24 -3392.27,0 -6142.23,-2749.97 -6142.23,-6142.24 0,-3392.27 2749.96,-6142.24 6142.23,-6142.24z"/>
    <path class="fil28" d="M7620 1506.52c3376.38,0 6113.47,2737.1 6113.47,6113.48 0,3376.38 -2737.09,6113.48 -6113.47,6113.48 -3376.38,0 -6113.47,-2737.1 -6113.47,-6113.48 0,-3376.38 2737.09,-6113.48 6113.47,-6113.48z"/>
    <path class="fil29" d="M7620 1535.29c3360.5,0 6084.71,2724.21 6084.71,6084.71 0,3360.5 -2724.21,6084.71 -6084.71,6084.71 -3360.5,0 -6084.71,-2724.21 -6084.71,-6084.71 0,-3360.5 2724.21,-6084.71 6084.71,-6084.71z"/>
    <path class="fil29" d="M7620 1564.06c3344.6,0 6055.94,2711.34 6055.94,6055.94 0,3344.6 -2711.34,6055.94 -6055.94,6055.94 -3344.6,0 -6055.94,-2711.34 -6055.94,-6055.94 0,-3344.6 2711.34,-6055.94 6055.94,-6055.94z"/>
    <circle class="fil30" cx="7620" cy="7620" r="6027.18"/>
   </g>
   <rect class="fil0" x="-0" y="-0" width="15240" height="15240"/>
   <g>
    <path class="fil31" d="M9813.84 10848.39l-156.39 -519.11 -173.24 519.11 329.63 0zm101.03 -1085.33l632.76 1691.76 -552.17 0 -72.19 -238.9 -561.77 0 -79.39 238.9 -552.15 0 665.24 -1691.76 519.67 0zm-3774.85 1085.33l-156.03 -519.11 -173.51 519.11 329.54 0zm101.8 -1085.33l633.78 1691.76 -553.65 0 -71.68 -238.9 -562.69 0 -80.12 238.9 -553.03 0 666.31 -1691.76 521.08 0zm-2765.9 441.02l0 -441.02 1490.82 0 0 381.88 -831.29 868.85c-3.51,12.09 0.66,19.76 12.52,22.97l837.86 0 0 418.06 -1543.3 0 0 -408.87 -0.6 0 803.85 -826.93c2.64,-6.47 0.62,-11.44 -5.97,-14.93l-763.89 -0.01zm3838.22 -396.06c117.47,-60.33 257.37,-95.25 419.73,-104.75 188.65,2.14 346.52,36.28 473.66,102.4 197.15,102.63 320.3,282.29 369.48,538.94l-534.3 0c-27.1,-120.52 -92.45,-190.74 -196.08,-210.67 -139.71,-23.19 -248.19,15.82 -325.36,117.04 -4.49,7.04 -9.2,14.44 -14.12,22.24 -5.7,7.81 -10.61,15.98 -14.68,24.58 -6.54,12.49 -13.07,25.74 -19.62,39.79 -4.06,8.59 -7.33,17.94 -9.79,28.1 -3.28,10.93 -6.11,21.85 -8.57,32.77 -1.64,10.14 -3.69,20.28 -6.11,30.42 -3.28,14.04 -6.13,28.48 -8.59,43.3 -42.38,281.91 31.16,470.35 220.58,565.27l19.62 9.34c205.38,68.71 354.06,9.42 446.06,-177.87l-254.87 -0.02 0 -351.09 735.28 0 0 936.26 -362.77 0 0 -168.54c-70.28,64.19 -142.61,113.35 -216.91,147.45 -44.65,20.16 -90,35.01 -136.02,44.49 -163.25,27.69 -313.57,18.32 -450.99,-28.09 -40.02,-13.23 -78.21,-29.41 -114.57,-48.58 -185.45,-97.5 -323.71,-271.69 -414.82,-522.55 -46.27,-181.81 -49.56,-351.9 -9.82,-510.26 67.3,-266.5 205.17,-453.17 413.58,-559.97zm4612.21 1429.38c-10.28,-18.91 -25.34,-33.48 -45.1,-43.79 -18.89,-10.33 -38.21,-15.45 -57.96,-15.45 -20.61,0 -40.77,5.14 -60.52,15.45 -18.91,10.31 -33.49,24.9 -43.8,43.79 -11.16,19.73 -16.76,39.91 -16.76,60.52 0,20.61 5.17,40.81 15.49,60.55 11.17,18.03 26.18,32.63 45.09,43.79 18.9,10.32 39.07,15.49 60.53,15.49 20.6,0 40.36,-5.17 59.24,-15.49 18.9,-11.14 33.5,-25.75 43.79,-43.79 10.33,-19.74 15.49,-39.94 15.49,-60.55 0,-20.61 -5.17,-40.79 -15.49,-60.52zm20.61 -11.62c13.77,23.22 20.62,47.23 20.62,72.12 0,24.91 -6.87,48.97 -20.62,72.12 -12.01,22.33 -29.61,39.94 -52.8,52.83 -23.16,12.88 -46.79,19.33 -70.86,19.33 -25.75,0 -49.8,-6.42 -72.11,-19.33 -23.19,-12.89 -41.19,-30.5 -54.07,-52.83 -12.03,-23.15 -18.05,-47.21 -18.05,-72.12 0,-24.89 6.02,-48.91 18.05,-72.12 12.88,-23.2 30.89,-40.75 54.07,-52.79 23.21,-12.89 47.22,-19.34 72.11,-19.34 24.05,0 47.24,6.41 69.56,19.34 23.21,12.04 41.23,29.62 54.1,52.79zm-97.89 28.34c-3.42,-3.42 -6.87,-6.02 -10.28,-7.72 -5.17,-1.71 -13.77,-2.55 -25.76,-2.55l-28.36 0 0 46.35 29.63 0c14.59,0 24.48,-2.12 29.6,-6.42 6.02,-4.3 9.04,-9.9 9.04,-16.75 0.02,-5.17 -1.27,-9.46 -3.87,-12.91zm21.9 -12.87c5.14,6.85 7.72,14.62 7.72,23.2 0,11.16 -3.86,21.03 -11.58,29.62 -8.6,8.59 -19.74,13.31 -33.49,14.18 6.03,2.55 10.72,5.16 14.18,7.71 6.01,6.03 13.31,16.32 21.88,30.93l20.62 30.92 -30.91 -0.01 -14.17 -24.48c-11.16,-19.73 -20.22,-31.77 -27.06,-36.07 -3.43,-3.42 -9.88,-5.17 -19.32,-5.17l-14.17 0.03 0 65.69 -25.76 0 0 -155.87 54.12 0.01c18.02,0 30.89,1.31 38.64,3.86 8.58,3.44 15.01,8.56 19.3,15.45zm84.55 -1037.17l-509.18 0 0 1250.74 -546.09 0 0 -1250.74 -505.47 0 0 -441.02 1560.74 0 0 441.02z"/>
    <path id="contour_127" class="fil32" d="M2161.51 2840.24c166.37,-189.82 342.53,-370.81 527.6,-542.36 207.22,203.89 525.72,519.61 630.51,636.34l362.4 403.68c574.57,275.91 1416.65,912.72 2593.12,1831.48 975.46,761.77 1692.77,1322.41 2319.61,2413.02 152.08,264.61 286.75,541.87 399.23,831.98 54.06,139.47 48.85,239.75 -16.76,301.52 -90.06,84.79 -180.54,156.47 -297.75,207.39 -819.13,-27.62 -3072.93,-2398.54 -5693.69,-5368.79l-213.01 -185.7c-89,-77.59 -391.82,-352.86 -611.26,-528.56zm2135.53 -1671.77c116.32,-60.06 234.49,-117.04 354.37,-170.88l346.18 360.43 946.21 902.88c218.55,175.84 690.57,231.43 1243.98,248.42 674.25,-1.27 1214.73,761.98 1319.75,837.42l2689.25 2793.32 -259.28 257.66 -2885.44 -2684.18c-378.33,-356.71 -568.93,-50.65 -244.45,250.24l2815.11 2772.98 -261.59 278.89 -2907.14 -2698.76c-339.96,-302.46 -568.01,-133.27 -240.74,244.27l2833.11 2771.11 -233.99 248.62 -2837.69 -2507.23c-341.7,-301.91 -898.15,-744.06 -934.24,-1213.72 -32.95,-679.87 -146.21,-1103.92 -297.54,-1326.72l-1145.47 -1114.51 -300.39 -250.24z"/>
   </g>
   <path id="contour_128" class="fil33" d="M7620.01 364.25c4007.22,0 7255.71,3248.52 7255.71,7255.75 0,4007.22 -3248.49,7255.74 -7255.71,7255.74 -4007.22,0 -7255.7,-3248.52 -7255.7,-7255.74 0,-4007.23 3248.48,-7255.75 7255.7,-7255.75zm-0.06 985.8c3462.82,0 6270.01,2807.18 6270.01,6270 0,3462.82 -2807.19,6270.01 -6270.01,6270.01 -3462.82,0 -6270,-2807.19 -6270,-6270.01 0,-3462.82 2807.18,-6270 6270,-6270z"/>
  </g>
 </g>
</svg>
