<?xml version="1.0" encoding="UTF-8"?>
<!DOCTYPE svg PUBLIC "-//W3C//DTD SVG 1.1//EN" "http://www.w3.org/Graphics/SVG/1.1/DTD/svg11.dtd">
<!-- Creator: CorelDRAW -->
<svg xmlns="http://www.w3.org/2000/svg" xml:space="preserve" width="152.4mm" height="152.4mm" version="1.1" style="shape-rendering:geometricPrecision; text-rendering:geometricPrecision; image-rendering:optimizeQuality; fill-rule:evenodd; clip-rule:evenodd"
viewBox="0 0 15240 15240"
 xmlns:xlink="http://www.w3.org/1999/xlink"
 xmlns:xodm="http://www.corel.com/coreldraw/odm/2003">
 <defs>
  <style type="text/css">
   <![CDATA[
    .fil0 {fill:none}
    .fil1 {fill:#AA0029}
    .fil2 {fill:#E7C2B2}
    .fil4 {fill:#F26122}
    .fil3 {fill:white}
   ]]>
  </style>
 </defs>
 <g id="Capa_x0020_1">
  <metadata id="CorelCorpID_0Corel-Layer"/>
  <g id="_1752931950592">
   <rect class="fil0" x="-0" y="-0" width="15240" height="15240"/>
   <path class="fil1" d="M5272.5 527.99c610.21,-88.82 1275.11,-141.62 1950.58,-157.99l0 -2.47c131.94,-2.36 264.13,-3.35 396.24,-2.95l1.37 0c132.12,-0.4 264.31,0.58 396.24,2.95l0 2.47c675.47,16.37 1340.37,69.17 1950.59,157.99 1183.59,172.28 2061.1,460.89 3031.33,973.89 379.93,200.88 632.68,514.2 748.57,928.05 553.9,1977.94 601.43,4534.6 -359.94,6781.46 -1036.17,2421.7 -2970.08,4226.45 -5288.06,5418.02l-82.49 42.4 0 0.18 -19.28 9.73 -374.16 192.34 -3.47 1.45 -3.5 -1.45 -374.16 -192.34 -19.28 -9.73 0 -0.18 -82.49 -42.4c-2317.98,-1191.57 -4251.89,-2996.32 -5288.05,-5418.02 -961.38,-2246.86 -913.85,-4803.52 -359.95,-6781.46 115.9,-413.85 368.64,-727.17 748.58,-928.05 970.22,-513 1847.74,-801.61 3031.33,-973.89z"/>
   <path class="fil2" d="M1846.21 1796.92c110.8,-115.9 242.65,-214.51 394.96,-295.04 137.45,-72.68 273.05,-140.84 407.91,-204.82l446.45 552.19 1132.18 1218.22c523.61,251.44 1291.01,831.77 2363.13,1669.04 888.95,694.21 1542.64,1205.13 2113.88,2199.01 138.59,241.14 261.32,493.81 363.82,758.19 49.27,127.1 44.52,218.48 -15.27,274.77 -82.07,77.27 -164.53,142.6 -271.34,189 -746.48,-25.17 -2800.39,-2185.81 -5188.71,-4892.62l-1099.78 -958.78 -647.23 -509.16zm2531.3 -1102.87c145.27,-33.62 294.38,-64.45 448.35,-92.77l600.74 661.91 862.29 822.8c199.17,160.25 629.32,210.9 1133.65,226.39 614.44,-1.15 1106.99,694.4 1202.69,763.14l2450.74 2545.58 -236.28 234.81 -2629.52 -2446.11c-344.78,-325.08 -518.48,-46.16 -222.78,228.04l2565.44 2527.04 -238.4 254.15 -2649.29 -2459.4c-309.82,-275.64 -517.63,-121.44 -219.39,222.61l2581.83 2525.33 -213.23 226.57 -2586.01 -2284.85c-311.4,-275.14 -818.49,-678.07 -851.39,-1106.08 -30.02,-619.57 -133.24,-1006.01 -271.14,-1209.05l-1043.88 -1015.66 -684.42 -624.45z"/>
   <path class="fil3" d="M9646.87 9712.61l-137.95 -457.92 -152.82 457.92 290.77 0zm89.13 -957.4l558.17 1492.35 -487.08 0 -63.68 -210.74 -495.56 0 -70.03 210.74 -487.07 0 586.83 -1492.35 458.42 0zm-3329.91 957.4l-137.64 -457.92 -153.05 457.92 290.69 0zm89.8 -957.4l559.08 1492.35 -488.39 0 -63.23 -210.74 -496.37 0 -70.67 210.74 -487.85 0 587.77 -1492.35 459.66 0zm-2439.88 389.04l0 -389.04 1315.1 0 0 336.87 -733.31 766.44c-3.09,10.66 0.59,17.43 11.05,20.26l739.1 0 0 368.78 -1361.39 0 0 -360.67 -0.53 0 709.1 -729.46c2.33,-5.71 0.55,-10.09 -5.27,-13.17l-673.85 -0.01zm3385.81 -349.38c103.62,-53.22 227.03,-84.02 370.25,-92.4 166.42,1.89 305.68,32 417.83,90.33 173.91,90.53 282.55,249.02 325.93,475.41l-471.32 0c-23.91,-106.31 -81.55,-168.25 -172.97,-185.83 -123.24,-20.46 -218.93,13.95 -287.01,103.24 -3.96,6.21 -8.11,12.74 -12.45,19.62 -5.03,6.89 -9.36,14.1 -12.95,21.68 -5.77,11.02 -11.53,22.71 -17.31,35.1 -3.58,7.58 -6.47,15.83 -8.64,24.79 -2.89,9.64 -5.39,19.27 -7.56,28.91 -1.44,8.94 -3.25,17.89 -5.39,26.83 -2.89,12.39 -5.4,25.12 -7.57,38.2 -37.39,248.68 27.48,414.91 194.58,498.64l17.3 8.24c181.18,60.61 312.33,8.31 393.49,-156.91l-224.83 -0.01 0 -309.71 648.61 0 0 825.9 -320.01 0 0 -148.67c-62,56.62 -125.8,99.99 -191.34,130.07 -39.39,17.78 -79.39,30.88 -119.99,39.24 -144.01,24.43 -276.61,16.16 -397.83,-24.78 -35.3,-11.67 -68.99,-25.94 -101.07,-42.85 -163.59,-86.01 -285.55,-239.67 -365.92,-460.96 -40.82,-160.38 -43.72,-310.42 -8.66,-450.11 59.36,-235.09 180.98,-399.76 364.83,-493.97zm4068.56 1260.9c-9.07,-16.68 -22.35,-29.53 -39.78,-38.63 -16.67,-9.11 -33.71,-13.63 -51.13,-13.63 -18.18,0 -35.97,4.54 -53.39,13.63 -16.68,9.1 -29.54,21.97 -38.64,38.63 -9.84,17.4 -14.78,35.21 -14.78,53.39 0,18.18 4.56,36 13.66,53.41 9.86,15.9 23.1,28.78 39.78,38.63 16.67,9.1 34.46,13.66 53.39,13.66 18.18,0 35.61,-4.56 52.26,-13.66 16.67,-9.83 29.55,-22.72 38.63,-38.63 9.11,-17.41 13.66,-35.23 13.66,-53.41 0,-18.18 -4.56,-35.99 -13.66,-53.39zm18.18 -10.25c12.15,20.48 18.19,41.66 18.19,63.62 0,21.97 -6.06,43.2 -18.19,63.62 -10.59,19.7 -26.12,35.23 -46.58,46.6 -20.43,11.36 -41.27,17.05 -62.5,17.05 -22.72,0 -43.93,-5.66 -63.61,-17.05 -20.46,-11.37 -36.34,-26.9 -47.7,-46.6 -10.61,-20.42 -15.92,-41.65 -15.92,-63.62 0,-21.96 5.31,-43.15 15.92,-63.62 11.36,-20.47 27.25,-35.95 47.7,-46.57 20.47,-11.37 41.65,-17.06 63.61,-17.06 21.21,0 41.67,5.66 61.36,17.06 20.47,10.62 36.37,26.13 47.72,46.57zm-86.35 25c-3.02,-3.02 -6.06,-5.31 -9.07,-6.81 -4.56,-1.51 -12.15,-2.25 -22.72,-2.25l-25.02 0 0 40.89 26.14 0c12.87,0 21.59,-1.87 26.11,-5.67 5.31,-3.79 7.97,-8.73 7.97,-14.77 0.02,-4.56 -1.12,-8.35 -3.41,-11.39zm19.32 -11.35c4.53,6.04 6.81,12.89 6.81,20.46 0,9.85 -3.41,18.55 -10.22,26.13 -7.58,7.58 -17.41,11.74 -29.54,12.51 5.32,2.25 9.46,4.55 12.51,6.8 5.3,5.32 11.74,14.4 19.3,27.28l18.19 27.28 -27.27 -0.01 -12.5 -21.59c-9.84,-17.41 -17.83,-28.03 -23.87,-31.82 -3.02,-3.02 -8.71,-4.56 -17.04,-4.56l-12.5 0.02 0 57.95 -22.72 0 0 -137.5 47.74 0.01c15.89,0 27.25,1.16 34.08,3.41 7.57,3.03 13.24,7.55 17.03,13.63zm74.58 -914.92l-449.16 0 0 1103.31 -481.72 0 0 -1103.31 -445.89 0 0 -389.04 1376.77 0 0 389.04z"/>
   <path class="fil4" d="M5272.5 527.99c610.21,-88.82 1275.11,-141.62 1950.58,-157.99l0 -2.47c131.94,-2.36 264.13,-3.35 396.24,-2.95l1.37 0c132.12,-0.4 264.31,0.58 396.24,2.95l0 2.47c675.47,16.37 1340.37,69.17 1950.59,157.99 1183.59,172.28 2061.1,460.89 3031.33,973.89 379.93,200.88 632.68,514.2 748.57,928.05 553.9,1977.94 601.43,4534.6 -359.94,6781.46 -1036.17,2421.7 -2970.08,4226.45 -5288.06,5418.02l-82.49 42.4 0 0.18 -19.28 9.73 -374.16 192.34 -3.47 1.45 -3.5 -1.45 -374.16 -192.34 -19.28 -9.73 0 -0.18 -82.49 -42.4c-2317.98,-1191.57 -4251.89,-2996.32 -5288.05,-5418.02 -961.38,-2246.86 -913.85,-4803.52 -359.95,-6781.46 115.9,-413.85 368.64,-727.17 748.58,-928.05 970.22,-513 1847.74,-801.61 3031.33,-973.89zm151.33 1039.69c-1063.03,154.73 -2023.76,454.89 -2852.19,943.01 -1334,4290.73 309.12,8747.6 5049.28,11184.3 4789.49,-2416.98 6493.14,-6893.57 5159.14,-11184.3 -810,-477.25 -1746.44,-774.83 -2781.36,-932.47 -1360.59,-207.25 -3211.6,-208.97 -4574.87,-10.54z"/>
  </g>
 </g>
</svg>
