<?xml version="1.0" encoding="UTF-8"?>
<!DOCTYPE svg PUBLIC "-//W3C//DTD SVG 1.1//EN" "http://www.w3.org/Graphics/SVG/1.1/DTD/svg11.dtd">
<!-- Creator: CorelDRAW -->
<svg xmlns="http://www.w3.org/2000/svg" xml:space="preserve" width="113.647mm" height="113.647mm" version="1.1" style="shape-rendering:geometricPrecision; text-rendering:geometricPrecision; image-rendering:optimizeQuality; fill-rule:evenodd; clip-rule:evenodd"
viewBox="0 0 3813.64 3813.64"
 xmlns:xlink="http://www.w3.org/1999/xlink"
 xmlns:xodm="http://www.corel.com/coreldraw/odm/2003">
 <defs>
  <style type="text/css">
   <![CDATA[
    .fil1 {fill:none}
    .fil0 {fill:lightgrey}
   ]]>
  </style>
 </defs>
 <g id="Capa_x0020_1">
  <metadata id="CorelCorpID_0Corel-Layer"/>
  <g id="_1788432968336">
   <path class="fil0" d="M718.18 1696.67l939.62 -939.61c115.58,-115.58 304.72,-115.58 420.3,0l416.26 416.26 -668.29 680.98 -340.64 -345.65c-25.8,-26.17 -57.68,-39.17 -94.42,-38.5 -36.75,0.68 -68.12,14.85 -92.94,41.96l-343.75 375.57c-47.09,51.45 -44.82,131.11 5.13,179.79l751.15 732.06c50.18,48.9 130.38,48.85 180.49,-0.11l1127.66 -1101.67c114.52,115.67 114.18,303.99 -1.05,419.22l-939.61 939.61c-115.58,115.58 -304.72,115.58 -420.3,0l-939.62 -939.61c-115.58,-115.58 -115.58,-304.72 0,-420.3zm2113.86 -682.96l-1005.78 1024.88 -432.87 -439.23 -343.75 375.58 751.15 732.06 1381.36 -1349.53 -350.12 -343.75z"/>
   <rect class="fil1" x="-0" y="-0" width="3813.64" height="3813.64"/>
  </g>
 </g>
</svg>
