<?xml version="1.0" encoding="UTF-8"?>
<!DOCTYPE svg PUBLIC "-//W3C//DTD SVG 1.1//EN" "http://www.w3.org/Graphics/SVG/1.1/DTD/svg11.dtd">
<!-- Creator: CorelDRAW -->
<svg xmlns="http://www.w3.org/2000/svg" xml:space="preserve" width="152.4mm" height="152.4mm" version="1.1" style="shape-rendering:geometricPrecision; text-rendering:geometricPrecision; image-rendering:optimizeQuality; fill-rule:evenodd; clip-rule:evenodd"
viewBox="0 0 15240 15240"
 xmlns:xlink="http://www.w3.org/1999/xlink"
 xmlns:xodm="http://www.corel.com/coreldraw/odm/2003">
 <defs>
  <style type="text/css">
   <![CDATA[
    .fil0 {fill:none}
    .fil2 {fill:#CF352F}
    .fil1 {fill:#FEFEFE}
    .fil4 {fill:#5D5E5E;fill-rule:nonzero}
    .fil3 {fill:#CF352F;fill-rule:nonzero}
   ]]>
  </style>
 </defs>
 <g id="Capa_x0020_1">
  <metadata id="CorelCorpID_0Corel-Layer"/>
  <g id="_2483774786496">
   <rect class="fil0" x="-0" y="-0" width="15240" height="15240"/>
   <path class="fil1" d="M5302.97 620.06c602.29,-87.67 1258.56,-139.78 1925.26,-155.94l0 -2.44c130.23,-2.33 260.7,-3.31 391.1,-2.91l1.35 0c130.4,-0.4 260.88,0.57 391.1,2.91l0 2.44c666.7,16.16 1322.97,68.27 1925.26,155.94 1168.23,170.04 2034.35,454.91 2991.98,961.24 375,198.28 624.47,507.53 738.86,916.01 546.7,1952.26 593.62,4475.73 -355.27,6693.43 -1022.72,2390.25 -2931.53,4171.57 -5219.41,5347.67l-81.42 41.85 0 0.18 -19.03 9.6 -369.3 189.85 -3.43 1.43 -3.46 -1.43 -369.29 -189.85 -19.04 -9.6 0 -0.18 -81.42 -41.85c-2287.88,-1176.1 -4196.69,-2957.42 -5219.4,-5347.67 -948.9,-2217.7 -901.98,-4741.17 -355.27,-6693.43 114.39,-408.48 363.85,-717.73 738.85,-916.01 957.63,-506.33 1823.76,-791.2 2991.98,-961.24z"/>
   <path class="fil2" d="M5272.5 527.99c610.21,-88.82 1275.11,-141.62 1950.58,-157.99l0 -2.47c131.94,-2.36 264.13,-3.35 396.24,-2.95l1.37 0c132.12,-0.4 264.31,0.58 396.24,2.95l0 2.47c675.47,16.37 1340.37,69.17 1950.59,157.99 1183.59,172.28 2061.1,460.89 3031.33,973.89 379.93,200.88 632.68,514.2 748.57,928.05 553.9,1977.94 601.43,4534.6 -359.94,6781.46 -1036.17,2421.7 -2970.08,4226.45 -5288.06,5418.02l-82.49 42.4 0 0.18 -19.28 9.73 -374.16 192.34 -3.47 1.45 -3.5 -1.45 -374.16 -192.34 -19.28 -9.73 0 -0.18 -82.49 -42.4c-2317.98,-1191.57 -4251.89,-2996.32 -5288.05,-5418.02 -961.38,-2246.86 -913.85,-4803.52 -359.95,-6781.46 115.9,-413.85 368.64,-727.17 748.58,-928.05 970.22,-513 1847.74,-801.61 3031.33,-973.89zm151.33 1039.69c-1063.03,154.73 -2023.76,454.89 -2852.19,943.01 -1334,4290.73 309.12,8747.6 5049.28,11184.3 4789.49,-2416.98 6493.14,-6893.57 5159.14,-11184.3 -810,-477.25 -1746.44,-774.83 -2781.36,-932.47 -1360.59,-207.25 -3211.6,-208.97 -4574.87,-10.54z"/>
   <g>
    <g>
     <polygon class="fil3" points="3542.06,6102.62 3980.41,6102.62 3980.41,8475.73 3542.06,8475.73 "/>
     <path class="fil3" d="M6066.34 8271.67c0,151.16 -26.46,285.89 -79.36,404.35 -52.9,118.37 -124.11,217.86 -213.5,298.52 -89.46,80.6 -191.49,142.29 -306.09,185.16 -114.67,42.82 -233.7,64.24 -357.1,64.24 -128.48,0 -262.64,-28.33 -402.45,-85.02 -139.82,-56.69 -262.63,-149.27 -368.44,-277.74l321.2 -234.29c37.79,52.9 95.72,103.91 173.83,153.03 78.05,49.14 163.73,73.7 256.96,73.7 100.73,0 188.94,-15.12 264.52,-45.35 75.58,-30.23 138.52,-70.55 188.94,-120.93 50.37,-50.42 88.16,-107.69 113.37,-171.93 25.15,-64.24 37.78,-131.61 37.78,-202.18l0 -120.91c-83.13,93.22 -173.82,163.79 -272.07,211.61 -98.25,47.88 -215.39,71.8 -351.43,71.8 -118.44,0 -231.16,-21.37 -338.21,-64.24 -107.11,-42.8 -201.58,-104.5 -283.41,-185.16 -81.9,-80.6 -146.79,-178.85 -194.62,-294.76 -47.88,-115.84 -71.79,-245.62 -71.79,-389.22 0,-151.15 25.79,-285.3 77.46,-402.45 51.6,-117.13 120.28,-215.98 205.95,-296.64 85.62,-80.59 185.16,-141.7 298.53,-183.27 113.37,-41.57 230.51,-62.35 351.43,-62.35 123.4,0 233,22.67 328.76,68.01 95.71,45.35 176.31,110.89 241.85,196.51l7.55 0 0 -215.4 370.34 0 0 1624.91zm-1466.2 -736.87l0 0c0,80.65 13.22,155.57 39.68,224.84 26.45,69.32 63.59,129.13 111.47,179.49 47.83,50.42 105.81,90.69 173.83,120.93 68.02,30.22 143.6,45.35 226.73,45.35 78.06,0 150.51,-15.13 217.29,-45.35 66.72,-30.24 124.7,-70.51 173.83,-120.93 49.12,-50.36 86.91,-110.17 113.36,-179.49 26.45,-69.27 39.67,-142.95 39.67,-221.07 0,-78.05 -14.52,-152.39 -43.45,-222.95 -28.99,-70.49 -68.02,-130.97 -117.15,-181.38 -49.12,-50.37 -106.45,-90.69 -171.93,-120.93 -65.54,-30.24 -136.05,-45.35 -211.62,-45.35 -75.58,0 -147.37,15.11 -215.39,45.35 -68.02,30.24 -126.6,70.56 -175.72,120.93 -49.13,50.41 -88.21,110.23 -117.14,179.49 -29,69.32 -43.46,143.01 -43.46,221.07z"/>
     <path class="fil3" d="M6349.73 6646.76l393.01 0 0 230.51 7.55 0c55.39,-85.6 130.97,-153.63 226.73,-204.06 95.71,-50.36 206.55,-75.57 332.55,-75.57 95.71,0 187.04,18.9 273.97,56.68 86.89,37.79 162.48,91.34 226.72,160.6 64.25,69.32 115.26,151.16 153.06,245.63 37.79,94.47 56.67,198.39 56.67,311.76l0 1103.42 -393.01 0 0 -1016.51c0,-166.27 -39.67,-285.89 -119.03,-359 -79.35,-73.04 -184.57,-109.57 -315.53,-109.57 -128.48,0 -235.59,39.08 -321.2,117.13 -85.68,78.13 -128.48,192.73 -128.48,343.88l0 1024.07 -393.01 0 0 -1828.97z"/>
     <polygon class="fil3" points="8310.93,6646.76 8703.94,6646.76 8703.94,8475.73 8310.93,8475.73 "/>
     <path class="fil3" d="M8828.59 6646.76l222.96 0 0 -483.69 393 -109.58 0 593.27 313.63 0 0 370.34 -313.63 0 0 721.76c0,98.25 12.57,173.22 37.78,224.84 25.16,51.66 66.72,95.12 124.7,130.37l211.63 120.91 -173.84 309.87c-100.78,-47.88 -188.35,-94.47 -262.63,-139.82 -74.33,-45.34 -136.04,-94.46 -185.16,-147.36 -49.13,-52.91 -85.67,-113.38 -109.59,-181.4 -23.97,-68.01 -35.89,-149.85 -35.89,-245.61l0 -793.56 -222.96 0 0 -370.34z"/>
     <path class="fil3" d="M11651.36 8078.96c-110.89,138.57 -238.71,246.91 -383.55,324.97 -144.91,78.06 -300.42,118.39 -466.69,120.92 -158.72,0 -301.06,-27.74 -427.01,-83.13 -126.01,-55.38 -231.81,-127.84 -317.43,-217.28 -85.67,-89.4 -151.15,-192.07 -196.5,-307.98 -45.35,-115.85 -68.02,-234.29 -68.02,-355.21 0,-120.93 22.67,-239.32 68.02,-355.22 45.35,-115.84 110.83,-218.52 196.5,-307.97 85.62,-89.4 191.42,-161.85 317.43,-217.29 125.95,-55.38 268.29,-83.13 427.01,-83.13 95.71,0 198.98,20.19 309.87,60.46 110.83,40.32 213.49,102.02 307.98,185.16 94.46,83.14 173.17,189.6 236.17,319.32 62.94,129.78 94.47,284.06 94.47,462.9l0 71.8 -1519.09 0c5,70.56 24.55,134.8 58.57,192.73 34,57.98 76.16,108.34 126.59,151.15 50.35,42.88 108.28,76.23 173.82,100.14 65.48,23.98 132.27,35.9 200.28,35.9 105.81,0 203.42,-24.56 292.87,-73.69 89.39,-49.12 168.15,-119.03 236.18,-209.73l332.53 185.18zm-362.77 -706.65l0 0c-42.87,-141.07 -112.12,-247.52 -207.84,-319.32 -95.77,-71.8 -206.59,-107.69 -332.53,-107.69 -126.01,0 -235.6,37.19 -328.76,111.47 -93.24,74.34 -156.24,179.49 -188.94,315.54l1058.07 0z"/>
    </g>
    <path class="fil3" d="M8796.74 5719.62c63.79,31.04 155.17,186.24 155.17,333.87 0,242.03 -199.14,437.87 -445.24,437.87l1.63 0c-246.1,0 -445.24,-195.84 -445.24,-437.87 -4.73,-96.54 54.64,-213.01 75.14,-239.05l86.2 86.2c-11.5,4.31 -40.08,93.71 -40.08,152.85 0,175.97 144.78,318.35 323.7,318.35l-1.18 0c178.92,0 323.71,-142.38 323.71,-318.35 0,-67.46 -47.36,-203.4 -70.85,-203.4l37.04 -130.47z"/>
    <path class="fil3" d="M11071.9 4739.14c215.93,-61.63 378.95,5.2 483.34,109.59 171.15,171.15 168.82,450.44 -5.2,624.46l1.15 -1.15c-174.02,174.02 -453.32,176.34 -624.46,5.2 -90.57,-62.18 -159.49,-241.46 -129.65,-424.2l131.02 96.54c-14.94,45.97 8.04,173.54 84.37,241.92 124.43,124.43 327.49,122.73 454.01,-3.78l-0.84 0.83c126.52,-126.52 128.21,-329.58 3.79,-454 -81.62,-103.18 -286.33,-106.2 -310.9,-98.01l-85.33 -94.81 -1.3 -2.59z"/>
    <path class="fil3" d="M5882.38 4030.36c-217.66,55.2 -378.63,-16.44 -479.88,-123.88 -165.99,-176.15 -155.37,-455.25 23.73,-624.03l-1.18 1.11c179.1,-168.77 458.35,-162.81 624.34,13.33 88.69,64.84 152.26,246.1 117,427.87l-128.09 -100.39c16.3,-45.51 -2.89,-173.7 -77.17,-244.32 -120.67,-128.06 -323.7,-132.39 -453.91,-9.69l0.86 -0.81c-130.22,122.71 -137.93,325.63 -17.25,453.7 78.51,105.55 283.05,114.64 307.85,107.18l82.48 97.31 1.22 2.62z"/>
    <path class="fil3" d="M4783.89 5239.77c-81.51,209.23 -233.33,298.64 -379.6,318.64 -239.8,32.79 -460.82,-137.99 -494.16,-381.81l0.22 1.61c-33.34,-243.83 133.73,-467.67 373.53,-500.46 104.3,-34.52 288.76,19.02 416.24,153.31l-156.12 45.95c-27.58,-39.7 -143.07,-98.55 -243.69,-79.12 -174.35,23.84 -295.81,186.58 -271.57,363.85l-0.16 -1.17c24.23,177.28 184.92,301.43 359.27,277.59 131.53,-2.59 257.74,-163.8 266.08,-188.31l127.12 -10.61 2.84 0.53z"/>
    <g>
     <path class="fil4" d="M5523 3588.84c0,-118.06 95.71,-213.76 213.77,-213.76 118.06,0 213.77,95.7 213.77,213.76 0,118.07 -95.71,213.77 -213.77,213.77 -118.06,0 -213.77,-95.7 -213.77,-213.77z"/>
    </g>
    <g>
     <path class="fil4" d="M4131.24 5114.99c0,-118.06 95.7,-213.76 213.76,-213.76 118.06,0 213.77,95.7 213.77,213.76 0,118.06 -95.71,213.77 -213.77,213.77 -118.06,0 -213.76,-95.71 -213.76,-213.77z"/>
    </g>
    <g>
     <path class="fil4" d="M8293.66 6053.49c0,-118.06 95.71,-213.77 213.77,-213.77 118.06,0 213.77,95.71 213.77,213.77 0,118.06 -95.71,213.76 -213.77,213.76 -118.06,0 -213.77,-95.7 -213.77,-213.76z"/>
    </g>
    <g>
     <path class="fil4" d="M11022.29 5140.38c0,-118.06 95.7,-213.76 213.77,-213.76 118.06,0 213.76,95.7 213.76,213.76 0,118.07 -95.7,213.77 -213.76,213.77 -118.07,0 -213.77,-95.7 -213.77,-213.77z"/>
    </g>
    <g>
     <path class="fil4" d="M8656.59 5900.43c440.69,-1401.35 1509.53,-1576.04 2367.85,-790.1l130.09 -167.58c-705.69,-627.55 -1910.14,-949.36 -2627.3,671.14 -376.96,-1013.67 -1714.73,-1142.39 -2585.45,-1964.5l-132.61 153.22c1060.22,908.51 1915.86,887.25 2456.6,1723.93 -606.82,-541.31 -2089.48,-1010.22 -3767.67,-560.67l60.67 190.25c1522.78,-395 3019.16,-77.8 3792.82,751.13l305 -6.82z"/>
    </g>
    <g>
     <path class="fil3" d="M12136.32 6847.91c0,-47.55 -19.27,-90.59 -50.43,-121.75 -31.16,-31.16 -74.2,-50.43 -121.75,-50.43 -47.55,0 -90.6,19.27 -121.75,50.43 -31.16,31.15 -50.43,74.2 -50.43,121.75 0,47.55 19.27,90.6 50.43,121.75 31.15,31.16 74.2,50.43 121.75,50.43 47.55,0 90.6,-19.27 121.75,-50.43 31.16,-31.15 50.43,-74.2 50.43,-121.75zm-19.41 -152.77c39.1,39.1 63.28,93.11 63.28,152.77 0,59.66 -24.18,113.67 -63.28,152.77 -39.1,39.1 -93.11,63.28 -152.77,63.28 -59.66,0 -113.67,-24.18 -152.77,-63.28 -39.1,-39.1 -63.28,-93.11 -63.28,-152.77 0,-59.66 24.18,-113.67 63.28,-152.77 39.1,-39.1 93.11,-63.28 152.77,-63.28 59.66,0 113.67,24.18 152.77,63.28z"/>
     <g>
      <path class="fil3" d="M11952.3 6830.36c12.06,0 20.83,-2.41 26.1,-7.02 5.26,-4.38 8.11,-11.84 8.11,-22.37 0,-10.31 -2.85,-17.55 -8.11,-22.15 -5.27,-4.39 -14.04,-6.58 -26.1,-6.58l-24.57 0 0 58.12 24.57 0 0 0zm-24.57 40.14l0 85.54 -58.34 0 0 -226.13 89.05 0c29.83,0 51.54,5.04 65.36,15.13 14.04,9.87 20.84,25.66 20.84,47.38 0,14.91 -3.51,27.2 -10.75,36.85 -7.24,9.43 -17.99,16.67 -32.68,21.05 8.11,1.98 15.13,6.14 21.49,12.51 6.36,6.36 12.73,16.01 19.09,29.17l31.8 64.04 -62.07 0 -27.64 -56.15c-5.48,-11.18 -11.19,-19.08 -16.89,-23.03 -5.7,-4.16 -13.38,-6.36 -22.81,-6.36l-16.45 0z"/>
     </g>
    </g>
   </g>
  </g>
 </g>
</svg>
