<?xml version="1.0" encoding="UTF-8"?>
<!DOCTYPE svg PUBLIC "-//W3C//DTD SVG 1.1//EN" "http://www.w3.org/Graphics/SVG/1.1/DTD/svg11.dtd">
<!-- Creator: CorelDRAW -->
<svg xmlns="http://www.w3.org/2000/svg" xml:space="preserve" width="152.4mm" height="152.4mm" version="1.1" style="shape-rendering:geometricPrecision; text-rendering:geometricPrecision; image-rendering:optimizeQuality; fill-rule:evenodd; clip-rule:evenodd"
viewBox="0 0 4819.96 4819.96"
 xmlns:xlink="http://www.w3.org/1999/xlink"
 xmlns:xodm="http://www.corel.com/coreldraw/odm/2003">
 <defs>
  <style type="text/css">
   <![CDATA[
    .fil0 {fill:none}
    .fil2 {fill:#CF352F}
    .fil1 {fill:white}
    .fil4 {fill:#5D5E5E;fill-rule:nonzero}
    .fil3 {fill:#CF352F;fill-rule:nonzero}
   ]]>
  </style>
 </defs>
 <g id="Capa_x0020_1">
  <metadata id="CorelCorpID_0Corel-Layer"/>
  <g id="_2483858519936">
   <rect class="fil0" x="-0" y="-0" width="4819.96" height="4819.96"/>
   <ellipse id="contour" class="fil1" cx="2409.98" cy="2409.98" rx="2277.36" ry="2277.37"/>
   <path id="contour_1" class="fil2" d="M2409.98 115.2c1267.36,0 2294.76,1027.41 2294.76,2294.78 0,1267.36 -1027.4,2294.77 -2294.76,2294.77 -1267.36,0 -2294.76,-1027.41 -2294.76,-2294.77 0,-1267.37 1027.4,-2294.78 2294.76,-2294.78zm-0.02 311.78c1095.19,0 1983.02,887.83 1983.02,1983.01 0,1095.19 -887.83,1983.02 -1983.02,1983.02 -1095.19,0 -1983.01,-887.83 -1983.01,-1983.02 0,-1095.19 887.83,-1983.01 1983.01,-1983.01z"/>
   <g>
    <g>
     <polygon class="fil3" points="811.87,2335.55 985.11,2335.55 985.11,3273.45 811.87,3273.45 "/>
     <path class="fil3" d="M1809.5 3192.8c0,59.74 -10.46,112.99 -31.36,159.8 -20.91,46.78 -49.05,86.1 -84.38,117.98 -35.36,31.85 -75.68,56.24 -120.97,73.18 -45.32,16.92 -92.36,25.39 -141.13,25.39 -50.78,0 -103.8,-11.2 -159.06,-33.6 -55.26,-22.4 -103.79,-58.99 -145.61,-109.77l126.94 -92.6c14.93,20.91 37.83,41.07 68.7,60.48 30.85,19.42 64.71,29.13 101.55,29.13 39.81,0 74.67,-5.98 104.55,-17.92 29.87,-11.95 54.74,-27.89 74.67,-47.79 19.9,-19.93 34.84,-42.56 44.8,-67.95 9.94,-25.39 14.93,-52.02 14.93,-79.9l0 -47.79c-32.85,36.84 -68.7,64.73 -107.53,83.63 -38.83,18.92 -85.13,28.38 -138.89,28.38 -46.81,0 -91.35,-8.45 -133.67,-25.39 -42.33,-16.91 -79.67,-41.3 -112.01,-73.18 -32.36,-31.85 -58.01,-70.68 -76.92,-116.49 -18.92,-45.78 -28.37,-97.07 -28.37,-153.82 0,-59.74 10.2,-112.76 30.61,-159.06 20.4,-46.29 47.54,-85.36 81.4,-117.24 33.84,-31.85 73.18,-56 117.98,-72.44 44.81,-16.42 91.1,-24.64 138.89,-24.64 48.77,0 92.08,8.96 129.93,26.88 37.83,17.92 69.68,43.83 95.58,77.66l2.99 0 0 -85.13 146.36 0 0 642.2zm-579.47 -291.22l0 0c0,31.87 5.23,61.48 15.68,88.86 10.45,27.4 25.13,51.04 44.06,70.94 18.9,19.93 41.82,35.84 68.7,47.79 26.88,11.94 56.75,17.92 89.61,17.92 30.85,0 59.48,-5.98 85.88,-17.92 26.37,-11.95 49.28,-27.87 68.7,-47.79 19.42,-19.9 34.35,-43.54 44.8,-70.94 10.45,-27.38 15.68,-56.5 15.68,-87.37 0,-30.85 -5.74,-60.23 -17.17,-88.12 -11.46,-27.86 -26.88,-51.76 -46.3,-71.68 -19.42,-19.91 -42.07,-35.84 -67.95,-47.79 -25.9,-11.95 -53.77,-17.92 -83.64,-17.92 -29.87,0 -58.24,5.97 -85.12,17.92 -26.88,11.95 -50.03,27.89 -69.45,47.79 -19.42,19.93 -34.86,43.56 -46.3,70.94 -11.46,27.4 -17.18,56.52 -17.18,87.37z"/>
     <path class="fil3" d="M1921.51 2550.6l155.32 0 0 91.1 2.99 0c21.89,-33.83 51.76,-60.72 89.61,-80.65 37.83,-19.9 81.63,-29.87 131.43,-29.87 37.83,0 73.92,7.47 108.28,22.4 34.34,14.93 64.22,36.1 89.61,63.47 25.39,27.4 45.55,59.74 60.49,97.08 14.94,37.34 22.4,78.41 22.4,123.21l0 436.1 -155.32 0 0 -401.75c0,-65.71 -15.68,-112.99 -47.04,-141.88 -31.36,-28.87 -72.95,-43.31 -124.71,-43.31 -50.78,0 -93.11,15.45 -126.94,46.29 -33.86,30.88 -50.78,76.17 -50.78,135.91l0 404.73 -155.32 0 0 -722.84z"/>
     <polygon class="fil3" points="2696.61,2550.6 2851.93,2550.6 2851.93,3273.45 2696.61,3273.45 "/>
     <path class="fil3" d="M2901.2 2550.6l88.12 0 0 -191.16 155.32 -43.31 0 234.47 123.96 0 0 146.36 -123.96 0 0 285.25c0,38.83 4.97,68.46 14.93,88.86 9.94,20.42 26.37,37.6 49.28,51.52l83.64 47.79 -68.7 122.47c-39.83,-18.93 -74.44,-37.34 -103.8,-55.26 -29.38,-17.92 -53.77,-37.34 -73.18,-58.24 -19.42,-20.91 -33.86,-44.81 -43.31,-71.69 -9.48,-26.88 -14.18,-59.22 -14.18,-97.07l0 -313.63 -88.12 0 0 -146.36z"/>
     <path class="fil3" d="M4016.8 3116.64c-43.83,54.77 -94.34,97.59 -151.59,128.43 -57.27,30.85 -118.73,46.79 -184.44,47.79 -62.73,0 -118.99,-10.97 -168.76,-32.85 -49.8,-21.89 -91.62,-50.52 -125.45,-85.87 -33.86,-35.33 -59.74,-75.91 -77.66,-121.72 -17.92,-45.79 -26.88,-92.6 -26.88,-140.39 0,-47.79 8.96,-94.58 26.88,-140.39 17.92,-45.78 43.8,-86.36 77.66,-121.71 33.83,-35.33 75.65,-63.97 125.45,-85.88 49.78,-21.89 106.03,-32.85 168.76,-32.85 37.82,0 78.64,7.98 122.46,23.89 43.8,15.93 84.38,40.32 121.72,73.18 37.33,32.86 68.44,74.93 93.34,126.2 24.87,51.29 37.34,112.27 37.34,182.95l0 28.38 -600.38 0c1.98,27.89 9.7,53.28 23.15,76.17 13.44,22.91 30.1,42.82 50.03,59.74 19.9,16.94 42.8,30.13 68.7,39.57 25.88,9.48 52.28,14.19 79.16,14.19 41.82,0 80.39,-9.7 115.75,-29.12 35.33,-19.41 66.45,-47.04 93.34,-82.89l131.42 73.18zm-143.37 -279.28l0 0c-16.94,-55.75 -44.31,-97.82 -82.14,-126.2 -37.85,-28.38 -81.65,-42.56 -131.42,-42.56 -49.8,0 -93.11,14.7 -129.93,44.06 -36.85,29.38 -61.75,70.94 -74.67,124.7l418.17 0z"/>
    </g>
    <path class="fil3" d="M2888.61 2184.19c25.21,12.26 61.32,73.6 61.32,131.95 0,95.65 -78.7,173.06 -175.97,173.06l0.64 0c-97.26,0 -175.97,-77.4 -175.97,-173.06 -1.87,-38.15 21.6,-84.19 29.7,-94.48l34.07 34.07c-4.54,1.7 -15.84,37.04 -15.84,60.41 0,69.54 57.22,125.82 127.93,125.82l-0.47 0c70.71,0 127.93,-56.27 127.93,-125.82 0,-26.66 -18.71,-80.39 -28,-80.39l14.64 -51.56z"/>
    <path class="fil3" d="M3787.79 1796.68c85.34,-24.36 149.77,2.06 191.02,43.31 67.64,67.64 66.72,178.02 -2.06,246.8l0.46 -0.45c-68.78,68.78 -179.16,69.69 -246.8,2.06 -35.8,-24.57 -63.04,-95.43 -51.24,-167.65l51.78 38.15c-5.9,18.17 3.18,68.59 33.35,95.61 49.18,49.17 129.43,48.51 179.43,-1.5l-0.33 0.33c50,-50 50.67,-130.26 1.49,-179.43 -32.25,-40.78 -113.16,-41.97 -122.87,-38.73l-33.73 -37.47 -0.51 -1.02z"/>
    <path class="fil3" d="M1736.8 1516.56c-86.02,21.81 -149.64,-6.5 -189.65,-48.96 -65.6,-69.62 -61.41,-179.92 9.38,-246.63l-0.47 0.44c70.78,-66.7 181.15,-64.35 246.75,5.27 35.06,25.62 60.18,97.26 46.25,169.1l-50.63 -39.68c6.44,-17.98 -1.14,-68.65 -30.5,-96.56 -47.69,-50.62 -127.93,-52.33 -179.39,-3.83l0.34 -0.32c-51.47,48.5 -54.52,128.7 -6.82,179.31 31.03,41.72 111.87,45.31 121.67,42.36l32.6 38.46 0.48 1.04z"/>
    <path class="fil3" d="M1302.66 1994.54c-32.21,82.69 -92.21,118.03 -150.02,125.93 -94.77,12.96 -182.12,-54.53 -195.3,-150.9l0.09 0.64c-13.18,-96.37 52.85,-184.83 147.63,-197.79 41.22,-13.64 114.12,7.52 164.5,60.59l-61.7 18.16c-10.9,-15.69 -56.55,-38.95 -96.31,-31.27 -68.91,9.42 -116.91,73.74 -107.33,143.8l-0.06 -0.46c9.58,70.06 73.09,119.13 141.99,109.71 51.99,-1.02 101.87,-64.74 105.16,-74.42l50.24 -4.2 1.12 0.21z"/>
    <g>
     <path class="fil4" d="M1594.77 1342.06c0,-46.66 37.83,-84.49 84.49,-84.49 46.66,0 84.49,37.83 84.49,84.49 0,46.66 -37.83,84.49 -84.49,84.49 -46.66,0 -84.49,-37.83 -84.49,-84.49z"/>
    </g>
    <g>
     <path class="fil4" d="M1044.72 1945.22c0,-46.66 37.83,-84.48 84.49,-84.48 46.66,0 84.49,37.82 84.49,84.48 0,46.66 -37.83,84.49 -84.49,84.49 -46.66,0 -84.49,-37.82 -84.49,-84.49z"/>
    </g>
    <g>
     <path class="fil4" d="M2689.78 2316.13c0,-46.66 37.83,-84.49 84.49,-84.49 46.66,0 84.49,37.83 84.49,84.49 0,46.66 -37.83,84.48 -84.49,84.48 -46.66,0 -84.49,-37.82 -84.49,-84.48z"/>
    </g>
    <g>
     <path class="fil4" d="M3768.18 1955.26c0,-46.66 37.83,-84.48 84.49,-84.48 46.66,0 84.49,37.82 84.49,84.48 0,46.66 -37.83,84.49 -84.49,84.49 -46.66,0 -84.49,-37.82 -84.49,-84.49z"/>
    </g>
    <g>
     <path class="fil4" d="M2833.22 2255.64c174.17,-553.84 596.59,-622.88 935.81,-312.26l51.42 -66.23c-278.9,-248.02 -754.92,-375.2 -1038.35,265.25 -148.99,-400.62 -677.69,-451.49 -1021.82,-776.41l-52.41 60.56c419.02,359.06 757.18,350.66 970.89,681.33 -239.83,-213.94 -825.8,-399.26 -1489.05,-221.59l23.98 75.19c601.83,-156.11 1193.22,-30.75 1498.99,296.86l120.54 -2.7z"/>
    </g>
    <g>
     <path class="fil3" d="M4208.47 2630.11c0,-18.79 -7.62,-35.8 -19.93,-48.12 -12.31,-12.31 -29.33,-19.93 -48.12,-19.93 -18.79,0 -35.8,7.62 -48.12,19.93 -12.31,12.32 -19.93,29.33 -19.93,48.12 0,18.79 7.62,35.8 19.93,48.12 12.31,12.31 29.33,19.93 48.12,19.93 18.79,0 35.8,-7.62 48.12,-19.93 12.31,-12.31 19.93,-29.33 19.93,-48.12zm-7.67 -60.38c15.45,15.45 25.01,36.8 25.01,60.38 0,23.58 -9.56,44.92 -25.01,60.38 -15.45,15.45 -36.8,25.01 -60.38,25.01 -23.58,0 -44.93,-9.56 -60.38,-25.01 -15.45,-15.45 -25.01,-36.8 -25.01,-60.38 0,-23.58 9.56,-44.93 25.01,-60.38 15.45,-15.45 36.8,-25.01 60.38,-25.01 23.58,0 44.92,9.56 60.38,25.01z"/>
     <g>
      <path class="fil3" d="M4135.74 2623.17c4.77,0 8.24,-0.96 10.32,-2.77 2.08,-1.73 3.21,-4.68 3.21,-8.84 0,-4.07 -1.13,-6.94 -3.21,-8.75 -2.08,-1.73 -5.55,-2.6 -10.32,-2.6l-9.71 0 0 22.97 9.71 0 0 0zm-9.71 15.86l0 33.81 -23.06 0 0 -89.37 35.19 0c11.79,0 20.37,2 25.83,5.98 5.55,3.9 8.24,10.14 8.24,18.72 0,5.9 -1.39,10.75 -4.25,14.56 -2.86,3.73 -7.11,6.59 -12.92,8.32 3.21,0.78 5.98,2.43 8.5,4.94 2.51,2.51 5.03,6.33 7.54,11.53l12.57 25.31 -24.53 0 -10.92 -22.19c-2.17,-4.42 -4.42,-7.54 -6.68,-9.1 -2.26,-1.65 -5.29,-2.51 -9.02,-2.51l-6.5 0z"/>
     </g>
    </g>
   </g>
  </g>
 </g>
</svg>
