<?xml version="1.0" encoding="UTF-8"?>
<!DOCTYPE svg PUBLIC "-//W3C//DTD SVG 1.1//EN" "http://www.w3.org/Graphics/SVG/1.1/DTD/svg11.dtd">
<!-- Creator: CorelDRAW -->
<svg xmlns="http://www.w3.org/2000/svg" xml:space="preserve" width="152.4mm" height="152.4mm" version="1.1" style="shape-rendering:geometricPrecision; text-rendering:geometricPrecision; image-rendering:optimizeQuality; fill-rule:evenodd; clip-rule:evenodd"
viewBox="0 0 15240 15240"
 xmlns:xlink="http://www.w3.org/1999/xlink"
 xmlns:xodm="http://www.corel.com/coreldraw/odm/2003">
 <defs>
  <style type="text/css">
   <![CDATA[
    .fil2 {fill:none}
    .fil1 {fill:#B9B4D9}
    .fil0 {fill:#EC008C}
   ]]>
  </style>
 </defs>
 <g id="Capa_x0020_1">
  <metadata id="CorelCorpID_0Corel-Layer"/>
  <g id="_1788838025888">
   <g>
    <ellipse id="contour" class="fil0" cx="7620.01" cy="7620" rx="7255.7" ry="7255.74"/>
    <path id="contour_31" class="fil1" d="M7620.01 364.25c4007.22,0 7255.71,3248.52 7255.71,7255.75 0,4007.22 -3248.49,7255.74 -7255.71,7255.74 -4007.22,0 -7255.7,-3248.52 -7255.7,-7255.74 0,-4007.23 3248.48,-7255.75 7255.7,-7255.75zm-0.06 985.8c3462.82,0 6270.01,2807.18 6270.01,6270 0,3462.82 -2807.19,6270.01 -6270.01,6270.01 -3462.82,0 -6270,-2807.19 -6270,-6270.01 0,-3462.82 2807.18,-6270 6270,-6270z"/>
    <path class="fil1" d="M8279.72 5780.27c338.19,0 612.35,274.16 612.35,612.36 0,338.19 -274.16,612.35 -612.35,612.35 -338.2,0 -612.36,-274.16 -612.36,-612.35 0,-338.2 274.16,-612.36 612.36,-612.36zm-96.91 2518.45l1537.53 -1875.2 1829.09 -2230.8c38.25,-46.64 45.71,-107.3 19.91,-161.82 -25.81,-54.53 -77.44,-87.21 -137.76,-87.21l-3744.53 0 -3744.53 0c-60.32,0 -111.95,32.69 -137.76,87.21 -25.8,54.52 -18.34,115.17 19.91,161.82l1829.1 2230.8 1537.53 1875.21 0 2866.76 -1481.44 0c-214.44,0 -389.89,175.45 -389.89,389.89 0,214.44 175.45,389.89 389.89,389.89l3954.39 0c214.44,0 389.89,-175.45 389.89,-389.89 0,-214.44 -175.45,-389.89 -389.89,-389.89l-1481.44 0 0 -2866.77z"/>
   </g>
   <rect class="fil2" x="-0" y="-0" width="15240" height="15240"/>
  </g>
 </g>
</svg>
