<?xml version="1.0" encoding="UTF-8"?>
<!DOCTYPE svg PUBLIC "-//W3C//DTD SVG 1.1//EN" "http://www.w3.org/Graphics/SVG/1.1/DTD/svg11.dtd">
<!-- Creator: CorelDRAW -->
<svg xmlns="http://www.w3.org/2000/svg" xml:space="preserve" width="152.4mm" height="152.4mm" version="1.1" style="shape-rendering:geometricPrecision; text-rendering:geometricPrecision; image-rendering:optimizeQuality; fill-rule:evenodd; clip-rule:evenodd"
viewBox="0 0 15240 15240"
 xmlns:xlink="http://www.w3.org/1999/xlink"
 xmlns:xodm="http://www.corel.com/coreldraw/odm/2003">
 <defs>
  <style type="text/css">
   <![CDATA[
    .fil0 {fill:none}
    .fil2 {fill:#1770B8}
    .fil1 {fill:#EEF2B4}
   ]]>
  </style>
 </defs>
 <g id="Capa_x0020_1">
  <metadata id="CorelCorpID_0Corel-Layer"/>
  <g id="_1904149550160">
   <rect class="fil0" x="-0" y="-0" width="15240" height="15240"/>
   <ellipse id="contour" class="fil1" cx="7620.01" cy="7620" rx="7200.69" ry="7200.73"/>
   <path id="contour_0" class="fil2" d="M7620.01 364.25c4007.22,0 7255.71,3248.52 7255.71,7255.75 0,4007.22 -3248.49,7255.74 -7255.71,7255.74 -4007.22,0 -7255.7,-3248.52 -7255.7,-7255.74 0,-4007.23 3248.48,-7255.75 7255.7,-7255.75zm-0.06 985.8c3462.82,0 6270.01,2807.18 6270.01,6270 0,3462.82 -2807.19,6270.01 -6270.01,6270.01 -3462.82,0 -6270,-2807.19 -6270,-6270.01 0,-3462.82 2807.18,-6270 6270,-6270z"/>
   <path class="fil2" d="M8905.46 5966.16c177.02,-133.93 379.29,-241.35 605.73,-315.2 467.31,-152.41 950,-121.4 1362.97,66.36 104.96,-66.76 229.64,-104.83 363.06,-104.83l677.44 0c206.82,0 384.83,83.33 517.3,242.16 132.47,158.83 182.5,348.91 145.37,552.38l-562.07 3105.51c236.01,160.96 343.2,363.01 286.57,661.61l-100.7 530.97c-60.88,321.02 -335.07,548.1 -661.81,548.1l-476.88 0c-347.38,0 -663.93,-147.9 -886.82,-414.35 -222.5,-265.97 -312.27,-603.11 -251.5,-944.42 -14.93,0.39 -29.89,0.59 -44.9,0.59 -452.64,0 -850.68,-169.2 -1161.37,-441.94 -313.56,273.69 -741.07,438.74 -1198.31,443.36 -357.08,3.6 -712.93,-68.01 -1030.12,-235.55 -152.72,-80.67 -298.58,-172.54 -432.2,-279.07 -123.67,159.8 -316.48,258.64 -532.25,258.64l-675.42 0c-203.53,0 -378.72,-80.53 -511.25,-235 -126.42,-147.36 -180.43,-322.87 -158.27,-513.36l-1349.42 14.67c-202.22,2.2 -377.15,-75.34 -511.33,-226.66 -134.17,-151.32 -190.22,-334.27 -163.84,-534.78l58.22 -442.52c20.93,-159.1 87.26,-289.51 203.51,-400.13l3375.67 -3233.69c214.91,-204.48 523.56,-245.65 784.54,-104.64 260.98,141.01 471.92,370.94 418.67,662.76l-199.34 1092.44c655.48,-340.33 1540.91,-235.78 2108.75,246.59zm-2572.08 -1459.95l-3451.87 3284.49 -58.22 442.52 2142.71 -23.29 -116.45 756.94 675.42 0 151.96 -758.06 489.1 0 120.59 -523.99 -533.24 0 580 -3178.61zm1820.21 2507.18c-191.29,-221.44 -417.29,-289.31 -599.89,-259.08 -63.54,10.51 -121.58,33.48 -169.79,66.01 -42.21,28.49 -74.69,62.57 -93.67,99.7 -223.08,436.42 1030.93,492.07 1228.05,1170.96 205.42,664.3 -377.85,1125.55 -1005.56,1131.9 -243.02,2.45 -489.61,-41.87 -708.7,-157.6 -227.33,-120.07 -430.53,-267.63 -572.59,-462.68l482.82 -351.56c88.18,121.07 219.03,230.92 368.67,309.96 137.46,72.61 286,116.42 425.12,115.02 120.55,-1.22 226.18,-42.88 303.62,-107.14 182.17,-151.18 141.7,-330.08 -43.57,-456.8 -64.69,-44.24 -164.36,-85.68 -266.7,-128.2 -546.52,-227.14 -1064.61,-664.47 -743.2,-1335.74 386.14,-670.93 1459,-529.53 1847.73,-26.15l-452.34 391.4zm2675.34 1652.51c-216.91,337.37 -561.54,555.53 -949.71,555.53 -656.47,0 -1210.73,-624.13 -1188.65,-1393.31 47.96,-1670.42 1879.03,-2107.26 2454.9,-960.95l91.75 -581.07 677.44 0 -623.6 3417.3c-48.3,250.14 -6.66,354.13 137.81,345.24l211.15 0 -100.7 530.97 -476.88 0c-147.92,0 -275.24,-59.49 -370.16,-172.95 -94.91,-113.46 -130.97,-249.28 -104.85,-394.88l241.5 -1345.88zm-413.54 -1841.3c444.98,101.11 670.15,575.73 565.59,1091.43 -104.56,515.7 -550.06,800.99 -995.04,699.89 -444.98,-101.1 -670.15,-524.93 -565.59,-1040.63 104.56,-515.7 550.06,-851.8 995.04,-750.69zm-6704.14 864.62l1712.13 -1616.01 -336.42 1610 -1375.71 6.01z"/>
  </g>
 </g>
</svg>
