<?xml version="1.0" encoding="UTF-8"?>
<!DOCTYPE svg PUBLIC "-//W3C//DTD SVG 1.1//EN" "http://www.w3.org/Graphics/SVG/1.1/DTD/svg11.dtd">
<!-- Creator: CorelDRAW -->
<svg xmlns="http://www.w3.org/2000/svg" xml:space="preserve" width="152.4mm" height="152.4mm" version="1.1" style="shape-rendering:geometricPrecision; text-rendering:geometricPrecision; image-rendering:optimizeQuality; fill-rule:evenodd; clip-rule:evenodd"
viewBox="0 0 15240 15240"
 xmlns:xlink="http://www.w3.org/1999/xlink"
 xmlns:xodm="http://www.corel.com/coreldraw/odm/2003">
 <defs>
  <style type="text/css">
   <![CDATA[
    .fil0 {fill:none}
    .fil3 {fill:#4A4136}
    .fil2 {fill:#716659}
    .fil1 {fill:#7CC6ED}
   ]]>
  </style>
 </defs>
 <g id="Capa_x0020_1">
  <metadata id="CorelCorpID_0Corel-Layer"/>
  <g id="_2981851191536">
   <rect class="fil0" x="-0" y="-0" width="15240" height="15240"/>
   <ellipse id="contour" class="fil1" cx="7620.01" cy="7620" rx="7200.69" ry="7200.73"/>
   <path id="contour_58" class="fil2" d="M7620.01 364.25c4007.22,0 7255.71,3248.52 7255.71,7255.75 0,4007.22 -3248.49,7255.74 -7255.71,7255.74 -4007.22,0 -7255.7,-3248.52 -7255.7,-7255.74 0,-4007.23 3248.48,-7255.75 7255.7,-7255.75zm-0.06 985.8c3462.82,0 6270.01,2807.18 6270.01,6270 0,3462.82 -2807.19,6270.01 -6270.01,6270.01 -3462.82,0 -6270,-2807.19 -6270,-6270.01 0,-3462.82 2807.18,-6270 6270,-6270z"/>
   <path class="fil3" d="M2931.28 8488.09l487.63 0 0 -803.11c0,-211.16 172.76,-383.92 383.92,-383.92l0.01 0c211.16,0 383.92,172.76 383.92,383.92l0 803.11 278.69 0c2.56,34.05 5.11,69.87 7.14,107.52 7.37,137.1 100.92,302.72 181.59,435.93l-467.42 0 0 803.11c0,211.16 -172.76,383.92 -383.92,383.92l-0.01 0c-211.16,0 -383.92,-172.76 -383.92,-383.92l0 -803.11 -487.63 0 0 -543.45zm2960.07 0l3143.82 0c-2.09,10.98 -3.58,22.15 -4.43,33.52 -9.18,122.54 10.15,263.5 23.48,386.24 4.53,41.67 5.59,82.78 6.47,123.69l-3194.86 0c0.88,-40.91 1.94,-82.02 6.47,-123.69 13.33,-122.74 32.66,-263.7 23.48,-386.24 -0.85,-11.37 -2.34,-22.54 -4.43,-33.52zm4569.72 0l352.04 0 0 -803.11c0,-211.16 172.76,-383.92 383.92,-383.92l0.01 0c211.16,0 383.92,172.76 383.92,383.92l0 803.11 500.16 0 0 543.45 -500.16 0 0 803.11c0,211.16 -172.76,383.92 -383.92,383.92l-0.01 0c-211.16,0 -383.92,-172.76 -383.92,-383.92l0 -803.11 -540.77 0c80.67,-133.21 174.22,-298.83 181.59,-435.93 2.03,-37.65 4.58,-73.47 7.14,-107.52z"/>
   <path class="fil2" d="M5226.37 8104.73c259.2,0 464.1,210.18 469.32,469.32 1.73,86.26 -20.13,221.18 -39.15,343.05 -36.57,234.34 28.17,447.52 -293.56,482.43 -232.76,30.29 -325.5,-180.6 -440.8,-404.92 -79.4,-154.47 -165.13,-320.21 -165.13,-420.56 0,-259.2 210.12,-469.32 469.32,-469.32zm3498.03 -1463.19c81.35,172.56 159.24,346.61 233.27,514.63 1768.72,-768.18 1980.7,-2789.71 612.23,-4617.01 -18.37,-24.5 -15.85,-58.3 6.02,-79.73 21.59,-21.15 54.68,-23.46 78.89,-5.37 1901.69,1418.68 1700.11,4182.08 -391.42,5391.99 30.82,66.58 60.51,128.78 89.03,185.67 -44.41,7.9 -89.04,23.82 -131.46,48.23 -72.63,41.8 -126.98,101.72 -158.94,167.97l-3225.44 0c-31.96,-66.25 -86.31,-126.17 -158.94,-167.97 -50.83,-29.25 -104.85,-46.3 -157.83,-51.97 174.71,-313.49 392.06,-852.68 640.64,-1384.16 181.86,258.86 364.1,517.44 540.02,780.4 165.17,246.9 428.79,387.71 725.84,387.71l32.69 0c297.05,0 560.67,-140.81 725.84,-387.71 176.21,-263.4 358.32,-522.74 539.56,-782.68zm100.04 4549.64c485.56,0 879.18,393.62 879.18,879.18 0,0.21 0,0.43 0,0.63 -0.08,117.32 -95.78,212.95 -213.1,212.95l-1332.15 0c-117.32,0 -213.02,-95.63 -213.1,-212.95 0,-0.2 0,-0.42 0,-0.63 0,-485.56 393.62,-879.18 879.17,-879.18zm-2723.02 0c485.56,0 879.18,393.62 879.18,879.18 0,0.21 0,0.43 0,0.63 -0.08,117.32 -95.78,212.95 -213.1,212.95l-1332.15 0c-117.32,0 -213.02,-95.63 -213.1,-212.95 0,-0.2 0,-0.42 0,-0.63 0,-485.56 393.62,-879.18 879.17,-879.18zm2982.82 -1932.74l1.46 5.21c57.73,202.16 224.04,297.26 430.17,329.42 102.43,17.5 197.54,7.73 283.87,-26.03 -25.45,558.35 -243.85,1066.33 -589.98,1459.06 -141.56,-69.34 -300.67,-108.31 -468.89,-108.31 -532.35,0 -973.74,389.73 -1054.51,899.38 -84.8,9.17 -170.89,14.02 -258.13,14.02 -74.62,0 -148.39,-3.61 -221.26,-10.35 -74.33,-515.36 -517.34,-911.02 -1052.68,-911.02 -180.77,0 -350.99,45.16 -500.07,124.74 -357.64,-401.87 -580.83,-926.06 -598.8,-1502 104.28,60.49 223.73,82.97 355.23,60.51 206.13,-32.16 372.44,-127.26 430.17,-329.42l1.46 -5.21 3241.96 0zm-1643.99 -5677.58c248.64,0 483.76,57.8 692.77,160.55 119.25,-377.86 472.49,-651.83 889.77,-651.83 515.23,0 932.9,417.67 932.9,932.9 0,515.23 -417.67,932.9 -932.9,932.9 -7.52,0 -15,-0.1 -22.48,-0.28 8.16,64.92 12.39,131.06 12.39,198.2 0,327.71 -100.29,631.96 -271.81,883.82 -273.49,401.66 -557.62,795.97 -830.33,1203.61 -3.15,4.71 -6.35,9.35 -9.61,13.93 -21.72,-35.88 -47.68,-68.91 -77.17,-98.4 -93.79,-93.79 -223.4,-151.82 -366.53,-151.82 -143.13,0 -272.74,58.03 -366.53,151.82 -35.46,35.46 -65.8,76.05 -89.84,120.55 -9.07,-11.57 -17.78,-23.6 -26.13,-36.08 -272.97,-408.03 -554.38,-796.34 -830,-1196.09 -174.64,-253.32 -276.94,-560.37 -276.94,-891.34 0,-67.05 4.23,-133.12 12.37,-197.96l-3.23 0.04c-515.23,0 -932.9,-417.67 -932.9,-932.9 0,-515.23 417.67,-932.9 932.9,-932.9 414.29,0 765.44,270.07 887.15,643.74 204.83,-97.71 434.09,-152.46 676.15,-152.46zm383.57 3761.81c-98.01,90.51 -223.98,139.26 -364.82,139.26l-32.69 0c-131.09,0 -249.29,-42.23 -344.05,-121.05 20.61,-47.67 50.04,-90.64 86.24,-126.84 73.89,-73.89 175.99,-119.6 288.75,-119.6 112.76,0 214.86,45.71 288.75,119.6 31.53,31.53 57.92,68.19 77.82,108.63zm-980.21 -1696.86c97.45,0 176.45,79 176.45,176.45 0,97.45 -79,176.45 -176.45,176.45 -97.45,0 -176.45,-79 -176.45,-176.45 0,-97.45 79,-176.45 176.45,-176.45zm1283.88 0c97.45,0 176.45,79 176.45,176.45 0,97.45 -79,176.45 -176.45,176.45 -97.45,0 -176.45,-79 -176.45,-176.45 0,-97.45 79,-176.45 176.45,-176.45zm1521.86 2458.92c-259.2,0 -464.1,210.18 -469.32,469.32 -1.73,86.26 20.13,221.18 39.15,343.05 36.57,234.34 -28.17,447.52 293.56,482.43 232.76,30.29 325.5,-180.6 440.8,-404.92 79.4,-154.47 165.13,-320.21 165.13,-420.56 0,-259.2 -210.12,-469.32 -469.32,-469.32z"/>
  </g>
 </g>
</svg>
