<?xml version="1.0" encoding="UTF-8"?>
<!DOCTYPE svg PUBLIC "-//W3C//DTD SVG 1.1//EN" "http://www.w3.org/Graphics/SVG/1.1/DTD/svg11.dtd">
<!-- Creator: CorelDRAW -->
<svg xmlns="http://www.w3.org/2000/svg" xml:space="preserve" width="152.4mm" height="152.4mm" version="1.1" style="shape-rendering:geometricPrecision; text-rendering:geometricPrecision; image-rendering:optimizeQuality; fill-rule:evenodd; clip-rule:evenodd"
viewBox="0 0 15240 15240"
 xmlns:xlink="http://www.w3.org/1999/xlink"
 xmlns:xodm="http://www.corel.com/coreldraw/odm/2003">
 <defs>
  <style type="text/css">
   <![CDATA[
    .fil0 {fill:none}
    .fil2 {fill:#992239}
    .fil1 {fill:#A4A5A5}
    .fil3 {fill:white}
   ]]>
  </style>
 </defs>
 <g id="Capa_x0020_1">
  <metadata id="CorelCorpID_0Corel-Layer"/>
  <g id="_2981606949184">
   <rect class="fil0" x="-0" y="-0" width="15240" height="15240"/>
   <ellipse id="contour" class="fil1" cx="7620.01" cy="7620" rx="7200.69" ry="7200.73"/>
   <path id="contour_85" class="fil2" d="M7620.01 364.25c4007.22,0 7255.71,3248.52 7255.71,7255.75 0,4007.22 -3248.49,7255.74 -7255.71,7255.74 -4007.22,0 -7255.7,-3248.52 -7255.7,-7255.74 0,-4007.23 3248.48,-7255.75 7255.7,-7255.75zm-0.06 985.8c3462.82,0 6270.01,2807.18 6270.01,6270 0,3462.82 -2807.19,6270.01 -6270.01,6270.01 -3462.82,0 -6270,-2807.19 -6270,-6270.01 0,-3462.82 2807.18,-6270 6270,-6270z"/>
   <path class="fil3" d="M6307.15 5051.6l1118.08 2553.23 1208.79 -2459.84c-346.71,-171.9 -575.59,-516.06 -575.59,-950.78 0,-645.85 531.44,-1169.4 1186.98,-1169.4 51.74,0 102.38,3.11 151.77,9.07 69.72,-79.96 134.95,-176.77 232.8,-313.7 138.09,-193.26 381.9,-283.81 613.52,-316.02 108.02,-8.43 222.34,-25.16 311.54,8.24 147.61,55.26 198.46,257.2 95.35,380.97 -81.09,97.32 -161.88,82.08 -270.68,95.81 -256.86,32.47 -382.6,148.14 -374.22,417.74 208.78,192.28 334.65,471.13 334.65,799.67 0,639.75 -526.41,1158.37 -1175.77,1158.37l-5.6 -0.06 -1148 2981.24 -413.18 5166.82c-7.5,93.98 -84.83,166.41 -179.19,167.08 -94.37,0.67 -172.68,-70.56 -181.58,-164.52l-492.25 -5194.39 -950.69 -3059.66c-647.65,-1.95 -1172.09,-519.79 -1172.09,-1158.33 0,-633.06 467.28,-1081.78 1094.73,-1081.78 655.55,0 1186.98,523.56 1186.98,1169.41 0,443.35 -238.04,792.54 -596.35,960.83zm2857.22 -336.49c-318.16,0 -556.09,-192.79 -556.09,-520.9 0,-349.18 292.43,-619.56 637.13,-619.56 324.61,0 544.89,203.66 544.89,531.94 0,343.02 -287.34,608.52 -625.93,608.52zm-3366.81 -103.44c318.16,0 556.1,-192.8 556.1,-520.9 0,-349.19 -292.43,-619.56 -637.14,-619.56 -324.6,0 -544.88,203.65 -544.88,531.93 0,343.03 287.34,608.53 625.92,608.53zm1608.3 3560.28c121.41,0 219.84,98.43 219.84,219.84 0,121.41 -98.43,219.83 -219.84,219.83 -121.41,0 -219.83,-98.42 -219.83,-219.83 0,-121.41 98.42,-219.84 219.83,-219.84z"/>
  </g>
 </g>
</svg>
