<?xml version="1.0" encoding="UTF-8"?>
<!DOCTYPE svg PUBLIC "-//W3C//DTD SVG 1.1//EN" "http://www.w3.org/Graphics/SVG/1.1/DTD/svg11.dtd">
<!-- Creator: CorelDRAW -->
<svg xmlns="http://www.w3.org/2000/svg" xml:space="preserve" width="152.4mm" height="152.4mm" version="1.1" style="shape-rendering:geometricPrecision; text-rendering:geometricPrecision; image-rendering:optimizeQuality; fill-rule:evenodd; clip-rule:evenodd"
viewBox="0 0 15240 15240"
 xmlns:xlink="http://www.w3.org/1999/xlink"
 xmlns:xodm="http://www.corel.com/coreldraw/odm/2003">
 <defs>
  <style type="text/css">
   <![CDATA[
    .fil0 {fill:none}
    .fil2 {fill:#992239}
    .fil1 {fill:#A4A5A5}
    .fil3 {fill:white}
   ]]>
  </style>
 </defs>
 <g id="Capa_x0020_1">
  <metadata id="CorelCorpID_0Corel-Layer"/>
  <g id="_2981978453456">
   <rect class="fil0" x="-0" y="-0" width="15240" height="15240"/>
   <path class="fil1" d="M5302.97 620.06c602.29,-87.67 1258.56,-139.78 1925.26,-155.94l0 -2.44c130.23,-2.33 260.7,-3.31 391.1,-2.91l1.35 0c130.4,-0.4 260.88,0.57 391.1,2.91l0 2.44c666.7,16.16 1322.97,68.27 1925.26,155.94 1168.23,170.04 2034.35,454.91 2991.98,961.24 375,198.28 624.47,507.53 738.86,916.01 546.7,1952.26 593.62,4475.73 -355.27,6693.43 -1022.72,2390.25 -2931.53,4171.57 -5219.41,5347.67l-81.42 41.85 0 0.18 -19.03 9.6 -369.3 189.85 -3.43 1.43 -3.46 -1.43 -369.29 -189.85 -19.04 -9.6 0 -0.18 -81.42 -41.85c-2287.88,-1176.1 -4196.69,-2957.42 -5219.4,-5347.67 -948.9,-2217.7 -901.98,-4741.17 -355.27,-6693.43 114.39,-408.48 363.85,-717.73 738.85,-916.01 957.63,-506.33 1823.76,-791.2 2991.98,-961.24z"/>
   <path class="fil2" d="M5272.5 527.99c610.21,-88.82 1275.11,-141.62 1950.58,-157.99l0 -2.47c131.94,-2.36 264.13,-3.35 396.24,-2.95l1.37 0c132.12,-0.4 264.31,0.58 396.24,2.95l0 2.47c675.47,16.37 1340.37,69.17 1950.59,157.99 1183.59,172.28 2061.1,460.89 3031.33,973.89 379.93,200.88 632.68,514.2 748.57,928.05 553.9,1977.94 601.43,4534.6 -359.94,6781.46 -1036.17,2421.7 -2970.08,4226.45 -5288.06,5418.02l-82.49 42.4 0 0.18 -19.28 9.73 -374.16 192.34 -3.47 1.45 -3.5 -1.45 -374.16 -192.34 -19.28 -9.73 0 -0.18 -82.49 -42.4c-2317.98,-1191.57 -4251.89,-2996.32 -5288.05,-5418.02 -961.38,-2246.86 -913.85,-4803.52 -359.95,-6781.46 115.9,-413.85 368.64,-727.17 748.58,-928.05 970.22,-513 1847.74,-801.61 3031.33,-973.89zm151.33 1039.69c-1063.03,154.73 -2023.76,454.89 -2852.19,943.01 -1334,4290.73 309.12,8747.6 5049.28,11184.3 4789.49,-2416.98 6493.14,-6893.57 5159.14,-11184.3 -810,-477.25 -1746.44,-774.83 -2781.36,-932.47 -1360.59,-207.25 -3211.6,-208.97 -4574.87,-10.54z"/>
   <path class="fil3" d="M6501.56 4805.65l1098.12 2507.65 1187.21 -2415.93c-340.52,-168.83 -565.31,-506.84 -565.31,-933.8 0,-634.32 521.95,-1148.53 1165.79,-1148.53 50.82,0 100.55,3.06 149.06,8.91 68.47,-78.53 132.54,-173.61 228.64,-308.1 135.63,-189.81 375.09,-278.74 602.57,-310.38 106.09,-8.28 218.37,-24.71 305.98,8.1 144.97,54.27 194.92,252.6 93.65,374.16 -79.65,95.59 -158.99,80.62 -265.85,94.1 -252.28,31.89 -375.77,145.5 -367.54,410.29 205.05,188.84 328.68,462.72 328.68,785.39 0,628.33 -517.02,1137.69 -1154.78,1137.69l-5.5 -0.06 -1127.51 2928.02 -405.8 5074.58c-7.37,92.31 -83.32,163.44 -176,164.1 -92.68,0.66 -169.59,-69.3 -178.33,-161.58l-483.47 -5101.66 -933.71 -3005.04c-636.09,-1.92 -1151.17,-510.51 -1151.17,-1137.65 0,-621.76 458.94,-1062.47 1075.19,-1062.47 643.84,0 1165.79,514.21 1165.79,1148.53 0,435.44 -233.79,778.39 -585.71,943.68zm2806.22 -330.48c-312.48,0 -546.17,-189.35 -546.17,-511.6 0,-342.95 287.21,-608.5 625.76,-608.5 318.81,0 535.16,200.02 535.16,522.44 0,336.9 -282.21,597.66 -614.75,597.66zm-3306.71 -101.6c312.48,0 546.17,-189.35 546.17,-511.6 0,-342.95 -287.21,-608.5 -625.76,-608.5 -318.81,0 -535.16,200.02 -535.16,522.44 0,336.9 282.21,597.66 614.75,597.66zm1579.59 3496.73c119.24,0 215.91,96.67 215.91,215.91 0,119.24 -96.67,215.91 -215.91,215.91 -119.24,0 -215.91,-96.67 -215.91,-215.91 0,-119.24 96.67,-215.91 215.91,-215.91z"/>
  </g>
 </g>
</svg>
