<?xml version="1.0" encoding="UTF-8"?>
<!DOCTYPE svg PUBLIC "-//W3C//DTD SVG 1.1//EN" "http://www.w3.org/Graphics/SVG/1.1/DTD/svg11.dtd">
<!-- Creator: CorelDRAW -->
<svg xmlns="http://www.w3.org/2000/svg" xml:space="preserve" width="152.4mm" height="152.4mm" version="1.1" style="shape-rendering:geometricPrecision; text-rendering:geometricPrecision; image-rendering:optimizeQuality; fill-rule:evenodd; clip-rule:evenodd"
viewBox="0 0 15240 15240"
 xmlns:xlink="http://www.w3.org/1999/xlink"
 xmlns:xodm="http://www.corel.com/coreldraw/odm/2003">
 <defs>
  <style type="text/css">
   <![CDATA[
    .fil0 {fill:none}
    .fil2 {fill:#86B33E}
    .fil1 {fill:#DEDFE0}
    .fil3 {fill:#86B33E;fill-rule:nonzero}
   ]]>
  </style>
 </defs>
 <g id="Capa_x0020_1">
  <metadata id="CorelCorpID_0Corel-Layer"/>
  <g id="_2981915276224">
   <rect class="fil0" x="-0" y="-0" width="15240" height="15240"/>
   <ellipse id="contour" class="fil1" cx="7620.01" cy="7620" rx="7200.69" ry="7200.73"/>
   <path id="contour_113" class="fil2" d="M7620.01 364.25c4007.22,0 7255.71,3248.52 7255.71,7255.75 0,4007.22 -3248.49,7255.74 -7255.71,7255.74 -4007.22,0 -7255.7,-3248.52 -7255.7,-7255.74 0,-4007.23 3248.48,-7255.75 7255.7,-7255.75zm-0.06 985.8c3462.82,0 6270.01,2807.18 6270.01,6270 0,3462.82 -2807.19,6270.01 -6270.01,6270.01 -3462.82,0 -6270,-2807.19 -6270,-6270.01 0,-3462.82 2807.18,-6270 6270,-6270z"/>
   <path class="fil3" d="M3097.97 6741.07l0.26 0c371.99,-2155.14 2250.25,-3794.59 4511.65,-3794.59 2263.13,0 4142.5,1641.97 4512.47,3799.55l0.3 0 517.33 2987.08c19.05,110.01 -8.62,212.32 -80.51,297.73 -71.89,85.42 -167.99,130.14 -279.63,130.14l-925.57 0c-828.83,1175.32 -2196.88,1943.12 -3744.39,1943.12 -1547.51,0 -2915.56,-767.8 -3744.39,-1943.12l-925.58 0c-111.64,0 -207.74,-44.72 -279.63,-130.14 -71.89,-85.41 -99.56,-187.73 -80.51,-297.73l518.2 -2992.04zm2514.65 2559.17c-39.04,-39.04 -39.04,-102.36 0,-141.4 39.04,-39.04 102.36,-39.04 141.4,0l226.82 226.82 226.82 -226.82c39.04,-39.04 102.36,-39.04 141.4,0 39.04,39.04 39.04,102.36 0,141.4l-226.82 226.82 226.82 226.82c39.04,39.04 39.04,102.36 0,141.4 -39.04,39.04 -102.36,39.04 -141.4,0l-226.82 -226.82 -226.82 226.82c-39.04,39.04 -102.36,39.04 -141.4,0 -39.04,-39.04 -39.04,-102.36 0,-141.4l226.82 -226.82 -226.82 -226.82zm1415.35 1693.06c-35.92,34.17 -92.75,32.76 -126.92,-3.16 -34.17,-35.92 -32.76,-92.75 3.16,-126.92 94.45,-89.55 205.57,-159.44 326.29,-206.83 120.62,-47.36 250.73,-72.42 383.26,-72.42 125.58,0 249.04,22.46 364.29,65.15 115.34,42.71 222.61,105.9 315.7,187.3 37.27,32.61 41.05,89.29 8.44,126.56 -32.61,37.27 -89.29,41.05 -126.56,8.44 -75.98,-66.44 -164.15,-118.24 -259.46,-153.54 -95.36,-35.32 -197.85,-53.91 -302.41,-53.91 -110.43,0 -218.33,20.69 -317.86,59.76 -99.44,39.03 -190.7,96.34 -267.93,169.57zm1636.68 -1693.06c-39.04,-39.04 -39.04,-102.36 0,-141.4 39.04,-39.04 102.36,-39.04 141.4,0l226.82 226.82 226.82 -226.82c39.04,-39.04 102.36,-39.04 141.4,0 39.04,39.04 39.04,102.36 0,141.4l-226.82 226.82 226.82 226.82c39.04,39.04 39.04,102.36 0,141.4 -39.04,39.04 -102.36,39.04 -141.4,0l-226.82 -226.82 -226.82 226.82c-39.04,39.04 -102.36,39.04 -141.4,0 -39.04,-39.04 -39.04,-102.36 0,-141.4l226.82 -226.82 -226.82 -226.82zm3056.95 -1005.02l-8223.44 0c361.43,1942.24 2064.72,3412.78 4111.72,3412.78 2047,0 3750.29,-1470.54 4111.72,-3412.78z"/>
  </g>
 </g>
</svg>
