<?xml version="1.0" encoding="UTF-8"?>
<!DOCTYPE svg PUBLIC "-//W3C//DTD SVG 1.1//EN" "http://www.w3.org/Graphics/SVG/1.1/DTD/svg11.dtd">
<!-- Creator: CorelDRAW -->
<svg xmlns="http://www.w3.org/2000/svg" xml:space="preserve" width="152.4mm" height="152.4mm" version="1.1" style="shape-rendering:geometricPrecision; text-rendering:geometricPrecision; image-rendering:optimizeQuality; fill-rule:evenodd; clip-rule:evenodd"
viewBox="0 0 15240 15240"
 xmlns:xlink="http://www.w3.org/1999/xlink"
 xmlns:xodm="http://www.corel.com/coreldraw/odm/2003">
 <defs>
  <style type="text/css">
   <![CDATA[
    .fil0 {fill:none}
    .fil2 {fill:#ED252B}
    .fil1 {fill:white}
   ]]>
  </style>
 </defs>
 <g id="Capa_x0020_1">
  <metadata id="CorelCorpID_0Corel-Layer"/>
  <g id="_1905359543600">
   <rect class="fil0" x="-0" y="-0" width="15240" height="15240"/>
   <path class="fil1" d="M5302.97 620.06c602.29,-87.67 1258.56,-139.78 1925.26,-155.94l0 -2.44c130.23,-2.33 260.7,-3.31 391.1,-2.91l1.35 0c130.4,-0.4 260.88,0.57 391.1,2.91l0 2.44c666.7,16.16 1322.97,68.27 1925.26,155.94 1168.23,170.04 2034.35,454.91 2991.98,961.24 375,198.28 624.47,507.53 738.86,916.01 546.7,1952.26 593.62,4475.73 -355.27,6693.43 -1022.72,2390.25 -2931.53,4171.57 -5219.41,5347.67l-81.42 41.85 0 0.18 -19.03 9.6 -369.3 189.85 -3.43 1.43 -3.46 -1.43 -369.29 -189.85 -19.04 -9.6 0 -0.18 -81.42 -41.85c-2287.88,-1176.1 -4196.69,-2957.42 -5219.4,-5347.67 -948.9,-2217.7 -901.98,-4741.17 -355.27,-6693.43 114.39,-408.48 363.85,-717.73 738.85,-916.01 957.63,-506.33 1823.76,-791.2 2991.98,-961.24z"/>
   <path class="fil2" d="M10587.61 12868.06c-752.15,650.67 -1593.88,1207.43 -2494.41,1670.35l-81.42 41.85 0 0.18 -19.03 9.6 -369.3 189.85 -3.43 1.43 -3.46 -1.43 -369.29 -189.85 -19.04 -9.6 0 -0.18 -81.42 -41.85c-1533.56,-788.34 -2896.76,-1848.64 -3936.99,-3181.95 211.05,-325.72 367.45,-559.97 372.31,-555.79 86.44,-115.59 337.21,-575.63 761.24,-931.39 376.95,-316.28 46.25,-33.06 742.05,-587.24 377.7,-300.83 377.91,-283.7 380.4,-313.13 4.06,-48.01 -282.95,-470.48 -374.73,-710.56 -238.25,-623.17 -191.25,-1292.28 -232.25,-1431.38 -18.92,-3.7 -929.34,167.03 -948.2,170.94 -282.95,58.83 -1098.59,168.79 -1111.16,-30.56 -13.05,-206.99 844.65,-567.53 863.25,-576.75 239.9,-118.86 1056.71,-388.15 1129.94,-452.26 -17.83,-400.65 -21.23,-440.66 -27.26,-667.84 -0.35,-13.41 -7.45,-328.47 -7.6,-335.17 -0.8,-37.98 -5.94,-303.89 -6.23,-316.56 -13.15,-584.74 -45.61,-1089.65 -37.25,-1328.78 110.64,-140.6 1358.63,-883.67 2851.05,-882.24 455.41,0.44 1486.24,160.48 1603.23,273.28 153.6,148.12 521.2,1984.41 569.41,2054.81 7.17,10.47 8.01,11.28 89.09,56.95 431.67,10.22 718.49,-1.72 1746.98,429.43 381.1,159.77 1131.32,610.34 750.86,867.18 -1138.51,-28.17 -580.8,-94 -1456.84,-97.05 -682.64,-2.36 -1040.07,81.32 -1127.19,154.37 -27.52,102.88 -73.88,459.84 266.23,846.65 237.11,269.66 422.11,428.25 361.99,620.02 -50.36,160.65 -333.35,122.77 -371.27,152.43 -74.28,58.09 27.42,455.13 -39.2,521.86 -49.15,49.22 -309.95,105.68 -322.68,130.41 -22.37,43.48 14.44,30.03 121.68,163.47 -126.6,426.42 -187,123.05 -39.65,554.54 3.81,11.14 72.32,428.86 -296.64,509.22 -507.85,110.62 -628.6,199.5 -666.35,277.35 -59.67,123.04 372.44,627.16 582.25,979.76 7.46,12.52 348.25,538.87 390.37,615.53 266.13,484.33 261.45,487.87 270.29,494.9 46.56,78.94 318.13,485.3 589.67,855.2z"/>
   <path class="fil2" d="M5272.5 527.99c610.21,-88.82 1275.11,-141.62 1950.58,-157.99l0 -2.47c131.94,-2.36 264.13,-3.35 396.24,-2.95l1.37 0c132.12,-0.4 264.31,0.58 396.24,2.95l0 2.47c675.47,16.37 1340.37,69.17 1950.59,157.99 1183.59,172.28 2061.1,460.89 3031.33,973.89 379.93,200.88 632.68,514.2 748.57,928.05 553.9,1977.94 601.43,4534.6 -359.94,6781.46 -1036.17,2421.7 -2970.08,4226.45 -5288.06,5418.02l-82.49 42.4 0 0.18 -19.28 9.73 -374.16 192.34 -3.47 1.45 -3.5 -1.45 -374.16 -192.34 -19.28 -9.73 0 -0.18 -82.49 -42.4c-2317.98,-1191.57 -4251.89,-2996.32 -5288.05,-5418.02 -961.38,-2246.86 -913.85,-4803.52 -359.95,-6781.46 115.9,-413.85 368.64,-727.17 748.58,-928.05 970.22,-513 1847.74,-801.61 3031.33,-973.89zm151.33 1039.69c-1063.03,154.73 -2023.76,454.89 -2852.19,943.01 -1334,4290.73 309.12,8747.6 5049.28,11184.3 4789.49,-2416.98 6493.14,-6893.57 5159.14,-11184.3 -810,-477.25 -1746.44,-774.83 -2781.36,-932.47 -1360.59,-207.25 -3211.6,-208.97 -4574.87,-10.54z"/>
  </g>
 </g>
</svg>
