<?xml version="1.0" encoding="UTF-8"?>
<!DOCTYPE svg PUBLIC "-//W3C//DTD SVG 1.1//EN" "http://www.w3.org/Graphics/SVG/1.1/DTD/svg11.dtd">
<!-- Creator: CorelDRAW -->
<svg xmlns="http://www.w3.org/2000/svg" xml:space="preserve" width="152.4mm" height="152.4mm" version="1.1" style="shape-rendering:geometricPrecision; text-rendering:geometricPrecision; image-rendering:optimizeQuality; fill-rule:evenodd; clip-rule:evenodd"
viewBox="0 0 4958.84 4958.84"
 xmlns:xlink="http://www.w3.org/1999/xlink"
 xmlns:xodm="http://www.corel.com/coreldraw/odm/2003">
 <defs>
  <style type="text/css">
   <![CDATA[
    .fil0 {fill:none}
    .fil2 {fill:#ED1C24}
    .fil1 {fill:white}
   ]]>
  </style>
 </defs>
 <g id="Capa_x0020_1">
  <metadata id="CorelCorpID_0Corel-Layer"/>
  <g id="_1905364925312">
   <rect class="fil0" x="-0" y="-0" width="4958.84" height="4958.84"/>
   <ellipse id="contour" class="fil1" cx="2479.42" cy="2479.42" rx="2342.98" ry="2342.99"/>
   <path id="contour_14" class="fil2" d="M3548.6 4564.75c-320.55,164.69 -684,257.66 -1069.18,257.66 -655.27,0 -1247.6,-269.11 -1672.81,-702.7 105.44,-164.39 193.37,-297.35 195.57,-295.46 31.55,-42.19 123.06,-210.08 277.81,-339.91 137.57,-115.42 16.88,-12.07 270.81,-214.31 137.84,-109.79 137.92,-103.54 138.83,-114.28 1.48,-17.52 -103.26,-171.7 -136.76,-259.32 -86.95,-227.43 -69.79,-471.62 -84.76,-522.39 -6.9,-1.35 -339.16,60.96 -346.04,62.39 -103.26,21.47 -400.93,61.6 -405.52,-11.15 -4.76,-75.54 308.26,-207.12 315.05,-210.48 87.55,-43.38 385.65,-141.66 412.37,-165.05 -6.5,-146.22 -7.75,-160.82 -9.95,-243.73 -0.13,-4.89 -2.72,-119.87 -2.77,-122.32 -0.29,-13.86 -2.17,-110.9 -2.27,-115.53 -4.81,-213.41 -16.65,-397.67 -13.6,-484.94 40.38,-51.31 495.83,-322.5 1040.5,-321.97 166.2,0.16 542.4,58.57 585.1,99.73 56.05,54.06 190.21,724.21 207.81,749.91 2.62,3.82 2.93,4.12 32.52,20.78 157.54,3.73 262.22,-0.62 637.56,156.72 139.08,58.31 412.88,222.74 274.03,316.48 -415.5,-10.28 -211.96,-34.31 -531.68,-35.41 -249.13,-0.86 -379.58,29.68 -411.37,56.34 -10.04,37.55 -26.96,167.82 97.16,308.98 86.53,98.42 154.05,156.29 132.11,226.28 -18.38,58.63 -121.65,44.8 -135.5,55.63 -27.1,21.2 10.01,166.1 -14.3,190.45 -17.94,17.96 -113.12,38.57 -117.76,47.6 -8.16,15.87 5.27,10.96 44.41,59.66 -46.2,155.62 -68.25,44.91 -14.47,202.38 1.39,4.07 26.39,156.52 -108.26,185.84 -185.34,40.37 -229.41,72.81 -243.19,101.22 -21.78,44.91 135.92,228.88 212.49,357.57 2.72,4.57 127.1,196.66 142.47,224.64 97.13,176.76 95.42,178.05 98.65,180.62 16.4,27.82 109.36,167.03 204.95,298.11z"/>
   <path id="contour_15" class="fil2" d="M2479.42 118.52c1303.88,0 2360.88,1057.01 2360.88,2360.9 0,1303.88 -1057,2360.89 -2360.88,2360.89 -1303.88,0 -2360.88,-1057.01 -2360.88,-2360.89 0,-1303.88 1057,-2360.9 2360.88,-2360.9zm-0.02 320.76c1126.74,0 2040.15,913.41 2040.15,2040.15 0,1126.74 -913.41,2040.15 -2040.15,2040.15 -1126.74,0 -2040.15,-913.41 -2040.15,-2040.15 0,-1126.74 913.41,-2040.15 2040.15,-2040.15z"/>
  </g>
 </g>
</svg>
