<?xml version="1.0" encoding="UTF-8"?>
<!DOCTYPE svg PUBLIC "-//W3C//DTD SVG 1.1//EN" "http://www.w3.org/Graphics/SVG/1.1/DTD/svg11.dtd">
<!-- Creator: CorelDRAW -->
<svg xmlns="http://www.w3.org/2000/svg" xml:space="preserve" width="152.4mm" height="152.4mm" version="1.1" style="shape-rendering:geometricPrecision; text-rendering:geometricPrecision; image-rendering:optimizeQuality; fill-rule:evenodd; clip-rule:evenodd"
viewBox="0 0 15240 15240"
 xmlns:xlink="http://www.w3.org/1999/xlink"
 xmlns:xodm="http://www.corel.com/coreldraw/odm/2003">
 <defs>
  <style type="text/css">
   <![CDATA[
    .fil0 {fill:none}
    .fil4 {fill:#0B9444}
    .fil2 {fill:#39B54A}
    .fil3 {fill:#A9CF38}
    .fil1 {fill:#D7DF21}
   ]]>
  </style>
 </defs>
 <g id="Capa_x0020_1">
  <metadata id="CorelCorpID_0Corel-Layer"/>
  <g id="_1590521742544">
   <rect class="fil0" x="-0" y="-0" width="15240" height="15240"/>
   <ellipse id="contour" class="fil1" cx="7620.01" cy="7620" rx="7200.69" ry="7200.73"/>
   <path id="contour_4" class="fil2" d="M12978.59 12429.49c-1318.22,1467.77 -3230.45,2391.23 -5358.58,2391.23 -2177.86,0 -4129.82,-966.93 -5450.22,-2494.82 184.58,-828.77 566.46,-1580.73 1099.62,-2209.63l-1447.14 -1636.92c-32.65,-36.93 -34.38,-90.62 -4.16,-129.57 30.22,-38.96 82.66,-50.63 126.55,-28.18l2081.14 1064.5c221.34,-174.96 457.77,-333.59 707.57,-473.97l-1511.68 -4285.31c-21.62,-61.28 5.95,-128.25 64.44,-156.56 58.5,-28.32 128.15,-8.37 162.79,46.62l2458.13 3902.41c245.5,-71.93 498.87,-128.55 759.14,-168.38l600.84 -5646.22c8.28,-77.78 73.16,-136.19 151.38,-136.28 78.22,-0.08 143.23,58.19 151.68,135.94l610.34 5615.86c360.55,45.85 712.52,131.07 1052.03,250.55l2501.57 -3971.38c34.64,-54.99 104.29,-74.94 162.79,-46.62 58.49,28.31 86.06,95.28 64.44,156.56l-1560.82 4424.61 -3.05 8.39c214.63,137.48 420.73,289.01 616.88,452.84l2300.21 -1152.77c44.06,-22.08 96.33,-10.77 126.55,28.18 30.22,38.95 28.35,92.52 -4.16,129.57l-1599.7 1823.45c515.79,624.84 910.85,1345.74 1141.42,2105.9z"/>
   <path id="contour_5" class="fil3" d="M11680.54 13567c-965.79,660.7 -2100.49,1092.56 -3326.24,1216.71l-173.35 -2336.6c603.1,-211.01 1358.1,-225.43 2336.88,49.72 -850.39,-706.17 -1414.66,-661.18 -2726.36,-381.19l106.74 2699.22c-92.35,3.51 -184.99,5.86 -278.2,5.86 -214.85,0 -427.35,-9.95 -637.41,-28.4l105.85 -2676.68c-1311.7,-279.99 -1875.97,-324.98 -2726.36,381.19 978.78,-275.15 1733.78,-260.73 2336.88,-49.72l-170 2291.42c-1151.44,-175.02 -2213.03,-623.02 -3117.35,-1275.49 404.66,-1826.91 2026.8,-3171.3 4057.71,-3208.51 1948.25,-35.69 3675.92,1496.21 4211.21,3312.47z"/>
   <path class="fil4" d="M7440.45 8655.7c239.98,-5.9 478.8,9.58 714.89,43.9l-266.53 1091.36c-160.03,-17.97 -320.84,-26.71 -481.65,-24.95 -136.01,1.49 -271.17,9.11 -405.13,22.26l-234.65 -1072.62c220.55,-33.84 445.2,-54.35 673.07,-59.95zm1388.74 194.73c280.89,85.35 555.28,196.63 819.88,330.96l-531.64 933.73c-169.94,-71.02 -343.57,-132.32 -519.78,-182.85l231.54 -1081.84zm1437.31 697.5c215,146.91 420.76,309.05 615.35,484.17l-723.92 671.87c-125.01,-91.44 -254.38,-177.62 -387.57,-257.76 129.23,-197.35 373.24,-661.11 496.14,-898.28zm1095.61 968.48c147.92,167.21 286.57,342.38 414.3,524.38l-678.89 555.45c-122.12,-151.57 -255.08,-297.04 -397.32,-435.11l661.91 -644.72zm663.3 911.16c70.77,120.03 136.99,242.3 198.28,366.55l-660 509.99c-56.63,-108.64 -119,-215.44 -186.31,-320.22l648.03 -556.32zm-9251.08 396.34c50.74,-127.64 106.66,-252.82 168.04,-375.03l578.99 479.29c-67.42,118.04 -127.66,239.2 -180.04,363.13l-566.99 -467.39zm399.43 -784.28c111.97,-177.22 235.41,-347.04 369.17,-508.64l600.94 587.96c-130.63,130.78 -251.29,268.86 -360.63,413.28l-609.48 -492.6zm893.88 -1053.61c183.18,-163.89 378.66,-315.16 584.85,-452.34l489.16 836.2c-156.35,86.94 -306.54,182.15 -449.6,284.69l-624.41 -668.55zm1227.9 -817.29c244.97,-116.97 500.63,-215.65 764.74,-294.32l258.64 1031.92c-177.08,44.01 -350.61,97.77 -519.49,160.64l-503.89 -898.24z"/>
   <path id="contour_6" class="fil2" d="M7620.01 364.25c4007.22,0 7255.71,3248.52 7255.71,7255.75 0,4007.22 -3248.49,7255.74 -7255.71,7255.74 -4007.22,0 -7255.7,-3248.52 -7255.7,-7255.74 0,-4007.23 3248.48,-7255.75 7255.7,-7255.75zm-0.06 985.8c3462.82,0 6270.01,2807.18 6270.01,6270 0,3462.82 -2807.19,6270.01 -6270.01,6270.01 -3462.82,0 -6270,-2807.19 -6270,-6270.01 0,-3462.82 2807.18,-6270 6270,-6270z"/>
  </g>
 </g>
</svg>
