<?xml version="1.0" encoding="UTF-8"?>
<!DOCTYPE svg PUBLIC "-//W3C//DTD SVG 1.1//EN" "http://www.w3.org/Graphics/SVG/1.1/DTD/svg11.dtd">
<!-- Creator: CorelDRAW -->
<svg xmlns="http://www.w3.org/2000/svg" xml:space="preserve" width="152.4mm" height="152.4mm" version="1.1" style="shape-rendering:geometricPrecision; text-rendering:geometricPrecision; image-rendering:optimizeQuality; fill-rule:evenodd; clip-rule:evenodd"
viewBox="0 0 4960.86 4960.86"
 xmlns:xlink="http://www.w3.org/1999/xlink"
 xmlns:xodm="http://www.corel.com/coreldraw/odm/2003">
 <defs>
  <style type="text/css">
   <![CDATA[
    .fil0 {fill:none}
    .fil3 {fill:#0B9444}
    .fil2 {fill:#39B54A}
    .fil4 {fill:#A9CF38}
    .fil1 {fill:#D7DF21}
   ]]>
  </style>
 </defs>
 <g id="Capa_x0020_1">
  <metadata id="CorelCorpID_0Corel-Layer"/>
  <g id="_1590533848832">
   <rect class="fil0" x="-0" y="-0" width="4960.86" height="4960.86"/>
   <path class="fil1" d="M1726.2 201.84c196.05,-28.54 409.68,-45.5 626.7,-50.76l0 -0.79c42.39,-0.76 84.86,-1.08 127.31,-0.95l0.44 0c42.45,-0.13 84.92,0.19 127.31,0.95l0 0.79c217.02,5.26 430.65,22.22 626.7,50.76 380.28,55.35 662.21,148.08 973.94,312.9 122.07,64.54 203.27,165.21 240.51,298.18 177.96,635.49 193.23,1456.92 -115.65,2178.82 -332.91,778.06 -954.26,1357.91 -1699,1740.75l-26.5 13.62 0 0.06 -6.19 3.12 -120.21 61.8 -1.12 0.47 -1.13 -0.47 -120.21 -61.8 -6.2 -3.12 0 -0.06 -26.5 -13.62c-744.74,-382.84 -1366.09,-962.69 -1699,-1740.75 -308.88,-721.9 -293.61,-1543.32 -115.65,-2178.82 37.24,-132.97 118.44,-233.63 240.51,-298.18 311.72,-164.82 593.66,-257.55 973.94,-312.9z"/>
   <path class="fil2" d="M4024.05 3549.95c-349.53,503.6 -835.37,897.63 -1389.58,1182.53l-26.5 13.62 0 0.06 -6.19 3.12 -120.21 61.8 -1.12 0.47 -1.13 -0.47 -120.21 -61.8 -6.2 -3.12 0 -0.06 -26.5 -13.62c-541.67,-278.45 -1018.02,-661.15 -1365.64,-1148.5 48.93,-249.34 160.44,-475.35 319.35,-662.8l-410.24 -464.04c-9.25,-10.47 -9.75,-25.69 -1.18,-36.73 8.57,-11.04 23.43,-14.35 35.88,-7.99l589.97 301.77c62.75,-49.6 129.77,-94.57 200.59,-134.36l-428.54 -1214.82c-6.13,-17.37 1.69,-36.36 18.27,-44.38 16.59,-8.03 36.33,-2.38 46.15,13.21l696.84 1106.27c69.6,-20.39 141.42,-36.44 215.2,-47.74l170.33 -1600.61c2.35,-22.05 20.74,-38.61 42.92,-38.63 22.17,-0.03 40.6,16.49 43,38.53l173.02 1592.01c102.21,13 201.99,37.16 298.23,71.03l709.16 -1125.82c9.82,-15.59 29.57,-21.24 46.15,-13.22 16.58,8.02 24.4,27.01 18.27,44.38l-442.47 1254.31 -0.86 2.38c60.85,38.97 119.27,81.93 174.88,128.37l652.07 -326.79c12.49,-6.26 27.31,-3.05 35.88,7.99 8.57,11.04 8.04,26.23 -1.18,36.73l-453.49 516.92c140.1,169.72 248.76,364.44 315.11,570z"/>
   <path class="fil3" d="M2462.53 2507.13c68.03,-1.67 135.73,2.71 202.66,12.44l-75.56 309.38c-45.37,-5.09 -90.95,-7.57 -136.54,-7.07 -38.56,0.42 -76.87,2.58 -114.85,6.31l-66.52 -304.07c62.52,-9.59 126.21,-15.41 190.8,-17zm393.69 55.2c79.63,24.2 157.41,55.74 232.42,93.82l-150.71 264.7c-48.17,-20.13 -97.39,-37.51 -147.35,-51.84l65.64 -306.68zm407.45 197.73c60.95,41.65 119.28,87.61 174.44,137.25l-205.22 190.47c-35.44,-25.92 -72.11,-50.35 -109.87,-73.07 36.63,-55.95 105.81,-187.41 140.65,-254.65zm310.59 274.55c41.93,47.4 81.24,97.06 117.45,148.65l-192.45 157.46c-34.62,-42.97 -72.31,-84.21 -112.63,-123.35l187.64 -182.77zm188.04 258.3c20.06,34.03 38.83,68.69 56.21,103.91l-187.1 144.57c-16.05,-30.8 -33.74,-61.07 -52.82,-90.78l183.71 -157.71zm-2622.53 112.35c14.38,-36.18 30.23,-71.67 47.64,-106.32l164.13 135.87c-19.11,33.46 -36.19,67.81 -51.04,102.94l-160.73 -132.5zm113.23 -222.33c31.74,-50.24 66.73,-98.38 104.65,-144.19l170.36 166.68c-37.03,37.07 -71.24,76.22 -102.23,117.16l-172.78 -139.64zm253.4 -298.68c51.93,-46.46 107.35,-89.34 165.79,-128.23l138.67 237.05c-44.32,24.64 -86.9,51.64 -127.46,80.71l-177.01 -189.52zm348.09 -231.69c69.45,-33.16 141.92,-61.13 216.79,-83.43l73.32 292.53c-50.2,12.48 -99.39,27.72 -147.27,45.54l-142.85 -254.64z"/>
   <path class="fil4" d="M3682.04 3965.82c-299.2,310.03 -656.34,565.54 -1047.58,766.66l-26.5 13.62 0 0.06 -6.19 3.12 -120.21 61.8 -1.12 0.47 -1.13 -0.47 -120.21 -61.8 -6.2 -3.12 0 -0.06 -26.5 -13.62c-381.78,-196.25 -731.1,-444.3 -1025.79,-744.27 66.47,-577.16 551.37,-1016.51 1170.11,-1027.84 575.89,-10.55 1083.73,462.08 1211.32,1005.45zm-322.32 -369.79c-277.47,-78 -491.5,-73.91 -662.47,-14.09l40.04 539.7 -15.98 0 0 0.12 -374.32 0 -102.8 0 0 -0.08 -7.13 -0.01 40.07 -531.47c-170.97,-59.82 -385,-63.91 -662.47,14.09 241.07,-200.19 401.03,-187.44 772.88,-108.06l-34.88 538.01 273.75 0 -39.58 -546.28c371.85,-79.37 531.81,-92.13 772.88,108.06z"/>
   <path class="fil2" d="M1716.28 171.87c198.63,-28.91 415.07,-46.1 634.94,-51.43l0 -0.8c42.95,-0.77 85.98,-1.09 128.98,-0.96l0.45 0c43.01,-0.13 86.04,0.19 128.98,0.96l0 0.8c219.88,5.33 436.31,22.52 634.95,51.43 385.28,56.08 670.92,150.03 986.75,317.02 123.67,65.39 205.95,167.38 243.67,302.09 180.3,643.85 195.77,1476.08 -117.17,2207.47 -337.29,788.3 -966.81,1375.78 -1721.35,1763.65l-26.85 13.8 0 0.06 -6.28 3.17 -121.79 62.61 -1.13 0.47 -1.14 -0.47 -121.79 -62.61 -6.28 -3.17 0 -0.06 -26.85 -13.8c-754.54,-387.87 -1384.06,-975.35 -1721.34,-1763.65 -312.94,-731.39 -297.47,-1563.62 -117.17,-2207.47 37.73,-134.71 120,-236.71 243.67,-302.09 315.82,-166.99 601.47,-260.94 986.75,-317.02zm49.26 338.44c-346.03,50.37 -658.77,148.07 -928.43,306.96 -434.24,1396.7 100.62,2847.48 1643.62,3640.66 1559.05,-786.76 2113.62,-2243.96 1679.38,-3640.66 -263.67,-155.35 -568.49,-252.22 -905.38,-303.53 -442.89,-67.46 -1045.43,-68.02 -1489.19,-3.43z"/>
  </g>
 </g>
</svg>
