<?xml version="1.0" encoding="UTF-8"?>
<!DOCTYPE svg PUBLIC "-//W3C//DTD SVG 1.1//EN" "http://www.w3.org/Graphics/SVG/1.1/DTD/svg11.dtd">
<!-- Creator: CorelDRAW -->
<svg xmlns="http://www.w3.org/2000/svg" xml:space="preserve" width="152.4mm" height="152.4mm" version="1.1" style="shape-rendering:geometricPrecision; text-rendering:geometricPrecision; image-rendering:optimizeQuality; fill-rule:evenodd; clip-rule:evenodd"
viewBox="0 0 15240 15240"
 xmlns:xlink="http://www.w3.org/1999/xlink"
 xmlns:xodm="http://www.corel.com/coreldraw/odm/2003">
 <defs>
  <style type="text/css">
   <![CDATA[
    .fil0 {fill:none}
    .fil4 {fill:#FEFEFE}
    .fil5 {fill:#044F80}
    .fil1 {fill:#1461AB}
    .fil2 {fill:url(#id0)}
    .fil3 {fill:url(#id1)}
   ]]>
  </style>
  <linearGradient id="id0" gradientUnits="userSpaceOnUse" x1="7618.31" y1="6988.83" x2="7619.95" y2="13842.52">
   <stop offset="0" style="stop-opacity:1; stop-color:#113F6B"/>
   <stop offset="1" style="stop-opacity:1; stop-color:#1461AB"/>
  </linearGradient>
  <linearGradient id="id1" gradientUnits="userSpaceOnUse" x1="7694.74" y1="6962.44" x2="7620.01" y2="14875.74">
   <stop offset="0" style="stop-opacity:1; stop-color:#0B3A5D"/>
   <stop offset="1" style="stop-opacity:1; stop-color:#044F80"/>
  </linearGradient>
 </defs>
 <g id="Capa_x0020_1">
  <metadata id="CorelCorpID_0Corel-Layer"/>
  <g id="_2981990325440">
   <rect class="fil0" x="-0" y="-0" width="15240" height="15240"/>
   <g>
    <ellipse id="contour" class="fil1" cx="7620.01" cy="7620" rx="7200.69" ry="7200.73"/>
    <path id="contour_108" class="fil2" d="M14769.37 8480.17c-425.19,3571.26 -3463.65,6340.56 -7149.36,6340.56 -3683.39,0 -6720.36,-2765.81 -7148.57,-6333.81 2034.51,-1001.08 4499.16,-1587.6 7155.78,-1587.6 2650.67,0 5110.27,583.87 7142.15,1580.85z"/>
   </g>
   <path id="contour_109" class="fil3" d="M14823.99 8486.74c-428.44,3598.55 -3490.11,6389 -7203.98,6389 -3711.53,0 -6771.71,-2786.94 -7203.19,-6382.2 307,-151.06 623.66,-292.74 949.29,-424.49 230.23,3253.22 2942.02,5821.01 6253.84,5821.01 3313.75,0 6026.73,-2570.8 6254.21,-5826.72 325.77,131.4 642.66,272.68 949.83,423.4z"/>
   <path id="contour_110" class="fil4" d="M14579.83 5564.28c192.23,651.83 295.89,1341.62 295.89,2055.72 0,1683.61 -573.49,3233.27 -1535.79,4464.26 -117.89,-156.51 -234.11,-306.27 -348.05,-446.7 -286.32,-352.89 -558.12,-646.83 -805.36,-841.07l-7.14 -5.61 -8.97 -1.72c-211.67,-40.62 -391.02,-148.83 -532.03,-337.01 -143.27,-191.17 -247.82,-464.94 -307.61,-834.01 -14.98,-151.69 -70.39,-292.68 -169.28,-438.84 -97.43,-144 -237.27,-293.16 -422.68,-463.22 -15.2,-13.99 -38.89,-13 -52.88,2.2 -13.99,15.2 -13,38.89 2.2,52.88 181.17,166.17 317.32,311.2 411.26,450.04 92.18,136.25 143.6,266.48 157.1,405.32l0.3 2.34c61.78,382.07 171.2,667.11 321.83,868.11 150.96,201.46 342.59,318.47 568.62,363.93 240.93,190.79 506.48,478.53 786.64,823.82 117,144.2 236.57,298.49 357.97,459.98 -298.76,373.95 -633.66,717.68 -999.51,1025.96 -393.95,-674.67 -1033.63,-1482.98 -1199.28,-1952.08 -418.8,200.75 -987.52,333.79 -1256.41,602.24 -612.15,393.2 -1579.37,527.25 -2468.63,345.95 -920.74,-5.44 -1194.46,-10.22 -1910.56,9.8 -400.56,11.19 -729.28,-168.18 -829.16,-369.35 -572.18,-208.03 -655.17,-570.66 -412.72,-987.09 98.11,-705.48 -247.51,-1669.55 106.08,-1957.56 33.3,-781.32 325.48,-1451.67 780.48,-2052.28 273.01,-793.81 615.94,-1462.15 819.02,-2381.44 245.46,-431 394.75,-770.62 745.8,-1124.53 347.98,-350.8 629.99,-591.66 799.46,-644.92 137.24,-243.85 298.46,-343.63 480.1,-321.02 158.36,-317.45 377.91,-284.32 622.73,-106.59 158.21,-76.18 312.55,-12.98 464.82,124.71 597.75,559.89 782.04,992.85 494.73,1281.07l366.21 22.66c223.24,465.35 -92.64,690.83 -725.8,660.26 -566.83,343.54 -1086.87,481.24 -1547.61,358.11l-202.98 209.65c-94.88,383.35 -242.16,858.18 -342.02,1304.15 -153.36,685.01 -126.52,838.74 34.8,1506.89 72.62,300.81 144.5,657.76 137.59,1091.17 -110.77,243.53 -272.44,481.59 -482.67,714.11 -273.96,303.02 -630.65,596.77 -1064.89,881.1 -17.31,11.32 -22.16,34.55 -10.84,51.86 11.32,17.31 34.55,22.16 51.86,10.84 439.04,-287.47 800.53,-585.42 1079.25,-893.7 213.64,-236.29 378.57,-478.63 492.46,-726.97 311.16,-359.4 635.25,-582.84 971.87,-674.83 515.19,-26.29 1378.17,59.8 1545.57,-78.86 791.46,-874.51 1839.38,-1050.91 3059.1,-759.59 912.57,-346.96 1230.38,-1089.43 1689.13,-1750.14z"/>
   <path id="contour_111" class="fil5" d="M7620.01 364.25c4007.22,0 7255.71,3248.52 7255.71,7255.75 0,4007.22 -3248.49,7255.74 -7255.71,7255.74 -4007.22,0 -7255.7,-3248.52 -7255.7,-7255.74 0,-4007.23 3248.48,-7255.75 7255.7,-7255.75zm-0.06 985.8c3462.82,0 6270.01,2807.18 6270.01,6270 0,3462.82 -2807.19,6270.01 -6270.01,6270.01 -3462.82,0 -6270,-2807.19 -6270,-6270.01 0,-3462.82 2807.18,-6270 6270,-6270z"/>
  </g>
 </g>
</svg>
