<?xml version="1.0" encoding="UTF-8"?>
<!DOCTYPE svg PUBLIC "-//W3C//DTD SVG 1.1//EN" "http://www.w3.org/Graphics/SVG/1.1/DTD/svg11.dtd">
<!-- Creator: CorelDRAW -->
<svg xmlns="http://www.w3.org/2000/svg" xml:space="preserve" width="152.4mm" height="152.4mm" version="1.1" style="shape-rendering:geometricPrecision; text-rendering:geometricPrecision; image-rendering:optimizeQuality; fill-rule:evenodd; clip-rule:evenodd"
viewBox="0 0 5114.04 5114.04"
 xmlns:xlink="http://www.w3.org/1999/xlink"
 xmlns:xodm="http://www.corel.com/coreldraw/odm/2003">
 <defs>
  <style type="text/css">
   <![CDATA[
    .fil0 {fill:none}
    .fil5 {fill:#FEFEFE}
    .fil3 {fill:#044F80}
    .fil1 {fill:#1461AB}
    .fil4 {fill:#282829;fill-opacity:0.039216}
    .fil2 {fill:url(#id0)}
   ]]>
  </style>
  <linearGradient id="id0" gradientUnits="userSpaceOnUse" x1="2549.99" y1="4568.97" x2="2604.34" y2="1942.2">
   <stop offset="0" style="stop-opacity:1; stop-color:#1562AE"/>
   <stop offset="1" style="stop-opacity:1; stop-color:#10406B"/>
  </linearGradient>
 </defs>
 <g id="Capa_x0020_1">
  <metadata id="CorelCorpID_0Corel-Layer"/>
  <g id="_2981948800064">
   <rect class="fil0" x="-0" y="-0" width="5114.04" height="5114.04"/>
   <g>
    <path class="fil1" d="M1779.5 208.07c202.11,-29.42 422.33,-46.91 646.05,-52.33l0 -0.82c43.7,-0.78 87.48,-1.11 131.24,-0.98l0.45 0c43.76,-0.13 87.54,0.19 131.24,0.98l0 0.82c223.72,5.42 443.94,22.91 646.05,52.33 392.02,57.06 682.66,152.65 1004.01,322.56 125.84,66.54 209.55,170.31 247.94,307.38 183.45,655.11 199.2,1501.91 -119.22,2246.09 -343.19,802.09 -983.72,1399.84 -1751.46,1794.5l-27.32 14.04 0 0.06 -6.39 3.22 -123.92 63.71 -1.15 0.48 -1.16 -0.48 -123.92 -63.71 -6.39 -3.22 0 -0.06 -27.32 -14.04c-767.74,-394.66 -1408.27,-992.41 -1751.46,-1794.5 -318.42,-744.19 -302.67,-1590.98 -119.22,-2246.09 38.39,-137.07 122.1,-240.85 247.93,-307.38 321.35,-169.91 611.99,-265.5 1004.01,-322.56z"/>
    <path class="fil2" d="M4671.2 2375.9c-39.54,240.07 -105.86,479 -203.93,708.2 -343.19,802.09 -983.72,1399.84 -1751.46,1794.5l-27.32 14.04 0 0.06 -6.39 3.22 -123.93 63.7 -1.15 0.48 -1.16 -0.48 -123.93 -63.7 -6.39 -3.22 0 -0.06 -27.32 -14.04c-767.74,-394.66 -1408.27,-992.41 -1751.46,-1794.5 -93.35,-218.18 -157.95,-445.19 -198.05,-673.59 621.08,-296.59 1357.94,-468.47 2148.28,-468.47 759.12,0 1468.96,158.53 2074.2,433.86z"/>
   </g>
   <path class="fil3" d="M1769.28 177.18c204.77,-29.81 427.88,-47.52 654.55,-53.02l0 -0.83c44.27,-0.79 88.63,-1.12 132.96,-0.99l0.46 0c44.34,-0.13 88.69,0.19 132.96,0.99l0 0.83c226.67,5.49 449.78,23.21 654.55,53.02 397.17,57.81 691.64,154.66 1017.21,326.81 127.49,67.41 212.31,172.55 251.2,311.42 185.87,663.73 201.82,1521.66 -120.78,2275.63 -347.7,812.64 -996.66,1418.26 -1774.5,1818.11l-27.68 14.23 0 0.06 -6.47 3.27 -125.56 64.54 -1.16 0.49 -1.17 -0.49 -125.56 -64.54 -6.47 -3.27 0 -0.06 -27.68 -14.23c-777.84,-399.85 -1426.79,-1005.47 -1774.49,-1818.11 -322.61,-753.97 -306.66,-1611.9 -120.79,-2275.63 38.89,-138.87 123.7,-244.01 251.2,-311.42 325.57,-172.15 620.04,-268.99 1017.21,-326.81zm50.78 348.89c-356.72,51.92 -679.11,152.65 -957.1,316.44 -447.65,1439.83 103.73,2935.4 1694.37,3753.08 1607.19,-811.06 2178.88,-2313.25 1731.24,-3753.08 -271.81,-160.15 -586.05,-260.01 -933.33,-312.91 -456.57,-69.55 -1077.71,-70.12 -1535.17,-3.54z"/>
   <path class="fil4" d="M2601.28 884.89c881.53,0 1596.15,509.85 1596.15,1138.78 0,600.41 -651.28,1092.25 -1477.31,1135.64 -298.03,305.85 -902.58,595.99 -1076.43,513.43l180.82 -654.09c-488.78,-194.65 -819.39,-567.24 -819.39,-994.98 0,-628.93 714.62,-1138.78 1596.15,-1138.78z"/>
   <path class="fil4" d="M2601.28 904.29c869.33,0 1574.06,502.79 1574.06,1123.01 0,592.1 -642.26,1077.14 -1456.85,1119.92 -293.91,301.61 -890.09,587.74 -1061.53,506.32 59.44,-215.01 118.88,-430.02 178.32,-645.03 -482.02,-191.96 -808.04,-559.38 -808.04,-981.2 0,-620.22 704.73,-1123.01 1574.05,-1123.01z"/>
   <path class="fil4" d="M2601.28 923.68c857.12,0 1551.96,495.73 1551.96,1107.24 0,583.78 -633.25,1062.01 -1436.4,1104.19 -289.78,297.38 -877.59,579.49 -1046.63,499.22 58.61,-211.99 117.21,-423.99 175.82,-635.98 -475.25,-189.26 -796.7,-551.53 -796.7,-967.42 0,-611.51 694.83,-1107.24 1551.96,-1107.24z"/>
   <path class="fil4" d="M2601.28 943.08c844.92,0 1529.86,488.67 1529.86,1091.48 0,575.47 -624.22,1046.89 -1415.94,1088.47 -285.65,293.15 -865.09,571.23 -1031.73,492.11 57.77,-208.97 115.54,-417.95 173.31,-626.92 -468.48,-186.57 -785.35,-543.68 -785.35,-953.65 0,-602.81 684.94,-1091.48 1529.86,-1091.48z"/>
   <path class="fil4" d="M2601.28 962.48c832.72,0 1507.76,481.61 1507.76,1075.71 0,567.15 -615.21,1031.77 -1395.49,1072.75 -281.53,288.91 -852.6,562.98 -1016.82,485 56.93,-205.96 113.87,-411.91 170.81,-617.87 -461.71,-183.87 -774.01,-535.83 -774.01,-939.88 0,-594.1 675.04,-1075.71 1507.76,-1075.71z"/>
   <path class="fil4" d="M2601.28 981.88c820.51,0 1485.66,474.56 1485.66,1059.94 0,558.84 -606.19,1016.65 -1375.04,1057.02 -277.4,284.68 -840.1,554.73 -1001.92,477.89 56.1,-202.94 112.2,-405.87 168.31,-608.82 -454.95,-181.18 -762.67,-527.97 -762.67,-926.1 0,-585.39 665.15,-1059.94 1485.66,-1059.94z"/>
   <path class="fil4" d="M2601.28 1001.27c808.31,0 1463.56,467.5 1463.56,1044.18 0,550.53 -597.18,1001.52 -1354.59,1041.3 -273.28,280.44 -827.61,546.48 -987.02,470.78 55.26,-199.92 110.54,-399.84 165.8,-599.76 -448.18,-178.48 -751.32,-520.12 -751.32,-912.32 0,-576.68 655.26,-1044.18 1463.56,-1044.18z"/>
   <path class="fil4" d="M2601.28 1020.67c796.1,0 1441.47,460.43 1441.47,1028.41 0,542.22 -588.16,986.4 -1334.14,1025.58 -269.14,276.21 -815.11,538.23 -972.11,463.67 54.43,-196.9 108.86,-393.8 163.3,-590.7 -441.41,-175.79 -739.98,-512.27 -739.98,-898.55 0,-567.98 645.37,-1028.41 1441.46,-1028.41z"/>
   <path class="fil4" d="M2601.28 1040.07c783.89,0 1419.36,453.38 1419.36,1012.65 0,533.91 -579.14,971.28 -1313.68,1009.85 -265.02,271.98 -802.62,529.98 -957.21,456.57 53.6,-193.88 107.2,-387.76 160.8,-581.64 -434.65,-173.1 -728.63,-504.41 -728.63,-884.78 0,-559.27 635.47,-1012.65 1419.36,-1012.65z"/>
   <path class="fil4" d="M2601.28 1059.46c771.69,0 1397.27,446.32 1397.27,996.88 0,525.59 -570.12,956.16 -1293.23,994.13 -260.89,267.74 -790.12,521.73 -942.31,449.45 52.76,-190.86 105.53,-381.73 158.29,-572.59 -427.88,-170.4 -717.29,-496.56 -717.29,-871 0,-550.56 625.58,-996.88 1397.27,-996.88z"/>
   <path class="fil4" d="M2601.28 1078.86c759.49,0 1375.17,439.26 1375.17,981.12 0,517.28 -561.11,941.03 -1272.77,978.41 -256.77,263.51 -777.63,513.48 -927.41,442.35 51.93,-187.85 103.86,-375.69 155.79,-563.53 -421.11,-167.7 -705.95,-488.71 -705.95,-857.22 0,-541.85 615.68,-981.12 1375.17,-981.12z"/>
   <path class="fil4" d="M2601.28 1098.26c747.28,0 1353.07,432.2 1353.07,965.35 0,508.97 -552.09,925.92 -1252.33,962.69 -252.64,259.27 -765.13,505.23 -912.5,435.24 51.1,-184.82 102.19,-369.65 153.29,-554.48 -414.35,-165.01 -694.6,-480.85 -694.6,-843.45 0,-533.15 605.79,-965.35 1353.07,-965.35z"/>
   <path class="fil4" d="M2601.28 1117.66c735.08,0 1330.98,425.14 1330.98,949.58 0,500.66 -543.08,910.79 -1231.87,946.97 -248.52,255.04 -752.63,496.97 -897.6,428.13 50.26,-181.81 100.52,-363.62 150.78,-545.42 -407.58,-162.31 -683.26,-473 -683.26,-829.68 0,-524.44 595.9,-949.58 1330.97,-949.58z"/>
   <path class="fil4" d="M2601.28 1137.05c722.87,0 1308.88,418.09 1308.88,933.82 0,492.34 -534.06,895.67 -1211.42,931.24 -244.39,250.81 -740.14,488.73 -882.69,421.03 49.42,-178.79 98.85,-357.58 148.28,-536.37 -400.81,-159.62 -671.92,-465.14 -671.92,-815.9 0,-515.73 586,-933.82 1308.87,-933.82z"/>
   <path class="fil4" d="M2601.28 1156.45c710.67,0 1286.77,411.03 1286.77,918.05 0,484.03 -525.04,880.55 -1190.96,915.52 -240.27,246.57 -727.64,480.47 -867.8,413.91 48.59,-175.77 97.18,-351.54 145.77,-527.31 -394.04,-156.92 -660.57,-457.29 -660.57,-802.12 0,-507.02 576.11,-918.05 1286.77,-918.05z"/>
   <path class="fil4" d="M2601.28 1175.85c698.47,0 1264.68,403.97 1264.68,902.29 0,475.72 -516.02,865.42 -1170.51,899.8 -236.14,242.33 -715.14,472.22 -852.89,406.81 47.75,-172.75 95.51,-345.5 143.27,-518.26 -387.27,-154.23 -649.22,-449.44 -649.22,-788.35 0,-498.32 566.22,-902.29 1264.68,-902.29z"/>
   <path class="fil4" d="M2601.28 1195.24c686.26,0 1242.58,396.91 1242.58,886.52 0,467.41 -507.01,850.31 -1150.06,884.07 -232.01,238.1 -702.65,463.97 -837.99,399.7 46.92,-169.73 93.84,-339.46 140.77,-509.2 -380.51,-151.54 -637.88,-441.58 -637.88,-774.58 0,-489.61 556.32,-886.52 1242.58,-886.52z"/>
   <path class="fil4" d="M2601.28 1214.64c674.06,0 1220.48,389.85 1220.48,870.76 0,459.1 -497.99,835.18 -1129.61,868.35 -227.89,233.87 -690.15,455.72 -823.09,392.59 46.09,-166.72 92.18,-333.43 138.27,-500.15 -373.74,-148.84 -626.54,-433.73 -626.54,-760.8 0,-480.9 546.43,-870.76 1220.48,-870.76z"/>
   <path class="fil4" d="M2601.28 1234.04c661.85,0 1198.39,382.79 1198.39,854.99 0,450.78 -488.98,820.06 -1109.15,852.63 -223.77,229.63 -677.66,447.46 -808.19,385.48 45.25,-163.7 90.51,-327.39 135.76,-491.09 -366.98,-146.14 -615.19,-425.88 -615.19,-747.02 0,-472.2 536.53,-854.99 1198.38,-854.99z"/>
   <path class="fil4" d="M2601.28 1253.43c649.64,0 1176.28,375.73 1176.28,839.22 0,442.47 -479.96,804.94 -1088.7,836.91 -219.63,225.4 -665.16,439.21 -793.27,378.37 44.42,-160.68 88.83,-321.36 133.25,-482.03 -360.21,-143.45 -603.85,-418.03 -603.85,-733.25 0,-463.49 526.64,-839.22 1176.28,-839.22z"/>
   <path class="fil4" d="M2601.28 1272.83c637.44,0 1154.19,368.67 1154.19,823.45 0,434.15 -470.94,789.82 -1068.25,821.19 -215.51,221.16 -652.66,430.96 -778.37,371.26 43.59,-157.66 87.17,-315.32 130.75,-472.97 -353.44,-140.76 -592.5,-410.17 -592.5,-719.48 0,-454.78 516.75,-823.45 1154.19,-823.45z"/>
   <path class="fil4" d="M2601.28 1292.23c625.24,0 1132.09,361.61 1132.09,807.69 0,425.84 -461.92,774.69 -1047.79,805.46 -211.38,216.93 -640.17,422.71 -763.47,364.15 42.75,-154.64 85.5,-309.28 128.25,-463.92 -346.67,-138.06 -581.16,-402.32 -581.16,-705.7 0,-446.08 506.85,-807.69 1132.09,-807.69z"/>
   <path class="fil4" d="M2601.28 1311.62c613.03,0 1109.99,354.56 1109.99,791.92 0,417.53 -452.91,759.57 -1027.34,789.74 -207.25,212.7 -627.67,414.46 -748.57,357.05 41.92,-151.62 83.83,-303.24 125.75,-454.86 -339.91,-135.36 -569.82,-394.47 -569.82,-691.92 0,-437.36 496.96,-791.92 1109.99,-791.92z"/>
   <path class="fil4" d="M2601.28 1331.02c600.83,0 1087.89,347.5 1087.89,776.16 0,409.22 -443.89,744.45 -1006.89,774.02 -203.13,208.46 -615.17,406.21 -733.67,349.94 41.08,-148.61 82.16,-297.2 123.25,-445.81 -333.14,-132.67 -558.47,-386.61 -558.47,-678.15 0,-428.66 487.06,-776.16 1087.89,-776.16z"/>
   <path class="fil4" d="M2601.28 1350.42c588.62,0 1065.79,340.44 1065.79,760.39 0,400.9 -434.87,729.33 -986.43,758.3 -199,204.22 -602.68,397.95 -718.76,342.83 40.25,-145.59 80.49,-291.17 120.74,-436.75 -326.37,-129.98 -547.12,-378.76 -547.12,-664.37 0,-419.95 477.17,-760.39 1065.79,-760.39z"/>
   <path class="fil4" d="M2601.28 1369.81c576.42,0 1043.69,333.39 1043.69,744.63 0,392.59 -425.86,714.2 -965.98,742.57 -194.88,199.99 -590.18,389.71 -703.86,335.72 39.41,-142.57 78.82,-285.13 118.24,-427.69 -319.61,-127.28 -535.78,-370.91 -535.78,-650.6 0,-411.24 467.28,-744.63 1043.69,-744.63z"/>
   <path class="fil4" d="M2601.28 1389.21c564.22,0 1021.6,326.32 1021.6,728.86 0,384.28 -416.84,699.09 -945.53,726.85 -190.75,195.76 -577.68,381.45 -688.96,328.61 38.58,-139.55 77.15,-279.1 115.73,-418.64 -312.84,-124.59 -524.44,-363.06 -524.44,-636.83 0,-402.54 457.38,-728.86 1021.6,-728.86z"/>
   <path class="fil4" d="M2601.28 1408.61c552.01,0 999.5,319.26 999.5,713.09 0,375.97 -407.82,683.96 -925.08,711.13 -186.63,191.52 -565.19,373.2 -674.05,321.5 37.74,-136.53 75.48,-273.06 113.23,-409.59 -306.07,-121.89 -513.1,-355.2 -513.1,-623.05 0,-393.83 447.49,-713.09 999.5,-713.09z"/>
   <path class="fil4" d="M2601.28 1428.01c539.81,0 977.4,312.2 977.4,697.32 0,367.65 -398.81,668.84 -904.62,695.4 -182.5,187.29 -552.7,364.95 -659.15,314.4 36.91,-133.52 73.81,-267.02 110.73,-400.53 -299.31,-119.2 -501.75,-347.35 -501.75,-609.27 0,-385.12 437.6,-697.32 977.4,-697.32z"/>
   <path class="fil4" d="M2601.28 1447.41c527.6,0 955.3,305.14 955.3,681.56 0,359.34 -389.79,653.72 -884.17,679.68 -178.37,183.05 -540.2,356.7 -644.25,307.29 36.07,-130.49 72.15,-260.98 108.23,-391.47 -292.54,-116.5 -490.41,-339.5 -490.41,-595.5 0,-376.42 427.7,-681.56 955.3,-681.56z"/>
   <path class="fil4" d="M2601.28 1466.8c515.39,0 933.2,298.09 933.2,665.79 0,351.03 -380.77,638.6 -863.72,663.96 -174.25,178.82 -527.7,348.45 -629.35,300.18 35.24,-127.48 70.48,-254.95 105.72,-382.42 -285.77,-113.8 -479.06,-331.64 -479.06,-581.72 0,-367.7 417.81,-665.79 933.2,-665.79z"/>
   <path class="fil4" d="M2601.28 1486.2c503.19,0 911.1,291.03 911.1,650.02 0,342.72 -371.76,623.48 -843.27,648.24 -170.12,174.59 -515.21,340.2 -614.44,293.07 34.41,-124.46 68.8,-248.91 103.21,-373.36 -279,-111.11 -467.72,-323.79 -467.72,-567.95 0,-359 407.91,-650.02 911.1,-650.02z"/>
   <path class="fil4" d="M2601.28 1505.6c490.99,0 889.01,283.97 889.01,634.26 0,334.41 -362.74,608.35 -822.81,632.51 -165.99,170.35 -502.71,331.95 -599.54,285.96 33.57,-121.44 67.14,-242.87 100.71,-364.3 -272.24,-108.42 -456.37,-315.94 -456.37,-554.17 0,-350.29 398.02,-634.26 889.01,-634.26z"/>
   <path class="fil4" d="M2601.28 1524.99c478.78,0 866.91,276.91 866.91,618.5 0,326.09 -353.73,593.23 -802.36,616.79 -161.87,166.11 -490.21,323.69 -584.63,278.85 32.74,-118.42 65.47,-236.83 98.21,-355.25 -265.47,-105.72 -445.03,-308.08 -445.03,-540.39 0,-341.58 388.13,-618.5 866.91,-618.5z"/>
   <path class="fil4" d="M2601.28 1544.39c466.58,0 844.81,269.85 844.81,602.73 0,317.78 -344.71,578.11 -781.91,601.07 -157.74,161.88 -477.72,315.45 -569.73,271.75 31.9,-115.4 63.8,-230.8 95.7,-346.19 -258.7,-103.03 -433.68,-300.23 -433.68,-526.62 0,-332.88 378.23,-602.73 844.81,-602.73z"/>
   <path class="fil4" d="M2601.28 1563.79c454.37,0 822.71,262.79 822.71,586.96 0,309.47 -335.69,562.99 -761.45,585.35 -153.62,157.65 -465.22,307.19 -554.83,264.64 31.07,-112.38 62.13,-224.76 93.2,-337.14 -251.93,-100.33 -422.34,-292.38 -422.34,-512.85 0,-324.17 368.34,-586.96 822.71,-586.96z"/>
   <path class="fil4" d="M2601.28 1583.19c442.17,0 800.61,255.73 800.61,571.2 0,301.16 -326.67,547.86 -741,569.62 -149.49,153.41 -452.73,298.94 -539.93,257.53 30.23,-109.37 60.46,-218.73 90.7,-328.09 -245.17,-97.63 -411,-284.52 -411,-499.07 0,-315.46 358.45,-571.2 800.61,-571.2z"/>
   <path class="fil4" d="M2601.28 1602.58c429.97,0 778.51,248.68 778.51,555.43 0,292.85 -317.66,532.74 -720.55,553.9 -145.36,149.18 -440.23,290.69 -525.03,250.42l88.2 -319.03c-238.4,-94.94 -399.65,-276.66 -399.65,-485.29 0,-306.76 348.55,-555.43 778.51,-555.43z"/>
   <path class="fil5" d="M2558.12 884.89c790.49,0 1431.3,479.75 1431.3,1071.54 0,564.96 -584.02,1027.77 -1324.73,1068.59 -267.25,287.79 -809.36,560.8 -965.26,483.12l162.15 -615.48c-438.3,-183.16 -734.76,-533.75 -734.76,-936.23 0,-591.8 640.82,-1071.54 1431.3,-1071.54z"/>
  </g>
 </g>
</svg>
