<?xml version="1.0" encoding="UTF-8"?>
<!DOCTYPE svg PUBLIC "-//W3C//DTD SVG 1.1//EN" "http://www.w3.org/Graphics/SVG/1.1/DTD/svg11.dtd">
<!-- Creator: CorelDRAW -->
<svg xmlns="http://www.w3.org/2000/svg" xml:space="preserve" width="152.4mm" height="152.4mm" version="1.1" style="shape-rendering:geometricPrecision; text-rendering:geometricPrecision; image-rendering:optimizeQuality; fill-rule:evenodd; clip-rule:evenodd"
viewBox="0 0 15240 15240"
 xmlns:xlink="http://www.w3.org/1999/xlink"
 xmlns:xodm="http://www.corel.com/coreldraw/odm/2003">
 <defs>
  <style type="text/css">
   <![CDATA[
    .fil0 {fill:none}
    .fil3 {fill:#044F80}
    .fil1 {fill:#1461AB}
    .fil4 {fill:white;fill-rule:nonzero}
    .fil2 {fill:url(#id0)}
   ]]>
  </style>
  <linearGradient id="id0" gradientUnits="userSpaceOnUse" x1="7599.05" y1="13615.67" x2="7761.02" y2="5787.81">
   <stop offset="0" style="stop-opacity:1; stop-color:#1562AE"/>
   <stop offset="1" style="stop-opacity:1; stop-color:#10406B"/>
  </linearGradient>
 </defs>
 <g id="Capa_x0020_1">
  <metadata id="CorelCorpID_0Corel-Layer"/>
  <g id="_2981990340512">
   <rect class="fil0" x="-0" y="-0" width="15240" height="15240"/>
   <g>
    <path class="fil1" d="M5302.97 620.06c602.29,-87.67 1258.56,-139.78 1925.26,-155.94l0 -2.44c130.23,-2.33 260.7,-3.31 391.1,-2.91l1.35 0c130.4,-0.4 260.88,0.57 391.1,2.91l0 2.44c666.7,16.16 1322.97,68.27 1925.26,155.94 1168.23,170.04 2034.35,454.91 2991.98,961.24 375,198.28 624.47,507.53 738.86,916.01 546.7,1952.26 593.62,4475.73 -355.27,6693.43 -1022.72,2390.25 -2931.53,4171.57 -5219.41,5347.67l-81.42 41.85 0 0.18 -19.03 9.6 -369.3 189.85 -3.43 1.43 -3.46 -1.43 -369.29 -189.85 -19.04 -9.6 0 -0.18 -81.42 -41.85c-2287.88,-1176.1 -4196.69,-2957.42 -5219.4,-5347.67 -948.9,-2217.7 -901.98,-4741.17 -355.27,-6693.43 114.39,-408.48 363.85,-717.73 738.85,-916.01 957.63,-506.33 1823.76,-791.2 2991.98,-961.24z"/>
    <path class="fil2" d="M13920.33 7080.26c-117.82,715.41 -315.48,1427.44 -607.72,2110.47 -1022.72,2390.26 -2931.53,4171.58 -5219.41,5347.68l-81.42 41.85 0 0.18 -19.03 9.61 -369.31 189.84 -3.42 1.43 -3.45 -1.43 -369.31 -189.84 -19.03 -9.61 0 -0.18 -81.42 -41.85c-2287.88,-1176.1 -4196.69,-2957.42 -5219.4,-5347.68 -278.2,-650.19 -470.7,-1326.67 -590.2,-2007.33 1850.83,-883.84 4046.71,-1396.05 6401.94,-1396.05 2262.21,0 4377.54,472.41 6181.18,1292.91z"/>
   </g>
   <path class="fil3" d="M5272.5 527.99c610.21,-88.82 1275.11,-141.62 1950.58,-157.99l0 -2.47c131.94,-2.36 264.13,-3.35 396.24,-2.95l1.37 0c132.12,-0.4 264.31,0.58 396.24,2.95l0 2.47c675.47,16.37 1340.37,69.17 1950.59,157.99 1183.59,172.28 2061.1,460.89 3031.33,973.89 379.93,200.88 632.68,514.2 748.57,928.05 553.9,1977.94 601.43,4534.6 -359.94,6781.46 -1036.17,2421.7 -2970.08,4226.45 -5288.06,5418.02l-82.49 42.4 0 0.18 -19.28 9.73 -374.16 192.34 -3.47 1.45 -3.5 -1.45 -374.16 -192.34 -19.28 -9.73 0 -0.18 -82.49 -42.4c-2317.98,-1191.57 -4251.89,-2996.32 -5288.05,-5418.02 -961.38,-2246.86 -913.85,-4803.52 -359.95,-6781.46 115.9,-413.85 368.64,-727.17 748.58,-928.05 970.22,-513 1847.74,-801.61 3031.33,-973.89zm151.33 1039.69c-1063.03,154.73 -2023.76,454.89 -2852.19,943.01 -1334,4290.73 309.12,8747.6 5049.28,11184.3 4789.49,-2416.98 6493.14,-6893.57 5159.14,-11184.3 -810,-477.25 -1746.44,-774.83 -2781.36,-932.47 -1360.59,-207.25 -3211.6,-208.97 -4574.87,-10.54z"/>
   <g>
    <path id="path4423" class="fil4" d="M5861.34 5950.33l0 1496.8 -476.46 0.01 0 -1881.4 983.68 0.98c417.81,0 560.13,294.63 560.13,562.26l0 1318.17 -475.62 -0.01 0 -1315.71c0,-112.1 -58.02,-181.08 -198,-181.08l-393.73 0 0 -0.02zm3239.95 -22.47c-162.86,0 -288.9,83.72 -341.55,197.38 -31.2,68.24 -41.92,120.53 -45.59,204.08l733.04 0.01c-9.4,-204.08 -101.96,-401.46 -345.9,-401.46l0 -0.01zm-387.14 725.75c0,243.71 151.5,423.08 422,423.08 210.46,0 315.05,-58.32 436.74,-179.37l294.28 280.99c-188.43,186.02 -386.16,298.98 -734.52,298.98 -456.12,0 -892.62,-248.7 -892.62,-973.52 0,-619.32 381.11,-969.92 881.89,-969.92 507.61,0 800.87,410.46 800.87,948.12l0 171.64 -1208.64 0 0 0zm-876.33 791.18c-388.16,0 -552.85,-270.21 -552.85,-537.08l0 -1854.57 475.72 0 0 512.6 358.64 -0.01 0 384.6 -358.64 0 0 927.54c0,109.3 51.61,169.97 165.1,169.97l193.54 0.01 0 396.94 -281.51 0 0 0zm-2876.9 -2139.05l-479.73 0 0 -455.72 479.73 0 0 455.72zm1.22 2161.17c-359.26,-34.52 -481.47,-252.43 -481.47,-503.88l0.52 -1397.3 480.95 0 0 1901.18zm5717.83 -40.19c-358.52,-34.57 -480.14,-252.14 -480.14,-503.26l0 -2138.3 480.14 0 0 2641.56zm1678.52 -2332.53c-435.12,-2121.44 -4553.18,-2255.74 -7207.52,-639.85l0 178.39c2651.64,-1362.72 6412.34,-1354.7 6754.96,599.25 114.64,646.09 -249.44,1319.71 -899.67,1706.91l0 506.57c782.63,-286.32 1585.28,-1214.78 1352.23,-2351.28l0 0.01zm-4824.99 3711.72c-1831.92,169.33 -3740.9,-96.57 -4008.02,-1528.06 -130.74,-705.68 190.73,-1453.73 617.2,-1918.39l0 -248.47c-767.72,673.22 -1184.38,1525.52 -944.51,2532.6 306.15,1291.39 1944.54,2023.21 4445.26,1780.19 989.41,-96.56 2284.41,-414.71 3184.71,-908.84l0 -702c-816.93,486.44 -2168.76,888.72 -3294.64,992.97z"/>
   </g>
   <g>
    <path id="path4425" class="fil4" d="M11234.99 4927.15c0,-23.28 -13.59,-30.68 -44.67,-30.68l-29.99 0.01 0 65.89c4.36,0 26.14,0.8 29.99,0.8 31.08,0 44.67,-10.38 44.67,-32.18l0 -3.84zm46.79 163.37l-35.55 0c-3.21,0 -6.02,-2.01 -7.4,-4.7l-48.51 -82.23c-0.86,-1.66 -5.05,-3.67 -6.71,-3.67l-21.8 0 0 81.54c0,4.36 -2.99,9.06 -8.71,9.06l-32.17 0c-4,0 -8.02,-4.7 -8.02,-9.06l0 -206.27c0,-11.93 4.64,-16.92 14.74,-18.47 11.35,-1.49 42.2,-2.53 58.84,-2.53 59.06,0 94.78,17.44 94.78,72.95l0 3.84c0,34.35 -17.09,52.47 -43.58,61.36l50.3 85.04c0.31,1.71 1.49,4.08 1.49,6.08 0,3.32 -2.01,7.05 -7.69,7.05l-0.01 0.01zm-84.41 -273.52c-87.51,0 -158.27,72.25 -158.27,159.24 0,87.11 70.76,158.21 158.27,158.21 87.05,0 158.51,-71.11 158.51,-158.21 0,-86.99 -71.46,-159.24 -158.51,-159.24l0 0zm0 350.25c-106.32,0 -191.13,-85.78 -191.13,-191.01 0,-105.05 84.81,-191.07 191.13,-191.07 105.17,0 191.59,86.02 191.59,191.07 0,105.23 -86.42,191.01 -191.59,191.01z"/>
   </g>
  </g>
 </g>
</svg>
