<?xml version="1.0" encoding="UTF-8"?>
<!DOCTYPE svg PUBLIC "-//W3C//DTD SVG 1.1//EN" "http://www.w3.org/Graphics/SVG/1.1/DTD/svg11.dtd">
<!-- Creator: CorelDRAW -->
<svg xmlns="http://www.w3.org/2000/svg" xml:space="preserve" width="152.4mm" height="152.4mm" version="1.1" style="shape-rendering:geometricPrecision; text-rendering:geometricPrecision; image-rendering:optimizeQuality; fill-rule:evenodd; clip-rule:evenodd"
viewBox="0 0 3137.15 3137.15"
 xmlns:xlink="http://www.w3.org/1999/xlink"
 xmlns:xodm="http://www.corel.com/coreldraw/odm/2003">
 <defs>
  <style type="text/css">
   <![CDATA[
    .fil0 {fill:none}
    .fil6 {fill:#FEFEFE}
    .fil3 {fill:#044F80}
    .fil1 {fill:#1461AB}
    .fil5 {fill:#282829;fill-opacity:0.039216}
    .fil2 {fill:url(#id0)}
    .fil4 {fill:url(#id1)}
   ]]>
  </style>
  <linearGradient id="id0" gradientUnits="userSpaceOnUse" x1="1568.23" y1="1438.65" x2="1568.57" y2="2849.48">
   <stop offset="0" style="stop-opacity:1; stop-color:#113F6B"/>
   <stop offset="1" style="stop-opacity:1; stop-color:#1461AB"/>
  </linearGradient>
  <linearGradient id="id1" gradientUnits="userSpaceOnUse" x1="1583.91" y1="1436.58" x2="1568.59" y2="3062.17">
   <stop offset="0" style="stop-opacity:1; stop-color:#0B3A5D"/>
   <stop offset="1" style="stop-opacity:1; stop-color:#044F80"/>
  </linearGradient>
 </defs>
 <g id="Capa_x0020_1">
  <metadata id="CorelCorpID_0Corel-Layer"/>
  <g id="_2981988999008">
   <rect class="fil0" x="-0" y="-0" width="3137.15" height="3137.15"/>
   <g>
    <ellipse id="contour" class="fil1" cx="1568.58" cy="1568.58" rx="1482.26" ry="1482.27"/>
    <path id="contour_102" class="fil2" d="M3040.28 1745.64c-87.53,735.14 -712.99,1305.2 -1471.7,1305.2 -758.23,0 -1383.39,-569.34 -1471.53,-1303.81 418.8,-206.07 926.15,-326.81 1473.02,-326.81 545.64,0 1051.95,120.19 1470.21,325.42z"/>
   </g>
   <path id="contour_103" class="fil3" d="M1568.58 74.98c824.89,0 1493.59,668.71 1493.59,1493.6 0,824.89 -668.7,1493.59 -1493.59,1493.59 -824.89,0 -1493.59,-668.71 -1493.59,-1493.59 0,-824.89 668.7,-1493.6 1493.59,-1493.6zm-0.01 202.93c712.82,0 1290.68,577.86 1290.68,1290.68 0,712.82 -577.86,1290.68 -1290.68,1290.68 -712.82,0 -1290.68,-577.86 -1290.68,-1290.68 0,-712.82 577.86,-1290.68 1290.68,-1290.68z"/>
   <path id="contour_104" class="fil4" d="M3050.85 1752.56c-90.68,738.07 -719.68,1309.61 -1482.27,1309.61 -762.22,0 -1390.99,-570.99 -1482.14,-1308.55 21.68,-10.51 195.01,-89.38 195.01,-89.38 48.95,668.15 606.48,1195.03 1287.12,1195.03 681.15,0 1238.99,-527.68 1287.22,-1196.53 0.07,-0.97 194.92,87.81 195.06,89.82z"/>
   <path class="fil5" d="M1596.45 779.75c526.48,0 953.27,304.5 953.27,680.11 0,358.58 -388.96,652.32 -882.29,678.23 -177.99,182.66 -539.05,355.94 -642.88,306.63l107.99 -390.64c-291.92,-116.25 -489.36,-338.77 -489.36,-594.23 0,-375.61 426.79,-680.11 953.27,-680.11z"/>
   <path class="fil5" d="M1596.45 791.33c519.19,0 940.07,300.28 940.07,670.69 0,353.62 -383.58,643.29 -870.07,668.84 -175.53,180.13 -531.58,351.01 -633.98,302.39 35.5,-128.41 71,-256.82 106.5,-385.23 -287.88,-114.64 -482.59,-334.08 -482.59,-586 0,-370.41 420.88,-670.69 940.07,-670.69z"/>
   <path class="fil5" d="M1596.45 802.92c511.9,0 926.87,296.06 926.87,661.27 0,348.65 -378.19,634.26 -857.86,659.45 -173.06,177.6 -524.12,346.09 -625.08,298.14 35,-126.61 70,-253.22 105,-379.83 -283.83,-113.03 -475.81,-329.39 -475.81,-577.77 0,-365.21 414.97,-661.27 926.87,-661.27z"/>
   <path class="fil5" d="M1596.45 814.51c504.61,0 913.67,291.85 913.67,651.86 0,343.69 -372.81,625.23 -845.64,650.06 -170.6,175.08 -516.66,341.16 -616.18,293.9 34.5,-124.8 69.01,-249.61 103.51,-374.42 -279.79,-111.42 -469.04,-324.7 -469.04,-569.55 0,-360.01 409.07,-651.86 913.68,-651.86z"/>
   <path class="fil5" d="M1596.45 826.09c497.32,0 900.47,287.63 900.47,642.44 0,338.72 -367.42,616.2 -833.43,640.67 -168.14,172.55 -509.2,336.23 -607.28,289.66 34,-123 68.01,-246.01 102.01,-369.01 -275.75,-109.81 -462.26,-320.01 -462.26,-561.32 0,-354.81 403.16,-642.44 900.47,-642.44z"/>
   <path class="fil5" d="M1596.45 837.67c490.03,0 887.28,283.42 887.28,633.03 0,333.76 -362.04,607.17 -821.21,631.28 -165.67,170.02 -501.73,331.3 -598.38,285.41 33.5,-121.2 67.01,-242.4 100.52,-363.6 -271.71,-108.21 -455.49,-315.32 -455.49,-553.09 0,-349.61 397.25,-633.03 887.28,-633.03z"/>
   <path class="fil5" d="M1596.45 849.26c482.74,0 874.08,279.2 874.08,623.61 0,328.79 -356.65,598.14 -809,621.89 -163.21,167.49 -494.27,326.38 -589.47,281.16 33.01,-119.4 66.01,-238.79 99.02,-358.19 -267.67,-106.6 -448.71,-310.63 -448.71,-544.86 0,-344.41 391.34,-623.61 874.08,-623.61z"/>
   <path class="fil5" d="M1596.45 860.84c475.45,0 860.88,274.98 860.88,614.19 0,323.83 -351.27,589.11 -796.78,612.5 -160.74,164.96 -486.81,321.45 -580.57,276.92 32.51,-117.59 65.02,-235.19 97.53,-352.78 -263.63,-104.99 -441.94,-305.94 -441.94,-536.64 0,-339.21 385.43,-614.19 860.88,-614.19z"/>
   <path class="fil5" d="M1596.45 872.43c468.16,0 847.68,270.77 847.68,604.78 0,318.87 -345.88,580.08 -784.57,603.11 -158.28,162.43 -479.34,316.52 -571.67,272.67 32.01,-115.79 64.02,-231.58 96.03,-347.38 -259.58,-103.37 -435.16,-301.25 -435.16,-528.41 0,-334.01 379.52,-604.78 847.69,-604.78z"/>
   <path class="fil5" d="M1596.45 884.01c460.88,0 834.49,266.56 834.49,595.37 0,313.9 -340.5,571.04 -772.35,593.72 -155.81,159.9 -471.88,311.59 -562.77,268.43 31.51,-113.99 63.02,-227.98 94.54,-341.96 -255.54,-101.77 -428.39,-296.56 -428.39,-520.19 0,-328.81 373.61,-595.37 834.49,-595.37z"/>
   <path class="fil5" d="M1596.45 895.6c453.59,0 821.29,262.34 821.29,585.95 0,308.93 -335.11,562.01 -760.14,584.33 -153.35,157.37 -464.42,306.66 -553.87,264.18 31.01,-112.19 62.03,-224.37 93.04,-336.56 -251.5,-100.16 -421.61,-291.87 -421.61,-511.96 0,-323.61 367.7,-585.95 821.29,-585.95z"/>
   <path class="fil5" d="M1596.45 907.18c446.3,0 808.09,258.12 808.09,576.53 0,303.97 -329.73,552.98 -747.92,574.94 -150.89,154.84 -456.95,301.73 -544.97,259.94 30.52,-110.38 61.03,-220.77 91.55,-331.15 -247.46,-98.55 -414.84,-287.18 -414.84,-503.73 0,-318.41 361.79,-576.53 808.09,-576.53z"/>
   <path class="fil5" d="M1596.45 918.77c439.01,0 794.89,253.91 794.89,567.11 0,299.01 -324.34,543.95 -735.71,565.55 -148.42,152.32 -449.49,296.81 -536.07,255.69 30.01,-108.58 60.03,-217.16 90.05,-325.74 -243.42,-96.94 -408.06,-282.49 -408.06,-495.5 0,-313.21 355.88,-567.11 794.89,-567.11z"/>
   <path class="fil5" d="M1596.45 930.35c431.72,0 781.7,249.69 781.7,557.7 0,294.04 -318.96,534.92 -723.49,556.16 -145.96,149.79 -442.03,291.88 -527.17,251.45 29.52,-106.78 59.04,-213.55 88.56,-320.33 -239.38,-95.33 -401.29,-277.8 -401.29,-487.28 0,-308.01 349.98,-557.7 781.7,-557.7z"/>
   <path class="fil5" d="M1596.45 941.93c424.43,0 768.5,245.48 768.5,548.29 0,289.08 -313.57,525.89 -711.28,546.77 -143.49,147.26 -434.57,286.95 -518.27,247.2 29.02,-104.98 58.04,-209.95 87.06,-314.92 -235.34,-93.72 -394.51,-273.11 -394.51,-479.05 0,-302.81 344.07,-548.29 768.5,-548.29z"/>
   <path class="fil5" d="M1596.45 953.52c417.14,0 755.3,241.26 755.3,538.87 0,284.11 -308.19,516.85 -699.06,537.38 -141.03,144.73 -427.1,282.02 -509.37,242.96 28.52,-103.17 57.04,-206.34 85.57,-309.52 -231.29,-92.11 -387.74,-268.42 -387.74,-470.82 0,-297.61 338.16,-538.87 755.3,-538.87z"/>
   <path class="fil5" d="M1596.45 965.1c409.85,0 742.1,237.05 742.1,529.45 0,279.15 -302.8,507.83 -686.85,527.99 -138.57,142.2 -419.64,277.09 -500.47,238.71 28.02,-101.37 56.05,-202.74 84.07,-304.11 -227.25,-90.5 -380.96,-263.72 -380.96,-462.6 0,-292.41 332.25,-529.45 742.1,-529.45z"/>
   <path class="fil5" d="M1596.45 976.69c402.56,0 728.9,232.83 728.9,520.04 0,274.18 -297.42,498.79 -674.63,518.6 -136.1,139.67 -412.18,272.17 -491.57,234.47 27.52,-99.57 55.05,-199.14 82.58,-298.7 -223.21,-88.89 -374.18,-259.04 -374.18,-454.37 0,-287.21 326.34,-520.04 728.9,-520.04z"/>
   <path class="fil5" d="M1596.45 988.27c395.28,0 715.71,228.61 715.71,510.62 0,269.22 -292.03,489.76 -662.42,509.21 -133.64,137.14 -404.71,267.24 -482.67,230.22 27.03,-97.76 54.05,-195.53 81.08,-293.29 -219.17,-87.28 -367.41,-254.35 -367.41,-446.14 0,-282.01 320.43,-510.62 715.71,-510.62z"/>
   <path class="fil5" d="M1596.45 999.86c387.99,0 702.51,224.4 702.51,501.21 0,264.25 -286.65,480.73 -650.2,499.82 -131.17,134.61 -397.25,262.31 -473.77,225.97 26.53,-95.96 53.05,-191.92 79.58,-287.88 -215.13,-85.67 -360.63,-249.66 -360.63,-437.92 0,-276.81 314.52,-501.21 702.51,-501.21z"/>
   <path class="fil5" d="M1596.45 1011.44c380.7,0 689.31,220.18 689.31,491.79 0,259.29 -281.26,471.7 -637.99,490.44 -128.71,132.08 -389.79,257.38 -464.87,221.73 26.03,-94.16 52.06,-188.32 78.09,-282.47 -211.08,-84.06 -353.86,-244.97 -353.86,-429.69 0,-271.61 308.62,-491.79 689.31,-491.79z"/>
   <path class="fil5" d="M1596.45 1023.03c373.41,0 676.11,215.97 676.11,482.37 0,254.32 -275.88,462.67 -625.77,481.04 -126.24,129.55 -382.33,252.45 -455.97,217.48 25.53,-92.36 51.06,-184.71 76.59,-277.07 -207.04,-82.45 -347.09,-240.28 -347.09,-421.46 0,-266.41 302.71,-482.37 676.12,-482.37z"/>
   <path class="fil5" d="M1596.45 1034.61c366.12,0 662.92,211.75 662.92,472.96 0,249.36 -270.49,453.64 -613.56,471.65 -123.78,127.03 -374.86,247.53 -447.07,213.24 25.03,-90.55 50.06,-181.1 75.1,-271.66 -203,-80.85 -340.31,-235.59 -340.31,-413.24 0,-261.21 296.8,-472.96 662.92,-472.96z"/>
   <path class="fil5" d="M1596.45 1046.2c358.83,0 649.72,207.53 649.72,463.54 0,244.4 -265.11,444.61 -601.34,462.27 -121.32,124.5 -367.4,242.6 -438.17,208.99 24.54,-88.75 49.07,-177.5 73.61,-266.25 -198.96,-79.23 -333.53,-230.9 -333.53,-405.01 0,-256.01 290.89,-463.54 649.72,-463.54z"/>
   <path class="fil5" d="M1596.45 1057.78c351.54,0 636.52,203.32 636.52,454.12 0,239.43 -259.72,435.58 -589.13,452.88 -118.85,121.97 -359.93,237.67 -429.27,204.75 24.04,-86.95 48.07,-173.89 72.11,-260.84 -194.92,-77.62 -326.76,-226.2 -326.76,-396.78 0,-250.81 284.98,-454.12 636.52,-454.12z"/>
   <path class="fil5" d="M1596.45 1069.36c344.25,0 623.32,199.11 623.32,444.71 0,234.47 -254.34,426.54 -576.91,443.48 -116.39,119.44 -352.47,232.74 -420.37,200.5 23.54,-85.14 47.08,-170.29 70.61,-255.43 -190.88,-76.02 -319.98,-221.52 -319.98,-388.55 0,-245.61 279.07,-444.71 623.32,-444.71z"/>
   <path class="fil5" d="M1596.45 1080.95c336.96,0 610.13,194.89 610.13,435.29 0,229.5 -248.95,417.51 -564.7,434.09 -113.92,116.91 -345.01,227.81 -411.46,196.26 23.04,-83.34 46.08,-166.69 69.12,-250.02 -186.84,-74.41 -313.21,-216.83 -313.21,-380.33 0,-240.41 273.16,-435.29 610.13,-435.29z"/>
   <path class="fil5" d="M1596.45 1092.53c329.68,0 596.93,190.67 596.93,425.88 0,224.54 -243.56,408.48 -552.48,424.71 -111.46,114.38 -337.55,222.89 -402.56,192.01 22.54,-81.54 45.08,-163.08 67.62,-244.62 -182.79,-72.8 -306.44,-212.13 -306.44,-372.1 0,-235.21 267.26,-425.88 596.93,-425.88z"/>
   <path class="fil5" d="M1596.45 1104.12c322.39,0 583.73,186.46 583.73,416.46 0,219.57 -238.18,399.45 -540.27,415.31 -108.99,111.85 -330.08,217.96 -393.66,187.77 22.04,-79.74 44.08,-159.47 66.13,-239.21 -178.75,-71.18 -299.66,-207.44 -299.66,-363.87 0,-230 261.34,-416.46 583.73,-416.46z"/>
   <path class="fil5" d="M1596.45 1115.7c315.1,0 570.53,182.24 570.53,407.05 0,214.61 -232.79,390.42 -528.05,405.93 -106.53,109.32 -322.62,213.03 -384.76,183.52 21.54,-77.93 43.09,-155.87 64.63,-233.8 -174.71,-69.58 -292.88,-202.76 -292.88,-355.65 0,-224.8 255.43,-407.05 570.53,-407.05z"/>
   <path class="fil5" d="M1596.45 1127.28c307.81,0 557.33,178.03 557.33,397.63 0,209.64 -227.41,381.39 -515.83,396.53 -104.07,106.79 -315.16,208.1 -375.86,179.28 21.05,-76.13 42.09,-152.26 63.14,-228.39 -170.67,-67.97 -286.11,-198.06 -286.11,-347.42 0,-219.6 249.53,-397.63 557.33,-397.63z"/>
   <path class="fil5" d="M1596.45 1138.87c300.52,0 544.14,173.81 544.14,388.21 0,204.68 -222.02,372.36 -503.62,387.14 -101.6,104.27 -307.7,203.17 -366.96,175.03 20.55,-74.33 41.09,-148.65 61.64,-222.98 -166.63,-66.36 -279.33,-193.38 -279.33,-339.19 0,-214.4 243.62,-388.21 544.14,-388.21z"/>
   <path class="fil5" d="M1596.45 1150.45c293.23,0 530.94,169.59 530.94,378.8 0,199.72 -216.64,363.32 -491.41,377.75 -99.14,101.74 -300.23,198.25 -358.06,170.79 20.05,-72.53 40.1,-145.05 60.15,-217.57 -162.59,-64.75 -272.56,-188.68 -272.56,-330.97 0,-209.21 237.71,-378.8 530.94,-378.8z"/>
   <path class="fil5" d="M1596.45 1162.04c285.94,0 517.74,165.38 517.74,369.38 0,194.75 -211.26,354.29 -479.19,368.36 -96.67,99.21 -292.77,193.32 -349.16,166.54 19.55,-70.72 39.1,-141.44 58.65,-212.17 -158.55,-63.14 -265.79,-183.99 -265.79,-322.74 0,-204 231.8,-369.38 517.74,-369.38z"/>
   <path class="fil5" d="M1596.45 1173.62c278.65,0 504.54,161.16 504.54,359.97 0,189.79 -205.87,345.26 -466.98,358.98 -94.21,96.68 -285.31,188.39 -340.26,162.3 19.05,-68.92 38.1,-137.84 57.16,-206.76 -154.5,-61.53 -259.01,-179.31 -259.01,-314.51 0,-198.8 225.89,-359.97 504.54,-359.97z"/>
   <path class="fil5" d="M1596.45 1185.21c271.36,0 491.34,156.95 491.34,350.55 0,184.82 -200.48,336.23 -454.76,349.58 -91.74,94.15 -277.84,183.46 -331.36,158.05 18.55,-67.12 37.11,-134.23 55.66,-201.35 -150.46,-59.92 -252.23,-174.61 -252.23,-306.29 0,-193.6 219.98,-350.55 491.35,-350.55z"/>
   <path class="fil5" d="M1596.45 1196.79c264.07,0 478.15,152.73 478.15,341.13 0,179.86 -195.1,327.2 -442.54,340.19 -89.28,91.62 -270.38,178.54 -322.46,153.8 18.06,-65.32 36.11,-130.63 54.17,-195.94 -146.42,-58.31 -245.46,-169.92 -245.46,-298.06 0,-188.4 214.07,-341.13 478.15,-341.13z"/>
   <path class="fil5" d="M1596.45 1208.38c256.79,0 464.95,148.52 464.95,331.72 0,174.89 -189.71,318.17 -430.33,330.81 -86.82,89.09 -262.92,173.61 -313.56,149.56l52.67 -190.53c-142.38,-56.7 -238.68,-165.23 -238.68,-289.83 0,-183.2 208.17,-331.72 464.95,-331.72z"/>
   <path class="fil6" d="M1570.67 779.75c472.1,0 854.81,286.52 854.81,639.95 0,337.41 -348.79,613.81 -791.17,638.19 -159.61,171.88 -483.37,334.93 -576.48,288.53l96.84 -367.58c-261.77,-109.39 -438.82,-318.77 -438.82,-559.14 0,-353.44 382.71,-639.95 854.81,-639.95z"/>
  </g>
 </g>
</svg>
