<?xml version="1.0" encoding="UTF-8"?>
<!DOCTYPE svg PUBLIC "-//W3C//DTD SVG 1.1//EN" "http://www.w3.org/Graphics/SVG/1.1/DTD/svg11.dtd">
<!-- Creator: CorelDRAW -->
<svg xmlns="http://www.w3.org/2000/svg" xml:space="preserve" width="152.4mm" height="152.4mm" version="1.1" style="shape-rendering:geometricPrecision; text-rendering:geometricPrecision; image-rendering:optimizeQuality; fill-rule:evenodd; clip-rule:evenodd"
viewBox="0 0 15240 15240"
 xmlns:xlink="http://www.w3.org/1999/xlink"
 xmlns:xodm="http://www.corel.com/coreldraw/odm/2003">
 <defs>
  <style type="text/css">
   <![CDATA[
    .fil0 {fill:none}
    .fil4 {fill:#46B64D}
    .fil3 {fill:#724924}
    .fil2 {fill:#D51D50}
    .fil1 {fill:white}
   ]]>
  </style>
 </defs>
 <g id="Capa_x0020_1">
  <metadata id="CorelCorpID_0Corel-Layer"/>
  <g id="_2981914862816">
   <rect class="fil0" x="-0" y="-0" width="15240" height="15240"/>
   <path class="fil1" d="M5302.97 620.06c602.29,-87.66 1258.57,-139.78 1925.26,-155.93l0 -2.44c130.23,-2.34 260.7,-3.31 391.1,-2.92l1.35 0c130.4,-0.39 260.88,0.57 391.1,2.92l0 2.44c666.7,16.15 1322.97,68.27 1925.26,155.93 1168.22,170.05 2034.35,454.91 2991.98,961.25 375,198.28 624.46,507.52 738.85,916 546.71,1952.26 593.63,4475.73 -355.27,6693.42 -1022.71,2390.26 -2931.52,4171.58 -5219.4,5347.68l-81.42 41.85 0 0.18 -19.03 9.6 -369.3 189.84 -3.43 1.43 -3.46 -1.43 -369.29 -189.84 -19.04 -9.6 0 -0.18 -81.42 -41.85c-2287.88,-1176.1 -4196.68,-2957.42 -5219.4,-5347.68 -948.89,-2217.69 -901.97,-4741.16 -355.27,-6693.42 114.39,-408.48 363.86,-717.72 738.86,-916 957.63,-506.34 1823.75,-791.2 2991.97,-961.25z"/>
   <path class="fil2" d="M5272.5 527.99c610.21,-88.82 1275.11,-141.62 1950.58,-157.99l0 -2.47c131.94,-2.36 264.13,-3.35 396.24,-2.95l1.37 0c132.12,-0.4 264.31,0.58 396.24,2.95l0 2.47c675.47,16.37 1340.37,69.17 1950.59,157.99 1183.59,172.28 2061.1,460.89 3031.33,973.89 379.93,200.88 632.68,514.2 748.57,928.05 553.9,1977.94 601.43,4534.6 -359.94,6781.46 -1036.17,2421.7 -2970.08,4226.45 -5288.06,5418.02l-82.49 42.4 0 0.18 -19.28 9.73 -374.16 192.34 -3.47 1.45 -3.5 -1.45 -374.16 -192.34 -19.28 -9.73 0 -0.18 -82.49 -42.4c-2317.98,-1191.57 -4251.89,-2996.32 -5288.05,-5418.02 -961.38,-2246.86 -913.85,-4803.52 -359.95,-6781.46 115.9,-413.85 368.64,-727.17 748.58,-928.05 970.22,-513 1847.74,-801.61 3031.33,-973.89zm151.33 1039.69c-1063.03,154.73 -2023.76,454.89 -2852.19,943.01 -1334,4290.73 309.12,8747.6 5049.28,11184.3 4789.49,-2416.98 6493.14,-6893.57 5159.14,-11184.3 -810,-477.25 -1746.44,-774.83 -2781.36,-932.47 -1360.59,-207.25 -3211.6,-208.97 -4574.87,-10.54z"/>
   <g>
    <polygon class="fil3" points="7243.9,2202.97 7967.12,2202.97 7967.12,3505.32 7605.5,3861.88 7243.9,3505.34 "/>
    <polygon class="fil2" points="10616.81,4287.64 11212.58,4287.64 11212.58,9658.89 10616.81,9658.89 10616.81,10304.62 10082.15,10304.62 10082.15,10806.11 5187.19,10806.11 5187.19,10304.62 4654.87,10304.62 4534.27,10304.62 4534.27,9679.69 4028.38,9679.69 4028.38,4253.78 4654.87,4253.78 4654.87,3689.94 7222.98,3689.94 7605.5,4067.1 7988.02,3689.94 10616.81,3689.94 "/>
    <rect class="fil4" transform="matrix(0.637354 -0.637354 0.637354 0.637354 8019.95 3693.01)" width="1754.16" height="1754.16"/>
    <rect class="fil1" x="5141.37" y="5082.63" width="826.85" height="826.85"/>
   </g>
  </g>
 </g>
</svg>
