<?xml version="1.0" encoding="UTF-8"?>
<!DOCTYPE svg PUBLIC "-//W3C//DTD SVG 1.1//EN" "http://www.w3.org/Graphics/SVG/1.1/DTD/svg11.dtd">
<!-- Creator: CorelDRAW -->
<svg xmlns="http://www.w3.org/2000/svg" xml:space="preserve" width="152.4mm" height="152.4mm" version="1.1" style="shape-rendering:geometricPrecision; text-rendering:geometricPrecision; image-rendering:optimizeQuality; fill-rule:evenodd; clip-rule:evenodd"
viewBox="0 0 14426.94 14426.94"
 xmlns:xlink="http://www.w3.org/1999/xlink"
 xmlns:xodm="http://www.corel.com/coreldraw/odm/2003">
 <defs>
  <style type="text/css">
   <![CDATA[
    .fil0 {fill:none}
    .fil3 {fill:#FEFEFE}
    .fil4 {fill:#044F80}
    .fil1 {fill:#1461AB}
    .fil2 {fill:url(#id0)}
   ]]>
  </style>
  <linearGradient id="id0" gradientUnits="userSpaceOnUse" x1="7193.64" y1="12889.27" x2="7346.97" y2="5479.03">
   <stop offset="0" style="stop-opacity:1; stop-color:#1562AE"/>
   <stop offset="1" style="stop-opacity:1; stop-color:#10406B"/>
  </linearGradient>
 </defs>
 <g id="Capa_x0020_1">
  <metadata id="CorelCorpID_0Corel-Layer"/>
  <g id="_2981954566496">
   <rect class="fil0" x="-0" y="-0" width="14426.94" height="14426.94"/>
   <g>
    <g>
     <path class="fil1" d="M5020.05 586.98c570.16,-82.99 1191.42,-132.32 1822.55,-147.62l0 -2.31c123.28,-2.21 246.79,-3.13 370.23,-2.75l1.28 0c123.44,-0.38 246.96,0.54 370.23,2.75l0 2.31c631.13,15.3 1252.39,64.63 1822.55,147.62 1105.9,160.97 1925.82,430.64 2832.36,909.96 354.99,187.7 591.15,480.45 699.44,867.14 517.53,1848.11 561.95,4236.95 -336.32,6336.33 -968.16,2262.73 -2775.13,3949.02 -4940.95,5062.37l-77.08 39.62 0 0.17 -18.01 9.09 -349.6 179.72 -3.25 1.35 -3.28 -1.35 -349.59 -179.72 -18.02 -9.09 0 -0.17 -77.08 -39.62c-2165.82,-1113.35 -3972.8,-2799.64 -4940.94,-5062.37 -898.28,-2099.39 -853.86,-4488.23 -336.32,-6336.33 108.29,-386.69 344.44,-679.44 699.43,-867.14 906.54,-479.32 1726.46,-748.99 2832.36,-909.96z"/>
     <path class="fil2" d="M13177.68 6702.53c-111.53,677.24 -298.65,1351.29 -575.3,1997.88 -968.16,2262.74 -2775.13,3949.02 -4940.95,5062.38l-77.08 39.62 0 0.17 -18.01 9.1 -349.61 179.71 -3.24 1.35 -3.27 -1.35 -349.61 -179.71 -18.01 -9.1 0 -0.17 -77.08 -39.62c-2165.82,-1113.35 -3972.8,-2799.64 -4940.94,-5062.38 -263.36,-615.5 -445.59,-1255.89 -558.71,-1900.24 1752.09,-836.69 3830.82,-1321.57 6060.39,-1321.57 2141.52,0 4144,447.21 5851.41,1223.93z"/>
    </g>
    <path class="fil3" d="M13384.32 5316.65c-27.19,1135.66 -242.56,2308.34 -711.07,3403.31 -218.79,511.35 -479.97,993.55 -777.93,1446.83 -242,-296.82 -471.8,-544.04 -681.21,-708.57l-6.18 -4.86 -7.75 -1.49c-183.09,-35.13 -338.21,-128.73 -460.18,-291.49 -123.93,-165.36 -214.36,-402.15 -266.07,-721.38 -12.97,-131.2 -60.89,-253.14 -146.43,-379.57 -84.27,-124.55 -205.22,-253.57 -365.6,-400.66 -13.14,-12.1 -33.64,-11.25 -45.73,1.91 -12.1,13.13 -11.25,33.63 1.9,45.73 156.7,143.72 274.46,269.16 355.72,389.26 79.73,117.85 124.2,230.49 135.87,350.57l0.27 2.03c53.43,330.47 148.07,577.02 278.37,750.86 130.55,174.26 296.32,275.48 491.82,314.79 207.64,164.44 436.43,412.14 677.81,709.37 -228.33,341.99 -477.8,667.24 -745.97,975.86 -327.02,-505.12 -725.28,-1040.63 -843.66,-1375.86 -362.24,173.63 -854.15,288.71 -1086.73,520.91 -529.46,340.09 -1366.06,456.03 -2135.23,299.22 -796.39,-4.7 -1033.14,-8.83 -1652.54,8.48 -346.45,9.67 -630.79,-145.47 -717.17,-319.48 -494.91,-179.93 -566.69,-493.59 -356.98,-853.77 84.86,-610.21 -214.08,-1444.08 91.76,-1693.2 28.81,-675.8 281.52,-1255.61 675.07,-1775.11 236.14,-686.61 532.76,-1264.69 708.41,-2059.82 212.32,-372.79 341.45,-666.55 645.08,-972.66 300.98,-303.43 544.91,-511.76 691.49,-557.82 118.71,-210.91 258.15,-297.23 415.28,-277.66 136.96,-274.59 326.86,-245.92 538.62,-92.19 136.85,-65.9 270.34,-11.23 402.05,107.86 517.02,484.29 676.42,858.77 427.91,1108.05l316.75 19.61c193.09,402.52 -80.13,597.53 -627.79,571.09 -490.26,297.14 -940.08,416.24 -1338.59,309.74l-175.58 181.33c-82.06,331.58 -209.45,742.29 -295.83,1128.03 -132.64,592.5 -109.42,725.47 30.11,1303.38 62.8,260.19 124.98,568.93 119,943.81 -95.8,210.64 -235.65,416.54 -417.49,617.67 -236.96,262.1 -545.47,516.18 -921.08,762.1 -14.96,9.79 -19.15,29.89 -9.36,44.86 9.79,14.97 29.88,19.17 44.85,9.36 379.75,-248.63 692.42,-506.34 933.5,-773 184.78,-204.37 327.45,-413.99 425.95,-628.78 171.96,-198.63 348.5,-349.24 529.51,-452.86 208.56,-119.4 331.83,-152.3 567.31,-152.37 364.03,-0.09 972.3,43.05 1080.64,-46.67 684.58,-756.41 1590.97,-908.98 2645.96,-657 789.33,-300.11 1064.21,-942.3 1461.01,-1513.79 37.27,126.4 70.69,254.45 100.12,384.02z"/>
    <path class="fil4" d="M4991.21 499.82c577.66,-84.08 1207.08,-134.06 1846.52,-149.56l0 -2.34c124.9,-2.23 250.04,-3.17 375.1,-2.79l1.3 0c125.07,-0.38 250.21,0.55 375.1,2.79l0 2.34c639.43,15.5 1268.86,65.48 1846.53,149.56 1120.45,163.09 1951.14,436.3 2869.61,921.93 359.66,190.16 598.93,486.77 708.63,878.54 524.35,1872.42 569.34,4292.68 -340.74,6419.67 -980.89,2292.5 -2811.63,4000.97 -5005.94,5128.97l-78.09 40.14 0 0.17 -18.25 9.21 -354.2 182.08 -3.28 1.37 -3.31 -1.37 -354.2 -182.08 -18.25 -9.21 0 -0.17 -78.09 -40.14c-2194.32,-1128 -4025.05,-2836.47 -5005.93,-5128.97 -910.09,-2126.99 -865.1,-4547.25 -340.75,-6419.67 109.72,-391.77 348.97,-688.38 708.64,-878.54 918.46,-485.63 1749.16,-758.84 2869.61,-921.93zm143.26 984.22c-1006.32,146.48 -1915.79,430.62 -2700.02,892.7 -1262.83,4061.82 292.63,8280.91 4779.9,10587.61 4533.97,-2288.03 6146.73,-6525.8 4883.9,-10587.61 -766.79,-451.79 -1653.27,-733.49 -2632.97,-882.72 -1288,-196.19 -3040.26,-197.82 -4330.8,-9.98z"/>
   </g>
  </g>
 </g>
</svg>
