<?xml version="1.0" encoding="UTF-8"?>
<!DOCTYPE svg PUBLIC "-//W3C//DTD SVG 1.1//EN" "http://www.w3.org/Graphics/SVG/1.1/DTD/svg11.dtd">
<!-- Creator: CorelDRAW -->
<svg xmlns="http://www.w3.org/2000/svg" xml:space="preserve" width="152.4mm" height="152.4mm" version="1.1" style="shape-rendering:geometricPrecision; text-rendering:geometricPrecision; image-rendering:optimizeQuality; fill-rule:evenodd; clip-rule:evenodd"
viewBox="0 0 4984.02 4984.02"
 xmlns:xlink="http://www.w3.org/1999/xlink"
 xmlns:xodm="http://www.corel.com/coreldraw/odm/2003">
 <defs>
  <style type="text/css">
   <![CDATA[
    .fil0 {fill:none}
    .fil3 {fill:#044F80}
    .fil1 {fill:#1461AB}
    .fil5 {fill:white;fill-rule:nonzero}
    .fil2 {fill:url(#id0)}
    .fil4 {fill:url(#id1)}
   ]]>
  </style>
  <linearGradient id="id0" gradientUnits="userSpaceOnUse" x1="2491.46" y1="2285.6" x2="2491.99" y2="4527">
   <stop offset="0" style="stop-opacity:1; stop-color:#113F6B"/>
   <stop offset="1" style="stop-opacity:1; stop-color:#1461AB"/>
  </linearGradient>
  <linearGradient id="id1" gradientUnits="userSpaceOnUse" x1="2516.37" y1="2282.3" x2="2492.02" y2="4864.9">
   <stop offset="0" style="stop-opacity:1; stop-color:#0B3A5D"/>
   <stop offset="1" style="stop-opacity:1; stop-color:#044F80"/>
  </linearGradient>
 </defs>
 <g id="Capa_x0020_1">
  <metadata id="CorelCorpID_0Corel-Layer"/>
  <g id="_2981912500240">
   <g>
    <rect class="fil0" x="-0" y="-0" width="4984.02" height="4984.02"/>
    <g>
     <ellipse id="contour" class="fil1" cx="2492.01" cy="2492.01" rx="2354.88" ry="2354.89"/>
     <path id="contour_120" class="fil2" d="M4830.11 2773.32c-139.05,1167.93 -1132.74,2073.59 -2338.09,2073.59 -1204.6,0 -2197.8,-904.52 -2337.84,-2071.38 665.36,-327.39 1471.39,-519.2 2340.19,-519.2 866.86,0 1671.24,190.95 2335.74,516.99z"/>
    </g>
    <path id="contour_121" class="fil3" d="M2492.01 119.12c1310.5,0 2372.88,1062.38 2372.88,2372.89 0,1310.5 -1062.37,2372.88 -2372.88,2372.88 -1310.5,0 -2372.87,-1062.38 -2372.87,-2372.88 0,-1310.51 1062.37,-2372.89 2372.87,-2372.89zm-0.02 322.39c1132.47,0 2050.52,918.05 2050.52,2050.51 0,1132.47 -918.05,2050.52 -2050.52,2050.52 -1132.47,0 -2050.51,-918.05 -2050.51,-2050.52 0,-1132.47 918.05,-2050.51 2050.51,-2050.51z"/>
    <path id="contour_122" class="fil4" d="M4846.9 2784.31c-144.06,1172.58 -1143.37,2080.58 -2354.89,2080.58 -1210.94,0 -2209.88,-907.14 -2354.69,-2078.9 34.44,-16.7 309.81,-142 309.81,-142 77.77,1061.49 963.52,1898.55 2044.86,1898.55 1082.15,0 1968.4,-838.32 2045.02,-1900.94 0.11,-1.53 309.67,139.5 309.89,142.71z"/>
   </g>
   <rect class="fil0" x="-0" y="-0" width="4984.02" height="4984.02"/>
   <g>
    <path id="path4423" class="fil5" d="M1798.51 2317.92l0 545.46 -173.63 0.01 0 -685.62 358.48 0.36c152.25,0 204.12,107.37 204.12,204.9l0 480.37 -173.33 -0 0 -479.47c0,-40.85 -21.15,-65.99 -72.16,-65.99l-143.48 0 0 -0zm1180.71 -8.19c-59.35,0 -105.28,30.51 -124.47,71.93 -11.37,24.87 -15.28,43.92 -16.61,74.37l267.14 0c-3.43,-74.37 -37.15,-146.3 -126.06,-146.3l0 -0.01zm-141.08 264.48c0,88.81 55.21,154.18 153.79,154.18 76.69,0 114.81,-21.25 159.15,-65.37l107.24 102.4c-68.67,67.79 -140.72,108.96 -267.68,108.96 -166.22,0 -325.29,-90.63 -325.29,-354.77 0,-225.69 138.89,-353.46 321.38,-353.46 184.98,0 291.86,149.58 291.86,345.52l0 62.55 -440.45 0 0 0zm-319.35 288.32c-141.46,0 -201.47,-98.47 -201.47,-195.72l0 -675.85 173.36 0 0 186.8 130.7 -0 0 140.16 -130.7 0 0 338.01c0,39.83 18.81,61.94 60.17,61.94l70.53 0 0 144.65 -102.59 0 0 0zm-1048.4 -779.52l-174.82 0 0 -166.07 174.82 0 0 166.07zm0.44 787.58c-130.92,-12.58 -175.45,-91.99 -175.45,-183.62l0.19 -509.21 175.26 0 0 692.83zm2083.7 -14.65c-130.65,-12.6 -174.97,-91.88 -174.97,-183.4l0 -779.24 174.97 0 0 962.64zm611.69 -850.02c-158.57,-773.1 -1659.28,-822.04 -2626.58,-233.17l0 65.01c966.32,-496.61 2336.8,-493.68 2461.66,218.37 41.78,235.45 -90.9,480.94 -327.86,622.03l0 184.61c285.21,-104.34 577.71,-442.69 492.78,-856.86l0 0zm-1758.33 1352.63c-667.59,61.71 -1363.26,-35.19 -1460.61,-556.86 -47.65,-257.16 69.5,-529.77 224.92,-699.1l0 -90.55c-279.77,245.34 -431.61,555.93 -344.2,922.94 111.57,470.61 708.63,737.3 1619.95,648.74 360.56,-35.19 832.49,-151.13 1160.58,-331.21l0 -255.82c-297.71,177.27 -790.34,323.87 -1200.64,361.86z"/>
   </g>
   <g>
    <path id="path4425" class="fil5" d="M3756.79 1945.05c0,-8.48 -4.95,-11.18 -16.28,-11.18l-10.93 0 0 24.01c1.59,0 9.53,0.29 10.93,0.29 11.33,0 16.28,-3.78 16.28,-11.72l0 -1.4zm17.05 59.53l-12.95 0c-1.17,0 -2.19,-0.73 -2.69,-1.71l-17.68 -29.97c-0.31,-0.61 -1.84,-1.34 -2.45,-1.34l-7.94 0 0 29.71c0,1.59 -1.09,3.3 -3.18,3.3l-11.72 0c-1.46,0 -2.92,-1.71 -2.92,-3.3l0 -75.17c0,-4.35 1.69,-6.16 5.37,-6.73 4.14,-0.55 15.38,-0.92 21.44,-0.92 21.52,0 34.54,6.35 34.54,26.58l0 1.4c0,12.52 -6.23,19.12 -15.88,22.36l18.33 30.99c0.12,0.62 0.55,1.48 0.55,2.21 0,1.21 -0.73,2.57 -2.8,2.57l-0.01 0zm-30.76 -99.68c-31.89,0 -57.68,26.33 -57.68,58.03 0,31.75 25.78,57.66 57.68,57.66 31.72,0 57.76,-25.91 57.76,-57.66 0,-31.7 -26.04,-58.03 -57.76,-58.03l0 0zm0 127.64c-38.75,0 -69.65,-31.26 -69.65,-69.61 0,-38.28 30.9,-69.63 69.65,-69.63 38.33,0 69.82,31.35 69.82,69.63 0,38.35 -31.49,69.61 -69.82,69.61z"/>
   </g>
  </g>
 </g>
</svg>
