<?xml version="1.0" encoding="UTF-8"?>
<!DOCTYPE svg PUBLIC "-//W3C//DTD SVG 1.1//EN" "http://www.w3.org/Graphics/SVG/1.1/DTD/svg11.dtd">
<!-- Creator: CorelDRAW -->
<svg xmlns="http://www.w3.org/2000/svg" xml:space="preserve" width="152.4mm" height="152.4mm" version="1.1" style="shape-rendering:geometricPrecision; text-rendering:geometricPrecision; image-rendering:optimizeQuality; fill-rule:evenodd; clip-rule:evenodd"
viewBox="0 0 15240 15240"
 xmlns:xlink="http://www.w3.org/1999/xlink"
 xmlns:xodm="http://www.corel.com/coreldraw/odm/2003">
 <defs>
  <style type="text/css">
   <![CDATA[
    .fil0 {fill:none}
    .fil1 {fill:#2AC4F4}
    .fil2 {fill:#EF4036}
    .fil3 {fill:white}
   ]]>
  </style>
 </defs>
 <g id="Capa_x0020_1">
  <metadata id="CorelCorpID_0Corel-Layer"/>
  <g id="_2981914887104">
   <rect class="fil0" x="-0" y="-0" width="15240" height="15240"/>
   <ellipse id="contour" class="fil1" cx="7620.01" cy="7620" rx="7200.69" ry="7200.73"/>
   <path id="contour_60" class="fil2" d="M7620.01 364.25c4007.22,0 7255.71,3248.52 7255.71,7255.75 0,4007.22 -3248.49,7255.74 -7255.71,7255.74 -4007.22,0 -7255.7,-3248.52 -7255.7,-7255.74 0,-4007.23 3248.48,-7255.75 7255.7,-7255.75zm-0.06 985.8c3462.82,0 6270.01,2807.18 6270.01,6270 0,3462.82 -2807.19,6270.01 -6270.01,6270.01 -3462.82,0 -6270,-2807.19 -6270,-6270.01 0,-3462.82 2807.18,-6270 6270,-6270z"/>
   <path class="fil3" d="M7737.16 2622.72l0.01 0c95.37,0 173.4,78.03 173.4,173.4l0 6420.81 1026.93 -40.27 423.59 529.48 3343.34 -45.38c-264.41,459.35 -747.96,993.84 -1406.93,1588.46l-7775.9 0c-425.9,-456.92 -660.65,-860.29 -650.51,-1195.13 2335.47,-162.18 3639.15,59.35 3751.79,-786.66l941.06 -36.9c-0.11,-2.53 -0.18,-5.07 -0.18,-7.62l0 -600.2 -3829.54 0c-97.99,0 -178.16,-80.17 -178.16,-178.16l0 -0.01c0,-97.99 80.17,-178.16 178.16,-178.16l3829.54 0 0 -5470.26c0,-95.37 78.03,-173.4 173.4,-173.4zm428.56 879.71l0 5301.38 4399.76 0 -4399.76 -5301.38zm-841.91 -631.44l0 5077.76 -3393.94 0 3393.94 -5077.76z"/>
  </g>
 </g>
</svg>
