<?xml version="1.0" encoding="UTF-8"?>
<!DOCTYPE svg PUBLIC "-//W3C//DTD SVG 1.1//EN" "http://www.w3.org/Graphics/SVG/1.1/DTD/svg11.dtd">
<!-- Creator: CorelDRAW -->
<svg xmlns="http://www.w3.org/2000/svg" xml:space="preserve" width="152.4mm" height="152.4mm" version="1.1" style="shape-rendering:geometricPrecision; text-rendering:geometricPrecision; image-rendering:optimizeQuality; fill-rule:evenodd; clip-rule:evenodd"
viewBox="0 0 15240 15240"
 xmlns:xlink="http://www.w3.org/1999/xlink"
 xmlns:xodm="http://www.corel.com/coreldraw/odm/2003">
 <defs>
  <style type="text/css">
   <![CDATA[
    .fil3 {fill:none}
    .fil2 {fill:#FEFEFE}
    .fil0 {fill:#2AC4F4}
    .fil1 {fill:#EF4036}
   ]]>
  </style>
 </defs>
 <g id="Capa_x0020_1">
  <metadata id="CorelCorpID_0Corel-Layer"/>
  <g id="_1788741140960">
   <g>
    <ellipse id="contour" class="fil0" cx="7620.01" cy="7620" rx="7255.7" ry="7255.74"/>
    <path id="contour_61" class="fil1" d="M7620.01 364.25c4007.22,0 7255.71,3248.52 7255.71,7255.75 0,4007.22 -3248.49,7255.74 -7255.71,7255.74 -4007.22,0 -7255.7,-3248.52 -7255.7,-7255.74 0,-4007.23 3248.48,-7255.75 7255.7,-7255.75zm-0.06 985.8c3462.82,0 6270.01,2807.18 6270.01,6270 0,3462.82 -2807.19,6270.01 -6270.01,6270.01 -3462.82,0 -6270,-2807.19 -6270,-6270.01 0,-3462.82 2807.18,-6270 6270,-6270z"/>
    <path class="fil2" d="M7484.43 2992.78l0.01 0c123.78,0 225.04,101.26 225.04,225.04l0 6331.3c0,6.43 -0.29,12.8 -0.83,19.1l4437.58 0c45.22,0 83.87,25.23 102.07,66.62 18.2,41.39 10.67,86.93 -19.9,120.25l-1411.33 1538.64 -6413.62 0 -1411.33 -1538.64c-30.57,-33.32 -38.1,-78.86 -19.9,-120.25 18.2,-41.39 56.85,-66.62 102.07,-66.62l4185.93 0c-0.54,-6.3 -0.83,-12.67 -0.83,-19.1l0 -573.93 -3656.78 0c-118.77,0 -215.93,-97.16 -215.93,-215.93 0,-118.77 97.16,-215.93 215.93,-215.93l3656.78 0 0 -5325.51c0,-123.78 101.26,-225.04 225.04,-225.04zm-498.01 550.15l0 4408.75c0,173.33 -141.37,314.7 -314.7,314.7l-2630.48 0c-51.51,0 -95.7,-26.28 -120.29,-71.54 -24.6,-45.27 -22.59,-96.64 5.44,-139.86l2948.41 -4545.09c14.86,-22.91 41.97,-32.92 68.15,-25.17 26.19,7.76 43.47,30.9 43.47,58.21zm1022.14 694.18l0 4460.21c0,187.32 152.78,340.1 340.1,340.1l3836.42 0 -4024.13 -4855.26c-23.6,-28.47 -60.71,-38.59 -95.49,-26.05 -34.79,12.54 -56.9,44.02 -56.9,81z"/>
   </g>
   <rect class="fil3" x="-0" y="-0" width="15240" height="15240"/>
  </g>
 </g>
</svg>
