<?xml version="1.0" encoding="UTF-8"?>
<!DOCTYPE svg PUBLIC "-//W3C//DTD SVG 1.1//EN" "http://www.w3.org/Graphics/SVG/1.1/DTD/svg11.dtd">
<!-- Creator: CorelDRAW -->
<svg xmlns="http://www.w3.org/2000/svg" xml:space="preserve" width="152.4mm" height="152.4mm" version="1.1" style="shape-rendering:geometricPrecision; text-rendering:geometricPrecision; image-rendering:optimizeQuality; fill-rule:evenodd; clip-rule:evenodd"
viewBox="0 0 15240 15240"
 xmlns:xlink="http://www.w3.org/1999/xlink"
 xmlns:xodm="http://www.corel.com/coreldraw/odm/2003">
 <defs>
  <style type="text/css">
   <![CDATA[
    .fil0 {fill:none}
    .fil1 {fill:#1A65AF}
    .fil2 {fill:#6FBE47}
    .fil3 {fill:#6FBE47}
   ]]>
  </style>
 </defs>
 <g id="Capa_x0020_1">
  <metadata id="CorelCorpID_0Corel-Layer"/>
  <g id="_2981917111472">
   <rect class="fil0" x="-0" y="-0" width="15240" height="15240"/>
   <ellipse id="contour" class="fil1" cx="7620.01" cy="7620" rx="7200.69" ry="7200.73"/>
   <path id="contour_114" class="fil2" d="M14309.2 10435.27c-143.84,341.27 -313.18,669.18 -505.37,981.47l-3780.55 -2177.55c-62.88,-36.21 -82.36,-117.31 -50.2,-182.35 32.16,-65.04 106.91,-94.62 175.43,-70.75l4160.69 1449.18zm-1117.17 1831.79c-259.65,310.97 -544.8,599.94 -852.33,863.55l-3135.45 -3791.25c-47.28,-57.15 -44.84,-139.99 7.61,-192.55 52.45,-52.56 135.35,-55.21 192.6,-7.92l3787.57 3128.17zm-1571.66 1406.62c-324.29,214.73 -666.64,404.35 -1024.59,565.58l-1486.54 -4120.64c-24.64,-68.31 5.54,-143.36 70.6,-175.59 65.06,-32.23 144.49,-11.69 182.45,50.19l2258.08 3680.46z"/>
   <path id="contour_115" class="fil3" d="M7620.01 364.25c4007.22,0 7255.71,3248.52 7255.71,7255.75 0,4007.22 -3248.49,7255.74 -7255.71,7255.74 -4007.22,0 -7255.7,-3248.52 -7255.7,-7255.74 0,-4007.23 3248.48,-7255.75 7255.7,-7255.75zm-0.06 985.8c3462.82,0 6270.01,2807.18 6270.01,6270 0,3462.82 -2807.19,6270.01 -6270.01,6270.01 -3462.82,0 -6270,-2807.19 -6270,-6270.01 0,-3462.82 2807.18,-6270 6270,-6270z"/>
   <path class="fil2" d="M3886.1 3820.18c155.01,-155.94 409.41,-156.69 565.35,-1.68l1639.27 1629.57 3488.18 -900.63 587.1 566.72 -2908.49 1493.79 1178.04 1171.06 936.24 -102.74 434.82 468.6 -1032.09 534.79 -517.47 1032.72 -457.18 -445.82 104.75 -887.97 -1220.87 -1213.64 -1465.09 2926.01 -546.23 -559.65 813.42 -3557.17 -1598.07 -1588.62c-155.94,-155.01 -156.69,-409.41 -1.68,-565.34z"/>
  </g>
 </g>
</svg>
