<?xml version="1.0" encoding="UTF-8"?>
<!DOCTYPE svg PUBLIC "-//W3C//DTD SVG 1.1//EN" "http://www.w3.org/Graphics/SVG/1.1/DTD/svg11.dtd">
<!-- Creator: CorelDRAW -->
<svg xmlns="http://www.w3.org/2000/svg" xml:space="preserve" width="152.4mm" height="152.4mm" version="1.1" style="shape-rendering:geometricPrecision; text-rendering:geometricPrecision; image-rendering:optimizeQuality; fill-rule:evenodd; clip-rule:evenodd"
viewBox="0 0 15240 15240"
 xmlns:xlink="http://www.w3.org/1999/xlink"
 xmlns:xodm="http://www.corel.com/coreldraw/odm/2003">
 <defs>
  <style type="text/css">
   <![CDATA[
    .fil0 {fill:none}
    .fil1 {fill:#1A65AF}
    .fil2 {fill:#6FBE47}
   ]]>
  </style>
 </defs>
 <g id="Capa_x0020_1">
  <metadata id="CorelCorpID_0Corel-Layer"/>
  <g id="_2981954567264">
   <rect class="fil0" x="-0" y="-0" width="15240" height="15240"/>
   <ellipse id="contour" class="fil1" cx="7620.01" cy="7620" rx="7200.69" ry="7200.73"/>
   <path id="contour_83" class="fil2" d="M13634.18 11680.18c-258.37,381.94 -552.18,737.94 -876.69,1063.31l-3239.77 -3608.82c-46.69,-52.01 -46.97,-129.83 -0.66,-182.17 46.33,-52.35 123.62,-61.55 180.92,-21.52l3936.2 2749.2zm-1251.3 1413.31c-277.29,241.49 -573.21,462.11 -885.12,659.77l-2679.58 -4554.65c-36.25,-61.58 -19,-140.32 39.59,-181.35 58.59,-41.04 138.49,-30.33 184,24.87l3341.11 4051.36zm-1294.88 901.21c-402.04,219.18 -827.22,401.18 -1270.74,541.98l-1284.94 -4726.68c-18.35,-67.49 16.46,-137.19 81.43,-163.08 64.97,-25.89 138.17,0.77 171.27,62.37l2302.98 4285.41z"/>
   <path id="contour_84" class="fil2" d="M7620.01 364.25c4007.22,0 7255.71,3248.52 7255.71,7255.75 0,4007.22 -3248.49,7255.74 -7255.71,7255.74 -4007.22,0 -7255.7,-3248.52 -7255.7,-7255.74 0,-4007.23 3248.48,-7255.75 7255.7,-7255.75zm-0.06 985.8c3462.82,0 6270.01,2807.18 6270.01,6270 0,3462.82 -2807.19,6270.01 -6270.01,6270.01 -3462.82,0 -6270,-2807.19 -6270,-6270.01 0,-3462.82 2807.18,-6270 6270,-6270z"/>
   <path class="fil2" d="M4743.63 3174.4c173.24,-121.84 414.66,-79.79 536.49,93.45l1280.83 1821.16 3459.81 -267.8 461.57 636.21 -3009.71 927.85 920.45 1308.75 905.26 59.95 333.63 517.54 -1068.8 333.73 -664.42 892.49 -358.66 -499.7 248.63 -824.59 -953.92 -1356.34 -1881.48 2528.9 -423.99 -622.63 1369.5 -3237.09 -1248.64 -1775.39c-121.84,-173.24 -79.79,-414.66 93.45,-536.49z"/>
  </g>
 </g>
</svg>
