<?xml version="1.0" encoding="UTF-8"?>
<!DOCTYPE svg PUBLIC "-//W3C//DTD SVG 1.1//EN" "http://www.w3.org/Graphics/SVG/1.1/DTD/svg11.dtd">
<!-- Creator: CorelDRAW -->
<svg xmlns="http://www.w3.org/2000/svg" xml:space="preserve" width="152.4mm" height="152.4mm" version="1.1" style="shape-rendering:geometricPrecision; text-rendering:geometricPrecision; image-rendering:optimizeQuality; fill-rule:evenodd; clip-rule:evenodd"
viewBox="0 0 15240 15240"
 xmlns:xlink="http://www.w3.org/1999/xlink"
 xmlns:xodm="http://www.corel.com/coreldraw/odm/2003">
 <defs>
  <style type="text/css">
   <![CDATA[
    .fil0 {fill:none}
    .fil2 {fill:#A7A9AC}
    .fil1 {fill:white}
    .fil3 {fill:#A7A9AC;fill-rule:nonzero}
   ]]>
  </style>
 </defs>
 <g id="Capa_x0020_1">
  <metadata id="CorelCorpID_0Corel-Layer"/>
  <g id="_2981993097440">
   <rect class="fil0" x="-0" y="-0" width="15240" height="15240"/>
   <ellipse id="contour" class="fil1" cx="7620.01" cy="7620" rx="7200.69" ry="7200.73"/>
   <path id="contour_116" class="fil2" d="M7620.01 364.25c4007.22,0 7255.71,3248.52 7255.71,7255.75 0,4007.22 -3248.49,7255.74 -7255.71,7255.74 -4007.22,0 -7255.7,-3248.52 -7255.7,-7255.74 0,-4007.23 3248.48,-7255.75 7255.7,-7255.75zm-0.06 985.8c3462.82,0 6270.01,2807.18 6270.01,6270 0,3462.82 -2807.19,6270.01 -6270.01,6270.01 -3462.82,0 -6270,-2807.19 -6270,-6270.01 0,-3462.82 2807.18,-6270 6270,-6270z"/>
   <path class="fil3" d="M9841.04 7400.83c-9.46,-953.57 815.55,-1411.66 852.76,-1433.84 -463.96,-647.58 -1185.99,-736.26 -1443.3,-746.98 -614.81,-59.34 -1199.44,345.5 -1511.06,345.5 -311.44,0 -792.94,-336.49 -1302.35,-327.28 -670.31,9.17 -1287.68,371.61 -1633.19,943.92 -695.65,1153.05 -177.76,2860.59 500.41,3795.72 331.55,457.09 726.64,971.7 1245.93,953.1 499.98,-18.54 688.96,-308.3 1292.93,-308.3 604.15,0 774.25,308.3 1302.82,298.71 537.97,-8.95 878.67,-466.09 1207.93,-924.97 380.6,-530.95 537.15,-1045 546.59,-1071.46 -11.79,-5.11 -1048.78,-384.41 -1059.47,-1524.12z"/>
   <path class="fil3" d="M8787.88 4640.29c268.37,-324.84 448.83,-776.35 399.39,-1226.34 -386.15,15.78 -853.97,257.5 -1131.37,581.97 -248.44,287.51 -465.98,747 -407.2,1188 430.61,33.36 870.81,-219.1 1139.18,-543.63z"/>
  </g>
 </g>
</svg>
