<?xml version="1.0" encoding="UTF-8"?>
<!DOCTYPE svg PUBLIC "-//W3C//DTD SVG 1.1//EN" "http://www.w3.org/Graphics/SVG/1.1/DTD/svg11.dtd">
<!-- Creator: CorelDRAW -->
<svg xmlns="http://www.w3.org/2000/svg" xml:space="preserve" width="152.4mm" height="152.4mm" version="1.1" style="shape-rendering:geometricPrecision; text-rendering:geometricPrecision; image-rendering:optimizeQuality; fill-rule:evenodd; clip-rule:evenodd"
viewBox="0 0 14035.64 14035.64"
 xmlns:xlink="http://www.w3.org/1999/xlink"
 xmlns:xodm="http://www.corel.com/coreldraw/odm/2003">
 <defs>
  <style type="text/css">
   <![CDATA[
    .fil0 {fill:none}
    .fil2 {fill:#824297}
    .fil1 {fill:#F6EE22}
   ]]>
  </style>
 </defs>
 <g id="Capa_x0020_1">
  <metadata id="CorelCorpID_0Corel-Layer"/>
  <g id="_1904534902800">
   <rect class="fil0" x="-0" y="-0" width="14035.64" height="14035.64"/>
   <path class="fil1" d="M4883.9 571.06c554.69,-80.74 1159.1,-128.73 1773.11,-143.62l0 -2.25c119.94,-2.15 240.1,-3.05 360.19,-2.68l1.24 0c120.09,-0.37 240.26,0.52 360.19,2.68l0 2.25c614.01,14.88 1218.42,62.87 1773.11,143.62 1075.91,156.6 1873.58,418.96 2755.54,885.28 345.37,182.61 575.12,467.42 680.47,843.62 503.5,1797.98 546.71,4122.03 -327.19,6164.47 -941.9,2201.36 -2699.86,3841.91 -4806.94,4925.06l-74.99 38.54 0 0.17 -17.53 8.84 -340.12 174.85 -3.16 1.32 -3.19 -1.32 -340.11 -174.85 -17.54 -8.84 0 -0.17 -74.99 -38.54c-2107.08,-1083.16 -3865.04,-2723.71 -4806.93,-4925.06 -873.91,-2042.44 -830.7,-4366.49 -327.19,-6164.47 105.35,-376.2 335.1,-661.01 680.46,-843.62 881.95,-466.32 1679.64,-728.67 2755.54,-885.28z"/>
   <path class="fil2" d="M4855.83 486.27c561.99,-81.8 1174.34,-130.43 1796.43,-145.5l0 -2.27c121.51,-2.17 243.26,-3.09 364.93,-2.72l1.26 0c121.68,-0.37 243.42,0.53 364.93,2.72l0 2.27c622.09,15.08 1234.45,63.7 1796.44,145.5 1090.06,158.67 1898.22,424.47 2791.78,896.93 349.91,185.01 582.68,473.56 689.41,854.71 510.13,1821.63 553.9,4176.25 -331.5,6245.55 -954.29,2230.32 -2735.37,3892.45 -4870.17,4989.86l-75.97 39.05 0 0.17 -17.76 8.96 -344.59 177.14 -3.2 1.34 -3.22 -1.34 -344.59 -177.14 -17.76 -8.96 0 -0.17 -75.97 -39.05c-2134.8,-1097.4 -3915.88,-2759.53 -4870.16,-4989.86 -885.41,-2069.3 -841.63,-4423.92 -331.5,-6245.55 106.74,-381.15 339.51,-669.7 689.42,-854.71 893.55,-472.46 1701.72,-738.26 2791.78,-896.93zm139.37 957.53c-979.02,142.5 -1863.83,418.94 -2626.79,868.49 -1228.58,3951.65 284.69,8056.31 4650.26,10300.45 4411,-2225.98 5980.01,-6348.8 4751.43,-10300.45 -745.99,-439.53 -1608.43,-713.6 -2561.56,-858.78 -1253.07,-190.87 -2957.8,-192.46 -4213.34,-9.71z"/>
   <path class="fil2" d="M9611.6 6607.36l-3290.09 -285.89 253.38 -1716.99 4647.4 986.64c133.03,247.07 110.8,550.18 25.28,795.02 -187.57,-191.93 -447.73,-310.87 -735.27,-310.87 -386.08,0 -722.8,214.4 -900.7,532.09zm-3203.42 -2170.41l-305.45 1910.56 -962.11 -15.67 350.53 -2167.45 917.03 272.55zm-3766.28 392.17c130,-810.07 892.1,-1361.37 1702.17,-1231.37 344.35,55.27 641.89,224.81 860.27,463.65l-371.54 2283c-18.38,10.33 -35.16,20.33 -50.72,29.99 -189.17,-185.01 -447.96,-299.11 -733.41,-299.11 -258.37,0 -494.89,93.5 -677.74,248.42 -485.95,-294.42 -826.18,-889.31 -729.04,-1494.57zm680.61 -737.45c21.45,-80.68 104.25,-128.71 184.93,-107.26 80.69,21.45 128.72,104.25 107.28,184.94 -21.45,80.69 -104.24,128.71 -184.93,107.26 -80.7,-21.45 -128.72,-104.25 -107.28,-184.94zm-329.1 252.26c21.45,-80.7 104.25,-128.72 184.94,-107.27 80.69,21.45 128.72,104.25 107.27,184.94 -21.45,80.69 -104.25,128.7 -184.93,107.26 -80.7,-21.46 -128.72,-104.24 -107.28,-184.93zm237.12 336.28c21.46,-80.7 104.25,-128.71 184.94,-107.27 80.7,21.44 128.71,104.25 107.26,184.94 -21.45,80.68 -104.24,128.7 -184.93,107.26 -80.7,-21.47 -128.71,-104.24 -107.27,-184.93zm658.28 -502.93c21.44,-80.7 104.25,-128.72 184.93,-107.28 80.68,21.45 128.72,104.25 107.26,184.93 -21.45,80.69 -104.24,128.72 -184.92,107.26 -80.7,-21.43 -128.72,-104.24 -107.27,-184.91zm-334.53 233.02c21.46,-80.69 104.25,-128.72 184.94,-107.26 80.69,21.44 128.72,104.25 107.27,184.92 -21.44,80.68 -104.24,128.71 -184.93,107.27 -80.7,-21.45 -128.72,-104.25 -107.28,-184.93zm105.43 -559.14c21.45,-80.7 104.25,-128.72 184.93,-107.27 80.69,21.45 128.71,104.25 107.26,184.94 -21.45,80.69 -104.25,128.71 -184.93,107.26 -80.69,-21.45 -128.71,-104.25 -107.26,-184.93zm388.95 2480.14c438.01,0 793.08,355.07 793.08,793.08 0,438.01 -355.07,793.08 -793.08,793.08 -438.01,0 -793.08,-355.07 -793.08,-793.08 0,-438.01 355.07,-793.08 793.08,-793.08zm0 543.7c137.73,0 249.38,111.65 249.38,249.38 0,137.73 -111.65,249.38 -249.38,249.38 -137.73,0 -249.38,-111.65 -249.38,-249.38 0,-137.73 111.65,-249.38 249.38,-249.38zm6449.53 -543.7c438.01,0 793.08,355.07 793.08,793.08 0,438.01 -355.07,793.08 -793.08,793.08 -438.01,0 -793.08,-355.07 -793.08,-793.08 0,-438.01 355.07,-793.08 793.08,-793.08zm0 543.7c137.73,0 249.38,111.65 249.38,249.38 0,137.73 -111.65,249.38 -249.38,249.38 -137.73,0 -249.38,-111.65 -249.38,-249.38 0,-137.73 111.65,-249.38 249.38,-249.38z"/>
  </g>
 </g>
</svg>
