<?xml version="1.0" encoding="UTF-8"?>
<!DOCTYPE svg PUBLIC "-//W3C//DTD SVG 1.1//EN" "http://www.w3.org/Graphics/SVG/1.1/DTD/svg11.dtd">
<!-- Creator: CorelDRAW -->
<svg xmlns="http://www.w3.org/2000/svg" xml:space="preserve" width="152.4mm" height="152.4mm" version="1.1" style="shape-rendering:geometricPrecision; text-rendering:geometricPrecision; image-rendering:optimizeQuality; fill-rule:evenodd; clip-rule:evenodd"
viewBox="0 0 15240 15240"
 xmlns:xlink="http://www.w3.org/1999/xlink"
 xmlns:xodm="http://www.corel.com/coreldraw/odm/2003">
 <defs>
  <style type="text/css">
   <![CDATA[
    .fil0 {fill:none}
    .fil1 {fill:#014F7F}
    .fil2 {fill:#FEF104}
    .fil3 {fill:#FFF200}
   ]]>
  </style>
 </defs>
 <g id="Capa_x0020_1">
  <metadata id="CorelCorpID_0Corel-Layer"/>
  <g id="_2981851202384">
   <rect class="fil0" x="-0" y="-0" width="15240" height="15240"/>
   <ellipse id="contour" class="fil1" cx="7620.01" cy="7620" rx="7200.69" ry="7200.73"/>
   <path id="contour_51" class="fil2" d="M7620.01 364.25c4007.22,0 7255.71,3248.52 7255.71,7255.75 0,4007.22 -3248.49,7255.74 -7255.71,7255.74 -4007.22,0 -7255.7,-3248.52 -7255.7,-7255.74 0,-4007.23 3248.48,-7255.75 7255.7,-7255.75zm-0.06 985.8c3462.82,0 6270.01,2807.18 6270.01,6270 0,3462.82 -2807.19,6270.01 -6270.01,6270.01 -3462.82,0 -6270,-2807.19 -6270,-6270.01 0,-3462.82 2807.18,-6270 6270,-6270z"/>
   <path class="fil3" d="M2843.3 6272.14c10.96,-97.74 99.07,-168.08 196.81,-157.11 97.74,10.95 168.07,99.07 157.11,196.81 -10.97,97.73 -99.07,168.06 -196.81,157.11 -97.74,-10.97 -168.08,-99.07 -157.11,-196.81zm281.47 370.33c10.96,-97.74 99.07,-168.08 196.81,-157.11 97.74,10.95 168.07,99.07 157.11,196.81 -10.97,97.73 -99.07,168.06 -196.81,157.11 -97.74,-10.97 -168.08,-99.07 -157.11,-196.81zm772.28 -613.64c10.96,-97.74 99.07,-168.08 196.81,-157.13 97.73,10.97 168.07,99.08 157.11,196.81 -10.96,97.74 -99.07,168.08 -196.81,157.11 -97.74,-10.95 -168.07,-99.07 -157.11,-196.79zm-371.73 301.64c10.97,-97.74 99.07,-168.08 196.81,-157.11 97.74,10.95 168.08,99.07 157.11,196.8 -10.96,97.73 -99.07,168.07 -196.81,157.12 -97.74,-10.97 -168.08,-99.07 -157.11,-196.81zm76.13 -664.27c10.96,-97.74 99.08,-168.08 196.81,-157.11 97.74,10.96 168.07,99.07 157.11,196.81 -10.96,97.74 -99.07,168.07 -196.8,157.11 -97.74,-10.97 -168.08,-99.07 -157.12,-196.81zm-370.82 285.57c10.96,-97.73 99.07,-168.07 196.81,-157.11 97.73,10.97 168.07,99.07 157.12,196.81 -10.97,97.74 -99.07,168.08 -196.81,157.11 -97.74,-10.95 -168.08,-99.07 -157.12,-196.81zm9315.06 1288.5l-5505.03 -867.23 -229.34 2044.81 5568.45 249.06c359.69,-380.24 329.58,-1116.1 165.92,-1426.64zm-8228.1 2104.42c429.67,0 777.99,348.32 777.99,777.99 0,429.67 -348.32,777.99 -777.99,777.99 -429.67,0 -777.99,-348.32 -777.99,-777.99 0,-429.67 348.32,-777.99 777.99,-777.99zm7329.2 -152.4c429.67,0 777.99,348.32 777.99,777.99 0,429.67 -348.32,777.99 -777.99,777.99 -429.67,0 -777.99,-348.32 -777.99,-777.99 0,-429.67 348.32,-777.99 777.99,-777.99zm-5051.71 -763.99l265.53 -2242.84 -1116.45 -284.94 -309.42 2570.85 1160.34 -43.07zm-4172.82 -1600.64c107.72,-960.4 973.6,-1651.64 1934.01,-1543.93 408.26,45.78 767.82,228.65 1038.11,497.47l55.5 58.15 -304.81 2627.78 -56.35 39.39c-323.12,202.27 -714.27,300.93 -1122.53,255.14 -960.4,-107.71 -1651.64,-973.59 -1543.93,-1934z"/>
  </g>
 </g>
</svg>
