<?xml version="1.0" encoding="UTF-8"?>
<!DOCTYPE svg PUBLIC "-//W3C//DTD SVG 1.1//EN" "http://www.w3.org/Graphics/SVG/1.1/DTD/svg11.dtd">
<!-- Creator: CorelDRAW -->
<svg xmlns="http://www.w3.org/2000/svg" xml:space="preserve" width="152.4mm" height="152.4mm" version="1.1" style="shape-rendering:geometricPrecision; text-rendering:geometricPrecision; image-rendering:optimizeQuality; fill-rule:evenodd; clip-rule:evenodd"
viewBox="0 0 15240 15240"
 xmlns:xlink="http://www.w3.org/1999/xlink"
 xmlns:xodm="http://www.corel.com/coreldraw/odm/2003">
 <defs>
  <style type="text/css">
   <![CDATA[
    .fil0 {fill:none}
    .fil2 {fill:#824297}
    .fil1 {fill:#F6EE22}
   ]]>
  </style>
 </defs>
 <g id="Capa_x0020_1">
  <metadata id="CorelCorpID_0Corel-Layer"/>
  <g id="_1904149549152">
   <rect class="fil0" x="-0" y="-0" width="15240" height="15240"/>
   <ellipse id="contour" class="fil1" cx="7620.01" cy="7620" rx="7200.69" ry="7200.73"/>
   <path id="contour_2" class="fil2" d="M7620.01 364.25c4007.22,0 7255.71,3248.52 7255.71,7255.75 0,4007.22 -3248.49,7255.74 -7255.71,7255.74 -4007.22,0 -7255.7,-3248.52 -7255.7,-7255.74 0,-4007.23 3248.48,-7255.75 7255.7,-7255.75zm-0.06 985.8c3462.82,0 6270.01,2807.18 6270.01,6270 0,3462.82 -2807.19,6270.01 -6270.01,6270.01 -3462.82,0 -6270,-2807.19 -6270,-6270.01 0,-3462.82 2807.18,-6270 6270,-6270z"/>
   <path class="fil2" d="M10486.25 8613.41l-3851.16 -334.64 296.59 -2009.8 5439.94 1154.89c155.73,289.21 129.7,644.01 29.6,930.61 -219.57,-224.67 -524.09,-363.89 -860.66,-363.89 -451.92,0 -846.06,250.96 -1054.31,622.83zm-3749.71 -2540.55l-357.54 2236.38 -1126.19 -18.34 410.31 -2537.07 1073.42 319.03zm-4408.56 459.05c152.17,-948.21 1044.23,-1593.53 1992.45,-1441.36 403.07,64.69 751.35,263.15 1006.98,542.71l-434.9 2672.34c-21.52,12.09 -41.16,23.79 -59.37,35.1 -221.43,-216.56 -524.35,-350.12 -858.48,-350.12 -302.43,0 -579.29,109.44 -793.31,290.78 -568.83,-344.62 -967.07,-1040.97 -853.37,-1749.45zm796.67 -863.21c25.11,-94.44 122.03,-150.66 216.47,-125.55 94.45,25.11 150.67,122.02 125.57,216.48 -25.11,94.45 -122.01,150.66 -216.47,125.55 -94.47,-25.11 -150.66,-122.02 -125.57,-216.48zm-385.22 295.28c25.11,-94.45 122.02,-150.66 216.48,-125.56 94.45,25.11 150.66,122.03 125.56,216.48 -25.11,94.45 -122.02,150.65 -216.47,125.55 -94.47,-25.12 -150.68,-122.01 -125.57,-216.47zm277.56 393.64c25.12,-94.46 122.03,-150.66 216.48,-125.56 94.46,25.09 150.65,122.02 125.55,216.48 -25.11,94.43 -122.01,150.64 -216.47,125.54 -94.46,-25.12 -150.66,-122.01 -125.56,-216.46zm770.55 -588.71c25.09,-94.45 122.02,-150.66 216.46,-125.57 94.44,25.11 150.67,122.03 125.55,216.47 -25.11,94.45 -122.01,150.67 -216.46,125.55 -94.46,-25.09 -150.66,-122.01 -125.55,-216.45zm-391.58 272.77c25.12,-94.45 122.02,-150.67 216.48,-125.55 94.45,25.1 150.68,122.02 125.56,216.46 -25.1,94.43 -122.01,150.65 -216.47,125.56 -94.47,-25.11 -150.68,-122.03 -125.57,-216.47zm123.41 -654.5c25.11,-94.46 122.03,-150.66 216.47,-125.56 94.45,25.11 150.66,122.03 125.55,216.48 -25.11,94.45 -122.02,150.66 -216.47,125.55 -94.44,-25.11 -150.65,-122.02 -125.55,-216.47zm455.29 2903.09c512.7,0 928.33,415.62 928.33,928.32 0,512.71 -415.63,928.33 -928.33,928.33 -512.7,0 -928.33,-415.62 -928.33,-928.33 0,-512.7 415.63,-928.32 928.33,-928.32zm0 636.41c161.22,0 291.91,130.69 291.91,291.91 0,161.22 -130.69,291.91 -291.91,291.91 -161.22,0 -291.91,-130.69 -291.91,-291.91 0,-161.22 130.69,-291.91 291.91,-291.91zm7549.39 -636.41c512.71,0 928.33,415.62 928.33,928.32 0,512.71 -415.62,928.33 -928.33,928.33 -512.7,0 -928.32,-415.62 -928.32,-928.33 0,-512.7 415.62,-928.32 928.32,-928.32zm0 636.41c161.22,0 291.91,130.69 291.91,291.91 0,161.22 -130.69,291.91 -291.91,291.91 -161.22,0 -291.91,-130.69 -291.91,-291.91 0,-161.22 130.69,-291.91 291.91,-291.91z"/>
  </g>
 </g>
</svg>
