<?xml version="1.0" encoding="UTF-8"?>
<!DOCTYPE svg PUBLIC "-//W3C//DTD SVG 1.1//EN" "http://www.w3.org/Graphics/SVG/1.1/DTD/svg11.dtd">
<!-- Creator: CorelDRAW -->
<svg xmlns="http://www.w3.org/2000/svg" xml:space="preserve" width="152.4mm" height="152.4mm" version="1.1" style="shape-rendering:geometricPrecision; text-rendering:geometricPrecision; image-rendering:optimizeQuality; fill-rule:evenodd; clip-rule:evenodd"
viewBox="0 0 5046.49 5046.49"
 xmlns:xlink="http://www.w3.org/1999/xlink"
 xmlns:xodm="http://www.corel.com/coreldraw/odm/2003">
 <defs>
  <style type="text/css">
   <![CDATA[
    .fil0 {fill:none}
    .fil1 {fill:#00B0D8}
    .fil3 {fill:#E92365}
    .fil2 {fill:white}
   ]]>
  </style>
 </defs>
 <g id="Capa_x0020_1">
  <metadata id="CorelCorpID_0Corel-Layer"/>
  <g id="_1904711824464">
   <rect class="fil0" x="-0" y="-0" width="5046.49" height="5046.49"/>
   <path class="fil1" d="M1756 205.32c199.44,-29.03 416.75,-46.29 637.52,-51.64l0 -0.81c43.12,-0.77 86.33,-1.1 129.51,-0.96l0.45 0c43.18,-0.13 86.39,0.19 129.51,0.96l0 0.81c220.77,5.35 438.08,22.61 637.52,51.64 386.84,56.31 673.64,150.64 990.75,318.3 124.18,65.66 206.78,168.06 244.66,303.32 181.03,646.46 196.57,1482.07 -117.64,2216.43 -338.66,791.49 -970.73,1381.35 -1728.33,1770.8l-26.96 13.86 0 0.06 -6.3 3.18 -122.29 62.87 -1.14 0.47 -1.15 -0.47 -122.28 -62.87 -6.3 -3.18 0 -0.06 -26.96 -13.86c-757.6,-389.45 -1389.67,-979.3 -1728.32,-1770.8 -314.21,-734.36 -298.68,-1569.97 -117.64,-2216.43 37.88,-135.26 120.48,-237.67 244.66,-303.32 317.1,-167.66 603.91,-261.99 990.75,-318.3z"/>
   <path class="fil2" d="M3608.85 265.7c29.16,7.02 57.87,14.4 86.2,22.16l-158.55 889.05 20.57 0c144,0 261.82,117.81 261.82,261.82l0 1673.86c0,144 -117.81,261.82 -261.82,261.82l-2073.06 0c-144,0 -261.82,-117.81 -261.82,-261.82l0 -1673.86c0,-139.87 111.16,-255.03 249.5,-261.52l-156.77 -879.09c28.3,-8.17 56.93,-15.94 86,-23.34l160.88 902.13 1884.54 0 162.5 -911.22zm-183.72 1030.23l-11.78 66.02 87.38 15.58 13.5 -75.71c28.93,17.2 48.33,48.77 48.33,84.88 0,54.5 -44.18,98.68 -98.68,98.68 -54.5,0 -98.68,-44.18 -98.68,-98.68 0,-40.74 24.69,-75.71 59.93,-90.78zm-1842.7 -3.39l15.76 88.37 -87.38 15.58 -15.98 -89.61c-24.64,17.94 -40.66,47.01 -40.66,79.82 0,54.5 44.18,98.68 98.68,98.68 54.5,0 98.68,-44.18 98.68,-98.68 0,-44.2 -29.05,-81.6 -69.1,-94.17zm-236.71 311.24l2349.67 0c11.95,0 21.73,9.78 21.73,21.73l0 0c0,11.95 -9.78,21.73 -21.73,21.73l-2349.67 0c-11.95,0 -21.73,-9.78 -21.73,-21.73l0 -0c0,-11.95 9.78,-21.73 21.73,-21.73zm688.9 598.83c-5.62,-70.97 11.49,-133.2 51.32,-186.69 39.82,-53.49 90.8,-82.69 152.91,-87.61 62.12,-4.91 117.05,15.91 164.79,62.47 47.74,46.56 74.42,105.32 80.03,176.3l43.13 545.12c5.62,70.97 -11.49,133.2 -51.31,186.69 -39.82,53.49 -90.8,82.69 -152.91,87.61 -61.37,4.85 -116.12,-15.98 -164.23,-62.51 -48.11,-46.53 -74.98,-105.28 -80.59,-176.26l-43.13 -545.12zm183.46 552.4c2.1,27.67 12.12,50.65 30.08,68.92 17.95,18.28 38.53,26.45 61.73,24.54 23.2,-1.92 42.29,-13.37 57.26,-34.37 14.98,-21 21.42,-45.34 19.32,-73.01l-43.13 -569.05c-2.1,-27.67 -12.12,-50.64 -30.08,-68.92 -17.95,-18.28 -38.53,-26.45 -61.73,-24.54 -23.2,1.92 -42.29,13.37 -57.27,34.37 -14.98,21 -21.42,45.33 -19.32,73l43.13 569.05zm986.85 -904.42c62.16,-4.92 116.87,15.92 164.11,62.52 47.25,46.6 73.68,105.38 79.3,176.36l43.13 545.12c5.62,70.97 -11.43,133.2 -51.13,186.67 -39.7,53.48 -90.26,82.65 -151.68,87.51l-222 17.56 -83.72 -1058.18 222 -17.56zm71.04 910.08c22.94,-1.89 41.81,-13.27 56.6,-34.16 14.79,-20.88 21.14,-45.09 19.04,-72.64l-43.13 -566.39c-2.1,-27.54 -11.84,-50.43 -29.24,-68.67 -17.4,-18.24 -37.94,-26.38 -61.62,-24.44l-83.25 6.84 58.35 766.29 83.25 -6.84zm-757.92 -596.31c-5.62,-70.98 11.49,-133.2 51.32,-186.69 39.82,-53.49 90.8,-82.69 152.91,-87.61 62.11,-4.91 117.05,15.91 164.79,62.47 47.74,46.56 74.41,105.32 80.03,176.3l43.13 545.12c5.61,70.97 -11.49,133.2 -51.31,186.69 -39.82,53.49 -90.8,82.69 -152.91,87.6 -61.37,4.86 -116.12,-15.98 -164.23,-62.51 -48.11,-46.53 -74.98,-105.28 -80.59,-176.25l-43.13 -545.12zm183.46 544.93c2.1,27.78 12.12,50.85 30.08,69.19 17.95,18.35 38.53,26.56 61.73,24.64 23.2,-1.92 42.29,-13.42 57.26,-34.5 14.98,-21.08 21.42,-45.51 19.32,-73.29l-43.13 -571.29c-2.1,-27.78 -12.12,-50.84 -30.08,-69.19 -17.95,-18.35 -38.53,-26.57 -61.73,-24.64 -23.2,1.92 -42.29,13.42 -57.27,34.5 -14.98,21.08 -21.42,45.51 -19.32,73.29l43.13 571.29zm-820.88 -167.65l-90.25 7.14 -2.97 -144.23 225.45 -9.4 49.64 619.09 -77.34 6.09 -1.24 -47.06c-33.51,28.46 -106.11,47.12 -150.73,50.65 -62,4.9 -117.29,-15.89 -165.87,-62.38 -48.57,-46.49 -75.66,-105.22 -81.28,-176.2l-43.03 -543.84c-5.62,-70.97 11.91,-133.24 52.56,-186.79 40.65,-53.55 91.99,-82.78 153.99,-87.69 62.77,-4.97 118.25,15.83 166.43,62.34 75.84,73.21 67.16,111.59 74.75,207.5l-142.45 2.83c-1.85,-31.04 0.68,-66.63 -23.7,-88.88 -18.59,-16.96 -38.91,-25.32 -62.35,-23.46 -23.44,1.85 -42.74,12.85 -57.88,32.97 -15.15,20.13 -13.29,42.79 -11.2,69.29l43.03 543.84c2.1,26.47 14.22,73.68 32.33,91.16 18.1,17.48 38.91,25.32 62.34,23.46 23.44,-1.85 42.74,-12.84 57.89,-32.97 15.15,-20.13 11.3,-67.94 9.2,-94.44l-17.33 -219.02z"/>
   <path class="fil3" d="M1745.91 174.84c202.06,-29.41 422.23,-46.9 645.9,-52.32l0 -0.82c43.69,-0.78 87.46,-1.11 131.21,-0.98l0.45 0c43.75,-0.13 87.52,0.19 131.21,0.98l0 0.82c223.67,5.42 443.84,22.9 645.91,52.32 391.93,57.05 682.5,152.62 1003.78,322.49 125.81,66.52 209.5,170.27 247.88,307.31 183.42,654.96 199.15,1501.56 -119.19,2245.58 -343.11,801.91 -983.5,1399.52 -1751.06,1794.09l-27.32 14.04 0 0.06 -6.38 3.22 -123.9 63.69 -1.15 0.48 -1.16 -0.48 -123.9 -63.69 -6.38 -3.22 0 -0.06 -27.32 -14.04c-767.56,-394.57 -1407.95,-992.19 -1751.06,-1794.09 -318.35,-744.01 -302.61,-1590.61 -119.19,-2245.58 38.38,-137.04 122.07,-240.79 247.88,-307.31 321.27,-169.87 611.85,-265.44 1003.78,-322.49zm50.11 344.28c-352.01,51.24 -670.14,150.63 -944.46,312.26 -441.73,1420.81 102.36,2896.63 1671.99,3703.51 1585.97,-800.35 2150.1,-2282.7 1708.37,-3703.51 -268.22,-158.03 -578.31,-256.57 -921,-308.77 -450.54,-68.63 -1063.47,-69.2 -1514.9,-3.49z"/>
  </g>
 </g>
</svg>
