<?xml version="1.0" encoding="UTF-8"?>
<!DOCTYPE svg PUBLIC "-//W3C//DTD SVG 1.1//EN" "http://www.w3.org/Graphics/SVG/1.1/DTD/svg11.dtd">
<!-- Creator: CorelDRAW -->
<svg xmlns="http://www.w3.org/2000/svg" xml:space="preserve" width="152.4mm" height="152.4mm" version="1.1" style="shape-rendering:geometricPrecision; text-rendering:geometricPrecision; image-rendering:optimizeQuality; fill-rule:evenodd; clip-rule:evenodd"
viewBox="0 0 15240 15240"
 xmlns:xlink="http://www.w3.org/1999/xlink"
 xmlns:xodm="http://www.corel.com/coreldraw/odm/2003">
 <defs>
  <style type="text/css">
   <![CDATA[
    .fil0 {fill:none}
    .fil1 {fill:#00B0D8}
    .fil3 {fill:#E92365}
    .fil2 {fill:white}
   ]]>
  </style>
 </defs>
 <g id="Capa_x0020_1">
  <metadata id="CorelCorpID_0Corel-Layer"/>
  <g id="_1904990192560">
   <rect class="fil0" x="-0" y="-0" width="15240" height="15240"/>
   <ellipse id="contour" class="fil1" cx="7620.01" cy="7620" rx="7200.69" ry="7200.73"/>
   <path id="contour_16" class="fil2" d="M11205.84 1374.25c89.82,51.68 178.24,105.5 265.57,160.9l-544.79 3054.92 67.13 0c470,0 854.52,384.54 854.52,854.53l0 5463.25c0,469.98 -384.52,854.52 -854.52,854.52l-6766.15 0c-469.98,0 -854.52,-384.54 -854.52,-854.52l0 -5463.25c0,-456.51 362.81,-832.37 814.32,-853.55l-531.87 -2982.48c86.9,-57.43 175.04,-113.12 264.51,-166.83l561.44 3148.33 6150.88 0 573.48 -3215.82zm-642.75 3604.26l-38.43 215.48 285.19 50.86 44.06 -247.09c94.44,56.15 157.74,159.19 157.74,277.03 0,177.88 -144.19,322.08 -322.08,322.08 -177.88,0 -322.08,-144.2 -322.08,-322.08 0,-132.98 80.6,-247.13 195.6,-296.28zm-6014.31 -11.08l51.44 288.45 -285.19 50.86 -52.16 -292.47c-80.42,58.56 -132.7,153.42 -132.7,260.52 0,177.88 144.2,322.08 322.08,322.08 177.89,0 322.09,-144.2 322.09,-322.08 0,-144.25 -94.84,-266.35 -225.56,-307.36zm-772.59 1015.85l7668.97 0c39.03,0 70.94,31.92 70.94,70.94l0 0.01c0,39.01 -31.91,70.92 -70.94,70.92l-7668.97 0c-39.02,0 -70.93,-31.91 -70.93,-70.92l0 -0.01c0,-39.02 31.91,-70.94 70.93,-70.94zm2248.47 1954.51c-18.33,-231.64 37.51,-434.76 167.49,-609.32 129.97,-174.57 296.35,-269.88 499.09,-285.94 202.74,-16.03 382.02,51.94 537.84,203.9 155.81,151.96 242.88,343.76 261.2,575.4l140.77 1779.2c18.33,231.64 -37.5,434.75 -167.47,609.32 -129.98,174.58 -296.35,269.9 -499.08,285.94 -200.31,15.84 -379,-52.17 -536.02,-204.04 -157.04,-151.86 -244.72,-343.63 -263.05,-575.27l-140.77 -1779.19zm598.77 1802.95c6.85,90.31 39.57,165.3 98.17,224.95 58.6,59.66 125.77,86.35 201.49,80.11 75.71,-6.26 138.02,-43.64 186.9,-112.19 48.88,-68.52 69.9,-147.97 63.05,-238.28l-140.76 -1857.28c-6.84,-90.32 -39.56,-165.3 -98.17,-224.96 -58.59,-59.65 -125.75,-86.34 -201.47,-80.11 -75.72,6.26 -138.03,43.65 -186.92,112.19 -48.87,68.55 -69.9,147.96 -63.04,238.27l140.75 1857.3zm3220.95 -2951.88c202.88,-16.05 381.43,51.97 535.64,204.05 154.22,152.09 240.49,343.98 258.8,575.61l140.78 1779.2c18.33,231.64 -37.3,434.74 -166.89,609.27 -129.59,174.54 -294.61,269.75 -495.08,285.6l-724.59 57.34 -273.24 -3453.74 724.58 -57.33zm231.85 2970.38c74.86,-6.17 136.46,-43.32 184.74,-111.49 48.26,-68.17 68.99,-147.19 62.14,-237.07l-140.77 -1848.62c-6.84,-89.9 -38.66,-164.61 -95.45,-224.13 -56.78,-59.53 -123.83,-86.12 -201.11,-79.76l-271.73 22.33 190.44 2501.07 271.74 -22.33zm-2473.74 -1946.28c-18.33,-231.65 37.49,-434.75 167.48,-609.32 129.98,-174.58 296.35,-269.88 499.1,-285.93 202.73,-16.04 382.02,51.92 537.83,203.89 155.8,151.96 242.88,343.75 261.2,575.4l140.77 1779.2c18.32,231.64 -37.51,434.74 -167.47,609.32 -129.98,174.59 -296.35,269.88 -499.08,285.92 -200.3,15.86 -378.99,-52.14 -536.02,-204.02 -157.03,-151.87 -244.73,-343.63 -263.04,-575.26l-140.77 -1779.2zm598.77 1778.58c6.84,90.66 39.56,165.95 98.17,225.84 58.6,59.89 125.75,86.69 201.48,80.42 75.72,-6.28 138.01,-43.81 186.9,-112.62 48.88,-68.81 69.91,-148.55 63.06,-239.21l-140.76 -1864.63c-6.86,-90.66 -39.57,-165.93 -98.17,-225.82 -58.6,-59.89 -125.75,-86.7 -201.48,-80.41 -75.73,6.26 -138.02,43.8 -186.91,112.61 -48.87,68.8 -69.9,148.54 -63.05,239.21l140.76 1864.61zm-2679.23 -547.19l-294.57 23.3 -9.71 -470.73 735.84 -30.67 162.02 2020.61 -252.44 19.89 -4.05 -153.61c-109.38,92.9 -346.34,153.79 -491.96,165.31 -202.37,15.99 -382.84,-51.87 -541.36,-203.62 -158.53,-151.73 -246.95,-343.42 -265.28,-575.08l-140.43 -1775.01c-18.33,-231.65 38.85,-434.86 171.56,-609.65 132.68,-174.78 300.22,-270.18 502.6,-286.2 204.86,-16.21 385.96,51.67 543.21,203.47 247.54,238.96 219.22,364.21 243.99,677.24l-464.93 9.25c-6.05,-101.32 2.19,-217.47 -77.37,-290.09 -60.67,-55.36 -126.98,-82.62 -203.5,-76.56 -76.51,6.05 -139.49,41.93 -188.91,107.61 -49.43,65.69 -43.39,139.64 -36.55,226.16l140.45 1775.01c6.84,86.41 46.4,240.47 105.5,297.52 59.09,57.06 126.99,82.63 203.48,76.58 76.52,-6.05 139.5,-41.92 188.94,-107.62 49.44,-65.7 36.87,-221.73 30.03,-308.25l-56.56 -714.86z"/>
   <path id="contour_17" class="fil3" d="M7620.01 364.25c4007.22,0 7255.71,3248.52 7255.71,7255.75 0,4007.22 -3248.49,7255.74 -7255.71,7255.74 -4007.22,0 -7255.7,-3248.52 -7255.7,-7255.74 0,-4007.23 3248.48,-7255.75 7255.7,-7255.75zm-0.06 985.8c3462.82,0 6270.01,2807.18 6270.01,6270 0,3462.82 -2807.19,6270.01 -6270.01,6270.01 -3462.82,0 -6270,-2807.19 -6270,-6270.01 0,-3462.82 2807.18,-6270 6270,-6270z"/>
  </g>
 </g>
</svg>
