<?xml version="1.0" encoding="UTF-8"?>
<!DOCTYPE svg PUBLIC "-//W3C//DTD SVG 1.1//EN" "http://www.w3.org/Graphics/SVG/1.1/DTD/svg11.dtd">
<!-- Creator: CorelDRAW -->
<svg xmlns="http://www.w3.org/2000/svg" xml:space="preserve" width="152.4mm" height="152.4mm" version="1.1" style="shape-rendering:geometricPrecision; text-rendering:geometricPrecision; image-rendering:optimizeQuality; fill-rule:evenodd; clip-rule:evenodd"
viewBox="0 0 4907.89 4907.89"
 xmlns:xlink="http://www.w3.org/1999/xlink"
 xmlns:xodm="http://www.corel.com/coreldraw/odm/2003">
 <defs>
  <style type="text/css">
   <![CDATA[
    .fil0 {fill:none}
    .fil4 {fill:#24BCEE}
    .fil2 {fill:#26AAE1}
    .fil3 {fill:#C4E7FA}
    .fil1 {fill:white}
   ]]>
  </style>
 </defs>
 <g id="Capa_x0020_1">
  <metadata id="CorelCorpID_0Corel-Layer"/>
  <g id="_2483890184192">
   <rect class="fil0" x="-0" y="-0" width="4907.89" height="4907.89"/>
   <path class="fil1" d="M1707.77 199.68c193.96,-28.23 405.31,-45.01 620.01,-50.22l0 -0.79c41.94,-0.75 83.96,-1.07 125.95,-0.94l0.43 0c41.99,-0.13 84.01,0.18 125.95,0.94l0 0.79c214.7,5.2 426.05,21.99 620.01,50.22 376.22,54.76 655.14,146.5 963.54,309.56 120.77,63.85 201.1,163.45 237.94,294.99 176.06,628.71 191.17,1441.37 -114.41,2155.55 -329.36,769.76 -944.07,1343.41 -1680.86,1722.16l-26.22 13.48 0 0.06 -6.13 3.09 -118.93 61.14 -1.1 0.46 -1.11 -0.46 -118.93 -61.14 -6.13 -3.09 0 -0.06 -26.22 -13.48c-736.79,-378.75 -1351.5,-952.41 -1680.86,-1722.16 -305.58,-714.19 -290.47,-1526.85 -114.41,-2155.55 36.84,-131.55 117.17,-231.14 237.94,-294.99 308.4,-163.06 587.32,-254.8 963.54,-309.56z"/>
   <path class="fil2" d="M1697.96 170.03c196.51,-28.6 410.64,-45.61 628.17,-50.88l0 -0.8c42.49,-0.76 85.06,-1.08 127.61,-0.95l0.44 0c42.55,-0.13 85.12,0.19 127.61,0.95l0 0.8c217.53,5.27 431.65,22.28 628.17,50.88 381.16,55.48 663.76,148.43 976.21,313.63 122.35,64.69 203.75,165.59 241.07,298.87 178.38,636.98 193.68,1460.32 -115.92,2183.9 -333.69,779.88 -956.49,1361.09 -1702.97,1744.82l-26.57 13.65 0 0.06 -6.21 3.13 -120.49 61.94 -1.12 0.47 -1.13 -0.47 -120.49 -61.94 -6.21 -3.13 0 -0.06 -26.57 -13.65c-746.48,-383.73 -1369.28,-964.94 -1702.96,-1744.82 -309.6,-723.58 -294.3,-1546.93 -115.92,-2183.9 37.32,-133.28 118.72,-234.18 241.07,-298.87 312.45,-165.21 595.05,-258.15 976.21,-313.63zm48.73 334.82c-342.34,49.83 -651.73,146.49 -918.52,303.69 -429.6,1381.79 99.55,2817.08 1626.07,3601.79 1542.41,-778.36 2091.05,-2220.01 1661.45,-3601.79 -260.85,-153.69 -562.42,-249.53 -895.71,-300.29 -438.16,-66.74 -1034.26,-67.3 -1473.29,-3.39z"/>
   <path class="fil3" d="M1169.06 2174.48l987.21 -1253.33c13.13,-16.67 31.58,-25.39 52.8,-24.93 21.22,0.45 39.28,9.94 51.69,27.16l270.96 375.89 207.98 -99.79c18.42,-8.84 40.17,-2.93 51.6,14.01l466.01 691.03 199.41 -137.06c8.14,-5.59 17.35,-7.19 26.9,-4.67 9.55,2.52 16.77,8.47 21.07,17.35l191.25 394.34 -2526.89 0z"/>
   <path class="fil2" d="M874.75 2174.48c33.62,203.65 91.2,404.26 174.26,598.38 277.62,648.84 792.95,1133.7 1405.88,1464.08 619.41,-327.8 1143.7,-812.43 1428.75,-1462.92 85.27,-194.59 144.89,-395.53 180.18,-599.54l-3189.08 0z"/>
   <polygon class="fil4" points="1168.29,2174.48 1335.47,2624.9 1685.18,2649.59 1923.81,2884.1 2261.18,2908.79 2442.2,3089.81 2940.03,2830.61 3594.2,2797.7 3700.1,2183.03 3701.77,2174.48 "/>
  </g>
 </g>
</svg>
