<?xml version="1.0" encoding="UTF-8"?>
<!DOCTYPE svg PUBLIC "-//W3C//DTD SVG 1.1//EN" "http://www.w3.org/Graphics/SVG/1.1/DTD/svg11.dtd">
<!-- Creator: CorelDRAW -->
<svg xmlns="http://www.w3.org/2000/svg" xml:space="preserve" width="152.4mm" height="152.4mm" version="1.1" style="shape-rendering:geometricPrecision; text-rendering:geometricPrecision; image-rendering:optimizeQuality; fill-rule:evenodd; clip-rule:evenodd"
viewBox="0 0 15240 15240"
 xmlns:xlink="http://www.w3.org/1999/xlink"
 xmlns:xodm="http://www.corel.com/coreldraw/odm/2003">
 <defs>
  <style type="text/css">
   <![CDATA[
    .fil0 {fill:none}
    .fil2 {fill:#00AEEF}
    .fil4 {fill:#00BDF2}
    .fil3 {fill:#C3E9FC}
    .fil1 {fill:white}
   ]]>
  </style>
 </defs>
 <g id="Capa_x0020_1">
  <metadata id="CorelCorpID_0Corel-Layer"/>
  <g id="_2483864743344">
   <rect class="fil0" x="-0" y="-0" width="15240" height="15240"/>
   <ellipse id="contour" class="fil1" cx="7620.01" cy="7620" rx="7200.69" ry="7200.73"/>
   <path id="contour_3" class="fil2" d="M7620.01 364.25c4007.22,0 7255.71,3248.52 7255.71,7255.75 0,4007.22 -3248.49,7255.74 -7255.71,7255.74 -4007.22,0 -7255.7,-3248.52 -7255.7,-7255.74 0,-4007.23 3248.48,-7255.75 7255.7,-7255.75zm-0.06 985.8c3462.82,0 6270.01,2807.18 6270.01,6270 0,3462.82 -2807.19,6270.01 -6270.01,6270.01 -3462.82,0 -6270,-2807.19 -6270,-6270.01 0,-3462.82 2807.18,-6270 6270,-6270z"/>
   <path class="fil3" d="M3051.75 7891.75l3526.01 -4541.68c46.9,-60.42 138.21,-142.79 213.99,-141.16 75.77,1.63 140.3,36.06 184.62,98.41l967.79 1362.11 742.86 -361.62c65.8,-32.04 144.5,-11.26 184.3,50.76l1639.06 2554.89 712.22 -496.66c29.06,-20.27 61.97,-26.05 96.07,-16.9 34.1,9.14 59.88,30.69 75.27,62.88l683.08 1428.97 -9025.27 0z"/>
   <path class="fil2" d="M2000.55 7891.75c-31.49,4.12 -62.71,8.3 -93.97,12.46 148.13,3027.31 2649.41,5436.3 5713.43,5436.3 3068.21,0 5572.01,-2415.62 5713.9,-5448.76l-11333.36 0z"/>
   <polygon class="fil4" points="3048.99,7891.75 3646.08,9523.94 4895.15,9613.4 5747.46,10463.21 6952.45,10552.66 7599.02,11208.65 9377.11,10269.38 11713.61,10150.12 12091.84,7922.73 12097.82,7891.75 "/>
  </g>
 </g>
</svg>
