<?xml version="1.0" encoding="UTF-8"?>
<!DOCTYPE svg PUBLIC "-//W3C//DTD SVG 1.1//EN" "http://www.w3.org/Graphics/SVG/1.1/DTD/svg11.dtd">
<!-- Creator: CorelDRAW -->
<svg xmlns="http://www.w3.org/2000/svg" xml:space="preserve" width="152.4mm" height="152.4mm" version="1.1" style="shape-rendering:geometricPrecision; text-rendering:geometricPrecision; image-rendering:optimizeQuality; fill-rule:evenodd; clip-rule:evenodd"
viewBox="0 0 15240 15240"
 xmlns:xlink="http://www.w3.org/1999/xlink"
 xmlns:xodm="http://www.corel.com/coreldraw/odm/2003">
 <defs>
  <style type="text/css">
   <![CDATA[
    .fil0 {fill:none}
    .fil1 {fill:#EA232A}
    .fil2 {fill:#F1D415}
   ]]>
  </style>
 </defs>
 <g id="Capa_x0020_1">
  <metadata id="CorelCorpID_0Corel-Layer"/>
  <g id="_2981581905072">
   <rect class="fil0" x="-0" y="-0" width="15240" height="15240"/>
   <ellipse id="contour" class="fil1" cx="7620" cy="7620" rx="7200.69" ry="7200.73"/>
   <path id="contour_34" class="fil2" d="M7620.01 364.25c4007.22,0 7255.71,3248.52 7255.71,7255.75 0,4007.22 -3248.49,7255.74 -7255.71,7255.74 -4007.22,0 -7255.7,-3248.52 -7255.7,-7255.74 0,-4007.23 3248.48,-7255.75 7255.7,-7255.75zm-3841.39 4762.43c-49.01,-169.13 48.37,-345.99 217.5,-395 169.13,-49.01 345.99,48.37 395,217.5l88.29 305.07c1235.98,-828.68 2310.67,-1257.65 3250.4,-1352.2 437.23,-43.98 1540.69,-69.14 1725.95,434.5l225.41 549.45 1152.29 -362.52c56.87,-17.89 117.69,12.07 138.17,68.05l1024.4 2799.99c20.92,57.19 2.98,118.8 -45.4,155.79 -430.54,329.24 -918.45,552.75 -1438.24,719.89 -328.73,108.37 -608.86,65.22 -624.35,-58.93 -9.82,-78.72 139.66,-110.7 313.02,-252.4 348.61,-226.76 232.68,-566.07 -250.34,-633.41 -713.69,-99.5 -3359.82,925.06 -4419.62,1565.67l1437.92 4968.43c213.98,22.07 431.12,33.5 650.93,33.5 3462.82,0 6270.01,-2807.19 6270.01,-6270.01 0,-3462.82 -2807.19,-6270 -6270.01,-6270 -3462.82,0 -6270,2807.18 -6270,6270 0,3000.28 2107.49,5507.93 4922.76,6124.42l-2494.09 -8617.79zm3141.18 -298.43c-19.79,-23.07 -49.58,-32.06 -79.3,-23.94 -29.71,8.12 -50.8,31 -56.11,60.93l-149.32 840.46 -795.78 327.76c-28.23,11.63 -46.17,36.56 -47.91,66.6 -1.75,30.06 13.2,56.59 39.93,70.88l757.67 405.06 65.35 854.33c2.3,30.15 20.9,54.6 49.59,65.15 28.68,10.54 59.17,4.14 81.26,-17.04l620.79 -595.62 831.98 201.67c29.74,7.22 59.31,-2.59 78.8,-26.12 19.49,-23.53 23.29,-54.02 10.13,-81.25l-373.24 -772.07 449.91 -729.98c15.91,-25.81 15.47,-56.26 -1.17,-81.35 -16.63,-25.1 -44.68,-37.61 -74.95,-33.44l-850.24 117.26 -557.39 -649.29z"/>
  </g>
 </g>
</svg>
