<?xml version="1.0" encoding="UTF-8"?>
<!DOCTYPE svg PUBLIC "-//W3C//DTD SVG 1.1//EN" "http://www.w3.org/Graphics/SVG/1.1/DTD/svg11.dtd">
<!-- Creator: CorelDRAW -->
<svg xmlns="http://www.w3.org/2000/svg" xml:space="preserve" width="152.4mm" height="152.4mm" version="1.1" style="shape-rendering:geometricPrecision; text-rendering:geometricPrecision; image-rendering:optimizeQuality; fill-rule:evenodd; clip-rule:evenodd"
viewBox="0 0 15240 15240"
 xmlns:xlink="http://www.w3.org/1999/xlink"
 xmlns:xodm="http://www.corel.com/coreldraw/odm/2003">
 <defs>
  <style type="text/css">
   <![CDATA[
    .fil0 {fill:none}
    .fil3 {fill:#008840}
    .fil2 {fill:#008840}
    .fil1 {fill:white}
   ]]>
  </style>
 </defs>
 <g id="Capa_x0020_1">
  <metadata id="CorelCorpID_0Corel-Layer"/>
  <g id="_2982672191664">
   <rect class="fil0" x="-0" y="-0" width="15240" height="15240"/>
   <path class="fil1" d="M5302.97 620.06c602.29,-87.67 1258.56,-139.78 1925.26,-155.94l0 -2.44c130.23,-2.33 260.7,-3.31 391.1,-2.91l1.35 0c130.4,-0.4 260.88,0.57 391.1,2.91l0 2.44c666.7,16.16 1322.97,68.27 1925.26,155.94 1168.23,170.04 2034.35,454.91 2991.98,961.24 375,198.28 624.47,507.53 738.86,916.01 546.7,1952.26 593.62,4475.73 -355.27,6693.43 -1022.72,2390.25 -2931.53,4171.57 -5219.41,5347.67l-81.42 41.85 0 0.18 -19.03 9.6 -369.3 189.85 -3.43 1.43 -3.46 -1.43 -369.29 -189.85 -19.04 -9.6 0 -0.18 -81.42 -41.85c-2287.88,-1176.1 -4196.69,-2957.42 -5219.4,-5347.67 -948.9,-2217.7 -901.98,-4741.17 -355.27,-6693.43 114.39,-408.48 363.85,-717.73 738.85,-916.01 957.63,-506.33 1823.76,-791.2 2991.98,-961.24z"/>
   <path class="fil2" d="M5272.5 527.99c610.21,-88.82 1275.11,-141.62 1950.58,-157.99l0 -2.47c131.94,-2.36 264.13,-3.35 396.24,-2.95l1.37 0c132.12,-0.4 264.31,0.58 396.24,2.95l0 2.47c675.47,16.37 1340.37,69.17 1950.59,157.99 1183.59,172.28 2061.1,460.89 3031.33,973.89 379.93,200.88 632.68,514.2 748.57,928.05 553.9,1977.94 601.43,4534.6 -359.94,6781.46 -1036.17,2421.7 -2970.08,4226.45 -5288.06,5418.02l-82.49 42.4 0 0.18 -19.28 9.73 -374.16 192.34 -3.47 1.45 -3.5 -1.45 -374.16 -192.34 -19.28 -9.73 0 -0.18 -82.49 -42.4c-2317.98,-1191.57 -4251.89,-2996.32 -5288.05,-5418.02 -961.38,-2246.86 -913.85,-4803.52 -359.95,-6781.46 115.9,-413.85 368.64,-727.17 748.58,-928.05 970.22,-513 1847.74,-801.61 3031.33,-973.89zm151.33 1039.69c-1063.03,154.73 -2023.76,454.89 -2852.19,943.01 -1334,4290.73 309.12,8747.6 5049.28,11184.3 4789.49,-2416.98 6493.14,-6893.57 5159.14,-11184.3 -810,-477.25 -1746.44,-774.83 -2781.36,-932.47 -1360.59,-207.25 -3211.6,-208.97 -4574.87,-10.54z"/>
   <ellipse id="contour" class="fil1" cx="7622.18" cy="6640.16" rx="4246.68" ry="4246.7"/>
   <path id="contour_136" class="fil3" d="M7677.16 2394.16c223.97,2.88 443.77,22.98 658.11,59.23l87.17 128.76c351.53,489.34 680.29,1068.04 938.66,1674.81 374.73,-176.42 750.38,-408.5 1126.5,-695.62l31.05 -26.4c115.75,108 225.5,222.36 328.61,342.59l-76.16 55.11c-411.65,314.24 -824.72,567.75 -1238.74,759.84 204.71,567.9 341.34,1150.57 373.57,1702.02l1955.68 0c4.64,81.32 7.25,163.18 7.25,245.66 0,74.04 -1.93,147.63 -5.67,220.74l-1956 0c-29.58,545.23 -165.73,1127.97 -370.58,1692.77 411.39,191.61 820.44,447.59 1226.67,768.92l88.66 74.68c-101.96,119.32 -210.42,232.88 -324.81,340.23l-52.84 -49.1c-369.16,-292.01 -739.35,-525.12 -1110.14,-700.19 -296.81,688.33 -686.7,1330.29 -1095.19,1816.02l-38.11 39.03c-198.8,28.55 -401.97,43.6 -608.67,43.6 -208.44,0 -413.28,-15.29 -613.68,-44.3l-34.52 -38.33c-402.61,-478.74 -787.14,-1109.25 -1082.31,-1786.33 -366.7,174.98 -734.28,403.22 -1102.29,684.15l-53.14 53.15c-115.93,-107.45 -225.99,-221.16 -329.36,-340.83l99 -83.61c402.58,-307.32 806.54,-556.55 1211.41,-747.07 -210.96,-574.14 -351.44,-1167.9 -381.54,-1722.79l-1954.58 0c-3.74,-73.11 -5.67,-146.7 -5.67,-220.74 0,-82.48 2.61,-164.34 7.25,-245.66l1954.26 0c32.17,-550.54 168.4,-1132.19 372.54,-1699.2 -400.99,-189.96 -799.77,-441.19 -1195.85,-754.5l-105.21 -76.74c103.93,-120.22 214.68,-234.37 331.31,-342.23l62.89 53.17c358.46,283.55 717.91,511.56 1077.93,684.82 258.54,-607.81 587.8,-1187.56 939.88,-1677.67l105.34 -131.54c194.2,-32.05 392.8,-51.07 594.93,-55.87l-108.46 155.09 400.13 0c-41.34,-51.58 -85.68,-103.53 -135.28,-155.67zm1255.69 6416.65c-358.09,-125.55 -716.57,-197.23 -1075.06,-215.81l0 1962.17 54.51 -52.9c378.99,-450.66 742.09,-1049 1020.55,-1693.46zm-1541.46 -210.06c-355.39,27.16 -712.15,106.1 -1069.9,236.3 276.94,634.45 635.31,1222.68 1009.15,1667.22l60.75 72.11 0 -1975.63zm-1243.52 -197.36c413.89,-151.86 828.55,-242.19 1243.52,-270.21l0 -1272.28 -1588.55 0c29.79,493.08 156.19,1024.18 345.03,1542.49zm1709.92 -275.46c417.47,18.97 833.32,101.56 1247.03,248.55 183.44,-509.77 306,-1031.03 335.27,-1515.58l-1582.3 0 0 1267.03zm0 -5520.28l0 2056.97c355.87,-24.48 713.15,-100.99 1071.42,-228.87 -244.59,-574.46 -554.62,-1120.63 -885.39,-1581.08 -62.9,-80.63 -121.61,-163.23 -186.03,-247.02zm1241.81 2263.09c-413.33,148.74 -827.43,236.12 -1241.81,261.31l0 1262.45 1580.79 0c-32.02,-488.57 -155.36,-1010.01 -338.98,-1523.76zm-1394.72 5834.83l-204.67 0 92.06 109.29 112.61 -109.29zm-1393.39 -6264.6c359.68,129.42 719.78,204.51 1079.9,225.93l0 -2087.15 -192.28 274.92c-331.77,461.85 -642.68,1009.94 -887.62,1586.3zm1079.9 693.08c-418.46,-21.85 -835.26,-107.61 -1249.9,-258.12 -182.6,512.07 -305.22,1031.65 -337.14,1518.57l1587.04 0 0 -1260.45z"/>
   <path id="contour_137" class="fil3" d="M7622.18 2393.46c2345.38,0 4246.68,1901.32 4246.68,4246.7 0,2345.38 -1901.3,4246.7 -4246.68,4246.7 -2345.38,0 -4246.68,-1901.32 -4246.68,-4246.7 0,-2345.38 1901.3,-4246.7 4246.68,-4246.7zm-0.04 576.98c2026.75,0 3669.77,1643.01 3669.77,3669.75 0,2026.75 -1643.02,3669.77 -3669.77,3669.77 -2026.75,0 -3669.76,-1643.02 -3669.76,-3669.77 0,-2026.74 1643.01,-3669.75 3669.76,-3669.75z"/>
  </g>
 </g>
</svg>
