<?xml version="1.0" encoding="UTF-8"?>
<!DOCTYPE svg PUBLIC "-//W3C//DTD SVG 1.1//EN" "http://www.w3.org/Graphics/SVG/1.1/DTD/svg11.dtd">
<!-- Creator: CorelDRAW -->
<svg xmlns="http://www.w3.org/2000/svg" xml:space="preserve" width="152.4mm" height="152.4mm" version="1.1" style="shape-rendering:geometricPrecision; text-rendering:geometricPrecision; image-rendering:optimizeQuality; fill-rule:evenodd; clip-rule:evenodd"
viewBox="0 0 15240 15240"
 xmlns:xlink="http://www.w3.org/1999/xlink"
 xmlns:xodm="http://www.corel.com/coreldraw/odm/2003">
 <defs>
  <style type="text/css">
   <![CDATA[
    .fil0 {fill:none}
    .fil2 {fill:#008840}
    .fil1 {fill:white}
   ]]>
  </style>
 </defs>
 <g id="Capa_x0020_1">
  <metadata id="CorelCorpID_0Corel-Layer"/>
  <g id="_2981993118128">
   <rect class="fil0" x="-0" y="-0" width="15240" height="15240"/>
   <ellipse id="contour" class="fil1" cx="7620.01" cy="7620" rx="7200.69" ry="7200.73"/>
   <path id="contour_77" class="fil2" d="M7713.95 365.44c382.67,4.92 758.21,39.27 1124.43,101.2l148.92 219.99c600.61,836.08 1162.33,1824.81 1603.76,2861.52 640.25,-301.42 1282.08,-697.94 1924.69,-1188.5l53.05 -45.12c197.78,184.54 385.29,379.92 561.46,585.35l-130.13 94.15c-703.32,536.9 -1409.08,970.04 -2116.46,1298.24 349.76,970.28 583.21,1965.81 638.26,2907.99l3341.41 0c7.93,138.94 12.38,278.81 12.38,419.74 0,126.5 -3.29,252.23 -9.68,377.14l-3341.95 0c-50.53,931.55 -283.15,1927.21 -633.16,2892.19 702.88,327.38 1401.78,764.75 2095.84,1313.76l151.48 127.59c-174.2,203.87 -359.51,397.89 -554.96,581.3l-90.28 -83.89c-630.72,-498.91 -1263.22,-897.2 -1896.74,-1196.31 -507.12,1176.05 -1173.26,2272.87 -1871.19,3102.77l-65.12 66.69c-339.66,48.78 -686.78,74.5 -1039.95,74.5 -356.13,0 -706.11,-26.13 -1048.51,-75.7l-58.98 -65.49c-687.88,-817.95 -1344.87,-1895.21 -1849.18,-3052.04 -626.54,298.96 -1254.56,688.91 -1883.33,1168.91l-90.79 90.8c-198.08,-183.58 -386.13,-377.86 -562.73,-582.32l169.14 -142.86c687.84,-525.08 1378.02,-950.9 2069.76,-1276.41 -360.44,-980.95 -600.45,-1995.43 -651.88,-2943.49l-3339.52 0c-6.39,-124.91 -9.68,-250.64 -9.68,-377.14 0,-140.93 4.46,-280.79 12.38,-419.74l3338.98 0c54.96,-940.62 287.71,-1934.41 636.51,-2903.17 -685.13,-324.57 -1366.47,-753.81 -2043.19,-1289.11l-179.75 -131.13c177.57,-205.4 366.79,-400.43 566.05,-584.72l107.46 90.85c612.45,484.46 1226.59,874.03 1841.7,1170.06 441.74,-1038.49 1004.29,-2029.02 1605.85,-2866.41l179.98 -224.73c331.8,-54.77 671.12,-87.26 1016.47,-95.46l-185.31 264.97 683.65 0c-70.64,-88.12 -146.39,-176.88 -231.14,-265.97zm2145.42 10963.23c-611.81,-214.5 -1224.3,-336.98 -1836.8,-368.71l0 3352.48 93.13 -90.39c647.53,-769.98 1267.9,-1792.28 1743.67,-2893.38zm-2633.68 -358.89c-607.2,46.4 -1216.74,181.28 -1827.99,403.73 473.17,1083.99 1085.47,2089.02 1724.2,2848.54l103.79 123.21 0 -3375.48zm-2124.62 -337.2c707.15,-259.47 1415.63,-413.8 2124.62,-461.68l0 -2173.76 -2714.12 0c50.89,842.46 266.85,1749.87 589.5,2635.44zm2921.5 -470.65c713.27,32.42 1423.78,173.53 2130.62,424.66 313.42,-870.96 522.83,-1761.56 572.84,-2589.45l-2703.46 0 0 2164.79zm0 -9431.73l0 3514.46c608.03,-41.83 1218.46,-172.54 1830.59,-391.04 -417.9,-981.49 -947.6,-1914.66 -1512.74,-2701.37 -107.48,-137.75 -207.78,-278.89 -317.85,-422.05zm2121.71 3866.63c-706.2,254.13 -1413.72,403.43 -2121.71,446.47l0 2156.96 2700.88 0c-54.71,-834.75 -265.45,-1725.65 -579.17,-2603.43zm-2382.96 9969.16l-349.7 0 157.3 186.73 192.4 -186.73zm-2380.69 -10703.44c614.53,221.11 1229.78,349.41 1845.06,386l0 -3566.02 -328.51 469.72c-566.86,789.1 -1098.07,1725.54 -1516.55,2710.3zm1845.06 1184.16c-714.95,-37.33 -1427.09,-183.85 -2135.53,-441.01 -311.97,874.9 -521.48,1762.63 -576.01,2594.56l2711.54 0 0 -2153.55z"/>
   <path id="contour_78" class="fil2" d="M7620.01 364.25c4007.22,0 7255.71,3248.52 7255.71,7255.75 0,4007.22 -3248.49,7255.74 -7255.71,7255.74 -4007.22,0 -7255.7,-3248.52 -7255.7,-7255.74 0,-4007.23 3248.48,-7255.75 7255.7,-7255.75zm-0.06 985.8c3462.82,0 6270.01,2807.18 6270.01,6270 0,3462.82 -2807.19,6270.01 -6270.01,6270.01 -3462.82,0 -6270,-2807.19 -6270,-6270.01 0,-3462.82 2807.18,-6270 6270,-6270z"/>
  </g>
 </g>
</svg>
