<?xml version="1.0" encoding="UTF-8"?>
<!DOCTYPE svg PUBLIC "-//W3C//DTD SVG 1.1//EN" "http://www.w3.org/Graphics/SVG/1.1/DTD/svg11.dtd">
<!-- Creator: CorelDRAW -->
<svg xmlns="http://www.w3.org/2000/svg" xml:space="preserve" width="152.4mm" height="152.4mm" version="1.1" style="shape-rendering:geometricPrecision; text-rendering:geometricPrecision; image-rendering:optimizeQuality; fill-rule:evenodd; clip-rule:evenodd"
viewBox="0 0 15240 15240"
 xmlns:xlink="http://www.w3.org/1999/xlink"
 xmlns:xodm="http://www.corel.com/coreldraw/odm/2003">
 <defs>
  <style type="text/css">
   <![CDATA[
    .fil0 {fill:none}
    .fil2 {fill:#3BB34A}
    .fil5 {fill:#3BB34A}
    .fil1 {fill:#C8E9F0}
    .fil4 {fill:#C8E9F0}
    .fil3 {fill:#3BB34A;fill-rule:nonzero}
    .fil6 {fill:#3BB34A;fill-rule:nonzero}
   ]]>
  </style>
 </defs>
 <g id="Capa_x0020_1">
  <metadata id="CorelCorpID_0Corel-Layer"/>
  <g id="_2982033242080">
   <rect class="fil0" x="-0" y="-0" width="15240" height="15240"/>
   <ellipse id="contour" class="fil1" cx="7620.01" cy="7620" rx="7200.69" ry="7200.73"/>
   <path id="contour_140" class="fil2" d="M7620.01 364.25c4007.22,0 7255.71,3248.52 7255.71,7255.75 0,4007.22 -3248.49,7255.74 -7255.71,7255.74 -4007.22,0 -7255.7,-3248.52 -7255.7,-7255.74 0,-4007.23 3248.48,-7255.75 7255.7,-7255.75zm-0.06 985.8c3462.82,0 6270.01,2807.18 6270.01,6270 0,3462.82 -2807.19,6270.01 -6270.01,6270.01 -3462.82,0 -6270,-2807.19 -6270,-6270.01 0,-3462.82 2807.18,-6270 6270,-6270z"/>
   <path class="fil3" d="M4574.65 3687.1c14.7,-128.77 131.01,-221.24 259.78,-206.54 128.77,14.7 221.24,131.01 206.54,259.78l-53.1 451.23 1123.8 -7.03 53.3 -515.56c13.18,-128.77 128.26,-222.47 257.03,-209.29 128.77,13.18 222.47,128.26 209.29,257.03l-54.09 523.28c114.24,61.17 201.06,166.95 237.11,294.15 408.17,541.35 2404.17,3286.11 3194.18,4261.05 302.07,372.78 247.96,371.56 721.84,379.92 338.81,5.99 767.36,-14.02 953.65,-17 239.3,-3.75 436.35,187.2 440.1,426.5 3.75,239.3 -187.2,436.35 -426.5,440.1 -1054.49,-1.18 -1672.88,239.2 -2364.89,-735.27l-2884.47 -3801.77 -573.1 5543.81c-13.18,128.77 -128.26,222.47 -257.03,209.29 -128.77,-13.18 -222.47,-128.26 -209.29,-257.03l136.45 -1319.92 -1201.39 0 -151.81 1290.02c-14.7,128.77 -131.01,221.24 -259.78,206.54 -128.77,-14.7 -221.24,-131.01 -206.54,-259.78l669.72 -5690.81c-205.69,-101.9 -392.29,-330.39 -393.07,-530.07 -1.04,-266.81 113.84,-481.17 481.22,-485l31.33 -0.2 59.72 -507.43zm295.33 1506.2l-90.05 765.17 1148.36 0 78.95 -763.74 -1137.26 -1.43zm701.11 4220.53l93.25 -902.03 -1184.9 0 -106.15 902.03 1197.8 0zm119.09 -1152.03l92.56 -895.35 -1168.51 0 -105.37 895.35 1181.32 0zm118.41 -1145.35l93.86 -907.98 -1151.94 0 -106.86 907.98 1164.94 0z"/>
   <circle class="fil4" cx="12587.93" cy="12575.02" r="2239.43"/>
   <path class="fil5" d="M12587.93 10282.72c1266,0 2292.3,1026.3 2292.3,2292.3 0,1266 -1026.3,2292.3 -2292.3,2292.3 -1266,0 -2292.3,-1026.3 -2292.3,-2292.3 0,-1266 1026.3,-2292.3 2292.3,-2292.3zm0 574.6c948.66,0 1717.7,769.04 1717.7,1717.7 0,948.66 -769.04,1717.7 -1717.7,1717.7 -948.66,0 -1717.7,-769.04 -1717.7,-1717.7 0,-948.66 769.04,-1717.7 1717.7,-1717.7z"/>
   <polygon class="fil6" points="13777.34,13263.96 14096.92,13263.96 13726.36,12724.79 14081.24,12213.06 13769.5,12213.06 13571.47,12518.92 13375.41,12213.06 13055.83,12213.06 13410.7,12730.67 13042.1,13263.96 13353.84,13263.96 13565.59,12936.53 "/>
   <path class="fil6" d="M11472.1 11879.15l-394.08 117.63 62.74 247.04 239.19 -58.82 0 1076.39 298.02 0 0 -1382.24 -205.87 0zm1564.59 694.06c0,-399.97 -241.16,-707.79 -607.8,-707.79 -366.64,0 -611.72,311.74 -611.72,711.71 0,399.97 241.16,707.79 607.8,707.79 366.64,0 611.72,-311.74 611.72,-711.71zm-309.78 3.92c0,250.96 -115.68,435.26 -298.02,435.26 -182.34,0 -301.94,-186.26 -301.94,-439.18 0,-252.92 115.68,-435.26 298.02,-435.26 182.34,0 301.94,188.22 301.94,439.18z"/>
   <polygon class="fil6" points="13777.34,13263.96 14096.92,13263.96 13726.36,12724.79 14081.24,12213.06 13769.5,12213.06 13571.47,12518.92 13375.41,12213.06 13055.83,12213.06 13410.7,12730.67 13042.1,13263.96 13353.84,13263.96 13565.59,12936.53 "/>
   <path class="fil6" d="M11472.1 11879.15l-394.08 117.63 62.74 247.04 239.19 -58.82 0 1076.39 298.02 0 0 -1382.24 -205.87 0zm1564.59 694.06c0,-399.97 -241.16,-707.79 -607.8,-707.79 -366.64,0 -611.72,311.74 -611.72,711.71 0,399.97 241.16,707.79 607.8,707.79 366.64,0 611.72,-311.74 611.72,-711.71zm-309.78 3.92c0,250.96 -115.68,435.26 -298.02,435.26 -182.34,0 -301.94,-186.26 -301.94,-439.18 0,-252.92 115.68,-435.26 298.02,-435.26 182.34,0 301.94,188.22 301.94,439.18z"/>
  </g>
 </g>
</svg>
