<?xml version="1.0" encoding="UTF-8"?>
<!DOCTYPE svg PUBLIC "-//W3C//DTD SVG 1.1//EN" "http://www.w3.org/Graphics/SVG/1.1/DTD/svg11.dtd">
<!-- Creator: CorelDRAW -->
<svg xmlns="http://www.w3.org/2000/svg" xml:space="preserve" width="152.4mm" height="152.4mm" version="1.1" style="shape-rendering:geometricPrecision; text-rendering:geometricPrecision; image-rendering:optimizeQuality; fill-rule:evenodd; clip-rule:evenodd"
viewBox="0 0 15240 15240"
 xmlns:xlink="http://www.w3.org/1999/xlink"
 xmlns:xodm="http://www.corel.com/coreldraw/odm/2003">
 <defs>
  <style type="text/css">
   <![CDATA[
    .fil0 {fill:none}
    .fil2 {fill:#3BB34A}
    .fil1 {fill:#C8E9F0}
    .fil3 {fill:#3BB34A;fill-rule:nonzero}
   ]]>
  </style>
 </defs>
 <g id="Capa_x0020_1">
  <metadata id="CorelCorpID_0Corel-Layer"/>
  <g id="_2981954191920">
   <rect class="fil0" x="-0" y="-0" width="15240" height="15240"/>
   <ellipse id="contour" class="fil1" cx="7620.01" cy="7620" rx="7200.69" ry="7200.73"/>
   <path id="contour_135" class="fil2" d="M7620.01 364.25c4007.22,0 7255.71,3248.52 7255.71,7255.75 0,4007.22 -3248.49,7255.74 -7255.71,7255.74 -4007.22,0 -7255.7,-3248.52 -7255.7,-7255.74 0,-4007.23 3248.48,-7255.75 7255.7,-7255.75zm-0.06 985.8c3462.82,0 6270.01,2807.18 6270.01,6270 0,3462.82 -2807.19,6270.01 -6270.01,6270.01 -3462.82,0 -6270,-2807.19 -6270,-6270.01 0,-3462.82 2807.18,-6270 6270,-6270z"/>
   <path class="fil3" d="M4242.09 4005.64c14.07,-123.29 125.44,-211.82 248.73,-197.75 123.29,14.07 211.82,125.44 197.75,248.73l-24.69 210.02 1074.29 13.2 29.97 -286.12c12.61,-123.29 122.8,-213 246.09,-200.39 123.29,12.61 213,122.8 200.39,246.09l-32.37 309.09c714.72,341.44 2062.38,2011.33 3182.74,3399.66 705.8,874.62 1309.33,1669.13 1448.54,1756.91 194.21,29.28 564.91,32.81 885.04,14.03 99.83,-8.72 184.83,-16.15 297.3,-15.68 330.07,1.29 596.61,269.93 595.32,600 -1.29,330.07 -269.93,596.61 -600,595.32 -475.81,-1.97 -862.07,16.05 -1353.93,-28.4 -162.04,-14.64 -312.43,-103.44 -457.71,-195.04 -309.18,-194.95 -974.2,-1019.02 -1747.38,-1977.14 -847.33,-1049.99 -1836.73,-2275.98 -2391.27,-2800.09l-558.47 5332.39c-12.61,123.29 -122.8,213 -246.09,200.39 -123.29,-12.61 -213,-122.8 -200.39,-246.09l131.54 -1255.94 -1145.84 0 -144.32 1227.45c-14.07,123.29 -125.44,211.82 -248.73,197.75 -123.29,-14.07 -211.82,-125.44 -197.75,-248.73l645.15 -5487.05c-227.17,-86.83 -387.3,-308.12 -384.27,-565.5 3.54,-301.21 229.32,-547.71 519.61,-585.58l30.75 -261.53zm281.43 1454.76l-92.75 788.82 1101.15 0 81.21 -775.43 -1089.61 -13.39zm670.15 4018.43l86.59 -826.77 -1132.01 0 -97.21 826.77 1142.63 0zm112.77 -1076.77l83.38 -796.1 -1118.57 0 -93.6 796.1 1128.79 0zm109.56 -1046.1l89.73 -856.74 -1104.35 0 -100.73 856.74 1115.35 0z"/>
  </g>
 </g>
</svg>
