<?xml version="1.0" encoding="UTF-8"?>
<!DOCTYPE svg PUBLIC "-//W3C//DTD SVG 1.1//EN" "http://www.w3.org/Graphics/SVG/1.1/DTD/svg11.dtd">
<!-- Creator: CorelDRAW -->
<svg xmlns="http://www.w3.org/2000/svg" xml:space="preserve" width="152.4mm" height="152.4mm" version="1.1" style="shape-rendering:geometricPrecision; text-rendering:geometricPrecision; image-rendering:optimizeQuality; fill-rule:evenodd; clip-rule:evenodd"
viewBox="0 0 14350.3 14350.3"
 xmlns:xlink="http://www.w3.org/1999/xlink"
 xmlns:xodm="http://www.corel.com/coreldraw/odm/2003">
 <defs>
  <style type="text/css">
   <![CDATA[
    .fil0 {fill:none}
    .fil6 {fill:#3B54A5}
    .fil1 {fill:#3B54A5}
    .fil5 {fill:#BD1E38}
    .fil4 {fill:#DB9B13}
    .fil2 {fill:#DB9B13}
    .fil3 {fill:#FBF0E1}
   ]]>
  </style>
 </defs>
 <g id="Capa_x0020_1">
  <metadata id="CorelCorpID_0Corel-Layer"/>
  <g id="_2981954565824">
   <rect class="fil0" x="-0" y="-0" width="14350.3" height="14350.3"/>
   <path class="fil1" d="M4993.39 583.86c567.13,-82.55 1185.09,-131.62 1812.86,-146.84l0 -2.3c122.63,-2.19 245.48,-3.12 368.27,-2.74l1.27 0c122.79,-0.38 245.65,0.54 368.27,2.74l0 2.3c627.78,15.22 1245.74,64.28 1812.86,146.84 1100.03,160.11 1915.59,428.35 2817.31,905.12 353.11,186.7 588.01,477.9 695.73,862.53 514.78,1838.29 558.96,4214.44 -334.53,6302.67 -963.01,2250.71 -2760.39,3928.04 -4914.7,5035.48l-76.67 39.41 0 0.17 -17.92 9.04 -347.74 178.77 -3.23 1.35 -3.26 -1.35 -347.73 -178.77 -17.93 -9.04 0 -0.17 -76.67 -39.41c-2154.32,-1107.44 -3951.69,-2784.77 -4914.7,-5035.48 -893.5,-2088.23 -849.32,-4464.38 -334.53,-6302.67 107.71,-384.63 342.61,-675.83 695.72,-862.53 901.72,-476.77 1717.29,-745.01 2817.31,-905.12z"/>
   <path class="fil2" d="M4964.7 497.17c574.59,-83.63 1200.67,-133.35 1836.71,-148.77l0 -2.33c124.24,-2.22 248.71,-3.15 373.11,-2.78l1.29 0c124.41,-0.38 248.88,0.55 373.11,2.78l0 2.33c636.04,15.41 1262.12,65.13 1836.72,148.77 1114.49,162.22 1940.77,433.98 2854.36,917.04 357.75,189.15 595.74,484.18 704.87,873.87 521.56,1862.47 566.32,4269.87 -338.93,6385.56 -975.68,2280.32 -2796.69,3979.71 -4979.35,5101.72l-77.67 39.92 0 0.17 -18.15 9.16 -352.32 181.11 -3.27 1.37 -3.3 -1.37 -352.32 -181.11 -18.15 -9.16 0 -0.17 -77.67 -39.92c-2182.66,-1122.01 -4003.67,-2821.4 -4979.34,-5101.72 -905.26,-2115.69 -860.5,-4523.09 -338.94,-6385.56 109.13,-389.69 347.12,-684.72 704.88,-873.87 913.58,-483.05 1739.87,-754.81 2854.36,-917.04zm142.5 978.99c-1000.97,145.7 -1905.61,428.33 -2685.68,887.96 -1256.12,4040.24 291.07,8236.92 4754.51,10531.37 4509.88,-2275.88 6114.08,-6491.13 4857.95,-10531.37 -762.71,-449.39 -1644.48,-729.6 -2618.99,-878.03 -1281.16,-195.15 -3024.11,-196.77 -4307.79,-9.92z"/>
   <path class="fil3" d="M3413.38 4949.52c-7.7,-5.65 -29.32,-318.21 -11.06,-537.13 1.26,-15.46 2.01,-85.7 132.89,-415.32 149.09,-375.42 39.35,-222.9 193.82,-354.4 491.8,-418.68 -6.21,-119.41 969.15,-658.97 137.41,-76.01 801.45,-398.65 1179.58,-448.54 1420.12,-187.37 761.96,-204.89 1417.7,-204.89 986.56,0 1290.16,114.53 1794.29,382.09 489.77,259.94 299.66,68.91 963.6,498.38 432.54,279.79 420.78,310 537.19,426.38 182.51,182.51 122.03,50.73 398.73,564.84 65.94,122.51 49.84,41.57 49.84,431.92 0,174.69 -28.54,291.29 -62.88,346.68 3.02,15.3 4.33,24.89 4.44,25.3l35.58 111.76c198.01,427.52 240.88,1363.82 222.21,1543 -36.65,351.94 -109.03,744.88 -116.29,764.17 -26.63,70.7 -98.6,329.37 -99.69,332.25 -106.63,283.1 -107.35,253.32 -132.9,299.03 -8.51,15.23 51.82,-21.31 -299.06,581.44 -26.68,45.83 -267.64,383.91 -382.11,498.37 -7.8,7.8 -401.45,453.61 -963.6,780.79 -703.19,409.29 -1542.49,531.61 -1810.91,531.61 -585.13,0 -889.64,-19.92 -1390.02,-171.67 -1026.63,-311.35 -1569.05,-875.49 -1877.36,-1212.71 -119.44,-130.65 -652.35,-831.13 -814.08,-1528.36 -4.16,-17.98 -316.41,-1063.13 -33.23,-2076.57 42.07,-150.55 74.62,-259.84 100.18,-339.46 5.69,-17.62 154.75,-386.18 -6.03,-170z"/>
   <path class="fil4" d="M3745.65 4650.5c-1.33,0.34 -82.91,102.39 -99.69,116.28 -22.58,18.69 -2.83,-13.78 -83.07,66.46 -73.81,73.8 -137.32,125.25 -149.53,116.28 -7.69,-5.65 -29.31,-318.22 -11.07,-537.14 1.29,-15.45 2.02,-85.69 132.91,-415.31 149.08,-375.43 39.36,-222.89 193.83,-354.41 491.78,-418.68 -6.22,-119.41 969.13,-658.97 137.42,-76.02 801.45,-398.64 1179.58,-448.54 1420.13,-187.38 761.97,-204.89 1417.71,-204.89 986.56,0 1290.16,114.53 1794.29,382.09 489.77,259.93 299.66,68.91 963.6,498.37 432.54,279.79 420.78,310.01 537.19,426.39 182.52,182.51 122.02,50.73 398.73,564.83 65.94,122.51 49.84,41.58 49.84,431.92 0,235.17 -51.71,365.09 -99.69,382.09 -128.03,45.37 -417.7,-271.99 -731,-282.42 -8.85,-0.28 -8.86,0 -996.83,0 -1943.82,0 -1376.4,56.13 -1943.82,0 -8.13,-0.79 -390.84,-99.67 -913.76,-99.67 -8.38,0 -870.54,-48.36 -941.45,-55.38 -719.82,-71.19 -428.65,-63.74 -869.45,38.77 -165.99,38.6 -378.56,116.13 -382.11,116.28 -31.97,1.47 -404.43,-85.93 -415.34,-83.05z"/>
   <path class="fil5" d="M7167.49 8017.31c-156.38,0 -432.05,66.1 -552.46,129.6 -49.1,25.89 -406.22,351.42 -406.22,955.8 0,20.63 -11.37,526.94 314.14,707.4 2.04,1.12 -13.14,-13.97 243.74,97.19 4.81,2.07 25.89,81.01 584.94,81.01 44.84,0 144.71,31.91 487.47,-210.59 52.52,-37.18 319.45,-344.79 324.96,-356.41 5.65,-11.91 -10.61,4.76 65,-162 11.91,-26.25 81.25,-199.75 81.25,-372.6 0,-496.85 -299.5,-869.4 -1142.83,-869.4zm-249.12 1450.54c-0.33,-0.09 -32.91,-16.38 -35.06,-17.53 -277.72,-148.46 -236.85,-747.78 -187.01,-812.26 28.41,-36.74 432.39,-110.51 514.26,-93.47 62.25,12.92 319.52,94.52 403.23,192.83 151.07,177.38 215.34,350.88 198.7,397.36 -4.92,13.77 -208.67,103.99 -210.37,105.18 -193.55,132.09 -191.24,104.07 -192.86,105.18 -71.68,48.91 15.7,19.09 -105.2,52.59 -120.88,33.51 -60.39,42.16 -105.18,52.59 -2.44,0.56 -251.77,26.09 -280.52,17.53z"/>
   <ellipse class="fil6" cx="8712.44" cy="6044.68" rx="782.35" ry="782.36"/>
   <circle class="fil6" cx="5608.2" cy="6045.43" r="783.1"/>
   <ellipse class="fil5" cx="7192.49" cy="7161.4" rx="458.72" ry="458.73"/>
  </g>
 </g>
</svg>
