<?xml version="1.0" encoding="UTF-8"?>
<!DOCTYPE svg PUBLIC "-//W3C//DTD SVG 1.1//EN" "http://www.w3.org/Graphics/SVG/1.1/DTD/svg11.dtd">
<!-- Creator: CorelDRAW -->
<svg xmlns="http://www.w3.org/2000/svg" xml:space="preserve" width="152.4mm" height="152.4mm" version="1.1" style="shape-rendering:geometricPrecision; text-rendering:geometricPrecision; image-rendering:optimizeQuality; fill-rule:evenodd; clip-rule:evenodd"
viewBox="0 0 15240 15240"
 xmlns:xlink="http://www.w3.org/1999/xlink"
 xmlns:xodm="http://www.corel.com/coreldraw/odm/2003">
 <defs>
  <style type="text/css">
   <![CDATA[
    .fil0 {fill:none}
    .fil6 {fill:#3B54A5}
    .fil1 {fill:#3B54A5}
    .fil5 {fill:#BD1E38}
    .fil4 {fill:#DB9B13}
    .fil2 {fill:#DB9B13}
    .fil3 {fill:#FBF0E1}
   ]]>
  </style>
 </defs>
 <g id="Capa_x0020_1">
  <metadata id="CorelCorpID_0Corel-Layer"/>
  <g id="_2981917118816">
   <rect class="fil0" x="-0" y="-0" width="15240" height="15240"/>
   <ellipse id="contour" class="fil1" cx="7620.01" cy="7620" rx="7200.69" ry="7200.73"/>
   <path id="contour_92" class="fil2" d="M7620.01 364.25c4007.22,0 7255.71,3248.52 7255.71,7255.75 0,4007.22 -3248.49,7255.74 -7255.71,7255.74 -4007.22,0 -7255.7,-3248.52 -7255.7,-7255.74 0,-4007.23 3248.48,-7255.75 7255.7,-7255.75zm-0.06 985.8c3462.82,0 6270.01,2807.18 6270.01,6270 0,3462.82 -2807.19,6270.01 -6270.01,6270.01 -3462.82,0 -6270,-2807.19 -6270,-6270.01 0,-3462.82 2807.18,-6270 6270,-6270z"/>
   <path class="fil3" d="M3773.74 6273.61c-7.89,-5.78 -30.01,-325.64 -11.33,-549.67 1.3,-15.82 2.06,-87.7 136,-425.02 152.57,-384.19 40.27,-228.1 198.35,-362.67 503.28,-428.46 -6.36,-122.2 991.78,-674.36 140.62,-77.79 820.17,-407.97 1207.13,-459.02 1453.28,-191.75 779.75,-209.67 1450.8,-209.67 1009.61,0 1320.29,117.2 1836.19,391.01 501.2,266.02 306.66,70.52 986.1,510.02 442.64,286.33 430.61,317.24 549.73,436.34 186.78,186.78 124.88,51.92 408.04,578.03 67.48,125.38 51,42.55 51,442.01 0,178.77 -29.2,298.09 -64.35,354.77 3.1,15.66 4.44,25.47 4.55,25.9l36.42 114.37c202.63,437.5 246.5,1395.67 227.4,1579.02 -37.51,360.16 -111.58,762.28 -119.01,782.02 -27.25,72.35 -100.9,337.06 -102.01,340.01 -109.12,289.71 -109.87,259.24 -136.01,306.01 -8.71,15.58 53.03,-21.8 -306.04,595.02 -27.3,46.9 -273.89,392.87 -391.03,510.01 -7.98,7.98 -410.83,464.2 -986.1,799.03 -719.62,418.85 -1578.51,544.02 -1853.2,544.02 -598.79,0 -910.41,-20.38 -1422.48,-175.68 -1050.6,-318.61 -1605.69,-895.93 -1921.19,-1241.03 -122.23,-133.7 -667.58,-850.54 -833.09,-1564.05 -4.26,-18.4 -323.8,-1087.95 -34,-2125.06 43.05,-154.06 76.36,-265.9 102.51,-347.39 5.82,-18.03 158.36,-395.19 -6.16,-173.97z"/>
   <path class="fil4" d="M4113.77 5967.61c-1.35,0.35 -84.84,104.79 -102.01,119 -23.11,19.13 -2.9,-14.1 -85.01,68 -75.54,75.54 -140.52,128.18 -153.02,119 -7.87,-5.78 -30,-325.65 -11.33,-549.68 1.32,-15.81 2.06,-87.69 136.01,-425.01 152.56,-384.2 40.27,-228.09 198.36,-362.68 503.26,-428.46 -6.38,-122.19 991.76,-674.36 140.64,-77.79 820.17,-407.95 1207.13,-459.01 1453.29,-191.75 779.76,-209.67 1450.81,-209.67 1009.61,0 1320.29,117.2 1836.19,391.01 501.21,266.01 306.66,70.52 986.1,510.01 442.64,286.33 430.61,317.25 549.73,436.35 186.78,186.78 124.88,51.91 408.04,578.02 67.48,125.38 51.01,42.55 51.01,442.01 0,240.67 -52.92,373.62 -102.02,391.02 -131.03,46.42 -427.46,-278.35 -748.07,-289.02 -9.07,-0.29 -9.07,0 -1020.11,0 -1989.2,0 -1408.53,57.44 -1989.2,0 -8.32,-0.81 -399.97,-102 -935.1,-102 -8.58,0 -890.87,-49.49 -963.43,-56.66 -736.63,-72.86 -438.67,-65.23 -889.76,39.67 -169.87,39.49 -387.41,118.83 -391.03,118.99 -32.73,1.51 -413.88,-87.94 -425.05,-84.99z"/>
   <path class="fil5" d="M7615.51 9413.04c-160.04,0 -442.14,67.65 -565.36,132.62 -50.24,26.5 -415.71,359.63 -415.71,978.12 0,21.12 -11.64,539.25 321.48,723.92 2.09,1.15 -13.44,-14.3 249.43,99.47 4.92,2.12 26.49,82.9 598.6,82.9 45.89,0 148.09,32.65 498.85,-215.51 53.75,-38.05 326.92,-352.85 332.56,-364.74 5.78,-12.19 -10.86,4.87 66.51,-165.78 12.19,-26.86 83.15,-204.41 83.15,-381.3 0,-508.45 -306.49,-889.7 -1169.51,-889.7zm-254.94 1484.41c-0.34,-0.09 -33.68,-16.77 -35.88,-17.94 -284.2,-151.92 -242.37,-765.24 -191.37,-831.23 29.07,-37.6 442.49,-113.09 526.27,-95.66 63.7,13.22 326.98,96.73 412.64,197.34 154.6,181.53 220.37,359.07 203.34,406.64 -5.03,14.09 -213.54,106.42 -215.28,107.64 -198.07,135.17 -195.71,106.5 -197.36,107.63 -73.35,50.05 16.06,19.54 -107.66,53.82 -123.7,34.3 -61.79,43.14 -107.63,53.82 -2.5,0.57 -257.65,26.7 -287.07,17.94z"/>
   <ellipse class="fil6" cx="9196.54" cy="7394.35" rx="800.62" ry="800.63"/>
   <circle class="fil6" cx="6019.81" cy="7395.12" r="801.39"/>
   <circle class="fil5" cx="7641.1" cy="8537.14" r="469.44"/>
  </g>
 </g>
</svg>
