<?xml version="1.0" encoding="UTF-8"?>
<!DOCTYPE svg PUBLIC "-//W3C//DTD SVG 1.1//EN" "http://www.w3.org/Graphics/SVG/1.1/DTD/svg11.dtd">
<!-- Creator: CorelDRAW -->
<svg xmlns="http://www.w3.org/2000/svg" xml:space="preserve" width="152.4mm" height="152.4mm" version="1.1" style="shape-rendering:geometricPrecision; text-rendering:geometricPrecision; image-rendering:optimizeQuality; fill-rule:evenodd; clip-rule:evenodd"
viewBox="0 0 15240 15240"
 xmlns:xlink="http://www.w3.org/1999/xlink"
 xmlns:xodm="http://www.corel.com/coreldraw/odm/2003">
 <defs>
  <style type="text/css">
   <![CDATA[
    .fil0 {fill:none}
    .fil2 {fill:#19BCDB}
    .fil1 {fill:#FAF490}
   ]]>
  </style>
 </defs>
 <g id="Capa_x0020_1">
  <metadata id="CorelCorpID_0Corel-Layer"/>
  <g id="_1904534917344">
   <rect class="fil0" x="-0" y="-0" width="15240" height="15240"/>
   <ellipse id="contour" class="fil1" cx="7620.01" cy="7620" rx="7200.69" ry="7200.73"/>
   <path id="contour_9" class="fil2" d="M7620.01 364.25c4007.22,0 7255.71,3248.52 7255.71,7255.75 0,4007.22 -3248.49,7255.74 -7255.71,7255.74 -4007.22,0 -7255.7,-3248.52 -7255.7,-7255.74 0,-4007.23 3248.48,-7255.75 7255.7,-7255.75zm-0.06 985.8c3462.82,0 6270.01,2807.18 6270.01,6270 0,3462.82 -2807.19,6270.01 -6270.01,6270.01 -3462.82,0 -6270,-2807.19 -6270,-6270.01 0,-3462.82 2807.18,-6270 6270,-6270z"/>
   <path class="fil2" d="M7642.34 5276.35c127.77,0 288.3,68.07 454.83,245.17 477.68,508.03 1238.3,1614.95 1770.16,2661.46 679.04,1336.1 689.83,2787.9 -579.44,3805.17 -456.52,365.88 -1017.53,538.5 -1636.2,538.5 -612.34,0 -1161.3,-168.19 -1615.43,-527.3 -1294.03,-1023.24 -1312.86,-2442.91 -612.07,-3799.03 408.07,-789.6 1067.57,-1837.31 1797.87,-2707.07 142.17,-169.32 300.45,-216.9 420.28,-216.9zm-1178.01 4275.73c192.67,0 348.86,156.19 348.86,348.86 0,192.66 -156.19,348.85 -348.86,348.85 -192.66,0 -348.85,-156.19 -348.85,-348.85 0,-192.67 156.19,-348.86 348.85,-348.86zm2353.65 0c192.67,0 348.86,156.19 348.86,348.86 0,192.66 -156.19,348.85 -348.86,348.85 -192.66,0 -348.85,-156.19 -348.85,-348.85 0,-192.67 156.19,-348.86 348.85,-348.86zm406.6 1192.46c86.83,-106.78 243.81,-122.96 350.59,-36.13 106.78,86.83 122.96,243.81 36.13,350.59 -228.23,281.07 -531.82,517.75 -881.58,680.66 -331.46,154.4 -705.55,243.97 -1097.6,243.97 -408.81,0 -802.12,-95.72 -1148.75,-261.77 -361.47,-173.15 -671.67,-423.64 -895.58,-722.71 -82.51,-110.02 -60.21,-266.12 49.81,-348.63 110.02,-82.51 266.12,-60.21 348.63,49.81 176.29,235.47 422.9,433.83 711.98,572.31 279.39,133.84 598.97,210.99 933.91,210.99 316.68,0 618.89,-72.36 886.66,-197.09 282.56,-131.61 525.57,-320.04 705.8,-542z"/>
   <path class="fil2" d="M4696.17 3207.31c67.48,0 152.27,35.95 240.22,129.48 252.28,268.32 654,852.93 934.9,1405.64 358.63,705.66 364.33,1472.42 -306.03,2009.68 -241.11,193.24 -537.4,284.41 -864.15,284.41 -323.4,0 -613.34,-88.83 -853.18,-278.49 -683.44,-540.42 -693.38,-1290.21 -323.26,-2006.44 215.52,-417.03 563.83,-970.37 949.53,-1429.73 75.09,-89.42 158.68,-114.55 221.97,-114.55zm-622.16 2258.2c101.76,0 184.25,82.5 184.25,184.25 0,101.76 -82.49,184.25 -184.25,184.25 -101.75,0 -184.24,-82.49 -184.24,-184.25 0,-101.75 82.49,-184.25 184.24,-184.25zm1243.07 0c101.76,0 184.25,82.5 184.25,184.25 0,101.76 -82.49,184.25 -184.25,184.25 -101.75,0 -184.24,-82.49 -184.24,-184.25 0,-101.75 82.49,-184.25 184.24,-184.25zm214.75 629.8c45.85,-56.4 128.76,-64.94 185.16,-19.09 56.39,45.86 64.94,128.77 19.08,185.17 -120.54,148.44 -280.88,273.44 -465.6,359.48 -175.06,81.55 -372.64,128.86 -579.7,128.86 -215.91,0 -423.63,-50.56 -606.7,-138.26 -190.91,-91.44 -354.74,-223.74 -473,-381.69 -43.58,-58.11 -31.8,-140.55 26.31,-184.13 58.1,-43.58 140.55,-31.8 184.13,26.31 93.1,124.36 223.35,229.12 376.02,302.26 147.56,70.69 316.35,111.43 493.24,111.43 167.26,0 326.87,-38.21 468.29,-104.09 149.23,-69.51 277.58,-169.03 372.77,-286.25z"/>
   <path class="fil2" d="M10526.54 3207.31c67.48,0 152.27,35.95 240.22,129.48 252.28,268.32 654,852.93 934.9,1405.64 358.63,705.66 364.33,1472.42 -306.03,2009.68 -241.11,193.24 -537.4,284.41 -864.15,284.41 -323.4,0 -613.34,-88.83 -853.18,-278.49 -683.44,-540.42 -693.38,-1290.21 -323.26,-2006.44 215.52,-417.03 563.83,-970.37 949.53,-1429.73 75.09,-89.42 158.68,-114.55 221.97,-114.55zm-622.16 2258.2c101.76,0 184.25,82.5 184.25,184.25 0,101.76 -82.49,184.25 -184.25,184.25 -101.75,0 -184.24,-82.49 -184.24,-184.25 0,-101.75 82.49,-184.25 184.24,-184.25zm1243.07 0c101.76,0 184.25,82.5 184.25,184.25 0,101.76 -82.49,184.25 -184.25,184.25 -101.75,0 -184.24,-82.49 -184.24,-184.25 0,-101.75 82.49,-184.25 184.24,-184.25zm214.75 629.8c45.85,-56.4 128.76,-64.94 185.16,-19.09 56.39,45.86 64.94,128.77 19.08,185.17 -120.54,148.44 -280.88,273.44 -465.6,359.48 -175.06,81.55 -372.64,128.86 -579.7,128.86 -215.91,0 -423.63,-50.56 -606.7,-138.26 -190.91,-91.44 -354.74,-223.74 -473,-381.69 -43.58,-58.11 -31.8,-140.55 26.31,-184.13 58.1,-43.58 140.55,-31.8 184.13,26.31 93.1,124.36 223.35,229.12 376.02,302.26 147.56,70.69 316.35,111.43 493.24,111.43 167.26,0 326.87,-38.21 468.29,-104.09 149.23,-69.51 277.58,-169.03 372.77,-286.25z"/>
  </g>
 </g>
</svg>
