<?xml version="1.0" encoding="UTF-8"?>
<!DOCTYPE svg PUBLIC "-//W3C//DTD SVG 1.1//EN" "http://www.w3.org/Graphics/SVG/1.1/DTD/svg11.dtd">
<!-- Creator: CorelDRAW -->
<svg xmlns="http://www.w3.org/2000/svg" xml:space="preserve" width="152.4mm" height="152.4mm" version="1.1" style="shape-rendering:geometricPrecision; text-rendering:geometricPrecision; image-rendering:optimizeQuality; fill-rule:evenodd; clip-rule:evenodd"
viewBox="0 0 15240 15240"
 xmlns:xlink="http://www.w3.org/1999/xlink"
 xmlns:xodm="http://www.corel.com/coreldraw/odm/2003">
 <defs>
  <style type="text/css">
   <![CDATA[
    .fil2 {fill:none}
    .fil1 {fill:#26AAE1}
    .fil0 {fill:#3C55A4}
   ]]>
  </style>
 </defs>
 <g id="Capa_x0020_1">
  <metadata id="CorelCorpID_0Corel-Layer"/>
  <g id="_1788836068192">
   <ellipse id="contour" class="fil0" cx="7620.01" cy="7620" rx="7255.7" ry="7255.74"/>
   <path id="contour_26" class="fil1" d="M7620.01 364.25c4007.22,0 7255.71,3248.52 7255.71,7255.75 0,4007.22 -3248.49,7255.74 -7255.71,7255.74 -4007.22,0 -7255.7,-3248.52 -7255.7,-7255.74 0,-4007.23 3248.48,-7255.75 7255.7,-7255.75zm-198.58 9668.85l471.76 0c5.73,1006.54 643.42,1714.57 1417.05,1714.57 17.3,0 38.17,0.28 61.99,0.71 138.24,2.53 249.35,115.69 249.35,253.95l0 44.61c0,139.9 -114.1,254 -254,254l-3495.15 0c-139.9,0 -254,-114.1 -254,-254l0 -43.01c0,-137.87 110.38,-250.8 248.21,-253.94 56.45,-1.28 103.92,-2.32 137.74,-2.32 773.63,0 1411.32,-708.03 1417.05,-1714.57zm197.04 -279.08l3.08 0 4.2 0.02c655.52,0 1255.36,-455.02 1717.5,-1208.46 1331.91,-664.83 2500.27,-2091.3 2749.51,-3831.14 9.74,-67.97 -8.64,-130.25 -53.61,-182.15 -44.97,-51.9 -104.08,-78.9 -172.76,-78.9l-1445.7 0c12.63,-185.95 19.71,-363.34 21.09,-528.8 1.13,-133.61 -45.82,-249 -139.9,-343.88 -94.08,-94.87 -209.06,-142.79 -342.68,-142.79l-1889.19 0 -900 0 -1889.19 0c-133.62,0 -248.6,47.92 -342.68,142.79 -94.08,94.88 -141.03,210.27 -139.9,343.88 1.38,165.46 8.46,342.85 21.09,528.8l-1445.69 0c-68.68,0 -127.79,27 -172.76,78.9 -44.97,51.9 -63.35,114.18 -53.61,182.15 249.24,1739.83 1417.61,3166.3 2749.5,3831.14 462.13,753.44 1061.98,1208.46 1717.5,1208.46l4.2 -0.02zm2130.35 -2056.9c313.89,-826.62 527.2,-1848.59 627.49,-2751.41l1111.93 0c-110.82,1049.32 -850.59,2097.36 -1739.42,2751.41zm-4885.11 -2751.41c100.29,902.82 313.6,1924.79 627.48,2751.4 -888.82,-654.05 -1628.58,-1702.09 -1739.4,-2751.4l1111.92 0zm2825.67 334.77l368.19 772.46 851.31 109.18c30.3,3.89 54.1,23.3 63.6,51.87 9.5,28.57 1.96,58.07 -20.15,78.82l-625.16 586.92 158.34 842.81c5.58,29.73 -6.06,58.16 -31.03,75.77 -24.96,17.62 -56.06,19.35 -82.88,4.61l-750.29 -412.23 -754.95 412.53c-26.86,14.68 -57.96,12.88 -82.88,-4.8 -24.94,-17.68 -36.5,-46.14 -30.84,-75.85l160.36 -841.68 -625.37 -589.11c-22.07,-20.79 -29.56,-50.3 -20.01,-78.85 9.54,-28.55 33.37,-47.92 63.67,-51.76l853.79 -108.24 363.92 -772.16c12.96,-27.5 39.29,-44.07 70.1,-44.14 30.81,-0.06 57.2,16.41 70.28,43.85zm-69.43 -3930.43c3462.82,0 6270.01,2807.18 6270.01,6270 0,3462.82 -2807.19,6270.01 -6270.01,6270.01 -3462.82,0 -6270,-2807.19 -6270,-6270.01 0,-3462.82 2807.18,-6270 6270,-6270z"/>
   <rect class="fil2" x="-0" y="-0" width="15240" height="15240"/>
  </g>
 </g>
</svg>
