<?xml version="1.0" encoding="UTF-8"?>
<!DOCTYPE svg PUBLIC "-//W3C//DTD SVG 1.1//EN" "http://www.w3.org/Graphics/SVG/1.1/DTD/svg11.dtd">
<!-- Creator: CorelDRAW -->
<svg xmlns="http://www.w3.org/2000/svg" xml:space="preserve" width="152.4mm" height="152.4mm" version="1.1" style="shape-rendering:geometricPrecision; text-rendering:geometricPrecision; image-rendering:optimizeQuality; fill-rule:evenodd; clip-rule:evenodd"
viewBox="0 0 15240 15240"
 xmlns:xlink="http://www.w3.org/1999/xlink"
 xmlns:xodm="http://www.corel.com/coreldraw/odm/2003">
 <defs>
  <style type="text/css">
   <![CDATA[
    .fil0 {fill:none}
    .fil2 {fill:black}
    .fil1 {fill:#64100D}
    .fil3 {fill:black;fill-rule:nonzero}
   ]]>
  </style>
 </defs>
 <g id="Capa_x0020_1">
  <metadata id="CorelCorpID_0Corel-Layer"/>
  <g id="_1878228279760">
   <rect class="fil0" x="-0" y="-0" width="15240" height="15240"/>
   <ellipse id="contour" class="fil1" cx="7620.01" cy="7620" rx="7200.69" ry="7200.73"/>
   <path id="contour_0" class="fil2" d="M7620.01 364.25c4007.22,0 7255.71,3248.52 7255.71,7255.75 0,4007.22 -3248.49,7255.74 -7255.71,7255.74 -4007.22,0 -7255.7,-3248.52 -7255.7,-7255.74 0,-4007.23 3248.48,-7255.75 7255.7,-7255.75zm-0.06 985.8c3462.82,0 6270.01,2807.18 6270.01,6270 0,3462.82 -2807.19,6270.01 -6270.01,6270.01 -3462.82,0 -6270,-2807.19 -6270,-6270.01 0,-3462.82 2807.18,-6270 6270,-6270z"/>
   <path class="fil3" d="M3683.79 4489.13c-20.38,-191.79 118.57,-363.8 310.36,-384.18 191.79,-20.38 363.8,118.57 384.18,310.36l735.6 6813.56c4.44,41.18 23.86,77.31 52.53,103.09 28.42,25.55 65.92,40.88 106.83,40.78l4590.76 -12.05c40.99,-0.1 78.45,-15.16 106.51,-40.22 26.93,-24.05 45.27,-58.13 49.51,-97.56l730.73 -6793.27c20.38,-191.79 192.39,-330.74 384.18,-310.36 191.79,20.38 330.74,192.39 310.36,384.18l-730.73 6793.27c-23.37,217.26 -126.81,407.17 -279.21,543.28 -152.11,135.87 -353.02,217.37 -571.35,217.94l-4590.76 12.05c-220.59,0.57 -422.1,-81.55 -574.41,-218.5 -152.54,-137.17 -255.82,-329.46 -279.49,-548.81l-735.6 -6813.56z"/>
   <path class="fil2" d="M4822.04 4762.86l5505.53 0c30.01,0 55.84,11.58 75.82,33.97 19.98,22.4 28.53,49.38 25.11,79.2l-713.75 6225.54c-5.91,51.56 -49.05,90.03 -100.94,90.03l-4117.67 0c-52.12,0 -95.4,-38.85 -101.01,-90.66l-674.1 -6225.54c-3.22,-29.73 5.42,-56.56 25.4,-78.81 19.97,-22.25 45.71,-33.73 75.61,-33.73z"/>
   <path class="fil1" d="M7497.56 8717.94l90.17 464.92c59.41,306.33 336.51,516.68 647.53,491.56l827.96 -66.89c164.94,-13.32 301.76,-88.58 401.33,-220.75 99.57,-132.17 134.16,-284.44 101.46,-446.65l-98.03 -486.34c-56.45,-280.06 -311.26,-470.92 -595.89,-446.32l-896.81 77.5c-156.16,13.5 -285.41,84.98 -379.83,210.09 -94.42,125.11 -127.73,269 -97.89,422.88zm1715.84 -63.14c-5.66,-40.93 22.94,-78.71 63.87,-84.37 40.93,-5.66 78.71,22.94 84.37,63.87 3.57,25.31 9.21,58.3 15.17,93.24 30.55,178.97 69.59,407.67 -24.19,553.5 -35.91,55.85 -81.06,101.12 -134.1,134.28 -52.45,32.8 -112.25,53.44 -178.09,60.48l-497.32 53.26c-41.09,4.36 -77.96,-25.41 -82.32,-66.5 -4.36,-41.09 25.41,-77.96 66.5,-82.32l497.32 -53.26c42.68,-4.56 81.24,-17.81 114.81,-38.8 34.02,-21.27 63.39,-50.94 87.22,-88 62.34,-96.94 28.77,-293.58 2.51,-447.44 -5.71,-33.48 -11.11,-65.05 -15.75,-97.94z"/>
   <path class="fil1" d="M5500.08 7839.97l381.84 515.37c204.59,276.14 567.38,366.48 877.58,218.55l646.04 -308.09c137.53,-65.59 228.61,-179.25 262.66,-327.77 34.05,-148.52 1.57,-290.5 -93.66,-409.45l-359.74 -449.34c-205.83,-257.1 -555.28,-331.91 -848.33,-181.61l-734.12 376.51c-103.1,52.87 -170.76,139.47 -197.13,252.29 -26.37,112.82 -4.11,220.45 64.86,313.54zm484.67 228.59c25.23,32.68 19.2,79.65 -13.48,104.88 -32.68,25.23 -79.65,19.2 -104.88,-13.48l-188.35 -242.97c-40.36,-52.07 -67.49,-109.26 -80.99,-169.97 -13.47,-60.55 -13.13,-123.81 1.36,-188.15 14.5,-64.4 41.37,-121.76 79.56,-170.77 38.18,-48.98 87.23,-89.02 146.12,-118.8l402.58 -203.6c36.89,-18.6 81.89,-3.78 100.49,33.11 18.6,36.89 3.78,81.89 -33.11,100.49l-402.58 203.6c-39.12,19.78 -71.24,45.8 -95.72,77.2 -24.45,31.37 -41.81,68.85 -51.44,111.59 -9.64,42.79 -10.02,84.19 -1.36,123.11 8.62,38.78 26.53,76.06 53.45,110.79l188.35 242.97z"/>
   <path class="fil1" d="M7767.28 10340.6l-573.17 463.6c-266.85,215.84 -640.02,212.83 -903.36,-7.28l-565.31 -472.51c-91.49,-76.47 -138.74,-179.97 -136.6,-299.18 2.15,-119.23 53.09,-220.96 147.28,-294.09l606.23 -470.69c249.73,-193.9 587.32,-194.85 838.13,-2.35l578.66 444.13c102.13,78.38 157.29,188.48 158.93,317.22 1.64,128.72 -50.7,240.19 -150.79,321.15zm-321.56 -736.14c33.81,23.78 41.94,70.49 18.16,104.3 -23.78,33.81 -70.49,41.94 -104.3,18.16 -11.26,-7.95 -26.47,-19.91 -46.38,-35.58 -79.94,-62.9 -240.89,-189.54 -387.53,-253.55 -31.04,-13.54 -70.5,-21.99 -113.02,-26.31 -51.54,-5.25 -106.57,-4.38 -157.04,0.82 -155.14,16 -294.08,141.69 -423.04,258.38 -21.54,19.48 -42.95,38.85 -59.88,53.79 -30.9,27.34 -78.13,24.45 -105.47,-6.45 -27.34,-30.9 -24.45,-78.13 6.45,-105.47 22.2,-19.59 40.32,-35.99 58.7,-52.61 146.57,-132.62 304.47,-275.47 508,-296.46 59.61,-6.15 125.06,-7.12 186.92,-0.82 57.25,5.82 112.16,17.97 158.14,38.03 165.21,72.12 335.67,206.25 420.35,272.87 18.97,14.93 33.4,26.29 39.94,30.9z"/>
  </g>
 </g>
</svg>
