<?xml version="1.0" encoding="UTF-8"?>
<!DOCTYPE svg PUBLIC "-//W3C//DTD SVG 1.1//EN" "http://www.w3.org/Graphics/SVG/1.1/DTD/svg11.dtd">
<!-- Creator: CorelDRAW -->
<svg xmlns="http://www.w3.org/2000/svg" xml:space="preserve" width="152.4mm" height="152.4mm" version="1.1" style="shape-rendering:geometricPrecision; text-rendering:geometricPrecision; image-rendering:optimizeQuality; fill-rule:evenodd; clip-rule:evenodd"
viewBox="0 0 15240 15240"
 xmlns:xlink="http://www.w3.org/1999/xlink"
 xmlns:xodm="http://www.corel.com/coreldraw/odm/2003">
 <defs>
  <style type="text/css">
   <![CDATA[
    .fil0 {fill:none}
    .fil1 {fill:#DD8B14}
    .fil2 {fill:#FFBF22}
    .fil3 {fill:#DD8B14;fill-rule:nonzero}
   ]]>
  </style>
 </defs>
 <g id="Capa_x0020_1">
  <metadata id="CorelCorpID_0Corel-Layer"/>
  <g id="_3018198765312">
   <rect class="fil0" x="-0" y="-0" width="15240" height="15240"/>
   <path class="fil1" d="M5302.97 620.06c602.29,-87.67 1258.56,-139.78 1925.26,-155.94l0 -2.44c130.23,-2.33 260.7,-3.31 391.1,-2.91l1.35 0c130.4,-0.4 260.88,0.57 391.1,2.91l0 2.44c666.7,16.16 1322.97,68.27 1925.26,155.94 1168.23,170.04 2034.35,454.91 2991.98,961.24 375,198.28 624.47,507.53 738.86,916.01 546.7,1952.26 593.62,4475.73 -355.27,6693.43 -1022.72,2390.25 -2931.53,4171.57 -5219.41,5347.67l-81.42 41.85 0 0.18 -19.03 9.6 -369.3 189.85 -3.43 1.43 -3.46 -1.43 -369.29 -189.85 -19.04 -9.6 0 -0.18 -81.42 -41.85c-2287.88,-1176.1 -4196.69,-2957.42 -5219.4,-5347.67 -948.9,-2217.7 -901.98,-4741.17 -355.27,-6693.43 114.39,-408.48 363.85,-717.73 738.85,-916.01 957.63,-506.33 1823.76,-791.2 2991.98,-961.24z"/>
   <path class="fil2" d="M7598.73 4536c1897.51,0 3435.74,1538.23 3435.74,3435.72 0,1897.51 -1538.23,3435.74 -3435.74,3435.74 -1897.49,0 -3435.72,-1538.23 -3435.72,-3435.74 0,-1897.49 1538.23,-3435.72 3435.72,-3435.72zm-2295.76 -3915.94c314.15,-45.73 642.99,-81.78 980.32,-108.1l1350.72 3468.9c-11.77,-0.1 -23.48,-0.45 -35.27,-0.45 -1059.67,0 -2022.74,413.1 -2737.36,1086.85l-1544.93 -3947.21c606.96,-233.28 1234.08,-390.47 1986.52,-499.99zm3886.55 -88.26c255.98,23.69 506.09,53.12 747.52,88.26 837.6,121.91 1519.89,302.86 2191.96,582.14l-1650.78 4005.81c-587.68,-612.08 -1368.6,-1037.15 -2244.73,-1177.15l-268.18 -688.74 1224.21 -2810.32z"/>
   <path class="fil2" d="M5272.5 527.99c610.21,-88.82 1275.11,-141.62 1950.58,-157.99l0 -2.47c131.94,-2.36 264.13,-3.35 396.24,-2.95l1.37 0c132.12,-0.4 264.31,0.58 396.24,2.95l0 2.47c675.47,16.37 1340.37,69.17 1950.59,157.99 1183.59,172.28 2061.1,460.89 3031.33,973.89 379.93,200.88 632.68,514.2 748.57,928.05 553.9,1977.94 601.43,4534.6 -359.94,6781.46 -1036.17,2421.7 -2970.08,4226.45 -5288.06,5418.02l-82.49 42.4 0 0.18 -19.28 9.73 -374.16 192.34 -3.47 1.45 -3.5 -1.45 -374.16 -192.34 -19.28 -9.73 0 -0.18 -82.49 -42.4c-2317.98,-1191.57 -4251.89,-2996.32 -5288.05,-5418.02 -961.38,-2246.86 -913.85,-4803.52 -359.95,-6781.46 115.9,-413.85 368.64,-727.17 748.58,-928.05 970.22,-513 1847.74,-801.61 3031.33,-973.89zm151.33 1039.69c-1063.03,154.73 -2023.76,454.89 -2852.19,943.01 -1334,4290.73 309.12,8747.6 5049.28,11184.3 4789.49,-2416.98 6493.14,-6893.57 5159.14,-11184.3 -810,-477.25 -1746.44,-774.83 -2781.36,-932.47 -1360.59,-207.25 -3211.6,-208.97 -4574.87,-10.54z"/>
   <path class="fil3" d="M8578.63 5491.23l0 57.4c355.86,0 496.12,342.11 284.63,497.8 -198.82,146.37 -834.71,-80.02 -1053.26,-166.62 -464.49,-184.08 -1131.01,-384.71 -1555.83,-0.57 -371.41,335.85 -467.92,934.78 99.08,1244.64l26.5 -55.19c-131.61,-73.46 -171.39,-286.44 -57.83,-440.51 156.98,-212.99 415.12,-128.92 628.75,-85.79 501.42,101.21 1157.51,411.46 1627.84,390.51l0.11 880.85 -397.57 333.36 0 27.6 397.58 333.36 0 1197.44c-573.66,394.76 -1424.18,67.42 -1660.06,-278.92l1051.93 -546.74 23.87 -1894 -1350.71 632.52c148.25,-331.73 388.59,-610.79 689.29,-800.21l-26.5 -55.19c-853.21,215.34 -1468.52,991.14 -1510.84,1904.1 1.67,681.82 341.68,1280.77 854.43,1624.53 669.63,448.9 1585.11,414.41 2185.75,-151.38 346.02,-325.97 516.19,-720.74 564.53,-1335.17l-53.01 -0.02c-139.28,351.96 -380.51,651.17 -689.13,855.38l-0.02 -1131.34 424.09 -358.76 0 -27.6 -423 -333.36 0 -878.7c12.51,0.62 25.18,1 37.76,1 214.06,0 423.7,-76.71 558.35,-228.04 451.04,-506.88 115.82,-1212.38 -676.73,-1212.38zm-1404.82 3700.16l-318.08 165.58c-96.67,-68.6 -547.61,-844.42 -237.45,-1653.68l556.63 -248.36 -1.1 1736.46z"/>
  </g>
 </g>
</svg>
