<?xml version="1.0" encoding="UTF-8"?>
<!DOCTYPE svg PUBLIC "-//W3C//DTD SVG 1.1//EN" "http://www.w3.org/Graphics/SVG/1.1/DTD/svg11.dtd">
<!-- Creator: CorelDRAW -->
<svg xmlns="http://www.w3.org/2000/svg" xml:space="preserve" width="152.4mm" height="152.4mm" version="1.1" style="shape-rendering:geometricPrecision; text-rendering:geometricPrecision; image-rendering:optimizeQuality; fill-rule:evenodd; clip-rule:evenodd"
viewBox="0 0 15240 15240"
 xmlns:xlink="http://www.w3.org/1999/xlink"
 xmlns:xodm="http://www.corel.com/coreldraw/odm/2003">
 <defs>
  <style type="text/css">
   <![CDATA[
    .fil0 {fill:none}
    .fil1 {fill:#DD8B14}
    .fil2 {fill:#FFBF22}
    .fil3 {fill:#DD8B14;fill-rule:nonzero}
   ]]>
  </style>
 </defs>
 <g id="Capa_x0020_1">
  <metadata id="CorelCorpID_0Corel-Layer"/>
  <g id="_3018113190928">
   <rect class="fil0" x="-0" y="-0" width="15240" height="15240"/>
   <ellipse id="contour" class="fil1" cx="7620.01" cy="7620" rx="7200.69" ry="7200.73"/>
   <path id="contour_158" class="fil2" d="M7620.01 364.25c4007.22,0 7255.71,3248.52 7255.71,7255.75 0,4007.22 -3248.49,7255.74 -7255.71,7255.74 -4007.22,0 -7255.7,-3248.52 -7255.7,-7255.74 0,-4007.23 3248.48,-7255.75 7255.7,-7255.75zm-0.06 985.8c3462.82,0 6270.01,2807.18 6270.01,6270 0,3462.82 -2807.19,6270.01 -6270.01,6270.01 -3462.82,0 -6270,-2807.19 -6270,-6270.01 0,-3462.82 2807.18,-6270 6270,-6270z"/>
   <path class="fil2" d="M7571.82 6082.38c1850.27,0 3350.21,1493.42 3350.21,3335.63 0,1842.23 -1499.94,3335.65 -3350.21,3335.65 -1850.25,0 -3350.18,-1493.42 -3350.18,-3335.65 0,-1842.21 1499.93,-3335.63 3350.18,-3335.63zm1584.37 -3963.4c968.22,269.82 1832.66,788.35 2520.34,1482.41l-1296.9 3133.42c-573.05,-594.24 -1334.53,-1006.93 -2188.85,-1142.85l-261.5 -668.68 1226.91 -2804.3zm-5476.54 1368.11c707.98,-675.21 1589.36,-1169.94 2570.36,-1411.55l1356.22 3467.87c-11.48,-0.09 -22.9,-0.43 -34.4,-0.43 -1033.28,0 -1972.38,401.06 -2669.21,1055.18l-1222.97 -3111.07z"/>
   <path class="fil3" d="M8527.33 7009.78l0 55.73c346.99,0 483.77,332.14 277.54,483.3 -193.87,142.1 -813.93,-77.69 -1027.04,-161.77 -452.92,-178.71 -1102.84,-373.5 -1517.09,-0.55 -362.17,326.06 -456.27,907.55 96.61,1208.38l25.85 -53.58c-128.34,-71.32 -167.13,-278.1 -56.4,-427.68 153.08,-206.78 404.79,-125.16 613.1,-83.29 488.93,98.26 1128.69,399.47 1587.31,379.13l0.11 855.19 -387.68 323.65 0 26.8 387.69 323.65 0 1162.56c-559.38,383.25 -1388.72,65.44 -1618.74,-270.8l1025.74 -530.82 23.28 -1838.82 -1317.08 614.1c144.56,-322.07 378.92,-593.01 672.14,-776.9l-25.85 -53.59c-831.97,209.07 -1431.96,962.27 -1473.22,1848.63 1.63,661.97 333.17,1243.46 833.16,1577.21 652.95,435.82 1545.64,402.34 2131.32,-146.98 337.41,-316.47 503.34,-699.74 550.48,-1296.26l-51.69 -0.03c-135.81,341.71 -371.03,632.21 -671.98,830.47l-0.01 -1098.39 413.53 -348.31 0 -26.79 -412.47 -323.65 0 -853.1c12.2,0.6 24.56,0.98 36.82,0.98 208.73,0 413.15,-74.48 544.45,-221.41 439.81,-492.11 112.94,-1177.06 -659.88,-1177.06zm-1369.85 3592.37l-310.15 160.75c-94.27,-66.6 -533.99,-819.82 -231.54,-1605.49l542.77 -241.13 -1.08 1685.87z"/>
  </g>
 </g>
</svg>
