<?xml version="1.0" encoding="UTF-8"?>
<!DOCTYPE svg PUBLIC "-//W3C//DTD SVG 1.1//EN" "http://www.w3.org/Graphics/SVG/1.1/DTD/svg11.dtd">
<!-- Creator: CorelDRAW -->
<svg xmlns="http://www.w3.org/2000/svg" xml:space="preserve" width="152.4mm" height="152.4mm" version="1.1" style="shape-rendering:geometricPrecision; text-rendering:geometricPrecision; image-rendering:optimizeQuality; fill-rule:evenodd; clip-rule:evenodd"
viewBox="0 0 15240 15240"
 xmlns:xlink="http://www.w3.org/1999/xlink"
 xmlns:xodm="http://www.corel.com/coreldraw/odm/2003">
 <defs>
  <style type="text/css">
   <![CDATA[
    .fil0 {fill:none}
    .fil1 {fill:#006837}
    .fil2 {fill:#8BC53E}
   ]]>
  </style>
 </defs>
 <g id="Capa_x0020_1">
  <metadata id="CorelCorpID_0Corel-Layer"/>
  <g id="_3018194227856">
   <rect class="fil0" x="-0" y="-0" width="15240" height="15240"/>
   <path class="fil1" d="M5302.97 620.06c602.29,-87.67 1258.56,-139.78 1925.26,-155.94l0 -2.44c130.23,-2.33 260.7,-3.31 391.1,-2.91l1.35 0c130.4,-0.4 260.88,0.57 391.1,2.91l0 2.44c666.7,16.16 1322.97,68.27 1925.26,155.94 1168.23,170.04 2034.35,454.91 2991.98,961.24 375,198.28 624.47,507.53 738.86,916.01 546.7,1952.26 593.62,4475.73 -355.27,6693.43 -1022.72,2390.25 -2931.53,4171.57 -5219.41,5347.67l-81.42 41.85 0 0.18 -19.03 9.6 -369.3 189.85 -3.43 1.43 -3.46 -1.43 -369.29 -189.85 -19.04 -9.6 0 -0.18 -81.42 -41.85c-2287.88,-1176.1 -4196.69,-2957.42 -5219.4,-5347.67 -948.9,-2217.7 -901.98,-4741.17 -355.27,-6693.43 114.39,-408.48 363.85,-717.73 738.85,-916.01 957.63,-506.33 1823.76,-791.2 2991.98,-961.24z"/>
   <path class="fil2" d="M5272.5 527.99c610.21,-88.82 1275.11,-141.62 1950.58,-157.99l0 -2.47c131.94,-2.36 264.13,-3.35 396.24,-2.95l1.37 0c132.12,-0.4 264.31,0.58 396.24,2.95l0 2.47c675.47,16.37 1340.37,69.17 1950.59,157.99 1183.59,172.28 2061.1,460.89 3031.33,973.89 379.93,200.88 632.68,514.2 748.57,928.05 553.9,1977.94 601.43,4534.6 -359.94,6781.46 -1036.17,2421.7 -2970.08,4226.45 -5288.06,5418.02l-82.49 42.4 0 0.18 -19.28 9.73 -374.16 192.34 -3.47 1.45 -3.5 -1.45 -374.16 -192.34 -19.28 -9.73 0 -0.18 -82.49 -42.4c-2317.98,-1191.57 -4251.89,-2996.32 -5288.05,-5418.02 -961.38,-2246.86 -913.85,-4803.52 -359.95,-6781.46 115.9,-413.85 368.64,-727.17 748.58,-928.05 970.22,-513 1847.74,-801.61 3031.33,-973.89zm151.33 1039.69c-1063.03,154.73 -2023.76,454.89 -2852.19,943.01 -1334,4290.73 309.12,8747.6 5049.28,11184.3 4789.49,-2416.98 6493.14,-6893.57 5159.14,-11184.3 -810,-477.25 -1746.44,-774.83 -2781.36,-932.47 -1360.59,-207.25 -3211.6,-208.97 -4574.87,-10.54z"/>
   <path class="fil2" d="M4076.72 6294.77l599.28 -137.37 -455.55 1029.96 958.95 -219.82 455.56 -1029.96 1394.03 -319.55 -455.55 1029.96 884.39 -202.73 455.55 -1029.96 1354.56 -310.5 -455.55 1029.96 958.95 -219.82 455.56 -1029.96 102.14 -23.42c289.07,-66.26 579.8,116.04 646.07,405.11l909.02 3965.56c66.26,289.07 -116.04,579.81 -405.11,646.07l-6252.32 1433.21c-289.08,66.27 -579.81,-116.03 -646.07,-405.11l-909.02 -3965.56c-66.27,-289.07 116.03,-579.8 405.11,-646.07zm-585.03 -952.8l543.97 -331.91 -91.72 1156.3 -423.33 258.29 -208.38 -341.53c-154.47,-253.16 -73.72,-586.69 179.46,-741.15zm1340.12 -817.67l1201.64 -733.18 -91.72 1156.3 -1201.64 733.16 91.72 -1156.28zm1997.79 -1218.94l1216.24 -742.09 -91.7 1156.3 -1216.25 742.08 91.71 -1156.29zm2012.4 -1227.85l129.39 -78.95c253.17,-154.46 586.69,-73.71 741.16,179.45l208.38 341.53 -1170.64 714.25 91.71 -1156.28zm-3881.36 6007.33l235.48 328.91 379.58 -139.82c20.88,-7.7 43.09,-2.39 58.24,13.9 15.17,16.31 18.84,38.84 9.65,59.12l-167.12 368.39 310.89 258.81c17.1,14.24 23.61,36.12 17.07,57.39 -6.54,21.28 -24.21,35.73 -46.37,37.9l-402.59 39.48 -68.7 398.64c-3.78,21.93 -19.47,38.5 -41.17,43.48 -21.7,4.97 -43.04,-3.12 -56,-21.21l-235.48 -328.91 -379.59 139.82c-20.88,7.69 -43.09,2.38 -58.25,-13.92 -15.15,-16.3 -18.82,-38.84 -9.62,-59.1l167.11 -368.38 -310.89 -258.82c-17.1,-14.24 -23.61,-36.13 -17.07,-57.41 6.55,-21.27 24.23,-35.72 46.38,-37.89l402.58 -39.46 68.7 -398.64c3.79,-21.93 19.48,-38.51 41.17,-43.48 21.7,-4.97 43.05,3.11 56,21.2zm3573.91 -846.9l235.48 328.91 379.57 -139.82c20.89,-7.7 43.09,-2.39 58.25,13.9 15.16,16.3 18.84,38.84 9.64,59.11l-167.11 368.39 310.88 258.81c17.11,14.25 23.62,36.13 17.08,57.4 -6.54,21.28 -24.22,35.73 -46.37,37.9l-402.59 39.48 -68.7 398.64c-3.79,21.92 -19.48,38.5 -41.17,43.48 -21.7,4.97 -43.05,-3.12 -56,-21.21l-235.48 -328.91 -379.59 139.82c-20.89,7.69 -43.09,2.38 -58.25,-13.92 -15.15,-16.3 -18.82,-38.84 -9.63,-59.1l167.12 -368.38 -310.89 -258.82c-17.11,-14.25 -23.61,-36.13 -17.07,-57.41 6.55,-21.27 24.22,-35.72 46.38,-37.89l402.58 -39.47 68.7 -398.63c3.78,-21.93 19.48,-38.51 41.17,-43.48 21.7,-4.98 43.04,3.11 56,21.2zm1815.34 -416.13l235.47 328.92 379.58 -139.83c20.89,-7.7 43.09,-2.38 58.25,13.91 15.16,16.3 18.83,38.84 9.64,59.11l-167.11 368.39 310.88 258.81c17.11,14.24 23.61,36.12 17.08,57.39 -6.55,21.28 -24.22,35.73 -46.38,37.9l-402.58 39.48 -68.71 398.64c-3.78,21.93 -19.47,38.51 -41.17,43.48 -21.7,4.97 -43.04,-3.11 -56,-21.21l-235.48 -328.91 -379.59 139.82c-20.88,7.7 -43.08,2.39 -58.24,-13.92 -15.15,-16.3 -18.83,-38.84 -9.63,-59.1l167.11 -368.38 -310.88 -258.82c-17.11,-14.24 -23.62,-36.13 -17.07,-57.41 6.54,-21.26 24.22,-35.71 46.37,-37.89l402.58 -39.46 68.7 -398.64c3.79,-21.93 19.48,-38.51 41.18,-43.48 21.69,-4.97 43.04,3.11 56,21.2zm-3608.3 854.79l235.48 328.91 379.57 -139.82c20.89,-7.7 43.09,-2.39 58.25,13.9 15.16,16.3 18.83,38.84 9.64,59.11l-167.11 368.39 310.88 258.81c17.11,14.25 23.61,36.12 17.08,57.4 -6.55,21.28 -24.22,35.73 -46.37,37.9l-402.59 39.48 -68.71 398.63c-3.78,21.93 -19.47,38.51 -41.17,43.48 -21.69,4.98 -43.04,-3.11 -56,-21.2l-235.47 -328.91 -379.59 139.82c-20.89,7.69 -43.09,2.38 -58.25,-13.92 -15.15,-16.3 -18.83,-38.84 -9.63,-59.1l167.11 -368.38 -310.88 -258.82c-17.11,-14.25 -23.62,-36.14 -17.07,-57.41 6.55,-21.27 24.22,-35.72 46.37,-37.89l402.58 -39.47 68.71 -398.64c3.78,-21.92 19.47,-38.5 41.17,-43.47 21.69,-4.98 43.04,3.11 56,21.2z"/>
  </g>
 </g>
</svg>
