<?xml version="1.0" encoding="UTF-8"?>
<!DOCTYPE svg PUBLIC "-//W3C//DTD SVG 1.1//EN" "http://www.w3.org/Graphics/SVG/1.1/DTD/svg11.dtd">
<!-- Creator: CorelDRAW -->
<svg xmlns="http://www.w3.org/2000/svg" xml:space="preserve" width="152.4mm" height="152.4mm" version="1.1" style="shape-rendering:geometricPrecision; text-rendering:geometricPrecision; image-rendering:optimizeQuality; fill-rule:evenodd; clip-rule:evenodd"
viewBox="0 0 15240 15240"
 xmlns:xlink="http://www.w3.org/1999/xlink"
 xmlns:xodm="http://www.corel.com/coreldraw/odm/2003">
 <defs>
  <style type="text/css">
   <![CDATA[
    .fil0 {fill:none}
    .fil1 {fill:#006837}
    .fil2 {fill:#8BC53E}
   ]]>
  </style>
 </defs>
 <g id="Capa_x0020_1">
  <metadata id="CorelCorpID_0Corel-Layer"/>
  <g id="_3017453172368">
   <rect class="fil0" x="-0" y="-0" width="15240" height="15240"/>
   <ellipse id="contour" class="fil1" cx="7620.01" cy="7620" rx="7200.69" ry="7200.73"/>
   <path id="contour_156" class="fil2" d="M7620.01 364.25c4007.22,0 7255.71,3248.52 7255.71,7255.75 0,4007.22 -3248.49,7255.74 -7255.71,7255.74 -4007.22,0 -7255.7,-3248.52 -7255.7,-7255.74 0,-4007.23 3248.48,-7255.75 7255.7,-7255.75zm-0.06 985.8c3462.82,0 6270.01,2807.18 6270.01,6270 0,3462.82 -2807.19,6270.01 -6270.01,6270.01 -3462.82,0 -6270,-2807.19 -6270,-6270.01 0,-3462.82 2807.18,-6270 6270,-6270z"/>
   <path class="fil2" d="M3670.52 6967.02l658.19 -150.87 -500.33 1131.18 1053.2 -241.42 500.32 -1131.19 1531.04 -350.95 -500.32 1131.18 971.3 -222.65 500.33 -1131.19 1487.68 -341.02 -500.32 1131.19 1053.2 -241.43 500.32 -1131.18 112.18 -25.71c317.48,-72.78 636.79,127.44 709.56,444.92l998.36 4355.28c72.77,317.49 -127.44,636.79 -444.93,709.57l-6866.78 1574.06c-317.48,72.78 -636.79,-127.44 -709.57,-444.92l-998.35 -4355.28c-72.78,-317.49 127.44,-636.79 444.92,-709.57zm-642.52 -1046.45l597.42 -364.52 -100.73 1269.94 -464.93 283.67 -228.86 -375.1c-169.65,-278.04 -80.96,-644.34 197.1,-813.99zm1471.83 -898.03l1319.73 -805.22 -100.73 1269.93 -1319.74 805.22 100.74 -1269.93zm2194.12 -1338.73l1335.78 -815.02 -100.72 1269.94 -1335.78 815.01 100.72 -1269.93zm2210.18 -1348.52l142.1 -86.71c278.06,-169.64 644.35,-80.95 814,197.09l228.86 375.09 -1285.68 784.45 100.72 -1269.92zm-4262.81 6597.73l258.62 361.23 416.88 -153.57c22.94,-8.45 47.32,-2.62 63.97,15.28 16.65,17.9 20.69,42.65 10.59,64.92l-183.54 404.59 341.44 284.25c18.79,15.64 25.93,39.67 18.76,63.03 -7.19,23.37 -26.6,39.24 -50.93,41.63l-442.16 43.36 -75.45 437.81c-4.16,24.08 -21.39,42.29 -45.22,47.75 -23.83,5.47 -47.27,-3.42 -61.5,-23.28l-258.62 -361.24 -416.9 153.56c-22.94,8.45 -47.32,2.62 -63.97,-15.29 -16.64,-17.9 -20.68,-42.65 -10.58,-64.91l183.54 -404.58 -341.44 -284.26c-18.79,-15.64 -25.93,-39.68 -18.74,-63.05 7.19,-23.36 26.6,-39.23 50.93,-41.61l442.14 -43.35 75.46 -437.81c4.15,-24.08 21.39,-42.29 45.22,-47.75 23.82,-5.47 47.27,3.42 61.5,23.29zm3925.14 -930.14l258.62 361.24 416.88 -153.57c22.94,-8.45 47.33,-2.62 63.97,15.27 16.65,17.9 20.69,42.66 10.59,64.92l-183.53 404.6 341.43 284.24c18.79,15.65 25.94,39.67 18.76,63.04 -7.19,23.37 -26.6,39.24 -50.93,41.62l-442.15 43.36 -75.46 437.82c-4.15,24.08 -21.39,42.29 -45.22,47.75 -23.83,5.46 -47.27,-3.42 -61.5,-23.29l-258.62 -361.23 -416.89 153.55c-22.94,8.46 -47.33,2.62 -63.98,-15.28 -16.64,-17.91 -20.67,-42.66 -10.57,-64.91l183.54 -404.59 -341.44 -284.25c-18.79,-15.65 -25.94,-39.68 -18.75,-63.05 7.19,-23.36 26.6,-39.23 50.93,-41.61l442.15 -43.35 75.45 -437.82c4.16,-24.08 21.39,-42.29 45.22,-47.75 23.83,-5.46 47.27,3.42 61.5,23.29zm1993.75 -457.02l258.62 361.23 416.88 -153.56c22.94,-8.45 47.32,-2.62 63.97,15.27 16.65,17.9 20.68,42.66 10.58,64.92l-183.53 404.6 341.44 284.24c18.78,15.64 25.93,39.67 18.75,63.04 -7.19,23.36 -26.6,39.24 -50.93,41.62l-442.15 43.36 -75.46 437.81c-4.15,24.09 -21.39,42.3 -45.21,47.76 -23.83,5.46 -47.28,-3.42 -61.51,-23.29l-258.62 -361.24 -416.89 153.56c-22.94,8.45 -47.33,2.62 -63.98,-15.28 -16.63,-17.91 -20.67,-42.66 -10.57,-64.91l183.54 -404.59 -341.44 -284.26c-18.79,-15.64 -25.94,-39.68 -18.75,-63.05 7.19,-23.35 26.6,-39.22 50.93,-41.61l442.15 -43.34 75.45 -437.82c4.16,-24.08 21.39,-42.29 45.22,-47.75 23.83,-5.46 47.28,3.42 61.51,23.29zm-3962.92 938.79l258.62 361.24 416.88 -153.57c22.94,-8.45 47.32,-2.62 63.97,15.27 16.65,17.9 20.69,42.66 10.59,64.92l-183.53 404.6 341.43 284.24c18.79,15.65 25.94,39.67 18.76,63.04 -7.19,23.37 -26.6,39.24 -50.93,41.62l-442.16 43.36 -75.45 437.82c-4.16,24.08 -21.39,42.29 -45.22,47.75 -23.83,5.46 -47.27,-3.42 -61.5,-23.29l-258.62 -361.24 -416.9 153.56c-22.94,8.46 -47.32,2.62 -63.97,-15.28 -16.64,-17.91 -20.68,-42.66 -10.57,-64.91l183.53 -404.59 -341.44 -284.25c-18.78,-15.65 -25.93,-39.69 -18.74,-63.05 7.19,-23.36 26.6,-39.23 50.93,-41.61l442.14 -43.35 75.46 -437.82c4.15,-24.08 21.39,-42.29 45.22,-47.75 23.83,-5.46 47.27,3.42 61.5,23.29z"/>
  </g>
 </g>
</svg>
