<?xml version="1.0" encoding="UTF-8"?>
<!DOCTYPE svg PUBLIC "-//W3C//DTD SVG 1.1//EN" "http://www.w3.org/Graphics/SVG/1.1/DTD/svg11.dtd">
<!-- Creator: CorelDRAW -->
<svg xmlns="http://www.w3.org/2000/svg" xml:space="preserve" width="152.4mm" height="152.4mm" version="1.1" style="shape-rendering:geometricPrecision; text-rendering:geometricPrecision; image-rendering:optimizeQuality; fill-rule:evenodd; clip-rule:evenodd"
viewBox="0 0 15240 15240"
 xmlns:xlink="http://www.w3.org/1999/xlink"
 xmlns:xodm="http://www.corel.com/coreldraw/odm/2003">
 <defs>
  <style type="text/css">
   <![CDATA[
    .fil0 {fill:none}
    .fil1 {fill:#4EC6DF}
    .fil2 {fill:#E2E3E4}
   ]]>
  </style>
 </defs>
 <g id="Capa_x0020_1">
  <metadata id="CorelCorpID_0Corel-Layer"/>
  <g id="_2981914847120">
   <rect class="fil0" x="-0" y="-0" width="15240" height="15240"/>
   <ellipse id="contour" class="fil1" cx="7620.01" cy="7620" rx="7200.69" ry="7200.73"/>
   <path id="contour_46" class="fil2" d="M7620.01 364.25c4007.22,0 7255.71,3248.52 7255.71,7255.75 0,4007.22 -3248.49,7255.74 -7255.71,7255.74 -4007.22,0 -7255.7,-3248.52 -7255.7,-7255.74 0,-4007.23 3248.48,-7255.75 7255.7,-7255.75zm-0.06 985.8c3462.82,0 6270.01,2807.18 6270.01,6270 0,3462.82 -2807.19,6270.01 -6270.01,6270.01 -3462.82,0 -6270,-2807.19 -6270,-6270.01 0,-3462.82 2807.18,-6270 6270,-6270z"/>
   <path class="fil2" d="M6412.54 2724.42c1819.32,0 3294.15,1013.91 3294.15,2264.61 0,1250.7 -1474.83,2264.6 -3294.15,2264.6 -295.91,0 -647.24,-38.48 -920.06,-88.81 -343.45,537.29 -742.15,804.68 -1545.91,777.39 395.12,-268.09 510.25,-675.11 512.16,-1129.9 -812.93,-412.39 -1340.34,-1075.46 -1340.34,-1823.28 0,-1250.7 1474.82,-2264.61 3294.15,-2264.61z"/>
   <path class="fil2" d="M11269.77 6267.04c1022.72,0 1851.8,569.97 1851.8,1273.05 0,703.07 -829.08,1273.04 -1851.8,1273.04 -166.35,0 -363.85,-21.63 -517.21,-49.93 -193.07,302.04 -417.2,452.35 -869.03,437.01 222.11,-150.7 286.84,-379.51 287.91,-635.17 -456.99,-231.82 -753.47,-604.57 -753.47,-1024.95 0,-703.08 829.07,-1273.05 1851.8,-1273.05z"/>
   <path class="fil2" d="M9465.72 10327.3c760.49,0 1376.97,423.82 1376.97,946.62 0,522.8 -616.48,946.62 -1376.97,946.62 -123.69,0 -270.55,-16.09 -384.59,-37.13 -143.56,224.59 -310.22,336.36 -646.19,324.96 165.16,-112.07 213.28,-282.2 214.08,-472.31 -339.81,-172.38 -560.27,-449.55 -560.27,-762.14 0,-522.8 616.48,-946.62 1376.97,-946.62z"/>
   <path class="fil2" d="M5185.29 8646.96c-1029.28,0 -1863.67,573.62 -1863.67,1281.2 0,707.59 834.39,1281.21 1863.67,1281.21 167.4,0 366.17,-21.77 520.52,-50.25 194.3,303.97 419.87,455.25 874.59,439.81 -223.53,-151.67 -288.67,-381.95 -289.75,-639.24 459.92,-233.31 758.3,-608.44 758.3,-1031.53 0,-707.58 -834.38,-1281.2 -1863.66,-1281.2z"/>
   <path class="fil2" d="M7781.4 7793.54c535.54,-196.13 1078.98,-56.66 1213.8,311.5 134.83,368.16 -190,825.6 -725.54,1021.73 -87.11,31.9 -194.67,58.44 -280.41,73.04 -43.17,195.18 -131.71,316.87 -371.25,395.48 87.41,-121.51 77.42,-253.73 28.96,-387.81 -283.76,-33.76 -510.49,-172.08 -591.11,-392.21 -134.82,-368.16 190.01,-825.61 725.55,-1021.73z"/>
  </g>
 </g>
</svg>
