<?xml version="1.0" encoding="UTF-8"?>
<!DOCTYPE svg PUBLIC "-//W3C//DTD SVG 1.1//EN" "http://www.w3.org/Graphics/SVG/1.1/DTD/svg11.dtd">
<!-- Creator: CorelDRAW -->
<svg xmlns="http://www.w3.org/2000/svg" xml:space="preserve" width="152.4mm" height="152.4mm" version="1.1" style="shape-rendering:geometricPrecision; text-rendering:geometricPrecision; image-rendering:optimizeQuality; fill-rule:evenodd; clip-rule:evenodd"
viewBox="0 0 15240 15240"
 xmlns:xlink="http://www.w3.org/1999/xlink"
 xmlns:xodm="http://www.corel.com/coreldraw/odm/2003">
 <defs>
  <style type="text/css">
   <![CDATA[
    .fil0 {fill:none}
    .fil2 {fill:#444446}
    .fil1 {fill:#BDD530}
    .fil3 {fill:white}
   ]]>
  </style>
 </defs>
 <g id="Capa_x0020_1">
  <metadata id="CorelCorpID_0Corel-Layer"/>
  <g id="_2154676414864">
   <rect class="fil0" x="-0" y="-0" width="15240" height="15240"/>
   <ellipse id="contour" class="fil1" cx="7620.01" cy="7620" rx="7200.69" ry="7200.73"/>
   <path id="contour_5" class="fil2" d="M7620.01 364.25c4007.22,0 7255.71,3248.52 7255.71,7255.75 0,4007.22 -3248.49,7255.74 -7255.71,7255.74 -4007.22,0 -7255.7,-3248.52 -7255.7,-7255.74 0,-4007.23 3248.48,-7255.75 7255.7,-7255.75zm-0.06 985.8c3462.82,0 6270.01,2807.18 6270.01,6270 0,3462.82 -2807.19,6270.01 -6270.01,6270.01 -3462.82,0 -6270,-2807.19 -6270,-6270.01 0,-3462.82 2807.18,-6270 6270,-6270z"/>
   <path class="fil2" d="M2019.72 6171.93l12.83 744.36c85.32,-13.2 148.02,25.72 194.31,84.91 131.21,167.81 219.94,862.85 281.44,1104.02 178.69,700.64 448.63,1205.01 971.83,1451.72 521.32,245.8 1579.75,235.22 2111.88,31.23 1072.51,-411.14 1126.54,-1072.15 1494.14,-1879.58 103.13,-226.51 241.96,-404.11 485.79,-439.39 243.83,35.28 382.66,212.88 485.79,439.39 367.6,807.43 421.63,1468.44 1494.14,1879.58 532.13,203.99 1590.56,214.57 2111.88,-31.23 523.2,-246.71 793.14,-751.08 971.83,-1451.72 61.5,-241.17 150.23,-936.21 281.44,-1104.02 46.29,-59.19 108.99,-98.11 194.31,-84.91l12.83 -744.36c-2995.85,-567.96 -3759.73,156.95 -5552.22,286.03 -1792.49,-129.08 -2556.37,-853.99 -5552.22,-286.03zm7690.28 359.54c-393.23,66.12 -782.74,192.05 -954.43,422.25 -320.39,429.58 -17.03,1271.67 251.38,1676.73 254.69,384.38 624.18,612.92 1197.11,680.76 602.01,71.29 1292.6,-39.36 1568.89,-356.93 196.05,-225.36 321.6,-572.19 384.86,-1025.49 52.72,-376.54 23.95,-768.38 -40.37,-999.75 -74.68,-268.63 -261.4,-324.5 -525.05,-394.04 -450.87,-118.92 -1405.29,-83.74 -1882.39,-3.53zm-4276.12 0c393.23,66.12 782.74,192.05 954.43,422.25 320.39,429.58 17.03,1271.67 -251.38,1676.73 -254.69,384.38 -624.18,612.92 -1197.11,680.76 -602.01,71.29 -1292.6,-39.36 -1568.89,-356.93 -196.05,-225.36 -321.6,-572.19 -384.86,-1025.49 -52.72,-376.54 -23.95,-768.38 40.37,-999.75 74.68,-268.63 261.4,-324.5 525.05,-394.04 450.87,-118.92 1405.29,-83.74 1882.39,-3.53zm-3007.21 -42.98c132.29,0 239.53,43.84 239.53,97.92 0,54.08 -107.24,97.92 -239.53,97.92 -132.29,0 -239.53,-43.84 -239.53,-97.92 0,-54.08 107.24,-97.92 239.53,-97.92zm10301.15 84.81c132.29,0 239.53,43.84 239.53,97.92 0,54.08 -107.24,97.92 -239.53,97.92 -132.29,0 -239.53,-43.84 -239.53,-97.92 0,-54.08 107.24,-97.92 239.53,-97.92z"/>
   <rect class="fil3" x="7134.73" y="6124.23" width="981.6" height="1465.08" rx="584.2" ry="569.38"/>
  </g>
 </g>
</svg>
