<?xml version="1.0" encoding="UTF-8"?>
<!DOCTYPE svg PUBLIC "-//W3C//DTD SVG 1.1//EN" "http://www.w3.org/Graphics/SVG/1.1/DTD/svg11.dtd">
<!-- Creator: CorelDRAW -->
<svg xmlns="http://www.w3.org/2000/svg" xml:space="preserve" width="152.4mm" height="152.4mm" version="1.1" style="shape-rendering:geometricPrecision; text-rendering:geometricPrecision; image-rendering:optimizeQuality; fill-rule:evenodd; clip-rule:evenodd"
viewBox="0 0 15240 15240"
 xmlns:xlink="http://www.w3.org/1999/xlink"
 xmlns:xodm="http://www.corel.com/coreldraw/odm/2003">
 <defs>
  <style type="text/css">
   <![CDATA[
    .fil0 {fill:none}
    .fil1 {fill:#004F7F}
    .fil2 {fill:#FDBE55}
   ]]>
  </style>
 </defs>
 <g id="Capa_x0020_1">
  <metadata id="CorelCorpID_0Corel-Layer"/>
  <g id="_1788742606160">
   <rect class="fil0" x="-0" y="-0" width="15240" height="15240"/>
   <ellipse id="contour" class="fil1" cx="7620.01" cy="7620" rx="7255.7" ry="7255.74"/>
   <path id="contour_67" class="fil2" d="M7620.01 364.25c4007.22,0 7255.71,3248.52 7255.71,7255.75 0,4007.22 -3248.49,7255.74 -7255.71,7255.74 -4007.22,0 -7255.7,-3248.52 -7255.7,-7255.74 0,-4007.23 3248.48,-7255.75 7255.7,-7255.75zm-0.06 985.8c3462.82,0 6270.01,2807.18 6270.01,6270 0,3462.82 -2807.19,6270.01 -6270.01,6270.01 -3462.82,0 -6270,-2807.19 -6270,-6270.01 0,-3462.82 2807.18,-6270 6270,-6270z"/>
   <path class="fil2" d="M7041.9 4905.31l5607.23 696.49c113.98,14.16 198.76,108.69 200.48,223.53l36.98 2467.87c1.73,115.39 -81.08,212.8 -195.24,229.67l-5627.5 831.77c-67.96,10.04 -130.4,-8.02 -182.5,-52.8 -52.1,-44.77 -79.34,-103.79 -79.63,-172.49l-16.71 -3996.12c-0.29,-68.11 25.97,-126.84 76.92,-172.04 50.94,-45.2 112.39,-64.28 179.97,-55.88zm-480.09 3408.24l-2751.62 0.77c-417.9,0.11 -992.76,-27.95 -1249.81,373.11 -146.22,228.11 -70.27,508.94 132.74,723.09 305.63,322.42 911.66,506.41 1397.46,540.01 412.92,57.91 797.42,207.42 979.12,345.72 178.49,135.86 206.7,482.94 296.23,783.05 194.43,651.84 859.93,666.78 1400.97,435.01 885.13,-379.18 1128.8,-978.36 2118.18,-1014.27 551.1,-20 1050.32,83.07 1440.05,61.91 738.72,-40.09 542.53,-365.29 889.48,-701.27 190.42,-184.4 488.99,-248.67 715,-357.09 273.8,-131.34 417.78,-305.55 97.4,-491.23 -205.26,-118.97 -514.48,-146.13 -564.48,-158.71l-4369.44 698.84c-124.99,19.98 -246.09,-16.47 -342.1,-98.97 -96.07,-82.57 -148.74,-196.64 -149.27,-323.33l-3.42 -818.38 -36.49 1.74zm714.31 -2923.93l-13.03 3426.85c3055.7,-627.38 5286.07,-1452.44 5003.46,-2879.6l-4990.43 -547.25z"/>
  </g>
 </g>
</svg>
