<?xml version="1.0" encoding="UTF-8"?>
<!DOCTYPE svg PUBLIC "-//W3C//DTD SVG 1.1//EN" "http://www.w3.org/Graphics/SVG/1.1/DTD/svg11.dtd">
<!-- Creator: CorelDRAW -->
<svg xmlns="http://www.w3.org/2000/svg" xml:space="preserve" width="152.4mm" height="152.4mm" version="1.1" style="shape-rendering:geometricPrecision; text-rendering:geometricPrecision; image-rendering:optimizeQuality; fill-rule:evenodd; clip-rule:evenodd"
viewBox="0 0 15240 15240"
 xmlns:xlink="http://www.w3.org/1999/xlink"
 xmlns:xodm="http://www.corel.com/coreldraw/odm/2003">
 <defs>
  <style type="text/css">
   <![CDATA[
    .fil0 {fill:none}
    .fil1 {fill:#004F7F}
    .fil2 {fill:#FDBE55}
   ]]>
  </style>
 </defs>
 <g id="Capa_x0020_1">
  <metadata id="CorelCorpID_0Corel-Layer"/>
  <g id="_1752533251760">
   <rect class="fil0" x="-0" y="-0" width="15240" height="15240"/>
   <path class="fil1" d="M5272.5 527.99c610.21,-88.82 1275.11,-141.62 1950.58,-157.99l0 -2.47c131.94,-2.36 264.13,-3.35 396.24,-2.95l1.37 0c132.12,-0.4 264.31,0.58 396.24,2.95l0 2.47c675.47,16.37 1340.37,69.17 1950.59,157.99 1183.59,172.28 2061.1,460.89 3031.33,973.89 379.93,200.88 632.68,514.2 748.57,928.05 553.9,1977.94 601.43,4534.6 -359.94,6781.46 -1036.17,2421.7 -2970.08,4226.45 -5288.06,5418.02l-82.49 42.4 0 0.18 -19.28 9.73 -374.16 192.34 -3.47 1.45 -3.5 -1.45 -374.16 -192.34 -19.28 -9.73 0 -0.18 -82.49 -42.4c-2317.98,-1191.57 -4251.89,-2996.32 -5288.05,-5418.02 -961.38,-2246.86 -913.85,-4803.52 -359.95,-6781.46 115.9,-413.85 368.64,-727.17 748.58,-928.05 970.22,-513 1847.74,-801.61 3031.33,-973.89z"/>
   <path class="fil2" d="M5272.5 527.99c610.21,-88.82 1275.11,-141.62 1950.58,-157.99l0 -2.47c131.94,-2.36 264.13,-3.35 396.24,-2.95l1.37 0c132.12,-0.4 264.31,0.58 396.24,2.95l0 2.47c675.47,16.37 1340.37,69.17 1950.59,157.99 1183.59,172.28 2061.1,460.89 3031.33,973.89 379.93,200.88 632.68,514.2 748.57,928.05 553.9,1977.94 601.43,4534.6 -359.94,6781.46 -1036.17,2421.7 -2970.08,4226.45 -5288.06,5418.02l-82.49 42.4 0 0.18 -19.28 9.73 -374.16 192.34 -3.47 1.45 -3.5 -1.45 -374.16 -192.34 -19.28 -9.73 0 -0.18 -82.49 -42.4c-2317.98,-1191.57 -4251.89,-2996.32 -5288.05,-5418.02 -961.38,-2246.86 -913.85,-4803.52 -359.95,-6781.46 115.9,-413.85 368.64,-727.17 748.58,-928.05 970.22,-513 1847.74,-801.61 3031.33,-973.89zm151.33 1039.69c-1063.03,154.73 -2023.76,454.89 -2852.19,943.01 -1334,4290.73 309.12,8747.6 5049.28,11184.3 4789.49,-2416.98 6493.14,-6893.57 5159.14,-11184.3 -810,-477.25 -1746.44,-774.83 -2781.36,-932.47 -1360.59,-207.25 -3211.6,-208.97 -4574.87,-10.54z"/>
   <path class="fil2" d="M6974.97 4405.38l-11.36 2986.24c2662.82,-546.71 4606.41,-1265.69 4360.14,-2509.35l-4348.78 -476.89zm-836.49 2760.54l-2154.97 0.59c-327.28,0.08 -609.85,32.14 -724.83,312.61 -243.33,593.55 556.63,920.56 944.42,946.92 728.55,119.28 995.89,166.4 1125.79,818.12 58.43,293.11 255.98,439.18 498.85,465.87 509.6,56.01 768.56,-215.56 1060.69,-415.58 308.71,-211.39 565.66,-402.05 1069.55,-420 431.56,-15.38 746.47,63.88 1051.6,47.66 578.47,-30.77 374.17,-255.88 645.81,-514.44 149.06,-141.87 357.62,-191.47 534.56,-274.88 214.38,-101.05 301.74,-260.67 50.89,-403.54 -160.69,-91.52 -402.93,-61.69 -442.08,-71.38 -923.88,146.28 -2095.33,412.26 -2998.58,491.02 -201.28,17.55 -389.07,-0.3 -513.54,-105.44 -75.23,-63.55 -116.49,-151.37 -116.91,-248.89l-2.68 -629.98 -28.57 1.34zm632.38 -3182.58l4886.28 606.94c99.33,12.34 173.2,94.72 174.7,194.79l32.23 2150.56c1.51,100.56 -70.66,185.44 -170.14,200.14l-4903.94 724.83c-59.22,8.75 -113.63,-6.99 -159.03,-46.01 -45.4,-39.02 -69.14,-90.45 -69.39,-150.32l-14.57 -3482.31c-0.25,-59.35 22.64,-110.53 67.03,-149.92 44.39,-39.39 97.94,-56.02 156.83,-48.7z"/>
  </g>
 </g>
</svg>
