<?xml version="1.0" encoding="UTF-8"?>
<!DOCTYPE svg PUBLIC "-//W3C//DTD SVG 1.1//EN" "http://www.w3.org/Graphics/SVG/1.1/DTD/svg11.dtd">
<!-- Creator: CorelDRAW -->
<svg xmlns="http://www.w3.org/2000/svg" xml:space="preserve" width="113.647mm" height="113.647mm" version="1.1" style="shape-rendering:geometricPrecision; text-rendering:geometricPrecision; image-rendering:optimizeQuality; fill-rule:evenodd; clip-rule:evenodd"
viewBox="0 0 13122.96 13122.96"
 xmlns:xlink="http://www.w3.org/1999/xlink"
 xmlns:xodm="http://www.corel.com/coreldraw/odm/2003">
 <defs>
  <style type="text/css">
   <![CDATA[
    .fil1 {fill:none}
    .fil0 {fill:lightgrey}
   ]]>
  </style>
 </defs>
 <g id="Capa_x0020_1">
  <metadata id="CorelCorpID_0Corel-Layer"/>
  <g id="_1788433026224">
   <path class="fil0" d="M5080.62 2087.68c384.93,-56.04 804.38,-89.36 1230.46,-99.7l0 -1.55c83.23,-1.49 166.62,-2.1 249.96,-1.86l0.87 0c83.36,-0.24 166.74,0.37 249.96,1.86l0 1.55c426.12,10.33 845.55,43.66 1230.47,99.7 746.65,108.65 1300.21,290.72 1912.26,614.33 239.64,126.72 399.1,324.39 472.22,585.43 349.39,1247.75 379.39,2860.56 -227.07,4277.93 -653.65,1527.66 -1873.6,2666.14 -3335.85,3417.82l-52.03 26.73 0 0.12 -12.16 6.15 -236.03 121.33 -2.17 0.91 -2.23 -0.91 -236.03 -121.33 -12.16 -6.15 0 -0.12 -52.03 -26.73c-1462.25,-751.68 -2682.19,-1890.16 -3335.82,-3417.82 -606.47,-1417.37 -576.47,-3030.18 -227.05,-4277.93 73.1,-261.03 232.54,-458.71 472.21,-585.43 612.04,-323.61 1165.62,-505.68 1912.24,-614.33zm95.47 655.83c-670.58,97.62 -1276.65,286.96 -1799.24,594.9 -841.52,2706.7 195.02,5518.18 3185.2,7055.31 3021.34,-1524.69 4096.03,-4348.61 3254.51,-7055.31 -510.97,-301.06 -1101.68,-488.78 -1754.55,-588.25 -858.3,-130.71 -2025.94,-131.82 -2885.93,-6.65zm1496.32 1150.54l589.01 1235.73 1361.86 174.66c48.45,6.2 86.53,37.26 101.73,82.98 15.21,45.69 3.14,92.89 -32.23,126.07l-1000.07 938.92 253.29 1348.25c8.95,47.54 -9.69,93.04 -49.63,121.19 -39.94,28.2 -89.67,30.96 -132.6,7.39l-1200.23 -659.44 -1207.72 659.92c-42.97,23.49 -92.7,20.61 -132.57,-7.68 -39.9,-28.26 -58.41,-73.8 -49.34,-121.34l256.53 -1346.45 -1000.42 -942.4c-35.3,-33.27 -47.27,-80.47 -32.01,-126.14 15.27,-45.67 53.38,-76.66 101.86,-82.79l1365.84 -173.17 582.16 -1235.23c20.72,-43.99 62.85,-70.5 112.15,-70.62 49.28,-0.09 91.5,26.27 112.41,70.16z"/>
   <rect class="fil1" x="-0.01" y="-0" width="13122.95" height="13122.95"/>
  </g>
 </g>
</svg>
