<?xml version="1.0" encoding="UTF-8"?>
<!DOCTYPE svg PUBLIC "-//W3C//DTD SVG 1.1//EN" "http://www.w3.org/Graphics/SVG/1.1/DTD/svg11.dtd">
<!-- Creator: CorelDRAW -->
<svg xmlns="http://www.w3.org/2000/svg" xml:space="preserve" width="152.4mm" height="152.4mm" version="1.1" style="shape-rendering:geometricPrecision; text-rendering:geometricPrecision; image-rendering:optimizeQuality; fill-rule:evenodd; clip-rule:evenodd"
viewBox="0 0 15240 15240"
 xmlns:xlink="http://www.w3.org/1999/xlink"
 xmlns:xodm="http://www.corel.com/coreldraw/odm/2003">
 <defs>
  <style type="text/css">
   <![CDATA[
    .fil0 {fill:none}
    .fil2 {fill:#25A8E0}
    .fil1 {fill:#9F2064}
   ]]>
  </style>
 </defs>
 <g id="Capa_x0020_1">
  <metadata id="CorelCorpID_0Corel-Layer"/>
  <g id="_2981804124272">
   <rect class="fil0" x="-0" y="-0" width="15240" height="15240"/>
   <ellipse id="contour" class="fil1" cx="7620.01" cy="7620" rx="7200.69" ry="7200.73"/>
   <path id="contour_28" class="fil2" d="M7620.01 364.25c4007.22,0 7255.71,3248.52 7255.71,7255.75 0,4007.22 -3248.49,7255.74 -7255.71,7255.74 -4007.22,0 -7255.7,-3248.52 -7255.7,-7255.74 0,-4007.23 3248.48,-7255.75 7255.7,-7255.75zm-0.06 985.8c3462.82,0 6270.01,2807.18 6270.01,6270 0,3462.82 -2807.19,6270.01 -6270.01,6270.01 -3462.82,0 -6270,-2807.19 -6270,-6270.01 0,-3462.82 2807.18,-6270 6270,-6270z"/>
   <path class="fil2" d="M3648.91 4967.83l2110.59 0 322.73 -777.45c47.26,-113.83 99.51,-224.56 221.18,-224.56l2671.51 0c121.67,0 175.55,110.08 221.18,224.56l309.78 777.45 2091.06 0c121.66,0 221.21,101.06 221.21,224.59l0 5132.92c0,123.53 -99.55,224.59 -221.21,224.59l-7948.03 0c-121.67,0 -221.21,-101.06 -221.21,-224.59l0 -5132.92c0,-123.53 99.54,-224.59 221.21,-224.59zm5132.53 2952.07c0,643.49 -514.4,1165.47 -1148.52,1165.47 -634.18,0 -1148.58,-521.98 -1148.58,-1165.47 0,-643.5 514.4,-1165.47 1148.58,-1165.47 634.12,0 1148.52,521.97 1148.52,1165.47zm300.84 0c0,-812.06 -649.13,-1470.76 -1449.36,-1470.76 -800.27,0 -1449.42,658.7 -1449.42,1470.76 0,812.05 649.15,1470.75 1449.42,1470.75 800.23,0 1449.36,-658.7 1449.36,-1470.75zm-1459.35 -1884.57c1015.45,0 1838.64,846.86 1838.64,1891.55 0,1044.69 -823.19,1891.55 -1838.64,1891.55 -1015.45,0 -1838.65,-846.86 -1838.65,-1891.55 0,-1044.69 823.2,-1891.55 1838.65,-1891.55z"/>
  </g>
 </g>
</svg>
