<?xml version="1.0" encoding="UTF-8"?>
<!DOCTYPE svg PUBLIC "-//W3C//DTD SVG 1.1//EN" "http://www.w3.org/Graphics/SVG/1.1/DTD/svg11.dtd">
<!-- Creator: CorelDRAW -->
<svg xmlns="http://www.w3.org/2000/svg" xml:space="preserve" width="152.4mm" height="152.4mm" version="1.1" style="shape-rendering:geometricPrecision; text-rendering:geometricPrecision; image-rendering:optimizeQuality; fill-rule:evenodd; clip-rule:evenodd"
viewBox="0 0 15240 15240"
 xmlns:xlink="http://www.w3.org/1999/xlink"
 xmlns:xodm="http://www.corel.com/coreldraw/odm/2003">
 <defs>
  <style type="text/css">
   <![CDATA[
    .fil0 {fill:none}
    .fil2 {fill:#EB3B26}
    .fil1 {fill:#FFDEAC}
    .fil4 {fill:#FFDEAC}
    .fil3 {fill:#EB3B26;fill-rule:nonzero}
   ]]>
  </style>
 </defs>
 <g id="Capa_x0020_1">
  <metadata id="CorelCorpID_0Corel-Layer"/>
  <g id="_2982672196704">
   <rect class="fil0" x="-0" y="-0" width="15240" height="15240"/>
   <ellipse id="contour" class="fil1" cx="7620.01" cy="7620" rx="7200.69" ry="7200.73"/>
   <path id="contour_138" class="fil2" d="M7620.01 364.25c4007.22,0 7255.71,3248.52 7255.71,7255.75 0,4007.22 -3248.49,7255.74 -7255.71,7255.74 -4007.22,0 -7255.7,-3248.52 -7255.7,-7255.74 0,-4007.23 3248.48,-7255.75 7255.7,-7255.75zm-0.06 985.8c3462.82,0 6270.01,2807.18 6270.01,6270 0,3462.82 -2807.19,6270.01 -6270.01,6270.01 -3462.82,0 -6270,-2807.19 -6270,-6270.01 0,-3462.82 2807.18,-6270 6270,-6270z"/>
   <path class="fil3" d="M3654.33 5479.07c-226.95,18.63 -450.77,-106.15 -547.66,-326.27 -122.21,-277.65 3.79,-601.81 281.44,-724.02 1339.15,-593.27 2695.79,-937.63 4106.6,-950.21 1411.59,-12.6 2862.61,308.17 4386.04,1045.53 272.9,131.7 387.36,459.72 255.66,732.62 -106.68,221.06 -342.19,338.14 -572.87,304.65l-3875.8 6589.67c-19.49,34.79 -48.69,64.69 -86.3,85.17 -106.31,57.9 -239.44,18.65 -297.34,-87.66l-3649.77 -6669.48zm2964.08 3887.74c530.7,0 960.91,430.21 960.91,960.91 0,303.79 -140.98,574.64 -361.07,750.72l285.24 521.25 1158.52 -1969.72c-507.49,-25.98 -910.97,-445.68 -910.97,-959.63 0,-530.7 430.21,-960.91 960.91,-960.91 343.33,0 644.51,180.09 814.43,450.92l1626.61 -2765.56c-1273.84,-578 -2481.67,-830.95 -3649.68,-820.52 -1162.41,10.37 -2298.39,282.71 -3430.73,755.87l2236.82 4087.5c96.97,-32.94 200.9,-50.83 309.01,-50.83zm2354.04 -4258.04c530.7,0 960.91,430.21 960.91,960.91 0,530.7 -430.21,960.91 -960.91,960.91 -530.7,0 -960.91,-430.21 -960.91,-960.91 0,-530.7 430.21,-960.91 960.91,-960.91zm-2638.9 466.72c530.7,0 960.91,430.21 960.91,960.91 0,530.7 -430.21,960.91 -960.91,960.91 -530.7,0 -960.91,-430.21 -960.91,-960.91 0,-530.7 430.21,-960.91 960.91,-960.91z"/>
   <circle class="fil4" cx="12587.93" cy="12575.02" r="2239.43"/>
   <path class="fil2" d="M12587.93 10282.72c1266,0 2292.3,1026.3 2292.3,2292.3 0,1266 -1026.3,2292.3 -2292.3,2292.3 -1266,0 -2292.3,-1026.3 -2292.3,-2292.3 0,-1266 1026.3,-2292.3 2292.3,-2292.3zm0 574.6c948.66,0 1717.7,769.04 1717.7,1717.7 0,948.66 -769.04,1717.7 -1717.7,1717.7 -948.66,0 -1717.7,-769.04 -1717.7,-1717.7 0,-948.66 769.04,-1717.7 1717.7,-1717.7z"/>
   <polygon class="fil3" points="13777.34,13263.96 14096.92,13263.96 13726.36,12724.79 14081.24,12213.06 13769.5,12213.06 13571.47,12518.92 13375.41,12213.06 13055.83,12213.06 13410.7,12730.67 13042.1,13263.96 13353.84,13263.96 13565.59,12936.53 "/>
   <path class="fil3" d="M11472.1 11879.15l-394.08 117.63 62.74 247.04 239.19 -58.82 0 1076.39 298.02 0 0 -1382.24 -205.87 0zm1564.59 694.06c0,-399.97 -241.16,-707.79 -607.8,-707.79 -366.64,0 -611.72,311.74 -611.72,711.71 0,399.97 241.16,707.79 607.8,707.79 366.64,0 611.72,-311.74 611.72,-711.71zm-309.78 3.92c0,250.96 -115.68,435.26 -298.02,435.26 -182.34,0 -301.94,-186.26 -301.94,-439.18 0,-252.92 115.68,-435.26 298.02,-435.26 182.34,0 301.94,188.22 301.94,439.18z"/>
   <polygon class="fil3" points="13777.34,13263.96 14096.92,13263.96 13726.36,12724.79 14081.24,12213.06 13769.5,12213.06 13571.47,12518.92 13375.41,12213.06 13055.83,12213.06 13410.7,12730.67 13042.1,13263.96 13353.84,13263.96 13565.59,12936.53 "/>
   <path class="fil3" d="M11472.1 11879.15l-394.08 117.63 62.74 247.04 239.19 -58.82 0 1076.39 298.02 0 0 -1382.24 -205.87 0zm1564.59 694.06c0,-399.97 -241.16,-707.79 -607.8,-707.79 -366.64,0 -611.72,311.74 -611.72,711.71 0,399.97 241.16,707.79 607.8,707.79 366.64,0 611.72,-311.74 611.72,-711.71zm-309.78 3.92c0,250.96 -115.68,435.26 -298.02,435.26 -182.34,0 -301.94,-186.26 -301.94,-439.18 0,-252.92 115.68,-435.26 298.02,-435.26 182.34,0 301.94,188.22 301.94,439.18z"/>
  </g>
 </g>
</svg>
