<?xml version="1.0" encoding="UTF-8"?>
<!DOCTYPE svg PUBLIC "-//W3C//DTD SVG 1.1//EN" "http://www.w3.org/Graphics/SVG/1.1/DTD/svg11.dtd">
<!-- Creator: CorelDRAW -->
<svg xmlns="http://www.w3.org/2000/svg" xml:space="preserve" width="152.4mm" height="152.4mm" version="1.1" style="shape-rendering:geometricPrecision; text-rendering:geometricPrecision; image-rendering:optimizeQuality; fill-rule:evenodd; clip-rule:evenodd"
viewBox="0 0 15240 15240"
 xmlns:xlink="http://www.w3.org/1999/xlink"
 xmlns:xodm="http://www.corel.com/coreldraw/odm/2003">
 <defs>
  <style type="text/css">
   <![CDATA[
    .fil0 {fill:none}
    .fil1 {fill:#2F3192}
    .fil2 {fill:#FABAD6}
   ]]>
  </style>
 </defs>
 <g id="Capa_x0020_1">
  <metadata id="CorelCorpID_0Corel-Layer"/>
  <g id="_2981844012384">
   <rect class="fil0" x="-0" y="-0" width="15240" height="15240"/>
   <ellipse id="contour" class="fil1" cx="7620.01" cy="7620" rx="7200.69" ry="7200.73"/>
   <path id="contour_17" class="fil2" d="M7620.01 364.25c4007.22,0 7255.71,3248.52 7255.71,7255.75 0,4007.22 -3248.49,7255.74 -7255.71,7255.74 -4007.22,0 -7255.7,-3248.52 -7255.7,-7255.74 0,-4007.23 3248.48,-7255.75 7255.7,-7255.75zm-0.06 985.8c3462.82,0 6270.01,2807.18 6270.01,6270 0,3462.82 -2807.19,6270.01 -6270.01,6270.01 -3462.82,0 -6270,-2807.19 -6270,-6270.01 0,-3462.82 2807.18,-6270 6270,-6270z"/>
   <path class="fil2" d="M5404.33 4405.47c955.85,-0.87 1671.89,732.74 2206.74,1453.59 3.38,4.56 6.76,9.11 10.12,13.67 6.49,-8.79 13.01,-17.57 19.55,-26.36 533.83,-716.75 1247.07,-1441.77 2197.31,-1440.9 493.18,0.46 987.81,184.16 1366.53,551.38 900.64,873.31 779.6,1966.08 134.67,2900.7 -967.19,1195.72 -2625.89,2906.95 -3701.37,3983.13l-0.74 0.8 -15.95 17.57 -0.19 -0.21 -50.36 -52.06c-1070.39,-1072.12 -2722.91,-2780.03 -3660.58,-3939.22 -650.98,-936.82 -776.12,-2034.27 127.74,-2910.71 9.88,-9.58 19.84,-19.03 29.87,-28.36 374.65,-348.32 856.34,-522.57 1336.66,-523.02z"/>
  </g>
 </g>
</svg>
