<?xml version="1.0" encoding="UTF-8"?>
<!DOCTYPE svg PUBLIC "-//W3C//DTD SVG 1.1//EN" "http://www.w3.org/Graphics/SVG/1.1/DTD/svg11.dtd">
<!-- Creator: CorelDRAW -->
<svg xmlns="http://www.w3.org/2000/svg" xml:space="preserve" width="152.4mm" height="152.4mm" version="1.1" style="shape-rendering:geometricPrecision; text-rendering:geometricPrecision; image-rendering:optimizeQuality; fill-rule:evenodd; clip-rule:evenodd"
viewBox="0 0 15240 15240"
 xmlns:xlink="http://www.w3.org/1999/xlink"
 xmlns:xodm="http://www.corel.com/coreldraw/odm/2003">
 <defs>
  <style type="text/css">
   <![CDATA[
    .fil0 {fill:none}
    .fil2 {fill:#E2B9D5}
    .fil1 {fill:#EF3F37}
   ]]>
  </style>
 </defs>
 <g id="Capa_x0020_1">
  <metadata id="CorelCorpID_0Corel-Layer"/>
  <g id="_2981915346384">
   <rect class="fil0" x="-0" y="-0" width="15240" height="15240"/>
   <rect class="fil0" x="-0" y="-0" width="15240" height="15240"/>
   <ellipse id="contour" class="fil1" cx="7620.01" cy="7620" rx="7200.69" ry="7200.73"/>
   <path id="contour_69" class="fil2" d="M7620.01 364.25c4007.22,0 7255.71,3248.52 7255.71,7255.75 0,4007.22 -3248.49,7255.74 -7255.71,7255.74 -4007.22,0 -7255.7,-3248.52 -7255.7,-7255.74 0,-4007.23 3248.48,-7255.75 7255.7,-7255.75zm-0.06 985.8c3462.82,0 6270.01,2807.18 6270.01,6270 0,3462.82 -2807.19,6270.01 -6270.01,6270.01 -3462.82,0 -6270,-2807.19 -6270,-6270.01 0,-3462.82 2807.18,-6270 6270,-6270z"/>
   <path class="fil2" d="M7628.77 3725.15c471.81,0 922.04,92.25 1333.86,259.37 504.79,-605.16 994.39,-876.31 1473.11,-907.99 425.08,967.46 570.48,1924.92 487.59,2874.22 164.71,409.31 255.56,856.28 255.56,1324.52 0,1960.68 -1589.44,3550.12 -3550.12,3550.12 -1960.68,0 -3550.12,-1589.44 -3550.12,-3550.12 0,-318.72 42.25,-627.53 121.02,-921.4 -167.37,-1081.25 -46.59,-2172.77 438.73,-3277.34 493.8,32.67 999.19,320.15 1520.87,966.19 447.77,-203.91 945.37,-317.57 1469.5,-317.57zm71.84 3084.71c938.62,0 1699.53,539.8 1699.53,1205.69 0,665.89 -760.91,1205.69 -1699.53,1205.69 -938.63,0 -1699.54,-539.8 -1699.54,-1205.69 0,-665.89 760.91,-1205.69 1699.54,-1205.69zm-1060.99 -646.64c134.53,0 243.59,109.06 243.59,243.59 0,134.53 -109.06,243.59 -243.59,243.59 -134.53,0 -243.59,-109.06 -243.59,-243.59 0,-134.53 109.06,-243.59 243.59,-243.59zm2060.94 0c134.53,0 243.59,109.06 243.59,243.59 0,134.53 -109.06,243.59 -243.59,243.59 -134.53,0 -243.59,-109.06 -243.59,-243.59 0,-134.53 109.06,-243.59 243.59,-243.59zm-4049.75 -590.26l388.2 -336.45c16.99,-14.72 22.3,-37.75 13.49,-58.42 -207.85,-487.64 -237.02,-1017.87 -153.05,-1582.18 6.29,-42.31 -18.77,-82.21 -59.61,-94.9 -40.84,-12.69 -84.04,5.92 -102.86,44.3 -285.34,581.87 -323.05,1448.16 -168.55,2002.86 4.81,17.3 17.16,29.88 34.36,35.06 17.21,5.19 34.44,1.5 48.02,-10.27zm5772.52 0l-388.2 -336.45c-16.99,-14.72 -22.3,-37.75 -13.49,-58.42 207.85,-487.64 237.02,-1017.87 153.05,-1582.18 -6.29,-42.31 18.77,-82.21 59.61,-94.9 40.84,-12.69 84.04,5.92 102.86,44.3 285.34,581.87 323.05,1448.16 168.55,2002.86 -4.81,17.3 -17.16,29.88 -34.36,35.06 -17.21,5.19 -34.44,1.5 -48.02,-10.27zm-2722.72 1469.86c808.88,0 1464.61,435.5 1464.61,972.73 0,537.23 -655.73,972.73 -1464.61,972.73 -808.89,0 -1464.62,-435.5 -1464.62,-972.73 0,-537.23 655.73,-972.73 1464.62,-972.73zm-610.62 788.8c126.62,0 229.26,102.64 229.26,229.26 0,126.62 -102.64,229.26 -229.26,229.26 -126.62,0 -229.26,-102.64 -229.26,-229.26 0,-126.62 102.64,-229.26 229.26,-229.26zm1305.09 0c126.62,0 229.26,102.64 229.26,229.26 0,126.62 -102.64,229.26 -229.26,229.26 -126.62,0 -229.26,-102.64 -229.26,-229.26 0,-126.62 102.64,-229.26 229.26,-229.26z"/>
   <path class="fil2" d="M4613.46 9874.15l7.69 -38.37c513.47,602.55 1204.76,1048.78 1992.67,1257.74l-606.58 985.7c-41.96,68.19 -125.47,95.47 -199.59,65.2l-1538.75 -628.4c-77.85,-31.79 -118.38,-116.92 -93.95,-197.39l438.51 -1444.48zm-186.37 1002.19l-144.21 475.05c-7.52,24.77 4.7,50.43 28.66,60.21l1538.75 628.4c23.03,9.4 47.86,1.29 60.89,-19.89l236.07 -383.61 -1720.16 -760.16z"/>
   <path class="fil2" d="M10599.46 9874.15l-7.69 -38.37c-513.47,602.55 -1204.76,1048.78 -1992.67,1257.74l606.58 985.7c41.96,68.19 125.47,95.47 199.59,65.2l1538.75 -628.4c77.85,-31.79 118.38,-116.92 93.95,-197.39l-438.51 -1444.48zm194.21 1002.19l144.21 475.05c7.52,24.77 -4.7,50.43 -28.66,60.21l-1538.75 628.4c-23.03,9.4 -47.86,1.29 -60.89,-19.89l-236.07 -383.61 1720.16 -760.16z"/>
  </g>
 </g>
</svg>
