<?xml version="1.0" encoding="UTF-8"?>
<!DOCTYPE svg PUBLIC "-//W3C//DTD SVG 1.1//EN" "http://www.w3.org/Graphics/SVG/1.1/DTD/svg11.dtd">
<!-- Creator: CorelDRAW -->
<svg xmlns="http://www.w3.org/2000/svg" xml:space="preserve" width="152.4mm" height="152.4mm" version="1.1" style="shape-rendering:geometricPrecision; text-rendering:geometricPrecision; image-rendering:optimizeQuality; fill-rule:evenodd; clip-rule:evenodd"
viewBox="0 0 15240 15240"
 xmlns:xlink="http://www.w3.org/1999/xlink"
 xmlns:xodm="http://www.corel.com/coreldraw/odm/2003">
 <defs>
  <style type="text/css">
   <![CDATA[
    .fil0 {fill:none}
    .fil1 {fill:#EA232A}
    .fil2 {fill:#F2A5C7}
   ]]>
  </style>
 </defs>
 <g id="Capa_x0020_1">
  <metadata id="CorelCorpID_0Corel-Layer"/>
  <g id="_1904367033280">
   <rect class="fil0" x="-0" y="-0" width="15240" height="15240"/>
   <ellipse id="contour" class="fil1" cx="7620.01" cy="7620" rx="7200.69" ry="7200.73"/>
   <path id="contour_1" class="fil2" d="M7620.01 364.25c4007.22,0 7255.71,3248.52 7255.71,7255.75 0,4007.22 -3248.49,7255.74 -7255.71,7255.74 -4007.22,0 -7255.7,-3248.52 -7255.7,-7255.74 0,-4007.23 3248.48,-7255.75 7255.7,-7255.75zm-0.06 985.8c3462.82,0 6270.01,2807.18 6270.01,6270 0,3462.82 -2807.19,6270.01 -6270.01,6270.01 -3462.82,0 -6270,-2807.19 -6270,-6270.01 0,-3462.82 2807.18,-6270 6270,-6270z"/>
   <path class="fil2" d="M5165.71 5146.61c-607.74,396.9 -1050.23,1403.92 -1715.02,1706.8 -184.94,84.24 -323,36.86 -431.02,218.9 -179.15,301.83 -180.93,993.05 -35.81,1347.97 100.88,246.73 217,212.36 436.04,279.4 493.31,151.01 655.96,333.7 853.87,586.29 290.11,370.24 657.75,801.92 1297.27,1422.76 -79.58,366.36 -124.18,870.01 -225.58,1149.16 -38.43,84 42.07,156.51 189.55,185.71 61.08,10.19 1035.41,-3.87 1282.43,-7.61 41.15,-0.64 76.29,-18.82 100.57,-52.04 153.54,-210.13 236.85,-637.86 1086.02,-595.12 986.44,49.64 827.15,598.96 1052.08,663.62l1388.36 -17.31c109.74,-23.03 179.1,-96.57 173.14,-264.26l-136.69 -965.9c1579.62,-1042.21 1941.13,-2671.76 1349.79,-4760.69 345.42,-249.48 515.19,-537.79 519.2,-781.18 2.3,-139.16 -94.46,-382.53 -241.63,-418.52 -282.96,-69.23 -253.38,337.67 -11.26,228.26 159.49,212.86 -101.36,384.83 -567.85,359.06 -754.52,-1205.84 -2115.8,-1571.54 -3848.18,-1423.4l-11.52 2.57c243.91,475.7 249.97,1050.68 -60.6,1537.22 -347.38,544.21 -1307.41,1025.06 -1916.58,665.23 -368.9,-217.92 -417.51,-687.05 -504.89,-1082.46l-21.69 15.54zm225.07 -238.27c-190.62,-358.38 -713.88,-1099.02 -493.69,-1480.68 111.41,-193.08 380.22,-277.95 809.72,-252.34 537.63,30.64 976.97,187.67 1328.01,458.19 553.33,426.43 747.44,1176.7 362.5,1779.75 -284.88,446.29 -1105.33,863.01 -1577.38,584.17 -303.42,-179.23 -302.67,-640.55 -429.16,-1089.09zm-427.61 1466.09c146.29,0 264.87,118.58 264.87,264.86 0,146.29 -118.58,264.87 -264.87,264.87 -146.28,0 -264.86,-118.58 -264.86,-264.87 0,-146.28 118.58,-264.86 264.86,-264.86z"/>
  </g>
 </g>
</svg>
