<?xml version="1.0" encoding="UTF-8"?>
<!DOCTYPE svg PUBLIC "-//W3C//DTD SVG 1.1//EN" "http://www.w3.org/Graphics/SVG/1.1/DTD/svg11.dtd">
<!-- Creator: CorelDRAW -->
<svg xmlns="http://www.w3.org/2000/svg" xml:space="preserve" width="152.4mm" height="152.4mm" version="1.1" style="shape-rendering:geometricPrecision; text-rendering:geometricPrecision; image-rendering:optimizeQuality; fill-rule:evenodd; clip-rule:evenodd"
viewBox="0 0 15240 15240"
 xmlns:xlink="http://www.w3.org/1999/xlink"
 xmlns:xodm="http://www.corel.com/coreldraw/odm/2003">
 <defs>
  <style type="text/css">
   <![CDATA[
    .fil0 {fill:none}
    .fil1 {fill:#70D0F7}
    .fil2 {fill:#ED1653}
    .fil3 {fill:#FEB415}
   ]]>
  </style>
 </defs>
 <g id="Capa_x0020_1">
  <metadata id="CorelCorpID_0Corel-Layer"/>
  <g id="_2981673654512">
   <rect class="fil0" x="-0" y="-0" width="15240" height="15240"/>
   <ellipse id="contour" class="fil1" cx="7620" cy="7620" rx="7200.68" ry="7200.72"/>
   <path id="contour_45" class="fil2" d="M7620.01 364.25c4007.22,0 7255.71,3248.52 7255.71,7255.75 0,4007.22 -3248.49,7255.74 -7255.71,7255.74 -4007.22,0 -7255.7,-3248.52 -7255.7,-7255.74 0,-4007.23 3248.48,-7255.75 7255.7,-7255.75zm-0.06 985.8c3462.82,0 6270.01,2807.18 6270.01,6270 0,3462.82 -2807.19,6270.01 -6270.01,6270.01 -3462.82,0 -6270,-2807.19 -6270,-6270.01 0,-3462.82 2807.18,-6270 6270,-6270z"/>
   <path class="fil2" d="M10933.37 5439.39c40.41,75.79 63.35,162.31 63.35,254.19 0,129.04 -45.22,247.52 -120.63,340.51 19.08,-2.03 38.45,-3.09 58.07,-3.09 298.79,0 541.06,242.27 541.06,541.08 0,8.63 -0.22,17.21 -0.62,25.75 4.01,-0.09 8.04,-0.14 12.08,-0.14 298.79,0 541.06,242.27 541.06,541.08 0,220.57 -132.05,410.32 -321.38,494.56 84.41,84.12 136.68,200.49 136.68,329.07 0,50.93 -8.22,99.94 -23.37,145.8 113.01,101.95 184.07,249.51 184.07,413.69 0,235.29 -145.91,436.52 -352.18,518.16 -202.54,2048.74 -1930.67,3649.13 -4032.69,3649.13 -2062.54,0 -3765.19,-1540.81 -4019.76,-3534.15 -253.24,-106.28 -431.11,-356.57 -431.11,-648.41 0,-263.65 145.17,-493.35 359.9,-613.65 -107.89,-98.92 -175.56,-241 -175.56,-398.89 0,-185.68 93.57,-349.52 236.11,-446.97 -135.07,-110.4 -221.32,-278.27 -221.32,-466.29 0,-332.46 269.54,-602 602,-602 7.21,0 14.4,0.14 21.55,0.39 -0.06,-3.59 -0.14,-7.18 -0.14,-10.79 0,-296.27 214.06,-542.57 495.95,-592.68 53.68,-277.45 297.85,-487 590.98,-487 58.19,0 114.43,8.28 167.66,23.69 -23.3,-64.14 -36.03,-133.35 -36.03,-205.54 0,-332.46 269.54,-602 602,-602 104.94,0 203.59,26.88 289.49,74.1 36.9,-37 87.94,-59.89 144.32,-59.89 38.91,0 75.27,10.9 106.2,29.82 33.17,-225.56 227.49,-398.71 462.26,-398.71 38.4,0 75.71,4.66 111.41,13.4 -13.14,-43.13 -20.23,-88.9 -20.23,-136.33 0,-173.8 94.9,-325.43 235.7,-405.93 -0.64,-11.13 -0.99,-22.34 -0.99,-33.63 0,-320.8 260.18,-580.98 580.98,-580.98 320.8,0 580.98,260.18 580.98,580.98 0,119.29 -36.46,233.09 -101.42,328.05 153.52,121 366.77,187.44 548.02,204.35 196.4,18.31 409.55,-12.7 577.53,-118.51 -60.01,-92.47 -93.57,-201.8 -93.57,-316.25 0,-320.8 260.18,-580.98 580.98,-580.98 320.8,0 580.98,260.18 580.98,580.98 0,255.42 -164.93,472.41 -394.08,550.25 121.69,386.83 480.14,647.38 884.26,676.48 23.63,-299.14 273.96,-534.63 579.16,-534.63 320.8,0 580.98,260.18 580.98,580.98 0,320.8 -260.18,580.98 -580.98,580.98 -83.55,0 -164.85,-17.87 -239.09,-51.39l-290.62 351.36zm147.22 3502.36c-117.04,-102.13 -191,-252.36 -191,-419.86 0,-44.48 5.25,-87.74 15.1,-129.21 -61.42,25.82 -128.9,40.1 -199.71,40.1 -166.35,0 -314.29,-78.75 -408.65,-200.98 -86.33,65.02 -193.71,103.58 -310.1,103.58 -284.95,0 -515.96,-231.01 -515.96,-515.94 0,-15.4 0.7,-30.62 2.03,-45.68 -70.93,130.05 -208.89,218.29 -367.45,218.29 -87.49,0 -168.69,-26.88 -235.84,-72.8 -96.88,144.24 -261.5,239.16 -448.31,239.16 -231.26,0 -428.52,-145.49 -505.33,-349.9 -99,116.65 -246.66,190.72 -411.64,190.72 -177.13,0 -334.33,-85.34 -432.73,-217.16 -98.55,129.86 -254.54,213.74 -430.13,213.74 -98.67,0 -191.15,-26.5 -270.74,-72.75 -36.75,323.49 -311.33,574.85 -644.66,574.85 -250.18,0 -467.25,-141.61 -575.54,-349.02 -55.53,204.3 -242.28,354.55 -464.17,354.55 -38.61,0 -76.14,-4.58 -112.12,-13.17 0.13,5.44 0.21,10.88 0.21,16.35 0,277.37 -160.68,517.18 -394.01,631.53 243.14,1681.57 1690.1,2973.59 3439.03,2973.59 1816.43,0 3307.12,-1393.67 3461.72,-3169.99zm-4877.35 618.42c195.3,0 353.63,158.33 353.63,353.63 0,195.3 -158.33,353.63 -353.63,353.63 -195.3,0 -353.63,-158.33 -353.63,-353.63 0,-195.3 158.33,-353.63 353.63,-353.63zm2917.36 0c195.3,0 353.63,158.33 353.63,353.63 0,195.3 -158.33,353.63 -353.63,353.63 -195.3,0 -353.63,-158.33 -353.63,-353.63 0,-195.3 158.33,-353.63 353.63,-353.63z"/>
   <path class="fil3" d="M7722.02 5109.69l29.74 -713.78 2891.35 1064.91 -423.42 511.89c-65.85,-162.89 -225.47,-277.84 -411.97,-277.84 -105.65,0 -202.67,36.91 -278.92,98.52 -90.11,-129.42 -239.97,-214.14 -409.63,-214.14 -221.68,0 -409.56,144.65 -474.5,344.69 -28.72,-169.07 -175.88,-297.83 -353.14,-297.83 -40.28,0 -79.02,6.66 -115.16,18.92 3.93,-24.21 6,-49.05 6,-74.37 0,-254.38 -206.05,-460.63 -460.35,-460.97zm3741.06 -922.23c204.89,0 370.98,166.09 370.98,370.98 0,204.89 -166.09,370.98 -370.98,370.98 -110.32,0 -209.39,-48.17 -277.34,-124.62l-461.67 558.14 -2967.06 -1092.8 29.89 -717.42c-21.62,3.92 -43.9,5.98 -66.66,5.98 -204.89,0 -370.98,-166.09 -370.98,-370.98 0,-204.89 166.09,-370.98 370.98,-370.98 204.89,0 370.98,166.09 370.98,370.98 0,137.29 -74.57,257.15 -185.43,321.31 327.12,468.38 1290.63,618.51 1726.98,100.77 -113.91,-63.32 -190.99,-184.87 -190.99,-324.44 0,-204.89 166.09,-370.98 370.98,-370.98 204.89,0 370.98,166.09 370.98,370.98 0,204.89 -166.09,370.98 -370.98,370.98 -21.29,0 -42.16,-1.82 -62.47,-5.26 59.61,674.58 685.46,1154.14 1375.84,1062.74 -21.83,-47.27 -34.03,-99.89 -34.03,-155.38 0,-204.89 166.09,-370.98 370.98,-370.98z"/>
  </g>
 </g>
</svg>
