<?xml version="1.0" encoding="UTF-8"?>
<!DOCTYPE svg PUBLIC "-//W3C//DTD SVG 1.1//EN" "http://www.w3.org/Graphics/SVG/1.1/DTD/svg11.dtd">
<!-- Creator: CorelDRAW -->
<svg xmlns="http://www.w3.org/2000/svg" xml:space="preserve" width="152.4mm" height="152.4mm" version="1.1" style="shape-rendering:geometricPrecision; text-rendering:geometricPrecision; image-rendering:optimizeQuality; fill-rule:evenodd; clip-rule:evenodd"
viewBox="0 0 15240 15240"
 xmlns:xlink="http://www.w3.org/1999/xlink"
 xmlns:xodm="http://www.corel.com/coreldraw/odm/2003">
 <defs>
  <style type="text/css">
   <![CDATA[
    .fil0 {fill:none}
    .fil1 {fill:#44C5E2}
    .fil4 {fill:#9060A5}
    .fil2 {fill:#9060A5}
    .fil3 {fill:white}
   ]]>
  </style>
 </defs>
 <g id="Capa_x0020_1">
  <metadata id="CorelCorpID_0Corel-Layer"/>
  <g id="_2981990324384">
   <rect class="fil0" x="-0" y="-0" width="15240" height="15240"/>
   <ellipse id="contour" class="fil1" cx="7620.01" cy="7620" rx="7200.69" ry="7200.73"/>
   <path id="contour_93" class="fil2" d="M7620.01 364.25c4007.22,0 7255.71,3248.52 7255.71,7255.75 0,4007.22 -3248.49,7255.74 -7255.71,7255.74 -4007.22,0 -7255.7,-3248.52 -7255.7,-7255.74 0,-4007.23 3248.48,-7255.75 7255.7,-7255.75zm-0.06 985.8c3462.82,0 6270.01,2807.18 6270.01,6270 0,3462.82 -2807.19,6270.01 -6270.01,6270.01 -3462.82,0 -6270,-2807.19 -6270,-6270.01 0,-3462.82 2807.18,-6270 6270,-6270z"/>
   <path class="fil3" d="M4094.98 3078.83l3171.43 3324.89c105.86,53.3 353.79,-56.09 268.54,-242.98l-3175.7 -3358.97c-209.28,-0.67 -305.21,63.9 -264.27,277.06z"/>
   <path class="fil4" d="M5220.77 4176.43c648.02,-367.05 4634.5,-394.25 4913.42,-23.07 -796.54,977.05 -1495.44,1982.01 -2153.1,2998.72 -196.41,-85.35 -477.98,-102.44 -684.23,11.61l-645.89 -991.91c884.06,-224.95 616.85,-1039.55 218.73,-1428.78 -348.91,-341.12 -912.79,-396.08 -1153.64,20.54 -104.77,-157.62 -283.24,-357.33 -495.29,-587.11zm-1284.27 -699.49c2423.63,-419.19 5751.9,-433.82 7460.23,51.63 -1174.64,1512.51 -2293.25,2988.41 -2999.31,4194.57 -355.87,607.91 -370.43,699.84 -416.27,1408.45 -51.78,800.55 -30.05,1738.96 22.85,2735.77 757.93,56.99 1277.48,186.09 1618.26,334.5 665.41,289.78 578.75,693.76 -92.55,914.03 -1002.28,328.86 -3084.55,361.8 -3968.08,-68.9 -399.09,-194.55 -579.57,-501.94 -129.64,-765.88 364.59,-213.91 1050.84,-320.6 1910.05,-369.62 55.13,-1030.78 79.26,-1993.4 3.53,-2736.3 -64.47,-632.58 -184.96,-914.85 -492.27,-1472.86 -599.96,-1089.33 -1685.45,-2594.86 -2916.8,-4225.39z"/>
  </g>
 </g>
</svg>
