<?xml version="1.0" encoding="UTF-8"?>
<!DOCTYPE svg PUBLIC "-//W3C//DTD SVG 1.1//EN" "http://www.w3.org/Graphics/SVG/1.1/DTD/svg11.dtd">
<!-- Creator: CorelDRAW -->
<svg xmlns="http://www.w3.org/2000/svg" xml:space="preserve" width="152.4mm" height="152.4mm" version="1.1" style="shape-rendering:geometricPrecision; text-rendering:geometricPrecision; image-rendering:optimizeQuality; fill-rule:evenodd; clip-rule:evenodd"
viewBox="0 0 15240 15240"
 xmlns:xlink="http://www.w3.org/1999/xlink"
 xmlns:xodm="http://www.corel.com/coreldraw/odm/2003">
 <defs>
  <style type="text/css">
   <![CDATA[
    .fil0 {fill:none}
    .fil1 {fill:#44C5E2}
    .fil4 {fill:#9060A5}
    .fil2 {fill:#9060A5}
    .fil3 {fill:white}
   ]]>
  </style>
 </defs>
 <g id="Capa_x0020_1">
  <metadata id="CorelCorpID_0Corel-Layer"/>
  <g id="_2981915245216">
   <rect class="fil0" x="-0" y="-0" width="15240" height="15240"/>
   <path class="fil1" d="M5302.97 620.06c602.29,-87.67 1258.56,-139.78 1925.26,-155.94l0 -2.44c130.23,-2.33 260.7,-3.31 391.1,-2.91l1.35 0c130.4,-0.4 260.88,0.57 391.1,2.91l0 2.44c666.7,16.16 1322.97,68.27 1925.26,155.94 1168.23,170.04 2034.35,454.91 2991.98,961.24 375,198.28 624.47,507.53 738.86,916.01 546.7,1952.26 593.62,4475.73 -355.27,6693.43 -1022.72,2390.25 -2931.53,4171.57 -5219.41,5347.67l-81.42 41.85 0 0.18 -19.03 9.6 -369.3 189.85 -3.43 1.43 -3.46 -1.43 -369.29 -189.85 -19.04 -9.6 0 -0.18 -81.42 -41.85c-2287.88,-1176.1 -4196.69,-2957.42 -5219.4,-5347.67 -948.9,-2217.7 -901.98,-4741.17 -355.27,-6693.43 114.39,-408.48 363.85,-717.73 738.85,-916.01 957.63,-506.33 1823.76,-791.2 2991.98,-961.24z"/>
   <path class="fil2" d="M5272.5 527.99c610.21,-88.82 1275.11,-141.62 1950.58,-157.99l0 -2.47c131.94,-2.36 264.13,-3.35 396.24,-2.95l1.37 0c132.12,-0.4 264.31,0.58 396.24,2.95l0 2.47c675.47,16.37 1340.37,69.17 1950.59,157.99 1183.59,172.28 2061.1,460.89 3031.33,973.89 379.93,200.88 632.68,514.2 748.57,928.05 553.9,1977.94 601.43,4534.6 -359.94,6781.46 -1036.17,2421.7 -2970.08,4226.45 -5288.06,5418.02l-82.49 42.4 0 0.18 -19.28 9.73 -374.16 192.34 -3.47 1.45 -3.5 -1.45 -374.16 -192.34 -19.28 -9.73 0 -0.18 -82.49 -42.4c-2317.98,-1191.57 -4251.89,-2996.32 -5288.05,-5418.02 -961.38,-2246.86 -913.85,-4803.52 -359.95,-6781.46 115.9,-413.85 368.64,-727.17 748.58,-928.05 970.22,-513 1847.74,-801.61 3031.33,-973.89zm151.33 1039.69c-1063.03,154.73 -2023.76,454.89 -2852.19,943.01 -1334,4290.73 309.12,8747.6 5049.28,11184.3 4789.49,-2416.98 6493.14,-6893.57 5159.14,-11184.3 -810,-477.25 -1746.44,-774.83 -2781.36,-932.47 -1360.59,-207.25 -3211.6,-208.97 -4574.87,-10.54z"/>
   <path class="fil3" d="M4429.94 2746.2l2879.48 3018.81c96.11,48.4 321.22,-50.92 243.81,-220.61l-2883.35 -3049.75c-190.01,-0.61 -277.11,58.02 -239.94,251.55z"/>
   <path class="fil4" d="M5452.09 3742.76c588.37,-333.26 4207.86,-357.95 4461.1,-20.94 -723.21,887.1 -1357.77,1799.55 -1954.89,2722.66 -178.32,-77.49 -433.97,-93.01 -621.24,10.54l-586.43 -900.6c802.68,-204.24 560.07,-943.85 198.6,-1297.25 -316.79,-309.71 -828.76,-359.61 -1047.44,18.65 -95.13,-143.11 -257.17,-324.43 -449.7,-533.06zm-1166.04 -635.09c2200.52,-380.6 5222.39,-393.89 6773.46,46.87 -1066.51,1373.27 -2082.14,2713.31 -2723.2,3808.43 -323.11,551.95 -336.33,635.41 -377.95,1278.79 -47.01,726.85 -27.29,1578.88 20.74,2483.92 688.16,51.75 1159.88,168.96 1469.29,303.71 604.16,263.1 525.47,629.89 -84.03,829.89 -910.01,298.58 -2800.59,328.49 -3602.79,-62.56 -362.35,-176.64 -526.21,-455.73 -117.7,-695.38 331.03,-194.21 954.1,-291.08 1734.21,-335.59 50.06,-935.89 71.97,-1809.89 3.21,-2484.4 -58.54,-574.35 -167.93,-830.63 -446.95,-1337.27 -544.73,-989.05 -1530.3,-2355.99 -2648.29,-3836.41z"/>
  </g>
 </g>
</svg>
