<?xml version="1.0" encoding="UTF-8"?>
<!DOCTYPE svg PUBLIC "-//W3C//DTD SVG 1.1//EN" "http://www.w3.org/Graphics/SVG/1.1/DTD/svg11.dtd">
<!-- Creator: CorelDRAW -->
<svg xmlns="http://www.w3.org/2000/svg" xml:space="preserve" width="152.4mm" height="152.4mm" version="1.1" style="shape-rendering:geometricPrecision; text-rendering:geometricPrecision; image-rendering:optimizeQuality; fill-rule:evenodd; clip-rule:evenodd"
viewBox="0 0 15240 15240"
 xmlns:xlink="http://www.w3.org/1999/xlink"
 xmlns:xodm="http://www.corel.com/coreldraw/odm/2003">
 <defs>
  <style type="text/css">
   <![CDATA[
    .fil0 {fill:none}
    .fil2 {fill:#58585A}
    .fil1 {fill:#F4D65F}
   ]]>
  </style>
 </defs>
 <g id="Capa_x0020_1">
  <metadata id="CorelCorpID_0Corel-Layer"/>
  <g id="_1788838231824">
   <g>
    <rect class="fil0" x="-0" y="-0" width="15240" height="15240"/>
    <ellipse id="contour" class="fil1" cx="7620.01" cy="7620" rx="7255.7" ry="7255.74"/>
    <path id="contour_58" class="fil2" d="M7620.01 364.25c4007.22,0 7255.71,3248.52 7255.71,7255.75 0,4007.22 -3248.49,7255.74 -7255.71,7255.74 -4007.22,0 -7255.7,-3248.52 -7255.7,-7255.74 0,-4007.23 3248.48,-7255.75 7255.7,-7255.75zm-0.06 985.8c3462.82,0 6270.01,2807.18 6270.01,6270 0,3462.82 -2807.19,6270.01 -6270.01,6270.01 -3462.82,0 -6270,-2807.19 -6270,-6270.01 0,-3462.82 2807.18,-6270 6270,-6270z"/>
    <path class="fil2" d="M4951.26 6354.84l44.69 0c284.28,313.83 695.01,511 1151.73,511 456.72,0 867.45,-197.17 1151.73,-511l1302.98 0c283.44,311.4 692.01,506.88 1146.18,506.88 454.17,0 862.74,-195.48 1146.18,-506.88l129.37 0c153.67,0 279.4,125.73 279.4,279.4l0 3035.18c0,153.67 -125.73,279.4 -279.4,279.4l-1805.84 0 524.94 1420.53c13.04,35.29 8.41,71.5 -13.09,102.38 -21.51,30.87 -53.87,47.77 -91.49,47.77l-614.03 0c-42.34,0 -78.64,-21.83 -98.49,-59.22l-802.26 -1511.46 -330.99 0 -802.6 1511.47c-19.85,37.39 -56.15,59.21 -98.48,59.21l-596.23 0c-37.05,0 -68.93,-16.35 -90.55,-46.44 -21.62,-30.09 -26.94,-65.52 -15.12,-100.64l479.28 -1423.6 -1717.91 0c-153.67,0 -279.4,-125.73 -279.4,-279.4l0 -849.35 -164.81 122.01 -1010.88 748.4c-26.98,19.97 -60.64,22.85 -90.61,7.74 -29.98,-15.11 -47.7,-43.87 -47.7,-77.44l0 -1529.49 0 -1529.49c0,-33.57 17.72,-62.33 47.7,-77.44 29.97,-15.11 63.63,-12.23 90.61,7.74l1010.88 748.4 164.81 122.01 0 -728.27c0,-153.67 125.73,-279.4 279.4,-279.4zm1196.42 -2372.14c720.23,0 1304.09,583.86 1304.09,1304.09 0,720.23 -583.86,1304.09 -1304.09,1304.09 -720.23,0 -1304.09,-583.86 -1304.09,-1304.09 0,-720.23 583.86,-1304.09 1304.09,-1304.09zm3600.89 0c720.23,0 1304.09,583.86 1304.09,1304.09 0,720.23 -583.86,1304.09 -1304.09,1304.09 -720.23,0 -1304.09,-583.86 -1304.09,-1304.09 0,-720.23 583.86,-1304.09 1304.09,-1304.09z"/>
   </g>
   <rect class="fil0" x="-0" y="-0" width="15240" height="15240"/>
  </g>
 </g>
</svg>
