<?xml version="1.0" encoding="UTF-8"?>
<!DOCTYPE svg PUBLIC "-//W3C//DTD SVG 1.1//EN" "http://www.w3.org/Graphics/SVG/1.1/DTD/svg11.dtd">
<!-- Creator: CorelDRAW -->
<svg xmlns="http://www.w3.org/2000/svg" xml:space="preserve" width="152.4mm" height="152.4mm" version="1.1" style="shape-rendering:geometricPrecision; text-rendering:geometricPrecision; image-rendering:optimizeQuality; fill-rule:evenodd; clip-rule:evenodd"
viewBox="0 0 4747.37 4747.37"
 xmlns:xlink="http://www.w3.org/1999/xlink"
 xmlns:xodm="http://www.corel.com/coreldraw/odm/2003">
 <defs>
  <style type="text/css">
   <![CDATA[
    .fil0 {fill:none}
    .fil3 {fill:#3C3B3C}
    .fil1 {fill:#64B4EC}
    .fil2 {fill:#BDE4FF}
    .fil4 {fill:white}
   ]]>
  </style>
 </defs>
 <g id="Capa_x0020_1">
  <metadata id="CorelCorpID_0Corel-Layer"/>
  <g id="_2981911960464">
   <rect class="fil0" x="-0" y="-0" width="4747.37" height="4747.37"/>
   <ellipse id="contour" class="fil1" cx="2373.69" cy="2373.69" rx="2243.07" ry="2243.08"/>
   <path id="contour_101" class="fil2" d="M2373.69 113.47c1248.28,0 2260.21,1011.94 2260.21,2260.22 0,1248.28 -1011.93,2260.22 -2260.21,2260.22 -1248.28,0 -2260.2,-1011.94 -2260.2,-2260.22 0,-1248.28 1011.93,-2260.22 2260.2,-2260.22zm-0.02 307.08c1078.69,0 1953.16,874.46 1953.16,1953.15 0,1078.69 -874.46,1953.16 -1953.16,1953.16 -1078.69,0 -1953.15,-874.46 -1953.15,-1953.16 0,-1078.69 874.46,-1953.15 1953.15,-1953.15z"/>
   <path class="fil3" d="M1714.64 3169.69c-205.48,85.43 -427.38,74.97 -641.77,8.85l-181.18 -55.88c-30.72,-9.47 -51.13,-36.08 -52.34,-68.2 -1.21,-32.12 17.15,-60.19 47.06,-71.95l176.46 -69.35c86.59,-34.03 164.28,-85.78 205.42,-171.71 53.45,-111.66 28.34,-281.54 22.62,-402.68 -19.29,-408.51 12.35,-648.68 331.72,-942.62 432.06,-397.66 1188.25,-418.96 1652.03,-67 258.9,196.48 426.36,473.29 459.75,798.02 31.41,305.47 -39.53,525.08 -283.54,720.37 -46.23,37 -95.85,71.64 -147.66,104.1 26.58,51.2 41.91,111.44 41.91,175.91 0,186.01 -127.55,336.8 -284.9,336.8 -141.37,0 -258.66,-121.73 -281.03,-281.35l-458.83 -7.61c-20.04,160.76 -138.61,284.24 -281.9,284.24 -144.08,0 -263.15,-124.84 -282.21,-286.89l-35.62 -0.14 -6 -2.92z"/>
   <path class="fil4" d="M1715.8 3013.72c-177.32,94.12 -379.28,98.91 -601.47,30.38 136.1,-53.49 229.36,-134.35 280.85,-241.9 69.42,-145 43.64,-313.72 36.26,-470.06 -15.84,-335.44 -12.64,-555.33 286.47,-832.47 394.27,-361.02 1073.66,-357.22 1471.71,-58.45 272.66,210.21 381.48,473.13 404.85,700.34 26.73,260.02 -25.85,431.55 -231.5,596.15 -43.9,35.14 -94.33,70.1 -151.11,104.68 -43.91,-32.7 -95.89,-51.64 -151.63,-51.64 -132.45,0 -243.79,106.86 -275.7,251.63l-472.37 -7.84c-34.35,-138.61 -143.88,-239.96 -273.7,-239.96 -129.05,0 -238.04,100.16 -273.07,237.51l-12.03 -0.05 -37.57 -18.32zm1112.6 -445.19c-168.57,165.79 -552.91,146.32 -676.86,-55.21 -43.84,-71.27 -74.7,-151.53 -72.12,-239.31l0 -240.44 140.45 -0.97 1.1 245.58 3.16 -0.15c13.43,147.11 137.1,262.35 287.72,262.35 167.22,0 299.11,-141.29 288.32,-307.84l1.04 0 0 -148.84 -91.98 0 78.64 -80.48 78.63 -80.48 78.63 80.48 78.64 80.48 -96.41 0 0 137.66c0,138.03 2.46,247.4 -98.97,347.17zm-575.13 -968.08c81.67,0 147.88,66.2 147.88,147.87 0,81.67 -66.2,147.88 -147.88,147.88 -81.67,0 -147.87,-66.2 -147.87,-147.88 0,-81.67 66.2,-147.87 147.87,-147.87zm515.55 2.29c81.67,0 147.88,66.2 147.88,147.87 0,81.67 -66.2,147.88 -147.88,147.88 -81.67,0 -147.87,-66.2 -147.87,-147.88 0,-81.67 66.2,-147.87 147.87,-147.87z"/>
   <ellipse class="fil4" cx="3058.56" cy="3137.64" rx="85.41" ry="125.51"/>
   <ellipse class="fil4" cx="2029.63" cy="3137.64" rx="85.41" ry="125.51"/>
  </g>
 </g>
</svg>
