<?xml version="1.0" encoding="UTF-8"?>
<!DOCTYPE svg PUBLIC "-//W3C//DTD SVG 1.1//EN" "http://www.w3.org/Graphics/SVG/1.1/DTD/svg11.dtd">
<!-- Creator: CorelDRAW -->
<svg xmlns="http://www.w3.org/2000/svg" xml:space="preserve" width="152.4mm" height="152.4mm" version="1.1" style="shape-rendering:geometricPrecision; text-rendering:geometricPrecision; image-rendering:optimizeQuality; fill-rule:evenodd; clip-rule:evenodd"
viewBox="0 0 15240 15240"
 xmlns:xlink="http://www.w3.org/1999/xlink"
 xmlns:xodm="http://www.corel.com/coreldraw/odm/2003">
 <defs>
  <style type="text/css">
   <![CDATA[
    .fil0 {fill:none}
    .fil3 {fill:#3C3B3C}
    .fil1 {fill:#64B4EC}
    .fil2 {fill:#BDE4FF}
    .fil4 {fill:white}
   ]]>
  </style>
 </defs>
 <g id="Capa_x0020_1">
  <metadata id="CorelCorpID_0Corel-Layer"/>
  <g id="_1619677893872">
   <rect class="fil0" width="15240" height="15240"/>
   <ellipse id="contour" class="fil1" cx="7620.02" cy="7620.02" rx="7200.7" ry="7200.73"/>
   <path id="contour_101" class="fil2" d="M7620.02 364.26c4007.23,0 7255.72,3248.53 7255.72,7255.75 0,4007.23 -3248.5,7255.75 -7255.72,7255.75 -4007.23,0 -7255.69,-3248.53 -7255.69,-7255.75 0,-4007.23 3248.5,-7255.75 7255.69,-7255.75zm-0.07 985.79c3462.81,0 6270.03,2807.19 6270.03,6270 0,3462.81 -2807.19,6270.03 -6270.03,6270.03 -3462.81,0 -6270,-2807.19 -6270,-6270.03 0,-3462.81 2807.19,-6270 6270,-6270z"/>
   <g>
    <path class="fil3" d="M5505.58 10168.75c-659.66,274.28 -1372.03,240.69 -2060.29,28.42l-581.63 -179.38c-98.6,-30.42 -164.15,-115.82 -168.03,-218.93 -3.89,-103.13 55.04,-193.22 151.09,-230.97l566.48 -222.64c277.97,-109.26 527.39,-275.4 659.45,-551.26 171.61,-358.47 90.99,-903.84 72.63,-1292.72 -61.9,-1311.44 39.65,-2082.48 1064.94,-3026.12 1387.06,-1276.61 3814.65,-1344.99 5303.55,-215.08 831.16,630.75 1368.76,1519.4 1475.94,2561.89 100.82,980.67 -126.91,1685.67 -910.25,2312.64 -148.41,118.77 -307.7,229.97 -474.03,334.18 85.32,164.38 134.55,357.75 134.55,564.73 0,597.15 -409.49,1081.24 -914.61,1081.24 -453.83,0 -830.39,-390.78 -902.2,-903.24l-1473.01 -24.44c-64.33,516.1 -444.96,912.51 -904.98,912.51 -462.53,0 -844.8,-400.77 -906,-921.01l-133.6 -9.82z"/>
    <path class="fil4" d="M5509.32 9668.06c-569.26,302.15 -1217.61,317.53 -1930.91,97.53 436.92,-171.73 736.33,-431.32 901.62,-776.58 222.85,-465.5 140.1,-1007.14 116.4,-1509.04 -50.84,-1076.86 -40.57,-1782.8 919.65,-2672.5 1265.72,-1158.98 3446.78,-1146.81 4724.66,-187.63 875.32,674.85 1224.69,1518.89 1299.69,2248.32 85.82,834.73 -82.98,1385.42 -743.19,1913.82 -140.94,112.82 -302.83,225.03 -485.1,336.06 -140.96,-104.98 -307.85,-165.77 -486.76,-165.77 -425.22,0 -782.64,343.06 -885.09,807.81l-1516.45 -25.16c-110.27,-444.96 -461.89,-770.35 -878.66,-770.35 -414.3,0 -764.18,321.55 -876.65,762.47l-159.21 -58.98zm3571.8 -1429.19c-541.14,532.25 -1775.01,469.75 -2172.92,-177.24 -140.73,-228.81 -239.82,-486.45 -231.53,-768.27l0 -771.88 450.9 -3.11 2.77 617.29c0.75,166.13 9.57,288.96 79.33,452.34 139.94,327.64 472.05,559.67 855.26,560.52 444.03,0 810.47,-310.35 904.28,-720.2 42.18,-184.32 24.65,-563.75 24.65,-745.91l-295.27 0 252.45 -258.38 252.44 -258.37 252.44 258.37 252.45 258.38 -309.51 0 0 441.94c0,443.1 7.9,794.24 -317.74,1114.52zm-1846.35 -3107.87c262.18,0 474.73,212.55 474.73,474.73 0,262.19 -212.55,474.73 -474.73,474.73 -262.19,0 -474.72,-212.54 -474.72,-474.73 0,-262.18 212.53,-474.73 474.72,-474.73zm1655.07 7.35c262.19,0 474.73,212.54 474.73,474.72 0,262.19 -212.54,474.72 -474.73,474.72 -262.18,0 -474.72,-212.53 -474.72,-474.72 0,-262.18 212.54,-474.72 474.72,-474.72z"/>
    <ellipse class="fil4" cx="9820.01" cy="10065.86" rx="274.2" ry="402.92"/>
    <ellipse class="fil4" cx="6516.81" cy="10065.86" rx="274.2" ry="402.92"/>
   </g>
  </g>
 </g>
</svg>
