<?xml version="1.0" encoding="UTF-8"?>
<!DOCTYPE svg PUBLIC "-//W3C//DTD SVG 1.1//EN" "http://www.w3.org/Graphics/SVG/1.1/DTD/svg11.dtd">
<!-- Creator: CorelDRAW -->
<svg xmlns="http://www.w3.org/2000/svg" xml:space="preserve" width="152.4mm" height="152.4mm" version="1.1" style="shape-rendering:geometricPrecision; text-rendering:geometricPrecision; image-rendering:optimizeQuality; fill-rule:evenodd; clip-rule:evenodd"
viewBox="0 0 15240 15240"
 xmlns:xlink="http://www.w3.org/1999/xlink"
 xmlns:xodm="http://www.corel.com/coreldraw/odm/2003">
 <defs>
  <style type="text/css">
   <![CDATA[
    .fil0 {fill:none}
    .fil3 {fill:#3C3B3C}
    .fil1 {fill:#64B4EC}
    .fil2 {fill:#BDE4FF}
    .fil4 {fill:white}
   ]]>
  </style>
 </defs>
 <g id="Capa_x0020_1">
  <metadata id="CorelCorpID_0Corel-Layer"/>
  <g id="_2981804076272">
   <rect class="fil0" x="-0" y="-0" width="15240" height="15240"/>
   <path class="fil1" d="M5302.97 620.06c602.29,-87.67 1258.56,-139.78 1925.26,-155.94l0 -2.44c130.23,-2.33 260.7,-3.31 391.1,-2.91l1.35 0c130.4,-0.4 260.88,0.57 391.1,2.91l0 2.44c666.7,16.16 1322.97,68.27 1925.26,155.94 1168.23,170.04 2034.35,454.91 2991.98,961.24 375,198.28 624.47,507.53 738.86,916.01 546.7,1952.26 593.62,4475.73 -355.27,6693.43 -1022.72,2390.25 -2931.53,4171.57 -5219.41,5347.67l-81.42 41.85 0 0.18 -19.03 9.6 -369.3 189.85 -3.43 1.43 -3.46 -1.43 -369.29 -189.85 -19.04 -9.6 0 -0.18 -81.42 -41.85c-2287.88,-1176.1 -4196.69,-2957.42 -5219.4,-5347.67 -948.9,-2217.7 -901.98,-4741.17 -355.27,-6693.43 114.39,-408.48 363.85,-717.73 738.85,-916.01 957.63,-506.33 1823.76,-791.2 2991.98,-961.24z"/>
   <path class="fil2" d="M5272.5 527.99c610.21,-88.82 1275.11,-141.62 1950.58,-157.99l0 -2.47c131.94,-2.36 264.13,-3.35 396.24,-2.95l1.37 0c132.12,-0.4 264.31,0.58 396.24,2.95l0 2.47c675.47,16.37 1340.37,69.17 1950.59,157.99 1183.59,172.28 2061.1,460.89 3031.33,973.89 379.93,200.88 632.68,514.2 748.57,928.05 553.9,1977.94 601.43,4534.6 -359.94,6781.46 -1036.17,2421.7 -2970.08,4226.45 -5288.06,5418.02l-82.49 42.4 0 0.18 -19.28 9.73 -374.16 192.34 -3.47 1.45 -3.5 -1.45 -374.16 -192.34 -19.28 -9.73 0 -0.18 -82.49 -42.4c-2317.98,-1191.57 -4251.89,-2996.32 -5288.05,-5418.02 -961.38,-2246.86 -913.85,-4803.52 -359.95,-6781.46 115.9,-413.85 368.64,-727.17 748.58,-928.05 970.22,-513 1847.74,-801.61 3031.33,-973.89zm151.33 1039.69c-1063.03,154.73 -2023.76,454.89 -2852.19,943.01 -1334,4290.73 309.12,8747.6 5049.28,11184.3 4789.49,-2416.98 6493.14,-6893.57 5159.14,-11184.3 -810,-477.25 -1746.44,-774.83 -2781.36,-932.47 -1360.59,-207.25 -3211.6,-208.97 -4574.87,-10.54z"/>
   <path class="fil3" d="M6033.14 9171.99c-634.21,263.69 -1319.09,231.4 -1980.79,27.32l-559.19 -172.46c-94.8,-29.24 -157.82,-111.35 -161.55,-210.48 -3.74,-99.15 52.92,-185.76 145.26,-222.06l544.62 -214.05c267.25,-105.04 507.04,-264.77 634.01,-529.99 164.99,-344.63 87.48,-868.96 69.83,-1242.83 -59.52,-1260.84 38.12,-2002.13 1023.84,-2909.36 1333.54,-1227.35 3667.46,-1293.09 5098.91,-206.78 799.09,606.41 1315.94,1460.77 1418.99,2463.04 96.93,942.83 -122.02,1620.62 -875.13,2223.4 -142.68,114.19 -295.83,221.1 -455.74,321.29 82.03,158.03 129.36,343.94 129.36,542.94 0,574.1 -393.69,1039.51 -879.32,1039.51 -436.32,0 -798.35,-375.7 -867.39,-868.38l-1416.17 -23.5c-61.85,496.19 -427.79,877.3 -870.06,877.3 -444.68,0 -812.2,-385.31 -871.04,-885.47l-109.93 -0.42 -18.51 -9.02z"/>
   <path class="fil4" d="M6036.73 8690.62c-547.29,290.49 -1170.62,305.27 -1856.4,93.76 420.06,-165.1 707.92,-414.67 866.83,-746.61 214.25,-447.54 134.69,-968.28 111.91,-1450.81 -48.88,-1035.31 -39.01,-1714.01 884.16,-2569.38 1216.88,-1114.26 3313.78,-1102.56 4542.35,-180.39 841.55,648.81 1177.44,1460.28 1249.54,2161.56 82.51,802.53 -79.78,1331.97 -714.51,1839.98 -135.5,108.46 -291.15,216.34 -466.38,323.09 -135.52,-100.93 -295.97,-159.37 -467.98,-159.37 -408.81,0 -752.44,329.82 -850.94,776.64l-1457.93 -24.19c-106.02,-427.79 -444.07,-740.63 -844.76,-740.63 -398.31,0 -734.69,309.14 -842.82,733.05l-37.12 -0.15 -115.95 -56.55zm3433.98 -1374.05c-520.26,511.72 -1706.52,451.63 -2089.08,-170.4 -135.3,-219.98 -230.56,-467.68 -222.59,-738.62l0 -742.1 433.5 -2.99 3.4 757.96 9.76 -0.45c41.44,454.06 423.17,809.74 888.03,809.74 516.12,0 923.19,-436.1 889.88,-950.14l3.21 0 0 -459.4 -283.88 0 242.71 -248.41 242.7 -248.4 242.7 248.4 242.71 248.41 -297.57 0 0 424.89c0,426 7.59,763.59 -305.48,1071.51zm-1775.11 -2987.94c252.07,0 456.41,204.34 456.41,456.41 0,252.07 -204.34,456.41 -456.41,456.41 -252.07,0 -456.4,-204.34 -456.4,-456.41 0,-252.07 204.33,-456.41 456.4,-456.41zm1591.21 7.06c252.07,0 456.41,204.34 456.41,456.4 0,252.08 -204.34,456.41 -456.41,456.41 -252.06,0 -456.4,-204.33 -456.4,-456.41 0,-252.06 204.34,-456.4 456.4,-456.4z"/>
   <ellipse class="fil4" cx="10181.09" cy="9073.07" rx="263.62" ry="387.37"/>
   <ellipse class="fil4" cx="7005.35" cy="9073.07" rx="263.62" ry="387.37"/>
  </g>
 </g>
</svg>
