<?xml version="1.0" encoding="UTF-8"?>
<!DOCTYPE svg PUBLIC "-//W3C//DTD SVG 1.1//EN" "http://www.w3.org/Graphics/SVG/1.1/DTD/svg11.dtd">
<!-- Creator: CorelDRAW -->
<svg xmlns="http://www.w3.org/2000/svg" xml:space="preserve" width="152.4mm" height="152.4mm" version="1.1" style="shape-rendering:geometricPrecision; text-rendering:geometricPrecision; image-rendering:optimizeQuality; fill-rule:evenodd; clip-rule:evenodd"
viewBox="0 0 15240 15240"
 xmlns:xlink="http://www.w3.org/1999/xlink"
 xmlns:xodm="http://www.corel.com/coreldraw/odm/2003">
 <defs>
  <style type="text/css">
   <![CDATA[
    .fil0 {fill:none}
    .fil2 {fill:#EF6226}
    .fil1 {fill:#FFD064}
   ]]>
  </style>
 </defs>
 <g id="Capa_x0020_1">
  <metadata id="CorelCorpID_0Corel-Layer"/>
  <g id="_2981851190144">
   <rect class="fil0" x="-0" y="-0" width="15240" height="15240"/>
   <ellipse id="contour" class="fil1" cx="7620.01" cy="7620" rx="7200.69" ry="7200.73"/>
   <path id="contour_22" class="fil2" d="M7620.01 364.25c4007.22,0 7255.71,3248.52 7255.71,7255.75 0,4007.22 -3248.49,7255.74 -7255.71,7255.74 -4007.22,0 -7255.7,-3248.52 -7255.7,-7255.74 0,-4007.23 3248.48,-7255.75 7255.7,-7255.75zm-0.06 985.8c3462.82,0 6270.01,2807.18 6270.01,6270 0,3462.82 -2807.19,6270.01 -6270.01,6270.01 -3462.82,0 -6270,-2807.19 -6270,-6270.01 0,-3462.82 2807.18,-6270 6270,-6270z"/>
   <path class="fil2" d="M7672.48 7625.53l1199.56 0c113.15,0 205.73,92.58 205.73,205.74 0,113.16 -92.58,205.74 -205.73,205.74l-1199.56 0 0 1.02 -411.75 0 0 -1.02 0 -411.48 0 -2089.67c0,-113.23 92.64,-205.87 205.87,-205.87l0.01 0c113.23,0 205.87,92.64 205.87,205.87l0 2089.67zm-104.02 -3785.62c820.29,0 1578.98,263.34 2196.52,709.83l89.74 -134.78 -880.13 -618.56c-39.14,-27.51 -62.25,-66.24 -67.86,-113.75 -5.61,-47.51 7.83,-90.56 39.48,-126.43 289.94,-328.54 714.1,-535.81 1186.74,-535.81 275.11,0 533.79,70.25 759.17,193.73l6.43 -8.9c80.36,-111.64 236.02,-137 347.66,-56.64 111.64,80.36 137,236.02 56.64,347.66l-16.7 23.14c266.09,283.11 429.16,664.18 429.16,1083.37 0,276.44 -70.9,536.32 -195.49,762.46 -23.07,41.86 -59.01,69.03 -105.58,79.8 -46.57,10.77 -90.79,2.14 -129.9,-25.34l-908.78 -638.69 -84.38 -59.3 -140.9 147.45c721.41,683.94 1171.36,1651.38 1171.36,2723.94 0,1201.53 -564.65,2271.14 -1443.03,2958.06l690.26 891.86c151.9,196.25 115.93,478.5 -80.31,630.4 -196.25,151.9 -478.5,115.93 -630.4,-80.32l-754.15 -974.41c-468.74,210.44 -988.45,327.59 -1535.55,327.59 -516.27,0 -1008.17,-104.29 -1455.85,-292.87l-755.63 1042.84c-145.62,200.95 -426.59,245.82 -627.54,100.2 -200.95,-145.62 -245.82,-426.59 -100.2,-627.54l698.83 -964.45c-918.14,-684.17 -1512.79,-1778.3 -1512.79,-3011.36 0,-1077.37 454.06,-2048.59 1181.14,-2733.04l-130.39 -180.65 -908.78 638.69c-39.11,27.48 -83.33,36.11 -129.9,25.34 -46.57,-10.77 -82.51,-37.94 -105.58,-79.8 -124.59,-226.14 -195.49,-486.02 -195.49,-762.46 0,-419.19 163.07,-800.26 429.16,-1083.37l-16.7 -23.14c-80.36,-111.64 -55,-267.3 56.64,-347.66 111.64,-80.36 267.3,-55 347.66,56.64l6.43 8.9c225.38,-123.48 484.06,-193.73 759.17,-193.73 472.64,0 896.8,207.27 1186.74,535.81 31.65,35.87 45.09,78.92 39.48,126.43 -5.61,47.51 -28.72,86.24 -67.86,113.75l-993.37 698.14 108.05 149.7c615.77,-442.21 1370.81,-702.73 2186.78,-702.73zm0 750.92c1658.11,0 3002.26,1344.15 3002.26,3002.26 0,1658.11 -1344.15,3002.26 -3002.26,3002.26 -1658.11,0 -3002.26,-1344.15 -3002.26,-3002.26 0,-1658.11 1344.15,-3002.26 3002.26,-3002.26z"/>
  </g>
 </g>
</svg>
