<?xml version="1.0" encoding="UTF-8"?>
<!DOCTYPE svg PUBLIC "-//W3C//DTD SVG 1.1//EN" "http://www.w3.org/Graphics/SVG/1.1/DTD/svg11.dtd">
<!-- Creator: CorelDRAW -->
<svg xmlns="http://www.w3.org/2000/svg" xml:space="preserve" width="152.4mm" height="152.4mm" version="1.1" style="shape-rendering:geometricPrecision; text-rendering:geometricPrecision; image-rendering:optimizeQuality; fill-rule:evenodd; clip-rule:evenodd"
viewBox="0 0 15240 15240"
 xmlns:xlink="http://www.w3.org/1999/xlink"
 xmlns:xodm="http://www.corel.com/coreldraw/odm/2003">
 <defs>
  <style type="text/css">
   <![CDATA[
    .fil0 {fill:none}
    .fil1 {fill:#00B1AB}
    .fil3 {fill:#037870}
    .fil2 {fill:white}
   ]]>
  </style>
 </defs>
 <g id="Capa_x0020_1">
  <metadata id="CorelCorpID_0Corel-Layer"/>
  <g id="_1878236363952">
   <rect class="fil0" x="-0" y="-0" width="15240" height="15240"/>
   <path class="fil1" d="M5302.97 620.06c602.29,-87.67 1258.56,-139.78 1925.26,-155.94l0 -2.44c130.23,-2.33 260.7,-3.31 391.1,-2.91l1.35 0c130.4,-0.4 260.88,0.57 391.1,2.91l0 2.44c666.7,16.16 1322.97,68.27 1925.26,155.94 1168.23,170.04 2034.35,454.91 2991.98,961.24 375,198.28 624.47,507.53 738.86,916.01 546.7,1952.26 593.62,4475.73 -355.27,6693.43 -1022.72,2390.25 -2931.53,4171.57 -5219.41,5347.67l-81.42 41.85 0 0.18 -19.03 9.6 -369.3 189.85 -3.43 1.43 -3.46 -1.43 -369.29 -189.85 -19.04 -9.6 0 -0.18 -81.42 -41.85c-2287.88,-1176.1 -4196.69,-2957.42 -5219.4,-5347.67 -948.9,-2217.7 -901.98,-4741.17 -355.27,-6693.43 114.39,-408.48 363.85,-717.73 738.85,-916.01 957.63,-506.33 1823.76,-791.2 2991.98,-961.24z"/>
   <path class="fil2" d="M8458.41 14343.56c-120.62,66.66 -242.33,131.68 -365.21,194.85l-81.42 41.85 0 0.18 -19.03 9.6 -369.3 189.85 -3.43 1.43 -3.46 -1.43 -369.29 -189.85 -19.04 -9.6 0 -0.18 -81.42 -41.85c-117.73,-60.52 -234.39,-122.74 -350.04,-186.46l96.29 -580c126.26,-2707.74 -1207.96,-3381.05 -1957.49,-3904.91 -818.95,-571.21 -2060.79,-1738.92 -2278.53,-3065.92 -70.97,-441.8 -29.99,-901.01 178.32,-1363.32 517.54,1052.49 1552.67,1134.55 2392.14,1465.9 599.6,236.7 2396.84,796.82 2396.84,1907.69l7.99 -0.06c0,-1110.87 1797.25,-1670.99 2396.85,-1907.69 839.4,-331.35 1874.54,-413.41 2390.53,-1465.9 833.14,1844.6 -1009.91,3667.13 -2101.82,4429.24 -749.53,523.86 -2100.93,1197.17 -1974.67,3904.91l115.19 571.67z"/>
   <path class="fil3" d="M5272.5 527.99c610.21,-88.82 1275.11,-141.62 1950.58,-157.99l0 -2.47c131.94,-2.36 264.13,-3.35 396.24,-2.95l1.37 0c132.12,-0.4 264.31,0.58 396.24,2.95l0 2.47c675.47,16.37 1340.37,69.17 1950.59,157.99 1183.59,172.28 2061.1,460.89 3031.33,973.89 379.93,200.88 632.68,514.2 748.57,928.05 553.9,1977.94 601.43,4534.6 -359.94,6781.46 -1036.17,2421.7 -2970.08,4226.45 -5288.06,5418.02l-82.49 42.4 0 0.18 -19.28 9.73 -374.16 192.34 -3.47 1.45 -3.5 -1.45 -374.16 -192.34 -19.28 -9.73 0 -0.18 -82.49 -42.4c-2317.98,-1191.57 -4251.89,-2996.32 -5288.05,-5418.02 -961.38,-2246.86 -913.85,-4803.52 -359.95,-6781.46 115.9,-413.85 368.64,-727.17 748.58,-928.05 970.22,-513 1847.74,-801.61 3031.33,-973.89zm151.33 1039.69c-1063.03,154.73 -2023.76,454.89 -2852.19,943.01 -1334,4290.73 309.12,8747.6 5049.28,11184.3 4789.49,-2416.98 6493.14,-6893.57 5159.14,-11184.3 -810,-477.25 -1746.44,-774.83 -2781.36,-932.47 -1360.59,-207.25 -3211.6,-208.97 -4574.87,-10.54z"/>
   <path class="fil3" d="M4732.7 3364.87l668.52 0 0 2262.35 -668.52 0 0 -2262.35zm4959.02 -74.9c700.16,0 1267.76,545.26 1267.76,1217.87 0,672.61 -567.6,1217.87 -1267.76,1217.87 -700.16,0 -1267.76,-545.26 -1267.76,-1217.87 0,-672.61 567.6,-1217.87 1267.76,-1217.87zm8.49 486.02l23.86 0c335.28,0 609.6,274.32 609.6,609.6l0 257.27c0,335.28 -274.32,609.6 -609.6,609.6l-23.86 0c-335.28,0 -609.6,-274.32 -609.6,-609.6l0 -257.27c0,-335.28 274.32,-609.6 609.6,-609.6zm-2617.62 -411.12l668.52 0 0 1282.89 398.64 0 0 464.58 -398.64 0 0 514.88 -668.52 0 0 -514.88 -1322.63 0 0 -424.85 1322.63 -1322.62zm0 601.16l-671.24 671.23 671.24 0 0 -648.39 0 -22.84z"/>
  </g>
 </g>
</svg>
