<?xml version="1.0" encoding="UTF-8"?>
<!DOCTYPE svg PUBLIC "-//W3C//DTD SVG 1.1//EN" "http://www.w3.org/Graphics/SVG/1.1/DTD/svg11.dtd">
<!-- Creator: CorelDRAW -->
<svg xmlns="http://www.w3.org/2000/svg" xml:space="preserve" width="152.4mm" height="152.4mm" version="1.1" style="shape-rendering:geometricPrecision; text-rendering:geometricPrecision; image-rendering:optimizeQuality; fill-rule:evenodd; clip-rule:evenodd"
viewBox="0 0 4876.9 4876.9"
 xmlns:xlink="http://www.w3.org/1999/xlink"
 xmlns:xodm="http://www.corel.com/coreldraw/odm/2003">
 <defs>
  <style type="text/css">
   <![CDATA[
    .fil0 {fill:none}
    .fil1 {fill:#00B1AB}
    .fil4 {fill:#037870}
    .fil3 {fill:#037870}
    .fil2 {fill:white}
   ]]>
  </style>
 </defs>
 <g id="Capa_x0020_1">
  <metadata id="CorelCorpID_0Corel-Layer"/>
  <g id="_1878403565520">
   <rect class="fil0" x="-0" y="-0" width="4876.9" height="4876.9"/>
   <ellipse id="contour" class="fil1" cx="2438.46" cy="2438.45" rx="2304.27" ry="2304.28"/>
   <path id="contour_3" class="fil2" d="M2765.92 4719.46c-106.98,15.22 -216.27,23.27 -327.46,23.27 -102.34,0 -203.1,-6.76 -301.92,-19.69 29.4,-124.94 62.19,-248.48 74.32,-321.57 40.07,-859.38 -383.38,-1073.07 -621.26,-1239.33 -259.92,-181.29 -654.05,-551.9 -723.15,-973.06 -22.53,-140.22 -9.52,-285.96 56.59,-432.69 164.26,334.04 492.78,360.08 759.21,465.25 190.3,75.12 760.7,252.89 760.7,605.46l2.54 -0.02c0,-352.57 570.41,-530.34 760.71,-605.46 266.41,-105.16 594.94,-131.21 758.7,-465.25 264.42,585.44 -320.52,1163.87 -667.07,1405.75 -237.88,166.26 -666.79,379.95 -626.72,1239.33 12.49,62 51.92,188.4 94.8,318.02z"/>
   <path id="contour_4" class="fil3" d="M2438.46 116.56c1282.34,0 2321.88,1039.55 2321.88,2321.89 0,1282.34 -1039.54,2321.89 -2321.88,2321.89 -1282.34,0 -2321.87,-1039.55 -2321.87,-2321.89 0,-1282.34 1039.54,-2321.89 2321.87,-2321.89zm-0.02 315.46c1108.13,0 2006.45,898.32 2006.45,2006.44 0,1108.13 -898.32,2006.45 -2006.45,2006.45 -1108.13,0 -2006.44,-898.32 -2006.44,-2006.45 0,-1108.13 898.32,-2006.44 2006.44,-2006.44z"/>
   <path class="fil4" d="M1514.5 1076.78l213.93 0 0 723.97 -213.93 0 0 -723.97zm1586.92 -23.97c224.06,0 405.69,174.49 405.69,389.73 0,215.24 -181.64,389.73 -405.69,389.73 -224.06,0 -405.69,-174.49 -405.69,-389.73 0,-215.24 181.64,-389.73 405.69,-389.73zm2.72 155.53l7.64 0c107.29,0 195.08,87.78 195.08,195.08l0 82.33c0,107.29 -87.78,195.08 -195.08,195.08l-7.64 0c-107.29,0 -195.08,-87.78 -195.08,-195.08l0 -82.33c0,-107.29 87.78,-195.08 195.08,-195.08zm-837.66 -131.56l213.93 0 0 410.53 127.57 0 0 148.67 -127.57 0 0 164.77 -213.93 0 0 -164.77 -423.25 0 0 -135.95 423.25 -423.25zm0 192.38l-214.8 214.8 214.8 0 0 -207.49 0 -7.31z"/>
  </g>
 </g>
</svg>
