<?xml version="1.0" encoding="UTF-8"?>
<!DOCTYPE svg PUBLIC "-//W3C//DTD SVG 1.1//EN" "http://www.w3.org/Graphics/SVG/1.1/DTD/svg11.dtd">
<!-- Creator: CorelDRAW -->
<svg xmlns="http://www.w3.org/2000/svg" xml:space="preserve" width="152.4mm" height="152.4mm" version="1.1" style="shape-rendering:geometricPrecision; text-rendering:geometricPrecision; image-rendering:optimizeQuality; fill-rule:evenodd; clip-rule:evenodd"
viewBox="0 0 15240 15240"
 xmlns:xlink="http://www.w3.org/1999/xlink"
 xmlns:xodm="http://www.corel.com/coreldraw/odm/2003">
 <defs>
  <style type="text/css">
   <![CDATA[
    .fil0 {fill:none}
    .fil3 {fill:#5A1D18}
    .fil4 {fill:#5F3635}
    .fil2 {fill:#5F3635}
    .fil1 {fill:#D7FEFE}
   ]]>
  </style>
 </defs>
 <g id="Capa_x0020_1">
  <metadata id="CorelCorpID_0Corel-Layer"/>
  <g id="_3018017966160">
   <rect class="fil0" x="-0" y="-0" width="15240" height="15240"/>
   <path class="fil1" d="M5302.97 620.06c602.29,-87.67 1258.56,-139.78 1925.26,-155.94l0 -2.44c130.23,-2.33 260.7,-3.31 391.1,-2.91l1.35 0c130.4,-0.4 260.88,0.57 391.1,2.91l0 2.44c666.7,16.16 1322.97,68.27 1925.26,155.94 1168.23,170.04 2034.35,454.91 2991.98,961.24 375,198.28 624.47,507.53 738.86,916.01 546.7,1952.26 593.62,4475.73 -355.27,6693.43 -1022.72,2390.25 -2931.53,4171.57 -5219.41,5347.67l-81.42 41.85 0 0.18 -19.03 9.6 -369.3 189.85 -3.43 1.43 -3.46 -1.43 -369.29 -189.85 -19.04 -9.6 0 -0.18 -81.42 -41.85c-2287.88,-1176.1 -4196.69,-2957.42 -5219.4,-5347.67 -948.9,-2217.7 -901.98,-4741.17 -355.27,-6693.43 114.39,-408.48 363.85,-717.73 738.85,-916.01 957.63,-506.33 1823.76,-791.2 2991.98,-961.24z"/>
   <path class="fil2" d="M5272.5 527.99c610.21,-88.82 1275.11,-141.62 1950.58,-157.99l0 -2.47c131.94,-2.36 264.13,-3.35 396.24,-2.95l1.37 0c132.12,-0.4 264.31,0.58 396.24,2.95l0 2.47c675.47,16.37 1340.37,69.17 1950.59,157.99 1183.59,172.28 2061.1,460.89 3031.33,973.89 379.93,200.88 632.68,514.2 748.57,928.05 553.9,1977.94 601.43,4534.6 -359.94,6781.46 -1036.17,2421.7 -2970.08,4226.45 -5288.06,5418.02l-82.49 42.4 0 0.18 -19.28 9.73 -374.16 192.34 -3.47 1.45 -3.5 -1.45 -374.16 -192.34 -19.28 -9.73 0 -0.18 -82.49 -42.4c-2317.98,-1191.57 -4251.89,-2996.32 -5288.05,-5418.02 -961.38,-2246.86 -913.85,-4803.52 -359.95,-6781.46 115.9,-413.85 368.64,-727.17 748.58,-928.05 970.22,-513 1847.74,-801.61 3031.33,-973.89zm151.33 1039.69c-1063.03,154.73 -2023.76,454.89 -2852.19,943.01 -1334,4290.73 309.12,8747.6 5049.28,11184.3 4789.49,-2416.98 6493.14,-6893.57 5159.14,-11184.3 -810,-477.25 -1746.44,-774.83 -2781.36,-932.47 -1360.59,-207.25 -3211.6,-208.97 -4574.87,-10.54z"/>
   <path class="fil3" d="M4599.78 5434.54c-580.01,-630.35 -23.18,-1222.9 298.58,-1715.05 64.05,-97.98 146.61,-284.58 268.89,-308.83 79.71,-15.81 140.49,54.84 206.56,137.17 989.69,1190.1 1960.42,2587.82 2771.2,3678.4 223.06,300 314.14,351.17 671.56,500.42 511.63,213.65 1059.01,279.94 1626.74,262.18 163.03,-5.08 376.06,-20.51 524.57,-45.55 80.66,-13.6 126.04,34.04 126.48,94.08l53.48 645.25c-903.8,681.03 -1975,842.26 -3134.5,729.22 -494.5,-16.29 -759.22,-515.51 -928.73,-1336.59 -307.57,-792.68 -680.08,-1455.51 -1191.95,-1839.56 -136.45,-102.37 -293.3,-237.07 -440.61,-70.78 -73.06,82.5 -105.67,224.15 -104.62,414.97 55.93,1065.17 31.87,2042.33 -36.9,2970.33l-396.66 0c65.77,-1365.57 -71.03,-3251.46 -314.09,-4115.66z"/>
   <path class="fil4" d="M11069.21 8647.12l-50.02 -603.53c-0.17,-1.99 -0.24,-3.68 -0.26,-5.68 -0.17,-23.41 -18.54,-23.62 -38.51,-20.25 -171.39,28.9 -360.76,41.12 -534.75,46.56 -568.32,17.77 -1130.53,-47.64 -1658.17,-267.96 -358.34,-149.64 -468.73,-209.89 -703.02,-525.03 -915.28,-1231.1 -1788.27,-2493.57 -2768.72,-3675.23 -22.77,-27.45 -91.51,-119.75 -133.84,-111.35 -83.13,16.49 -176.65,209.16 -220.43,276.12 -331.6,507.22 -840.38,1042.16 -306.2,1622.7 8.41,9.14 13.74,18.69 17.1,30.65 75.09,266.97 123.46,550.99 162.92,825.3 50.5,351.14 85.97,705.57 112.54,1059.29 28.81,383.36 46.87,768.02 54.29,1152.39 6.57,340.86 5.03,682.9 -9.36,1023.67l247.61 0c68.76,-963.7 82.4,-1925.64 31.71,-2890.94 -0.06,-1.25 -0.09,-2.3 -0.1,-3.54 -0.84,-152.82 17.63,-345.79 123.59,-465.4 83.1,-93.83 186.75,-127.48 305.37,-86.68 87.19,29.99 163.84,92.27 236.97,147.13 585.04,438.95 958.46,1206.29 1217,1872.61 1.6,4.11 2.66,7.73 3.55,12.04 63.31,306.63 159.63,679.29 331.86,944.23 125.49,193.02 289.14,324.44 525.48,332.22 1.7,0.06 3.15,0.15 4.84,0.32 1092.51,106.5 2148.73,-27.61 3048.55,-689.64z"/>
  </g>
 </g>
</svg>
