<?xml version="1.0" encoding="UTF-8"?>
<!DOCTYPE svg PUBLIC "-//W3C//DTD SVG 1.1//EN" "http://www.w3.org/Graphics/SVG/1.1/DTD/svg11.dtd">
<!-- Creator: CorelDRAW -->
<svg xmlns="http://www.w3.org/2000/svg" xml:space="preserve" width="152.4mm" height="152.4mm" version="1.1" style="shape-rendering:geometricPrecision; text-rendering:geometricPrecision; image-rendering:optimizeQuality; fill-rule:evenodd; clip-rule:evenodd"
viewBox="0 0 15240 15240"
 xmlns:xlink="http://www.w3.org/1999/xlink"
 xmlns:xodm="http://www.corel.com/coreldraw/odm/2003">
 <defs>
  <style type="text/css">
   <![CDATA[
    .fil0 {fill:none}
    .fil3 {fill:#5A1D18}
    .fil4 {fill:#5F3635}
    .fil2 {fill:#5F3635}
    .fil1 {fill:#D7FEFE}
   ]]>
  </style>
 </defs>
 <g id="Capa_x0020_1">
  <metadata id="CorelCorpID_0Corel-Layer"/>
  <g id="_2981831038768">
   <rect class="fil0" x="-0" y="-0" width="15240" height="15240"/>
   <ellipse id="contour" class="fil1" cx="7620.01" cy="7620" rx="7200.69" ry="7200.73"/>
   <path id="contour_162" class="fil2" d="M7620.01 364.25c4007.22,0 7255.71,3248.52 7255.71,7255.75 0,4007.22 -3248.49,7255.74 -7255.71,7255.74 -4007.22,0 -7255.7,-3248.52 -7255.7,-7255.74 0,-4007.23 3248.48,-7255.75 7255.7,-7255.75zm-0.06 985.8c3462.82,0 6270.01,2807.18 6270.01,6270 0,3462.82 -2807.19,6270.01 -6270.01,6270.01 -3462.82,0 -6270,-2807.19 -6270,-6270.01 0,-3462.82 2807.18,-6270 6270,-6270z"/>
   <g>
    <path class="fil3" d="M3731.04 5750.75c-804.11,-873.9 -32.13,-1695.39 413.95,-2377.7 88.79,-135.83 203.25,-394.53 372.78,-428.15 110.5,-21.92 194.77,76.03 286.36,190.17 1372.08,1649.92 2717.87,3587.68 3841.91,5099.62 309.25,415.91 435.52,486.85 931.03,693.77 709.31,296.2 1468.18,388.1 2255.27,363.48 226.02,-7.04 521.36,-28.44 727.25,-63.15 111.82,-18.86 174.73,47.19 175.34,130.43l74.15 894.55c-1253,944.16 -2738.08,1167.69 -4345.58,1010.97 -685.56,-22.58 -1052.56,-714.68 -1287.56,-1853.01 -426.41,-1098.94 -942.85,-2017.87 -1652.49,-2550.31 -189.17,-141.92 -406.62,-328.66 -610.85,-98.12 -101.28,114.37 -146.49,310.75 -145.04,575.3 77.54,1476.72 44.19,2831.42 -51.15,4117.97l-549.92 0c91.18,-1893.18 -98.48,-4507.72 -435.45,-5705.82z"/>
    <path class="fil4" d="M12700.07 10204.57l-69.35 -836.71c-0.24,-2.76 -0.33,-5.11 -0.36,-7.88 -0.24,-32.45 -25.7,-32.74 -53.39,-28.07 -237.61,40.06 -500.15,57.01 -741.36,64.55 -787.9,24.63 -1567.33,-66.05 -2298.84,-371.49 -496.79,-207.46 -649.83,-290.99 -974.64,-727.89 -1268.92,-1706.76 -2479.21,-3457.01 -3838.47,-5095.23 -31.57,-38.05 -126.87,-166.02 -185.56,-154.37 -115.24,22.86 -244.9,289.97 -305.59,382.8 -459.72,703.2 -1165.08,1444.82 -424.51,2249.67 11.66,12.67 19.05,25.91 23.71,42.49 104.1,370.12 171.16,763.87 225.86,1144.17 70.02,486.81 119.19,978.18 156.03,1468.57 39.94,531.48 64.98,1064.76 75.26,1597.64 9.11,472.55 6.98,946.75 -12.97,1419.18l343.28 0c95.32,-1336.04 114.23,-2669.65 43.96,-4007.91 -0.09,-1.73 -0.13,-3.19 -0.14,-4.91 -1.17,-211.86 24.44,-479.39 171.34,-645.22 115.21,-130.08 258.9,-176.73 423.36,-120.17 120.87,41.58 227.14,127.92 328.52,203.98 811.09,608.55 1328.78,1672.36 1687.22,2596.13 2.21,5.7 3.68,10.72 4.92,16.69 87.77,425.11 221.3,941.75 460.08,1309.05 173.97,267.6 400.85,449.8 728.51,460.58 2.35,0.09 4.37,0.21 6.71,0.45 1514.62,147.65 2978.93,-38.28 4226.42,-956.1z"/>
   </g>
  </g>
 </g>
</svg>
