<?xml version="1.0" encoding="UTF-8"?>
<!DOCTYPE svg PUBLIC "-//W3C//DTD SVG 1.1//EN" "http://www.w3.org/Graphics/SVG/1.1/DTD/svg11.dtd">
<!-- Creator: CorelDRAW -->
<svg xmlns="http://www.w3.org/2000/svg" xml:space="preserve" width="152.4mm" height="152.4mm" version="1.1" style="shape-rendering:geometricPrecision; text-rendering:geometricPrecision; image-rendering:optimizeQuality; fill-rule:evenodd; clip-rule:evenodd"
viewBox="0 0 15240 15240"
 xmlns:xlink="http://www.w3.org/1999/xlink"
 xmlns:xodm="http://www.corel.com/coreldraw/odm/2003">
 <defs>
  <style type="text/css">
   <![CDATA[
    .fil0 {fill:none}
    .fil2 {fill:#F172A9}
    .fil1 {fill:#FDFCBB}
   ]]>
  </style>
 </defs>
 <g id="Capa_x0020_1">
  <metadata id="CorelCorpID_0Corel-Layer"/>
  <g id="_2981667012256">
   <rect class="fil0" x="-0" y="-0" width="15240" height="15240"/>
   <rect class="fil0" x="-0" y="-0" width="15240" height="15240"/>
   <ellipse id="contour" class="fil1" cx="7620.01" cy="7620" rx="7200.69" ry="7200.73"/>
   <path id="contour_16" class="fil2" d="M7620.01 364.25c4007.22,0 7255.71,3248.52 7255.71,7255.75 0,4007.22 -3248.49,7255.74 -7255.71,7255.74 -4007.22,0 -7255.7,-3248.52 -7255.7,-7255.74 0,-4007.23 3248.48,-7255.75 7255.7,-7255.75zm-0.06 985.8c3462.82,0 6270.01,2807.18 6270.01,6270 0,3462.82 -2807.19,6270.01 -6270.01,6270.01 -3462.82,0 -6270,-2807.19 -6270,-6270.01 0,-3462.82 2807.18,-6270 6270,-6270z"/>
   <path class="fil2" d="M10058.85 5660.24c-204.44,-531.59 -496.79,-1276.52 -1244.19,-1514.08 -1352.88,-430.02 -2521.51,1169.83 -1417.69,3348.56 429.89,848.5 893.37,1672.76 1458.79,2305.31 8.07,7.48 10.99,11.27 25.96,7.47 814.91,-236.1 1645.16,-688.77 2459.8,-1179.81 382.45,-230.54 890.28,-623.01 1146.36,-987.28 886.78,-1261.38 -0.87,-2853.57 -1242.96,-2614.96 -470.78,90.44 -872.14,398.97 -1186.07,634.79z"/>
   <path class="fil2" d="M5334.65 9312.98c-369.6,-195.93 -890.79,-467.67 -1419.42,-238.89 -956.9,414.13 -832.89,1864.03 829.26,2538.84 647.33,262.8 1301.58,495.97 1919.86,573.77 8.08,0.25 11.52,0.94 17.98,-8.38 337.64,-523.77 579.34,-1174.91 793.89,-1839.79 100.73,-312.15 192.83,-774.47 159.05,-1099.77 -116.95,-1126.46 -1376.5,-1580.55 -1949.6,-849.4 -217.21,277.12 -290.8,641.59 -351.02,923.62z"/>
   <path class="fil2" d="M4570.75 4776.04c-195.67,-227.22 -455.18,-453.87 -818.46,-459.55 -850.56,-13.36 -1245.15,1106.4 -235.77,2166.24 393.12,412.72 801.31,805.76 1234.94,1071.23 5.91,2.89 8.25,4.55 16.18,-0.21 426.9,-276.1 825.26,-679.13 1208.04,-1101.49 179.68,-198.29 403.38,-511.13 487.48,-764.37 291.24,-876.87 -492.89,-1637.41 -1164.5,-1286.17 -132.19,69.16 -243.5,168.83 -339.49,275.2l-273.75 711.76 401.05 505.67 -401.05 723.64 209.25 -671.32 -435.93 -540.55 112.01 -630.08z"/>
  </g>
 </g>
</svg>
