<?xml version="1.0" encoding="UTF-8"?>
<!DOCTYPE svg PUBLIC "-//W3C//DTD SVG 1.1//EN" "http://www.w3.org/Graphics/SVG/1.1/DTD/svg11.dtd">
<!-- Creator: CorelDRAW -->
<svg xmlns="http://www.w3.org/2000/svg" xml:space="preserve" width="152.4mm" height="152.4mm" version="1.1" style="shape-rendering:geometricPrecision; text-rendering:geometricPrecision; image-rendering:optimizeQuality; fill-rule:evenodd; clip-rule:evenodd"
viewBox="0 0 15240 15240"
 xmlns:xlink="http://www.w3.org/1999/xlink"
 xmlns:xodm="http://www.corel.com/coreldraw/odm/2003">
 <defs>
  <style type="text/css">
   <![CDATA[
    .fil0 {fill:none}
    .fil2 {fill:black}
    .fil1 {fill:#E51937}
   ]]>
  </style>
 </defs>
 <g id="Capa_x0020_1">
  <metadata id="CorelCorpID_0Corel-Layer"/>
  <g id="_2569770795616">
   <rect class="fil0" x="-0" y="-0" width="15240" height="15240"/>
   <path class="fil1" d="M5302.97 620.06c602.29,-87.67 1258.56,-139.78 1925.26,-155.94l0 -2.44c130.23,-2.33 260.7,-3.31 391.1,-2.91l1.35 0c130.4,-0.4 260.88,0.57 391.1,2.91l0 2.44c666.7,16.16 1322.97,68.27 1925.26,155.94 1168.23,170.04 2034.35,454.91 2991.98,961.24 375,198.28 624.47,507.53 738.86,916.01 546.7,1952.26 593.62,4475.73 -355.27,6693.43 -1022.72,2390.25 -2931.53,4171.57 -5219.41,5347.67l-81.42 41.85 0 0.18 -19.03 9.6 -369.3 189.85 -3.43 1.43 -3.46 -1.43 -369.29 -189.85 -19.04 -9.6 0 -0.18 -81.42 -41.85c-2287.88,-1176.1 -4196.69,-2957.42 -5219.4,-5347.67 -948.9,-2217.7 -901.98,-4741.17 -355.27,-6693.43 114.39,-408.48 363.85,-717.73 738.85,-916.01 957.63,-506.33 1823.76,-791.2 2991.98,-961.24z"/>
   <path class="fil2" d="M5272.5 527.99c610.21,-88.82 1275.11,-141.62 1950.58,-157.99l0 -2.47c131.94,-2.36 264.13,-3.35 396.24,-2.95l1.37 0c132.12,-0.4 264.31,0.58 396.24,2.95l0 2.47c675.47,16.37 1340.37,69.17 1950.59,157.99 1183.59,172.28 2061.1,460.89 3031.33,973.89 379.93,200.88 632.68,514.2 748.57,928.05 553.9,1977.94 601.43,4534.6 -359.94,6781.46 -1036.17,2421.7 -2970.08,4226.45 -5288.06,5418.02l-82.49 42.4 0 0.18 -19.28 9.73 -374.16 192.34 -3.47 1.45 -3.5 -1.45 -374.16 -192.34 -19.28 -9.73 0 -0.18 -82.49 -42.4c-2317.98,-1191.57 -4251.89,-2996.32 -5288.05,-5418.02 -961.38,-2246.86 -913.85,-4803.52 -359.95,-6781.46 115.9,-413.85 368.64,-727.17 748.58,-928.05 970.22,-513 1847.74,-801.61 3031.33,-973.89zm151.33 1039.69c-1063.03,154.73 -2023.76,454.89 -2852.19,943.01 -1334,4290.73 309.12,8747.6 5049.28,11184.3 4789.49,-2416.98 6493.14,-6893.57 5159.14,-11184.3 -810,-477.25 -1746.44,-774.83 -2781.36,-932.47 -1360.59,-207.25 -3211.6,-208.97 -4574.87,-10.54z"/>
   <path id="contour" class="fil2" d="M7618.88 2388.5c2417.81,0 4377.85,1960.03 4377.85,4377.85 0,2417.81 -1960.04,4377.85 -4377.85,4377.85 -2417.82,0 -4377.85,-1960.04 -4377.85,-4377.85 0,-2417.82 1960.03,-4377.85 4377.85,-4377.85z"/>
   <path class="fil1" d="M7572.07 4580.47c1206.67,0 2184.86,973.44 2184.86,2174.21 0,431.36 -126.24,833.39 -343.95,1171.48 -135.22,672.34 -1015.62,1249.18 -1829.56,1162.55 296.04,-123.43 1239.56,-140.13 1787.01,-1099.23 -394.24,567.51 -1052.6,939.42 -1798.36,939.42 -1149.68,0 -2091.94,-883.67 -2178.38,-2005.7 -152.57,-749.5 205.59,-1673.89 894.47,-2040.97 -127.08,157.09 -291.07,316.89 -441.07,538.08 399.78,-511.04 1023.76,-839.84 1724.98,-839.84zm1966.34 3467.36c-259.38,772.16 -1142.33,1307.77 -1921.29,1198.78 322.35,-108.07 1322.21,-155.44 1921.29,-1198.78zm165.61 13.66c-237.1,793.82 -1128.82,1540.85 -2166.56,1334.55 761.27,-95.46 1467.3,-185.75 2166.56,-1334.55zm149.33 88.14c-248.04,700.93 -1080.34,1676.46 -2279.62,1412.44 991.3,-80.03 1487.93,-250.43 2279.62,-1412.44zm141.35 147.62c-237.11,793.82 -1334.75,1699.79 -2379.34,1463.61 952.26,-29.3 1640.87,-428 2379.34,-1463.61zm182.4 74.31c-309.93,735.46 -1233.94,1859.61 -2579.71,1536.78 1172.77,-36.25 1827.84,-493.2 2579.71,-1536.78zm80.46 160.25c-217.43,706.29 -1217.39,1804.96 -2585.26,1593.67 1000.21,-75.67 1796.27,-428.17 2585.26,-1593.67zm138.11 106.48c-135.94,703.2 -1422.68,1940.92 -2747.38,1645.04 1149.88,-40.57 1953,-459.02 2747.38,-1645.04zm160.2 43.85c-176.36,958.4 -1664.65,2191.83 -2975.23,1776.51 1298.19,49.42 2366.19,-664.08 2975.23,-1776.51zm199.46 31.96c-134.51,1010.65 -1716.43,2436.4 -3242.2,1922.94 1256.46,104.27 2556.86,-550.66 3242.2,-1922.94zm-6891.29 -1539.17c-678.72,-793.37 -27.47,-3225.19 1502.6,-3725.69 -1330.57,934.19 -1773.57,2215.92 -1502.6,3725.69zm243.27 -65.57c-651.85,-820.24 12.84,-3043.83 1354.82,-3430.13 -1162.64,631.91 -1625.79,1920.36 -1354.82,3430.13zm131.3 -78.38c-384.04,-797.68 51.37,-2992.28 1322.49,-3182.7 -1140.33,634.17 -1394.69,1757.06 -1322.49,3182.7zm154.99 -54.02c-301.87,-702.14 20.44,-2623.01 1274.67,-3001.36 -967.97,643.23 -1378.58,1582.05 -1274.67,3001.36zm199.29 90.27c-357.45,-791.93 -18.5,-2595.75 1235.74,-2974.1 -967.97,643.23 -1339.64,1554.8 -1235.74,2974.1zm150.6 7.72c-284.48,-778.1 -8.73,-2343.83 1129.59,-2815.1 -745.85,592.75 -1189.6,1410.32 -1129.59,2815.1zm188.59 -69.98c-284.48,-778.1 5.31,-2184.68 1138.95,-2599.78 -759.16,545.65 -1198.96,1195 -1138.95,2599.78zm184.31 22.98c-284.48,-778.1 -8.72,-1964.67 965.76,-2393.81 -553.19,531.61 -1025.77,989.04 -965.76,2393.81zm157.18 -59.7c-253.69,-774.06 125.88,-1787.65 909.59,-2215.94 -353.19,394.11 -946.19,815.84 -909.59,2215.94zm2073.25 1323.82c102.31,-63.18 116.12,-443.99 -103.57,-549.12 -111.52,-53.36 -250.15,-156.98 -348.51,-238.64 -86.69,-71.98 -189.56,-204.9 -243.17,-305.44 -53.22,-99.78 -155.1,-268.06 -25.82,-350.9 89.65,-57.44 205.66,-3.14 318.58,90.02 154.93,127.83 304.04,328.85 371.24,414.78 45.67,58.41 359.34,500.75 368.85,532.25 13.34,44.14 -21.35,251.1 28.37,350.31 53.33,106.4 173.69,55.78 279.04,36.04 112.98,-21.17 126.19,-46.94 129.71,-137.65 3.09,-79.34 0.93,-75.57 60.97,-106.61 187.29,-96.84 317.78,-222.76 457.63,-390.95 70.98,-85.37 92.61,-118.21 146,-210.31 62.78,-108.28 163.35,-318.38 185.97,-437.25 9.77,-51.41 4.2,-63.78 66.55,-71.67 65.37,-8.26 107.09,-39.23 134.35,-96.75l15.44 -32.62c8.57,-38.38 -6.02,-309.17 -6.42,-310.86 -20.72,-86.68 -23.74,-232.86 -121.67,-271.34 -63.52,-24.96 -165.39,17.12 -224.19,56.6 -238.77,160.29 -155.92,325.38 -196.78,563.66 -27.57,160.8 -96.56,457.69 -217.5,580.14 -62.78,63.57 -136.88,76.21 -211.89,34.83 -199.11,-109.84 -70.97,-463.19 -15.3,-634.19 49.99,-153.57 151.21,-412.38 225.15,-569.19 29.51,-62.58 84.95,-226.87 134.47,-260.27 82.24,-55.48 303.51,-199.53 258.24,-307.15 -4.76,-11.29 -169.16,-212.95 -235.53,-212.79 -63.81,0.13 -121.43,113.05 -201.34,44.54 -64.58,-55.37 -321.64,-132.86 -409.1,-145.73 -161.35,-23.73 -217.84,-43.48 -471.66,-30.57 -267.83,13.63 -423.27,86.17 -467.86,92.2 -48.07,6.5 -86.22,-114.27 -189.4,-119.69 -117.81,-6.18 -328.77,209.73 -396.62,288.74 -93.67,109.04 -94.79,167.47 49.99,272.92 80.95,58.96 233.61,111.39 329.81,70.92 55.84,-23.49 53.62,-16.71 128.86,-67.12l111.43 -61.88c153.3,-85.98 435.81,-153.65 616.67,-135.29 96.25,9.76 187.42,39.05 207.92,105.42 66.45,215.06 -305.94,300.78 -341.07,323.78 -35.46,23.22 -384.79,100.92 -440.15,108.38 -86.15,11.61 -115.41,24.03 -210.09,35.37 -123.42,14.76 -90.77,19.64 -240.83,32.79 -67.16,5.89 -141.24,32.33 -189.64,7.3 -83.04,-42.95 -362.65,-183.3 -408.35,-36.9 -105.94,339.42 -64.21,251.15 91.5,379.05 0,224.06 22.1,257.47 70.69,443.4 36.9,141.18 181.66,412.68 268.57,516.59 56.38,67.41 136.91,166.26 202.23,226.1 139.49,127.8 64.56,66.34 64.1,190.87 -0.53,147.02 185.85,181.6 252.68,225.36 46.19,30.24 290.9,99.74 341.45,68.52zm199.36 -1711.58c90.16,0 163.25,73.09 163.25,163.25 0,90.17 -73.09,163.26 -163.25,163.26 -90.17,0 -163.25,-73.09 -163.25,-163.26 0,-90.16 73.08,-163.25 163.25,-163.25z"/>
  </g>
 </g>
</svg>
