<?xml version="1.0" encoding="UTF-8"?>
<!DOCTYPE svg PUBLIC "-//W3C//DTD SVG 1.1//EN" "http://www.w3.org/Graphics/SVG/1.1/DTD/svg11.dtd">
<!-- Creator: CorelDRAW -->
<svg xmlns="http://www.w3.org/2000/svg" xml:space="preserve" width="152.4mm" height="152.4mm" version="1.1" style="shape-rendering:geometricPrecision; text-rendering:geometricPrecision; image-rendering:optimizeQuality; fill-rule:evenodd; clip-rule:evenodd"
viewBox="0 0 4946.42 4946.42"
 xmlns:xlink="http://www.w3.org/1999/xlink"
 xmlns:xodm="http://www.corel.com/coreldraw/odm/2003">
 <defs>
  <style type="text/css">
   <![CDATA[
    .fil0 {fill:none}
    .fil1 {fill:black}
    .fil2 {fill:#ED3145}
   ]]>
  </style>
 </defs>
 <g id="Capa_x0020_1">
  <metadata id="CorelCorpID_0Corel-Layer"/>
  <g id="_2569657673040">
   <rect class="fil0" x="-0" y="-0" width="4946.42" height="4946.42"/>
   <ellipse id="contour" class="fil1" cx="2473.22" cy="2473.21" rx="2337.12" ry="2337.13"/>
   <path id="contour_3" class="fil2" d="M2473.22 118.22c1300.62,0 2354.98,1054.37 2354.98,2354.99 0,1300.62 -1054.36,2354.99 -2354.98,2354.99 -1300.62,0 -2354.97,-1054.37 -2354.97,-2354.99 0,-1300.62 1054.35,-2354.99 2354.97,-2354.99zm-0.02 382.84c1089.19,0 1972.17,882.97 1972.17,1972.16 0,1089.19 -882.97,1972.17 -1972.17,1972.17 -1089.19,0 -1972.16,-882.97 -1972.16,-1972.17 0,-1089.19 882.97,-1972.16 1972.16,-1972.16z"/>
   <path class="fil2" d="M2452.11 1488.52c543.59,0 984.25,438.52 984.25,979.45 0,194.32 -56.87,375.43 -154.95,527.74 -60.91,302.88 -457.52,562.74 -824.19,523.71 133.36,-55.6 558.4,-63.13 805.02,-495.19 -177.6,255.66 -474.18,423.2 -810.14,423.2 -517.91,0 -942.39,-398.08 -981.33,-903.54 -68.73,-337.64 92.61,-754.06 402.95,-919.43 -57.25,70.77 -131.12,142.75 -198.69,242.4 180.09,-230.22 461.19,-378.34 777.08,-378.34zm885.81 1562c-116.84,347.85 -514.6,589.13 -865.51,540.03 145.22,-48.68 595.64,-70.02 865.51,-540.03zm74.61 6.15c-106.81,357.61 -508.52,694.13 -976,601.2 342.94,-43 661,-83.68 976,-601.2zm67.27 39.71c-111.74,315.76 -486.68,755.22 -1026.94,636.28 446.57,-36.05 670.29,-112.82 1026.94,-636.28zm63.67 66.5c-106.81,357.61 -601.29,765.73 -1071.86,659.34 428.98,-13.2 739.19,-192.81 1071.86,-659.34zm82.17 33.47c-139.62,331.32 -555.87,837.73 -1162.12,692.3 528.32,-16.33 823.42,-222.18 1162.12,-692.3zm36.24 72.19c-97.95,318.17 -548.42,813.11 -1164.62,717.93 450.58,-34.09 809.19,-192.88 1164.62,-717.93zm62.22 47.96c-61.24,316.78 -640.9,874.36 -1237.66,741.07 518,-18.28 879.8,-206.78 1237.66,-741.07zm72.17 19.76c-79.45,431.74 -749.9,987.39 -1340.3,800.3 584.82,22.26 1065.94,-299.16 1340.3,-800.3zm89.85 14.4c-60.59,455.28 -773.23,1097.56 -1460.57,866.26 566.02,46.97 1151.83,-248.06 1460.57,-866.26zm-3104.43 -693.38c-305.75,-357.4 -12.37,-1452.91 676.9,-1678.38 -599.4,420.84 -798.97,998.24 -676.9,1678.38zm109.59 -29.54c-293.65,-369.51 5.78,-1371.2 610.33,-1545.23 -523.75,284.67 -732.4,865.1 -610.33,1545.23zm59.15 -35.31c-173,-359.34 23.14,-1347.98 595.77,-1433.77 -513.71,285.69 -628.29,791.53 -595.77,1433.77zm69.82 -24.34c-135.98,-316.3 9.21,-1181.63 574.22,-1352.07 -436.06,289.77 -621.03,712.69 -574.22,1352.07zm89.78 40.67c-161.02,-356.76 -8.33,-1169.35 556.68,-1339.79 -436.06,289.77 -603.49,700.42 -556.68,1339.79zm67.84 3.48c-128.16,-350.52 -3.93,-1055.87 508.87,-1268.17 -336,267.03 -535.9,635.33 -508.87,1268.17zm84.96 -31.53c-128.16,-350.52 2.39,-984.17 513.08,-1171.17 -341.99,245.81 -540.11,538.33 -513.08,1171.17zm83.03 10.35c-128.16,-350.52 -3.93,-885.06 435.06,-1078.38 -249.21,239.48 -462.09,445.55 -435.06,1078.38zm70.8 -26.89c-114.28,-348.7 56.71,-805.31 409.76,-998.25 -159.11,177.54 -426.25,367.53 -409.76,998.25zm933.97 596.36c46.09,-28.46 52.31,-200.01 -46.65,-247.37 -50.24,-24.04 -112.69,-70.72 -157,-107.51 -39.05,-32.43 -85.4,-92.3 -109.55,-137.59 -23.98,-44.95 -69.87,-120.76 -11.63,-158.08 40.39,-25.88 92.65,-1.42 143.52,40.55 69.79,57.59 136.96,148.14 167.24,186.85 20.57,26.31 161.88,225.58 166.16,239.77 6.01,19.89 -9.62,113.12 12.78,157.81 24.02,47.93 78.24,25.12 125.7,16.23 50.9,-9.53 56.84,-21.15 58.43,-62.01 1.39,-35.74 0.42,-34.04 27.47,-48.03 84.37,-43.63 143.15,-100.35 206.15,-176.11 31.98,-38.46 41.72,-53.26 65.77,-94.74 28.28,-48.78 73.59,-143.43 83.77,-196.97 4.4,-23.16 1.89,-28.73 29.98,-32.28 29.45,-3.72 48.24,-17.67 60.52,-43.59l6.96 -14.69c3.86,-17.29 -2.71,-139.28 -2.89,-140.04 -9.33,-39.05 -10.69,-104.9 -54.81,-122.23 -28.61,-11.24 -74.5,7.71 -101,25.49 -107.56,72.21 -70.24,146.58 -88.65,253.92 -12.42,72.44 -43.5,206.18 -97.98,261.35 -28.28,28.64 -61.66,34.33 -95.46,15.69 -89.69,-49.48 -31.97,-208.66 -6.89,-285.69 22.52,-69.19 68.12,-185.77 101.43,-256.42 13.29,-28.19 38.27,-102.2 60.58,-117.25 37.05,-24.99 136.73,-89.89 116.33,-138.37 -2.14,-5.09 -76.2,-95.93 -106.1,-95.86 -28.75,0.06 -54.7,50.93 -90.7,20.07 -29.09,-24.94 -144.89,-59.85 -184.29,-65.65 -72.69,-10.69 -98.14,-19.59 -212.48,-13.77 -120.65,6.14 -190.68,38.82 -210.76,41.54 -21.66,2.93 -38.84,-51.48 -85.33,-53.92 -53.07,-2.79 -148.1,94.48 -178.67,130.07 -42.19,49.12 -42.7,75.45 22.52,122.95 36.47,26.56 105.24,50.18 148.57,31.95 25.15,-10.58 24.16,-7.53 58.05,-30.24l50.2 -27.88c69.06,-38.73 196.33,-69.22 277.8,-60.95 43.36,4.4 84.43,17.59 93.67,47.49 29.93,96.88 -137.82,135.5 -153.65,145.86 -15.98,10.46 -173.34,45.47 -198.28,48.82 -38.81,5.23 -51.99,10.83 -94.64,15.93 -55.6,6.65 -40.89,8.85 -108.49,14.77 -30.25,2.65 -63.63,14.56 -85.43,3.28 -37.41,-19.34 -163.37,-82.57 -183.96,-16.62 -47.72,152.9 -28.93,113.14 41.22,170.76 0,100.93 9.96,115.98 31.85,199.74 16.62,63.6 81.84,185.91 120.99,232.72 25.4,30.37 61.67,74.9 91.1,101.85 62.84,57.57 29.08,29.89 28.88,85.99 -0.24,66.23 83.72,81.81 113.83,101.52 20.81,13.62 131.04,44.93 153.82,30.87zm89.81 -771.05c40.62,0 73.54,32.93 73.54,73.54 0,40.62 -32.92,73.54 -73.54,73.54 -40.62,0 -73.54,-32.93 -73.54,-73.54 0,-40.62 32.92,-73.54 73.54,-73.54z"/>
  </g>
 </g>
</svg>
