<?xml version="1.0" encoding="UTF-8"?>
<!DOCTYPE svg PUBLIC "-//W3C//DTD SVG 1.1//EN" "http://www.w3.org/Graphics/SVG/1.1/DTD/svg11.dtd">
<!-- Creator: CorelDRAW -->
<svg xmlns="http://www.w3.org/2000/svg" xml:space="preserve" width="152.4mm" height="152.4mm" version="1.1" style="shape-rendering:geometricPrecision; text-rendering:geometricPrecision; image-rendering:optimizeQuality; fill-rule:evenodd; clip-rule:evenodd"
viewBox="0 0 15240 15240"
 xmlns:xlink="http://www.w3.org/1999/xlink"
 xmlns:xodm="http://www.corel.com/coreldraw/odm/2003">
 <defs>
  <style type="text/css">
   <![CDATA[
    .fil0 {fill:none}
    .fil1 {fill:#3C55A4}
    .fil2 {fill:#FADA06}
   ]]>
  </style>
 </defs>
 <g id="Capa_x0020_1">
  <metadata id="CorelCorpID_0Corel-Layer"/>
  <g id="_2981599042144">
   <rect class="fil0" x="-0" y="-0" width="15240" height="15240"/>
   <ellipse id="contour" class="fil1" cx="7620" cy="7620" rx="7200.69" ry="7200.73"/>
   <path id="contour_41" class="fil2" d="M7620.01 364.25c4007.22,0 7255.71,3248.52 7255.71,7255.75 0,4007.22 -3248.49,7255.74 -7255.71,7255.74 -4007.22,0 -7255.7,-3248.52 -7255.7,-7255.74 0,-4007.23 3248.48,-7255.75 7255.7,-7255.75zm-198.58 9668.85l471.76 0c5.73,1006.54 643.42,1714.57 1417.05,1714.57 17.3,0 38.17,0.28 61.99,0.71 138.24,2.53 249.35,115.69 249.35,253.95l0 44.61c0,139.9 -114.1,254 -254,254l-3495.15 0c-139.9,0 -254,-114.1 -254,-254l0 -43.01c0,-137.87 110.38,-250.8 248.21,-253.94 56.45,-1.28 103.92,-2.32 137.74,-2.32 773.63,0 1411.32,-708.03 1417.05,-1714.57zm197.04 -279.08l3.08 0 4.2 0.02c655.52,0 1255.36,-455.02 1717.5,-1208.46 1331.91,-664.83 2500.27,-2091.3 2749.51,-3831.14 9.74,-67.97 -8.64,-130.25 -53.61,-182.15 -44.97,-51.9 -104.08,-78.9 -172.76,-78.9l-1445.7 0c12.63,-185.95 19.71,-363.34 21.09,-528.8 1.13,-133.61 -45.82,-249 -139.9,-343.88 -94.08,-94.87 -209.06,-142.79 -342.68,-142.79l-1889.19 0 -900 0 -1889.19 0c-133.62,0 -248.6,47.92 -342.68,142.79 -94.08,94.88 -141.03,210.27 -139.9,343.88 1.38,165.46 8.46,342.85 21.09,528.8l-1445.69 0c-68.68,0 -127.79,27 -172.76,78.9 -44.97,51.9 -63.35,114.18 -53.61,182.15 249.24,1739.83 1417.61,3166.3 2749.5,3831.14 462.13,753.44 1061.98,1208.46 1717.5,1208.46l4.2 -0.02zm2130.35 -2056.9c313.89,-826.62 527.2,-1848.59 627.49,-2751.41l1111.93 0c-110.82,1049.32 -850.59,2097.36 -1739.42,2751.41zm-4885.11 -2751.41c100.29,902.82 313.6,1924.79 627.48,2751.4 -888.82,-654.05 -1628.58,-1702.09 -1739.4,-2751.4l1111.92 0zm1552.11 950.27c35.92,-20.2 90.37,-46.02 163.33,-77.45 72.97,-31.43 162.21,-47.15 267.73,-47.15 94.3,0 186.91,17.96 277.84,53.88 90.92,35.92 171.75,87.56 242.47,154.92 70.72,67.35 127.41,149.3 170.07,245.84 42.65,96.54 63.98,205.42 63.98,326.66 0,107.77 -18.52,212.73 -55.56,314.88 -37.05,102.15 -92.05,193.08 -165.02,272.78 -72.97,79.7 -163.33,144.25 -271.1,193.64 -107.76,49.4 -231.25,74.09 -370.44,74.09 -166.14,0 -298.6,-23.01 -397.39,-69.04 -98.79,-46.02 -176.24,-98.22 -232.37,-156.59 -60.62,-62.87 -108.89,-130.78 -144.81,-203.75 -35.92,-72.96 -53.88,-131.9 -53.88,-176.8 0,-13.47 3.93,-30.31 11.78,-50.52 7.86,-20.2 19.09,-39.85 33.68,-58.93 14.59,-19.08 33.68,-34.8 57.25,-47.15 23.58,-12.35 52.2,-18.52 85.88,-18.52 53.88,0 95.41,15.72 124.6,47.15 29.19,31.43 56.13,68.47 80.83,111.13 22.45,42.66 47.14,83.07 74.08,121.24 26.95,38.16 56.69,71.28 89.25,99.34 32.55,28.07 70.16,50.52 112.82,67.36 42.65,16.84 92.05,25.26 148.17,25.26 80.83,0 147.62,-17.4 200.38,-52.2 52.76,-34.8 95.42,-78.02 127.97,-129.66 32.56,-51.64 55.57,-107.76 69.04,-168.38 13.47,-60.62 20.21,-116.75 20.21,-168.39 0,-87.56 -12.35,-162.21 -37.05,-223.95 -24.7,-61.74 -56.69,-111.69 -95.98,-149.86 -39.29,-38.17 -84.19,-66.23 -134.7,-84.19 -50.52,-17.96 -101.6,-26.94 -153.23,-26.94 -49.4,0 -93.18,5.61 -131.34,16.84 -38.17,11.22 -72.97,25.25 -104.4,42.09 -31.43,16.84 -60.62,37.05 -87.56,60.62 -26.94,23.57 -53.88,46.59 -80.83,69.04 -20.2,17.96 -44.34,31.43 -72.4,40.41 -28.07,8.98 -53.32,13.47 -75.77,13.47 -51.64,0 -98.79,-19.08 -141.45,-57.25 -42.65,-38.17 -63.98,-81.95 -63.98,-131.34 0,-13.47 1.68,-29.19 5.05,-47.15 3.37,-17.96 7.3,-40.41 11.79,-67.35l138.07 -788.04c11.23,-62.86 26.38,-111.69 45.46,-146.49 19.09,-34.8 42.66,-61.18 70.73,-79.14 28.06,-17.96 60.05,-29.19 95.97,-33.68 35.93,-4.49 77.46,-6.74 124.61,-6.74l784.67 0c40.41,0 73.53,0.57 99.34,1.69 25.82,1.12 47.71,5.05 65.67,11.79 38.17,13.47 68.48,37.04 90.93,70.72 22.45,33.67 33.68,69.6 33.68,107.76 0,49.4 -10.67,87 -31.99,112.82 -21.33,25.82 -46.59,44.9 -75.78,57.25 -29.18,12.35 -59.49,19.65 -90.92,21.89 -31.44,2.25 -57.25,3.37 -77.46,3.37l-750.99 0 -90.93 528.72zm2672.37 259.32c0,-136.96 -5.61,-259.88 -16.83,-368.77 -11.23,-108.88 -32,-200.93 -62.31,-276.15 -30.31,-75.21 -70.72,-133.02 -121.23,-173.43 -50.52,-40.41 -113.94,-60.62 -190.28,-60.62 -85.31,0 -153.23,24.14 -203.74,72.41 -50.52,48.27 -89.24,113.94 -116.19,197.01 -26.94,83.06 -44.9,178.48 -53.88,286.25 -8.98,107.76 -13.47,220.02 -13.47,336.77 0,121.23 4.49,236.29 13.47,345.18 8.98,108.89 26.94,204.87 53.88,287.94 26.95,83.07 65.67,149.3 116.19,198.69 50.51,49.4 118.43,74.09 203.74,74.09 83.07,0 150.43,-23.01 202.06,-69.04 51.64,-46.02 91.49,-110.57 119.56,-193.64 28.06,-83.07 46.58,-180.17 55.56,-291.3 8.98,-111.14 13.47,-232.93 13.47,-365.39zm454.64 30.3c0,139.2 -9.54,281.21 -28.62,426.02 -19.09,144.81 -61.18,274.46 -126.29,388.96 -71.85,127.97 -167.26,227.88 -286.26,299.73 -118.99,71.84 -251.45,107.76 -397.38,107.76 -47.15,0 -104.4,-6.17 -171.75,-18.52 -67.36,-12.35 -135.83,-38.17 -205.43,-77.46 -69.6,-39.29 -137.52,-94.29 -203.75,-165.01 -66.23,-70.72 -122.92,-165.58 -170.06,-284.57 -33.68,-85.32 -58.38,-187.47 -74.09,-306.46 -15.72,-118.99 -23.58,-239.11 -23.58,-360.34 0,-60.62 1.69,-134.15 5.05,-220.59 3.37,-86.43 13.48,-176.24 30.31,-269.41 16.84,-93.17 42.66,-185.22 77.46,-276.15 34.8,-90.93 83.07,-172.31 144.81,-244.16 61.74,-71.84 140.32,-130.21 235.74,-175.12 95.42,-44.9 211.6,-67.35 348.55,-67.35 87.56,0 165.02,10.1 232.37,30.31 67.36,20.21 125.73,44.9 175.12,74.09 49.4,29.18 90.37,60.62 122.92,94.29 32.56,33.68 58.94,62.87 79.14,87.56 31.44,40.42 61.18,85.88 89.25,136.39 28.06,50.52 53.32,112.82 75.77,186.91 22.45,74.09 39.85,162.21 52.2,264.36 12.35,102.16 18.52,225.08 18.52,368.76zm-1922.88 -4835.55c3462.82,0 6270.01,2807.18 6270.01,6270 0,3462.82 -2807.19,6270.01 -6270.01,6270.01 -3462.82,0 -6270,-2807.19 -6270,-6270.01 0,-3462.82 2807.18,-6270 6270,-6270z"/>
  </g>
 </g>
</svg>
