<?xml version="1.0" encoding="UTF-8"?>
<!DOCTYPE svg PUBLIC "-//W3C//DTD SVG 1.1//EN" "http://www.w3.org/Graphics/SVG/1.1/DTD/svg11.dtd">
<!-- Creator: CorelDRAW -->
<svg xmlns="http://www.w3.org/2000/svg" xml:space="preserve" width="152.4mm" height="152.4mm" version="1.1" style="shape-rendering:geometricPrecision; text-rendering:geometricPrecision; image-rendering:optimizeQuality; fill-rule:evenodd; clip-rule:evenodd"
viewBox="0 0 15240 15240"
 xmlns:xlink="http://www.w3.org/1999/xlink"
 xmlns:xodm="http://www.corel.com/coreldraw/odm/2003">
 <defs>
  <style type="text/css">
   <![CDATA[
    .fil0 {fill:none}
    .fil1 {fill:#2294D2}
    .fil2 {fill:#FFCA0F}
   ]]>
  </style>
 </defs>
 <g id="Capa_x0020_1">
  <metadata id="CorelCorpID_0Corel-Layer"/>
  <g id="_2981804076656">
   <rect class="fil0" x="-0" y="-0" width="15240" height="15240"/>
   <ellipse id="contour" class="fil1" cx="7620.01" cy="7620" rx="7200.69" ry="7200.73"/>
   <path id="contour_33" class="fil2" d="M7620.01 364.25c4007.22,0 7255.71,3248.52 7255.71,7255.75 0,4007.22 -3248.49,7255.74 -7255.71,7255.74 -4007.22,0 -7255.7,-3248.52 -7255.7,-7255.74 0,-4007.23 3248.48,-7255.75 7255.7,-7255.75zm-0.06 985.8c3462.82,0 6270.01,2807.18 6270.01,6270 0,3462.82 -2807.19,6270.01 -6270.01,6270.01 -3462.82,0 -6270,-2807.19 -6270,-6270.01 0,-3462.82 2807.18,-6270 6270,-6270z"/>
   <path class="fil2" d="M7593.49 4353.63c402.79,0 729.32,326.53 729.32,729.32 0,369.16 -274.3,674.21 -630.19,722.59 430.63,756.56 1244.06,1266.85 2176.85,1266.85 391.12,0 761.24,-89.75 1090.99,-249.72 -130.13,-131.72 -210.5,-312.73 -210.5,-512.52 0,-402.79 326.53,-729.32 729.32,-729.32 402.79,0 729.32,326.53 729.32,729.32 0,402.79 -326.53,729.32 -729.32,729.32 -131.08,0 -254.07,-34.6 -360.36,-95.14l-454.57 1295.02 -6134.83 0 -450.91 -1284.6c-101.86,54.06 -218.02,84.72 -341.37,84.72 -402.79,0 -729.32,-326.53 -729.32,-729.32 0,-402.79 326.53,-729.32 729.32,-729.32 402.79,0 729.32,326.53 729.32,729.32 0,199.64 -80.23,380.53 -210.2,512.22 329.87,160.13 700.13,250.02 1091.43,250.02 931.43,0 1743.89,-508.81 2174.99,-1263.55 -369.61,-35.57 -658.61,-346.96 -658.61,-725.89 0,-402.79 326.53,-729.32 729.32,-729.32zm2984.39 4132.07l-738.02 2102.53c-45.07,128.4 -160.86,210.47 -296.94,210.47l-3891.97 0c-136.08,0 -251.87,-82.07 -296.94,-210.47l-738.02 -2102.53 5961.89 0z"/>
  </g>
 </g>
</svg>
