<?xml version="1.0" encoding="UTF-8"?>
<!DOCTYPE svg PUBLIC "-//W3C//DTD SVG 1.1//EN" "http://www.w3.org/Graphics/SVG/1.1/DTD/svg11.dtd">
<!-- Creator: CorelDRAW -->
<svg xmlns="http://www.w3.org/2000/svg" xml:space="preserve" width="152.4mm" height="152.4mm" version="1.1" style="shape-rendering:geometricPrecision; text-rendering:geometricPrecision; image-rendering:optimizeQuality; fill-rule:evenodd; clip-rule:evenodd"
viewBox="0 0 15240 15240"
 xmlns:xlink="http://www.w3.org/1999/xlink"
 xmlns:xodm="http://www.corel.com/coreldraw/odm/2003">
 <defs>
  <style type="text/css">
   <![CDATA[
    .fil2 {fill:none}
    .fil1 {fill:#8153A2}
    .fil0 {fill:#DDE227}
   ]]>
  </style>
 </defs>
 <g id="Capa_x0020_1">
  <metadata id="CorelCorpID_0Corel-Layer"/>
  <g id="_1788837985040">
   <ellipse id="contour" class="fil0" cx="7620.01" cy="7620" rx="7255.7" ry="7255.74"/>
   <path id="contour_24" class="fil1" d="M7620.01 364.25c4007.22,0 7255.71,3248.52 7255.71,7255.75 0,4007.22 -3248.49,7255.74 -7255.71,7255.74 -4007.22,0 -7255.7,-3248.52 -7255.7,-7255.74 0,-4007.23 3248.48,-7255.75 7255.7,-7255.75zm-519.05 7837.72c37.43,18.71 85.77,47.56 145.02,86.54 59.26,38.99 118.52,90.45 177.77,154.38 59.26,63.94 109.94,143.46 152.04,238.59 42.1,95.12 63.16,208.17 63.16,339.16 0,124.75 -24.95,250.28 -74.85,376.59 -49.9,126.31 -124.75,240.92 -224.55,343.84 -99.8,102.92 -224.55,186.34 -374.25,250.28 -149.7,63.93 -324.35,95.9 -523.95,95.9 -146.58,0 -276.01,-18.72 -388.28,-56.14 -112.28,-37.42 -209.74,-84.99 -292.38,-142.68 -82.65,-57.7 -152.82,-122.41 -210.52,-194.14 -57.7,-71.73 -104.48,-141.91 -140.34,-210.52 -35.87,-68.61 -61.6,-131.77 -77.19,-189.46 -15.6,-57.7 -23.39,-102.14 -23.39,-133.33 0,-71.73 25.73,-134.88 77.19,-189.46 51.46,-54.58 122.41,-81.87 212.85,-81.87 43.66,0 80.31,7.8 109.94,23.39 29.62,15.6 54.57,35.09 74.85,58.48 20.27,23.39 36.64,49.9 49.12,79.53 12.47,29.62 23.39,60.03 32.74,91.22 18.71,56.14 43.66,113.05 74.85,170.75 31.19,57.7 69.39,110.72 114.62,159.06 45.22,48.34 99.8,88.1 163.73,119.29 63.93,31.19 138,46.78 222.21,46.78 53.02,0 113.05,-10.14 180.11,-30.41 67.05,-20.27 129.43,-53.8 187.12,-100.58 57.7,-46.78 106.82,-108.37 147.36,-184.78 40.55,-76.41 60.82,-170.75 60.82,-283.03 0,-168.41 -46.78,-304.86 -140.35,-409.33 -93.56,-104.48 -224.54,-156.72 -392.96,-156.72 -12.47,0 -32.74,0.78 -60.81,2.34 -28.07,1.56 -56.92,3.9 -86.55,7.02 -29.63,3.11 -58.47,5.45 -86.54,7.01 -28.07,1.56 -46.78,2.34 -56.14,2.34 -77.97,0 -139.56,-21.05 -184.79,-63.15 -45.22,-42.11 -67.83,-99.02 -67.83,-170.75 0,-71.73 24.17,-130.99 72.51,-177.77 48.34,-46.78 127.09,-70.17 236.25,-70.17 46.78,0 88.1,0 123.97,0 35.86,0 68.61,-2.34 98.24,-7.02 29.63,-4.68 59.25,-12.48 88.88,-23.39 29.63,-10.92 61.6,-25.73 95.9,-44.44 49.9,-28.07 89.67,-60.04 119.29,-95.9 29.63,-35.87 52.24,-72.52 67.84,-109.94 15.59,-37.43 24.95,-72.51 28.07,-105.26 3.11,-32.74 4.67,-58.47 4.67,-77.19 0,-115.39 -38.2,-216.75 -114.61,-304.07 -76.41,-87.33 -189.46,-130.99 -339.16,-130.99 -93.56,0 -169.97,14.03 -229.23,42.1 -59.26,28.07 -107.6,61.6 -145.02,100.58 -37.43,38.99 -65.49,79.53 -84.21,121.63 -18.71,42.11 -32.74,77.19 -42.1,105.26 -9.36,21.83 -19.49,46 -30.41,72.51 -10.91,26.51 -25.73,50.68 -44.44,72.51 -18.71,21.83 -42.1,39.77 -70.17,53.8 -28.07,14.03 -65.5,21.05 -112.28,21.05 -84.2,0 -148.14,-27.29 -191.8,-81.87 -43.66,-54.57 -65.49,-114.61 -65.49,-180.1 0,-68.62 21.05,-147.36 63.15,-236.25 42.11,-88.88 106.82,-173.09 194.14,-252.62 87.33,-79.52 198.04,-147.36 332.15,-203.49 134.11,-56.14 293.16,-84.21 477.17,-84.21 168.41,0 315.77,22.61 442.08,67.83 126.31,45.23 231.56,106.82 315.77,184.79 84.21,77.97 147.36,166.85 189.46,266.65 42.11,99.8 63.16,202.72 63.16,308.76 0,99.8 -14.04,187.12 -42.1,261.97 -28.07,74.85 -61.6,141.12 -100.58,198.82 -38.99,57.7 -81.09,106.82 -126.31,147.36 -45.22,40.54 -83.43,74.85 -114.62,102.92zm2405.84 145.02c0,-190.24 -7.8,-360.99 -23.39,-512.25 -15.59,-151.26 -44.44,-279.13 -86.54,-383.61 -42.11,-104.48 -98.24,-184.78 -168.42,-240.92 -70.17,-56.14 -158.27,-84.21 -264.31,-84.21 -118.51,0 -212.85,33.53 -283.03,100.58 -70.17,67.06 -123.96,158.28 -161.39,273.67 -37.42,115.4 -62.37,247.94 -74.85,397.64 -12.47,149.7 -18.71,305.64 -18.71,467.81 0,168.41 6.24,328.25 18.71,479.51 12.48,151.26 37.43,284.58 74.85,399.98 37.43,115.39 91.22,207.39 161.39,276.01 70.18,68.61 164.52,102.91 283.03,102.91 115.39,0 208.96,-31.96 280.69,-95.9 71.73,-63.93 127.09,-153.59 166.07,-268.99 38.98,-115.39 64.71,-250.28 77.19,-404.65 12.47,-154.38 18.71,-323.57 18.71,-507.58zm631.55 42.1c0,193.37 -13.26,390.63 -39.77,591.78 -26.51,201.16 -84.98,381.27 -175.43,540.33 -99.8,177.76 -232.34,316.55 -397.64,416.35 -165.29,99.8 -349.3,149.7 -552.01,149.7 -65.5,0 -145.02,-8.58 -238.59,-25.73 -93.56,-17.16 -188.68,-53.02 -285.36,-107.6 -96.68,-54.58 -191.02,-130.99 -283.03,-229.23 -92,-98.24 -170.75,-230 -236.24,-395.3 -46.78,-118.51 -81.09,-260.41 -102.92,-425.7 -21.83,-165.3 -32.75,-332.15 -32.75,-500.56 0,-84.21 2.34,-186.35 7.02,-306.42 4.68,-120.07 18.71,-244.82 42.1,-374.25 23.39,-129.43 59.26,-257.29 107.6,-383.6 48.34,-126.31 115.39,-239.37 201.16,-339.17 85.76,-99.8 194.92,-180.88 327.47,-243.26 132.54,-62.37 293.94,-93.56 484.18,-93.56 121.63,0 229.23,14.04 322.79,42.1 93.56,28.07 174.65,62.38 243.26,102.92 68.61,40.55 125.53,84.21 170.75,130.99 45.22,46.78 81.87,87.32 109.94,121.63 43.66,56.14 84.98,119.29 123.97,189.46 38.98,70.18 74.07,156.72 105.26,259.64 31.18,102.92 55.35,225.33 72.51,367.23 17.15,141.9 25.73,312.65 25.73,512.25zm-6190.68 -4187.39l964.23 0 0 -544.09c0,-121.6 99.49,-221.09 221.09,-221.09l0.01 0c121.6,0 221.09,99.49 221.09,221.09l0 544.09 2059.69 0 0 -544.09c0,-121.6 99.49,-221.09 221.09,-221.09 0,0 0,0 0.01,0 121.6,0 221.09,99.49 221.09,221.09l0 544.09 2059.68 0 0 -544.09c0,-121.6 99.49,-221.09 221.09,-221.09l0.01 0c121.6,0 221.09,99.49 221.09,221.09l0 544.09 909.57 0c419.1,0 762,342.9 762,762l0 5544.05c0,419.1 -342.9,762 -762,762l-7319.74 0c-419.1,0 -762,-342.9 -762,-762l0 -5544.05c0,-419.1 342.9,-762 762,-762zm6410.17 484.24l0 476.14c0,121.6 -99.49,221.09 -221.09,221.09l-0.01 0c-121.6,0 -221.09,-99.49 -221.09,-221.09l0 -476.13c-176.72,83.11 -299.08,262.73 -299.08,470.95 0,287.29 232.89,520.18 520.18,520.18 287.29,0 520.18,-232.89 520.18,-520.18 0,-208.23 -122.36,-387.86 -299.09,-470.96zm-2501.87 0l0 476.14c0,121.6 -99.49,221.09 -221.09,221.09 -0.01,0 -0.01,0 -0.01,0 -121.6,0 -221.09,-99.49 -221.09,-221.09l0 -476.13c-176.72,83.11 -299.08,262.73 -299.08,470.95 0,287.29 232.89,520.18 520.18,520.18 287.29,0 520.18,-232.89 520.18,-520.18 0,-208.23 -122.36,-387.86 -299.09,-470.96zm-2501.88 0l0 476.14c0,121.6 -99.49,221.09 -221.09,221.09l-0.01 0c-121.6,0 -221.09,-99.49 -221.09,-221.09l0 -476.13c-176.72,83.11 -299.08,262.73 -299.08,470.95 0,287.29 232.89,520.18 520.18,520.18 287.29,0 520.18,-232.89 520.18,-520.18 0,-208.23 -122.36,-387.86 -299.09,-470.96zm-1407.65 1281.68l1267.67 0 252.93 0c422.56,0 845.12,0 1267.67,0l252.93 0c422.55,0 845.11,0 1267.67,0l252.92 0c422.56,0 845.12,0 1267.67,0l252.93 0 1267.67 0 23.2 0 0 4365.66c0,96.54 -78.98,175.52 -175.52,175.52l-60.78 0 -1054.57 0 -252.93 0c-422.55,0 -845.11,0 -1267.67,0l-252.92 0c-422.56,0 -845.12,0 -1267.67,0l-252.93 0c-422.55,0 -845.11,0 -1267.67,0l-252.93 0 -1054.57 0 -37.58 0c-96.54,0 -175.52,-78.98 -175.52,-175.52l0 -37.58 0 -1062.42 0 -231.97 0 -1299.8 0 -225.23 0 -1508.66zm3673.51 -4617.57c3462.82,0 6270.01,2807.18 6270.01,6270 0,3462.82 -2807.19,6270.01 -6270.01,6270.01 -3462.82,0 -6270,-2807.19 -6270,-6270.01 0,-3462.82 2807.18,-6270 6270,-6270z"/>
   <rect class="fil2" x="-0" y="-0" width="15240" height="15240"/>
  </g>
 </g>
</svg>
