<?xml version="1.0" encoding="UTF-8"?>
<!DOCTYPE svg PUBLIC "-//W3C//DTD SVG 1.1//EN" "http://www.w3.org/Graphics/SVG/1.1/DTD/svg11.dtd">
<!-- Creator: CorelDRAW -->
<svg xmlns="http://www.w3.org/2000/svg" xml:space="preserve" width="152.4mm" height="152.4mm" version="1.1" style="shape-rendering:geometricPrecision; text-rendering:geometricPrecision; image-rendering:optimizeQuality; fill-rule:evenodd; clip-rule:evenodd"
viewBox="0 0 15240 15240"
 xmlns:xlink="http://www.w3.org/1999/xlink"
 xmlns:xodm="http://www.corel.com/coreldraw/odm/2003">
 <defs>
  <style type="text/css">
   <![CDATA[
    .fil0 {fill:none}
    .fil2 {fill:#424242}
    .fil1 {fill:#FBD309}
    .fil3 {fill:white}
   ]]>
  </style>
 </defs>
 <g id="Capa_x0020_1">
  <metadata id="CorelCorpID_0Corel-Layer"/>
  <g id="_2981989005824">
   <rect class="fil0" x="-0" y="-0" width="15240" height="15240"/>
   <ellipse id="contour" class="fil1" cx="7620.01" cy="7620" rx="7200.69" ry="7200.73"/>
   <path id="contour_80" class="fil2" d="M7620.01 364.25c4007.22,0 7255.71,3248.52 7255.71,7255.75 0,4007.22 -3248.49,7255.74 -7255.71,7255.74 -4007.22,0 -7255.7,-3248.52 -7255.7,-7255.74 0,-4007.23 3248.48,-7255.75 7255.7,-7255.75zm-0.06 985.8c3462.82,0 6270.01,2807.18 6270.01,6270 0,3462.82 -2807.19,6270.01 -6270.01,6270.01 -3462.82,0 -6270,-2807.19 -6270,-6270.01 0,-3462.82 2807.18,-6270 6270,-6270z"/>
   <path class="fil2" d="M11278.16 7470.1c282.54,-148.86 551.69,-299.1 814.8,-166.95 317.16,159.3 417.87,581.85 114.34,983.48 -739.69,964.48 -1805.12,1510.13 -2673.76,1084.15 -999.96,-415.05 -991.51,-1504.78 -12.51,-1768.39 712.68,-109.56 999.41,149.82 1242.58,121.39 100.2,-11.69 408.89,-198.01 514.55,-253.68z"/>
   <path class="fil3" d="M10555.36 7328.93c-327.71,-161.58 -2311.07,-1122.72 -1477.02,-1719.06 770.63,-551 1344.88,1220.06 1477.02,1719.06z"/>
   <path class="fil3" d="M10721.69 7308.99c4.71,-360.66 18.07,-2536.3 915.45,-2046.71 829.15,452.35 -521.99,1716.86 -915.45,2046.71z"/>
   <path class="fil2" d="M7954.79 8830.38c54.41,-15.55 649.05,-275.95 649.05,-275.95l66.08 248.74 -715.13 27.21z"/>
   <rect class="fil1" x="9536.83" y="7464.28" width="262.98" height="2292.91"/>
   <rect class="fil1" x="10260.04" y="7488.94" width="320.52" height="2317.57"/>
   <rect class="fil1" x="11040.77" y="7382.1" width="254.77" height="2169.64"/>
   <circle class="fil3" cx="11939.16" cy="7626.23" r="124.93"/>
   <path class="fil2" d="M6407.76 5268.67c282.54,-148.86 717.9,-324.02 981,-191.88 317.15,159.29 420.03,531.99 72.79,933.62 -739.69,964.48 -1929.77,1584.92 -2798.41,1158.94 -999.96,-415.05 -991.51,-1504.78 -12.51,-1768.39 712.68,-109.56 999.41,149.82 1242.58,121.39 100.2,-11.69 408.89,-198.01 514.55,-253.68z"/>
   <path class="fil3" d="M5595.78 5124.41c-327.71,-161.58 -2311.07,-1122.72 -1477.02,-1719.06 770.63,-551 1344.88,1220.06 1477.02,1719.06z"/>
   <path class="fil3" d="M5747.67 5102.54c4.71,-360.66 18.07,-2536.3 915.45,-2046.71 829.15,452.35 -521.99,1716.86 -915.45,2046.71z"/>
   <path class="fil2" d="M3094.47 6630.44c54.41,-14.07 638.97,-276.52 638.97,-276.52l66.08 225.02 -705.05 51.5z"/>
   <rect class="fil1" x="4648.85" y="5262.85" width="305.96" height="2292.91"/>
   <rect class="fil1" x="5415.04" y="5287.51" width="320.52" height="2317.57"/>
   <rect class="fil1" x="6195.77" y="5180.67" width="254.77" height="2169.64"/>
   <circle class="fil3" cx="7105.52" cy="5335.61" r="124.93"/>
   <path class="fil2" d="M7225.14 10191.23c282.54,-148.86 664.44,-309.06 927.52,-176.93 317.14,159.27 430.72,503.49 83.48,905.12 -739.69,964.48 -1929.77,1584.92 -2798.41,1158.94 -999.96,-415.05 -991.51,-1504.78 -12.51,-1768.39 712.68,-109.56 999.41,149.8 1242.58,121.39 100.19,-11.7 451.68,-184.46 557.34,-240.13z"/>
   <path class="fil3" d="M6370.37 10033.42c-327.71,-161.58 -2311.07,-1122.72 -1477.02,-1719.06 770.63,-551 1344.88,1220.06 1477.02,1719.06z"/>
   <path class="fil3" d="M6522.26 10011.55c4.71,-360.66 18.07,-2536.3 915.45,-2046.71 829.15,452.35 -521.99,1716.86 -915.45,2046.71z"/>
   <path class="fil2" d="M3869.36 11540.12c54.41,-14.07 664.07,-277.19 664.07,-277.19l66.08 225.02 -730.15 52.17z"/>
   <rect class="fil1" x="5423.44" y="10171.86" width="305.96" height="2292.91"/>
   <rect class="fil1" x="6189.63" y="10196.51" width="320.52" height="2317.57"/>
   <rect class="fil1" x="6970.36" y="10089.68" width="254.77" height="2169.64"/>
   <circle class="fil3" cx="7868.54" cy="10394.86" r="124.93"/>
  </g>
 </g>
</svg>
