<?xml version="1.0" encoding="UTF-8"?>
<!DOCTYPE svg PUBLIC "-//W3C//DTD SVG 1.1//EN" "http://www.w3.org/Graphics/SVG/1.1/DTD/svg11.dtd">
<!-- Creator: CorelDRAW -->
<svg xmlns="http://www.w3.org/2000/svg" xml:space="preserve" width="152.4mm" height="152.4mm" version="1.1" style="shape-rendering:geometricPrecision; text-rendering:geometricPrecision; image-rendering:optimizeQuality; fill-rule:evenodd; clip-rule:evenodd"
viewBox="0 0 15240 15240"
 xmlns:xlink="http://www.w3.org/1999/xlink"
 xmlns:xodm="http://www.corel.com/coreldraw/odm/2003">
 <defs>
  <style type="text/css">
   <![CDATA[
    .fil0 {fill:none}
    .fil2 {fill:#0EB4D9}
    .fil1 {fill:#D9EFFC}
   ]]>
  </style>
 </defs>
 <g id="Capa_x0020_1">
  <metadata id="CorelCorpID_0Corel-Layer"/>
  <g id="_1904705900368">
   <rect class="fil0" x="-0" y="-0" width="15240" height="15240"/>
   <ellipse id="contour" class="fil1" cx="7620.01" cy="7620" rx="7200.69" ry="7200.73"/>
   <path id="contour_7" class="fil2" d="M7620.01 364.25c4007.22,0 7255.71,3248.52 7255.71,7255.75 0,4007.22 -3248.49,7255.74 -7255.71,7255.74 -4007.22,0 -7255.7,-3248.52 -7255.7,-7255.74 0,-4007.23 3248.48,-7255.75 7255.7,-7255.75zm-0.06 985.8c3462.82,0 6270.01,2807.18 6270.01,6270 0,3462.82 -2807.19,6270.01 -6270.01,6270.01 -3462.82,0 -6270,-2807.19 -6270,-6270.01 0,-3462.82 2807.18,-6270 6270,-6270z"/>
   <path class="fil2" d="M2151.89 6981.38c992.3,-971.47 2284.65,-1020.22 2747.1,4.7 -864.98,-287.82 -1440.51,-14.77 -1524.53,316.84 -148.57,586.35 741.47,659.2 1116.62,636.48 389.57,-23.59 702.36,-168.7 987.23,-367.32 603.22,-420.59 1081.39,-1055.9 1898.87,-1311.68 720.01,-161.75 1256.14,118.04 1792.68,699.73 -647.41,-142.44 -1162.73,-174.19 -1404.52,22.26 -429.63,349.05 -284.66,784.43 243.1,911.15 1010.53,242.65 1724.39,-473.56 2429.77,-1042.89 419.94,-338.94 722.03,-600.78 1290.18,-608.9 545.24,-7.8 1068.86,260.65 1259.64,760.65 -585.73,-142.02 -993.38,-141.56 -1228.17,-2.83 -206.85,122.22 -289.29,287.9 -277.79,446.55 38.84,535.35 795.29,584.92 1295.87,416.94 138.85,-46.6 259.39,-126.56 366.36,-224.95 -30.9,3018.14 -2486.66,5455.34 -5512.1,5455.34 -3044.67,0 -5512.84,-2468.17 -5512.84,-5512.84 0,-202.51 11.25,-402.38 32.53,-599.23z"/>
  </g>
 </g>
</svg>
