<?xml version="1.0" encoding="UTF-8"?>
<!DOCTYPE svg PUBLIC "-//W3C//DTD SVG 1.1//EN" "http://www.w3.org/Graphics/SVG/1.1/DTD/svg11.dtd">
<!-- Creator: CorelDRAW -->
<svg xmlns="http://www.w3.org/2000/svg" xml:space="preserve" width="152.4mm" height="152.4mm" version="1.1" style="shape-rendering:geometricPrecision; text-rendering:geometricPrecision; image-rendering:optimizeQuality; fill-rule:evenodd; clip-rule:evenodd"
viewBox="0 0 15240 15240"
 xmlns:xlink="http://www.w3.org/1999/xlink"
 xmlns:xodm="http://www.corel.com/coreldraw/odm/2003">
 <defs>
  <style type="text/css">
   <![CDATA[
    .fil0 {fill:none}
    .fil1 {fill:#CE2129}
    .fil2 {fill:#FEC016}
    .fil3 {fill:white;fill-rule:nonzero}
   ]]>
  </style>
 </defs>
 <g id="Capa_x0020_1">
  <metadata id="CorelCorpID_0Corel-Layer"/>
  <g id="_1904149503120">
   <rect class="fil0" x="-0" y="-0" width="15240" height="15240"/>
   <ellipse id="contour" class="fil1" cx="7620.01" cy="7620" rx="7200.69" ry="7200.73"/>
   <path id="contour_3" class="fil2" d="M7620.01 364.25c4007.22,0 7255.71,3248.52 7255.71,7255.75 0,4007.22 -3248.49,7255.74 -7255.71,7255.74 -4007.22,0 -7255.7,-3248.52 -7255.7,-7255.74 0,-4007.23 3248.48,-7255.75 7255.7,-7255.75zm-0.06 985.8c3462.82,0 6270.01,2807.18 6270.01,6270 0,3462.82 -2807.19,6270.01 -6270.01,6270.01 -3462.82,0 -6270,-2807.19 -6270,-6270.01 0,-3462.82 2807.18,-6270 6270,-6270z"/>
   <path class="fil3" d="M6032.47 12081.3l59.12 0 -818.95 -5573.06 687.22 0 511.88 5573.06 519.63 0 -362.92 -5573.06 716.25 0 149.69 5573.06 522.48 0 141.6 -5573.06 589.71 0 -234.25 5573.06 484.6 0 470.96 -5573.06 507.5 0 -591.58 5572.66c217.22,-8.69 396.57,-166.15 432.18,-382.57l910.52 -5534.05 -0.07 0c115.42,-87.02 190.21,-226.39 190.21,-383.48 0,-137.29 -57.13,-261.03 -148.57,-348.14 100.17,-87.57 163.6,-217.19 163.6,-361.86 0,-263.76 -210.79,-477.55 -470.81,-477.55 -149,0 -281.8,70.21 -368.07,179.78 -18.08,-30.98 -39.5,-59.72 -63.78,-85.68 141.87,-84.13 236.72,-236.85 236.72,-411.3 0,-240.79 -180.68,-440.2 -416.35,-474.94 2.29,-22.03 3.47,-44.38 3.47,-66.99 0,-365.47 -305.79,-661.75 -683.02,-661.75 -377.23,0 -683.02,296.28 -683.02,661.75 0,25.54 1.55,50.73 4.46,75.51 -3.39,-0.11 -6.8,-0.18 -10.23,-0.18 -19.78,0 -39,1.82 -57.36,5.24 -1.47,-259.27 -216.77,-469 -482.19,-469 -266.33,0 -482.23,211.17 -482.23,471.67 0,8.82 0.27,17.58 0.76,26.27 -37.11,-8.71 -76.65,-13.43 -117.68,-13.43 -60.85,0 -118.43,10.35 -169.66,28.77 -75.08,-148.84 -231.9,-251.25 -413.24,-251.25 -66.14,0 -129.01,13.65 -185.86,38.18 -98.28,-263.71 -354.2,-451.75 -654.45,-451.75 -385.21,0 -697.47,309.48 -697.47,691.23 0,172.55 63.8,330.32 169.28,451.43 -42.91,-17.26 -92.35,-27.12 -145,-27.12 -84.96,0 -161.6,25.62 -215.86,66.73 -238.86,-154.24 -600.04,-28.2 -688.79,233.59 -87.71,258.73 53.86,558.37 374.76,681.68 -239.19,46.9 -418.76,244.48 -418.76,481.13 0,159.73 81.82,301.64 208.54,391.46l-3.11 0 1079.36 5547.14c42.21,216.94 227.77,369.88 448.78,369.88z"/>
  </g>
 </g>
</svg>
