<?xml version="1.0" encoding="UTF-8"?>
<!DOCTYPE svg PUBLIC "-//W3C//DTD SVG 1.1//EN" "http://www.w3.org/Graphics/SVG/1.1/DTD/svg11.dtd">
<!-- Creator: CorelDRAW -->
<svg xmlns="http://www.w3.org/2000/svg" xml:space="preserve" width="152.4mm" height="152.4mm" version="1.1" style="shape-rendering:geometricPrecision; text-rendering:geometricPrecision; image-rendering:optimizeQuality; fill-rule:evenodd; clip-rule:evenodd"
viewBox="0 0 15240 15240"
 xmlns:xlink="http://www.w3.org/1999/xlink"
 xmlns:xodm="http://www.corel.com/coreldraw/odm/2003">
 <defs>
  <style type="text/css">
   <![CDATA[
    .fil0 {fill:none}
    .fil3 {fill:none;fill-rule:nonzero}
    .fil2 {fill:#620B0C}
    .fil1 {fill:#E36FAB}
    .fil5 {fill:#620B0C;fill-rule:nonzero}
    .fil4 {fill:white;fill-rule:nonzero}
   ]]>
  </style>
 </defs>
 <g id="Capa_x0020_1">
  <metadata id="CorelCorpID_0Corel-Layer"/>
  <g id="_3017224373376">
   <rect class="fil0" x="-0" y="-0" width="15240" height="15240"/>
   <path class="fil1" d="M5302.97 620.06c602.29,-87.67 1258.56,-139.78 1925.26,-155.94l0 -2.44c130.23,-2.33 260.7,-3.31 391.1,-2.91l1.35 0c130.4,-0.4 260.88,0.57 391.1,2.91l0 2.44c666.7,16.16 1322.97,68.27 1925.26,155.94 1168.23,170.04 2034.35,454.91 2991.98,961.24 375,198.28 624.47,507.53 738.86,916.01 546.7,1952.26 593.62,4475.73 -355.27,6693.43 -1022.72,2390.25 -2931.53,4171.57 -5219.41,5347.67l-81.42 41.85 0 0.18 -19.03 9.6 -369.3 189.85 -3.43 1.43 -3.46 -1.43 -369.29 -189.85 -19.04 -9.6 0 -0.18 -81.42 -41.85c-2287.88,-1176.1 -4196.69,-2957.42 -5219.4,-5347.67 -948.9,-2217.7 -901.98,-4741.17 -355.27,-6693.43 114.39,-408.48 363.85,-717.73 738.85,-916.01 957.63,-506.33 1823.76,-791.2 2991.98,-961.24z"/>
   <path class="fil2" d="M5272.5 527.99c610.21,-88.82 1275.11,-141.62 1950.58,-157.99l0 -2.47c131.94,-2.36 264.13,-3.35 396.24,-2.95l1.37 0c132.12,-0.4 264.31,0.58 396.24,2.95l0 2.47c675.47,16.37 1340.37,69.17 1950.59,157.99 1183.59,172.28 2061.1,460.89 3031.33,973.89 379.93,200.88 632.68,514.2 748.57,928.05 553.9,1977.94 601.43,4534.6 -359.94,6781.46 -1036.17,2421.7 -2970.08,4226.45 -5288.06,5418.02l-82.49 42.4 0 0.18 -19.28 9.73 -374.16 192.34 -3.47 1.45 -3.5 -1.45 -374.16 -192.34 -19.28 -9.73 0 -0.18 -82.49 -42.4c-2317.98,-1191.57 -4251.89,-2996.32 -5288.05,-5418.02 -961.38,-2246.86 -913.85,-4803.52 -359.95,-6781.46 115.9,-413.85 368.64,-727.17 748.58,-928.05 970.22,-513 1847.74,-801.61 3031.33,-973.89zm151.33 1039.69c-1063.03,154.73 -2023.76,454.89 -2852.19,943.01 -1334,4290.73 309.12,8747.6 5049.28,11184.3 4789.49,-2416.98 6493.14,-6893.57 5159.14,-11184.3 -810,-477.25 -1746.44,-774.83 -2781.36,-932.47 -1360.59,-207.25 -3211.6,-208.97 -4574.87,-10.54z"/>
   <path id="path1" class="fil3" d="M8121.13 6344.92c-3.76,-18.18 -8.44,-37.56 -13.6,-56.58 6.11,20.71 10.57,39.2 13.6,56.58z"/>
   <path id="path1_167" class="fil3" d="M8121.13 6344.92c-3.76,-18.18 -8.44,-37.56 -13.6,-56.58 6.11,20.71 10.57,39.2 13.6,56.58z"/>
   <g>
    <path id="path1_168" class="fil3" d="M8128.5 6355.28c-3.76,-18.2 -8.44,-37.59 -13.61,-56.62 6.11,20.72 10.57,39.22 13.61,56.62z"/>
    <path class="fil2" d="M3814.43 6177.97c-0.04,-6.07 -0.78,-12.07 -0.25,-18.14 126.86,-1445.35 1227.91,-2969.26 2260.24,-3356.23 22.84,-50.13 4.72,-115.76 -52.52,-148.86 -223.04,7.14 -390.08,-43.79 -419.97,-143.31 -44.42,-147.87 230.77,-347.03 614.62,-444.83 383.88,-97.8 731.08,-57.2 775.5,90.68 30.53,101.65 -89.99,227.55 -293.01,328.09 -15.43,58.65 -1.9,100.12 47.59,136.41 1623.07,-390.68 3514.57,431.93 4155.31,1942.57 -533.47,-537.99 -2067.98,-643.94 -3795.79,-204.04 -1560.15,397.21 -2829.84,1125.4 -3291.72,1817.66zm1697.78 2115.52c157.74,61.75 383.18,-14.29 522.7,-73.56l-22.99 -40.47c-10.63,2.85 -22.1,5.29 -34.47,7.18l-316.56 82.22c-56.78,14.59 -99.02,20.45 -148.68,24.63zm5338.04 83.78c465.35,236.72 748.82,519.47 773.81,818.69 33.71,80.66 50.43,162.94 48.07,246.31 -23.08,820.3 -1852.72,1433.2 -4086.59,1368.92 -2233.89,-64.27 -4026.08,-781.37 -4002.99,-1601.67 2.17,-77.19 20.37,-152.54 53.36,-225.67 77.77,-642.29 1353.06,-1142.89 3046.38,-1248.54 18.42,-30.42 40.21,-55.65 64.33,-73.86 16.57,-12.52 59.59,-30.56 95.59,-40.09l65.48 -17.33 5.27 -46.69c1.67,-14.81 4.57,-29.73 8.23,-43.73 -1710.45,283.87 -3084.05,11.57 -3207.84,-692.19 -141.18,-802.59 1396.49,-1862.33 3434.48,-2367.01 2037.98,-504.66 3804.53,-263.15 3945.69,539.42 65.25,370.92 -228.31,796.75 -763.89,1197.35 -3.68,27.57 -6.91,60.46 -10.33,108.7 -15.65,220.47 -4.12,420.59 32.51,564.82 38.88,153.05 51.39,183.89 186.16,458.56 108.03,220.18 141,294.68 169.69,383.46 45.41,140.55 82.52,354.15 82.52,475.17 0,56.85 4.21,72.87 33.48,127.05 6.77,12.55 17.23,34.6 16.05,62.73 -0.08,1.83 6.84,3.74 10.54,5.6zm728.8 1079.63c-297.76,681.85 -1978.3,1165.43 -3991.34,1109.27 -1993.86,-55.63 -3631.43,-621.76 -3912.88,-1310.15 75.68,760.41 1789.81,1412.89 3911.63,1472.94 2143.03,60.63 3905.38,-505.61 3992.59,-1272.06zm-816.19 -322.57c-63.35,567.94 -1504.38,964.06 -3248.94,887.83 -1227.34,-53.65 -2281.68,-327.01 -2801.3,-683.2l35.31 12.04c120.58,40.89 244.3,75.68 369.92,105.49 563.79,241.35 1418.4,415.77 2381.81,456.52 1606.23,67.92 2949.85,-259.52 3158.14,-745.93 36.42,-10.49 73.78,-22.14 105.06,-32.75zm-3804.77 -1692.94c1.35,-0.59 2.66,-0.91 3.93,-0.91 0.41,0 0.84,0.03 1.29,0.1 62.16,-9.9 124.74,-20.51 187.78,-31.91 21.12,-33.77 26.83,-54.38 30.31,-101.35 5.46,-73.48 15.22,-86 55.31,-70.86 34.44,13 59.11,5.05 59.11,-19.07 0,-9.86 7.13,-40.02 15.85,-67.01 19.87,-61.51 52.3,-83.92 121.56,-83.97 26.7,-0.02 50.98,-4 53.99,-8.82 5.14,-8.33 -29.3,-47.32 -41.8,-47.32 -3.23,0 -15.27,-16.74 -26.75,-37.18 -23.84,-42.41 -23.28,-44.26 38.84,-133.51 20.59,-29.58 44.19,-53.59 52.44,-53.35 8.26,0.26 23.79,18.13 34.49,39.76l19.48 39.29 102.98 -1.11 10.47 -35.34c1.04,-4.15 2.5,-9.1 4.36,-14.65l0.02 -0.01c5.93,-17.87 15.69,-41.83 26.7,-64.79 18.01,-37.57 32.73,-76.6 32.73,-86.76 0,-41.15 -151.9,-236.03 -272.12,-349.1 -181.79,-170.99 -252.56,-248.49 -280.13,-306.8 -15.19,-32.07 -27.59,-62.99 -27.6,-68.71 -0.01,-25.68 -66.53,-89.1 -175.94,-167.78 -93.24,-67.03 -118.68,-89.98 -118.68,-106.98 0,-45.11 129.55,-81.37 203.5,-56.95 34.5,11.38 118.59,59.58 226.72,129.97 206.67,134.51 398.1,236.02 656.99,348.4 62.99,27.34 124.27,60.47 136.13,73.63 11.88,13.17 26.85,44.86 33.29,70.44 12.2,48.49 20.17,62.87 26.02,47.03 11.3,-30.57 160.5,-258.55 188.97,-288.74 33.32,-35.36 99.31,-71.18 155.74,-84.59 15.44,-3.67 49.11,-27.08 74.82,-52.06 69.72,-67.69 106.3,-82.87 228.42,-94.87 87.35,-8.56 123.36,-7.77 209.73,4.53 272.41,38.79 533.6,65.85 740.28,76.67 66.88,3.51 136.06,7.45 153.74,8.77 17.68,1.32 50.76,-3.94 73.49,-11.68 49.16,-16.75 79.73,-33.87 225.41,-126.23 38.55,-24.43 76.63,-44.33 84.63,-44.22 26.56,0.38 92.38,35.33 102.65,54.51 5.55,10.39 10.08,34.95 10.04,54.56 -0.07,24.19 -20.66,159.06 -37.15,250.69 -9.81,54.54 -16.9,87.54 -22.62,118.72 469.76,-360.25 723.22,-738.77 663.41,-1070.5 -135.88,-753.56 -1836.36,-980.3 -3798.11,-506.46 -1961.73,473.84 -3441.88,1468.85 -3305.99,2222.4 118.52,657.22 1427.18,913.63 3061.27,654.12zm65.5 54.59c2.47,2 4.8,3.75 6.91,5.14 17.81,11.76 23.11,10.79 50.09,-9.11 2.87,-2.13 6.1,-4.84 9.56,-8.03 -22.25,4.11 -44.4,8.07 -66.56,12zm3153.99 -1674.86c58.03,-15.93 133.59,-55.69 137.97,-72.57 6,-23.2 -2.1,-38.62 -20.35,-38.62 -25.5,0 -122.86,52.36 -164.39,88.41 -35.71,30.99 -36.34,32.48 -14.03,32.77 12.86,0.16 40.21,-4.33 60.8,-9.99zm-2009.22 678.15c12.26,-8.16 12.09,-9.88 45.98,-14.74 -6.8,-21.95 32.48,-107.42 117.44,-255.53 47.21,-82.3 94.57,-165.14 105.24,-184.07 42.8,-75.98 -17.13,-47.83 -85.92,40.37 -24.25,31.07 -72.99,109.79 -108.31,174.91 -57.32,105.64 -64.59,124.87 -67.29,177.92 -1.37,26.71 -4.31,51.27 -7.14,61.14zm-1139.01 -3721.18c1248.29,214.6 2158.38,549.18 2121.22,1219.9l831.4 54.38c-627.48,-1113.6 -1723.53,-1322.37 -2952.62,-1274.28z"/>
    <path id="path1_169" class="fil4" d="M4606.56 8583.55l0.01 0 4.82 -9.26c-27.44,-32.81 53.88,-92.21 75.71,-118.03 25.51,-30.18 75.09,-67.61 124.54,-90.75 62.39,-29.18 98.23,-33.64 445.29,-55.12 84.91,-5.24 170.53,-9.77 255.28,-16.89 157.75,61.74 383.18,-14.3 522.7,-73.57l-22.99 -40.47c5.54,-1.47 10.85,-3.09 15.95,-4.76 12.46,-11.74 30.68,-22.6 50.86,-36.57 40.04,-27.76 84.87,-42.82 121.22,-44.24 18.82,-7.27 36.74,-16.66 55.55,-24.61 24.99,-10.56 34.07,-20.71 53.64,-31.25 12.07,-6.51 39.48,-1.06 76.06,-7.96 -0.08,0.38 -0.14,0.73 -0.14,1.03l13.75 -4.63c7.08,-15.47 57.22,-60.53 96.17,-85.62 19.13,-12.31 44.98,-18.7 75.69,-18.7l46.63 0.01 19.1 -74.83c20.76,-81.21 60.58,-148.38 110.21,-185.88 16.57,-12.53 59.6,-30.57 95.61,-40.09l65.46 -17.32 5.28 -46.71c6.48,-57.58 31.38,-116.85 49.05,-116.85 7.26,0 21.17,10.69 30.87,23.75 9.73,13.04 26.65,29.64 37.62,36.89 17.82,11.76 23.1,10.8 50.11,-9.11 16.6,-12.26 45,-44.63 63.15,-71.97 27.2,-41.02 33.8,-60.72 37.65,-112.72 5.46,-73.49 15.21,-85.99 55.29,-70.87 34.45,13.01 59.12,5.05 59.12,-19.06 0,-9.86 7.15,-40.02 15.86,-67.01 19.86,-61.51 52.3,-83.93 121.55,-83.96 26.7,-0.02 50.98,-3.99 53.98,-8.84 5.15,-8.32 -29.29,-47.32 -41.79,-47.32 -3.22,0 -15.26,-16.71 -26.75,-37.15 -23.85,-42.42 -23.29,-44.29 38.85,-133.53 20.57,-29.57 44.17,-53.58 52.43,-53.35 8.26,0.25 23.78,18.13 34.49,39.75l19.49 39.31 102.97 -1.11 10.49 -35.36c1.03,-4.15 2.49,-9.1 4.34,-14.64l0 -0.02c5.95,-17.86 15.72,-41.81 26.72,-64.77 18,-37.57 32.73,-76.61 32.73,-86.78 0,-41.14 -151.9,-236.03 -272.12,-349.1 -181.79,-170.98 -252.56,-248.49 -280.15,-306.8 -15.16,-32.07 -27.59,-62.97 -27.59,-68.7 -0.02,-25.67 -66.52,-89.09 -175.93,-167.77 -93.23,-67.05 -118.68,-89.99 -118.68,-106.99 0,-45.11 129.55,-81.36 203.5,-56.96 34.51,11.4 118.58,59.59 226.72,129.97 206.67,134.52 398.1,236.04 656.99,348.4 63,27.35 124.26,60.49 136.14,73.64 11.87,13.17 26.85,44.86 33.28,70.43 12.19,48.49 20.17,62.9 26.02,47.02 11.3,-30.55 160.5,-258.52 188.99,-288.72 33.3,-35.35 99.3,-71.19 155.72,-84.59 15.43,-3.66 49.1,-27.11 74.84,-52.06 69.7,-67.69 106.29,-82.89 228.41,-94.86 87.33,-8.57 123.35,-7.79 209.73,4.51 272.39,38.8 533.59,65.85 740.29,76.68 66.87,3.5 136.04,7.44 153.73,8.78 17.67,1.32 50.75,-3.95 73.49,-11.7 49.15,-16.75 79.71,-33.86 225.4,-126.22 38.54,-24.42 76.63,-44.33 84.64,-44.21 26.54,0.37 92.38,35.33 102.63,54.49 5.56,10.39 10.08,34.95 10.04,54.57 -0.07,24.2 -20.65,159.05 -37.15,250.7 -22.66,126.07 -30.89,136.96 -40.81,276.76 -15.65,220.47 -4.13,420.6 32.5,564.81 38.88,153.07 51.39,183.88 186.16,458.57 108.04,220.17 141.01,294.69 169.68,383.46 45.44,140.56 82.52,354.14 82.52,475.16 0,56.86 4.23,72.88 33.49,127.07 3.55,6.56 7.67,16.06 11.53,26.94 6.91,27.19 9.29,58.26 -16.29,69.38 3.22,-1.12 5.82,-1.77 7.46,-1.77 11.86,0 13.18,19.35 6.98,37.61l-0.08 0.26 0.08 -0.25c-6.47,13.05 -21.11,28.85 -40.53,41.71 -40.13,26.55 -43.02,38.82 -26.98,114.6 32.06,151.61 81.5,494.92 72.77,505.42 -12.94,15.62 -230.59,83.15 -306.75,95.17 -130.57,20.63 -660.75,91.53 -911.88,121.95 -87.44,10.6 -173.73,21.21 -191.73,23.6 -18,2.38 -95.87,10.79 -173.03,18.69 -224.89,23.01 -608.36,69.91 -1033.48,126.37 -74.58,9.91 -217.68,28.89 -317.98,42.19 -100.31,13.29 -222.37,30.31 -271.23,37.81 -48.86,7.5 -145.67,19.96 -215.12,27.66 -69.43,7.71 -159.92,18.18 -201.08,23.28l0 -0.01c-177.19,21.94 -720.67,17.71 -1038.15,-8.06 -477.13,-38.73 -975.99,-106.48 -1430.24,-260.51 -170.52,-57.84 -217.84,-77.49 -231.19,-96.09 -18.1,-25.22 -27.51,-75.93 -49.96,-269.2 -12.9,-111.1 -12.94,-130.71 -0.34,-185.12 17.77,-76.6 34.25,-108.36 88.11,-169.78 27.62,-31.49 40.99,-45.33 52.01,-47.25zm5571.01 -2762.42c58.03,-15.94 133.59,-55.69 137.98,-72.57 6.02,-23.22 -2.11,-38.63 -20.35,-38.63 -25.52,0 -122.87,52.35 -164.39,88.41 -35.72,31 -36.35,32.49 -14.03,32.77 12.86,0.16 40.2,-4.33 60.79,-9.98zm-2009.21 678.15c12.25,-8.18 12.1,-9.91 45.98,-14.75 -6.79,-21.95 32.48,-107.43 117.44,-255.53 47.2,-82.31 94.56,-165.14 105.24,-184.06 42.81,-76 -17.12,-47.84 -85.93,40.35 -24.23,31.07 -72.96,109.79 -108.3,174.94 -57.33,105.61 -64.6,124.84 -67.29,177.89 -1.36,26.73 -4.31,51.25 -7.14,61.16z"/>
    <path id="path2" class="fil5" d="M6385.2 8030.07c-0.08,0.37 -0.15,0.72 -0.15,1.03 0,4.78 22.1,18.88 49.1,31.33 151.81,70.05 221.71,118.04 222.47,152.71 0.75,33.93 41.26,67.09 91.72,75.06 63.43,10.04 90.89,4.3 139.97,-29.19 45.34,-30.94 57.91,-55.71 57.91,-114.05 0,-56.21 -25.67,-85.57 -91.61,-104.74 -29.13,-8.47 -68.68,-25.79 -87.88,-38.5 -19.2,-12.71 -48.74,-30.02 -65.64,-38.47 -50.07,-25.03 -44.51,-43.09 21.01,-68.18 36.72,-14.05 68.97,-34.66 89.34,-57.08 36.47,-40.13 43.13,-41.64 77.21,-17.42 13.66,9.69 52.19,29.05 85.62,43.01 33.45,13.96 67.11,30.72 74.83,37.25 24.51,20.71 111.81,79.81 117.9,79.81 3.22,0 26.27,14.97 51.21,33.28 58.12,42.67 89.35,51.34 143.42,39.81 54.19,-11.56 102.26,-55.31 117.82,-107.27 10.49,-35 9.5,-42.72 -10.61,-82.98 -29.87,-59.79 -68.79,-87.91 -131.11,-94.7 -28.32,-3.1 -68.45,-16.06 -92.23,-29.81 -23.15,-13.38 -54.53,-30.77 -69.75,-38.64 -26.23,-13.57 -77.58,-85.03 -79.16,-110.18 -0.52,-8.28 17.66,-11.64 62.4,-11.52 61.57,0.16 91.59,7.63 325.01,80.86 125.92,39.5 166.98,49.69 201.08,49.86 40.67,0.2 102.87,16.91 102.87,27.64 0,12.22 54.54,28.53 95.38,28.53 79.75,0 157.14,-75.88 157.14,-154.08 0,-57.92 -30.33,-102.96 -88.51,-131.42 -54.51,-26.66 -85.2,-27.47 -142.58,-3.7 -27.34,11.34 -34.8,10.18 -84.17,-12.98 -29.8,-13.98 -87.19,-33.48 -127.56,-43.34 -40.36,-9.85 -75.48,-20.03 -78.05,-22.6 -2.57,-2.56 8.58,-23.94 24.78,-47.49 32.44,-47.15 30.79,-61.31 -7.16,-61.51 -13.85,-0.09 -31.36,-4.07 -38.93,-8.85 -24.58,-15.56 -0.87,-22.89 44.39,-13.74 51.57,10.41 355.2,10.53 467.71,0.16 72.44,-6.66 80.47,-5.57 123.75,17.07 158.26,82.75 323.37,-71.42 223.74,-208.94 -50.79,-70.12 -134.1,-83.89 -225.49,-37.26 -34.28,17.49 -45.9,19.16 -77.79,11.17 -20.63,-5.17 -68.02,-7.4 -105.31,-4.97 -55.18,3.62 -67.82,1.9 -67.82,-9.19 0,-7.49 29.85,-59.52 66.31,-115.62 36.46,-56.11 80.44,-129.88 97.72,-163.95 17.29,-34.07 38.3,-64.58 46.71,-67.81 27.45,-10.54 204.56,-5.35 239.13,6.99 18.52,6.62 49.21,29.24 68.22,50.28 58.27,64.5 148.54,65.24 212.04,1.74 60.05,-60.06 59.78,-151.98 -0.62,-209.85 -35.65,-34.16 -111.25,-42.78 -171.94,-19.6 -31.22,11.93 -46.45,13.22 -66.36,5.66 -14.2,-5.41 -53.29,-13.71 -86.85,-18.46 -33.55,-4.76 -64.8,-12.43 -69.43,-17.06 -14.07,-14.07 24.54,-100.82 115.38,-259.17 47.21,-82.31 94.56,-165.14 105.24,-184.06 42.81,-76 -17.12,-47.83 -85.93,40.36 -24.24,31.07 -72.97,109.78 -108.31,174.92 -57.31,105.62 -64.58,124.85 -67.28,177.9 -1.67,32.72 -5.72,62.18 -9,65.47 -14.95,14.95 -32.52,-34.09 -32.84,-91.66 -0.24,-43.84 -8.92,-86.55 -30.39,-149.65l-30.06 -88.29 -168.56 -75.37c-249.81,-111.71 -437.4,-214.76 -687.21,-377.49 -154.48,-100.65 -165.38,-104.76 -239.56,-90.83 -33.39,6.27 -65.26,15.94 -70.78,21.47 -12.92,12.91 20.43,44.57 112.99,107.26 183.56,124.32 449.49,336.98 548.57,438.68 91.89,94.3 109.2,117.56 155.47,208.99 64.97,128.35 87.44,193.93 107.17,312.71 12.52,75.44 13.26,96.29 3.79,107.71 -19.62,23.63 -155.28,43.72 -168.2,37.05 11.92,-53.47 38.36,-108.11 41.56,-114.78 18,-37.57 32.73,-76.62 32.73,-86.77 0,-41.15 -151.9,-236.03 -272.12,-349.11 -181.79,-170.97 -252.57,-248.49 -280.14,-306.8 -15.17,-32.06 -27.59,-62.97 -27.59,-68.7 -0.03,-25.68 -66.53,-89.1 -175.94,-167.78 -93.23,-67.03 -118.68,-89.98 -118.68,-106.98 0,-45.11 129.55,-81.36 203.5,-56.96 34.5,11.39 118.58,59.59 226.72,129.97 206.67,134.52 398.1,236.03 656.99,348.4 63,27.35 124.25,60.49 136.14,73.65 11.87,13.16 26.85,44.85 33.28,70.42 12.19,48.49 20.16,62.9 26.02,47.03 11.3,-30.56 160.5,-258.53 188.98,-288.74 33.31,-35.35 99.3,-71.18 155.73,-84.58 15.43,-3.66 49.1,-27.1 74.83,-52.06 69.71,-67.69 106.3,-82.88 228.41,-94.86 87.34,-8.57 123.36,-7.79 209.74,4.51 272.39,38.8 533.59,65.85 740.29,76.68 66.87,3.5 136.04,7.44 153.72,8.77 17.69,1.33 50.76,-3.94 73.5,-11.69 49.15,-16.75 79.71,-33.85 225.4,-126.21 38.55,-24.43 76.63,-44.34 84.63,-44.22 26.56,0.37 92.38,35.33 102.65,54.5 5.55,10.38 10.07,34.95 10.03,54.57 -0.06,27.8 -27.27,201.83 -44.19,288.36 -23.74,121.59 -24.64,110.24 -33.77,239.09 -15.65,220.47 -4.13,420.61 32.5,564.82 38.88,153.06 51.39,183.87 186.16,458.56 108.04,220.17 141.01,294.69 169.68,383.46 45.44,140.56 82.52,354.14 82.52,475.16 0,56.86 4.22,72.88 33.49,127.07 6.33,11.71 9,16.24 12.15,29.41 6.41,26.56 7.9,56.1 -16.89,66.89l-0.02 0.02c-8.27,2.85 -20.73,8.93 -32.29,16 -30.87,18.81 -141.24,68.8 -358.23,100.85 -102.41,15.12 -20.33,-86.85 -149.18,-70.93 -866.35,107.05 -2410.63,341.12 -2612.82,349.86 -846.39,36.54 -1835.46,126.48 -2663.54,-85.31 -242.18,-61.95 -359.8,-104.39 -391.19,-141.15 -23.26,-27.21 16.72,-56.23 54.44,-101.59 -7.06,8.88 -11.29,16 -11.29,20.08 0,15.94 38,46.61 89.96,72.61 76.09,38.06 657.49,218.62 724.93,162.83 36.88,-30.51 47.87,-65.85 55.72,-179.15 11.49,-165.76 15.76,-191.41 36.82,-221 4.94,-6.92 9.41,-12.86 12.08,-17.87 150.72,25.97 338.54,-38.71 460.6,-90.57 2.94,5.08 6.33,10.3 10.01,15.39 14.75,20.39 36.28,50.36 47.85,66.6 15.31,21.49 21.05,42.73 21.05,77.96 0,38.19 4.45,52.57 21.05,67.99 44.05,40.98 131.25,47.02 189.31,13.12 93.81,-54.79 91.63,-170.25 -3.76,-200.07 -47.75,-14.93 -75.62,-53.9 -75.65,-105.8 -0.02,-42.12 -12.06,-58.27 -50.61,-59.07 20.98,-7.51 40.62,-18.01 61.34,-26.78 24.99,-10.55 34.07,-20.69 53.65,-31.25 12.06,-6.5 39.46,-1.05 76.05,-7.95zm-373.28 149.39c7.04,-1.88 13.73,-3.95 20.04,-6.15 -4.72,5.24 -7.9,9.45 -8.86,11.92 -1.94,5.04 2.34,17.68 10.19,31.83l-21.37 -37.6zm209.87 226.42c-8.08,-21.05 33.9,-58.48 65.58,-58.48 16.62,0 22.86,5.1 22.86,18.7 0,43.41 -74.24,76.81 -88.44,39.78zm3581.35 -858.45c207.35,-54.01 344.22,-245.36 329.9,-461.22 -2.61,-39.37 -12.5,-94.73 -21.97,-123.02 -38.6,-115.38 -145.4,-226.07 -262.49,-272.04 -79.82,-31.34 -206.38,-35.47 -291.78,-9.55 -271.93,82.6 -398.06,388.97 -266.8,648.16 44.81,88.5 153.47,178.06 260.26,214.5 60.4,20.62 180.14,22.12 252.88,3.17zm-892.93 -1351.16c0,-98.5 -49.31,-144.97 -153.84,-144.97 -57.77,0 -70.09,3.23 -100.12,26.2 -43.93,33.6 -67.29,89.91 -58.69,141.39 11.18,66.89 78.87,127.1 145.37,126.82 93.23,-0.38 167.28,-44.15 167.28,-149.44zm-168.28 68.13c-53.41,-19.17 -72.42,-80.26 -35.64,-114.54 51.95,-48.39 129.49,-6.39 120.22,65.12 -4.02,31.04 -54.15,60.33 -84.57,49.42l-0.01 0zm1435.64 -443.27c58.03,-15.94 133.6,-55.7 137.98,-72.58 6.02,-23.21 -2.11,-38.62 -20.35,-38.62 -25.51,0 -122.87,52.35 -164.4,88.4 -35.7,31 -36.34,32.49 -14.02,32.79 12.85,0.15 40.21,-4.33 60.79,-9.99zm-3390.35 2381.63c0,-23.23 22.98,-42.42 50.82,-42.42 20.02,0 19.88,52.1 -0.15,59.79 -32.51,12.47 -50.68,6.24 -50.68,-17.37l0.01 0zm517.84 -235.77c-5.11,-20.32 -1.33,-28.95 20.18,-46.1 34.18,-27.25 57.27,-32.97 70.21,-17.39 19.3,23.26 -26.7,88.49 -62.37,88.49 -15.77,0 -23.48,-6.87 -28.02,-25zm545.25 -280.53c-13.62,-13.6 -4.83,-44.29 22.61,-78.92 30.3,-38.26 54.68,-45.71 73.87,-22.58 13.4,16.13 0.7,62.61 -24.79,90.76 -14.99,16.57 -59.25,23.2 -71.69,10.74zm383.72 -471.78c-9.29,-5.41 -20.97,-20.56 -25.96,-33.68 -19.13,-50.33 18.19,-88.05 67.07,-67.8 22.45,9.29 27.21,16.79 27.21,42.86 0,19.13 -7.38,38.99 -18.71,50.31 -21.21,21.21 -26.04,22.02 -49.61,8.31zm262.06 -525.54c-5.86,-15.24 13.94,-63.53 32.27,-78.75 17.92,-14.86 54.57,8.88 54.57,35.34 0,39.69 -74.06,76.71 -86.84,43.41z"/>
    <path id="path1_170" class="fil3" d="M8128.5 6355.28c-3.76,-18.2 -8.44,-37.59 -13.61,-56.62 6.11,20.72 10.57,39.22 13.61,56.62z"/>
   </g>
  </g>
 </g>
</svg>
