<?xml version="1.0" encoding="UTF-8"?>
<!DOCTYPE svg PUBLIC "-//W3C//DTD SVG 1.1//EN" "http://www.w3.org/Graphics/SVG/1.1/DTD/svg11.dtd">
<!-- Creator: CorelDRAW -->
<svg xmlns="http://www.w3.org/2000/svg" xml:space="preserve" width="152.4mm" height="152.4mm" version="1.1" style="shape-rendering:geometricPrecision; text-rendering:geometricPrecision; image-rendering:optimizeQuality; fill-rule:evenodd; clip-rule:evenodd"
viewBox="0 0 13878.06 13878.06"
 xmlns:xlink="http://www.w3.org/1999/xlink"
 xmlns:xodm="http://www.corel.com/coreldraw/odm/2003">
 <defs>
  <style type="text/css">
   <![CDATA[
    .fil0 {fill:none}
    .fil3 {fill:none;fill-rule:nonzero}
    .fil4 {fill:#620B0C}
    .fil2 {fill:#620B0C}
    .fil1 {fill:#E36FAB}
    .fil6 {fill:#620B0C;fill-rule:nonzero}
    .fil5 {fill:white;fill-rule:nonzero}
   ]]>
  </style>
 </defs>
 <g id="Capa_x0020_1">
  <metadata id="CorelCorpID_0Corel-Layer"/>
  <g id="_3017583366272">
   <rect class="fil0" x="-0" y="-0" width="13878.06" height="13878.06"/>
   <ellipse id="contour" class="fil1" cx="6939.04" cy="6939.03" rx="6557.19" ry="6557.22"/>
   <path id="contour_164" class="fil2" d="M6939.04 331.7c3649.11,0 6607.29,2958.21 6607.29,6607.33 0,3649.11 -2958.18,6607.32 -6607.29,6607.32 -3649.11,0 -6607.28,-2958.21 -6607.28,-6607.32 0,-3649.12 2958.18,-6607.33 6607.28,-6607.33zm-0.05 897.7c3153.36,0 5709.68,2556.31 5709.68,5709.67 0,3153.36 -2556.32,5709.68 -5709.68,5709.68 -3153.36,0 -5709.67,-2556.32 -5709.67,-5709.68 0,-3153.36 2556.31,-5709.67 5709.67,-5709.67z"/>
   <g>
    <path id="path1" class="fil3" d="M7493.93 6542.06c-4.16,-20.12 -9.33,-41.56 -15.05,-62.61 6.77,22.91 11.69,43.37 15.05,62.61z"/>
    <path class="fil4" d="M2723.57 6346c-0.05,-6.7 -0.87,-13.34 -0.27,-20.04 140.27,-1598.23 1357.78,-3283.33 2499.3,-3711.22 25.26,-55.43 5.22,-128.01 -58.07,-164.61 -246.64,7.9 -431.34,-48.42 -464.4,-158.46 -49.11,-163.51 255.18,-383.74 679.63,-491.89 424.47,-108.14 808.41,-63.25 857.52,100.27 33.77,112.4 -99.5,251.62 -323.99,362.79 -17.07,64.86 -2.1,110.71 52.62,150.85 1794.75,-432 3886.3,477.62 4594.81,2148.04 -589.88,-594.91 -2286.7,-712.05 -4197.26,-225.63 -1725.16,439.23 -3129.15,1244.44 -3639.88,2009.9zm1877.35 2339.29c174.42,68.28 423.71,-15.8 577.99,-81.35l-25.42 -44.75c-11.76,3.14 -24.44,5.85 -38.12,7.94l-350.04 90.91c-62.79,16.14 -109.49,22.62 -164.41,27.25zm5902.65 92.64c514.56,261.75 828.01,574.41 855.64,905.28 37.28,89.2 55.77,180.18 53.17,272.36 -25.53,907.06 -2048.7,1584.78 -4518.84,1513.71 -2470.17,-71.07 -4451.91,-864.02 -4426.38,-1771.07 2.4,-85.35 22.53,-168.68 59.01,-249.54 85.99,-710.22 1496.16,-1263.78 3368.59,-1380.59 20.36,-33.65 44.47,-61.54 71.13,-81.68 18.32,-13.84 65.9,-33.78 105.71,-44.32l72.4 -19.16 5.83 -51.64c1.84,-16.37 5.05,-32.87 9.11,-48.35 -1891.37,313.9 -3410.25,12.79 -3547.14,-765.4 -156.11,-887.48 1544.2,-2059.31 3797.74,-2617.37 2253.54,-558.04 4206.93,-290.98 4363.02,596.48 72.16,410.15 -252.45,881.02 -844.69,1323.99 -4.07,30.49 -7.64,66.86 -11.42,120.19 -17.3,243.79 -4.56,465.07 35.95,624.57 42.99,169.23 56.82,203.33 205.85,507.06 119.45,243.46 155.91,325.85 187.63,424.01 50.21,155.43 91.25,391.62 91.25,525.43 0,62.87 4.65,80.58 37.02,140.5 7.49,13.87 19.06,38.26 17.75,69.36 -0.09,2.02 7.57,4.13 11.67,6.19zm805.87 1193.82c-329.26,753.96 -2187.53,1288.69 -4413.5,1226.59 -2204.74,-61.5 -4015.53,-687.52 -4326.75,-1448.72 83.69,840.84 1979.12,1562.33 4325.36,1628.72 2369.7,67.06 4318.45,-559.08 4414.88,-1406.59zm-902.51 -356.7c-70.06,628.02 -1663.51,1066.03 -3592.58,981.74 -1357.16,-59.32 -2523.01,-361.6 -3097.59,-755.46l39.04 13.31c133.34,45.22 270.14,83.69 409.06,116.65 623.41,266.87 1568.41,459.75 2633.73,504.8 1776.11,75.11 3261.84,-286.97 3492.16,-824.82 40.28,-11.6 81.59,-24.48 116.18,-36.22zm-4207.19 -1871.99c1.48,-0.66 2.93,-1.01 4.33,-1.01 0.46,0 0.93,0.04 1.43,0.11 68.73,-10.95 137.93,-22.68 207.64,-35.28 23.36,-37.35 29.66,-60.14 33.51,-112.07 6.05,-81.26 16.83,-95.11 61.17,-78.36 38.07,14.37 65.36,5.58 65.36,-21.09 0,-10.9 7.89,-44.25 17.53,-74.1 21.97,-68.02 57.83,-92.8 134.42,-92.86 29.52,-0.02 56.38,-4.41 59.69,-9.74 5.69,-9.22 -32.4,-52.33 -46.21,-52.33 -3.58,0 -16.88,-18.51 -29.58,-41.12 -26.36,-46.89 -25.74,-48.94 42.95,-147.63 22.77,-32.71 48.86,-59.26 57.99,-59 9.12,0.29 26.3,20.05 38.14,43.97l21.54 43.45 113.87 -1.23 11.58 -39.08c1.16,-4.59 2.77,-10.07 4.82,-16.2l0.02 -0.01c6.57,-19.76 17.37,-46.26 29.53,-71.64 19.92,-41.55 36.2,-84.72 36.2,-95.94 0,-45.5 -167.98,-261 -300.91,-386.03 -201.01,-189.07 -279.26,-274.77 -309.76,-339.25 -16.79,-35.46 -30.51,-69.65 -30.52,-75.97 -0.01,-28.39 -73.57,-98.53 -194.55,-185.53 -103.09,-74.12 -131.23,-99.49 -131.23,-118.29 0,-49.88 143.25,-89.97 225.03,-62.98 38.15,12.59 131.12,65.89 250.7,143.72 228.52,148.74 440.21,260.99 726.48,385.25 69.65,30.23 137.41,66.87 150.54,81.43 13.13,14.56 29.69,49.6 36.81,77.88 13.49,53.62 22.29,69.54 28.77,52.01 12.49,-33.8 177.47,-285.89 208.96,-319.28 36.84,-39.1 109.8,-78.72 172.21,-93.54 17.07,-4.06 54.3,-29.94 82.72,-57.56 77.1,-74.84 117.55,-91.64 252.59,-104.9 96.58,-9.46 136.4,-8.59 231.91,5.01 301.22,42.9 590.04,72.81 818.58,84.78 73.96,3.88 150.45,8.24 170,9.7 19.55,1.47 56.13,-4.35 81.26,-12.92 54.36,-18.52 88.17,-37.45 249.25,-139.57 42.64,-27.01 84.73,-49.02 93.59,-48.89 29.37,0.42 102.15,39.07 113.51,60.27 6.13,11.49 11.14,38.65 11.1,60.33 -0.08,26.75 -22.85,175.88 -41.09,277.22 -10.85,60.31 -18.69,96.8 -25.01,131.28 519.44,-398.36 799.72,-816.91 733.57,-1183.73 -150.24,-833.26 -2030.59,-1083.98 -4199.82,-560.02 -2169.22,523.95 -3805.93,1624.2 -3655.67,2457.45 131.06,726.73 1578.14,1010.27 3385.07,723.32zm72.42 60.36c2.72,2.21 5.3,4.14 7.63,5.68 19.7,13 25.56,11.93 55.39,-10.08 3.18,-2.34 6.75,-5.35 10.57,-8.87 -24.61,4.54 -49.1,8.92 -73.6,13.27zm3487.59 -1852.01c64.15,-17.61 147.7,-61.58 152.55,-80.25 6.64,-25.65 -2.32,-42.71 -22.5,-42.71 -28.19,0 -135.85,57.91 -181.78,97.77 -39.48,34.27 -40.17,35.92 -15.51,36.24 14.21,0.17 44.47,-4.79 67.24,-11.06zm-2221.75 749.88c13.56,-9.03 13.37,-10.93 50.85,-16.3 -7.53,-24.28 35.91,-118.78 129.86,-282.56 52.21,-91.01 104.57,-182.61 116.37,-203.53 47.33,-84.02 -18.93,-52.91 -95.01,44.63 -26.82,34.36 -80.71,121.4 -119.77,193.41 -63.38,116.82 -71.42,138.08 -74.41,196.74 -1.5,29.53 -4.76,56.69 -7.9,67.61zm-1259.48 -4114.77c1380.32,237.29 2386.67,607.27 2345.58,1348.93l919.33 60.13c-693.84,-1231.38 -1905.83,-1462.24 -3264.91,-1409.06z"/>
    <path id="path1_165" class="fil5" d="M3599.48 9006.02l0.01 0 5.34 -10.24c-30.35,-36.28 59.57,-101.96 83.71,-130.51 28.21,-33.37 83.03,-74.75 137.72,-100.34 68.99,-32.27 108.62,-37.2 492.39,-60.95 93.89,-5.8 188.56,-10.81 282.28,-18.69 174.43,68.27 423.71,-15.81 577.98,-81.35l-25.42 -44.75c6.13,-1.63 12,-3.41 17.64,-5.26 13.78,-12.99 33.92,-25 56.24,-40.44 44.28,-30.7 93.84,-47.34 134.04,-48.92 20.82,-8.03 40.62,-18.42 61.43,-27.21 27.63,-11.68 37.66,-22.9 59.31,-34.56 13.34,-7.19 43.66,-1.17 84.11,-8.8 -0.09,0.42 -0.15,0.8 -0.15,1.14l15.21 -5.12c7.82,-17.11 63.26,-66.93 106.33,-94.68 21.15,-13.61 49.74,-20.68 83.7,-20.68l51.56 0.01 21.13 -82.74c22.95,-89.81 66.99,-164.08 121.86,-205.54 18.32,-13.86 65.91,-33.8 105.72,-44.33l72.39 -19.15 5.84 -51.65c7.17,-63.67 34.7,-129.21 54.24,-129.21 8.03,0 23.4,11.82 34.14,26.25 10.75,14.42 29.47,32.78 41.6,40.8 19.7,13 25.54,11.94 55.4,-10.07 18.36,-13.56 49.77,-49.36 69.83,-79.58 30.09,-45.36 37.38,-67.14 41.63,-124.65 6.04,-81.26 16.82,-95.09 61.14,-78.36 38.09,14.38 65.37,5.58 65.37,-21.08 0,-10.9 7.9,-44.25 17.54,-74.1 21.96,-68.02 57.83,-92.8 134.4,-92.84 29.53,-0.03 56.38,-4.42 59.69,-9.78 5.7,-9.2 -32.38,-52.32 -46.21,-52.32 -3.56,0 -16.87,-18.49 -29.59,-41.09 -26.36,-46.91 -25.74,-48.96 42.96,-147.65 22.75,-32.7 48.85,-59.25 57.97,-58.99 9.14,0.27 26.3,20.04 38.15,43.96l21.55 43.46 113.87 -1.23 11.59 -39.1c1.14,-4.58 2.76,-10.06 4.8,-16.18l0.01 -0.02c6.57,-19.75 17.37,-46.24 29.54,-71.63 19.91,-41.53 36.2,-84.71 36.2,-95.95 0,-45.5 -167.98,-261 -300.91,-386.03 -201.01,-189.07 -279.27,-274.77 -309.78,-339.25 -16.76,-35.46 -30.51,-69.64 -30.51,-75.97 -0.02,-28.38 -73.55,-98.51 -194.54,-185.51 -103.09,-74.14 -131.23,-99.51 -131.23,-118.31 0,-49.88 143.25,-89.96 225.03,-62.98 38.16,12.6 131.11,65.89 250.7,143.72 228.52,148.74 440.2,261 726.48,385.24 69.66,30.24 137.41,66.9 150.54,81.43 13.13,14.56 29.7,49.61 36.8,77.89 13.49,53.61 22.31,69.55 28.78,51.99 12.49,-33.78 177.47,-285.87 208.98,-319.26 36.82,-39.08 109.8,-78.72 172.19,-93.53 17.06,-4.05 54.29,-29.98 82.75,-57.57 77.08,-74.84 117.54,-91.66 252.57,-104.9 96.56,-9.47 136.39,-8.61 231.91,4.99 301.2,42.9 590.03,72.81 818.6,84.79 73.93,3.87 150.43,8.22 169.99,9.71 19.53,1.46 56.11,-4.36 81.26,-12.93 54.35,-18.52 88.14,-37.45 249.23,-139.57 42.62,-27.01 84.74,-49.02 93.59,-48.89 29.35,0.42 102.15,39.07 113.49,60.26 6.15,11.49 11.14,38.65 11.09,60.35 -0.07,26.75 -22.83,175.87 -41.07,277.21 -25.06,139.41 -34.17,151.46 -45.13,306.04 -17.3,243.79 -4.56,465.09 35.93,624.55 43,169.26 56.83,203.34 205.86,507.08 119.47,243.46 155.92,325.86 187.63,424.02 50.24,155.43 91.25,391.6 91.25,525.42 0,62.87 4.67,80.58 37.04,140.51 3.92,7.25 8.48,17.76 12.75,29.79 7.64,30.06 10.27,64.42 -18.02,76.71 3.57,-1.24 6.44,-1.95 8.25,-1.95 13.11,0 14.58,21.39 7.72,41.59l-0.09 0.28 0.09 -0.27c-7.16,14.42 -23.34,31.9 -44.82,46.11 -44.38,29.36 -47.56,42.93 -29.83,126.72 35.45,167.65 90.13,547.27 80.47,558.88 -14.32,17.27 -254.98,91.94 -339.19,105.23 -144.39,22.81 -730.64,101.22 -1008.34,134.85 -96.69,11.73 -192.11,23.46 -212,26.1 -19.91,2.63 -106.02,11.93 -191.33,20.66 -248.68,25.45 -672.7,77.3 -1142.79,139.75 -82.47,10.95 -240.71,31.95 -351.61,46.64 -110.92,14.7 -245.89,33.52 -299.92,41.82 -54.03,8.29 -161.07,22.06 -237.88,30.59 -76.78,8.52 -176.84,20.1 -222.34,25.73l0 -0.01c-195.94,24.26 -796.9,19.59 -1147.95,-8.92 -527.6,-42.83 -1079.23,-117.74 -1581.52,-288.06 -188.56,-63.95 -240.87,-85.68 -255.63,-106.25 -20.02,-27.88 -30.42,-83.96 -55.25,-297.68 -14.27,-122.84 -14.31,-144.54 -0.37,-204.69 19.64,-84.71 37.87,-119.83 97.43,-187.75 30.53,-34.82 45.32,-50.12 57.51,-52.24zm6160.25 -3054.6c64.16,-17.62 147.71,-61.58 152.57,-80.25 6.66,-25.67 -2.33,-42.72 -22.5,-42.72 -28.21,0 -135.87,57.89 -181.77,97.77 -39.5,34.28 -40.2,35.92 -15.52,36.23 14.22,0.18 44.46,-4.79 67.22,-11.04zm-2221.73 749.88c13.55,-9.04 13.39,-10.95 50.84,-16.31 -7.5,-24.27 35.92,-118.79 129.87,-282.56 52.2,-91.01 104.57,-182.6 116.37,-203.53 47.34,-84.04 -18.92,-52.9 -95.02,44.62 -26.79,34.36 -80.68,121.4 -119.76,193.44 -63.39,116.78 -71.43,138.05 -74.41,196.72 -1.5,29.55 -4.76,56.67 -7.9,67.62z"/>
    <path id="path2" class="fil6" d="M5566.25 8394c-0.09,0.41 -0.16,0.79 -0.16,1.14 0,5.28 24.43,20.87 54.29,34.64 167.87,77.46 245.16,130.52 246,168.87 0.83,37.52 45.62,74.18 101.42,83 70.15,11.1 100.51,4.75 154.78,-32.28 50.13,-34.21 64.03,-61.6 64.03,-126.11 0,-62.15 -28.38,-94.61 -101.29,-115.81 -32.22,-9.37 -75.95,-28.52 -97.18,-42.57 -21.23,-14.05 -53.89,-33.19 -72.58,-42.54 -55.37,-27.68 -49.22,-47.65 23.23,-75.39 40.61,-15.54 76.27,-38.33 98.79,-63.12 40.33,-44.38 47.7,-46.05 85.38,-19.27 15.11,10.72 57.71,32.13 94.68,47.56 36.98,15.44 74.21,33.97 82.74,41.19 27.1,22.9 123.64,88.25 130.38,88.25 3.55,0 29.04,16.56 56.62,36.81 64.26,47.18 98.8,56.76 158.59,44.01 59.93,-12.78 113.08,-61.16 130.28,-118.61 11.6,-38.7 10.5,-47.23 -11.73,-91.76 -33.03,-66.12 -76.07,-97.21 -144.98,-104.72 -31.32,-3.42 -75.69,-17.76 -101.98,-32.96 -25.6,-14.8 -60.3,-34.03 -77.13,-42.73 -29,-15.01 -85.78,-94.03 -87.53,-121.83 -0.57,-9.16 19.52,-12.88 69,-12.74 68.08,0.17 101.28,8.43 359.38,89.41 139.24,43.68 184.65,54.95 222.35,55.14 44.98,0.22 113.76,18.7 113.76,30.56 0,13.51 60.3,31.55 105.47,31.55 88.19,0 173.76,-83.91 173.76,-170.38 0,-64.04 -33.54,-113.85 -97.87,-145.32 -60.27,-29.49 -94.21,-30.38 -157.66,-4.1 -30.23,12.54 -38.48,11.26 -93.08,-14.35 -32.95,-15.45 -96.41,-37.02 -141.05,-47.92 -44.63,-10.9 -83.47,-22.16 -86.31,-25 -2.84,-2.83 9.49,-26.47 27.4,-52.51 35.88,-52.14 34.05,-67.8 -7.91,-68.02 -15.32,-0.09 -34.68,-4.5 -43.05,-9.78 -27.18,-17.2 -0.97,-25.31 49.08,-15.2 57.02,11.52 392.77,11.65 517.18,0.18 80.1,-7.37 88.99,-6.16 136.84,18.88 175,91.5 357.57,-78.98 247.41,-231.04 -56.17,-77.54 -148.29,-92.77 -249.35,-41.21 -37.9,19.34 -50.75,21.18 -86.02,12.35 -22.81,-5.71 -75.21,-8.18 -116.44,-5.49 -61.01,4 -74.99,2.09 -74.99,-10.16 0,-8.29 33,-65.81 73.32,-127.85 40.32,-62.04 88.95,-143.62 108.06,-181.29 19.12,-37.67 42.35,-71.41 51.65,-74.98 30.36,-11.66 226.2,-5.92 264.43,7.73 20.47,7.32 54.41,32.34 75.43,55.59 64.44,71.32 164.25,72.14 234.47,1.92 66.4,-66.4 66.1,-168.05 -0.68,-232.04 -39.42,-37.77 -123.02,-47.31 -190.12,-21.67 -34.53,13.19 -51.37,14.62 -73.38,6.26 -15.71,-5.98 -58.93,-15.16 -96.04,-20.42 -37.11,-5.25 -71.66,-13.74 -76.78,-18.86 -15.56,-15.56 27.14,-111.49 127.58,-286.59 52.21,-91.01 104.57,-182.6 116.37,-203.53 47.34,-84.04 -18.92,-52.89 -95.02,44.63 -26.8,34.36 -80.69,121.39 -119.77,193.42 -63.37,116.8 -71.41,138.06 -74.4,196.72 -1.84,36.18 -6.32,68.75 -9.95,72.39 -16.53,16.54 -35.95,-37.69 -36.31,-101.35 -0.26,-48.47 -9.86,-95.7 -33.6,-165.47l-33.25 -97.63 -186.39 -83.35c-276.23,-123.52 -483.66,-237.47 -759.89,-417.42 -170.83,-111.29 -182.87,-115.84 -264.9,-100.43 -36.93,6.94 -72.16,17.63 -78.27,23.74 -14.29,14.28 22.59,49.28 124.94,118.61 202.98,137.47 497.03,372.61 606.6,485.08 101.61,104.27 120.74,129.99 171.91,231.09 71.84,141.92 96.69,214.45 118.5,345.79 13.85,83.42 14.67,106.48 4.2,119.1 -21.7,26.14 -171.71,48.35 -185.99,40.97 13.18,-59.13 42.41,-119.55 45.95,-126.92 19.91,-41.53 36.2,-84.72 36.2,-95.94 0,-45.5 -167.98,-261 -300.91,-386.04 -201.01,-189.06 -279.28,-274.77 -309.77,-339.25 -16.77,-35.45 -30.51,-69.64 -30.51,-75.97 -0.03,-28.39 -73.57,-98.52 -194.55,-185.52 -103.09,-74.13 -131.23,-99.5 -131.23,-118.3 0,-49.88 143.25,-89.96 225.03,-62.98 38.15,12.59 131.11,65.89 250.7,143.72 228.52,148.74 440.2,260.99 726.48,385.24 69.66,30.24 137.4,66.89 150.54,81.44 13.13,14.55 29.7,49.6 36.8,77.88 13.49,53.61 22.3,69.55 28.78,52 12.49,-33.78 177.47,-285.88 208.97,-319.28 36.84,-39.08 109.8,-78.71 172.2,-93.53 17.06,-4.04 54.29,-29.96 82.74,-57.56 77.09,-74.84 117.54,-91.65 252.57,-104.9 96.57,-9.47 136.4,-8.61 231.92,4.99 301.2,42.91 590.03,72.81 818.59,84.79 73.94,3.87 150.44,8.23 169.99,9.7 19.55,1.47 56.12,-4.35 81.27,-12.92 54.35,-18.52 88.14,-37.44 249.23,-139.56 42.63,-27.02 84.73,-49.03 93.59,-48.89 29.37,0.41 102.15,39.06 113.51,60.26 6.14,11.48 11.13,38.65 11.08,60.35 -0.06,30.73 -30.15,223.17 -48.86,318.86 -26.25,134.45 -27.25,121.9 -37.35,264.38 -17.3,243.79 -4.57,465.1 35.94,624.56 42.99,169.25 56.82,203.33 205.85,507.07 119.47,243.46 155.92,325.86 187.63,424.02 50.24,155.43 91.25,391.6 91.25,525.42 0,62.87 4.66,80.58 37.03,140.51 7,12.94 9.95,17.96 13.44,32.52 7.08,29.37 8.73,62.03 -18.68,73.96l-0.03 0.02c-9.14,3.16 -22.92,9.88 -35.71,17.7 -34.13,20.8 -156.17,76.07 -396.12,111.52 -113.24,16.72 -22.48,-96.04 -164.95,-78.43 -957.99,118.36 -2665.61,377.19 -2889.19,386.86 -935.9,40.41 -2029.59,139.86 -2945.25,-94.32 -267.8,-68.51 -397.86,-115.43 -432.57,-156.08 -25.72,-30.09 18.49,-62.18 60.2,-112.34 -7.8,9.82 -12.48,17.69 -12.48,22.2 0,17.63 42.02,51.54 99.48,80.29 84.13,42.09 727.03,241.75 801.6,180.05 40.78,-33.73 52.93,-72.81 61.61,-198.1 12.7,-183.29 17.43,-211.65 40.71,-244.37 5.45,-7.65 10.4,-14.22 13.36,-19.76 166.66,28.71 374.34,-42.81 509.32,-100.15 3.24,5.62 6.99,11.39 11.06,17.02 16.31,22.55 40.12,55.69 52.92,73.64 16.93,23.77 23.28,47.24 23.28,86.21 0,42.23 4.92,58.13 23.27,75.18 48.72,45.31 145.14,51.99 209.34,14.5 103.73,-60.58 101.33,-188.25 -4.15,-221.22 -52.81,-16.51 -83.62,-59.6 -83.65,-117 -0.03,-46.57 -13.34,-64.43 -55.97,-65.32 23.2,-8.3 44.91,-19.91 67.83,-29.6 27.63,-11.67 37.66,-22.88 59.32,-34.56 13.33,-7.18 43.64,-1.17 84.1,-8.79zm-412.76 165.19c7.79,-2.09 15.18,-4.37 22.16,-6.8 -5.22,5.79 -8.73,10.44 -9.8,13.19 -2.14,5.57 2.6,19.54 11.27,35.19l-23.63 -41.57zm232.07 250.37c-8.93,-23.28 37.48,-64.67 72.51,-64.67 18.39,0 25.28,5.65 25.28,20.68 0,48.01 -82.08,84.93 -97.79,43.99zm3960.15 -949.25c229.28,-59.72 380.63,-271.31 364.79,-510 -2.89,-43.53 -13.81,-104.75 -24.29,-136.03 -42.68,-127.59 -160.78,-249.99 -290.26,-300.82 -88.26,-34.65 -228.21,-39.22 -322.64,-10.55 -300.69,91.34 -440.16,430.11 -295.03,716.71 49.56,97.87 169.71,196.89 287.79,237.18 66.79,22.8 199.19,24.47 279.63,3.51zm-987.37 -1494.07c0,-108.92 -54.52,-160.3 -170.12,-160.3 -63.88,0 -77.5,3.57 -110.71,28.97 -48.57,37.15 -74.41,99.41 -64.9,156.35 12.37,73.96 87.22,140.54 160.75,140.23 103.08,-0.42 184.97,-48.82 184.97,-165.24zm-186.08 75.34c-59.06,-21.2 -80.08,-88.75 -39.41,-126.65 57.45,-53.52 143.19,-7.08 132.94,72 -4.45,34.32 -59.88,66.71 -93.52,54.65l-0.01 0zm1587.49 -490.16c64.16,-17.62 147.72,-61.59 152.57,-80.25 6.66,-25.66 -2.33,-42.71 -22.5,-42.71 -28.2,0 -135.86,57.89 -181.78,97.76 -39.49,34.28 -40.19,35.92 -15.51,36.25 14.21,0.17 44.47,-4.79 67.22,-11.05zm-3748.94 2633.53c0,-25.69 25.41,-46.91 56.2,-46.91 22.13,0 21.98,57.62 -0.17,66.11 -35.94,13.8 -56.04,6.9 -56.04,-19.21l0.02 0zm572.61 -260.71c-5.65,-22.47 -1.47,-32.01 22.32,-50.98 37.79,-30.13 63.33,-36.45 77.63,-19.22 21.34,25.72 -29.52,97.85 -68.96,97.85 -17.45,0 -25.97,-7.59 -30.99,-27.65zm602.92 -310.2c-15.06,-15.04 -5.35,-48.97 25.01,-87.28 33.5,-42.31 60.46,-50.54 81.67,-24.97 14.82,17.84 0.77,69.24 -27.41,100.37 -16.57,18.32 -65.51,25.65 -79.27,11.87zm424.31 -521.68c-10.28,-5.98 -23.19,-22.74 -28.71,-37.24 -21.15,-55.65 20.12,-97.36 74.17,-74.97 24.82,10.28 30.09,18.57 30.09,47.4 0,21.15 -8.17,43.11 -20.69,55.63 -23.46,23.46 -28.79,24.35 -54.86,9.19zm289.77 -581.13c-6.47,-16.85 15.42,-70.25 35.69,-87.07 19.81,-16.44 60.34,9.82 60.34,39.08 0,43.89 -81.89,84.83 -96.03,48z"/>
    <path id="path1_166" class="fil3" d="M7493.93 6542.06c-4.16,-20.12 -9.33,-41.56 -15.05,-62.61 6.77,22.91 11.69,43.37 15.05,62.61z"/>
   </g>
  </g>
 </g>
</svg>
