<?xml version="1.0" encoding="UTF-8"?>
<!DOCTYPE svg PUBLIC "-//W3C//DTD SVG 1.1//EN" "http://www.w3.org/Graphics/SVG/1.1/DTD/svg11.dtd">
<!-- Creator: CorelDRAW -->
<svg xmlns="http://www.w3.org/2000/svg" xml:space="preserve" width="152.4mm" height="152.4mm" version="1.1" style="shape-rendering:geometricPrecision; text-rendering:geometricPrecision; image-rendering:optimizeQuality; fill-rule:evenodd; clip-rule:evenodd"
viewBox="0 0 15240 15240"
 xmlns:xlink="http://www.w3.org/1999/xlink"
 xmlns:xodm="http://www.corel.com/coreldraw/odm/2003">
 <defs>
  <style type="text/css">
   <![CDATA[
    .fil3 {fill:none}
    .fil2 {fill:black}
    .fil1 {fill:#962726}
    .fil0 {fill:white}
   ]]>
  </style>
 </defs>
 <g id="Capa_x0020_1">
  <metadata id="CorelCorpID_0Corel-Layer"/>
  <g id="_2981915309760">
   <g>
    <ellipse id="contour" class="fil0" cx="7620" cy="7620" rx="7200.69" ry="7200.73"/>
    <path id="contour_62" class="fil1" d="M7620.01 364.25c4007.22,0 7255.71,3248.52 7255.71,7255.75 0,4007.22 -3248.49,7255.74 -7255.71,7255.74 -4007.22,0 -7255.7,-3248.52 -7255.7,-7255.74 0,-4007.23 3248.48,-7255.75 7255.7,-7255.75zm-0.06 985.8c3462.82,0 6270.01,2807.18 6270.01,6270 0,3462.82 -2807.19,6270.01 -6270.01,6270.01 -3462.82,0 -6270,-2807.19 -6270,-6270.01 0,-3462.82 2807.18,-6270 6270,-6270z"/>
    <path class="fil1" d="M10755.63 5914.98c580.92,706.22 929.78,1610.54 929.78,2596.37 0,2258.76 -1831.08,4089.84 -4089.84,4089.84 -2258.75,0 -4089.83,-1831.08 -4089.83,-4089.84 0,-2074.78 1545.02,-3788.51 3547.26,-4053.94l144.34 -394.43c-20.87,-10.8 -40.59,-24.75 -58.57,-41.76l-865.32 -818.77c-73.8,-69.82 -97.82,-170.78 -63.37,-266.35 34.44,-95.57 117.34,-158 218.71,-164.7l3362.04 -222.12c70.83,-4.68 133.52,17.42 185.76,65.49l2402.89 2211.06c72.76,66.95 98.79,163.65 69.48,258.08 -29.31,94.43 -105.52,159.39 -203.4,173.38l-168.75 24.11 0 515.92c129.22,25.69 226.64,139.71 226.64,276.48 0,120.53 -75.66,223.39 -182.07,263.7l127.63 1742.42c-93.61,154.37 -330.66,157.31 -434.32,-6.04l100.33 -1739.01c-102.88,-42.03 -175.39,-143.08 -175.39,-261.07 0,-126.49 83.31,-233.52 198.05,-269.23l0 -503.3 -893.57 127.66c-36.81,5.26 -72.85,2.58 -106.3,-7.08l-151.08 427.55c-8.24,23.31 -18.72,45.21 -31.1,65.58zm-2358.44 2629.37c49.05,108.7 180.23,36.23 257,5.19 658.93,-266.41 1062.26,-239.33 1464.83,129.75 -328.75,-366.87 -401.44,-522.52 -761.27,-507.52 -286.46,11.93 -504.02,89.89 -770.84,176.69 -81.45,26.49 -242.62,78.73 -189.72,195.89zm-1602.22 0c-49.05,108.7 -180.23,36.23 -257,5.19 -658.93,-266.41 -1062.26,-239.33 -1464.83,129.75 328.75,-366.87 401.44,-522.52 761.27,-507.52 286.46,11.93 504.02,89.89 770.84,176.69 81.45,26.49 242.62,78.73 189.72,195.89zm-658.2 313.74c214.49,0 388.37,173.88 388.37,388.37 0,214.49 -173.88,388.37 -388.37,388.37 -214.49,0 -388.37,-173.88 -388.37,-388.37 0,-214.49 173.88,-388.37 388.37,-388.37zm2895.56 0c214.49,0 388.37,173.88 388.37,388.37 0,214.49 -173.88,388.37 -388.37,388.37 -214.49,0 -388.37,-173.88 -388.37,-388.37 0,-214.49 173.88,-388.37 388.37,-388.37zm-863.88 1798.46c-30.58,339.4 -297.03,604.74 -621.24,604.74 -324.2,0 -590.65,-265.34 -621.23,-604.74l1242.47 0zm-4147.91 -2445.6l785.78 -481.29 130.64 -1483.57 5164.86 -24.83 143.59 1329.37 930.97 741.72c4.37,72.46 6.85,145.44 6.85,219 0,1981.41 -1606.25,3587.66 -3587.66,3587.66 -1981.4,0 -3587.65,-1606.25 -3587.65,-3587.66 0,-101.19 4.41,-201.33 12.62,-300.4z"/>
    <path class="fil2" d="M7310.59 3839.63l-865.32 -818.77 3362.04 -222.12 2402.89 2211.06 -1201.45 171.64c252.76,-245.73 -336.8,-720.85 -521.35,-874 -785.77,-652.09 -1769.61,-881.68 -2931.55,-731.29 -267.33,40.26 -267.99,115.62 -245.26,263.48zm238.51 -10.45l-291.97 797.87c-9.71,26.53 -8.5,52.86 3.58,78.39 12.09,25.54 31.7,43.16 58.37,52.46 436.47,152.17 1103.52,442.37 1358.52,1072.15 556.14,-199.47 1140.84,-184.7 1748.13,-0.56 52.01,15.77 107.17,-12.14 125.28,-63.38l271.53 -768.42c-738.58,-977.75 -2000.67,-1423.22 -3273.44,-1168.51z"/>
   </g>
   <rect class="fil3" x="-0" y="-0" width="15240" height="15240"/>
  </g>
 </g>
</svg>
