<?xml version="1.0" encoding="UTF-8"?>
<!DOCTYPE svg PUBLIC "-//W3C//DTD SVG 1.1//EN" "http://www.w3.org/Graphics/SVG/1.1/DTD/svg11.dtd">
<!-- Creator: CorelDRAW -->
<svg xmlns="http://www.w3.org/2000/svg" xml:space="preserve" width="152.4mm" height="152.4mm" version="1.1" style="shape-rendering:geometricPrecision; text-rendering:geometricPrecision; image-rendering:optimizeQuality; fill-rule:evenodd; clip-rule:evenodd"
viewBox="0 0 15240 15240"
 xmlns:xlink="http://www.w3.org/1999/xlink"
 xmlns:xodm="http://www.corel.com/coreldraw/odm/2003">
 <defs>
  <style type="text/css">
   <![CDATA[
    .fil0 {fill:none}
    .fil3 {fill:#FEFEFE}
    .fil2 {fill:url(#id0)}
    .fil1 {fill:url(#id1)}
   ]]>
  </style>
  <linearGradient id="id0" gradientUnits="userSpaceOnUse" x1="7602.02" y1="339.6" x2="7621.91" y2="14875.51">
   <stop offset="0" style="stop-opacity:1; stop-color:#009999"/>
   <stop offset="1" style="stop-opacity:1; stop-color:#009999"/>
  </linearGradient>
  <linearGradient id="id1" gradientUnits="userSpaceOnUse" x1="7587.09" y1="13616.28" x2="7533.2" y2="1501.94">
   <stop offset="0" style="stop-opacity:1; stop-color:#000505"/>
   <stop offset="1" style="stop-opacity:1; stop-color:#00C7C7"/>
  </linearGradient>
 </defs>
 <g id="Capa_x0020_1">
  <metadata id="CorelCorpID_0Corel-Layer"/>
  <g id="_2981851191296">
   <rect class="fil0" x="-0" y="-0" width="15240" height="15240"/>
   <path class="fil1" d="M5302.97 620.06c602.29,-87.67 1258.56,-139.78 1925.26,-155.94l0 -2.44c130.23,-2.33 260.7,-3.31 391.1,-2.91l1.35 0c130.4,-0.4 260.88,0.57 391.1,2.91l0 2.44c666.7,16.16 1322.97,68.27 1925.26,155.94 1168.23,170.04 2034.35,454.91 2991.98,961.24 375,198.28 624.47,507.53 738.86,916.01 546.7,1952.26 593.62,4475.73 -355.27,6693.43 -1022.72,2390.25 -2931.53,4171.57 -5219.41,5347.67l-81.42 41.85 0 0.18 -19.03 9.6 -369.3 189.85 -3.43 1.43 -3.46 -1.43 -369.29 -189.85 -19.04 -9.6 0 -0.18 -81.42 -41.85c-2287.88,-1176.1 -4196.69,-2957.42 -5219.4,-5347.67 -948.9,-2217.7 -901.98,-4741.17 -355.27,-6693.43 114.39,-408.48 363.85,-717.73 738.85,-916.01 957.63,-506.33 1823.76,-791.2 2991.98,-961.24z"/>
   <path class="fil2" d="M5272.5 527.99c610.21,-88.82 1275.11,-141.62 1950.58,-157.99l0 -2.47c131.94,-2.36 264.13,-3.35 396.24,-2.95l1.37 0c132.12,-0.4 264.31,0.58 396.24,2.95l0 2.47c675.47,16.37 1340.37,69.17 1950.59,157.99 1183.59,172.28 2061.1,460.89 3031.33,973.89 379.93,200.88 632.68,514.2 748.57,928.05 553.9,1977.94 601.43,4534.6 -359.94,6781.46 -1036.17,2421.7 -2970.08,4226.45 -5288.06,5418.02l-82.49 42.4 0 0.18 -19.28 9.73 -374.16 192.34 -3.47 1.45 -3.5 -1.45 -374.16 -192.34 -19.28 -9.73 0 -0.18 -82.49 -42.4c-2317.98,-1191.57 -4251.89,-2996.32 -5288.05,-5418.02 -961.38,-2246.86 -913.85,-4803.52 -359.95,-6781.46 115.9,-413.85 368.64,-727.17 748.58,-928.05 970.22,-513 1847.74,-801.61 3031.33,-973.89zm151.33 1039.69c-1063.03,154.73 -2023.76,454.89 -2852.19,943.01 -1334,4290.73 309.12,8747.6 5049.28,11184.3 4789.49,-2416.98 6493.14,-6893.57 5159.14,-11184.3 -810,-477.25 -1746.44,-774.83 -2781.36,-932.47 -1360.59,-207.25 -3211.6,-208.97 -4574.87,-10.54z"/>
   <path class="fil3" d="M10985.14 3844.99c13.53,39.73 -170.61,97.78 -270.35,308.97 -163.88,347.06 -167.34,960.76 -167.34,978.4l0 1892.44c0,1369.2 38.6,1260.93 38.6,1866.69 0,213.93 31.35,590.22 90.13,746.68 15.35,40.89 131.05,226.44 167.36,257.47 167.62,143.31 247.53,113.82 218.85,193.11 -18.68,51.66 -54.83,12.88 -823.91,12.88 -688.22,0 -814.98,28.28 -832.5,-4.29 -39.38,-73.17 175.34,-101.72 334.71,-360.48 109.46,-177.72 111.98,-373.6 124.59,-570.73l3.67 -347.6 14.87 -1411.79c0,-1614.42 -40.14,-1871.27 -40.14,-1995.45 0,-390.42 -9.56,-756.46 -64.37,-952.66 -7.97,-28.54 -40.5,-230.92 -154.48,-360.46 -139.17,-158.15 -266.89,-226.28 -214.57,-274.64 31.3,-28.93 84.3,38.62 798.17,38.62 112.44,0 256.65,2.77 407.67,-17.16 365.88,-48.29 362.71,-18.64 369.04,0zm-2845.09 926.91c-178.83,30.93 66.36,-368.12 -308.97,-514.95 -167.01,-65.33 -62.54,-51.5 -759.55,-51.5 -552.79,0 -732.69,-43.12 -772.42,12.88 -19.62,27.62 -64.37,752.77 -64.37,759.55 0,342.25 -27.17,778.33 -27.17,785.31l31.42 2021.1c0,364.13 38.88,1280.12 47.25,1364.68 29.15,294.71 18.68,573.77 291.79,776.71 159.05,118.1 197.9,114.53 184.53,163.07 -13.82,50.21 -111.49,12.88 -836.8,12.88 -849.13,0 -819.94,32.94 -845.37,-4.29 -53.33,-78.12 84.29,-73.54 257.48,-270.35 134.26,-152.59 175.7,-278.56 180.36,-466.11 9.01,-362.16 25.61,-1377.42 25.61,-1477.83 0,-1611.95 -4.22,-1496.9 8.59,-1626.38 21.81,-220.48 -8.59,-890.78 -8.59,-1038.48 0,-180.21 7.94,-975.43 -42.9,-1012.74 -27.7,-20.31 -838.22,6.38 -965.53,25.75 -101.56,15.46 -394.45,5.64 -836.8,180.24 -25.34,10 -151.6,86.39 -296.1,205.97 -33.67,27.87 -254.18,243.04 -317.55,150.19 -47.79,-70.03 206.57,-376.09 278.94,-506.36 209.66,-377.47 235.85,-522.3 244.6,-527.82 68.7,-43.37 164.59,50.05 257.47,77.24 324.36,94.94 1928.21,64.37 2252.9,64.37 316.37,0 1778.31,1.36 2124.17,-90.12 126.84,-33.54 316.82,-113.42 356.18,-77.24 18.03,16.57 -3.57,85.78 -137.32,369.05 -52,110.07 -165.69,344.59 -167.36,347.58 -98.97,177.09 -99.52,338.08 -154.49,347.6z"/>
  </g>
 </g>
</svg>
