<?xml version="1.0" encoding="UTF-8"?>
<!DOCTYPE svg PUBLIC "-//W3C//DTD SVG 1.1//EN" "http://www.w3.org/Graphics/SVG/1.1/DTD/svg11.dtd">
<!-- Creator: CorelDRAW -->
<svg xmlns="http://www.w3.org/2000/svg" xml:space="preserve" width="152.4mm" height="152.4mm" version="1.1" style="shape-rendering:geometricPrecision; text-rendering:geometricPrecision; image-rendering:optimizeQuality; fill-rule:evenodd; clip-rule:evenodd"
viewBox="0 0 15240 15240"
 xmlns:xlink="http://www.w3.org/1999/xlink"
 xmlns:xodm="http://www.corel.com/coreldraw/odm/2003">
 <defs>
  <style type="text/css">
   <![CDATA[
    .fil0 {fill:none}
    .fil3 {fill:#FEFEFE}
    .fil1 {fill:url(#id0)}
    .fil2 {fill:url(#id1)}
   ]]>
  </style>
  <linearGradient id="id0" gradientUnits="userSpaceOnUse" x1="7602.13" y1="339.36" x2="7620.01" y2="14875.74">
   <stop offset="0" style="stop-opacity:1; stop-color:#009999"/>
   <stop offset="1" style="stop-opacity:1; stop-color:#009999"/>
  </linearGradient>
  <linearGradient id="id1" gradientUnits="userSpaceOnUse" x1="7266.93" y1="14362.32" x2="7619.95" y2="868.72">
   <stop offset="0" style="stop-opacity:1; stop-color:#000505"/>
   <stop offset="1" style="stop-opacity:1; stop-color:#00C7C7"/>
  </linearGradient>
 </defs>
 <g id="Capa_x0020_1">
  <metadata id="CorelCorpID_0Corel-Layer"/>
  <g id="_1788836064880">
   <rect class="fil0" x="-0" y="-0" width="15240" height="15240"/>
   <path id="contour" class="fil1" d="M7620.01 364.25c4007.22,0 7255.71,3248.52 7255.71,7255.75 0,4007.22 -3248.49,7255.74 -7255.71,7255.74 -4007.22,0 -7255.7,-3248.52 -7255.7,-7255.74 0,-4007.23 3248.48,-7255.75 7255.7,-7255.75z"/>
   <path id="contour_50" class="fil2" d="M7619.95 868.72c3728.65,0 6751.34,3022.68 6751.34,6751.33 0,3728.65 -3022.69,6751.34 -6751.34,6751.34 -3728.65,0 -6751.33,-3022.69 -6751.33,-6751.34 0,-3728.65 3022.68,-6751.33 6751.33,-6751.33z"/>
   <path class="fil3" d="M12063 3918.41c16.52,48.54 -208.45,119.46 -330.3,377.49 -200.23,424.02 -204.45,1173.8 -204.45,1195.36l0 2312.09c0,1672.82 47.16,1540.54 47.16,2280.63 0,261.37 38.3,721.1 110.11,912.25 18.76,49.96 160.11,276.66 204.47,314.57 204.79,175.08 302.42,139.06 267.39,235.93 -22.83,63.11 -67,15.73 -1006.62,15.73 -840.83,0 -995.7,34.56 -1017.11,-5.24 -48.11,-89.39 214.23,-124.27 408.94,-440.41 133.73,-217.13 136.81,-456.45 152.22,-697.29l4.48 -424.68 18.17 -1724.86c0,-1972.42 -49.05,-2286.22 -49.05,-2437.94 0,-476.99 -11.67,-924.21 -78.64,-1163.91 -9.74,-34.87 -49.48,-282.13 -188.74,-440.39 -170.02,-193.22 -326.07,-276.46 -262.15,-335.55 38.25,-35.34 103,47.19 975.17,47.19 137.37,0 313.56,3.38 498.07,-20.97 447.01,-58.99 443.14,-22.77 450.88,0zm-3475.99 1132.45c-218.49,37.8 81.07,-449.75 -377.49,-629.14 -204.04,-79.81 -76.41,-62.91 -927.98,-62.91 -675.37,0 -895.16,-52.69 -943.7,15.73 -23.97,33.75 -78.65,919.7 -78.65,927.98 0,418.14 -33.19,950.93 -33.19,959.46l38.38 2469.27c0,444.88 47.51,1563.99 57.73,1667.3 35.62,360.06 22.82,701 356.5,948.95 194.32,144.29 241.78,139.93 225.44,199.23 -16.88,61.34 -136.21,15.73 -1022.35,15.73 -1037.43,0 -1001.77,40.25 -1032.83,-5.24 -65.16,-95.44 102.98,-89.85 314.57,-330.3 164.03,-186.42 214.66,-340.33 220.35,-569.47 11.01,-442.46 31.3,-1682.86 31.3,-1805.54 0,-1969.4 -5.16,-1828.84 10.49,-1987.03 26.64,-269.37 -10.49,-1088.31 -10.49,-1268.76 0,-220.17 9.7,-1191.73 -52.42,-1237.31 -33.84,-24.82 -1024.1,7.79 -1179.64,31.46 -124.07,18.88 -481.92,6.89 -1022.36,220.2 -30.96,12.22 -185.21,105.55 -361.75,251.65 -41.14,34.05 -310.55,296.93 -387.97,183.49 -58.39,-85.56 252.38,-459.48 340.79,-618.64 256.15,-461.18 288.15,-638.12 298.84,-644.87 83.94,-52.98 201.09,61.15 314.57,94.37 396.28,115.99 2355.79,78.64 2752.48,78.64 386.52,0 2172.65,1.67 2595.2,-110.1 154.97,-40.98 387.08,-138.57 435.16,-94.37 22.04,20.25 -4.35,104.8 -167.76,450.89 -63.53,134.48 -202.44,421 -204.48,424.66 -120.91,216.36 -121.58,413.05 -188.74,424.67z"/>
  </g>
 </g>
</svg>
