<?xml version="1.0" encoding="UTF-8"?>
<!DOCTYPE svg PUBLIC "-//W3C//DTD SVG 1.1//EN" "http://www.w3.org/Graphics/SVG/1.1/DTD/svg11.dtd">
<!-- Creator: CorelDRAW -->
<svg xmlns="http://www.w3.org/2000/svg" xml:space="preserve" width="152.4mm" height="152.4mm" version="1.1" style="shape-rendering:geometricPrecision; text-rendering:geometricPrecision; image-rendering:optimizeQuality; fill-rule:evenodd; clip-rule:evenodd"
viewBox="0 0 15240 15240"
 xmlns:xlink="http://www.w3.org/1999/xlink"
 xmlns:xodm="http://www.corel.com/coreldraw/odm/2003">
 <defs>
  <style type="text/css">
   <![CDATA[
    .fil0 {fill:none}
    .fil1 {fill:black}
    .fil3 {fill:#CDCCCC}
    .fil2 {fill:#EC1B31}
    .fil5 {fill:white}
    .fil4 {fill:white;fill-rule:nonzero}
   ]]>
  </style>
 </defs>
 <g id="Capa_x0020_1">
  <metadata id="CorelCorpID_0Corel-Layer"/>
  <g id="_1591026146288">
   <rect class="fil0" x="-0" y="-0" width="15240" height="15240"/>
   <path class="fil1" d="M5302.97 620.06c602.29,-87.67 1258.56,-139.78 1925.26,-155.94l0 -2.44c130.23,-2.33 260.7,-3.31 391.1,-2.91l1.35 0c130.4,-0.4 260.88,0.57 391.1,2.91l0 2.44c666.7,16.16 1322.97,68.27 1925.26,155.94 1168.23,170.04 2034.35,454.91 2991.98,961.24 375,198.28 624.47,507.53 738.86,916.01 546.7,1952.26 593.62,4475.73 -355.27,6693.43 -1022.72,2390.25 -2931.53,4171.57 -5219.41,5347.67l-81.42 41.85 0 0.18 -19.03 9.6 -369.3 189.85 -3.43 1.43 -3.46 -1.43 -369.29 -189.85 -19.04 -9.6 0 -0.18 -81.42 -41.85c-2287.88,-1176.1 -4196.69,-2957.42 -5219.4,-5347.67 -948.9,-2217.7 -901.98,-4741.17 -355.27,-6693.43 114.39,-408.48 363.85,-717.73 738.85,-916.01 957.63,-506.33 1823.76,-791.2 2991.98,-961.24z"/>
   <path class="fil2" d="M13313.17 9189.41l-0.56 1.33c-1022.72,2390.25 -2931.53,4171.57 -5219.41,5347.67l-81.42 41.85 0 0.18 -19.03 9.6 -369.3 189.85 -3.43 1.43 -3.46 -1.43 -369.29 -189.85 -19.04 -9.6 0 -0.18 -81.42 -41.85c-2287.88,-1176.1 -4196.69,-2957.42 -5219.4,-5347.67l-0.56 -1.33 11386.32 0z"/>
   <path class="fil3" d="M5272.5 527.99c610.21,-88.82 1275.11,-141.62 1950.58,-157.99l0 -2.47c131.94,-2.36 264.13,-3.35 396.24,-2.95l1.37 0c132.12,-0.4 264.31,0.58 396.24,2.95l0 2.47c675.47,16.37 1340.37,69.17 1950.59,157.99 1183.59,172.28 2061.1,460.89 3031.33,973.89 379.93,200.88 632.68,514.2 748.57,928.05 553.9,1977.94 601.43,4534.6 -359.94,6781.46 -1036.17,2421.7 -2970.08,4226.45 -5288.06,5418.02l-82.49 42.4 0 0.18 -19.28 9.73 -374.16 192.34 -3.47 1.45 -3.5 -1.45 -374.16 -192.34 -19.28 -9.73 0 -0.18 -82.49 -42.4c-2317.98,-1191.57 -4251.89,-2996.32 -5288.05,-5418.02 -961.38,-2246.86 -913.85,-4803.52 -359.95,-6781.46 115.9,-413.85 368.64,-727.17 748.58,-928.05 970.22,-513 1847.74,-801.61 3031.33,-973.89zm151.33 1039.69c-1063.03,154.73 -2023.76,454.89 -2852.19,943.01 -1334,4290.73 309.12,8747.6 5049.28,11184.3 4789.49,-2416.98 6493.14,-6893.57 5159.14,-11184.3 -810,-477.25 -1746.44,-774.83 -2781.36,-932.47 -1360.59,-207.25 -3211.6,-208.97 -4574.87,-10.54z"/>
   <path class="fil4" d="M7549.54 7644.77c0.18,18.91 -1.32,38.27 3.57,56.71 4.09,13.5 25.51,9.01 24.5,-5.27 1.95,-35.79 7.54,-75.18 -10.36,-107.9 -17.9,12.32 -16.9,36.7 -17.71,56.46zm-8.98 -139.72c27.95,-12.78 59.79,0.65 80.83,20.99 29.21,28.36 40.2,71.2 41.84,111.49 2,43.69 -0.63,91.79 -28.21,127.27 -33.47,43.35 -104.58,44.45 -139,1.82 -32.78,-40.69 -33.22,-97.99 -28.39,-148.06 4.91,-46.56 27.76,-97.01 72.93,-113.51zm-2072.4 -306.35c-61.12,12.12 -94.78,78.56 -94.91,138.8 -0.12,432.57 0.07,865.21 -0.12,1297.78 -0.57,34.49 -0.94,70.22 12.19,102.63 12.18,34.62 39.31,64.02 73.99,73.93 44.59,13.42 97.79,8.47 133.71,-24.39 31.91,-29.86 43.59,-76.14 44.35,-119.31 -0.26,-423.91 0,-847.74 -0.13,-1271.64 -0.19,-34.61 2.45,-69.95 -6.77,-103.66 -7.61,-31.37 -25.01,-61.02 -51.76,-78.3 -32.54,-21.71 -73.61,-22.75 -110.55,-15.84zm-13.57 -87.04c63.19,-13.11 133.22,-2.29 184.85,39.64 54.27,43.69 81.47,116.24 82.22,186.27 -0.06,445.67 -0.19,891.35 0.06,1337.09 -0.43,65.59 -24.12,133.06 -71.48,177.85 -70.72,65.33 -183.59,71.46 -263.54,21 -62.82,-40.49 -95.53,-117.61 -98.17,-192.46 -0.07,-449.59 0.12,-899.18 -0.07,-1348.77 2.57,-58.42 21.61,-117.74 60.86,-160.64 27.76,-31.03 65.51,-51.37 105.27,-59.98zm497.51 87.04c-61.29,12.12 -94.96,78.95 -94.9,139.32 -0.25,432.51 0.07,865.02 -0.12,1297.53 -0.5,34.35 -0.88,69.95 12.12,102.22 11.62,32.66 36.18,61.02 68.46,72.11 44.66,15.65 98.48,11.8 136.17,-19.56 32.6,-28.09 46.17,-73.47 47.3,-116.18 0.19,-236.66 -0.39,-473.26 -0.25,-709.85 0.55,-80.58 -2.2,-161.68 10.86,-241.43 7.04,-39.95 14.89,-82.26 40.2,-114.61 19.91,-26.4 59.42,-37.68 87.37,-18.32 26.06,18.59 38.62,50.73 47.73,80.98 23.93,86.64 24.43,177.66 24.94,267.1 -0.13,239.08 0.07,478.15 -0.38,717.29 -0.31,41.4 5.71,85.34 30.28,119.38 33.35,48.24 102.75,55.34 151.24,29.33 43.4,-25.49 60.29,-80.06 61.74,-129.02 0.26,-271.68 -0.32,-543.41 0.31,-815.08 1.14,-65.13 5.28,-130.97 22.17,-193.89 9.17,-33.05 25.14,-68.72 57.23,-83.32 23.24,-11.47 52.51,-5.93 70.22,13.43 25.88,28.36 36.3,67.41 44.4,104.51 20.61,103.79 17.02,210.38 17.46,315.68 0.13,219.51 -0.18,439.02 0.13,658.53 0.82,50.47 21.67,105.89 67.39,129.48 46.99,22.31 107.42,20.09 148.8,-13.81 32.72,-28.1 46.16,-73.67 47.67,-116.38 0.06,-351.92 0,-703.85 0,-1055.78 -0.37,-59.65 3.33,-120.22 -10.61,-178.63 -19.85,-82.34 -60.23,-163.9 -128.32,-213.91 -39.19,-29.4 -91.33,-36.64 -136.99,-20.73 -75.44,25.42 -134.6,84.94 -182.84,148.06 -14.45,20.73 -47.1,22.03 -63.25,2.8 -21.6,-25.95 -27.13,-61.54 -46.54,-88.99 -28.7,-46.16 -83.92,-74.53 -136.73,-62.46 -59.17,13.95 -109.17,52.09 -157.53,88.27 -23.49,16.63 -59.17,32.47 -83.1,8.09 -17.52,-23.92 -23.8,-55.74 -46.1,-76.35 -26.81,-30.38 -69.84,-34.42 -106.53,-25.81zm1593.61 -16.63c-77.26,13.95 -141.08,68.72 -188.18,131.31 -61.68,83.12 -100.62,181.7 -129.96,281.38 -37.36,128.1 -55.39,261.96 -56.71,395.74 -0.88,153.15 17.34,307.19 60.54,453.89 36.31,106.8 89.07,210.45 167.71,290.32 54.33,55.81 130.77,93.16 208.46,82.47 93.59,-6.39 178.38,-66.5 227.18,-148.12 26.51,-45.32 50.13,-97.08 46.67,-151.32 -2.64,-46.42 -37.55,-95.65 -85.48,-95.06 -46.1,1.5 -70.66,47.79 -108.84,67.29 -41.97,29.2 -99.31,30.11 -141.64,1.36 -44.72,-29.54 -66.15,-84.42 -73.37,-136.91 -8.35,-62 -7.34,-126.74 11.18,-186.65 12.94,-39.84 39.95,-81.7 82.85,-88.87 73.86,-12.97 149.23,-7.3 223.79,-11.86 46.17,-2.09 85.86,-36.38 104.71,-78.82 33.04,-72.17 32.08,-154.78 24.49,-232.56 -9.05,-105.68 -28.39,-210.97 -63.12,-310.98 -27.14,-75.24 -63.76,-149.88 -122.92,-203.48 -50.56,-46.09 -120.59,-69.17 -187.36,-59.13zm-219.52 33.71c65.95,-72.5 157.91,-127.72 256.45,-123.35 74.3,0 147.98,28.75 203.76,79.79 78.5,71.01 125.74,171.14 158.52,272.01 38.81,123.41 58.55,252.95 63.25,382.49 0.75,88.02 -14.38,182.29 -69.78,252.05 -35.93,45.71 -90.89,73.62 -147.47,76.61 -69.6,2.41 -139.94,-1.43 -208.84,10.49 -18.22,14.02 -21.49,40.37 -26.2,62.01 -6.47,51.69 -6.53,106.4 12.5,155.49 8.1,21.77 26.82,41.98 50.69,41.79 29.39,-8.81 51.88,-31.68 74.68,-51.71 37.8,-33.7 91.38,-48.62 139.94,-35.19 50.18,13.48 92.02,53 114.13,101.11 22.22,49.75 23.86,107.77 9.23,160.05 -24.31,89.06 -76.76,169.64 -146.85,226.83 -80.52,65.51 -188.37,93.16 -289.05,74.71 -94.91,-19.04 -174.24,-85.02 -232.96,-162.14 -71.55,-95.13 -123.55,-205.9 -152.94,-322.6 -0.56,86.12 -0.06,172.32 0,258.44 -0.95,65.79 -24.25,133.6 -72.11,178.31 -70.85,64.94 -183.47,70.87 -263.3,20.41 -64.69,-41.8 -96.97,-122.18 -98.35,-199.05 0.12,-236.72 0,-473.51 0.06,-710.24 -0.19,-84.95 0.06,-170.68 -16.59,-254.26 -1.25,-7.37 -4.46,-13.88 -7.28,-20.54 -20.61,85.54 -17.08,174.34 -17.84,261.77 0.06,241.28 -0.06,482.64 0.06,723.93 -1.63,60.18 -19.21,122.17 -58.91,167.36 -73.61,85.54 -218.51,86.12 -293.38,2.01 -40.57,-45.5 -59.54,-108.42 -60.3,-169.64 0.19,-249.82 0.57,-499.72 0.32,-749.62 -0.45,-70.14 -3.27,-140.62 -16.09,-209.6 -0.87,-7.89 -3.38,-15.18 -8.79,-20.8 -12.62,56.27 -15.58,114.24 -17.21,171.8 -0.81,271.66 0.32,543.4 -0.12,815.08 -1.7,62.12 -24.62,125.17 -68.53,168.39 -62.3,60.38 -159.29,71.33 -236.85,39.26 -60.68,-25.17 -104.33,-84.37 -119.09,-149.57 -12.49,-46.67 -7.91,-95.44 -8.54,-143.3 -0.38,-419.4 0,-838.87 -0.25,-1258.28 1.57,-51.11 14.95,-102.94 43.96,-144.73 59.93,-89.51 192.89,-115.46 278.81,-51.96 24.56,17.67 43.28,42.44 58.86,68.65 64.94,-49.35 139.12,-96.42 222.28,-96.55 82.47,0.84 155.89,57.82 193.08,132.09 60.6,-66.84 138.49,-123.16 228.05,-135.09 74.43,-11.08 149.37,23.01 202.07,76.41 81.46,81.75 127.44,197.74 134.6,314.24 3.2,35.14 -1.13,70.48 2.01,105.55 38.44,-140.89 92.51,-282.56 190.31,-390.91zm1319.81 -149.37c-12.37,12.85 -14.51,33 -20.72,49.49 -26.57,90.75 -36.81,185.54 -45.35,279.62 -12.82,171.6 -12.88,344.04 -6.79,515.9 7.92,127.59 16.83,257.45 56.85,379.3 6.21,13.12 8.35,36.77 27.07,34.3 16.21,-12.58 18.08,-36.12 25.55,-54.44 35.43,-122.7 43.97,-251.46 50.89,-378.73 5.14,-163.76 4.71,-327.99 -7.3,-491.51 -9.66,-105.74 -20.6,-212.92 -55.14,-313.59 -3.2,-11.34 -11.12,-27.96 -25.06,-20.34zm-18.28 -89.06c47.86,-13.49 102.19,15.07 119.47,63.38 36.43,95.77 49.99,198.78 60.8,300.55 17.65,180.79 18.34,362.88 13.13,544.39 -7.36,136.78 -16.21,275.25 -53.89,407.33 -11.31,35.28 -21.23,74.72 -50.57,98.97 -40.13,35.6 -106.59,29.33 -140.13,-12.98 -25.06,-32.98 -34.42,-75.36 -45.73,-114.93 -33.97,-138.34 -42.64,-281.78 -47.35,-423.97 -3.89,-184.57 -1.64,-369.79 20.28,-553.25 9.05,-73.34 21.86,-146.63 44.16,-216.97 10.55,-41.66 37.12,-82.48 79.83,-92.52zm716.03 220.76c-62.81,10.82 -97.98,78.49 -97.98,140.04 -0.57,365.1 0,730.19 -0.26,1095.3 -0.12,82.85 8.43,166.96 35.75,245.32 17.14,48.12 43.96,96.62 88.74,121.91 39.07,22.04 86.12,17.93 128.32,9.79 60.74,-13.44 109.73,-57.43 148.87,-105.3 12.74,-17.15 36.93,-26.47 55.77,-13.95 24.93,14.41 22.61,48.51 38.06,70.54 36.12,62.14 122.48,71.65 180.07,38.41 45.22,-28.37 61.49,-86.58 61.06,-138.48 0.06,-439.03 -0.51,-878.12 -0.07,-1317.09 -1.51,-42.7 -12.31,-88.46 -43.9,-118.13 -32.48,-32.08 -81.34,-35.86 -123.42,-28.23 -36.75,7.17 -68.15,34.95 -82.41,70.54 -16.57,38.08 -15.95,80.78 -15.26,121.66 -0.19,302.24 0.5,604.49 -0.5,906.67 0.5,38.6 -15.07,77.85 -43.98,102.62 -24.36,20.21 -58.85,28.56 -88.42,16.24 -41.96,-15.71 -68.41,-61.22 -71.48,-106.08 -6.28,-326.04 -1.52,-652.28 -3.58,-978.46 -2.01,-44 -19.41,-90.36 -55.65,-115.79 -31.97,-21.9 -72.92,-24.64 -109.73,-17.53zm961.49 -552.08c-39.38,8.8 -71.74,40.62 -84.11,80.12 -14.5,39.12 -10.61,81.5 -10.92,122.51 -0.26,87.1 0.55,174.14 -0.57,261.24 -0.63,23.66 3.02,47.79 -1.69,71.19 -6.66,24.39 -32.79,28.69 -51.58,38.8 -86.17,42.37 -86.29,194.41 0.95,235.74 13.19,7.5 29.58,11.54 38.19,25.56 14.95,23.14 15.08,52.09 15.01,78.95 -0.25,271.54 -0.06,543.08 -0.13,814.62 4.85,78.5 18.22,156.99 46.04,230.4 25.51,66.83 65.13,131.05 124.68,170.16 54.27,36.38 121.85,46.36 185.1,37.36 38.88,-6.13 79.89,-22.1 102.7,-57.38 23.1,-36.38 17.71,-82.59 11.48,-123.35 -5.02,-29.26 -19.78,-63.82 -51.75,-67.92 -54.71,-12.46 -100.43,-54.18 -124.42,-106.01 -27.19,-55.81 -31.15,-119.83 -29.97,-181.31 0.26,-240.9 -0.49,-481.86 0.32,-722.76 1.32,-33.19 14.89,-78.96 53.26,-80.58 33.73,-0.59 67.84,-13.82 90.64,-40.3 35.1,-41.07 39.82,-103.2 22.23,-153.34 -16.45,-44.85 -61.36,-71.26 -105.58,-76.67 -15.58,-3.19 -33.8,-1.37 -46.24,-13.3 -11.61,-9.65 -15.57,-25.42 -14.75,-40.22 0.32,-119.7 -0.06,-239.47 0.25,-359.23 -0.69,-44.59 -14.57,-92.77 -49.3,-121.53 -33.42,-27.51 -79.4,-31.61 -119.84,-22.75zm-1702.77 -59.46c-70.41,13.04 -132.59,55.87 -180.95,109.34 -63.25,70.21 -106.34,157.32 -137.99,247.03 -51.25,147.92 -74.19,304.53 -87.49,460.54 -13.76,177.98 -14.58,357 -4.72,535.25 9.99,151.19 28.2,302.84 69.53,448.55 31.1,107.51 75.06,213.38 145.78,299.44 50.25,61.22 116.9,111.43 193.84,127.85 62.99,13.62 129.83,0.45 185.41,-32.53 87.36,-50.39 149.99,-136.39 194.77,-227.34 52.13,-107.51 82.22,-224.86 102.95,-342.8 32.4,-191.55 39.44,-386.54 36.43,-580.63 -1.95,-152.75 -13.32,-305.57 -39.33,-456.04 -21.42,-116.7 -51.82,-232.95 -104.58,-338.89 -44.08,-87.63 -105.45,-170.09 -190.24,-218.34 -55.28,-32.73 -121.04,-41.59 -183.41,-31.43zm-152.25 -29.6c60.94,-40.8 133.16,-64.87 206.02,-62.07 100.87,-0.38 197.23,49.1 268.51,121.27 87.24,86.91 143.64,201.59 182.77,319.01 33.11,100.6 55.28,204.9 68.91,310.19 17.96,-39.44 41.38,-77.64 77.37,-101.89 55.97,-38.99 129.14,-46.03 193.15,-26.87 51.76,15.26 95.78,54.38 119.9,104.19 23.8,48.11 30.02,103.26 27.58,156.73 0.62,286.08 -1.58,572.1 1.44,858.11 2.07,34.09 -2.64,71.39 15.64,101.76 21.92,-13.63 18.9,-44 20.66,-66.89 1.89,-293.44 0.37,-586.89 0.88,-880.27 -1.13,-46.48 -1.32,-94.15 14.51,-138.41 18.65,-56.84 59.99,-106.4 114.44,-128.43 57.03,-23.35 123.29,-22.89 179.82,1.95 41.58,18.06 75.18,52.74 95.97,94.02 20.23,-36.25 51.82,-63.96 87.62,-82.68 -1,-113.11 0.56,-226.35 -0.31,-339.53 -0.69,-67.29 20.34,-137.37 67.77,-184.97 67.89,-67.07 178.82,-75.56 259.71,-29.92 51.26,29.4 86.13,84.1 98.81,142.78 9.3,36.19 6.96,73.86 7.03,110.96 -0.07,93.75 0,187.51 -0.07,281.32 63.5,13.76 125.56,51.64 154.39,114.16 38.38,83.84 28.45,193.76 -33.91,262.61 -31.53,35.27 -75.19,56.85 -120.41,65.32 -0.07,226.17 0,452.26 0,678.37 0.38,57.56 -4.14,117.61 17.4,172.05 12.37,32.01 37.24,62.45 71.6,68.32 38.82,6.52 72.93,32.86 92.14,68.26 25.32,46.48 31.59,101.32 30.53,153.93 -0.88,54.7 -24.82,108.81 -65.45,143.89 -42.02,36.96 -97.04,53.97 -151.18,58.54 -108.47,9.26 -220.84,-34.75 -293.57,-119.44 -76.44,-86.98 -110.98,-204.12 -126.13,-318.6 -13.57,-92.39 -6.59,-185.88 -8.35,-278.92 0.13,-215.66 -0.95,-431.27 0.56,-646.93 -21.78,-12.07 -41.82,-26.99 -59.91,-44.34 0.44,378.08 0.07,756.21 0.19,1134.28 4.27,70.93 -6.98,147.08 -52.46,202.89 -86.36,109.85 -277.79,98.12 -346.45,-26.53 -46.73,49.67 -107.21,87.62 -174.61,95.57 -65.76,11.34 -137.8,2.35 -191.44,-41.52 -76.18,-61.09 -110.16,-160.91 -126.94,-255.9 -21.67,-113.24 -9.16,-229.04 -14.25,-343.39 -23.24,123.03 -57.85,244.88 -115.14,355.72 -43.84,84.41 -102.49,162.2 -178.43,217.81 -61.49,44.39 -134.85,74.25 -210.42,73.86 -103.57,3.01 -202.62,-48.43 -275.98,-121.91 -80.96,-80.85 -135.73,-185.68 -174.3,-294.17 -42.21,-118.32 -66.33,-242.71 -82.22,-367.57 -21.92,-180.32 -26.44,-362.49 -21.66,-544.06 5.52,-168.39 19.9,-337.19 56.28,-501.74 26.25,-115.59 62.99,-229.95 122.23,-332.11 43.08,-74.19 99.11,-141.79 169.76,-188.81zm-3811.58 -30.57c-36.94,10.75 -59.74,49.87 -60.24,88.4 -1,71.66 -0.06,143.43 -0.43,215.09 -1.13,29.59 20.72,52.81 41.95,69.23 64.44,51.19 154.14,56.73 211.48,118.98 49.87,56.01 54.58,136.85 57.41,209.09 0.37,462.95 0,925.84 0.12,1388.79 0.39,39.25 -3.2,79.94 10.68,117.43 11.56,36.5 39.44,68.25 75.81,78.5 44.72,13.35 98.18,8.34 133.97,-24.99 33.04,-31.41 44.09,-80.25 43.91,-125.23 -0.32,-458.59 -0.32,-917.24 -0.32,-1375.83 -0.06,-60.83 -0.63,-122.63 14.2,-181.96 9.54,-39.77 29.83,-77.85 61.49,-103.01 59.54,-49.15 140.62,-56.06 200.05,-105.49 17.01,-14.8 36.8,-33.51 35.05,-58.73 -0.38,-72.18 0,-144.28 -0.19,-216.39 0.25,-26.86 -8.17,-54.57 -26.95,-73.67 -18.96,-18.91 -45.97,-26.27 -71.73,-26.27 -221.72,0.13 -443.43,-0.14 -665.15,0.13 -20.47,-0.13 -41.45,-1.05 -61.11,5.93zm20.79 -94.54l719.79 0c48.81,4.57 98.05,25.69 129.2,66.11 28.96,35.93 40.51,83.65 40.45,129.81 -0.12,71.58 0.12,143.17 -0.06,214.68 -0.25,42.77 -22.99,81.83 -53.02,109.67 -44.15,41.33 -100.24,65 -155.58,85.4 -31.27,12.13 -65.31,27.71 -81.02,60.44 -21.04,43.81 -20.22,94.4 -21.72,142.19 -0.19,480.49 -0.07,960.99 -0.07,1441.47 -1.95,60.25 -23.3,121.4 -64.88,164.43 -61.49,63.63 -160.8,75.76 -239.62,43.56 -56.46,-23.16 -98.86,-75.77 -116.19,-135.54 -12.83,-40.24 -13.45,-83.07 -12.32,-124.99 -0.25,-434.65 -0.06,-869.32 -0.12,-1303.91 -0.76,-58.87 2.82,-118.14 -6.04,-176.55 -4.83,-33.12 -18.46,-67.55 -47.1,-85.74 -40.58,-26.53 -88.63,-36.77 -130.52,-60.7 -60.55,-31.29 -119.77,-83.57 -128.44,-157.51l0 -227.33c3.45,-46.36 16.76,-94.02 48.8,-127.92 30.34,-34.62 74.49,-51.97 118.46,-57.57z"/>
   <g>
    <path class="fil5" d="M6064.97 2598.61c376.41,-354.74 3344.26,-205.8 3200.75,8.12l-479.3 3249.5c-118.34,389.26 -2126.53,412.35 -2193.41,-16.25l-528.04 -3241.37z"/>
    <path class="fil1" d="M7412.39 3785.28c320.72,33.37 975.11,-41.5 1142.52,-104.63l-128.27 -534.61c-11.72,-48.84 -61.26,-79.21 -110.11,-67.49l-926.47 222.29c-48.84,11.72 -79.2,61.27 -67.48,110.11l89.81 374.33zm1183.02 64.13c-323.1,114.92 -722.83,157.12 -1132.38,146.9l81.83 341.11c11.72,48.84 61.27,79.21 110.11,67.49l926.47 -222.29c48.84,-11.72 79.21,-61.27 67.49,-110.11l-53.52 -223.1zm-1228.75 -646.11l926.47 -222.29c102.25,-24.53 206.51,39.38 231.05,141.63l51.33 213.91c151.27,45.1 303.14,104.28 455.69,178.68l-402.67 2013.37c-477.21,358.15 -1526.58,298.63 -1905.52,-21.57l-402.68 -1905.51c309.95,-150.82 621.64,-261.81 935.46,-323.13 25.93,-36.37 64.44,-63.95 110.87,-75.09zm-317.36 1265.71l630.5 111.55c33.24,5.88 55.61,37.88 49.74,71.12l-111.55 630.5c-5.88,33.24 -37.88,55.62 -71.12,49.74l-630.5 -111.55c-33.24,-5.88 -55.62,-37.88 -49.74,-71.12l111.55 -630.5c5.88,-33.23 37.88,-55.61 71.12,-49.74z"/>
   </g>
   <path class="fil5" d="M4952.74 10535.99c0.97,-4.06 1.37,-229.15 0.87,-500.2 -0.71,-393.22 -0.06,-492.51 3.2,-491.26 2.24,0.86 4.08,2.73 4.08,4.16 0,1.42 5.9,12.27 13.09,24.12 7.2,11.86 13.09,22.45 13.09,23.56 0,1.1 2.77,5.9 6.16,10.68 3.39,4.78 9.28,14.21 13.09,20.96 3.81,6.75 9.86,17.42 13.47,23.73 3.6,6.3 9.64,16.97 13.45,23.72 3.77,6.74 8.04,13.74 9.45,15.54 1.43,1.8 5.67,8.79 9.48,15.54 6.48,11.55 11.58,20.51 26.06,45.8 3.34,5.86 10.72,18.43 16.36,27.96 5.65,9.53 10.27,18.72 10.27,20.45 0,1.72 1.31,3.13 2.89,3.13 1.59,0 3.76,2.58 4.82,5.73 1.07,3.14 4.58,10.14 7.82,15.54 22.24,37.09 30.28,51.45 30.28,54.16 0,1.71 1.29,3.1 2.89,3.1 1.59,0 3.75,2.57 4.82,5.72 1.06,3.15 4.58,10.15 7.81,15.54 22.25,37.1 30.28,51.45 30.28,54.16 0,1.72 1.3,3.11 2.9,3.11 1.59,0 3.75,2.56 4.82,5.72 1.06,3.14 4.58,10.14 7.82,15.55 19.69,32.82 30.28,51.27 30.28,52.74 0,0.93 4.41,8.12 9.81,15.97 5.39,7.84 9.81,14.95 9.81,15.78 0,0.85 5.9,11.23 13.09,23.08 7.2,11.85 13.1,22.45 13.1,23.55 0,1.1 2.76,5.92 6.15,10.7 3.39,4.76 9.27,14.2 13.08,20.95 3.81,6.75 9.88,17.42 13.48,23.72 3.6,6.29 9.65,16.97 13.43,23.72 3.8,6.75 8.07,13.75 9.47,15.54 1.41,1.8 5.68,8.8 9.47,15.55 6.49,11.55 11.58,20.5 26.07,45.8 3.34,5.85 10.7,18.43 16.35,27.95 5.67,9.54 10.28,18.74 10.28,20.46 0,1.72 1.3,3.12 2.9,3.12 1.58,0 3.75,2.58 4.81,5.72 1.07,3.17 4.57,10.15 7.8,15.55 22.27,37.1 30.3,51.46 30.3,54.17 0,1.7 1.3,3.09 2.88,3.09 1.6,0 3.77,2.59 4.83,5.73 1.05,3.15 4.57,10.14 7.81,15.54 22.26,37.09 30.29,51.46 30.29,54.17 0,1.69 1.29,3.08 2.88,3.08 1.61,0 3.76,2.6 4.82,5.74 2.02,6.01 6.72,14.26 24.17,42.53l10.6 17.18 71.65 0c62.34,0 71.93,-0.67 73.66,-5.18 2.59,-6.76 2.59,-1150.97 0,-1157.74 -1.71,-4.45 -10.45,-5.18 -63.8,-5.18l-61.82 0 0 466.26c0,256.44 -1.2,466.26 -2.67,466.26 -1.45,0 -5.64,-5.52 -9.31,-12.27 -7.9,-14.59 -16.17,-29 -30.1,-52.49 -5.65,-9.53 -10.27,-18.14 -10.27,-19.14 0,-0.98 -2.77,-5.7 -6.16,-10.49 -3.39,-4.77 -9.29,-14.2 -13.1,-20.95 -6.58,-11.69 -12.49,-22.05 -26.09,-45.81 -3.36,-5.84 -10.71,-18.42 -16.35,-27.95 -5.65,-9.52 -10.27,-18.72 -10.27,-20.45 0,-1.73 -1.32,-3.13 -2.9,-3.13 -1.59,0 -3.77,-2.57 -4.82,-5.72 -1.07,-3.16 -4.58,-10.15 -7.82,-15.54 -17.62,-29.38 -30.28,-51.2 -30.28,-52.19 0,-0.63 -5.88,-10.83 -13.09,-22.68 -7.19,-11.85 -13.09,-23.03 -13.09,-24.87 0,-1.83 -1.3,-3.33 -2.89,-3.33 -1.58,0 -3.75,-2.58 -4.81,-5.73 -1.06,-3.15 -4.58,-10.14 -7.81,-15.54 -19.94,-33.23 -30.28,-51.29 -30.28,-52.83 0,-0.99 -2.79,-5.69 -6.17,-10.47 -3.39,-4.78 -9.28,-14.21 -13.09,-20.95 -6.6,-11.69 -12.51,-22.05 -26.1,-45.81 -3.35,-5.85 -10.71,-18.43 -16.37,-27.95 -5.64,-9.52 -10.27,-18.73 -10.27,-20.45 0,-1.73 -1.29,-3.13 -2.88,-3.13 -1.59,0 -3.77,-2.58 -4.82,-5.72 -1.06,-3.16 -4.58,-10.15 -7.81,-15.54 -19.7,-32.85 -30.28,-51.29 -30.28,-52.77 0,-0.93 -4.1,-7.84 -9.12,-15.36 -5,-7.52 -11.26,-18.1 -13.9,-23.5 -2.63,-5.39 -5.53,-10.54 -6.43,-11.44 -0.9,-0.9 -3.62,-5.16 -6.05,-9.45 -11.27,-20.03 -16.7,-29.44 -26.23,-45.5 -5.65,-9.54 -10.27,-18.13 -10.27,-19.14 0,-0.99 -2.77,-5.71 -6.16,-10.48 -3.38,-4.78 -9.28,-14.21 -13.08,-20.96 -6.6,-11.68 -12.5,-22.06 -26.1,-45.81 -3.35,-5.84 -10.71,-18.42 -16.37,-27.95 -5.64,-9.53 -10.27,-18.74 -10.27,-20.45 0,-1.72 -1.29,-3.12 -2.89,-3.12 -1.59,0 -3.76,-2.58 -4.82,-5.72 -2.01,-6.03 -6.71,-14.28 -24.17,-42.54l-10.59 -17.2 -93.28 0 -93.29 0 0 584.05 0 584.05 62.11 0c61.69,0 62.11,-0.05 63.89,-7.35zm3998.3 20.33c34.26,-3.62 75.89,-13.5 97.31,-23.12 7.64,-3.42 15.32,-6.21 17.09,-6.21 3.73,0 24.1,-11.13 36.63,-20.03 4.78,-3.38 9.54,-6.16 10.59,-6.16 1.05,0 10.74,-6.7 21.53,-14.91 28.86,-21.95 64.15,-58.67 82.62,-86 18.05,-26.71 48.28,-84.44 48.32,-92.29 0.02,-2.8 1.27,-6.47 2.79,-8.18 7.59,-8.6 23.64,-76.29 29.78,-125.72 6.78,-54.56 2.08,-149.37 -9.82,-198.04 -18.38,-75.25 -48.35,-139.86 -87.7,-189.06 -20.39,-25.53 -73.33,-74.33 -80.59,-74.33 -1.17,0 -8.54,-4.42 -16.39,-9.81 -7.85,-5.41 -16.28,-9.83 -18.75,-9.83 -2.46,0 -5.88,-1.24 -7.6,-2.76 -3.61,-3.21 -33.22,-14.44 -52.18,-19.79 -67.74,-19.13 -162.88,-16.72 -233.23,5.92 -18.62,5.99 -27.4,9.45 -53.06,20.97 -20.64,9.25 -97.99,67.43 -98.24,73.88 -0.04,1.07 -7.37,10.05 -16.29,19.94 -8.91,9.9 -16.24,19.84 -16.28,22.09 -0.05,2.24 -1.55,4.09 -3.34,4.09 -1.81,0 -3.28,2.21 -3.28,4.9 0,2.7 -1.1,4.93 -2.45,4.94 -1.34,0.01 -4.1,3.33 -6.1,7.36 -2.01,4.03 -8.19,16.17 -13.73,26.96 -15.54,30.28 -23.53,48.26 -23.53,53.02 0,2.38 -1.29,6.89 -2.86,10.02 -8.93,17.68 -22.51,83.84 -25.83,125.94 -3.67,46.45 0.86,136.03 8.9,175.85 15.73,77.94 47.43,152.82 85.09,201 13.81,17.69 49.6,53.26 65.59,65.22 24.54,18.37 41.8,28 76.89,42.94 49.48,21.07 117.04,28.68 188.12,21.2zm-75.24 -114.64c-42.64,-8.03 -86.93,-31 -116.19,-60.26 -27.53,-27.53 -54.17,-77.26 -64,-119.48 -24.31,-104.29 -24.92,-219.02 -1.64,-304.81 8.49,-31.29 10.81,-37.51 23.07,-62.01 29.3,-58.6 78.2,-100.38 137.61,-117.61 21.38,-6.21 89.14,-6.28 111.14,-0.14 52.7,14.74 109.49,56.97 131.28,97.61 3.64,6.77 8.23,15.28 10.19,18.88 14.17,25.98 26.06,63.83 33.8,107.55 8.14,45.93 8.9,159.37 1.36,203.68 -6.36,37.39 -11.92,60.96 -15.28,64.88 -1.47,1.71 -2.67,5.77 -2.67,9.05 0,3.26 -1.28,8.47 -2.87,11.6 -1.58,3.13 -5.99,11.94 -9.81,19.59 -17.24,34.48 -23.15,43.11 -46.05,67.22 -13.4,14.11 -32.7,30.54 -42.88,36.51 -43.92,25.75 -100.78,36.48 -147.06,27.74zm-2668.3 114.72c54.57,-5.58 91.21,-16.16 140.7,-40.63 39.52,-19.55 53.53,-29.55 89.49,-63.95 31.2,-29.84 52.68,-57.98 68.23,-89.38 30.63,-61.8 31.32,-57.74 -11.29,-66.89 -76.99,-16.51 -90.3,-18.47 -95.61,-14.05 -2.76,2.29 -5.01,6.14 -5.01,8.57 0,2.41 -3.17,9.96 -7.05,16.77 -3.88,6.81 -10.14,18.2 -13.9,25.32 -7.69,14.5 -56.94,67.21 -62.81,67.21 -2.08,0 -5.63,2.23 -7.88,4.95 -5.63,6.77 -41.82,23.71 -64.65,30.27 -13.4,3.85 -32.31,5.43 -66.21,5.53 -41.65,0.14 -50.43,-0.82 -71.98,-7.84 -32.08,-10.43 -62.82,-26.18 -83.21,-42.63 -17.01,-13.7 -46.9,-45.33 -51.84,-54.85 -30.68,-59 -35.84,-74.59 -43.06,-130.1 -6.06,-46.67 -6.57,-80.17 -1.21,-80.21 2.36,-0.01 142.11,0 310.59,0.03 272.33,0.06 306.78,-0.49 310.52,-4.97 8.26,-9.96 -1.55,-114.62 -16.1,-171.7 -10.51,-41.31 -17.18,-59.03 -36.9,-98.15 -51.5,-102.23 -132.99,-163.99 -246.46,-186.83 -33.43,-6.71 -129.9,-5.96 -162.71,1.31 -27.5,6.07 -50.06,12.98 -67.96,20.82 -26.6,11.65 -65.31,32.31 -68.71,36.66 -0.9,1.15 -7.52,6.42 -14.72,11.7 -28.05,20.63 -77.49,75.27 -91.92,101.6 -1.98,3.6 -6.61,11.86 -10.34,18.38 -15.32,26.84 -22.92,44 -33.17,74.88 -11.21,33.82 -12.77,39.47 -18,65.43 -8.08,40.25 -12.12,80.6 -11.75,117.45 2.02,195.38 83.27,345.47 223.05,412.01 12.04,5.73 24.09,10.41 26.79,10.41 2.71,0 5.73,1.31 6.72,2.9 0.99,1.59 5.85,3.66 10.81,4.6 4.98,0.96 18.39,4.08 29.83,6.96 41.33,10.45 97,13.61 147.72,8.42zm-282.43 -539c-3.43,-5.81 8.15,-65.42 17.01,-87.56 7.78,-19.44 25.27,-53.87 27.4,-53.93 1.33,-0.03 2.44,-1.6 2.44,-3.52 0,-4.07 16.93,-26.12 31.54,-41.1 23.99,-24.6 62.48,-48.33 95.79,-59.06 24.85,-8 90.8,-9.54 118.9,-2.79 73.4,17.64 120.74,59.41 153.97,135.87 10.2,23.45 18.79,66 19.53,96.63l0.4 16.26 -232.77 0.83c-128.01,0.47 -233.41,-0.28 -234.21,-1.63zm4128.63 393.73l0 -132.22 15.44 -19.12c8.48,-10.5 21.57,-25.73 29.08,-33.83 7.5,-8.1 17.84,-19.87 22.96,-26.17 5.12,-6.31 10.11,-12.2 11.07,-13.09 0.98,-0.9 9.85,-11.18 19.7,-22.84 9.85,-11.67 24.34,-28.17 32.23,-36.68 7.88,-8.51 16.65,-18.85 19.49,-22.97 8.73,-12.62 30.76,-35.21 33.02,-33.82 1.16,0.72 10.88,18.72 21.58,39.99 10.69,21.28 20.21,39.42 21.15,40.32 0.92,0.9 7.39,12.69 14.36,26.19 6.96,13.5 23.33,45.15 36.35,70.34 13,25.19 28.81,55.38 35.11,67.07 6.31,11.7 23.08,44.09 37.28,71.98 14.19,27.9 26.55,51.46 27.45,52.35 0.91,0.9 9.25,16.36 18.54,34.36 9.3,18 21.15,40.83 26.35,50.72l9.44 17.99 72.62 0.88c47.07,0.57 72.64,-0.27 72.64,-2.41 0,-3.14 -12.36,-27.25 -30.22,-58.99 -4.55,-8.11 -13.38,-24.3 -19.63,-36 -6.23,-11.69 -15.07,-27.89 -19.63,-36 -4.55,-8.09 -13.39,-24.29 -19.63,-35.98 -6.24,-11.7 -15.07,-27.89 -19.63,-35.99 -4.55,-8.11 -13.39,-24.29 -19.63,-35.99 -6.24,-11.7 -15.07,-27.89 -19.64,-35.99 -4.55,-8.11 -13.38,-24.29 -19.63,-36 -6.23,-11.69 -15.07,-27.9 -19.63,-35.99 -4.55,-8.09 -13.4,-24.29 -19.63,-35.99 -6.24,-11.69 -15.07,-27.9 -19.63,-35.99 -4.56,-8.1 -13.38,-24.3 -19.63,-35.99 -6.24,-11.7 -15.07,-27.89 -19.64,-36 -19.04,-33.85 -31.94,-59.73 -31.94,-64.1 0,-2.55 7.93,-13.09 17.63,-23.44 9.7,-10.33 21.82,-23.95 26.93,-30.24 5.1,-6.3 16.88,-19.55 26.16,-29.46 9.3,-9.89 21.07,-23.14 26.19,-29.43 5.11,-6.31 16.89,-19.56 26.17,-29.45 9.3,-9.9 21.08,-23.16 26.2,-29.45 5.12,-6.3 10.08,-12.2 11.04,-13.1 0.95,-0.89 12.75,-14.12 26.22,-29.37 13.47,-15.27 30.63,-34.4 38.14,-42.53 20.36,-22.08 34.09,-40.1 33.02,-43.31 -1.07,-3.23 -136.1,-3.97 -143.4,-0.79 -2.58,1.13 -15.74,14.55 -29.23,29.82 -25.5,28.84 -29.07,32.82 -58.9,65.29 -57.89,63.04 -78.62,85.92 -87.06,96.15 -5.2,6.3 -19.97,22.51 -32.81,36 -12.86,13.49 -27.58,29.68 -32.72,35.96 -5.16,6.28 -18.35,21.02 -29.33,32.72 -10.97,11.71 -25.69,27.88 -32.72,35.92 -7.02,8.04 -21.74,24.24 -32.71,36 -10.99,11.75 -25.71,27.96 -32.73,36.05 -19.03,21.91 -19.99,22.8 -22.18,20.59 -1.13,-1.1 -2.03,-166.68 -2.03,-367.94l0 -365.92 -67.07 0c-57.45,0 -67.08,0.73 -67.09,4.93 0,2.69 0,263.3 0,579.12 0,315.84 0,576.44 0,579.15 0.01,4.19 9.64,4.9 67.09,4.9l67.07 0 0 -132.21zm-530.92 126.48c-0.02,-3.14 0.46,-115.42 1.07,-249.48 1.18,-257.55 1.21,-258.03 16.83,-305.92 12.79,-39.21 43.96,-91.69 70.97,-119.44 16.54,-17.01 40.21,-36 44.85,-36 1.76,0 3.69,-1.1 4.28,-2.45 1.54,-3.47 27.73,-15.91 45.91,-21.8 22.48,-7.3 53.17,-11.68 81.97,-11.71l25.36 -0.02 0 -65.25c0,-35.88 -1.32,-66.05 -2.93,-67.05 -1.6,-1 -21.85,-1.88 -44.98,-1.96 -40.61,-0.16 -68,4.03 -89.51,13.67 -4.51,2.03 -11.86,5.28 -16.36,7.22 -50.87,22.11 -118.9,105.09 -140.44,171.35 -2.48,7.59 -5.75,13.02 -7.28,12.06 -1.53,-0.94 -2.79,-41.96 -2.79,-91.15 0,-78.53 -0.64,-89.68 -5.18,-91.41 -8.33,-3.21 -112.05,-2.29 -114.07,1.01 -1.35,2.17 -2.5,546.33 -1.83,858.33 0.01,5.27 5.39,5.73 67.08,5.73 61.73,0 67.08,-0.46 67.05,-5.73zm-1186.94 4.91c0.42,-0.45 1.52,-113.14 2.47,-250.43 1.1,-160.96 2.87,-250.43 4.99,-251.93 1.79,-1.28 5.43,-6.75 8.06,-12.15 2.65,-5.39 8.9,-15.97 13.91,-23.49 5,-7.53 9.09,-14.55 9.09,-15.6 0,-1.07 5.89,-11.63 13.1,-23.47 7.19,-11.85 13.08,-22.08 13.08,-22.7 0,-0.63 4.62,-8.95 10.27,-18.49 9.54,-16.06 14.95,-25.47 26.23,-45.49 2.42,-4.3 5.14,-8.55 6.04,-9.45 0.9,-0.9 3.81,-6.05 6.45,-11.45 2.64,-5.41 8.88,-15.97 13.9,-23.5 5,-7.52 9.1,-14.53 9.1,-15.59 0,-1.06 5.89,-11.62 13.07,-23.47 7.22,-11.85 13.1,-22.06 13.1,-22.71 0,-0.63 4.62,-8.95 10.27,-18.46 5.66,-9.54 13.01,-22.11 16.36,-27.96 3.35,-5.86 8.83,-15.43 12.17,-21.27 3.34,-5.86 10.04,-17.27 14.87,-25.36 4.82,-8.09 9.62,-17.3 10.66,-20.45 1.04,-3.15 3.16,-5.73 4.76,-5.73 1.6,0 2.89,-1.49 2.89,-3.33 0,-1.82 5.89,-13.03 13.09,-24.88 7.2,-11.85 13.08,-22.06 13.08,-22.7 0,-0.63 4.63,-8.94 10.28,-18.49 5.65,-9.51 13.01,-22.09 16.35,-27.94 3.36,-5.85 8.83,-15.43 12.18,-21.27 3.34,-5.85 10.03,-17.25 14.87,-25.35 4.83,-8.11 9.62,-17.3 10.66,-20.45 1.03,-3.15 3.17,-5.74 4.76,-5.74 1.6,0 2.89,-1.4 2.89,-3.11 0,-1.73 4.63,-10.93 10.3,-20.45 5.66,-9.54 14.72,-25.43 20.14,-35.33 5.4,-9.89 12.31,-21.68 15.37,-26.16 3.05,-4.5 6.38,-11.53 7.39,-15.62l1.85 -7.42 -68.89 0.87c-57.19,0.75 -69.35,1.72 -71.64,5.79 -6.23,11.09 -27.66,48.12 -33.15,57.26 -3.23,5.4 -6.75,12.4 -7.81,15.55 -1.07,3.15 -3.23,5.72 -4.82,5.72 -1.59,0 -2.9,1.42 -2.9,3.13 0,1.72 -4.62,10.93 -10.26,20.45 -5.65,9.53 -13.01,22.11 -16.35,27.96 -13.61,23.75 -19.52,34.12 -26.12,45.81 -3.81,6.75 -9.69,16.17 -13.08,20.95 -3.39,4.78 -6.16,9.59 -6.16,10.69 0,1.11 -5.89,11.71 -13.09,23.56 -7.2,11.85 -13.09,22.23 -13.09,23.06 0,0.85 -4.41,7.95 -9.81,15.81 -5.41,7.85 -9.83,15.02 -9.83,15.94 0,1.49 -10.58,19.92 -30.28,52.76 -3.23,5.41 -6.75,12.4 -7.81,15.55 -1.06,3.14 -3.23,5.73 -4.82,5.73 -1.58,0 -2.89,1.39 -2.89,3.08 0,2.71 -8.03,17.08 -30.28,54.18 -3.24,5.4 -6.75,12.38 -7.82,15.53 -1.06,3.15 -3.23,5.74 -4.82,5.74 -1.58,0 -2.88,1.4 -2.88,3.12 0,1.71 -4.63,10.92 -10.27,20.45 -15.81,26.63 -23.1,39.4 -28.1,49.16 -6.53,12.7 -9.13,13.3 -14.22,3.23 -2.46,-4.9 -8.25,-14.78 -12.86,-21.98 -4.61,-7.2 -10.55,-17.51 -13.17,-22.91 -2.64,-5.4 -5.55,-10.56 -6.45,-11.45 -0.91,-0.9 -3.62,-5.15 -6.04,-9.44 -9.9,-17.6 -18.99,-33.56 -36.04,-63.36 -3.35,-5.84 -10.72,-18.44 -16.36,-27.95 -5.65,-9.53 -10.27,-18.14 -10.27,-19.13 0,-0.99 -2.73,-5.72 -6.05,-10.48 -3.32,-4.78 -10.48,-16.79 -15.88,-26.69 -5.41,-9.9 -14.47,-25.79 -20.14,-35.32 -5.66,-9.53 -10.29,-18.73 -10.29,-20.46 0,-1.71 -1.1,-3.13 -2.45,-3.15 -1.35,0 -4.08,-3.32 -6.06,-7.36 -6.77,-13.8 -19.3,-36.78 -20.94,-38.41 -0.9,-0.89 -3.61,-5.15 -6.03,-9.45 -9.91,-17.6 -18.99,-33.57 -36.03,-63.35 -3.36,-5.85 -10.73,-18.43 -16.38,-27.97 -5.64,-9.52 -10.27,-17.84 -10.27,-18.46 0,-0.65 -5.89,-10.86 -13.08,-22.71 -7.2,-11.85 -13.1,-22.32 -13.1,-23.29 0,-0.96 -5.36,-9.82 -11.91,-19.69l-11.91 -17.96 -85.94 0 -85.94 0 1.85 7.08c1.01,3.87 7.51,16.37 14.41,27.75 6.92,11.37 12.58,21.55 12.58,22.61 0,1.06 4.09,8.09 9.1,15.6 5,7.52 11.26,18.09 13.9,23.49 2.65,5.41 5.54,10.56 6.44,11.45 0.89,0.92 3.62,5.16 6.04,9.45 9.9,17.6 18.99,33.57 36.04,63.36 3.35,5.85 10.71,18.43 16.36,27.94 5.65,9.55 10.27,18.11 10.27,19.06 0,0.95 4.1,7.88 9.1,15.39 5,7.53 11.26,18.1 13.9,23.5 2.65,5.39 5.55,10.55 6.45,11.45 0.9,0.89 3.62,5.15 6.04,9.45 9.9,17.6 18.99,33.57 36.04,63.36 3.35,5.85 10.71,18.42 16.36,27.96 5.66,9.51 10.28,17.83 10.28,18.46 0,0.65 5.88,10.86 13.09,22.71 7.19,11.85 13.08,23.03 13.08,24.87 0,1.83 1.29,3.33 2.9,3.33 1.58,0 3.72,2.57 4.75,5.74 1.04,3.14 5.83,12.34 10.66,20.45 4.84,8.08 11.53,19.5 14.87,25.33 3.34,5.86 8.82,15.43 12.16,21.28 3.36,5.86 10.72,18.43 16.38,27.95 5.64,9.54 10.26,17.86 10.26,18.49 0,0.62 5.89,10.85 13.09,22.7 7.2,11.84 13.09,23.04 13.09,24.87 0,1.84 1.29,3.33 2.89,3.33 1.59,0 3.74,2.58 4.76,5.72 1.04,3.17 5.86,12.37 10.71,20.45 4.87,8.11 10.82,18.41 13.21,22.91 3.55,6.62 4.38,54.4 4.4,249.22 0,132.57 0.92,243.37 2.01,246.22 1.72,4.51 11.46,5.17 75.25,5.17 40.3,0 73.61,-0.37 74.01,-0.82zm-1407.75 -26.17c4.08,-14.85 8.7,-31.42 10.28,-36.81 1.6,-5.4 7.3,-26.02 12.7,-45.81 5.39,-19.8 11.07,-40.41 12.63,-45.81 4.04,-13.94 9.11,-32.26 16.82,-60.53 3.66,-13.49 8.09,-29.69 9.83,-36 1.74,-6.28 7.62,-27.64 13.07,-47.43 10.31,-37.49 15.3,-55.4 20.06,-71.99 1.54,-5.4 5.79,-20.86 9.44,-34.36 3.64,-13.48 8.04,-29.69 9.78,-35.98 1.74,-6.3 7.61,-27.66 13.02,-47.45 5.41,-19.79 11.13,-40.4 12.68,-45.81 1.56,-5.39 4.54,-15.7 6.62,-22.9 2.07,-7.19 7.15,-26.18 11.29,-42.18 8.31,-32.08 8.43,-32.06 18.59,4.56 2.25,8.09 6.64,22.81 9.77,32.71 3.11,9.9 7.52,24.63 9.81,32.71 2.27,8.11 6.7,22.84 9.81,32.74 3.12,9.89 7.53,24.61 9.83,32.72 2.27,8.09 6.69,22.81 9.81,32.71 3.11,9.9 7.53,24.63 9.81,32.72 2.29,8.1 6.7,22.82 9.83,32.73 3.1,9.89 7.52,24.61 9.81,32.71 2.28,8.11 6.69,22.82 9.82,32.71 3.11,9.91 7.52,24.64 9.8,32.73 2.29,8.1 6.7,22.81 9.83,32.72 3.11,9.89 7.52,24.62 9.81,32.72 2.28,8.09 6.69,22.82 9.82,32.72 3.11,9.89 7.52,24.61 9.81,32.72 2.28,8.1 6.7,22.82 9.82,32.71 3.11,9.9 7.55,24.63 9.85,32.72 6.75,23.83 16.89,56.69 19.93,64.64 2.75,7.22 3.74,7.35 58.59,7.35 41.77,0 56.11,-1.03 57.07,-4.09 3.83,-12.36 15.43,-51.7 18.57,-62.98 1.98,-7.21 4.74,-16.78 6.14,-21.28 1.37,-4.5 4.32,-14.8 6.53,-22.9 2.22,-8.09 5.16,-18.41 6.54,-22.91 1.38,-4.5 4.33,-14.8 6.55,-22.9 2.22,-8.09 5.16,-18.39 6.54,-22.89 1.38,-4.5 4.15,-14.08 6.13,-21.28 2,-7.19 6.43,-22.65 9.86,-34.35 3.41,-11.69 9.37,-32.32 13.21,-45.82 3.85,-13.49 9.86,-34.1 13.34,-45.79 3.48,-11.71 9.26,-31.58 12.83,-44.18 3.58,-12.59 9.45,-33.21 13.06,-45.8 3.59,-12.6 9.49,-33.22 13.07,-45.81 3.61,-12.6 9.61,-33.57 13.36,-46.6 3.72,-13.02 9.83,-34.37 13.57,-47.44 3.73,-13.06 9.59,-33.32 13.01,-45.02 3.42,-11.69 7.85,-27.16 9.84,-34.36 2,-7.19 4.76,-16.77 6.13,-21.26 1.4,-4.51 4.34,-14.8 6.55,-22.91 2.22,-8.1 5.17,-18.4 6.55,-22.9 1.39,-4.5 4.15,-14.06 6.14,-21.27 1.99,-7.18 6.43,-22.67 9.84,-34.36 3.42,-11.68 9.38,-32.31 13.25,-45.8 3.87,-13.5 9.02,-31.17 11.44,-39.26 3,-10.04 3.36,-16.02 1.1,-18.82 -2.39,-2.94 -17.2,-4.09 -53.01,-4.09 -55.47,0 -57.53,0.7 -63.3,21.27 -3.49,12.43 -10.82,37.09 -33.06,111.25 -5.4,17.98 -14.24,47.44 -19.65,65.44 -5.39,18 -14.22,47.44 -19.61,65.44 -5.41,17.99 -14.49,48.18 -20.17,67.08 -5.69,18.89 -14.52,48.34 -19.62,65.43 -10.42,34.83 -23.88,79.71 -39.25,130.87 -5.69,18.9 -14.6,47.98 -19.83,64.62 -5.22,16.64 -9.48,32.55 -9.48,35.36 0,11.75 -6.53,-0.44 -14.56,-27.2 -16.01,-53.27 -27.26,-90.65 -37.64,-125.13 -5.68,-18.9 -14.76,-49.07 -20.16,-67.07 -5.39,-18 -14.23,-47.43 -19.62,-65.43 -5.4,-18 -14,-46.71 -19.1,-63.81 -5.13,-17.1 -13.71,-45.81 -19.11,-63.81 -5.4,-17.98 -14.23,-47.43 -19.63,-65.43 -5.4,-18 -14.46,-48.18 -20.12,-67.08 -22.21,-74.05 -23.71,-77.91 -30.93,-79.86 -3.8,-1.01 -25.49,-1.87 -48.22,-1.89 -32.59,-0.04 -42.15,0.99 -45.35,4.82 -2.22,2.67 -6.95,15.56 -10.5,28.62 -3.57,13.07 -7.74,28.19 -9.28,33.58 -3.1,10.92 -6.52,23.21 -14.55,52.36 -5.56,20.22 -9.71,35.08 -21.21,76.07 -3.67,13.04 -9.66,34.39 -13.33,47.45 -11.5,40.98 -15.64,55.85 -21.21,76.07 -8.02,29.13 -11.45,41.43 -14.54,52.34 -14.09,49.51 -21.75,76.79 -31.48,112.07 -2.87,10.35 -6.45,23.23 -8,28.62 -1.54,5.41 -4.22,14.98 -5.96,21.28 -1.75,6.3 -6.31,22.5 -10.18,35.99 -3.84,13.5 -9.4,33.78 -12.32,45.1l-5.31 20.54 -3.86 -12.36c-2.13,-6.81 -5.54,-18.27 -7.58,-25.47 -2.05,-7.19 -6.51,-22.66 -9.94,-34.35 -3.42,-11.69 -9.43,-32.31 -13.36,-45.81 -3.91,-13.5 -9.97,-34.11 -13.45,-45.8 -3.49,-11.71 -7.98,-27.17 -9.96,-34.36 -2,-7.21 -4.75,-16.77 -6.14,-21.27 -1.39,-4.49 -4.15,-14.07 -6.13,-21.28 -2.01,-7.19 -6.44,-22.64 -9.86,-34.33 -3.42,-11.71 -9.42,-32.31 -13.34,-45.81 -3.92,-13.5 -9.98,-34.12 -13.47,-45.82 -3.48,-11.7 -7.96,-27.15 -9.97,-34.35 -1.98,-7.2 -4.74,-16.76 -6.13,-21.26 -1.37,-4.51 -4.15,-14.08 -6.14,-21.28 -1.98,-7.19 -6.41,-22.66 -9.85,-34.36 -3.41,-11.69 -9.35,-32.3 -13.18,-45.81 -3.83,-13.48 -9.67,-33.36 -12.97,-44.17 -3.29,-10.79 -7.79,-26.25 -10,-34.35 -2.19,-8.09 -5.78,-18.39 -7.95,-22.91l-3.95 -8.17 -63.69 -0.81c-35.02,-0.44 -65.7,0.5 -68.18,2.09 -4.46,2.85 -2.43,13.39 9.53,49.43 1.49,4.5 5.91,19.23 9.81,32.73 3.91,13.49 8.33,28.21 9.81,32.71 1.5,4.5 5.97,19.23 9.95,32.71 3.99,13.51 9.88,33.38 13.09,44.19 3.23,10.79 10.43,35.08 16.02,53.98 5.61,18.89 14.38,48.34 19.52,65.45 5.13,17.09 13.95,46.54 19.61,65.43 5.65,18.9 12.95,43.19 16.24,53.98 3.27,10.81 7.83,26.27 10.13,34.36 2.3,8.1 6.74,22.82 9.85,32.73 3.12,9.89 7.54,24.61 9.82,32.71 2.29,8.11 6.71,22.82 9.82,32.71 3.11,9.91 7.54,24.64 9.81,32.73 2.28,8.1 6.7,22.81 9.82,32.72 3.11,9.89 7.53,24.62 9.81,32.72 2.29,8.09 6.7,22.82 9.82,32.72 3.11,9.89 7.54,24.61 9.82,32.72 2.27,8.1 6.69,22.82 9.81,32.71 3.11,9.9 7.55,24.63 9.85,32.72 6.77,23.83 16.9,56.69 19.92,64.64 2.77,7.24 3.71,7.35 59.69,7.35l56.87 0 7.38 -26.99z"/>
  </g>
 </g>
</svg>
