<?xml version="1.0" encoding="UTF-8"?>
<!DOCTYPE svg PUBLIC "-//W3C//DTD SVG 1.1//EN" "http://www.w3.org/Graphics/SVG/1.1/DTD/svg11.dtd">
<!-- Creator: CorelDRAW -->
<svg xmlns="http://www.w3.org/2000/svg" xml:space="preserve" width="152.4mm" height="152.4mm" version="1.1" style="shape-rendering:geometricPrecision; text-rendering:geometricPrecision; image-rendering:optimizeQuality; fill-rule:evenodd; clip-rule:evenodd"
viewBox="0 0 4952.04 4952.04"
 xmlns:xlink="http://www.w3.org/1999/xlink"
 xmlns:xodm="http://www.corel.com/coreldraw/odm/2003">
 <defs>
  <style type="text/css">
   <![CDATA[
    .fil0 {fill:none}
    .fil1 {fill:black}
    .fil3 {fill:#CDCCCC}
    .fil2 {fill:#EC1B31}
    .fil5 {fill:white}
    .fil4 {fill:white;fill-rule:nonzero}
   ]]>
  </style>
 </defs>
 <g id="Capa_x0020_1">
  <metadata id="CorelCorpID_0Corel-Layer"/>
  <g id="_1590655010336">
   <rect class="fil0" x="-0" y="-0" width="4952.04" height="4952.04"/>
   <ellipse id="contour" class="fil1" cx="2476.03" cy="2476.02" rx="2339.77" ry="2339.78"/>
   <path id="contour_8" class="fil2" d="M4590.22 3479.4c-375.66,790.13 -1181.09,1336.41 -2114.19,1336.41 -933.11,0 -1738.53,-546.27 -2114.19,-1336.41l4228.38 0z"/>
   <path id="contour_9" class="fil3" d="M2476.03 118.36c1302.1,0 2357.65,1055.57 2357.65,2357.66 0,1302.1 -1055.56,2357.66 -2357.65,2357.66 -1302.1,0 -2357.65,-1055.57 -2357.65,-2357.66 0,-1302.1 1055.55,-2357.66 2357.65,-2357.66zm-0.02 320.32c1125.2,0 2037.36,912.16 2037.36,2037.36 0,1125.2 -912.16,2037.36 -2037.36,2037.36 -1125.2,0 -2037.36,-912.16 -2037.36,-2037.36 0,-1125.2 912.16,-2037.36 2037.36,-2037.36z"/>
   <path class="fil4" d="M2446.96 2857.4c0.07,7.63 -0.53,15.44 1.43,22.88 1.63,5.45 10.2,3.63 9.8,-2.13 0.78,-14.44 3.01,-30.33 -4.14,-43.53 -7.16,4.97 -6.76,14.8 -7.08,22.78zm-3.59 -56.37c11.18,-5.15 23.91,0.26 32.32,8.47 11.68,11.44 16.07,28.72 16.73,44.98 0.8,17.62 -0.25,37.03 -11.28,51.35 -13.38,17.49 -41.81,17.93 -55.58,0.73 -13.11,-16.41 -13.29,-39.53 -11.35,-59.73 1.96,-18.78 11.1,-39.14 29.16,-45.8zm-828.66 -123.6c-24.44,4.89 -37.9,31.69 -37.95,56 -0.05,174.52 0.03,349.06 -0.05,523.58 -0.23,13.91 -0.38,28.33 4.87,41.4 4.87,13.97 15.72,25.83 29.59,29.83 17.83,5.42 39.1,3.42 53.47,-9.84 12.76,-12.05 17.43,-30.72 17.73,-48.14 -0.1,-171.02 0,-342.02 -0.05,-513.03 -0.08,-13.97 0.98,-28.22 -2.71,-41.82 -3.04,-12.65 -10,-24.62 -20.7,-31.59 -13.01,-8.76 -29.43,-9.18 -44.2,-6.39zm-5.43 -35.12c25.27,-5.29 53.27,-0.92 73.91,15.99 21.7,17.63 32.58,46.9 32.88,75.15 -0.03,179.8 -0.08,359.61 0.02,539.44 -0.17,26.46 -9.64,53.68 -28.58,71.75 -28.28,26.36 -73.41,28.83 -105.38,8.47 -25.11,-16.33 -38.2,-47.45 -39.25,-77.64 -0.03,-181.38 0.05,-362.77 -0.03,-544.15 1.03,-23.57 8.64,-47.5 24.33,-64.81 11.1,-12.52 26.2,-20.72 42.09,-24.2zm198.93 35.12c-24.51,4.89 -37.97,31.86 -37.95,56.21 -0.1,174.49 0.03,348.99 -0.05,523.48 -0.2,13.86 -0.35,28.22 4.85,41.24 4.64,13.18 14.46,24.62 27.37,29.09 17.86,6.31 39.38,4.76 54.45,-7.9 13.03,-11.33 18.46,-29.64 18.91,-46.87 0.08,-95.48 -0.15,-190.93 -0.1,-286.38 0.22,-32.51 -0.88,-65.23 4.34,-97.4 2.81,-16.12 5.95,-33.19 16.07,-46.24 7.96,-10.65 23.76,-15.2 34.93,-7.39 10.42,7.5 15.44,20.46 19.09,32.67 9.57,34.96 9.77,71.68 9.97,107.76 -0.05,96.45 0.03,192.91 -0.15,289.39 -0.12,16.7 2.28,34.43 12.11,48.16 13.34,19.47 41.09,22.33 60.48,11.84 17.35,-10.28 24.11,-32.3 24.69,-52.05 0.1,-109.6 -0.13,-219.23 0.12,-328.84 0.45,-26.27 2.11,-52.84 8.87,-78.22 3.67,-13.33 10.05,-27.72 22.88,-33.61 9.29,-4.63 20.99,-2.39 28.07,5.42 10.35,11.44 14.51,27.2 17.76,42.16 8.24,41.87 6.8,84.87 6.98,127.36 0.05,88.56 -0.07,177.12 0.05,265.68 0.33,20.36 8.66,42.72 26.95,52.23 18.79,9 42.95,8.1 59.5,-5.57 13.09,-11.34 18.46,-29.73 19.06,-46.95 0.02,-141.98 0,-283.97 0,-425.95 -0.15,-24.07 1.33,-48.5 -4.25,-72.07 -7.93,-33.22 -24.08,-66.12 -51.31,-86.3 -15.67,-11.86 -36.52,-14.78 -54.78,-8.36 -30.16,10.26 -53.82,34.27 -73.11,59.73 -5.78,8.36 -18.83,8.89 -25.29,1.13 -8.64,-10.47 -10.85,-24.83 -18.61,-35.9 -11.47,-18.63 -33.55,-30.07 -54.67,-25.2 -23.66,5.63 -43.65,21.01 -62.99,35.61 -9.39,6.71 -23.66,13.1 -33.22,3.26 -7.01,-9.65 -9.52,-22.49 -18.43,-30.8 -10.72,-12.26 -27.93,-13.88 -42.6,-10.41zm637.21 -6.7c-30.89,5.62 -56.41,27.72 -75.24,52.97 -24.66,33.53 -40.23,73.31 -51.96,113.52 -14.94,51.68 -22.15,105.68 -22.68,159.66 -0.35,61.79 6.93,123.93 24.21,183.12 14.52,43.08 35.61,84.9 67.06,117.12 21.73,22.52 52.29,37.59 83.36,33.27 37.42,-2.58 71.32,-26.83 90.84,-59.76 10.6,-18.28 20.05,-39.16 18.66,-61.05 -1.05,-18.73 -15.02,-38.59 -34.18,-38.35 -18.43,0.6 -28.25,19.28 -43.52,27.15 -16.78,11.78 -39.71,12.15 -56.63,0.55 -17.88,-11.92 -26.45,-34.06 -29.34,-55.24 -3.34,-25.01 -2.94,-51.13 4.47,-75.3 5.17,-16.07 15.97,-32.96 33.13,-35.85 29.53,-5.23 59.67,-2.95 89.48,-4.79 18.46,-0.84 34.33,-14.68 41.86,-31.8 13.21,-29.11 12.83,-62.44 9.79,-93.82 -3.62,-42.64 -11.35,-85.11 -25.24,-125.46 -10.85,-30.35 -25.49,-60.47 -49.15,-82.09 -20.22,-18.6 -48.22,-27.91 -74.92,-23.85zm-87.78 13.6c26.37,-29.25 63.14,-51.53 102.54,-49.76 29.71,0 59.17,11.6 81.47,32.19 31.39,28.65 50.28,69.05 63.39,109.74 15.52,49.79 23.41,102.05 25.29,154.31 0.3,35.51 -5.75,73.54 -27.9,101.69 -14.37,18.44 -36.34,29.7 -58.97,30.9 -27.83,0.97 -55.95,-0.58 -83.51,4.23 -7.29,5.66 -8.59,16.29 -10.47,25.02 -2.59,20.85 -2.61,42.93 5,62.73 3.24,8.79 10.73,16.94 20.27,16.86 11.75,-3.55 20.74,-12.78 29.86,-20.86 15.12,-13.6 36.54,-19.62 55.95,-14.2 20.07,5.44 36.8,21.38 45.64,40.79 8.89,20.07 9.54,43.48 3.69,64.57 -9.72,35.93 -30.69,68.44 -58.72,91.51 -32.19,26.43 -75.32,37.59 -115.58,30.14 -37.95,-7.68 -69.67,-34.3 -93.15,-65.42 -28.61,-38.38 -49.4,-83.07 -61.15,-130.15 -0.23,34.75 -0.03,69.52 0,104.27 -0.38,26.54 -9.7,53.9 -28.83,71.93 -28.33,26.2 -73.36,28.59 -105.28,8.24 -25.87,-16.86 -38.77,-49.3 -39.33,-80.3 0.05,-95.51 0,-191.04 0.02,-286.54 -0.07,-34.27 0.03,-68.86 -6.63,-102.58 -0.5,-2.97 -1.78,-5.6 -2.91,-8.29 -8.24,34.51 -6.83,70.33 -7.13,105.61 0.02,97.34 -0.02,194.72 0.02,292.06 -0.65,24.28 -7.68,49.29 -23.55,67.52 -29.43,34.51 -87.37,34.75 -117.31,0.81 -16.22,-18.36 -23.81,-43.74 -24.11,-68.44 0.07,-100.79 0.22,-201.61 0.13,-302.43 -0.18,-28.3 -1.31,-56.73 -6.43,-84.56 -0.35,-3.18 -1.35,-6.12 -3.52,-8.39 -5.05,22.7 -6.23,46.09 -6.88,69.31 -0.32,109.6 0.13,219.23 -0.05,328.84 -0.68,25.06 -9.85,50.5 -27.4,67.93 -24.92,24.36 -63.69,28.78 -94.71,15.84 -24.26,-10.15 -41.72,-34.04 -47.62,-60.34 -5,-18.83 -3.16,-38.51 -3.42,-57.81 -0.15,-169.2 0,-338.44 -0.1,-507.65 0.63,-20.62 5.98,-41.53 17.58,-58.39 23.96,-36.12 77.12,-46.58 111.48,-20.96 9.82,7.13 17.31,17.12 23.53,27.7 25.97,-19.91 55.63,-38.9 88.88,-38.96 32.98,0.34 62.34,23.33 77.21,53.29 24.23,-26.96 55.38,-49.69 91.19,-54.5 29.76,-4.47 59.73,9.28 80.8,30.83 32.57,32.98 50.96,79.78 53.82,126.78 1.28,14.17 -0.45,28.43 0.8,42.58 15.37,-56.84 36.99,-113.99 76.1,-157.71zm527.73 -60.26c-4.95,5.18 -5.8,13.31 -8.29,19.96 -10.62,36.61 -14.72,74.86 -18.13,112.81 -5.12,69.23 -5.15,138.8 -2.71,208.14 3.16,51.48 6.73,103.87 22.73,153.03 2.48,5.29 3.34,14.83 10.82,13.84 6.48,-5.08 7.23,-14.57 10.22,-21.96 14.16,-49.5 17.58,-101.45 20.34,-152.8 2.06,-66.07 1.88,-132.33 -2.91,-198.3 -3.87,-42.66 -8.24,-85.9 -22.05,-126.52 -1.28,-4.58 -4.45,-11.28 -10.02,-8.2zm-7.31 -35.93c19.14,-5.44 40.86,6.08 47.77,25.57 14.57,38.64 19.99,80.2 24.31,121.25 7.06,72.94 7.33,146.4 5.25,219.63 -2.94,55.18 -6.48,111.05 -21.55,164.34 -4.52,14.23 -8.49,30.14 -20.22,39.93 -16.05,14.36 -42.62,11.83 -56.03,-5.24 -10.02,-13.3 -13.76,-30.4 -18.28,-46.37 -13.59,-55.82 -17.05,-113.68 -18.93,-171.05 -1.56,-74.47 -0.66,-149.19 8.11,-223.21 3.62,-29.59 8.74,-59.16 17.66,-87.54 4.22,-16.81 14.84,-33.27 31.92,-37.33zm286.31 89.07c-25.11,4.36 -39.18,31.67 -39.18,56.5 -0.23,147.3 0,294.59 -0.1,441.89 -0.05,33.43 3.37,67.36 14.29,98.98 6.85,19.41 17.58,38.98 35.49,49.18 15.62,8.89 34.43,7.24 51.31,3.95 24.29,-5.42 43.88,-23.17 59.53,-42.48 5.1,-6.92 14.77,-10.68 22.3,-5.63 9.97,5.81 9.04,19.57 15.22,28.46 14.44,25.07 48.97,28.9 72,15.49 18.08,-11.44 24.59,-34.93 24.42,-55.87 0.02,-177.12 -0.2,-354.27 -0.03,-531.37 -0.6,-17.23 -4.92,-35.69 -17.55,-47.66 -12.99,-12.94 -32.52,-14.47 -49.35,-11.39 -14.7,2.9 -27.25,14.1 -32.95,28.46 -6.63,15.36 -6.38,32.59 -6.1,49.08 -0.07,121.94 0.2,243.88 -0.2,365.79 0.2,15.57 -6.02,31.41 -17.58,41.4 -9.74,8.15 -23.53,11.52 -35.36,6.55 -16.78,-6.34 -27.35,-24.7 -28.58,-42.79 -2.51,-131.54 -0.61,-263.16 -1.43,-394.75 -0.81,-17.75 -7.76,-36.46 -22.25,-46.71 -12.78,-8.84 -29.16,-9.94 -43.88,-7.07zm384.46 -222.73c-15.75,3.55 -28.69,16.39 -33.63,32.32 -5.8,15.78 -4.24,32.88 -4.37,49.43 -0.1,35.14 0.22,70.25 -0.23,105.39 -0.25,9.55 1.21,19.28 -0.68,28.72 -2.66,9.84 -13.11,11.57 -20.62,15.65 -34.46,17.09 -34.5,78.43 0.38,95.11 5.28,3.02 11.83,4.66 15.27,10.31 5.98,9.34 6.03,21.02 6,31.85 -0.1,109.55 -0.02,219.1 -0.05,328.65 1.94,31.67 7.29,63.34 18.41,92.95 10.2,26.96 26.04,52.87 49.85,68.65 21.7,14.68 48.72,18.7 74.01,15.07 15.55,-2.47 31.94,-8.92 41.06,-23.15 9.24,-14.68 7.08,-33.32 4.59,-49.76 -2.01,-11.81 -7.91,-25.75 -20.7,-27.41 -21.87,-5.02 -40.16,-21.86 -49.75,-42.76 -10.87,-22.52 -12.45,-48.35 -11.98,-73.15 0.1,-97.19 -0.2,-194.4 0.13,-291.59 0.53,-13.39 5.95,-31.85 21.3,-32.51 13.48,-0.24 27.13,-5.58 36.24,-16.26 14.04,-16.57 15.93,-41.64 8.89,-61.86 -6.58,-18.1 -24.54,-28.75 -42.22,-30.93 -6.23,-1.29 -13.51,-0.55 -18.49,-5.36 -4.64,-3.89 -6.23,-10.26 -5.9,-16.23 0.13,-48.29 -0.02,-96.61 0.1,-144.93 -0.28,-17.99 -5.83,-37.43 -19.71,-49.03 -13.36,-11.1 -31.75,-12.75 -47.92,-9.18zm-680.86 -23.99c-28.15,5.26 -53.02,22.54 -72.35,44.11 -25.29,28.33 -42.52,63.47 -55.18,99.66 -20.49,59.68 -29.66,122.86 -34.98,185.8 -5.5,71.8 -5.83,144.03 -1.89,215.94 3.99,61 11.28,122.18 27.8,180.97 12.44,43.37 30.01,86.09 58.29,120.81 20.09,24.7 46.74,44.96 77.51,51.58 25.19,5.49 51.91,0.18 74.14,-13.12 34.93,-20.33 59.97,-55.02 77.88,-91.72 20.85,-43.38 32.88,-90.72 41.17,-138.3 12.96,-77.28 15.77,-155.95 14.57,-234.25 -0.78,-61.62 -5.33,-123.28 -15.72,-183.99 -8.57,-47.08 -20.72,-93.98 -41.82,-136.72 -17.63,-35.35 -42.17,-68.62 -76.07,-88.09 -22.1,-13.21 -48.4,-16.78 -73.34,-12.68zm-60.88 -11.94c24.37,-16.46 53.25,-26.17 82.38,-25.04 40.33,-0.16 78.86,19.81 107.37,48.93 34.89,35.06 57.44,81.33 73.08,128.7 13.24,40.58 22.1,82.67 27.55,125.15 7.18,-15.91 16.55,-31.32 30.94,-41.11 22.38,-15.73 51.64,-18.57 77.23,-10.84 20.7,6.15 38.3,21.94 47.94,42.03 9.52,19.42 12.01,41.66 11.03,63.23 0.25,115.42 -0.63,230.81 0.58,346.2 0.83,13.75 -1.06,28.8 6.25,41.06 8.77,-5.5 7.56,-17.75 8.26,-26.98 0.75,-118.39 0.15,-236.78 0.35,-355.14 -0.45,-18.75 -0.53,-37.99 5.8,-55.84 7.46,-22.93 23.98,-42.93 45.76,-51.82 22.81,-9.42 49.3,-9.23 71.9,0.79 16.63,7.29 30.06,21.28 38.38,37.93 8.09,-14.63 20.72,-25.8 35.03,-33.35 -0.4,-45.63 0.22,-91.32 -0.12,-136.98 -0.28,-27.15 8.13,-55.42 27.1,-74.62 27.15,-27.06 71.5,-30.49 103.85,-12.07 20.49,11.86 34.43,33.93 39.51,57.6 3.72,14.6 2.78,29.8 2.81,44.77 -0.03,37.82 0,75.65 -0.03,113.5 25.39,5.55 50.2,20.83 61.73,46.06 15.35,33.83 11.38,78.17 -13.56,105.95 -12.61,14.23 -30.06,22.93 -48.15,26.35 -0.03,91.25 0,182.46 0,273.68 0.15,23.22 -1.66,47.45 6.96,69.41 4.95,12.91 14.89,25.19 28.63,27.56 15.52,2.63 29.16,13.26 36.84,27.54 10.12,18.75 12.63,40.87 12.2,62.1 -0.35,22.07 -9.92,43.9 -26.17,58.05 -16.8,14.91 -38.8,21.78 -60.45,23.62 -43.37,3.74 -88.3,-14.02 -117.39,-48.18 -30.56,-35.09 -44.37,-82.36 -50.43,-128.54 -5.43,-37.27 -2.64,-74.99 -3.34,-112.53 0.05,-87.01 -0.38,-173.99 0.22,-261 -8.71,-4.87 -16.72,-10.9 -23.96,-17.89 0.18,152.53 0.03,305.09 0.08,457.62 1.71,28.61 -2.79,59.33 -20.97,81.85 -34.53,44.32 -111.08,39.59 -138.53,-10.7 -18.68,20.04 -42.87,35.35 -69.82,38.56 -26.29,4.58 -55.1,0.95 -76.55,-16.75 -30.46,-24.65 -44.05,-64.92 -50.76,-103.24 -8.66,-45.69 -3.66,-92.4 -5.7,-138.54 -9.29,49.63 -23.13,98.79 -46.04,143.51 -17.53,34.06 -40.98,65.44 -71.35,87.87 -24.59,17.91 -53.92,29.96 -84.14,29.8 -41.41,1.21 -81.02,-19.54 -110.35,-49.18 -32.37,-32.62 -54.27,-74.91 -69.7,-118.68 -16.88,-47.74 -26.52,-97.92 -32.87,-148.29 -8.77,-72.75 -10.57,-146.24 -8.67,-219.5 2.21,-67.93 7.96,-136.03 22.51,-202.42 10.5,-46.63 25.19,-92.77 48.87,-133.99 17.23,-29.93 39.63,-57.21 67.88,-76.17zm-1524.07 -12.33c-14.77,4.34 -23.89,20.12 -24.09,35.67 -0.4,28.91 -0.02,57.86 -0.17,86.77 -0.45,11.94 8.29,21.31 16.77,27.93 25.77,20.65 61.63,22.89 84.56,48 19.94,22.59 21.82,55.21 22.95,84.35 0.15,186.78 0,373.53 0.05,560.3 0.15,15.83 -1.28,32.25 4.27,47.38 4.62,14.73 15.77,27.54 30.31,31.67 17.88,5.39 39.26,3.37 53.57,-10.08 13.21,-12.67 17.63,-32.38 17.55,-50.52 -0.13,-185.02 -0.13,-370.05 -0.13,-555.07 -0.02,-24.54 -0.25,-49.48 5.68,-73.41 3.81,-16.04 11.93,-31.41 24.59,-41.56 23.81,-19.83 56.23,-22.62 79.99,-42.56 6.81,-5.97 14.72,-13.52 14.01,-23.7 -0.15,-29.11 0,-58.21 -0.07,-87.3 0.1,-10.84 -3.26,-22.01 -10.77,-29.72 -7.58,-7.63 -18.38,-10.6 -28.68,-10.6 -88.66,0.05 -177.31,-0.06 -265.96,0.05 -8.19,-0.05 -16.58,-0.42 -24.44,2.39zm8.32 -38.14l287.81 0c19.51,1.84 39.2,10.37 51.66,26.67 11.58,14.5 16.2,33.75 16.18,52.37 -0.05,28.88 0.05,57.76 -0.03,86.61 -0.1,17.25 -9.19,33.01 -21.2,44.24 -17.65,16.68 -40.08,26.23 -62.21,34.46 -12.5,4.89 -26.12,11.18 -32.39,24.38 -8.41,17.68 -8.09,38.09 -8.69,57.37 -0.07,193.85 -0.03,387.7 -0.03,581.55 -0.78,24.31 -9.32,48.98 -25.94,66.34 -24.59,25.67 -64.3,30.56 -95.81,17.57 -22.58,-9.34 -39.53,-30.57 -46.46,-54.68 -5.13,-16.23 -5.37,-33.51 -4.93,-50.42 -0.1,-175.36 -0.02,-350.72 -0.05,-526.06 -0.3,-23.75 1.13,-47.66 -2.41,-71.23 -1.93,-13.36 -7.39,-27.25 -18.84,-34.59 -16.22,-10.71 -35.43,-14.83 -52.19,-24.49 -24.21,-12.63 -47.89,-33.72 -51.36,-63.55l0 -91.71c1.38,-18.7 6.7,-37.93 19.51,-51.61 12.13,-13.97 29.79,-20.96 47.37,-23.23z"/>
   <g>
    <path class="fil5" d="M1838.93 821.56c151.86,-143.12 1349.22,-83.03 1291.32,3.28l-193.37 1310.99c-47.74,157.05 -857.93,166.36 -884.91,-6.56l-213.04 -1307.71z"/>
    <path class="fil1" d="M2382.54 1300.32c129.39,13.46 393.4,-16.74 460.94,-42.21l-51.75 -215.68c-4.73,-19.7 -24.71,-31.96 -44.42,-27.23l-373.78 89.68c-19.7,4.73 -31.95,24.72 -27.23,44.42l36.23 151.02zm477.28 25.87c-130.35,46.36 -291.62,63.39 -456.85,59.27l33.02 137.62c4.73,19.7 24.72,31.96 44.42,27.23l373.78 -89.68c19.7,-4.73 31.96,-24.72 27.23,-44.42l-21.6 -90.01zm-495.73 -260.67l373.78 -89.68c41.25,-9.9 83.32,15.89 93.21,57.14l20.71 86.3c61.03,18.19 122.3,42.07 183.85,72.09l-162.46 812.28c-192.53,144.49 -615.89,120.48 -768.77,-8.7l-162.46 -768.77c125.05,-60.84 250.79,-105.62 377.4,-130.36 10.46,-14.67 26,-25.8 44.73,-30.29zm-128.04 510.64l254.37 45c13.41,2.37 22.44,15.28 20.06,28.69l-45 254.37c-2.37,13.41 -15.28,22.44 -28.69,20.07l-254.37 -45c-13.41,-2.37 -22.44,-15.29 -20.07,-28.7l45 -254.37c2.37,-13.41 15.29,-22.44 28.7,-20.06z"/>
   </g>
   <path class="fil5" d="M1390.21 4023.84c0.39,-1.63 0.56,-92.44 0.35,-201.8 -0.29,-158.64 -0.03,-198.7 1.29,-198.2 0.91,0.35 1.65,1.1 1.65,1.68 0,0.57 2.38,4.96 5.28,9.74 2.9,4.78 5.28,9.05 5.28,9.5 0,0.45 1.12,2.39 2.48,4.31 1.37,1.93 3.74,5.73 5.28,8.45 1.54,2.72 3.98,7.03 5.44,9.57 1.45,2.54 3.89,6.85 5.42,9.57 1.53,2.72 3.25,5.54 3.82,6.27 0.57,0.73 2.29,3.55 3.82,6.27 2.62,4.66 4.67,8.27 10.51,18.48 1.35,2.36 4.32,7.44 6.6,11.28 2.28,3.84 4.14,7.55 4.14,8.25 0,0.7 0.53,1.26 1.17,1.26 0.64,0 1.52,1.04 1.94,2.31 0.43,1.27 1.85,4.09 3.16,6.27 8.97,14.97 12.22,20.76 12.22,21.85 0,0.69 0.52,1.25 1.17,1.25 0.64,0 1.51,1.04 1.94,2.31 0.43,1.27 1.85,4.09 3.15,6.27 8.98,14.97 12.22,20.76 12.22,21.85 0,0.69 0.53,1.25 1.17,1.25 0.64,0 1.51,1.04 1.95,2.31 0.43,1.27 1.85,4.09 3.15,6.27 7.95,13.24 12.22,20.69 12.22,21.28 0,0.37 1.78,3.27 3.96,6.44 2.17,3.16 3.96,6.03 3.96,6.37 0,0.34 2.38,4.53 5.28,9.31 2.9,4.78 5.28,9.06 5.28,9.5 0,0.44 1.11,2.39 2.48,4.31 1.37,1.93 3.74,5.73 5.28,8.45 1.54,2.72 3.98,7.03 5.44,9.57 1.45,2.54 3.89,6.85 5.42,9.57 1.53,2.72 3.25,5.54 3.82,6.27 0.57,0.72 2.29,3.55 3.82,6.27 2.62,4.66 4.67,8.27 10.52,18.48 1.35,2.36 4.32,7.43 6.6,11.28 2.28,3.84 4.15,7.56 4.15,8.25 0,0.69 0.53,1.26 1.17,1.26 0.64,0 1.52,1.04 1.94,2.31 0.43,1.27 1.85,4.09 3.15,6.27 8.98,14.97 12.22,20.76 12.22,21.85 0,0.69 0.53,1.25 1.17,1.25 0.64,0 1.52,1.04 1.95,2.31 0.43,1.27 1.85,4.09 3.15,6.27 8.98,14.96 12.22,20.76 12.22,21.85 0,0.69 0.52,1.25 1.17,1.25 0.64,0 1.51,1.04 1.94,2.31 0.82,2.43 2.71,5.76 9.75,17.16l4.27 6.93 28.91 0c25.15,0 29.02,-0.27 29.71,-2.09 1.05,-2.73 1.05,-464.35 0,-467.08 -0.69,-1.8 -4.21,-2.09 -25.74,-2.09l-24.94 0 0 188.11c0,103.46 -0.48,188.11 -1.08,188.11 -0.59,0 -2.28,-2.23 -3.75,-4.95 -3.19,-5.89 -6.52,-11.7 -12.15,-21.18 -2.28,-3.84 -4.14,-7.32 -4.14,-7.72 0,-0.4 -1.12,-2.3 -2.49,-4.23 -1.37,-1.93 -3.75,-5.73 -5.28,-8.45 -2.66,-4.72 -5.04,-8.9 -10.53,-18.48 -1.35,-2.36 -4.32,-7.43 -6.6,-11.28 -2.28,-3.84 -4.14,-7.55 -4.14,-8.25 0,-0.7 -0.53,-1.26 -1.17,-1.26 -0.64,0 -1.52,-1.04 -1.95,-2.31 -0.43,-1.27 -1.85,-4.09 -3.15,-6.27 -7.11,-11.85 -12.22,-20.65 -12.22,-21.06 0,-0.25 -2.38,-4.37 -5.28,-9.15 -2.9,-4.78 -5.28,-9.29 -5.28,-10.03 0,-0.74 -0.53,-1.34 -1.17,-1.34 -0.64,0 -1.52,-1.04 -1.94,-2.31 -0.43,-1.27 -1.85,-4.09 -3.15,-6.27 -8.04,-13.41 -12.22,-20.7 -12.22,-21.32 0,-0.4 -1.12,-2.29 -2.49,-4.22 -1.37,-1.93 -3.75,-5.74 -5.28,-8.45 -2.66,-4.71 -5.04,-8.9 -10.53,-18.48 -1.35,-2.36 -4.32,-7.44 -6.6,-11.28 -2.28,-3.84 -4.14,-7.56 -4.14,-8.25 0,-0.7 -0.52,-1.26 -1.17,-1.26 -0.64,0 -1.52,-1.04 -1.94,-2.31 -0.43,-1.27 -1.85,-4.09 -3.15,-6.27 -7.95,-13.25 -12.22,-20.69 -12.22,-21.29 0,-0.37 -1.65,-3.16 -3.67,-6.2 -2.02,-3.03 -4.54,-7.3 -5.61,-9.48 -1.07,-2.17 -2.24,-4.25 -2.6,-4.62 -0.36,-0.36 -1.46,-2.08 -2.44,-3.81 -4.55,-8.08 -6.74,-11.88 -10.58,-18.36 -2.28,-3.84 -4.14,-7.31 -4.14,-7.72 0,-0.4 -1.12,-2.3 -2.49,-4.23 -1.36,-1.93 -3.74,-5.73 -5.28,-8.45 -2.66,-4.71 -5.04,-8.9 -10.53,-18.48 -1.35,-2.36 -4.32,-7.43 -6.6,-11.28 -2.28,-3.84 -4.14,-7.55 -4.14,-8.25 0,-0.7 -0.52,-1.26 -1.17,-1.26 -0.64,0 -1.52,-1.04 -1.94,-2.31 -0.82,-2.43 -2.71,-5.76 -9.75,-17.16l-4.28 -6.93 -37.63 0 -37.63 0 0 235.63 0 235.63 25.05 0c24.89,0 25.06,-0.02 25.78,-2.97zm1613.09 8.2c13.82,-1.46 30.62,-5.45 39.26,-9.33 3.08,-1.38 6.18,-2.51 6.89,-2.51 1.51,0 9.72,-4.49 14.78,-8.08 1.93,-1.37 3.85,-2.49 4.28,-2.49 0.42,0 4.33,-2.7 8.68,-6.02 11.65,-8.85 25.88,-23.67 33.33,-34.69 7.29,-10.78 19.48,-34.07 19.5,-37.24 0.01,-1.12 0.51,-2.61 1.12,-3.3 3.07,-3.47 9.54,-30.78 12.02,-50.72 2.74,-22.01 0.84,-60.26 -3.96,-79.9 -7.42,-30.36 -19.51,-56.43 -35.38,-76.28 -8.23,-10.3 -29.59,-29.99 -32.52,-29.99 -0.47,0 -3.44,-1.78 -6.61,-3.96 -3.17,-2.18 -6.57,-3.96 -7.56,-3.96 -0.99,0 -2.37,-0.5 -3.06,-1.11 -1.46,-1.29 -13.4,-5.83 -21.05,-7.98 -27.33,-7.72 -65.72,-6.74 -94.1,2.39 -7.51,2.41 -11.05,3.81 -21.41,8.46 -8.32,3.73 -39.53,27.2 -39.63,29.81 -0.02,0.43 -2.97,4.05 -6.57,8.05 -3.59,3.99 -6.55,8 -6.57,8.91 -0.02,0.91 -0.62,1.65 -1.35,1.65 -0.73,0 -1.32,0.89 -1.32,1.98 0,1.09 -0.45,1.99 -0.99,1.99 -0.54,0 -1.65,1.34 -2.46,2.97 -0.81,1.63 -3.3,6.52 -5.54,10.88 -6.27,12.21 -9.49,19.47 -9.49,21.39 0,0.96 -0.52,2.78 -1.16,4.04 -3.6,7.13 -9.08,33.83 -10.42,50.81 -1.48,18.75 0.34,54.89 3.59,70.95 6.35,31.44 19.14,61.65 34.33,81.09 5.57,7.13 20.01,21.49 26.46,26.31 9.9,7.41 16.86,11.29 31.02,17.32 19.96,8.5 47.22,11.57 75.9,8.55zm-30.36 -46.25c-17.2,-3.24 -35.07,-12.51 -46.88,-24.32 -11.11,-11.11 -21.86,-31.17 -25.82,-48.2 -9.81,-42.08 -10.05,-88.36 -0.66,-122.98 3.42,-12.62 4.36,-15.14 9.31,-25.02 11.82,-23.64 31.55,-40.5 55.52,-47.45 8.63,-2.51 35.96,-2.53 44.84,-0.06 21.26,5.95 44.18,22.98 52.97,39.38 1.47,2.74 3.32,6.17 4.11,7.62 5.72,10.48 10.51,25.75 13.64,43.39 3.29,18.53 3.59,64.3 0.55,82.17 -2.57,15.08 -4.81,24.59 -6.17,26.18 -0.59,0.69 -1.08,2.33 -1.08,3.65 0,1.32 -0.52,3.42 -1.15,4.68 -0.64,1.26 -2.42,4.82 -3.96,7.91 -6.95,13.91 -9.34,17.39 -18.58,27.12 -5.41,5.69 -13.19,12.32 -17.3,14.73 -17.72,10.39 -40.66,14.72 -59.33,11.19zm-1076.5 46.28c22.01,-2.25 36.8,-6.52 56.76,-16.39 15.94,-7.88 21.6,-11.92 36.1,-25.8 12.58,-12.04 21.25,-23.39 27.53,-36.06 12.36,-24.94 12.63,-23.29 -4.56,-26.99 -31.06,-6.66 -36.43,-7.45 -38.57,-5.67 -1.11,0.92 -2.02,2.48 -2.02,3.46 0,0.97 -1.28,4.02 -2.84,6.77 -1.56,2.75 -4.09,7.34 -5.61,10.22 -3.1,5.85 -22.97,27.12 -25.34,27.12 -0.84,0 -2.27,0.9 -3.18,2 -2.27,2.73 -16.87,9.57 -26.08,12.21 -5.41,1.55 -13.03,2.19 -26.71,2.23 -16.81,0.06 -20.35,-0.33 -29.04,-3.16 -12.94,-4.21 -25.34,-10.57 -33.57,-17.2 -6.86,-5.53 -18.92,-18.29 -20.92,-22.13 -12.37,-23.8 -14.46,-30.09 -17.37,-52.49 -2.45,-18.83 -2.65,-32.34 -0.49,-32.35 0.95,-0.01 57.33,0 125.31,0.01 109.86,0.03 123.77,-0.2 125.27,-2.01 3.33,-4.02 -0.62,-46.24 -6.49,-69.27 -4.24,-16.66 -6.93,-23.81 -14.89,-39.6 -20.78,-41.24 -53.66,-66.16 -99.43,-75.37 -13.49,-2.71 -52.41,-2.4 -65.64,0.52 -11.1,2.45 -20.2,5.24 -27.42,8.4 -10.73,4.7 -26.35,13.04 -27.72,14.79 -0.36,0.46 -3.03,2.59 -5.94,4.72 -11.31,8.32 -31.26,30.37 -37.08,40.99 -0.8,1.45 -2.67,4.79 -4.17,7.41 -6.19,10.83 -9.25,17.75 -13.38,30.21 -4.52,13.65 -5.15,15.93 -7.26,26.4 -3.27,16.24 -4.9,32.52 -4.74,47.38 0.82,78.83 33.6,139.38 89.99,166.22 4.85,2.31 9.72,4.2 10.81,4.2 1.09,0 2.31,0.53 2.71,1.17 0.4,0.64 2.36,1.48 4.37,1.86 2,0.38 7.42,1.64 12.03,2.81 16.68,4.21 39.14,5.49 59.6,3.4zm-113.95 -217.46c-1.38,-2.34 3.29,-26.39 6.86,-35.32 3.14,-7.85 10.2,-21.74 11.05,-21.76 0.54,-0.01 0.99,-0.65 0.99,-1.42 0,-1.64 6.83,-10.54 12.72,-16.58 9.68,-9.92 25.21,-19.5 38.65,-23.82 10.02,-3.23 36.63,-3.85 47.96,-1.13 29.62,7.12 48.71,23.97 62.12,54.82 4.11,9.46 7.58,26.63 7.88,38.98l0.16 6.56 -93.91 0.34c-51.65,0.19 -94.17,-0.11 -94.49,-0.66zm1665.67 158.85l0 -53.34 6.23 -7.71c3.42,-4.24 8.7,-10.38 11.73,-13.65 3.03,-3.27 7.2,-8.02 9.26,-10.56 2.06,-2.54 4.07,-4.92 4.47,-5.28 0.39,-0.36 3.97,-4.51 7.94,-9.22 3.98,-4.71 9.83,-11.37 13.01,-14.8 3.18,-3.43 6.72,-7.6 7.86,-9.27 3.52,-5.09 12.41,-14.21 13.32,-13.64 0.47,0.29 4.39,7.55 8.71,16.14 4.32,8.58 8.16,15.9 8.53,16.27 0.37,0.36 2.98,5.12 5.8,10.56 2.81,5.45 9.41,18.22 14.66,28.38 5.25,10.16 11.63,22.34 14.17,27.06 2.54,4.72 9.31,17.79 15.04,29.04 5.73,11.25 10.71,20.76 11.07,21.12 0.37,0.36 3.73,6.6 7.48,13.86 3.75,7.26 8.54,16.47 10.63,20.46l3.81 7.26 29.3 0.35c18.99,0.23 29.3,-0.11 29.3,-0.97 0,-1.27 -4.98,-11 -12.19,-23.8 -1.84,-3.27 -5.4,-9.8 -7.92,-14.52 -2.52,-4.72 -6.08,-11.25 -7.92,-14.52 -1.84,-3.27 -5.4,-9.8 -7.92,-14.52 -2.52,-4.72 -6.08,-11.25 -7.92,-14.52 -1.84,-3.27 -5.4,-9.8 -7.92,-14.52 -2.52,-4.72 -6.08,-11.25 -7.92,-14.52 -1.84,-3.27 -5.4,-9.8 -7.92,-14.52 -2.52,-4.72 -6.08,-11.26 -7.92,-14.52 -1.84,-3.27 -5.4,-9.8 -7.92,-14.52 -2.52,-4.72 -6.08,-11.26 -7.92,-14.52 -1.84,-3.27 -5.4,-9.8 -7.92,-14.52 -2.52,-4.72 -6.08,-11.25 -7.92,-14.52 -7.68,-13.66 -12.89,-24.1 -12.89,-25.86 0,-1.03 3.2,-5.29 7.12,-9.46 3.91,-4.17 8.8,-9.66 10.86,-12.2 2.06,-2.54 6.81,-7.89 10.56,-11.88 3.75,-3.99 8.5,-9.34 10.56,-11.88 2.06,-2.54 6.81,-7.89 10.56,-11.88 3.75,-3.99 8.5,-9.34 10.57,-11.88 2.07,-2.54 4.07,-4.92 4.45,-5.28 0.38,-0.36 5.14,-5.7 10.58,-11.85 5.43,-6.16 12.36,-13.88 15.39,-17.16 8.21,-8.91 13.75,-16.18 13.32,-17.47 -0.43,-1.3 -54.91,-1.6 -57.85,-0.32 -1.04,0.45 -6.35,5.87 -11.8,12.03 -10.28,11.64 -11.73,13.24 -23.76,26.34 -23.36,25.43 -31.72,34.66 -35.13,38.79 -2.1,2.54 -8.06,9.08 -13.24,14.52 -5.18,5.45 -11.12,11.97 -13.2,14.51 -2.08,2.53 -7.4,8.48 -11.83,13.2 -4.43,4.72 -10.37,11.25 -13.2,14.49 -2.83,3.25 -8.77,9.78 -13.2,14.52 -4.43,4.74 -10.37,11.29 -13.2,14.54 -7.68,8.84 -8.07,9.2 -8.95,8.31 -0.45,-0.45 -0.82,-67.25 -0.82,-148.44l0 -147.63 -27.06 0c-23.18,0 -27.06,0.29 -27.07,1.98 -0,1.09 -0,106.23 -0,233.65 0,127.42 0,232.56 0,233.65 0,1.7 3.89,1.98 27.07,1.98l27.06 0 0 -53.34zm-214.2 51.03c-0.01,-1.27 0.19,-46.56 0.43,-100.65 0.47,-103.9 0.49,-104.1 6.79,-123.42 5.16,-15.82 17.74,-36.99 28.63,-48.18 6.67,-6.86 16.22,-14.52 18.1,-14.52 0.71,0 1.48,-0.45 1.73,-0.99 0.62,-1.4 11.19,-6.42 18.52,-8.8 9.07,-2.94 21.45,-4.71 33.07,-4.72l10.23 -0.01 0 -26.32c0,-14.48 -0.53,-26.65 -1.18,-27.05 -0.65,-0.4 -8.82,-0.76 -18.15,-0.79 -16.38,-0.06 -27.43,1.63 -36.11,5.52 -1.82,0.82 -4.79,2.13 -6.6,2.91 -20.52,8.92 -47.97,42.4 -56.66,69.13 -1,3.06 -2.32,5.25 -2.93,4.87 -0.62,-0.38 -1.13,-16.93 -1.13,-36.78 0,-31.68 -0.25,-36.18 -2.09,-36.88 -3.36,-1.29 -45.21,-0.92 -46.02,0.41 -0.54,0.88 -1.01,220.41 -0.73,346.29 0,2.13 2.17,2.31 27.06,2.31 24.9,0 27.06,-0.18 27.05,-2.31zm-478.86 1.98c0.17,-0.18 0.61,-45.65 0.99,-101.03 0.45,-64.94 1.16,-101.04 2.01,-101.64 0.72,-0.52 2.19,-2.72 3.26,-4.9 1.07,-2.18 3.59,-6.44 5.61,-9.48 2.02,-3.03 3.67,-5.87 3.67,-6.29 0,-0.43 2.38,-4.69 5.28,-9.47 2.9,-4.78 5.28,-8.9 5.28,-9.16 0,-0.26 1.86,-3.61 4.14,-7.46 3.84,-6.48 6.03,-10.28 10.58,-18.36 0.97,-1.74 2.07,-3.45 2.44,-3.81 0.36,-0.36 1.54,-2.44 2.6,-4.62 1.07,-2.18 3.59,-6.44 5.61,-9.48 2.02,-3.03 3.67,-5.87 3.67,-6.29 0,-0.43 2.38,-4.69 5.28,-9.47 2.91,-4.78 5.28,-8.9 5.28,-9.16 0,-0.26 1.87,-3.61 4.14,-7.45 2.28,-3.84 5.25,-8.92 6.6,-11.28 1.35,-2.36 3.56,-6.22 4.91,-8.58 1.35,-2.36 4.05,-6.96 6,-10.23 1.95,-3.26 3.88,-6.98 4.3,-8.25 0.42,-1.27 1.28,-2.31 1.92,-2.31 0.64,0 1.17,-0.6 1.17,-1.35 0,-0.74 2.38,-5.26 5.28,-10.04 2.9,-4.78 5.28,-8.9 5.28,-9.16 0,-0.26 1.87,-3.61 4.15,-7.46 2.28,-3.84 5.25,-8.92 6.6,-11.28 1.35,-2.36 3.56,-6.22 4.91,-8.58 1.35,-2.36 4.05,-6.96 6,-10.23 1.95,-3.27 3.89,-6.98 4.3,-8.25 0.42,-1.27 1.28,-2.31 1.92,-2.31 0.64,0 1.16,-0.57 1.16,-1.26 0,-0.7 1.87,-4.41 4.16,-8.25 2.28,-3.85 5.94,-10.26 8.12,-14.25 2.18,-3.99 4.97,-8.74 6.2,-10.56 1.23,-1.82 2.57,-4.65 2.98,-6.3l0.74 -3 -27.79 0.35c-23.07,0.3 -27.98,0.69 -28.9,2.34 -2.51,4.47 -11.16,19.41 -13.37,23.1 -1.31,2.18 -2.73,5 -3.15,6.27 -0.43,1.27 -1.3,2.31 -1.95,2.31 -0.64,0 -1.17,0.57 -1.17,1.26 0,0.69 -1.87,4.41 -4.14,8.25 -2.28,3.84 -5.25,8.92 -6.6,11.28 -5.49,9.59 -7.87,13.77 -10.53,18.48 -1.54,2.72 -3.91,6.52 -5.28,8.45 -1.37,1.93 -2.49,3.87 -2.49,4.32 0,0.45 -2.38,4.72 -5.28,9.5 -2.9,4.78 -5.28,8.97 -5.28,9.31 0,0.34 -1.78,3.21 -3.96,6.38 -2.18,3.16 -3.96,6.06 -3.96,6.43 0,0.6 -4.27,8.04 -12.22,21.29 -1.31,2.18 -2.72,5 -3.15,6.27 -0.43,1.27 -1.3,2.31 -1.94,2.31 -0.64,0 -1.17,0.56 -1.17,1.24 0,1.09 -3.24,6.89 -12.22,21.86 -1.31,2.18 -2.72,5 -3.16,6.27 -0.43,1.27 -1.3,2.31 -1.94,2.31 -0.64,0 -1.16,0.57 -1.16,1.26 0,0.7 -1.87,4.41 -4.15,8.25 -6.37,10.75 -9.32,15.9 -11.33,19.83 -2.63,5.13 -3.68,5.37 -5.74,1.3 -0.99,-1.98 -3.33,-5.96 -5.19,-8.86 -1.86,-2.91 -4.25,-7.06 -5.32,-9.24 -1.07,-2.18 -2.24,-4.26 -2.6,-4.62 -0.36,-0.36 -1.46,-2.08 -2.44,-3.81 -4,-7.1 -7.66,-13.54 -14.54,-25.56 -1.35,-2.36 -4.32,-7.43 -6.6,-11.28 -2.28,-3.84 -4.14,-7.32 -4.14,-7.72 0,-0.4 -1.1,-2.3 -2.44,-4.23 -1.34,-1.93 -4.22,-6.77 -6.4,-10.77 -2.18,-3.99 -5.84,-10.4 -8.12,-14.25 -2.28,-3.84 -4.15,-7.56 -4.15,-8.25 0,-0.69 -0.45,-1.26 -0.99,-1.27 -0.54,-0 -1.64,-1.34 -2.44,-2.97 -2.73,-5.57 -7.79,-14.84 -8.45,-15.5 -0.36,-0.36 -1.46,-2.08 -2.44,-3.81 -3.99,-7.1 -7.66,-13.54 -14.54,-25.56 -1.35,-2.36 -4.32,-7.43 -6.6,-11.28 -2.28,-3.84 -4.14,-7.2 -4.14,-7.45 0,-0.26 -2.38,-4.38 -5.28,-9.16 -2.9,-4.78 -5.28,-9.01 -5.28,-9.39 0,-0.39 -2.16,-3.96 -4.8,-7.94l-4.81 -7.24 -34.67 0 -34.67 0 0.75 2.85c0.41,1.57 3.03,6.61 5.82,11.2 2.79,4.59 5.07,8.7 5.07,9.12 0,0.43 1.65,3.26 3.67,6.29 2.02,3.03 4.54,7.3 5.61,9.48 1.07,2.18 2.24,4.26 2.6,4.62 0.36,0.37 1.46,2.08 2.43,3.81 4,7.1 7.66,13.54 14.54,25.56 1.35,2.36 4.32,7.43 6.6,11.28 2.28,3.85 4.14,7.3 4.14,7.68 0,0.38 1.65,3.18 3.67,6.21 2.02,3.04 4.54,7.3 5.61,9.48 1.07,2.18 2.24,4.26 2.6,4.62 0.36,0.36 1.46,2.08 2.44,3.81 3.99,7.1 7.66,13.54 14.54,25.56 1.35,2.36 4.32,7.43 6.6,11.28 2.28,3.84 4.15,7.2 4.15,7.45 0,0.26 2.38,4.38 5.28,9.16 2.9,4.78 5.28,9.29 5.28,10.03 0,0.74 0.52,1.34 1.17,1.34 0.64,0 1.5,1.04 1.92,2.31 0.42,1.27 2.35,4.98 4.3,8.25 1.95,3.26 4.65,7.87 6,10.23 1.35,2.36 3.56,6.22 4.91,8.58 1.35,2.36 4.32,7.43 6.6,11.28 2.28,3.85 4.14,7.2 4.14,7.46 0,0.25 2.38,4.38 5.28,9.16 2.9,4.78 5.28,9.3 5.28,10.03 0,0.74 0.52,1.35 1.17,1.35 0.64,0 1.51,1.04 1.92,2.31 0.42,1.27 2.36,4.98 4.32,8.25 1.96,3.27 4.36,7.42 5.33,9.24 1.43,2.67 1.76,21.95 1.77,100.55 0,53.48 0.37,98.18 0.81,99.33 0.7,1.82 4.62,2.09 30.36,2.09 16.26,0 29.7,-0.15 29.86,-0.33zm-567.95 -10.56c1.64,-5.99 3.51,-12.67 4.15,-14.85 0.64,-2.18 2.94,-10.5 5.12,-18.48 2.17,-7.99 4.47,-16.31 5.1,-18.48 1.63,-5.62 3.68,-13.02 6.78,-24.42 1.48,-5.44 3.27,-11.98 3.97,-14.52 0.7,-2.54 3.07,-11.16 5.27,-19.14 4.16,-15.12 6.17,-22.35 8.09,-29.04 0.62,-2.18 2.34,-8.42 3.81,-13.86 1.47,-5.44 3.25,-11.98 3.94,-14.52 0.7,-2.54 3.07,-11.16 5.25,-19.14 2.19,-7.99 4.49,-16.3 5.12,-18.48 0.63,-2.18 1.83,-6.34 2.67,-9.24 0.84,-2.9 2.89,-10.56 4.56,-17.02 3.35,-12.94 3.4,-12.93 7.5,1.84 0.91,3.27 2.68,9.21 3.94,13.2 1.25,3.99 3.03,9.94 3.96,13.2 0.92,3.27 2.7,9.21 3.96,13.21 1.26,3.99 3.04,9.93 3.96,13.2 0.92,3.27 2.7,9.21 3.96,13.2 1.25,3.99 3.03,9.93 3.96,13.2 0.92,3.27 2.7,9.21 3.96,13.2 1.26,3.99 3.04,9.93 3.96,13.2 0.92,3.27 2.7,9.21 3.96,13.2 1.25,4 3.03,9.94 3.96,13.2 0.92,3.27 2.7,9.21 3.96,13.2 1.26,3.99 3.04,9.93 3.96,13.2 0.92,3.27 2.7,9.21 3.96,13.2 1.25,3.99 3.03,9.93 3.96,13.2 0.92,3.27 2.7,9.21 3.96,13.2 1.26,3.99 3.04,9.94 3.97,13.2 2.73,9.61 6.81,22.87 8.04,26.07 1.11,2.92 1.51,2.97 23.64,2.97 16.85,0 22.64,-0.41 23.02,-1.65 1.55,-4.99 6.23,-20.86 7.49,-25.41 0.8,-2.91 1.92,-6.77 2.48,-8.58 0.56,-1.82 1.74,-5.97 2.64,-9.24 0.89,-3.27 2.08,-7.42 2.64,-9.24 0.56,-1.82 1.75,-5.97 2.64,-9.24 0.89,-3.27 2.08,-7.42 2.64,-9.24 0.56,-1.81 1.67,-5.68 2.48,-8.58 0.8,-2.9 2.59,-9.14 3.97,-13.86 1.38,-4.72 3.78,-13.04 5.33,-18.48 1.55,-5.45 3.97,-13.76 5.38,-18.48 1.4,-4.72 3.73,-12.74 5.18,-17.82 1.44,-5.09 3.81,-13.4 5.26,-18.48 1.45,-5.08 3.83,-13.4 5.28,-18.48 1.45,-5.08 3.88,-13.54 5.38,-18.8 1.5,-5.25 3.97,-13.87 5.48,-19.14 1.5,-5.27 3.87,-13.45 5.25,-18.16 1.38,-4.72 3.17,-10.96 3.97,-13.86 0.81,-2.9 1.92,-6.77 2.48,-8.58 0.56,-1.82 1.75,-5.97 2.64,-9.24 0.89,-3.27 2.08,-7.42 2.64,-9.24 0.56,-1.82 1.67,-5.68 2.48,-8.58 0.8,-2.9 2.59,-9.14 3.97,-13.86 1.38,-4.71 3.79,-13.04 5.35,-18.48 1.56,-5.45 3.64,-12.58 4.61,-15.84 1.21,-4.05 1.35,-6.47 0.45,-7.59 -0.96,-1.19 -6.94,-1.65 -21.38,-1.65 -22.38,0 -23.21,0.28 -25.54,8.58 -1.41,5.01 -4.36,14.96 -13.34,44.88 -2.18,7.26 -5.74,19.14 -7.93,26.4 -2.18,7.26 -5.74,19.14 -7.92,26.4 -2.18,7.26 -5.84,19.44 -8.14,27.06 -2.29,7.62 -5.86,19.5 -7.92,26.4 -4.2,14.05 -9.63,32.16 -15.83,52.8 -2.29,7.63 -5.89,19.36 -8,26.07 -2.11,6.71 -3.82,13.13 -3.82,14.27 0,4.74 -2.64,-0.18 -5.88,-10.97 -6.46,-21.49 -10.99,-36.57 -15.18,-50.48 -2.29,-7.63 -5.96,-19.8 -8.13,-27.06 -2.18,-7.26 -5.74,-19.14 -7.92,-26.4 -2.18,-7.26 -5.65,-18.84 -7.71,-25.74 -2.06,-6.9 -5.53,-18.48 -7.71,-25.74 -2.18,-7.26 -5.74,-19.14 -7.92,-26.4 -2.18,-7.26 -5.83,-19.44 -8.12,-27.06 -8.96,-29.87 -9.56,-31.43 -12.48,-32.22 -1.53,-0.41 -10.28,-0.75 -19.45,-0.76 -13.15,-0.02 -17.01,0.4 -18.3,1.94 -0.89,1.08 -2.8,6.28 -4.24,11.55 -1.44,5.27 -3.12,11.37 -3.74,13.55 -1.25,4.4 -2.63,9.36 -5.87,21.12 -2.24,8.15 -3.92,14.15 -8.56,30.69 -1.48,5.26 -3.89,13.88 -5.37,19.14 -4.64,16.54 -6.32,22.53 -8.56,30.69 -3.24,11.76 -4.62,16.72 -5.87,21.12 -5.68,19.97 -8.77,30.98 -12.7,45.21 -1.15,4.18 -2.6,9.37 -3.23,11.55 -0.62,2.18 -1.7,6.04 -2.4,8.58 -0.7,2.54 -2.55,9.08 -4.1,14.52 -1.55,5.45 -3.79,13.63 -4.97,18.19l-2.14 8.29 -1.56 -4.99c-0.86,-2.74 -2.23,-7.37 -3.06,-10.27 -0.83,-2.9 -2.63,-9.14 -4.01,-13.86 -1.38,-4.71 -3.81,-13.03 -5.39,-18.48 -1.58,-5.45 -4.02,-13.76 -5.43,-18.48 -1.41,-4.72 -3.22,-10.96 -4.02,-13.86 -0.81,-2.9 -1.92,-6.77 -2.48,-8.58 -0.56,-1.81 -1.67,-5.67 -2.48,-8.58 -0.81,-2.9 -2.59,-9.14 -3.97,-13.86 -1.38,-4.72 -3.8,-13.04 -5.38,-18.48 -1.58,-5.45 -4.03,-13.76 -5.43,-18.48 -1.4,-4.72 -3.21,-10.95 -4.02,-13.86 -0.8,-2.9 -1.92,-6.77 -2.48,-8.58 -0.56,-1.82 -1.67,-5.68 -2.48,-8.58 -0.8,-2.9 -2.59,-9.14 -3.97,-13.86 -1.38,-4.72 -3.78,-13.03 -5.32,-18.48 -1.55,-5.44 -3.9,-13.46 -5.23,-17.82 -1.33,-4.36 -3.15,-10.59 -4.03,-13.86 -0.89,-3.27 -2.33,-7.42 -3.21,-9.24l-1.6 -3.3 -25.69 -0.33c-14.13,-0.18 -26.51,0.2 -27.51,0.84 -1.8,1.15 -0.98,5.4 3.84,19.94 0.6,1.81 2.39,7.76 3.96,13.2 1.58,5.45 3.36,11.39 3.96,13.2 0.6,1.82 2.41,7.76 4.01,13.2 1.61,5.45 3.98,13.47 5.28,17.82 1.3,4.35 4.21,14.15 6.47,21.78 2.26,7.62 5.8,19.5 7.87,26.4 2.07,6.9 5.63,18.78 7.91,26.4 2.28,7.62 5.23,17.42 6.55,21.78 1.32,4.36 3.16,10.6 4.09,13.86 0.93,3.27 2.72,9.21 3.97,13.2 1.26,3.99 3.04,9.93 3.96,13.2 0.92,3.27 2.7,9.21 3.96,13.2 1.26,4 3.04,9.94 3.96,13.2 0.92,3.27 2.7,9.21 3.96,13.2 1.25,3.99 3.04,9.93 3.96,13.2 0.92,3.27 2.7,9.21 3.96,13.2 1.26,3.99 3.04,9.93 3.96,13.2 0.92,3.27 2.7,9.21 3.96,13.2 1.25,3.99 3.04,9.94 3.97,13.2 2.73,9.61 6.82,22.87 8.04,26.07 1.11,2.92 1.5,2.97 24.08,2.97l22.94 0 2.98 -10.89z"/>
  </g>
 </g>
</svg>
