<?xml version="1.0" encoding="UTF-8"?>
<!DOCTYPE svg PUBLIC "-//W3C//DTD SVG 1.1//EN" "http://www.w3.org/Graphics/SVG/1.1/DTD/svg11.dtd">
<!-- Creator: CorelDRAW -->
<svg xmlns="http://www.w3.org/2000/svg" xml:space="preserve" width="152.4mm" height="152.4mm" version="1.1" style="shape-rendering:geometricPrecision; text-rendering:geometricPrecision; image-rendering:optimizeQuality; fill-rule:evenodd; clip-rule:evenodd"
viewBox="0 0 15240 15240"
 xmlns:xlink="http://www.w3.org/1999/xlink"
 xmlns:xodm="http://www.corel.com/coreldraw/odm/2003">
 <defs>
  <style type="text/css">
   <![CDATA[
    .fil0 {fill:none}
    .fil1 {fill:#F17425}
    .fil2 {fill:#F4D93A}
    .fil3 {fill:white}
   ]]>
  </style>
 </defs>
 <g id="Capa_x0020_1">
  <metadata id="CorelCorpID_0Corel-Layer"/>
  <g id="_2981977679568">
   <rect class="fil0" x="-0" y="-0" width="15240" height="15240"/>
   <path class="fil1" d="M5302.97 620.06c602.29,-87.67 1258.56,-139.78 1925.26,-155.94l0 -2.44c130.23,-2.33 260.7,-3.31 391.1,-2.91l1.35 0c130.4,-0.4 260.88,0.57 391.1,2.91l0 2.44c666.7,16.16 1322.97,68.27 1925.26,155.94 1168.23,170.04 2034.35,454.91 2991.98,961.24 375,198.28 624.47,507.53 738.86,916.01 546.7,1952.26 593.62,4475.73 -355.27,6693.43 -1022.72,2390.25 -2931.53,4171.57 -5219.41,5347.67l-81.42 41.85 0 0.18 -19.03 9.6 -369.3 189.85 -3.43 1.43 -3.46 -1.43 -369.29 -189.85 -19.04 -9.6 0 -0.18 -81.42 -41.85c-2287.88,-1176.1 -4196.69,-2957.42 -5219.4,-5347.67 -948.9,-2217.7 -901.98,-4741.17 -355.27,-6693.43 114.39,-408.48 363.85,-717.73 738.85,-916.01 957.63,-506.33 1823.76,-791.2 2991.98,-961.24z"/>
   <path class="fil2" d="M5272.5 527.99c610.21,-88.82 1275.11,-141.62 1950.58,-157.99l0 -2.47c131.94,-2.36 264.13,-3.35 396.24,-2.95l1.37 0c132.12,-0.4 264.31,0.58 396.24,2.95l0 2.47c675.47,16.37 1340.37,69.17 1950.59,157.99 1183.59,172.28 2061.1,460.89 3031.33,973.89 379.93,200.88 632.68,514.2 748.57,928.05 553.9,1977.94 601.43,4534.6 -359.94,6781.46 -1036.17,2421.7 -2970.08,4226.45 -5288.06,5418.02l-82.49 42.4 0 0.18 -19.28 9.73 -374.16 192.34 -3.47 1.45 -3.5 -1.45 -374.16 -192.34 -19.28 -9.73 0 -0.18 -82.49 -42.4c-2317.98,-1191.57 -4251.89,-2996.32 -5288.05,-5418.02 -961.38,-2246.86 -913.85,-4803.52 -359.95,-6781.46 115.9,-413.85 368.64,-727.17 748.58,-928.05 970.22,-513 1847.74,-801.61 3031.33,-973.89zm151.33 1039.69c-1063.03,154.73 -2023.76,454.89 -2852.19,943.01 -1334,4290.73 309.12,8747.6 5049.28,11184.3 4789.49,-2416.98 6493.14,-6893.57 5159.14,-11184.3 -810,-477.25 -1746.44,-774.83 -2781.36,-932.47 -1360.59,-207.25 -3211.6,-208.97 -4574.87,-10.54z"/>
   <path class="fil3" d="M7793.73 2466.8c-39.86,203.29 -76.08,404.24 -109.11,603.11 -292.83,1762.91 -335.88,3364.21 -450.15,5011.58 -25.54,368.27 -5.36,699.42 -41.61,1074.63l-130.65 2416.73c-25.15,253.38 -27.51,527.92 -13.31,755.24 14.22,227.57 40.19,359.54 189.28,479.48 101.08,81.32 271,107.37 448.06,88.74 238.77,-25.12 522.95,-405.85 607.79,-698.55 34.13,-114.57 -7.53,-202.24 -143.33,-200.67 -62.56,-80.93 -100.32,-178.39 -121.84,-286.68 178.21,-1601.2 87.3,-1813.29 -30.8,-2512.24 -6.38,-37.81 -12.86,-77.04 -19.37,-118 40.62,-59.35 91.29,-104.47 150.3,-137.76 188.79,-106.54 462.95,-92.16 766.36,-36.35 66.22,12.31 121.04,11.67 155.73,-12.03 108.52,-74.16 132.91,-627.91 131.66,-734.33 -15.81,-1339.33 -494.11,-4533.52 -1050.12,-5645.48 -157.38,-256.36 -268.16,-260.28 -338.89,-47.42zm-135.78 7318.22c95.46,0 172.86,77.4 172.86,172.87 0,95.46 -77.4,172.86 -172.86,172.86 -95.47,0 -172.87,-77.4 -172.87,-172.86 0,-95.47 77.4,-172.87 172.87,-172.87zm-33.29 851.11c95.46,0 172.86,77.4 172.86,172.87 0,95.46 -77.4,172.86 -172.86,172.86 -95.47,0 -172.87,-77.4 -172.87,-172.86 0,-95.47 77.4,-172.87 172.87,-172.87zm-29.68 844.19c95.46,0 172.86,77.4 172.86,172.87 0,95.46 -77.4,172.86 -172.86,172.86 -95.47,0 -172.87,-77.4 -172.87,-172.86 0,-95.47 77.4,-172.87 172.87,-172.87z"/>
  </g>
 </g>
</svg>
