<?xml version="1.0" encoding="UTF-8"?>
<!DOCTYPE svg PUBLIC "-//W3C//DTD SVG 1.1//EN" "http://www.w3.org/Graphics/SVG/1.1/DTD/svg11.dtd">
<!-- Creator: CorelDRAW -->
<svg xmlns="http://www.w3.org/2000/svg" xml:space="preserve" width="152.4mm" height="152.4mm" version="1.1" style="shape-rendering:geometricPrecision; text-rendering:geometricPrecision; image-rendering:optimizeQuality; fill-rule:evenodd; clip-rule:evenodd"
viewBox="0 0 15240 15240"
 xmlns:xlink="http://www.w3.org/1999/xlink"
 xmlns:xodm="http://www.corel.com/coreldraw/odm/2003">
 <defs>
  <style type="text/css">
   <![CDATA[
    .fil0 {fill:none}
    .fil1 {fill:#F17425}
    .fil2 {fill:#F4D93A}
    .fil3 {fill:white}
   ]]>
  </style>
 </defs>
 <g id="Capa_x0020_1">
  <metadata id="CorelCorpID_0Corel-Layer"/>
  <g id="_2981977651392">
   <rect class="fil0" x="-0" y="-0" width="15240" height="15240"/>
   <ellipse id="contour" class="fil1" cx="7620.01" cy="7620" rx="7200.69" ry="7200.73"/>
   <path id="contour_129" class="fil2" d="M7620.01 364.25c4007.22,0 7255.71,3248.52 7255.71,7255.75 0,4007.22 -3248.49,7255.74 -7255.71,7255.74 -4007.22,0 -7255.7,-3248.52 -7255.7,-7255.74 0,-4007.23 3248.48,-7255.75 7255.7,-7255.75zm-0.06 985.8c3462.82,0 6270.01,2807.18 6270.01,6270 0,3462.82 -2807.19,6270.01 -6270.01,6270.01 -3462.82,0 -6270,-2807.19 -6270,-6270.01 0,-3462.82 2807.18,-6270 6270,-6270z"/>
   <path class="fil3" d="M7449.74 1818.07c-45.22,230.61 -86.31,458.56 -123.77,684.15 -332.18,1999.81 -381.02,3816.29 -510.64,5685.03 -28.98,417.75 -6.08,793.4 -47.21,1219.03l-148.2 2741.49c-28.53,287.42 -31.21,598.86 -15.1,856.72 16.13,258.15 45.59,407.86 214.71,543.91 114.67,92.25 307.42,121.8 508.27,100.67 270.86,-28.5 593.23,-460.39 689.47,-792.42 38.71,-129.97 -8.55,-229.42 -162.59,-227.64 -70.97,-91.8 -113.8,-202.36 -138.22,-325.2 202.16,-1816.36 99.03,-2056.95 -34.94,-2849.83 -7.23,-42.89 -14.58,-87.39 -21.97,-133.85 46.08,-67.33 103.56,-118.51 170.5,-156.28 214.16,-120.85 525.16,-104.54 869.34,-41.23 75.12,13.96 137.3,13.24 176.66,-13.65 123.1,-84.12 150.77,-712.28 149.35,-833 -17.94,-1519.31 -560.51,-5142.73 -1191.23,-6404.11 -178.53,-290.81 -304.2,-295.25 -384.43,-53.79zm-154.03 8301.62c108.29,0 196.09,87.8 196.09,196.1 0,108.29 -87.8,196.09 -196.09,196.09 -108.3,0 -196.1,-87.8 -196.1,-196.09 0,-108.3 87.8,-196.1 196.1,-196.1zm-37.76 965.48c108.29,0 196.09,87.8 196.09,196.1 0,108.29 -87.8,196.09 -196.09,196.09 -108.3,0 -196.1,-87.8 -196.1,-196.09 0,-108.3 87.8,-196.1 196.1,-196.1zm-33.67 957.63c108.29,0 196.09,87.8 196.09,196.1 0,108.29 -87.8,196.09 -196.09,196.09 -108.3,0 -196.1,-87.8 -196.1,-196.09 0,-108.3 87.8,-196.1 196.1,-196.1z"/>
  </g>
 </g>
</svg>
