<?xml version="1.0" encoding="UTF-8"?>
<!DOCTYPE svg PUBLIC "-//W3C//DTD SVG 1.1//EN" "http://www.w3.org/Graphics/SVG/1.1/DTD/svg11.dtd">
<!-- Creator: CorelDRAW -->
<svg xmlns="http://www.w3.org/2000/svg" xml:space="preserve" width="152.4mm" height="152.4mm" version="1.1" style="shape-rendering:geometricPrecision; text-rendering:geometricPrecision; image-rendering:optimizeQuality; fill-rule:evenodd; clip-rule:evenodd"
viewBox="0 0 13371.61 13371.61"
 xmlns:xlink="http://www.w3.org/1999/xlink"
 xmlns:xodm="http://www.corel.com/coreldraw/odm/2003">
 <defs>
  <style type="text/css">
   <![CDATA[
    .fil0 {fill:none}
    .fil1 {fill:black}
    .fil2 {fill:#ED3145}
   ]]>
  </style>
 </defs>
 <g id="Capa_x0020_1">
  <metadata id="CorelCorpID_0Corel-Layer"/>
  <g id="_2569382129040">
   <rect class="fil0" x="-0" y="-0" width="13371.61" height="13371.61"/>
   <ellipse id="contour" class="fil1" cx="6685.81" cy="6685.8" rx="6317.9" ry="6317.93"/>
   <path id="contour_0" class="fil2" d="M6685.81 319.59c3515.94,0 6366.17,2850.26 6366.17,6366.21 0,3515.94 -2850.23,6366.2 -6366.17,6366.2 -3515.94,0 -6366.17,-2850.26 -6366.17,-6366.2 0,-3515.95 2850.22,-6366.21 6366.17,-6366.21zm-0.05 1175.05c2867.02,0 5191.21,2324.19 5191.21,5191.2 0,2867.02 -2324.19,5191.21 -5191.21,5191.21 -2867.02,0 -5191.2,-2324.19 -5191.2,-5191.21 0,-2867.02 2324.19,-5191.2 5191.2,-5191.2z"/>
   <polygon class="fil2" points="6604.72,1380.38 7157.21,6089.71 11866.54,6642.2 7157.21,7194.7 6604.72,11904.02 6052.22,7194.7 1342.9,6642.2 6052.22,6089.71 "/>
   <polygon class="fil2" points="9932.69,3291.95 7321.2,6597.62 9932.69,9903.31 6627.01,7291.83 3321.33,9903.31 5932.82,6597.62 3321.33,3291.95 6627.01,5903.43 "/>
   <circle class="fil2" cx="6581.7" cy="6639.32" r="3028.13"/>
   <circle class="fil1" cx="6580.52" cy="6571.29" r="2555.7"/>
   <path class="fil2" d="M6316.43 8658.76c138.52,-85.55 157.21,-601.09 -140.21,-743.41 -150.98,-72.25 -338.68,-212.53 -471.82,-323.09 -117.36,-97.45 -256.64,-277.4 -329.22,-413.51 -72.05,-135.09 -209.98,-362.9 -34.96,-475.06 121.37,-77.77 278.43,-4.26 431.3,121.87 209.74,173.07 411.62,445.2 502.59,561.54 61.83,79.08 486.48,677.93 499.36,720.58 18.05,59.76 -28.9,339.94 38.41,474.26 72.18,144.04 235.14,75.51 377.77,48.78 152.95,-28.66 170.83,-63.55 175.6,-186.34 4.19,-107.43 1.25,-102.31 82.55,-144.35 253.55,-131.1 430.22,-301.57 619.54,-529.27 96.1,-115.58 125.39,-160.04 197.67,-284.73 84.99,-146.6 221.14,-431.04 251.76,-591.97 13.24,-69.6 5.69,-86.35 90.1,-97.02 88.51,-11.19 144.98,-53.11 181.89,-130.99l20.9 -44.15c11.61,-51.98 -8.14,-418.57 -8.69,-420.86 -28.04,-117.34 -32.14,-315.24 -164.72,-367.34 -85.99,-33.79 -223.9,23.17 -303.51,76.61 -323.24,217.02 -211.09,440.52 -266.41,763.11 -37.32,217.7 -130.72,619.63 -294.45,785.41 -85,86.06 -185.32,103.17 -286.88,47.15 -269.56,-148.7 -96.08,-627.07 -20.72,-858.57 67.68,-207.92 204.72,-558.3 304.82,-770.6 39.95,-84.72 115.01,-307.13 182.05,-352.36 111.33,-75.11 410.9,-270.13 349.6,-415.83 -6.43,-15.28 -229,-288.3 -318.86,-288.09 -86.4,0.19 -164.4,153.06 -272.58,60.31 -87.42,-74.96 -435.44,-179.88 -553.84,-197.29 -218.45,-32.13 -294.93,-58.87 -638.56,-41.39 -362.6,18.45 -573.04,116.66 -633.4,124.82 -65.08,8.8 -116.73,-154.7 -256.42,-162.04 -159.49,-8.38 -445.09,283.94 -536.96,390.9 -126.8,147.63 -128.32,226.74 67.68,369.49 109.61,79.83 316.27,150.81 446.51,96.01 75.6,-31.81 72.6,-22.63 174.46,-90.87l150.86 -83.77c207.53,-116.4 590,-208.01 834.85,-183.17 130.31,13.22 253.74,52.88 281.5,142.73 89.96,291.16 -414.2,407.2 -461.75,438.34 -48.01,31.45 -520.94,136.63 -595.89,146.73 -116.64,15.71 -156.24,32.54 -284.44,47.88 -167.08,19.99 -122.88,26.59 -326.03,44.41 -90.92,7.97 -191.21,43.76 -256.75,9.87 -112.41,-58.14 -490.96,-248.15 -552.82,-49.95 -143.43,459.51 -86.93,340.02 123.86,513.17 0,303.34 29.93,348.57 95.71,600.27 49.95,191.14 245.94,558.69 363.6,699.38 76.33,91.26 185.35,225.09 273.78,306.1 188.85,173.01 87.4,89.81 86.78,258.41 -0.72,199.04 251.61,245.86 342.09,305.09 62.53,40.94 393.82,135.03 462.26,92.78zm269.9 -2317.19c122.06,0 221.02,98.95 221.02,221.02 0,122.06 -98.95,221.02 -221.02,221.02 -122.06,0 -221.02,-98.95 -221.02,-221.02 0,-122.06 98.95,-221.02 221.02,-221.02z"/>
  </g>
 </g>
</svg>
