<?xml version="1.0" encoding="UTF-8"?>
<!DOCTYPE svg PUBLIC "-//W3C//DTD SVG 1.1//EN" "http://www.w3.org/Graphics/SVG/1.1/DTD/svg11.dtd">
<!-- Creator: CorelDRAW -->
<svg xmlns="http://www.w3.org/2000/svg" xml:space="preserve" width="152.4mm" height="152.4mm" version="1.1" style="shape-rendering:geometricPrecision; text-rendering:geometricPrecision; image-rendering:optimizeQuality; fill-rule:evenodd; clip-rule:evenodd"
viewBox="0 0 15240 15240"
 xmlns:xlink="http://www.w3.org/1999/xlink"
 xmlns:xodm="http://www.corel.com/coreldraw/odm/2003">
 <defs>
  <style type="text/css">
   <![CDATA[
    .fil0 {fill:none}
    .fil2 {fill:black}
    .fil1 {fill:#E51937}
   ]]>
  </style>
 </defs>
 <g id="Capa_x0020_1">
  <metadata id="CorelCorpID_0Corel-Layer"/>
  <g id="_2569646714624">
   <rect class="fil0" x="-0" y="-0" width="15240" height="15240"/>
   <path class="fil1" d="M5302.97 620.06c602.29,-87.67 1258.56,-139.78 1925.26,-155.94l0 -2.44c130.23,-2.33 260.7,-3.31 391.1,-2.91l1.35 0c130.4,-0.4 260.88,0.57 391.1,2.91l0 2.44c666.7,16.16 1322.97,68.27 1925.26,155.94 1168.23,170.04 2034.35,454.91 2991.98,961.24 375,198.28 624.47,507.53 738.86,916.01 546.7,1952.26 593.62,4475.73 -355.27,6693.43 -1022.72,2390.25 -2931.53,4171.57 -5219.41,5347.67l-81.42 41.85 0 0.18 -19.03 9.6 -369.3 189.85 -3.43 1.43 -3.46 -1.43 -369.29 -189.85 -19.04 -9.6 0 -0.18 -81.42 -41.85c-2287.88,-1176.1 -4196.69,-2957.42 -5219.4,-5347.67 -948.9,-2217.7 -901.98,-4741.17 -355.27,-6693.43 114.39,-408.48 363.85,-717.73 738.85,-916.01 957.63,-506.33 1823.76,-791.2 2991.98,-961.24z"/>
   <path class="fil2" d="M8299.83 6320.59l5319.85 624.11c30.66,3.6 53.49,29.27 53.49,60.14 0,30.87 -22.83,56.54 -53.49,60.14l-5319.34 624.06 -580.13 5426.64c-3.29,30.74 -28.81,53.86 -59.73,54.11 -30.91,0.25 -56.8,-22.46 -60.58,-53.15l-668.28 -5427.3 -5353.15 -605.53c-30.69,-3.48 -53.63,-29.08 -53.74,-59.96 -0.11,-30.89 22.67,-56.65 53.33,-60.33l5353.24 -642.8 624.14 -5319.98c3.6,-30.66 29.27,-53.49 60.14,-53.49 30.87,0 56.54,22.83 60.14,53.49l624.11 5319.85z"/>
   <path class="fil2" d="M8615.77 6954.04l2887.47 3693.56c37.74,48.27 33.41,116.33 -10.13,159.43 -43.55,43.11 -111.65,46.74 -159.53,8.51l-3653.3 -2916.52 -3653.3 2916.52c-47.88,38.23 -115.98,34.6 -159.53,-8.51 -43.54,-43.1 -47.87,-111.16 -10.13,-159.43l2886.42 -3692.21 -2993.07 -3693.25c-38.62,-47.67 -35.42,-115.91 7.49,-159.74 42.92,-43.84 111.08,-48.49 159.55,-10.88l3761.51 2918.4 3654.36 -2917.37c47.88,-38.23 115.98,-34.6 159.53,8.51 43.54,43.1 47.87,111.16 10.13,159.43l-2887.47 3693.55z"/>
   <circle class="fil2" cx="7589.33" cy="7001.56" r="3492.43"/>
   <ellipse class="fil1" cx="7605.01" cy="7009.31" rx="2929.81" ry="2947.28"/>
   <path class="fil2" d="M7237.29 9358.56c157.87,-97.5 179.18,-685.08 -159.8,-847.29 -172.08,-82.34 -386,-242.23 -537.75,-368.23 -133.76,-111.07 -292.5,-316.16 -375.22,-471.29 -82.12,-153.97 -239.32,-413.61 -39.84,-541.44 138.33,-88.64 317.34,-4.85 491.57,138.9 239.05,197.25 469.13,507.41 572.82,640 70.47,90.13 554.46,772.66 569.14,821.27 20.57,68.11 -32.94,387.44 43.78,540.53 82.27,164.17 268,86.06 430.55,55.6 174.32,-32.66 194.7,-72.43 200.14,-212.38 4.77,-122.44 1.43,-116.61 94.08,-164.52 288.98,-149.42 490.33,-343.71 706.11,-603.22 109.53,-131.73 142.91,-182.4 225.29,-324.51 96.86,-167.08 252.04,-491.27 286.94,-674.68 15.09,-79.33 6.48,-98.42 102.69,-110.58 100.88,-12.75 165.24,-60.53 207.3,-149.29l23.82 -50.32c13.23,-59.24 -9.28,-477.06 -9.9,-479.67 -31.96,-133.74 -36.63,-359.29 -187.74,-418.67 -98,-38.51 -255.19,26.41 -345.92,87.32 -368.41,247.34 -240.59,502.07 -303.63,869.74 -42.54,248.12 -148.98,706.21 -335.59,895.15 -96.88,98.09 -211.22,117.59 -326.96,53.74 -307.22,-169.48 -109.5,-714.69 -23.61,-978.54 77.14,-236.97 233.33,-636.31 347.41,-878.27 45.53,-96.56 131.08,-350.05 207.49,-401.59 126.89,-85.6 468.31,-307.88 398.45,-473.93 -7.33,-17.42 -261,-328.58 -363.41,-328.35 -98.47,0.22 -187.37,174.45 -310.67,68.74 -99.64,-85.43 -496.28,-205.01 -631.23,-224.86 -248.97,-36.62 -336.14,-67.1 -727.78,-47.17 -413.26,21.03 -653.11,132.96 -721.9,142.26 -74.17,10.03 -133.04,-176.32 -292.25,-184.68 -181.78,-9.55 -507.28,323.61 -611.99,445.52 -144.52,168.26 -146.25,258.42 77.14,421.12 124.92,90.98 360.46,171.88 508.9,109.43 86.16,-36.25 82.74,-25.79 198.84,-103.57l171.94 -95.48c236.53,-132.66 672.44,-237.08 951.5,-208.76 148.52,15.07 289.19,60.27 320.83,162.67 102.53,331.84 -472.07,464.1 -526.27,499.59 -54.72,35.84 -593.73,155.72 -679.15,167.23 -132.94,17.91 -178.07,37.09 -324.18,54.57 -190.43,22.78 -140.05,30.31 -371.59,50.61 -103.62,9.08 -217.93,49.88 -292.62,11.25 -128.12,-66.26 -559.56,-282.82 -630.07,-56.93 -163.47,523.72 -99.08,387.53 141.17,584.88 0,345.72 34.11,397.27 109.08,684.15 56.93,217.85 280.31,636.76 414.41,797.1 86.99,104.01 211.25,256.54 312.03,348.87 215.24,197.19 99.61,102.36 98.91,294.52 -0.82,226.85 286.77,280.21 389.89,347.72 71.27,46.66 448.85,153.9 526.85,105.74zm307.61 -2640.97c139.12,0 251.9,112.78 251.9,251.9 0,139.12 -112.78,251.9 -251.9,251.9 -139.12,0 -251.9,-112.78 -251.9,-251.9 0,-139.12 112.78,-251.9 251.9,-251.9z"/>
   <path class="fil2" d="M5272.5 527.99c610.21,-88.82 1275.11,-141.62 1950.58,-157.99l0 -2.47c131.94,-2.36 264.13,-3.35 396.24,-2.95l1.37 0c132.12,-0.4 264.31,0.58 396.24,2.95l0 2.47c675.47,16.37 1340.37,69.17 1950.59,157.99 1183.59,172.28 2061.1,460.89 3031.33,973.89 379.93,200.88 632.68,514.2 748.57,928.05 553.9,1977.94 601.43,4534.6 -359.94,6781.46 -1036.17,2421.7 -2970.08,4226.45 -5288.06,5418.02l-82.49 42.4 0 0.18 -19.28 9.73 -374.16 192.34 -3.47 1.45 -3.5 -1.45 -374.16 -192.34 -19.28 -9.73 0 -0.18 -82.49 -42.4c-2317.98,-1191.57 -4251.89,-2996.32 -5288.05,-5418.02 -961.38,-2246.86 -913.85,-4803.52 -359.95,-6781.46 115.9,-413.85 368.64,-727.17 748.58,-928.05 970.22,-513 1847.74,-801.61 3031.33,-973.89zm151.33 1039.69c-1063.03,154.73 -2023.76,454.89 -2852.19,943.01 -1334,4290.73 309.12,8747.6 5049.28,11184.3 4789.49,-2416.98 6493.14,-6893.57 5159.14,-11184.3 -810,-477.25 -1746.44,-774.83 -2781.36,-932.47 -1360.59,-207.25 -3211.6,-208.97 -4574.87,-10.54z"/>
  </g>
 </g>
</svg>
