<?xml version="1.0" encoding="UTF-8"?>
<!DOCTYPE svg PUBLIC "-//W3C//DTD SVG 1.1//EN" "http://www.w3.org/Graphics/SVG/1.1/DTD/svg11.dtd">
<!-- Creator: CorelDRAW -->
<svg xmlns="http://www.w3.org/2000/svg" xml:space="preserve" width="152.4mm" height="152.4mm" version="1.1" style="shape-rendering:geometricPrecision; text-rendering:geometricPrecision; image-rendering:optimizeQuality; fill-rule:evenodd; clip-rule:evenodd"
viewBox="0 0 15240 15240"
 xmlns:xlink="http://www.w3.org/1999/xlink"
 xmlns:xodm="http://www.corel.com/coreldraw/odm/2003">
 <defs>
  <style type="text/css">
   <![CDATA[
    .fil0 {fill:none}
    .fil3 {fill:#FEFEFE}
    .fil2 {fill:black}
    .fil1 {fill:#0099D8}
    .fil5 {fill:#BFBFC5}
    .fil6 {fill:white}
    .fil4 {fill:url(#id0)}
   ]]>
  </style>
  <linearGradient id="id0" gradientUnits="userSpaceOnUse" x1="6968.42" y1="10669.73" x2="6972.08" y2="12250.39">
   <stop offset="0" style="stop-opacity:1; stop-color:#747478"/>
   <stop offset="1" style="stop-opacity:1; stop-color:#BEBEC4"/>
  </linearGradient>
 </defs>
 <g id="Capa_x0020_1">
  <metadata id="CorelCorpID_0Corel-Layer"/>
  <g id="_1752939890496">
   <rect class="fil0" x="-0" y="-0" width="15240" height="15240"/>
   <ellipse id="contour" class="fil1" cx="7620.01" cy="7620" rx="7255.7" ry="7255.74"/>
   <path id="contour_8" class="fil2" d="M7620.01 364.25c4007.22,0 7255.71,3248.52 7255.71,7255.75 0,4007.22 -3248.49,7255.74 -7255.71,7255.74 -4007.22,0 -7255.7,-3248.52 -7255.7,-7255.74 0,-4007.23 3248.48,-7255.75 7255.7,-7255.75zm-0.06 985.8c3462.82,0 6270.01,2807.18 6270.01,6270 0,3462.82 -2807.19,6270.01 -6270.01,6270.01 -3462.82,0 -6270,-2807.19 -6270,-6270.01 0,-3462.82 2807.18,-6270 6270,-6270z"/>
   <path class="fil3" d="M7484.43 2992.78l0.01 0c123.78,0 225.04,101.26 225.04,225.04l0 6331.3c0,6.43 -0.29,12.8 -0.83,19.1l4437.58 0c45.22,0 83.87,25.23 102.07,66.62 18.2,41.39 10.67,86.93 -19.9,120.25l-1411.33 1538.64 -6413.62 0 -1411.33 -1538.64c-30.57,-33.32 -38.1,-78.86 -19.9,-120.25 18.2,-41.39 56.85,-66.62 102.07,-66.62l4185.93 0c-0.54,-6.3 -0.83,-12.67 -0.83,-19.1l0 -573.93 -3656.78 0c-118.77,0 -215.93,-97.16 -215.93,-215.93 0,-118.77 97.16,-215.93 215.93,-215.93l3656.78 0 0 -5325.51c0,-123.78 101.26,-225.04 225.04,-225.04zm-498.01 550.15l0 4408.75c0,173.33 -141.37,314.7 -314.7,314.7l-2630.48 0c-51.51,0 -95.7,-26.28 -120.29,-71.54 -24.6,-45.27 -22.59,-96.64 5.44,-139.86l2948.41 -4545.09c14.86,-22.91 41.97,-32.92 68.15,-25.17 26.19,7.76 43.47,30.9 43.47,58.21zm1022.14 694.18l0 4460.21c0,187.32 152.78,340.1 340.1,340.1l3836.42 0 -4024.13 -4855.26c-23.6,-28.47 -60.71,-38.59 -95.49,-26.05 -34.79,12.54 -56.9,44.02 -56.9,81z"/>
   <path class="fil2" d="M1449.57 10582.56c-121.16,-325.21 -99.09,-861.72 -79.04,-1201.72 35.65,-604.57 115.8,-1215.41 199.21,-1815.17 96.01,-690.39 203.5,-1379.2 305.25,-2068.77 94.27,-638.88 186.85,-1281.6 250.22,-1924.32l0.97 -9.83 1.97 -9.67c56.1,-276.1 136.2,-599.21 383.32,-767.65 203.51,-138.71 517.4,-159.11 756.93,-190.84 2940.99,-389.57 5902.32,-394.96 8840.32,24.69 665.1,95 1031.64,428.66 1065.35,1114.3 131.21,1297.92 347.14,2590.75 533.07,3881.89 78.52,545.24 156.02,1096.3 202.97,1645.19 17.68,206.73 31.39,416.22 31.01,623.76 -0.25,137.33 -5.84,288.57 -34.45,425.2 -92.09,571.21 -242.91,1265.03 -686.86,1672.77 -429.78,394.74 -1061.43,459.7 -1618.83,479.03 -2686.51,93.2 -5386.56,163.11 -8070.38,-28.04 -491.93,-18.66 -1024.92,-80.14 -1403.94,-426.81 -379.14,-346.78 -552.39,-940.51 -677.09,-1424.01z"/>
   <path class="fil4" d="M2020.69 9124.96l-386.84 1399.06c342.45,1330.81 683.42,1670.58 1907.26,1716.56 2645.95,188.66 5346.3,123.49 8053.18,27.9 1408.26,-47.17 1870.73,-428.24 2122.64,-1994.94l-660.06 -1111.54 -11036.18 -37.04z"/>
   <path class="fil5" d="M2317.34 3591.52c-227.83,2310.83 -1028.03,6046.99 -683.49,6932.5 641,133.8 8214.54,242.56 11203.74,14.79 236.35,-18.01 860.3,-13.49 873.12,-238.04 203.56,-824.06 -479.57,-4079.07 -729.24,-6552.86 -27.41,-589.41 -317.78,-859.43 -900.05,-937.51 -2797.06,-404.61 -5722.51,-424.09 -8787.67,-24.42 -642.81,91.5 -826.99,70.18 -976.41,805.54z"/>
   <path class="fil2" d="M3881.46 3456.71l3102.88 -210.13c177.43,-24.56 294.35,2.81 355.97,110.69 76.6,134.13 48.13,467.62 52.15,643.86l78.75 3451.7c27.11,602.11 -138.79,488.56 -606.59,498.57 -1228.47,26.34 -2912.11,93.19 -3971.89,54.31 -135.24,-4.96 -252.51,-56.38 -313.59,-161.72 -143.66,-247.71 -49.34,-750.6 -3.94,-1057.65l394.39 -2667.32c19.48,-131.72 23.09,-330.19 110.55,-428.36 169.11,-189.85 584.47,-216.61 801.32,-233.95z"/>
   <g>
    <circle class="fil2" cx="2758.44" cy="9559.6" r="505.23"/>
    <circle class="fil6" cx="2758.44" cy="9559.6" r="308.97"/>
   </g>
   <g>
    <circle class="fil2" cx="12589.38" cy="9559.6" r="505.23"/>
    <circle class="fil6" cx="12589.38" cy="9559.6" r="308.97"/>
   </g>
   <path class="fil1" d="M11014.12 6711.12c49.16,-5.76 90.81,-18.12 133.4,-39.55 88.83,-44.73 156.95,-119.13 193.48,-211.36 19.23,-48.52 27.83,-94.6 27.83,-149.14 0,-17.16 -0.86,-36.84 -2.04,-46.65 -18.77,-155.96 -123.22,-285.33 -270.82,-335.45 -79.91,-27.13 -173.68,-26.81 -254.47,0.87 -62.64,21.46 -120.59,59.38 -164.56,107.69 -64.57,70.95 -100.74,156.64 -105.91,250.92 -6.36,116.14 35.51,226 117.49,308.21 31.89,31.98 64.83,55.53 105.74,75.6 43.68,21.43 82.58,33.09 129.44,38.78 21.95,2.67 68.02,2.71 90.42,0.08zm-126.67 357.19c-0.4,-0.66 -11.7,-1.64 -25.1,-2.19 -23.21,-0.94 -67.19,-4.84 -89.93,-7.97 -192.89,-26.55 -346.88,-90.84 -462.7,-193.18 -9.08,-8.02 -16.92,-14.59 -17.41,-14.59 -0.11,0 -0.75,0.35 -1.79,0.99 7.43,-7.29 16.52,-14.73 20.73,-19.43 32.72,-36.55 137.14,-91.09 204.07,-288.6 65.49,-193.29 22.57,-383.66 -2.23,-459.29 -68.59,-209.2 -212.43,-286.57 -211.3,-309.9 0.03,-0.7 -0.18,-1.59 -0.54,-2.61 2.33,-1.73 5.36,-4.05 8.57,-6.59 49.18,-38.95 107.82,-72.47 173.78,-99.78 81.87,-33.9 175.02,-58.22 275.43,-71.41 108.48,-14.24 224.86,-14.77 329,-1.5 104.4,13.31 205.3,44.09 278.68,85.02 6.23,3.47 12.12,6.06 13.07,5.74 1.33,-0.44 1.72,-10.08 1.63,-40.74 -0.07,-22.09 0.27,-40.8 0.75,-41.57 0.57,-0.94 98.47,-1.42 287.67,-1.42l286.81 0 0 711.79 0 711.78 -287.24 -0.36 -287.24 -0.36 -0.38 -38.52c-0.3,-31.02 -0.74,-38.52 -2.26,-38.52 -1.04,0 -16.09,6.93 -33.46,15.4 -89.94,43.88 -172.88,74.85 -240.68,89.86 -43.79,9.7 -96.33,16.16 -132.33,16.27 -7.13,0.03 -13.35,0.68 -13.83,1.46 -1.08,1.74 -70.69,1.95 -71.77,0.22z"/>
   <path class="fil2" d="M9710.73 6711.11c177.25,-19.85 320.93,-155.63 351.06,-331.77 9.56,-55.89 6.81,-117.22 -7.69,-171.51 -18.74,-70.14 -52.78,-129.27 -104.23,-181.02 -75.84,-76.3 -175.99,-117.96 -283.43,-117.91 -64.08,0.03 -122.15,13.46 -177.12,40.96 -26.61,13.32 -48.13,26.82 -71.71,44.99 -18.74,14.44 -56.69,53.46 -72.08,74.11 -48.95,65.67 -75.55,139.03 -80.03,220.69 -6.21,113.26 35.14,222.85 114.44,303.23 66.45,67.36 146.69,106.79 240.68,118.27 20.83,2.54 67.27,2.52 90.11,-0.04zm579.79 140.26c7.43,-7.29 16.52,-14.73 20.73,-19.43 32.72,-36.55 137.14,-91.09 204.07,-288.6 65.49,-193.29 22.57,-383.66 -2.23,-459.29 -68.59,-209.2 -212.43,-286.57 -211.3,-309.9 0.03,-0.7 -0.18,-1.59 -0.54,-2.61 -2.53,1.87 -4.24,3.05 -4.5,3.05 -0.49,0 -8.33,-5.62 -17.43,-12.5 -123.85,-93.57 -286.56,-154.8 -468.29,-176.25 -110.56,-13.04 -252.67,-11.05 -367.33,5.15 -113.79,16.08 -192.1,42.16 -271.53,90.43 -11.34,6.89 -21.66,12.93 -22.92,13.42 -2.14,0.82 -2.32,-25.29 -2.32,-345.61l0 -346.5 -283.36 0 -283.37 0 0 1004.41 0 1004.41 274.56 -0.36 274.55 -0.35 0.37 -47.72c0.23,-28.66 0.91,-47.7 1.71,-47.7 0.73,0 4.68,1.99 8.79,4.42 12.85,7.62 53.5,27.6 74.44,36.58 83.65,35.87 174.36,59.62 277.71,72.71 37.95,4.8 73.37,7.46 125.33,9.41 176.43,6.63 378.32,-33.83 535.79,-107.38 41.31,-19.29 76.15,-39.08 115.18,-65.41 5.53,-3.73 10.69,-7.16 14.77,-9.83 3.09,-2.02 5.57,-3.6 7.12,-4.55z"/>
   <path class="fil2" d="M9569.11 5344.48c-0.36,-0.97 -0.5,-74.92 -0.3,-164.34l0.36 -162.57 78.24 -0.4c85.15,-0.44 103.15,0.45 124.06,6.16 20.92,5.71 32.66,12 44.31,23.74 15.47,15.59 21.95,31.45 21.95,53.68 0,18.91 -7.4,37.84 -19.44,49.74 -6.81,6.73 -22.54,15.47 -36.95,20.53 -14.17,4.98 -14.18,4.98 1.41,8.52 26.44,6.01 46.18,20.41 55.87,40.75 7.34,15.39 9.76,29.97 7.77,46.79 -2.71,22.93 -7.5,33.12 -22.6,48.13 -20.29,20.17 -39.06,26.67 -85.45,29.6 -34.31,2.17 -168.38,1.91 -169.23,-0.33zm159.98 -61.71c17.78,-5.55 24.58,-15.32 24.67,-35.48 0.09,-19.34 -6.05,-28.71 -23.44,-35.75 -6.74,-2.72 -10.74,-3.08 -40.26,-3.54l-32.78 -0.52 0 38.99 0 38.99 31.59 0c27.11,0 32.82,-0.38 40.22,-2.69zm0.09 -136.72c12.61,-5.76 18.97,-16.91 18.91,-33.15 -0.05,-15.7 -5.91,-25.74 -18.7,-32.03 -7.87,-3.88 -8.34,-3.93 -39.52,-4.42 -25.33,-0.39 -31.79,-0.11 -32.75,1.42 -1.48,2.34 -1.66,69.57 -0.19,71.07 0.58,0.59 15.64,0.84 33.48,0.54 28.97,-0.48 33.1,-0.85 38.77,-3.43zm495.65 198.96c-0.42,-0.68 0.89,-5.29 2.91,-10.25 2.02,-4.95 13.11,-33.02 24.65,-62.37 11.53,-29.36 30.55,-77.7 42.26,-107.44 11.71,-29.74 29.25,-74.43 38.97,-99.31 9.73,-24.88 18.3,-46.04 19.06,-47.01 1.06,-1.36 13.99,-1.76 56.05,-1.76l54.66 0 21.91 55.48c12.06,30.52 33.42,84.75 47.49,120.52 14.07,35.76 33.14,84.14 42.38,107.51 9.24,23.37 16.8,43.25 16.8,44.18 0,2.5 -99.18,2.43 -101.11,-0.08 -0.75,-0.97 -5.04,-12.58 -9.55,-25.8 -4.5,-13.22 -9.41,-27.38 -10.9,-31.47l-2.72 -7.43 -65.8 0.37 -65.8 0.36 -10.57 31.12c-5.82,17.12 -11.09,31.91 -11.71,32.87 -1.36,2.08 -87.71,2.57 -88.98,0.51zm221.36 -128.46c-3.37,-10.97 -31.46,-102.88 -34.68,-113.45 -2.25,-7.39 -4.51,-15.21 -5.03,-17.38 -0.52,-2.17 -1.65,-3.71 -2.52,-3.42 -1.16,0.39 -30.25,86.37 -45.42,134.25 -0.74,2.32 1.98,2.47 43.81,2.47 41.83,0 44.55,-0.15 43.84,-2.47zm515.79 127.93c-0.37,-0.97 -0.51,-74.92 -0.31,-164.34l0.37 -162.57 85.29 -0.43c129.89,-0.65 143.65,1.25 165.64,22.89 14.57,14.33 21.46,31.24 22.83,56 2,36.15 -9.37,59.26 -35.69,72.54 -10.78,5.44 -24.77,10.1 -34.87,11.62 -9.43,1.42 -7.48,3.98 4.02,5.27 12.1,1.36 25.06,4.69 31.99,8.24 5.28,2.7 14.89,13.53 18.88,21.28 3.16,6.12 7.14,24.68 11.8,54.93 6.11,39.74 8.27,51.71 11.42,63.36 1.54,5.69 2.44,10.94 1.99,11.66 -0.47,0.77 -20.62,1.32 -48.55,1.32l-47.74 0 -1.41 -4.59c-2.02,-6.59 -3.8,-18.42 -8.63,-57.33 -6.39,-51.47 -7.97,-56.16 -20.93,-62.25 -7.72,-3.63 -9.08,-3.78 -36.56,-4.25l-28.55 -0.48 0 62.22c0,34.21 -0.38,63.21 -0.86,64.44 -0.75,1.98 -6.06,2.24 -45.16,2.24 -34.14,0 -44.45,-0.41 -44.97,-1.77zm165.19 -190.32c14.19,-6.27 20.91,-17.9 20.94,-36.22 0.02,-9.78 -0.55,-12.43 -4.21,-19.68 -8.61,-17.05 -19.44,-20.61 -62.62,-20.61l-28.23 0 -0.39 38.89c-0.22,21.38 -0.16,39.59 0.13,40.45 0.37,1.1 10.26,1.38 33.83,0.96 30.8,-0.55 33.86,-0.84 40.55,-3.79zm642.64 190.34c-0.37,-0.98 -0.83,-60.31 -1.02,-131.84l-0.35 -130.06 -49.35 -0.71 -49.34 -0.7 0 -31.81 0 -31.81 146.97 -0.36 146.97 -0.36 0 32.52 0 32.52 -51.45 0 -51.45 0 -0.36 131.83 -0.36 131.82 -44.79 0.38c-35.09,0.29 -44.95,-0.02 -45.47,-1.42z"/>
  </g>
 </g>
</svg>
