<?xml version="1.0" encoding="UTF-8"?>
<!DOCTYPE svg PUBLIC "-//W3C//DTD SVG 1.1//EN" "http://www.w3.org/Graphics/SVG/1.1/DTD/svg11.dtd">
<!-- Creator: CorelDRAW -->
<svg xmlns="http://www.w3.org/2000/svg" xml:space="preserve" width="152.4mm" height="152.4mm" version="1.1" style="shape-rendering:geometricPrecision; text-rendering:geometricPrecision; image-rendering:optimizeQuality; fill-rule:evenodd; clip-rule:evenodd"
viewBox="0 0 4899.26 4899.26"
 xmlns:xlink="http://www.w3.org/1999/xlink"
 xmlns:xodm="http://www.corel.com/coreldraw/odm/2003">
 <defs>
  <style type="text/css">
   <![CDATA[
    .fil0 {fill:none}
    .fil2 {fill:black}
    .fil6 {fill:#0099D8}
    .fil1 {fill:#0099D8}
    .fil4 {fill:#BFBFC5}
    .fil5 {fill:white}
    .fil3 {fill:url(#id0)}
   ]]>
  </style>
  <linearGradient id="id0" gradientUnits="userSpaceOnUse" x1="2259.06" y1="2713.5" x2="2259.9" y2="3078.73">
   <stop offset="0" style="stop-opacity:1; stop-color:#747478"/>
   <stop offset="1" style="stop-opacity:1; stop-color:#BEBEC4"/>
  </linearGradient>
 </defs>
 <g id="Capa_x0020_1">
  <metadata id="CorelCorpID_0Corel-Layer"/>
  <g id="_2981989044560">
   <rect class="fil0" x="-0" y="-0" width="4899.26" height="4899.26"/>
   <path class="fil1" d="M1704.77 199.33c193.62,-28.18 404.59,-44.94 618.92,-50.13l0 -0.78c41.87,-0.75 83.81,-1.06 125.73,-0.94l0.43 0c41.92,-0.13 83.87,0.18 125.73,0.94l0 0.78c214.33,5.2 425.3,21.95 618.92,50.13 375.56,54.66 653.99,146.24 961.84,309.01 120.55,63.74 200.75,163.16 237.52,294.47 175.75,627.6 190.83,1438.83 -114.21,2151.76 -328.78,768.4 -942.41,1341.05 -1677.9,1719.14l-26.17 13.45 0 0.06 -6.12 3.09 -118.72 61.03 -1.1 0.46 -1.11 -0.46 -118.72 -61.03 -6.12 -3.09 0 -0.06 -26.17 -13.45c-735.49,-378.09 -1349.13,-950.73 -1677.9,-1719.14 -305.05,-712.93 -289.96,-1524.16 -114.21,-2151.76 36.77,-131.32 116.97,-230.73 237.52,-294.47 307.85,-162.77 586.29,-254.35 961.84,-309.01z"/>
   <path class="fil2" d="M1694.97 169.73c196.17,-28.55 409.91,-45.53 627.06,-50.79l0 -0.79c42.42,-0.76 84.91,-1.08 127.38,-0.95l0.44 0c42.47,-0.13 84.97,0.19 127.38,0.95l0 0.79c217.15,5.26 430.89,22.24 627.06,50.79 380.49,55.38 662.59,148.16 974.49,313.08 122.14,64.58 203.39,165.3 240.65,298.34 178.06,635.86 193.34,1457.75 -115.71,2180.06 -333.1,778.51 -954.8,1358.69 -1699.97,1741.75l-26.52 13.63 0 0.06 -6.2 3.13 -120.28 61.83 -1.12 0.47 -1.13 -0.47 -120.28 -61.83 -6.2 -3.13 0 -0.06 -26.52 -13.63c-745.17,-383.06 -1366.87,-963.24 -1699.97,-1741.75 -309.06,-722.31 -293.78,-1544.21 -115.71,-2180.06 37.26,-133.04 118.51,-233.77 240.65,-298.34 311.9,-164.92 594,-257.7 974.49,-313.08zm48.65 334.23c-341.74,49.74 -650.59,146.24 -916.9,303.15 -428.85,1379.36 99.37,2812.12 1623.21,3595.46 1539.69,-777 2087.37,-2216.1 1658.53,-3595.46 -260.39,-153.42 -561.43,-249.09 -894.13,-299.76 -437.39,-66.63 -1032.44,-67.18 -1470.7,-3.39z"/>
   <path class="fil2" d="M981.51 2693.36c-28.05,-75.14 -22.94,-199.11 -18.3,-277.67 8.25,-139.69 26.8,-280.83 46.11,-419.41 22.23,-159.52 47.11,-318.68 70.66,-478.01 21.82,-147.62 43.25,-296.13 57.92,-444.63l0.22 -2.27 0.46 -2.23c12.99,-63.8 31.53,-138.45 88.73,-177.37 47.11,-32.05 119.77,-36.76 175.22,-44.09 680.8,-90.02 1366.31,-91.26 2046.42,5.7 153.96,21.95 238.81,99.05 246.62,257.47 30.37,299.9 80.36,598.62 123.4,896.94 18.18,125.98 36.12,253.31 46.98,380.14 4.09,47.77 7.27,96.17 7.18,144.13 -0.06,31.73 -1.35,66.68 -7.97,98.25 -21.32,131.98 -56.23,292.3 -159,386.51 -99.49,91.21 -245.71,106.21 -374.74,110.68 -621.89,21.54 -1246.92,37.69 -1868.19,-6.48 -113.88,-4.31 -237.25,-18.52 -324.99,-98.62 -87.77,-80.13 -127.87,-217.32 -156.74,-329.03z"/>
   <path class="fil3" d="M1113.72 2356.57l-89.55 323.26c79.27,307.5 158.2,386 441.51,396.63 612.5,43.59 1237.6,28.53 1864.21,6.45 325.99,-10.9 433.05,-98.95 491.36,-460.95l-152.8 -256.83 -2554.73 -8.56z"/>
   <path class="fil4" d="M1182.39 1078.02c-52.74,533.94 -237.98,1397.21 -158.22,1601.82 148.38,30.92 1901.56,56.05 2593.52,3.42 54.71,-4.16 199.15,-3.12 202.12,-55 47.12,-190.41 -111.01,-942.51 -168.81,-1514.1 -6.35,-136.19 -73.56,-198.58 -208.35,-216.62 -647.48,-93.49 -1324.69,-97.99 -2034.23,-5.64 -148.8,21.14 -191.44,16.22 -226.02,186.13z"/>
   <path class="fil2" d="M1544.47 1046.87l718.28 -48.56c41.07,-5.67 68.14,0.65 82.4,25.58 17.73,30.99 11.14,108.05 12.07,148.77l18.23 797.55c6.28,139.12 -32.13,112.89 -140.42,115.2 -284.37,6.09 -674.11,21.53 -919.44,12.55 -31.31,-1.15 -58.45,-13.03 -72.59,-37.37 -33.25,-57.24 -11.42,-173.43 -0.91,-244.38l91.3 -616.31c4.51,-30.43 5.34,-76.29 25.59,-98.98 39.15,-43.87 135.3,-50.05 185.5,-54.06z"/>
   <ellipse class="fil2" cx="1284.5" cy="2457" rx="116.95" ry="116.74"/>
   <ellipse class="fil5" cx="1284.5" cy="2457" rx="71.52" ry="71.39"/>
   <ellipse class="fil2" cx="3560.23" cy="2457" rx="116.95" ry="116.74"/>
   <ellipse class="fil5" cx="3560.23" cy="2457" rx="71.52" ry="71.39"/>
   <path class="fil6" d="M3195.58 1798.83c11.38,-1.33 21.02,-4.19 30.88,-9.14 20.56,-10.34 36.33,-27.53 44.79,-48.84 4.45,-11.21 6.44,-21.86 6.44,-34.46 0,-3.97 -0.2,-8.51 -0.47,-10.78 -4.35,-36.04 -28.52,-65.93 -62.69,-77.51 -18.5,-6.27 -40.21,-6.19 -58.91,0.2 -14.5,4.96 -27.92,13.72 -38.09,24.88 -14.95,16.39 -23.32,36.19 -24.52,57.98 -1.47,26.83 8.22,52.22 27.2,71.21 7.38,7.39 15.01,12.83 24.48,17.47 10.11,4.95 19.11,7.64 29.96,8.96 5.08,0.62 15.75,0.63 20.93,0.02zm-29.32 82.53c-0.09,-0.15 -2.71,-0.38 -5.81,-0.5 -5.37,-0.22 -15.55,-1.12 -20.82,-1.84 -44.65,-6.13 -80.3,-20.99 -107.11,-44.64 -2.1,-1.85 -3.92,-3.37 -4.03,-3.37 -0.03,0 -0.17,0.08 -0.41,0.23 1.72,-1.68 3.82,-3.4 4.8,-4.49 7.58,-8.45 31.75,-21.05 47.24,-66.68 15.16,-44.66 5.22,-88.65 -0.51,-106.12 -15.88,-48.34 -49.18,-66.22 -48.92,-71.61 0.01,-0.16 -0.04,-0.37 -0.13,-0.6 0.54,-0.4 1.24,-0.94 1.98,-1.52 11.39,-9 24.96,-16.75 40.23,-23.05 18.95,-7.83 40.52,-13.45 63.76,-16.5 25.11,-3.29 52.05,-3.41 76.16,-0.35 24.17,3.08 47.52,10.19 64.51,19.65 1.44,0.8 2.81,1.4 3.03,1.33 0.31,-0.1 0.4,-2.33 0.38,-9.42 -0.02,-5.1 0.06,-9.43 0.17,-9.61 0.13,-0.22 22.79,-0.33 66.59,-0.33l66.39 0 0 164.47 0 164.46 -66.49 -0.08 -66.49 -0.08 -0.09 -8.9c-0.07,-7.17 -0.17,-8.9 -0.52,-8.9 -0.24,0 -3.72,1.6 -7.74,3.56 -20.82,10.14 -40.02,17.3 -55.71,20.76 -10.14,2.24 -22.3,3.74 -30.63,3.76 -1.65,0.01 -3.09,0.16 -3.2,0.34 -0.25,0.4 -16.36,0.45 -16.61,0.05z"/>
   <path class="fil2" d="M2893.86 1798.83c41.03,-4.58 74.29,-35.96 81.27,-76.66 2.21,-12.91 1.58,-27.08 -1.78,-39.63 -4.34,-16.21 -12.22,-29.87 -24.13,-41.83 -17.56,-17.63 -40.74,-27.25 -65.61,-27.24 -14.83,0.01 -28.28,3.11 -41,9.46 -6.16,3.08 -11.14,6.19 -16.6,10.39 -4.34,3.34 -13.12,12.35 -16.68,17.12 -11.33,15.17 -17.49,32.12 -18.53,50.99 -1.44,26.17 8.13,51.49 26.49,70.07 15.38,15.56 33.95,24.67 55.71,27.33 4.82,0.59 15.57,0.58 20.86,-0.01zm134.22 32.41c1.72,-1.68 3.82,-3.4 4.8,-4.49 7.58,-8.45 31.75,-21.05 47.24,-66.68 15.16,-44.66 5.22,-88.65 -0.51,-106.12 -15.88,-48.34 -49.18,-66.22 -48.92,-71.61 0.01,-0.16 -0.04,-0.37 -0.13,-0.6 -0.59,0.43 -0.98,0.7 -1.04,0.7 -0.11,0 -1.93,-1.3 -4.03,-2.89 -28.67,-21.62 -66.33,-35.77 -108.4,-40.72 -25.6,-3.02 -58.49,-2.56 -85.03,1.19 -26.34,3.72 -44.47,9.74 -62.86,20.9 -2.62,1.59 -5.01,2.99 -5.3,3.1 -0.5,0.19 -0.54,-5.84 -0.54,-79.86l0 -80.06 -65.59 0 -65.6 0 0 232.08 0 232.08 63.56 -0.08 63.56 -0.08 0.09 -11.03c0.05,-6.62 0.21,-11.02 0.4,-11.02 0.17,0 1.08,0.46 2.03,1.02 2.97,1.76 12.38,6.38 17.23,8.45 19.37,8.29 40.36,13.78 64.29,16.8 8.78,1.11 16.98,1.72 29.01,2.17 40.84,1.53 87.58,-7.82 124.03,-24.81 9.56,-4.46 17.63,-9.03 26.66,-15.12 1.28,-0.86 2.48,-1.65 3.42,-2.27 0.71,-0.47 1.29,-0.83 1.65,-1.05z"/>
   <path class="fil2" d="M2861.08 1483.05c-0.08,-0.23 -0.12,-17.31 -0.07,-37.97l0.09 -37.56 18.11 -0.1c19.71,-0.1 23.88,0.11 28.72,1.42 4.84,1.32 7.56,2.77 10.26,5.49 3.58,3.6 5.08,7.27 5.08,12.4 0,4.37 -1.71,8.74 -4.5,11.49 -1.58,1.56 -5.22,3.57 -8.55,4.74 -3.28,1.15 -3.28,1.15 0.32,1.97 6.12,1.39 10.69,4.72 12.93,9.42 1.7,3.56 2.26,6.92 1.8,10.81 -0.63,5.3 -1.74,7.65 -5.23,11.12 -4.7,4.66 -9.04,6.16 -19.78,6.84 -7.94,0.5 -38.98,0.44 -39.17,-0.08zm37.04 -14.26c4.11,-1.28 5.69,-3.54 5.71,-8.19 0.02,-4.47 -1.4,-6.64 -5.43,-8.26 -1.56,-0.63 -2.49,-0.71 -9.32,-0.82l-7.59 -0.12 0 9.01 0 9.01 7.31 0c6.28,0 7.6,-0.09 9.31,-0.62zm0.02 -31.59c2.92,-1.33 4.39,-3.9 4.38,-7.66 -0.01,-3.63 -1.37,-5.95 -4.33,-7.4 -1.82,-0.9 -1.93,-0.91 -9.15,-1.02 -5.86,-0.09 -7.36,-0.03 -7.58,0.32 -0.34,0.54 -0.39,16.08 -0.05,16.42 0.14,0.14 3.62,0.19 7.75,0.12 6.71,-0.11 7.66,-0.2 8.98,-0.79zm114.73 45.97c-0.1,-0.16 0.21,-1.22 0.68,-2.37 0.47,-1.15 3.03,-7.63 5.71,-14.41 2.67,-6.78 7.07,-17.95 9.78,-24.82 2.71,-6.87 6.77,-17.2 9.02,-22.95 2.25,-5.75 4.24,-10.64 4.41,-10.86 0.24,-0.32 3.24,-0.41 12.97,-0.41l12.65 0 5.07 12.82c2.79,7.05 7.73,19.58 10.99,27.85 3.26,8.26 7.67,19.44 9.81,24.84 2.14,5.4 3.89,9.99 3.89,10.21 0,0.58 -22.96,0.56 -23.4,-0.02 -0.17,-0.23 -1.17,-2.91 -2.21,-5.96 -1.04,-3.05 -2.18,-6.33 -2.52,-7.27l-0.63 -1.72 -15.23 0.08 -15.23 0.08 -2.45 7.19c-1.35,3.95 -2.57,7.37 -2.71,7.59 -0.31,0.48 -20.3,0.59 -20.6,0.12zm51.24 -29.68c-0.78,-2.53 -7.28,-23.77 -8.03,-26.21 -0.52,-1.71 -1.04,-3.51 -1.16,-4.02 -0.12,-0.5 -0.38,-0.86 -0.59,-0.79 -0.27,0.09 -7,19.95 -10.52,31.02 -0.17,0.54 0.46,0.57 10.15,0.57 9.68,0 10.31,-0.04 10.15,-0.57zm119.4 29.56c-0.08,-0.23 -0.12,-17.31 -0.07,-37.97l0.08 -37.56 19.74 -0.1c30.07,-0.15 33.25,0.29 38.35,5.29 3.37,3.31 4.97,7.22 5.28,12.94 0.46,8.35 -2.17,13.69 -8.26,16.76 -2.49,1.26 -5.73,2.33 -8.07,2.68 -2.19,0.33 -1.73,0.92 0.93,1.22 2.8,0.31 5.8,1.08 7.41,1.9 1.22,0.62 3.44,3.12 4.37,4.92 0.73,1.41 1.66,5.7 2.73,12.69 1.41,9.18 1.91,11.95 2.64,14.64 0.36,1.31 0.57,2.53 0.46,2.7 -0.11,0.18 -4.77,0.3 -11.24,0.3l-11.05 0 -0.33 -1.06c-0.47,-1.52 -0.88,-4.26 -2,-13.24 -1.48,-11.89 -1.85,-12.98 -4.84,-14.39 -1.79,-0.84 -2.1,-0.87 -8.46,-0.98l-6.61 -0.11 0 14.37c0,7.91 -0.09,14.61 -0.2,14.89 -0.17,0.46 -1.4,0.52 -10.45,0.52 -7.91,0 -10.29,-0.09 -10.41,-0.41zm38.24 -43.98c3.29,-1.45 4.84,-4.13 4.85,-8.37 0,-2.26 -0.13,-2.87 -0.97,-4.55 -1.99,-3.94 -4.5,-4.76 -14.5,-4.76l-6.54 0 -0.09 8.99c-0.05,4.94 -0.04,9.15 0.03,9.35 0.09,0.25 2.38,0.32 7.83,0.22 7.13,-0.13 7.84,-0.19 9.38,-0.88zm148.76 43.98c-0.08,-0.23 -0.19,-13.94 -0.23,-30.46l-0.08 -30.05 -11.43 -0.16 -11.42 -0.16 0 -7.35 0 -7.35 34.02 -0.08 34.02 -0.08 0 7.51 0 7.52 -11.91 0 -11.91 0 -0.08 30.46 -0.08 30.46 -10.37 0.09c-8.12,0.07 -10.4,-0 -10.53,-0.33z"/>
  </g>
 </g>
</svg>
