<?xml version="1.0" encoding="UTF-8"?>
<!DOCTYPE svg PUBLIC "-//W3C//DTD SVG 1.1//EN" "http://www.w3.org/Graphics/SVG/1.1/DTD/svg11.dtd">
<!-- Creator: CorelDRAW -->
<svg xmlns="http://www.w3.org/2000/svg" xml:space="preserve" width="152.4mm" height="152.4mm" version="1.1" style="shape-rendering:geometricPrecision; text-rendering:geometricPrecision; image-rendering:optimizeQuality; fill-rule:evenodd; clip-rule:evenodd"
viewBox="0 0 15240 15240"
 xmlns:xlink="http://www.w3.org/1999/xlink"
 xmlns:xodm="http://www.corel.com/coreldraw/odm/2003">
 <defs>
  <style type="text/css">
   <![CDATA[
    .fil0 {fill:none}
    .fil8 {fill:#FEFEFE}
    .fil1 {fill:#4D9EDC}
    .fil2 {fill:#646262}
    .fil7 {fill:#918F8F}
    .fil3 {fill:#FFCC31}
    .fil6 {fill:white}
    .fil4 {fill:url(#id0)}
    .fil5 {fill:url(#id1)}
   ]]>
  </style>
  <linearGradient id="id0" gradientUnits="userSpaceOnUse" x1="7587.09" y1="13616.28" x2="7533.21" y2="1501.94">
   <stop offset="0" style="stop-opacity:1; stop-color:#000505"/>
   <stop offset="1" style="stop-opacity:1; stop-color:#00C7C7"/>
  </linearGradient>
  <linearGradient id="id1" gradientUnits="userSpaceOnUse" xlink:href="#id0" x1="7587.09" y1="13616.28" x2="7533.21" y2="1501.94">
  </linearGradient>
 </defs>
 <g id="Capa_x0020_1">
  <metadata id="CorelCorpID_0Corel-Layer"/>
  <g id="_2981915303248">
   <rect class="fil0" x="-0" y="-0" width="15240" height="15240"/>
   <path class="fil1" d="M5302.97 620.06c602.29,-87.67 1258.56,-139.78 1925.26,-155.94l0 -2.44c130.23,-2.33 260.7,-3.31 391.1,-2.91l1.35 0c130.4,-0.4 260.88,0.57 391.1,2.91l0 2.44c666.7,16.16 1322.97,68.27 1925.26,155.94 1168.23,170.04 2034.35,454.91 2991.98,961.24 375,198.28 624.47,507.53 738.86,916.01 546.7,1952.26 593.62,4475.73 -355.27,6693.43 -1022.72,2390.25 -2931.53,4171.57 -5219.41,5347.67l-81.42 41.85 0 0.18 -19.03 9.6 -369.3 189.85 -3.43 1.43 -3.46 -1.43 -369.29 -189.85 -19.04 -9.6 0 -0.18 -81.42 -41.85c-2287.88,-1176.1 -4196.69,-2957.42 -5219.4,-5347.67 -948.9,-2217.7 -901.98,-4741.17 -355.27,-6693.43 114.39,-408.48 363.85,-717.73 738.85,-916.01 957.63,-506.33 1823.76,-791.2 2991.98,-961.24z"/>
   <path class="fil2" d="M12573.25 10588.57c-1084.85,1699.65 -2662.84,3015.69 -4480.05,3949.84l-81.42 41.85 0 0.18 -19.03 9.61 -369.31 189.84 -3.42 1.43 -3.45 -1.43 -369.31 -189.84 -19.03 -9.61 0 -0.18 -81.42 -41.85c-1490.53,-766.22 -2820.06,-1789.41 -3848.6,-3070.41l4.63 -66.13c19.5,-274.54 37.18,-549.24 54.56,-823.92 35.12,-555.3 67.86,-1110.73 102.71,-1666.04 7.67,-122.3 21.4,-273.49 67.07,-388.18 29.35,-73.71 70.67,-128.84 141.69,-165.31 80.06,-41.11 188.35,-54.17 276.96,-62.33 151.89,-14 305.9,-18.61 458.29,-29.39 1160.32,-82.11 2323.98,-111.87 3487.06,-99.77 1127,11.71 2252.94,62.54 3377.4,137.78l1.88 0.09c99.79,3.15 260.13,12.95 334.77,90.15 65.9,68.15 72.52,198.85 75.94,287.89l0.11 2.8 0.4 2.77c41.42,287.53 70.47,576.96 79.66,867.41 7.08,224.06 52.41,446.42 36.82,670l-0.73 10.43 3.27 9.93c5.43,16.54 10.84,33.23 15.7,49.75l10.92 38.2 39.91 0.31c124.72,0.96 198.67,1.5 323.4,1.72 143.95,0.25 288.49,0.65 432.73,-1.11l-72.79 54.72 4.76 31.48c8.6,56.8 14.54,112.49 17.92,167.32z"/>
   <path class="fil3" d="M12762.74 10279.23c-6.3,10.73 -12.7,21.38 -19.04,32.08l-135.63 101.96 -916.03 -10.7c-1264.65,-14.76 -2658.22,124.2 -3961.02,357.49 -1401.25,357.15 -1822.02,840 -1398.53,1253.96 658.44,643.61 1830.54,549.3 2648.22,333.25 1082.51,-286.05 1865.17,-905.29 2504.59,-1683.7l494.4 757c-1033.64,1303.24 -2377.61,2342.18 -3886.5,3117.84l-81.42 41.85 0 0.18 -19.03 9.61 -369.31 189.84 -3.42 1.43 -3.45 -1.43 -369.31 -189.84 -19.03 -9.61 0 -0.18 -81.42 -41.85c-1359.81,-699.02 -2585.69,-1611.86 -3571.23,-2739.26 209.77,-180.59 484.32,-358.12 832.94,-529.43 2195.08,-1032.31 6017.82,-930.81 8354.22,-990.49z"/>
   <path class="fil4" d="M3438.62 11639.14c-64.3,-76.64 -127.46,-154.3 -189.55,-232.86 50.05,-703.09 119.59,-1888.83 157.8,-2497.71 45.11,-718.92 257.41,-643 993.48,-695.08 2374.95,-168.07 4644.8,-111.01 6871.79,38 385.61,12.16 450.79,128.42 462.33,429.31 97.61,677.42 94.67,1143.74 65.65,1555.27 -4340.21,-10.84 -7386.56,497.85 -8361.5,1403.07z"/>
   <path class="fil5" d="M4386.85 8674.39l824.2 0c153.67,0 279.4,125.73 279.4,279.4l0 589.02c0,153.67 -125.73,279.4 -279.4,279.4l-824.2 0c-153.67,0 -279.4,-125.73 -279.4,-279.4l0 -589.02c0,-153.67 125.73,-279.4 279.4,-279.4zm5664.64 0l824.2 0c153.67,0 279.4,125.73 279.4,279.4l0 589.02c0,153.67 -125.73,279.4 -279.4,279.4l-824.2 0c-153.67,0 -279.4,-125.73 -279.4,-279.4l0 -589.02c0,-153.67 125.73,-279.4 279.4,-279.4zm-1893.7 0l824.2 0c153.67,0 279.4,125.73 279.4,279.4l0 589.02c0,153.67 -125.73,279.4 -279.4,279.4l-824.2 0c-153.67,0 -279.4,-125.73 -279.4,-279.4l0 -589.02c0,-153.67 125.73,-279.4 279.4,-279.4zm-1876.89 0l824.2 0c153.67,0 279.4,125.73 279.4,279.4l0 589.02c0,153.67 -125.73,279.4 -279.4,279.4l-824.2 0c-153.67,0 -279.4,-125.73 -279.4,-279.4l0 -589.02c0,-153.67 125.73,-279.4 279.4,-279.4z"/>
   <path class="fil6" d="M3438.62 11639.14c-64.3,-76.64 -127.46,-154.3 -189.55,-232.86 50.05,-703.09 119.59,-1888.83 157.8,-2497.71 45.11,-718.92 257.41,-643 993.48,-695.08 2374.95,-168.07 4644.8,-111.01 6871.79,38 385.61,12.16 450.79,128.42 462.33,429.31 97.61,677.42 94.67,1143.74 65.65,1555.27 -4340.21,-10.84 -7386.56,497.85 -8361.5,1403.07zm8381.33 -2284.78c20.74,5.47 38.2,13.08 52.36,22.8 32.26,22.32 54.55,55.16 66.71,98.68l-111.79 21.27c-1.92,-47.61 -4.36,-95.2 -7.28,-142.75zm9.39 201.92c38.64,12.54 67.36,26.78 86.14,42.78 26.96,23.28 40.36,55.95 40.36,97.72 0,45.43 -18.54,84.65 -55.79,117.33 -18.41,16.21 -41.24,28.44 -68.47,36.62 1.51,-97.52 0.85,-195.11 -2.19,-293.04l-0.05 -1.41z"/>
   <path class="fil7" d="M4386.85 8674.39l824.2 0c153.67,0 279.4,125.73 279.4,279.4l0 589.02c0,153.67 -125.73,279.4 -279.4,279.4l-824.2 0c-153.67,0 -279.4,-125.73 -279.4,-279.4l0 -589.02c0,-153.67 125.73,-279.4 279.4,-279.4zm5664.64 0l824.2 0c153.67,0 279.4,125.73 279.4,279.4l0 589.02c0,153.67 -125.73,279.4 -279.4,279.4l-824.2 0c-153.67,0 -279.4,-125.73 -279.4,-279.4l0 -589.02c0,-153.67 125.73,-279.4 279.4,-279.4zm-1893.7 0l824.2 0c153.67,0 279.4,125.73 279.4,279.4l0 589.02c0,153.67 -125.73,279.4 -279.4,279.4l-824.2 0c-153.67,0 -279.4,-125.73 -279.4,-279.4l0 -589.02c0,-153.67 125.73,-279.4 279.4,-279.4zm-1876.89 0l824.2 0c153.67,0 279.4,125.73 279.4,279.4l0 589.02c0,153.67 -125.73,279.4 -279.4,279.4l-824.2 0c-153.67,0 -279.4,-125.73 -279.4,-279.4l0 -589.02c0,-153.67 125.73,-279.4 279.4,-279.4z"/>
   <path class="fil8" d="M5662.23 7766.16l-5.43 -338.25c678.65,-1763.92 1825.63,-2442.94 3650.56,-2455.47 235.79,-1.62 598.07,13.16 774.05,73.92l-1.4 129.69c-265.2,-11.4 -565.67,-1.99 -804.28,12.55 -1787.61,108.94 -2843.21,781.74 -3613.5,2577.56z"/>
   <path class="fil8" d="M6172.91 6107.95l1.93 -205.27c272.24,-732.01 1016.46,-1397.76 1602.95,-1595.12 112.36,-30.33 190.15,-31.84 229.29,-1.15 50.21,39.39 12.57,151.22 34.3,233.51 45.33,171.47 203.92,196.74 483.92,65.27 71.77,-33.69 131.92,-76.57 213.21,-83.79 56.82,-5.04 85.7,16.61 85.56,66 -0.23,82.99 -49.02,144.64 -128.65,167.75 -51.97,15.09 -97.85,-2.9 -101.95,-78.46 -481.48,318.49 -753.53,291.75 -839.5,-41.67 -530.6,164.94 -1111.43,542.74 -1581.06,1472.93z"/>
   <ellipse class="fil8" cx="7728.57" cy="3982.34" rx="219.58" ry="262.05"/>
   <path class="fil3" d="M5272.5 527.99c610.21,-88.82 1275.11,-141.62 1950.58,-157.99l0 -2.47c131.94,-2.36 264.13,-3.35 396.24,-2.95l1.37 0c132.12,-0.4 264.31,0.58 396.24,2.95l0 2.47c675.47,16.37 1340.37,69.17 1950.59,157.99 1183.59,172.28 2061.1,460.89 3031.33,973.89 379.93,200.88 632.68,514.2 748.57,928.05 553.9,1977.94 601.43,4534.6 -359.94,6781.46 -1036.17,2421.7 -2970.08,4226.45 -5288.06,5418.02l-82.49 42.4 0 0.18 -19.28 9.73 -374.16 192.34 -3.47 1.45 -3.5 -1.45 -374.16 -192.34 -19.28 -9.73 0 -0.18 -82.49 -42.4c-2317.98,-1191.57 -4251.89,-2996.32 -5288.05,-5418.02 -961.38,-2246.86 -913.85,-4803.52 -359.95,-6781.46 115.9,-413.85 368.64,-727.17 748.58,-928.05 970.22,-513 1847.74,-801.61 3031.33,-973.89zm151.33 1039.69c-1063.03,154.73 -2023.76,454.89 -2852.19,943.01 -1334,4290.73 309.12,8747.6 5049.28,11184.3 4789.49,-2416.98 6493.14,-6893.57 5159.14,-11184.3 -810,-477.25 -1746.44,-774.83 -2781.36,-932.47 -1360.59,-207.25 -3211.6,-208.97 -4574.87,-10.54z"/>
  </g>
 </g>
</svg>
