<?xml version="1.0" encoding="UTF-8"?>
<!DOCTYPE svg PUBLIC "-//W3C//DTD SVG 1.1//EN" "http://www.w3.org/Graphics/SVG/1.1/DTD/svg11.dtd">
<!-- Creator: CorelDRAW -->
<svg xmlns="http://www.w3.org/2000/svg" xml:space="preserve" width="152.4mm" height="152.4mm" version="1.1" style="shape-rendering:geometricPrecision; text-rendering:geometricPrecision; image-rendering:optimizeQuality; fill-rule:evenodd; clip-rule:evenodd"
viewBox="0 0 15240 15240"
 xmlns:xlink="http://www.w3.org/1999/xlink"
 xmlns:xodm="http://www.corel.com/coreldraw/odm/2003">
 <defs>
  <style type="text/css">
   <![CDATA[
    .fil0 {fill:none}
    .fil2 {fill:#FEFEFE}
    .fil1 {fill:#4D9EDC}
    .fil3 {fill:#646262}
    .fil5 {fill:#918F8F}
    .fil4 {fill:#FFCC31}
    .fil6 {fill:white}
   ]]>
  </style>
 </defs>
 <g id="Capa_x0020_1">
  <metadata id="CorelCorpID_0Corel-Layer"/>
  <g id="_2981915260672">
   <rect class="fil0" x="-0" y="-0" width="15240" height="15240"/>
   <ellipse id="contour" class="fil1" cx="7620.01" cy="7620" rx="7200.69" ry="7200.73"/>
   <path class="fil2" d="M5164.32 7859.24l-6.79 -423.24c849.17,-2207.13 2284.35,-3056.77 4567.82,-3072.45 295.04,-2.02 748.35,16.47 968.55,92.5l-1.76 162.27c-331.83,-14.26 -707.8,-2.49 -1006.36,15.71 -2236.78,136.31 -3557.62,978.16 -4521.46,3225.21z"/>
   <path class="fil2" d="M5803.32 5784.38l2.42 -256.85c340.64,-915.94 1271.86,-1748.97 2005.71,-1995.92 140.6,-37.95 237.93,-39.84 286.91,-1.44 62.82,49.29 15.72,189.22 42.91,292.19 56.72,214.55 255.16,246.17 605.52,81.67 89.8,-42.16 165.06,-95.81 266.78,-104.85 71.1,-6.3 107.23,20.79 107.06,82.59 -0.29,103.84 -61.34,180.98 -160.98,209.9 -65.02,18.88 -122.43,-3.63 -127.56,-98.18 -602.46,398.52 -942.87,365.06 -1050.44,-52.14 -663.92,206.39 -1390.7,679.11 -1978.33,1843.03z"/>
   <ellipse class="fil2" cx="7749.87" cy="3124.67" rx="274.75" ry="327.89"/>
   <path id="contour_147" class="fil3" d="M13805.25 11308.14c-1257.07,2103.66 -3556.46,3512.59 -6185.24,3512.59 -2153.63,0 -4086.09,-945.77 -5405.64,-2444.28 23.5,-332.87 44.93,-665.89 66,-998.91 43.94,-694.83 84.91,-1389.82 128.51,-2084.66 9.6,-153.03 26.78,-342.21 83.93,-485.71 36.72,-92.24 88.42,-161.22 177.29,-206.85 100.17,-51.44 235.67,-67.78 346.55,-77.99 190.05,-17.52 382.76,-23.29 573.44,-36.78 1451.87,-102.74 2907.92,-139.98 4363.24,-124.84 1410.18,14.66 2819.03,78.26 4226.03,172.4l2.36 0.12c124.86,3.94 325.49,16.2 418.88,112.8 82.46,85.27 90.74,248.81 95.02,360.22l0.14 3.51 0.5 3.46c51.83,359.78 88.18,721.94 99.68,1085.37 8.86,280.35 65.58,558.59 46.07,838.34l-0.91 13.06 4.09 12.42c6.79,20.7 13.56,41.58 19.64,62.25l13.67 47.8 49.93 0.39c156.06,1.2 248.59,1.87 404.66,2.15 180.12,0.31 360.98,0.81 541.46,-1.39l-91.08 68.47 5.96 39.39c6.46,42.7 11.73,84.9 15.82,126.67z"/>
   <path id="contour_148" class="fil4" d="M13976.29 11005.52c-22.85,42.82 -46.18,85.33 -69.87,127.62l-51 38.34 -1146.2 -13.38c-1582.41,-18.47 -3326.14,155.4 -4956.29,447.31 -1753.34,446.89 -2279.83,1051.07 -1749.93,1569.04 823.88,805.33 2290.5,687.32 3313.63,416.98 1354.51,-357.91 2525.91,-1243.67 3326,-2217.67l387.23 997.95c-1319.54,1501.34 -3253.94,2449.02 -5409.85,2449.02 -1928.66,0 -3680.18,-758.31 -4972.79,-1992.98 248.92,-199.14 562.35,-394.92 948.38,-584.62 2724.09,-1281.09 7451.2,-1166.72 10380.69,-1237.61z"/>
   <path id="contour_149" class="fil0" d="M2457.46 12639.09c-105.05,-108.04 -206.84,-219.23 -305,-333.67 61.9,-888.92 143.91,-2285.35 189.81,-3016.72 56.44,-899.56 322.08,-804.56 1243.1,-869.73 2971.7,-210.3 5811.89,-138.9 8598.45,47.55 482.5,15.22 564.06,160.69 578.5,537.18 122.13,847.64 118.45,1431.13 82.14,1946.06 -5323.77,-13.29 -9091.38,598.19 -10387,1689.33z"/>
   <path id="contour_150" class="fil5" d="M3568.48 8995.68l1031.3 0c192.28,0 349.6,157.32 349.6,349.61l0 737.02c0,192.28 -157.32,349.6 -349.6,349.6l-1031.3 0c-192.28,0 -349.6,-157.32 -349.6,-349.6l0 -737.02c0,-192.29 157.32,-349.61 349.6,-349.61zm7087.98 0l1031.29 0c192.29,0 349.61,157.32 349.61,349.61l0 737.02c0,192.28 -157.32,349.6 -349.61,349.6l-1031.29 0c-192.28,0 -349.61,-157.32 -349.61,-349.6l0 -737.02c0,-192.29 157.33,-349.61 349.61,-349.61zm-2369.53 0l1031.3 0c192.28,0 349.6,157.32 349.6,349.61l0 737.02c0,192.28 -157.32,349.6 -349.6,349.6l-1031.3 0c-192.28,0 -349.6,-157.32 -349.6,-349.6l0 -737.02c0,-192.29 157.32,-349.61 349.6,-349.61zm-2348.49 0l1031.3 0c192.28,0 349.6,157.32 349.6,349.61l0 737.02c0,192.28 -157.32,349.6 -349.6,349.6l-1031.3 0c-192.28,0 -349.6,-157.32 -349.6,-349.6l0 -737.02c0,-192.29 157.32,-349.61 349.6,-349.61z"/>
   <path id="contour_151" class="fil6" d="M2457.46 12639.09c-105.05,-108.04 -206.84,-219.23 -305,-333.67 61.9,-888.92 143.91,-2285.35 189.81,-3016.72 56.44,-899.56 322.08,-804.56 1243.1,-869.73 2971.7,-210.3 5811.89,-138.9 8598.45,47.55 482.5,15.22 564.06,160.69 578.5,537.18 122.13,847.64 118.45,1431.13 82.14,1946.06 -5323.77,-13.29 -9091.38,598.19 -10387,1689.33zm10411.81 -2792.58c25.96,6.84 47.8,16.36 65.52,28.52 40.37,27.93 68.26,69.02 83.47,123.48l-139.88 26.61c-2.4,-59.57 -5.45,-119.12 -9.11,-178.61zm11.75 252.65c48.35,15.69 84.29,33.51 107.79,53.53 33.73,29.13 50.5,70.01 50.5,122.27 0,56.85 -23.2,105.92 -69.81,146.82 -23.04,20.28 -51.6,35.58 -85.67,45.82 1.89,-122.03 1.06,-244.14 -2.74,-366.67l-0.07 -1.77z"/>
   <path id="contour_152" class="fil5" d="M3568.48 8995.68l1031.3 0c192.28,0 349.6,157.32 349.6,349.61l0 737.02c0,192.28 -157.32,349.6 -349.6,349.6l-1031.3 0c-192.28,0 -349.6,-157.32 -349.6,-349.6l0 -737.02c0,-192.29 157.32,-349.61 349.6,-349.61zm7087.98 0l1031.29 0c192.29,0 349.61,157.32 349.61,349.61l0 737.02c0,192.28 -157.32,349.6 -349.61,349.6l-1031.29 0c-192.28,0 -349.61,-157.32 -349.61,-349.6l0 -737.02c0,-192.29 157.33,-349.61 349.61,-349.61zm-2369.53 0l1031.3 0c192.28,0 349.6,157.32 349.6,349.61l0 737.02c0,192.28 -157.32,349.6 -349.6,349.6l-1031.3 0c-192.28,0 -349.6,-157.32 -349.6,-349.6l0 -737.02c0,-192.29 157.32,-349.61 349.6,-349.61zm-2348.49 0l1031.3 0c192.28,0 349.6,157.32 349.6,349.61l0 737.02c0,192.28 -157.32,349.6 -349.6,349.6l-1031.3 0c-192.28,0 -349.6,-157.32 -349.6,-349.6l0 -737.02c0,-192.29 157.32,-349.61 349.6,-349.61z"/>
   <path id="contour_153" class="fil4" d="M7620.01 364.25c4007.22,0 7255.71,3248.52 7255.71,7255.75 0,4007.22 -3248.49,7255.74 -7255.71,7255.74 -4007.22,0 -7255.7,-3248.52 -7255.7,-7255.74 0,-4007.23 3248.48,-7255.75 7255.7,-7255.75zm-0.06 985.8c3462.82,0 6270.01,2807.18 6270.01,6270 0,3462.82 -2807.19,6270.01 -6270.01,6270.01 -3462.82,0 -6270,-2807.19 -6270,-6270.01 0,-3462.82 2807.18,-6270 6270,-6270z"/>
  </g>
 </g>
</svg>
