<?xml version="1.0" encoding="UTF-8"?>
<!DOCTYPE svg PUBLIC "-//W3C//DTD SVG 1.1//EN" "http://www.w3.org/Graphics/SVG/1.1/DTD/svg11.dtd">
<!-- Creator: CorelDRAW -->
<svg xmlns="http://www.w3.org/2000/svg" xml:space="preserve" width="152.4mm" height="152.4mm" version="1.1" style="shape-rendering:geometricPrecision; text-rendering:geometricPrecision; image-rendering:optimizeQuality; fill-rule:evenodd; clip-rule:evenodd"
viewBox="0 0 15240 15240"
 xmlns:xlink="http://www.w3.org/1999/xlink"
 xmlns:xodm="http://www.corel.com/coreldraw/odm/2003">
 <defs>
  <style type="text/css">
   <![CDATA[
    .fil3 {fill:none}
    .fil1 {fill:#275590}
    .fil2 {fill:#2D3290}
    .fil0 {fill:#89C8EB}
   ]]>
  </style>
 </defs>
 <g id="Capa_x0020_1">
  <metadata id="CorelCorpID_0Corel-Layer"/>
  <g id="_1788838175952">
   <g>
    <g>
     <ellipse id="contour" class="fil0" cx="7620.01" cy="7620" rx="7255.7" ry="7255.74"/>
     <path id="contour_59" class="fil1" d="M7620.01 364.25c4007.22,0 7255.71,3248.52 7255.71,7255.75 0,4007.22 -3248.49,7255.74 -7255.71,7255.74 -4007.22,0 -7255.7,-3248.52 -7255.7,-7255.74 0,-4007.23 3248.48,-7255.75 7255.7,-7255.75zm-0.06 985.8c3462.82,0 6270.01,2807.18 6270.01,6270 0,3462.82 -2807.19,6270.01 -6270.01,6270.01 -3462.82,0 -6270,-2807.19 -6270,-6270.01 0,-3462.82 2807.18,-6270 6270,-6270z"/>
     <path class="fil2" d="M10604.68 4197.25c1216.9,0 2203.39,980.51 2203.39,2190.05 0,748.23 -377.58,1408.75 -953.64,1803.76l828.69 2061.18 -1444.09 0 -595.9 -1675.37c-12.8,0.22 -25.6,0.49 -38.45,0.49 -36.8,0 -73.38,-0.95 -109.74,-2.72l-424.9 1151.26 -449.11 -1105.83c196.42,-158.31 371.36,-337.88 522.52,-534.19 147.04,39.36 301.67,60.39 461.23,60.39 977.37,0 1769.68,-787.51 1769.68,-1758.97 0,-971.44 -792.31,-1758.97 -1769.68,-1758.97 -43.1,0 -85.8,1.61 -128.13,4.62 -75.68,-140.71 -161.4,-275.21 -256.39,-402.4 124.87,-21.85 253.35,-33.3 384.52,-33.3zm-2968.62 -963.22c1614.42,0 2923.16,1308.74 2923.16,2923.16 0,998.71 -500.94,1880.33 -1265.16,2407.56l1188.37 2973.81 -1926.08 0 -869.28 -2458.84c-16.99,0.29 -33.96,0.64 -51.01,0.64 -48.82,0 -97.35,-1.26 -145.59,-3.62l-903.06 2461.82 -1913.66 0 1214.96 -3037.74c-713.72,-533 -1175.82,-1384.34 -1175.82,-2343.63 0,-1614.42 1308.74,-2923.16 2923.17,-2923.16zm0 575.38c1296.64,0 2347.78,1051.14 2347.78,2347.78 0,1296.66 -1051.14,2347.79 -2347.78,2347.79 -1296.66,0 -2347.79,-1051.13 -2347.79,-2347.79 0,-1296.64 1051.13,-2347.78 2347.79,-2347.78zm-2984.23 387.84c136.01,0 269.11,12.33 398.3,35.78 -94.51,126.8 -179.83,260.84 -255.16,401.05 -47.22,-3.76 -94.95,-5.75 -143.14,-5.75 -977.39,0 -1769.7,787.52 -1769.7,1758.97 0,971.46 792.31,1758.98 1769.7,1758.98 164.19,0 323.12,-22.31 473.96,-63.92 129.94,169.23 277.65,326.17 441.69,467.96l-463.9 1105.7 -15.59 38.99 -397.71 -1118.13c-12.81,0.21 -25.6,0.48 -38.45,0.48 -36.8,0 -73.38,-0.95 -109.74,-2.72l-619.14 1677.6 -1436.91 0 848.69 -2109.08c-537.99,-399.33 -886.3,-1037.16 -886.3,-1755.86 0,-1209.53 986.49,-2190.05 2203.4,-2190.05z"/>
    </g>
    <rect class="fil3" x="-0" y="-0" width="15240" height="15240"/>
   </g>
   <rect class="fil3" x="-0" y="-0" width="15240" height="15240"/>
  </g>
 </g>
</svg>
