<?xml version="1.0" encoding="UTF-8"?>
<!DOCTYPE svg PUBLIC "-//W3C//DTD SVG 1.1//EN" "http://www.w3.org/Graphics/SVG/1.1/DTD/svg11.dtd">
<!-- Creator: CorelDRAW -->
<svg xmlns="http://www.w3.org/2000/svg" xml:space="preserve" width="152.4mm" height="152.4mm" version="1.1" style="shape-rendering:geometricPrecision; text-rendering:geometricPrecision; image-rendering:optimizeQuality; fill-rule:evenodd; clip-rule:evenodd"
viewBox="0 0 15240 15240"
 xmlns:xlink="http://www.w3.org/1999/xlink"
 xmlns:xodm="http://www.corel.com/coreldraw/odm/2003">
 <defs>
  <style type="text/css">
   <![CDATA[
    .fil0 {fill:none}
    .fil1 {fill:black}
    .fil2 {fill:#C23F86}
    .fil3 {fill:#FBCEDF}
   ]]>
  </style>
 </defs>
 <g id="Capa_x0020_1">
  <metadata id="CorelCorpID_0Corel-Layer"/>
  <g id="_3018013890368">
   <rect class="fil0" x="-0" y="-0" width="15240" height="15240"/>
   <ellipse id="contour" class="fil1" cx="7620.01" cy="7620" rx="7200.69" ry="7200.73"/>
   <path id="contour_157" class="fil2" d="M7620.01 364.25c4007.22,0 7255.71,3248.52 7255.71,7255.75 0,4007.22 -3248.49,7255.74 -7255.71,7255.74 -4007.22,0 -7255.7,-3248.52 -7255.7,-7255.74 0,-4007.23 3248.48,-7255.75 7255.7,-7255.75zm-0.06 985.8c3462.82,0 6270.01,2807.18 6270.01,6270 0,3462.82 -2807.19,6270.01 -6270.01,6270.01 -3462.82,0 -6270,-2807.19 -6270,-6270.01 0,-3462.82 2807.18,-6270 6270,-6270z"/>
   <path class="fil2" d="M7613.83 5496.12c-861.61,-1845.96 -2472.2,-2187.4 -3615.21,-1856.03 -1318.78,382.31 -1988.57,1454.15 -2077.14,2643.7 -122.62,1646.95 763.43,2965.5 1981.98,3963.53 995.38,815.25 2333.22,1742.96 3710.37,3377.96 1377.15,-1635 2714.99,-2562.71 3710.37,-3377.96 1218.55,-998.03 2104.6,-2316.58 1981.98,-3963.53 -88.57,-1189.55 -758.36,-2261.39 -2077.14,-2643.7 -1143.01,-331.37 -2753.6,10.07 -3615.21,1856.03z"/>
   <path class="fil3" d="M7613.83 6082.18c-731.79,-1567.83 -2099.71,-1857.81 -3070.49,-1576.38 -1120.08,324.71 -1688.94,1235.05 -1764.17,2245.37 -104.15,1398.8 648.4,2518.67 1683.35,3366.33 845.4,692.41 1981.66,1480.34 3151.31,2868.99 1169.65,-1388.65 2305.91,-2176.58 3151.31,-2868.99 1034.95,-847.66 1787.5,-1967.53 1683.35,-3366.33 -75.23,-1010.32 -644.09,-1920.66 -1764.17,-2245.37 -970.78,-281.43 -2338.7,8.55 -3070.49,1576.38z"/>
  </g>
 </g>
</svg>
