<?xml version="1.0" encoding="UTF-8"?>
<!DOCTYPE svg PUBLIC "-//W3C//DTD SVG 1.1//EN" "http://www.w3.org/Graphics/SVG/1.1/DTD/svg11.dtd">
<!-- Creator: CorelDRAW -->
<svg xmlns="http://www.w3.org/2000/svg" xml:space="preserve" width="152.4mm" height="152.4mm" version="1.1" style="shape-rendering:geometricPrecision; text-rendering:geometricPrecision; image-rendering:optimizeQuality; fill-rule:evenodd; clip-rule:evenodd"
viewBox="0 0 15240 15240"
 xmlns:xlink="http://www.w3.org/1999/xlink"
 xmlns:xodm="http://www.corel.com/coreldraw/odm/2003">
 <defs>
  <style type="text/css">
   <![CDATA[
    .fil0 {fill:none}
    .fil2 {fill:#824297}
    .fil1 {fill:#D1D2D3}
   ]]>
  </style>
 </defs>
 <g id="Capa_x0020_1">
  <metadata id="CorelCorpID_0Corel-Layer"/>
  <g id="_2981977639968">
   <rect class="fil0" x="-0" y="-0" width="15240" height="15240"/>
   <ellipse id="contour" class="fil1" cx="7620.01" cy="7620" rx="7200.69" ry="7200.73"/>
   <path id="contour_88" class="fil2" d="M7620.01 364.25c4007.22,0 7255.71,3248.52 7255.71,7255.75 0,4007.22 -3248.49,7255.74 -7255.71,7255.74 -4007.22,0 -7255.7,-3248.52 -7255.7,-7255.74 0,-4007.23 3248.48,-7255.75 7255.7,-7255.75zm-0.06 985.8c3462.82,0 6270.01,2807.18 6270.01,6270 0,3462.82 -2807.19,6270.01 -6270.01,6270.01 -3462.82,0 -6270,-2807.19 -6270,-6270.01 0,-3462.82 2807.18,-6270 6270,-6270z"/>
   <path class="fil2" d="M5101.37 3943.76l1904.05 0c63.04,-267.64 303.36,-466.86 590.24,-466.86 286.88,0 527.2,199.22 590.24,466.86l1949.76 0c-37.64,-362.09 324.24,-797.67 702.48,-797.67 378.24,0 684.85,306.61 684.85,684.85 0,305.24 -199.69,563.78 -475.55,652.23l0 2347.3c261.82,67.12 455.34,304.67 455.34,587.43 0,282.76 -193.52,520.31 -455.34,587.43l0 2744.72c275.86,88.45 475.55,346.99 475.55,652.23 0,378.24 -306.61,684.85 -684.85,684.85 -378.24,0 -740.12,-435.58 -702.48,-797.67l0.62 -5.32 -1949.13 0c-61.04,270.38 -302.66,472.3 -591.49,472.3 -288.83,0 -530.45,-201.92 -591.49,-472.3l-1903.42 0 0.62 5.32c37.64,362.09 -324.24,797.67 -702.48,797.67 -378.24,0 -684.85,-306.61 -684.85,-684.85 0,-307.12 202.14,-567 480.64,-653.88l0 -2741.1c-265.91,-64.27 -463.44,-303.74 -463.44,-589.4 0,-285.66 197.53,-525.13 463.44,-589.4l0 -2343.68c-278.5,-86.88 -480.64,-346.76 -480.64,-653.88 0,-378.24 306.61,-684.85 684.85,-684.85 378.24,0 740.12,435.58 702.48,797.67zm2528.25 1449.55c651.38,0 1179.42,528.04 1179.42,1179.42 0,651.38 -528.04,1179.42 -1179.42,1179.42 -651.38,0 -1179.42,-528.04 -1179.42,-1179.42 0,-651.38 528.04,-1179.42 1179.42,-1179.42zm812.02 2319.91c329.21,113.24 567.46,426.65 567.46,793.03l0 1530.25 -2799.81 0 0 -1530.25c0,-376.8 252,-697.55 595.77,-802.18 230.01,171.77 515.41,273.48 824.56,273.48 303.58,0 584.21,-98.15 812.02,-264.33zm-3238.54 -2755.97l4835.92 0 0 5313.4 -4835.92 0 0 -5313.4z"/>
  </g>
 </g>
</svg>
