<?xml version="1.0" encoding="UTF-8"?>
<!DOCTYPE svg PUBLIC "-//W3C//DTD SVG 1.1//EN" "http://www.w3.org/Graphics/SVG/1.1/DTD/svg11.dtd">
<!-- Creator: CorelDRAW -->
<svg xmlns="http://www.w3.org/2000/svg" xml:space="preserve" width="152.4mm" height="152.4mm" version="1.1" style="shape-rendering:geometricPrecision; text-rendering:geometricPrecision; image-rendering:optimizeQuality; fill-rule:evenodd; clip-rule:evenodd"
viewBox="0 0 15240 15240"
 xmlns:xlink="http://www.w3.org/1999/xlink"
 xmlns:xodm="http://www.corel.com/coreldraw/odm/2003">
 <defs>
  <style type="text/css">
   <![CDATA[
    .fil0 {fill:none}
    .fil2 {fill:#FEFEFE}
    .fil1 {fill:#231F20}
    .fil3 {fill:#818285}
   ]]>
  </style>
 </defs>
 <g id="Capa_x0020_1">
  <metadata id="CorelCorpID_0Corel-Layer"/>
  <g id="_2981912523376">
   <rect class="fil0" x="-0" y="-0" width="15240" height="15240"/>
   <ellipse id="contour" class="fil1" cx="7620.01" cy="7620" rx="7200.69" ry="7200.73"/>
   <path id="contour_56" class="fil2" d="M8994.87 14745.08c-445.22,85.41 -904.73,130.66 -1374.86,130.66 -2661.58,0 -4987.99,-1433.39 -6250.59,-3570.04 3321.82,174.47 5368.19,-25.55 5867.72,-484.97 -1081.93,-577.87 -3482.67,-665.43 -6360.25,-517.47 -102.79,-257.96 -190.81,-523.36 -263.85,-794.91 2961.31,155.32 5370.74,130.97 6592.05,-477.95 -437.74,-562.18 -2962.26,-620.73 -6785.8,-515.21 -27.35,-221.54 -44.42,-446.25 -51.3,-673.52 3180.76,71.52 6006.04,36.39 6879.82,-584.19 -762.5,-563.52 -3522.33,-599.45 -6830.41,-516.05 35.97,-297.8 90.01,-590.01 160.9,-875.58 2888.65,154.28 5710.19,145.22 6699.97,-486.58 -760.91,-596.35 -3169.75,-665.32 -6387.99,-475.3 150.11,-371.77 330.04,-728.32 537.06,-1066.52l4463.86 -74.15c198.02,-3.29 1339.97,53.76 1297.78,-274.76 -24.59,-191.42 -699.09,-367.96 -1745.16,-535.99l549.76 -490.86c782.05,29.72 1454.4,135.54 1914.48,326.21 1113.11,461.29 1069.31,1349.39 -850.29,1552.39 848.53,204.66 1320.81,353.64 1446.23,816.52 124.86,460.83 -231.53,950.51 -1320.31,1047.15 774.79,174.11 1136.81,286.16 1296.39,554.52 198.35,333.61 126.57,717.75 -201.47,934 -243.82,160.72 -618.01,251.83 -1353.43,334.81 1070.55,275.79 1656.25,347.71 1658.13,808.92 2.6,638.61 -944.2,819 -1497.8,987.65 630.91,106.53 993.9,233.68 1205.37,372.17 460.16,301.34 371.88,809.08 -43.55,1113.63 -235.05,172.33 -577.56,315.62 -996.93,438.13 1054.39,138.34 1779.12,458.39 1785.63,1036.87l-41.16 1960.42z"/>
   <path id="contour_57" class="fil3" d="M7620.01 364.25c4007.22,0 7255.71,3248.52 7255.71,7255.75 0,4007.22 -3248.49,7255.74 -7255.71,7255.74 -4007.22,0 -7255.7,-3248.52 -7255.7,-7255.74 0,-4007.23 3248.48,-7255.75 7255.7,-7255.75zm-0.06 985.8c3462.82,0 6270.01,2807.18 6270.01,6270 0,3462.82 -2807.19,6270.01 -6270.01,6270.01 -3462.82,0 -6270,-2807.19 -6270,-6270.01 0,-3462.82 2807.18,-6270 6270,-6270z"/>
  </g>
 </g>
</svg>
