<?xml version="1.0" encoding="UTF-8"?>
<!DOCTYPE svg PUBLIC "-//W3C//DTD SVG 1.1//EN" "http://www.w3.org/Graphics/SVG/1.1/DTD/svg11.dtd">
<!-- Creator: CorelDRAW -->
<svg xmlns="http://www.w3.org/2000/svg" xml:space="preserve" width="152.4mm" height="152.4mm" version="1.1" style="shape-rendering:geometricPrecision; text-rendering:geometricPrecision; image-rendering:optimizeQuality; fill-rule:evenodd; clip-rule:evenodd"
viewBox="0 0 4904.15 4904.15"
 xmlns:xlink="http://www.w3.org/1999/xlink"
 xmlns:xodm="http://www.corel.com/coreldraw/odm/2003">
 <defs>
  <style type="text/css">
   <![CDATA[
    .fil0 {fill:none}
    .fil2 {fill:#1F4476}
    .fil1 {fill:#40A6CA}
    .fil3 {fill:white}
    .fil4 {fill:#1F4476;fill-rule:nonzero}
   ]]>
  </style>
 </defs>
 <g id="Capa_x0020_1">
  <metadata id="CorelCorpID_0Corel-Layer"/>
  <g id="_2483781455776">
   <rect class="fil0" x="-0" y="-0" width="4904.15" height="4904.15"/>
   <path class="fil1" d="M1706.47 199.53c193.81,-28.21 405,-44.98 619.54,-50.18l0 -0.79c41.91,-0.75 83.89,-1.07 125.85,-0.94l0.43 0c41.96,-0.13 83.95,0.18 125.85,0.94l0 0.79c214.54,5.2 425.72,21.97 619.54,50.18 375.93,54.72 654.64,146.39 962.8,309.32 120.67,63.81 200.95,163.32 237.76,294.77 175.93,628.23 191.02,1440.27 -114.32,2153.91 -329.11,769.17 -943.35,1342.39 -1679.58,1720.85l-26.2 13.47 0 0.06 -6.12 3.09 -118.84 61.09 -1.1 0.46 -1.11 -0.46 -118.84 -61.09 -6.13 -3.09 0 -0.06 -26.2 -13.47c-736.23,-378.46 -1350.47,-951.68 -1679.57,-1720.85 -305.35,-713.64 -290.25,-1525.68 -114.32,-2153.91 36.81,-131.45 117.08,-230.96 237.76,-294.77 308.16,-162.93 586.88,-254.6 962.8,-309.32z"/>
   <path class="fil2" d="M1696.66 169.9c196.36,-28.58 410.32,-45.57 627.69,-50.84l0 -0.79c42.46,-0.76 85,-1.08 127.51,-0.95l0.44 0c42.52,-0.13 85.05,0.19 127.51,0.95l0 0.79c217.36,5.27 431.32,22.26 627.69,50.84 380.87,55.44 663.25,148.31 975.47,313.39 122.26,64.64 203.59,165.47 240.89,298.64 178.24,636.49 193.54,1459.21 -115.83,2182.24 -333.43,779.29 -955.76,1360.05 -1701.67,1743.49l-26.54 13.64 0 0.06 -6.2 3.13 -120.4 61.89 -1.12 0.47 -1.13 -0.47 -120.4 -61.89 -6.2 -3.13 0 -0.06 -26.54 -13.64c-745.91,-383.44 -1368.24,-964.2 -1701.67,-1743.49 -309.37,-723.03 -294.07,-1545.75 -115.83,-2182.24 37.3,-133.17 118.63,-234 240.89,-298.64 312.21,-165.08 594.59,-257.95 975.47,-313.39zm48.7 334.57c-342.08,49.79 -651.24,146.38 -917.82,303.46 -429.27,1380.73 99.47,2814.93 1624.83,3599.05 1541.23,-777.77 2089.46,-2218.31 1660.18,-3599.05 -260.65,-153.58 -561.99,-249.34 -895.03,-300.06 -437.83,-66.69 -1033.48,-67.25 -1472.17,-3.39z"/>
   <g>
    <circle class="fil3" cx="2443.21" cy="2149.34" r="1486.86"/>
    <path class="fil2" d="M3399.58 2062.25l0 221.23c0,21.31 -17.37,38.68 -38.68,38.68l-1.13 0c-21.3,0 -38.68,-17.37 -38.68,-38.68 0,-87.98 -0.05,-175.94 -0.05,-263.87 0,-24.86 20.27,-45.13 45.13,-45.13l351.68 0c24.86,0 45.13,20.27 45.13,45.13 0,87.86 -0.17,175.83 -0.17,263.87 0,21.31 -17.38,38.68 -38.68,38.68l-1.13 0c-21.31,0 -38.68,-17.37 -38.68,-38.68l0 -221.23 -97.29 0 0 191.63c0,21.31 -17.37,38.68 -38.68,38.68l-1.13 0c-21.3,0 -38.68,-17.37 -38.68,-38.68l0 -191.63 -108.96 0z"/>
    <path class="fil2" d="M2284.86 819.75l36.25 0c13.76,0 25.58,6.57 32.85,18.25l184.44 296.6 0 -276.18c0,-21.3 17.37,-38.68 38.68,-38.68l19.07 0c21.3,0 38.68,17.37 38.68,38.68l0 377.12c0,24.86 -20.27,45.13 -45.13,45.13l-26.57 0c-15.86,0 -29.5,-7.47 -38.03,-20.84l-182.48 -285.75 0 261.46c0,24.86 -20.27,45.13 -45.13,45.13l-6.17 0c-24.86,0 -45.13,-20.27 -45.13,-45.13l0 -377.12c0,-21.3 17.38,-38.68 38.68,-38.68z"/>
    <path class="fil2" d="M1565.15 2001.34l0 25.23c0,17.53 -11.2,32.38 -28.05,37.19l-278.8 79.66 -8.7 3.31 8.7 3.31 278.8 79.66c16.86,4.82 28.05,19.66 28.05,37.19l0 25.23c0,17.79 -11.57,32.83 -28.77,37.39l-368.98 97.79c-13.95,3.7 -27.52,0.99 -38.98,-7.78 -11.47,-8.77 -17.63,-21.15 -17.71,-35.58l-0.05 -7.46c-0.12,-21.8 14.86,-40.2 36.23,-44.49l299.67 -60.24 -302.16 -69.31c-20.55,-4.71 -34.76,-22.32 -35.03,-43.4l-0.14 -10.74 0.03 -3.11 -0.03 -0.01 0.14 -10.74c0.27,-21.08 14.48,-38.69 35.03,-43.4l302.16 -69.31 -299.67 -60.23c-21.38,-4.3 -36.35,-22.69 -36.23,-44.49l0.05 -7.45c0.08,-14.43 6.24,-26.82 17.71,-35.59 11.46,-8.77 25.03,-11.48 38.98,-7.78l368.98 97.79c17.2,4.56 28.77,19.6 28.77,37.39z"/>
    <path class="fil4" d="M2264.75 3170.7c0,-19.8 3.79,-38.45 11.38,-55.93 7.58,-17.49 18.85,-32.66 33.81,-45.51 14.96,-12.85 33.6,-23.07 55.93,-30.65 22.33,-7.58 48.24,-11.38 77.74,-11.38 26.12,0 48.77,2.74 67.94,8.22 19.17,5.48 35.4,12.43 48.67,20.86 33.59,21.33 64.15,50.78 64.15,91.39 0,9.27 -3.58,18.22 -10.74,26.86 -7.16,8.64 -17.49,12.96 -30.97,12.96 -6.32,0 -11.59,-1.06 -15.8,-3.16 -4.21,-2.1 -8,-5.27 -11.38,-9.48 -18.45,-23.07 -18.21,-37.49 -42.98,-59.16 -6.74,-5.89 -15.38,-10.95 -25.91,-15.17 -10.53,-4.22 -23.81,-6.32 -39.82,-6.32 -10.95,0 -21.91,1.26 -32.86,3.79 -10.95,2.53 -20.86,6.53 -29.7,12.01 -8.85,5.48 -16.01,12.43 -21.49,20.86 -5.48,8.43 -8.22,18.33 -8.22,29.7 0,12.22 2.95,22.33 8.85,30.34 5.9,8.01 13.9,14.75 24.02,20.22 10.11,5.48 21.7,9.9 34.76,13.27 13.06,3.37 26.54,6.74 40.45,10.11 16.43,3.79 30.44,7.48 42.03,11.06 11.58,3.58 21.49,6.95 29.7,10.11 8.22,3.16 15.17,6.53 20.86,10.11 5.69,3.58 11.06,7.27 16.12,11.06 11.38,9.27 21.59,21.28 30.65,36.02 9.06,14.74 13.59,33.29 13.59,55.62 0,18.96 -3.9,36.23 -11.69,51.83 -7.79,15.59 -18.96,28.86 -33.5,39.82 -14.54,10.95 -32.34,19.49 -53.41,25.6 -21.07,6.11 -44.87,9.16 -71.42,9.16 -33.71,0 -61.1,-4.63 -82.16,-13.9 -21.07,-9.27 -37.5,-20.12 -49.3,-32.55 -11.8,-12.43 -19.8,-24.76 -24.02,-36.97 -8.67,-25.16 -9.85,-44.81 17.38,-58.97 5.26,-2.73 11.27,-4.11 18.01,-4.11 12.22,0 21.28,3.8 27.18,11.38 23.28,29.94 21.24,50.6 62.57,64.97 9.68,3.37 21.7,5.06 36.02,5.06 9.69,0 19.28,-1.05 28.76,-3.16 9.48,-2.1 17.91,-5.37 25.28,-9.8 7.37,-4.42 13.38,-10 18.01,-16.75 4.63,-6.74 6.95,-14.54 6.95,-23.38 0,-10.11 -2.84,-18.54 -8.53,-25.28 -5.69,-6.74 -13.17,-12.43 -22.44,-17.06 -9.27,-4.64 -19.8,-8.53 -31.6,-11.69 -11.8,-3.16 -23.6,-6.21 -35.39,-9.16 -18.96,-4.63 -34.97,-8.85 -48.03,-12.64 -13.06,-3.79 -24.33,-7.59 -33.81,-11.38 -9.48,-3.79 -17.7,-7.79 -24.65,-12.01 -6.95,-4.21 -13.38,-8.63 -19.28,-13.27 -8.85,-6.74 -15.9,-14.33 -21.17,-22.75 -5.27,-8.43 -9.48,-16.96 -12.64,-25.6 -3.16,-8.64 -5.27,-16.96 -6.32,-24.96 -1.06,-8.01 -1.58,-14.75 -1.58,-20.22z"/>
    <path class="fil1" d="M1687.22 2907.99c168.07,-229.89 529.98,-770.96 603.04,-928.8 301.35,-172.33 622.92,-388.49 950.53,-617.73 5.19,-3.63 12.09,-3.01 16.55,1.49 4.46,4.5 5.02,11.41 1.35,16.56 -225.28,316.11 -445.1,631.31 -616.72,938.48 -323.07,183.29 -632.05,391.93 -936.86,608.09 -5.19,3.68 -12.14,3.08 -16.62,-1.44 -4.49,-4.52 -5.01,-11.5 -1.27,-16.65z"/>
    <circle class="fil2" cx="2475.75" cy="2145.89" r="106.37"/>
    <circle class="fil3" cx="2475.75" cy="2145.89" r="71.16"/>
   </g>
  </g>
 </g>
</svg>
