<?xml version="1.0" encoding="UTF-8"?>
<!DOCTYPE svg PUBLIC "-//W3C//DTD SVG 1.1//EN" "http://www.w3.org/Graphics/SVG/1.1/DTD/svg11.dtd">
<!-- Creator: CorelDRAW -->
<svg xmlns="http://www.w3.org/2000/svg" xml:space="preserve" width="152.4mm" height="152.4mm" version="1.1" style="shape-rendering:geometricPrecision; text-rendering:geometricPrecision; image-rendering:optimizeQuality; fill-rule:evenodd; clip-rule:evenodd"
viewBox="0 0 15240 15240"
 xmlns:xlink="http://www.w3.org/1999/xlink"
 xmlns:xodm="http://www.corel.com/coreldraw/odm/2003">
 <defs>
  <style type="text/css">
   <![CDATA[
    .fil0 {fill:none}
    .fil3 {fill:#1F4476}
    .fil1 {fill:#40A6CA}
    .fil2 {fill:white}
    .fil4 {fill:#1F4476;fill-rule:nonzero}
   ]]>
  </style>
 </defs>
 <g id="Capa_x0020_1">
  <metadata id="CorelCorpID_0Corel-Layer"/>
  <g id="_2483887126976">
   <rect class="fil0" x="-0" y="-0" width="15240" height="15240"/>
   <ellipse id="contour" class="fil1" cx="7620.01" cy="7620" rx="7200.69" ry="7200.73"/>
   <ellipse class="fil2" cx="7620.01" cy="7620" rx="5858.31" ry="5858.34"/>
   <path id="contour_0" class="fil3" d="M7620.01 364.25c4007.22,0 7255.71,3248.52 7255.71,7255.75 0,4007.22 -3248.49,7255.74 -7255.71,7255.74 -4007.22,0 -7255.7,-3248.52 -7255.7,-7255.74 0,-4007.23 3248.48,-7255.75 7255.7,-7255.75zm-0.06 1085.39c3407.82,0 6170.42,2762.59 6170.42,6170.41 0,3407.82 -2762.6,6170.42 -6170.42,6170.42 -3407.82,0 -6170.41,-2762.6 -6170.41,-6170.42 0,-3407.82 2762.59,-6170.41 6170.41,-6170.41z"/>
   <path class="fil3" d="M11388.19 7276.85l0 871.66c0,83.94 -68.46,152.4 -152.4,152.4l-4.45 0c-83.94,0 -152.4,-68.46 -152.4,-152.4 0,-346.64 -0.19,-693.22 -0.19,-1039.67 0,-97.93 79.87,-177.8 177.8,-177.8l1385.65 0c97.93,0 177.8,79.87 177.8,177.8 0,346.19 -0.67,692.8 -0.67,1039.67 0,83.94 -68.46,152.4 -152.4,152.4l-4.45 0c-83.94,0 -152.4,-68.46 -152.4,-152.4l0 -871.66 -383.34 0 0 755.04c0,83.94 -68.46,152.4 -152.4,152.4l-4.45 0c-83.94,0 -152.4,-68.46 -152.4,-152.4l0 -755.04 -429.3 0z"/>
   <path class="fil3" d="M6996.11 2381.3l142.83 0c54.21,0 100.78,25.89 129.41,71.92l726.69 1168.63 0 -1088.15c0,-83.94 68.46,-152.4 152.4,-152.4l75.12 0c83.94,0 152.4,68.46 152.4,152.4l0 1485.88c0,97.93 -79.87,177.8 -177.8,177.8l-104.7 0c-62.5,0 -116.21,-29.43 -149.85,-82.11l-718.98 -1125.86 0 1030.17c0,97.93 -79.87,177.8 -177.8,177.8l-24.32 0c-97.93,0 -177.8,-79.87 -177.8,-177.8l0 -1485.88c0,-83.94 68.46,-152.4 152.4,-152.4z"/>
   <path class="fil3" d="M4160.4 7036.86l0 99.39c0,69.07 -44.12,127.56 -110.53,146.54l-1098.51 313.86 -34.27 13.06 34.27 13.05 1098.51 313.86c66.41,18.98 110.53,77.47 110.53,146.54l0 99.39c0,70.09 -45.61,129.35 -113.36,147.31l-1453.81 385.29c-54.97,14.57 -108.42,3.9 -153.58,-30.65 -45.17,-34.55 -69.45,-83.35 -69.77,-140.21l-0.17 -29.37c-0.48,-85.91 58.53,-158.38 142.76,-175.31l1180.74 -237.33 -1190.51 -273.09c-80.96,-18.57 -136.96,-87.95 -138.03,-171.01l-0.55 -42.33 0.1 -12.25 -0.1 -0.04 0.55 -42.33c1.07,-83.06 57.07,-152.44 138.03,-171.01l1190.51 -273.09 -1180.74 -237.33c-84.23,-16.93 -143.24,-89.4 -142.76,-175.31l0.17 -29.37c0.32,-56.86 24.6,-105.66 69.77,-140.21 45.16,-34.55 98.61,-45.22 153.58,-30.65l1453.81 385.29c67.75,17.96 113.36,77.22 113.36,147.31z"/>
   <path class="fil4" d="M6916.85 11644.23c0,-78.03 14.94,-151.49 44.82,-220.38 29.88,-68.9 74.29,-128.66 133.23,-179.3 58.93,-50.63 132.39,-90.89 220.38,-120.77 87.98,-29.88 190.08,-44.82 306.29,-44.82 102.93,0 192.16,10.79 267.69,32.37 75.54,21.58 139.47,48.99 191.75,82.18 132.36,84.03 252.75,200.07 252.75,360.08 0,36.52 -14.11,71.8 -42.33,105.83 -28.22,34.03 -68.9,51.05 -122.02,51.05 -24.9,0 -45.67,-4.17 -62.26,-12.45 -16.58,-8.28 -31.54,-20.76 -44.82,-37.36 -72.72,-90.9 -71.74,-147.7 -169.33,-233.08 -26.54,-23.22 -60.6,-43.16 -102.1,-59.76 -41.5,-16.6 -93.8,-24.9 -156.88,-24.9 -43.16,0 -86.33,4.98 -129.49,14.94 -43.16,9.96 -82.18,25.73 -117.04,47.31 -34.86,21.58 -63.08,48.97 -84.66,82.18 -21.59,33.2 -32.38,72.21 -32.38,117.04 0,48.14 11.62,87.98 34.87,119.52 23.24,31.55 54.78,58.11 94.62,79.69 39.85,21.58 85.5,39.01 136.96,52.29 51.47,13.28 104.59,26.57 159.37,39.85 64.75,14.94 119.95,29.46 165.6,43.58 45.65,14.11 84.67,27.39 117.04,39.84 32.37,12.45 59.76,25.73 82.18,39.84 22.41,14.11 43.57,28.64 63.5,43.58 44.82,36.52 85.08,83.84 120.77,141.94 35.69,58.1 53.54,131.15 53.54,219.14 0,74.7 -15.36,142.77 -46.07,204.19 -30.71,61.42 -74.71,113.72 -131.98,156.88 -57.27,43.16 -127.41,76.78 -210.42,100.85 -83.01,24.08 -176.8,36.11 -281.39,36.11 -132.81,0 -240.72,-18.26 -323.72,-54.78 -83.01,-36.53 -147.75,-79.27 -194.24,-128.25 -46.48,-48.97 -78.03,-97.55 -94.62,-145.67 -34.18,-99.13 -38.82,-176.57 68.48,-232.34 20.74,-10.77 44.4,-16.18 70.97,-16.18 48.14,0 83.84,14.96 107.07,44.82 91.73,117.95 83.7,199.38 246.53,255.99 38.16,13.27 85.5,19.92 141.94,19.92 38.18,0 75.95,-4.15 113.3,-12.45 37.36,-8.3 70.56,-21.16 99.61,-38.6 29.05,-17.43 52.71,-39.42 70.97,-65.99 18.26,-26.56 27.39,-57.27 27.39,-92.13 0,-39.85 -11.2,-73.05 -33.61,-99.61 -22.42,-26.56 -51.88,-48.97 -88.41,-67.23 -36.52,-18.27 -78.02,-33.62 -124.5,-46.07 -46.49,-12.45 -92.97,-24.49 -139.45,-36.11 -74.71,-18.26 -137.79,-34.86 -189.26,-49.8 -51.46,-14.95 -95.87,-29.89 -133.22,-44.83 -37.36,-14.94 -69.73,-30.71 -97.12,-47.31 -27.39,-16.6 -52.71,-34.03 -75.95,-52.29 -34.86,-26.57 -62.67,-56.45 -83.42,-89.65 -20.75,-33.2 -37.35,-66.82 -49.8,-100.85 -12.46,-34.04 -20.76,-66.82 -24.91,-98.37 -4.15,-31.54 -6.22,-58.1 -6.22,-79.68z"/>
   <path class="fil1" d="M4641.38 10609.1c662.21,-905.79 2088.16,-3037.62 2376.01,-3659.54 1187.34,-679 2454.34,-1530.66 3745.17,-2433.88 20.44,-14.3 47.65,-11.85 65.21,5.86 17.55,17.72 19.76,44.94 5.29,65.25 -887.59,1245.49 -1753.72,2487.42 -2429.92,3697.68 -1272.9,722.2 -2490.33,1544.24 -3691.29,2395.93 -20.44,14.5 -47.84,12.12 -65.48,-5.69 -17.67,-17.83 -19.75,-45.31 -4.99,-65.61z"/>
   <circle class="fil3" cx="7748.23" cy="7606.38" r="419.1"/>
   <circle class="fil2" cx="7748.23" cy="7606.38" r="280.38"/>
  </g>
 </g>
</svg>
