<?xml version="1.0" encoding="UTF-8"?>
<!DOCTYPE svg PUBLIC "-//W3C//DTD SVG 1.1//EN" "http://www.w3.org/Graphics/SVG/1.1/DTD/svg11.dtd">
<!-- Creator: CorelDRAW -->
<svg xmlns="http://www.w3.org/2000/svg" xml:space="preserve" width="152.4mm" height="152.4mm" version="1.1" style="shape-rendering:geometricPrecision; text-rendering:geometricPrecision; image-rendering:optimizeQuality; fill-rule:evenodd; clip-rule:evenodd"
viewBox="0 0 15240 15240"
 xmlns:xlink="http://www.w3.org/1999/xlink"
 xmlns:xodm="http://www.corel.com/coreldraw/odm/2003">
 <defs>
  <style type="text/css">
   <![CDATA[
    .fil0 {fill:none}
    .fil2 {fill:black}
    .fil1 {fill:#B12323}
   ]]>
  </style>
 </defs>
 <g id="Capa_x0020_1">
  <metadata id="CorelCorpID_0Corel-Layer"/>
  <g id="_2981911951296">
   <rect class="fil0" x="-0" y="-0" width="15240" height="15240"/>
   <ellipse id="contour" class="fil1" cx="7620.01" cy="7620" rx="7200.69" ry="7200.73"/>
   <path id="contour_123" class="fil2" d="M7620.01 364.25c4007.22,0 7255.71,3248.52 7255.71,7255.75 0,4007.22 -3248.49,7255.74 -7255.71,7255.74 -4007.22,0 -7255.7,-3248.52 -7255.7,-7255.74 0,-4007.23 3248.48,-7255.75 7255.7,-7255.75zm-0.06 1179.04c3356.1,0 6076.77,2720.66 6076.77,6076.76 0,3356.1 -2720.67,6076.77 -6076.77,6076.77 -3356.1,0 -6076.76,-2720.67 -6076.76,-6076.77 0,-3356.1 2720.66,-6076.76 6076.76,-6076.76z"/>
   <path class="fil2" d="M4281.41 3919.4l6665.2 0 0 7481.83 -6665.2 0 0 -7481.83zm457.92 514.02l5749.36 0 0 6453.78 -5749.36 0 0 -6453.78z"/>
   <ellipse class="fil2" cx="7620.88" cy="4184.8" rx="495.25" ry="475.93"/>
   <path class="fil2" d="M5360.53 5350.21l1970.88 0c47.42,0 86.1,38.68 86.1,86.1l0 292.17c0,38.22 -23.8,70.65 -60.26,82.12 -289.89,91.21 -501.65,363.12 -501.65,682.1l0 566.28 1429.63 0 0 -566.28c0,-317.79 -210.17,-588.83 -498.38,-681.07 -36.26,-11.6 -59.86,-43.93 -59.86,-82l0 -293.32c0,-47.42 38.68,-86.1 86.1,-86.1l1970.88 0c47.42,0 86.1,38.68 86.1,86.1l0 267.28c0,43.82 -32.34,80.27 -75.85,85.49 -15.69,1.87 -31.32,4.44 -46.83,7.66 -43.26,8.98 -84.73,23 -123.78,41.38 -190.92,89.87 -323.91,284.35 -323.91,508.35l0 2579.6c0,253.77 170.66,469.62 402.87,538.45 30.03,8.9 60.69,15.22 91.65,18.93 43.51,5.22 75.85,41.67 75.85,85.49l0 302.55c0,47.42 -38.68,86.1 -86.1,86.1l-1970.88 0c-47.42,0 -86.1,-38.68 -86.1,-86.1l0 -310.38c0,-38.07 23.6,-70.4 59.86,-82 288.21,-92.24 498.38,-363.28 498.38,-681.07l0 -545.62 -1429.63 0 0 545.62c0,318.99 211.76,590.89 501.65,682.1 36.45,11.47 60.26,43.91 60.26,82.12l0 309.23c0,47.42 -38.68,86.1 -86.1,86.1l-1970.88 0c-47.42,0 -86.1,-38.68 -86.1,-86.1l0 -300.73c0,-44.63 33.72,-81.61 78.16,-85.73 54.44,-5.03 107.92,-18.04 159.03,-38.92 205.04,-83.8 350.49,-285.76 350.49,-520.04l0 -2579.6c0,-219.82 -128.04,-411.18 -313.22,-503.19 -61.93,-30.76 -128.3,-49.46 -196.31,-55.76 -44.44,-4.12 -78.15,-41.1 -78.15,-85.73l0 -265.48c0,-47.42 38.68,-86.1 86.1,-86.1z"/>
   <ellipse class="fil2" cx="7620.88" cy="11180.16" rx="495.25" ry="475.93"/>
   <path class="fil2" d="M6384.38 12700.52c794.51,-127.29 1595.01,-127.91 2401.67,0l0 659.21c-760.52,154.5 -1556.09,173.63 -2401.67,0l0 -659.21z"/>
   <path class="fil2" d="M5570.33 11202.97c889.35,488.3 1519.36,1051.19 2038.22,1552.93 668.02,-668.32 1362.55,-1196.39 1978.77,-1558.93l-4016.99 6zm-941.91 -11.08l-241.02 175.16c835.95,45.87 1633.78,626 2447.57,1336.57l521.24 774.88 10.41 910.19 513.63 0 1.78 -925.99 421.75 -747.71c1014.86,-826.32 1818.39,-1258.49 2377.57,-1350.62l-166.26 -170.02 -1855.53 5.24 -2529.91 -34.94 -1501.23 27.24z"/>
   <path class="fil2" d="M6384.38 2539.48c794.51,127.29 1595.01,127.91 2401.67,0l0 -659.21c-760.52,-154.5 -1556.09,-173.63 -2401.67,0l0 659.21z"/>
   <path class="fil2" d="M5570.33 4037.03c889.35,-488.3 1519.36,-1051.19 2038.22,-1552.93 668.02,668.32 1362.55,1196.39 1978.77,1558.93l-4016.99 -6zm-941.91 11.08l-250.93 -128.71c961.51,-151.61 1643.69,-672.45 2457.48,-1383.02l521.24 -774.88 10.41 -910.19 513.63 0 1.78 925.99 421.75 747.71c1014.86,826.32 1734.72,1274.28 2494.4,1394.39l-283.09 126.25 -1855.53 -5.24 -2529.91 34.94 -1501.23 -27.24z"/>
   <path class="fil2" d="M2669.93 8660.99c107.41,-682.28 107.93,-1369.7 0,-2062.42l-556.26 0c-130.38,653.09 -146.52,1336.28 0,2062.42l556.26 0z"/>
   <rect class="fil2" x="594.96" y="7359.49" width="1825.72" height="549.61"/>
   <rect class="fil2" x="2593.77" y="6925.89" width="566.12" height="1325.88"/>
   <path class="fil2" d="M3596.37 5166.59c247.46,704.38 -848.67,1279.36 -1429.42,671.7 -613.65,-642.07 -423.71,-1900.21 625.7,-2088.67 612.97,-104.39 1110.81,79.6 1488.76,554.87 536.42,686.42 440.59,1456.75 -52.42,2274.9 -230.11,377.86 -602.58,582.79 -1069.1,673.53l-418.87 22.64 0 -349.67 418.87 0c470.56,-41.12 853.61,-271.84 1121.52,-752 244.47,-647.87 238.5,-1204.68 0,-1676.96 -405.71,-501.49 -939.68,-715.95 -1674.4,-481.09 -632,223.32 -891.57,941.33 -377.52,1468.06 523.4,536.31 1266.06,244.96 1366.88,-317.31z"/>
   <path class="fil2" d="M3596.39 10008.21c247.46,-704.38 -848.67,-1279.36 -1429.42,-671.7 -613.65,642.07 -423.71,1900.21 625.7,2088.67 612.97,104.39 1110.81,-79.6 1488.76,-554.87 536.42,-686.42 440.59,-1456.75 -52.42,-2274.9 -230.11,-377.86 -602.58,-582.79 -1069.1,-673.53l-418.87 -22.64 0 349.67 418.87 0c470.56,41.12 853.61,271.84 1121.52,752 244.47,647.87 238.5,1204.68 0,1676.96 -405.71,501.49 -939.68,715.95 -1674.4,481.09 -632,-223.32 -891.57,-941.33 -377.52,-1468.06 523.4,-536.31 1266.06,-244.96 1366.88,317.31z"/>
   <path class="fil2" d="M12570.08 8660.99c-107.41,-682.28 -107.93,-1369.7 0,-2062.42l556.26 0c130.38,653.09 146.52,1336.28 0,2062.42l-556.26 0z"/>
   <rect class="fil2" x="12819.33" y="7359.49" width="1825.72" height="549.61"/>
   <rect class="fil2" x="12080.12" y="6925.89" width="566.12" height="1325.88"/>
   <path class="fil2" d="M11643.64 5166.59c-247.46,704.38 848.67,1279.36 1429.42,671.7 613.65,-642.07 423.71,-1900.21 -625.7,-2088.67 -612.97,-104.39 -1110.81,79.6 -1488.76,554.87 -536.42,686.42 -440.59,1456.75 52.42,2274.9 230.11,377.86 602.58,582.79 1069.1,673.53l418.87 22.64 0 -349.67 -418.87 0c-470.56,-41.12 -853.61,-271.84 -1121.52,-752 -244.47,-647.87 -238.5,-1204.68 0,-1676.96 405.71,-501.49 939.68,-715.95 1674.4,-481.09 632,223.32 891.57,941.33 377.52,1468.06 -523.4,536.31 -1266.06,244.96 -1366.88,-317.31z"/>
   <path class="fil2" d="M11643.62 10008.21c-247.46,-704.38 848.67,-1279.36 1429.42,-671.7 613.65,642.07 423.71,1900.21 -625.7,2088.67 -612.97,104.39 -1110.81,-79.6 -1488.76,-554.87 -536.42,-686.42 -440.59,-1456.75 52.42,-2274.9 230.11,-377.86 602.58,-582.79 1069.1,-673.53l418.87 -22.64 0 349.67 -418.87 0c-470.56,41.12 -853.61,271.84 -1121.52,752 -244.47,647.87 -238.5,1204.68 0,1676.96 405.71,501.49 939.68,715.95 1674.4,481.09 632,-223.32 891.57,-941.33 377.52,-1468.06 -523.4,-536.31 -1266.06,-244.96 -1366.88,317.31z"/>
  </g>
 </g>
</svg>
