<?xml version="1.0" encoding="UTF-8"?>
<!DOCTYPE svg PUBLIC "-//W3C//DTD SVG 1.1//EN" "http://www.w3.org/Graphics/SVG/1.1/DTD/svg11.dtd">
<!-- Creator: CorelDRAW -->
<svg xmlns="http://www.w3.org/2000/svg" xml:space="preserve" width="152.4mm" height="152.4mm" version="1.1" style="shape-rendering:geometricPrecision; text-rendering:geometricPrecision; image-rendering:optimizeQuality; fill-rule:evenodd; clip-rule:evenodd"
viewBox="0 0 15240 15240"
 xmlns:xlink="http://www.w3.org/1999/xlink"
 xmlns:xodm="http://www.corel.com/coreldraw/odm/2003">
 <defs>
  <style type="text/css">
   <![CDATA[
    .fil0 {fill:none}
    .fil2 {fill:black}
    .fil1 {fill:#B12323}
   ]]>
  </style>
 </defs>
 <g id="Capa_x0020_1">
  <metadata id="CorelCorpID_0Corel-Layer"/>
  <g id="_2981914845968">
   <rect class="fil0" x="-0" y="-0" width="15240" height="15240"/>
   <path class="fil1" d="M5302.97 620.06c602.29,-87.67 1258.56,-139.78 1925.26,-155.94l0 -2.44c130.23,-2.33 260.7,-3.31 391.1,-2.91l1.35 0c130.4,-0.4 260.88,0.57 391.1,2.91l0 2.44c666.7,16.16 1322.97,68.27 1925.26,155.94 1168.23,170.04 2034.35,454.91 2991.98,961.24 375,198.28 624.47,507.53 738.86,916.01 546.7,1952.26 593.62,4475.73 -355.27,6693.43 -1022.72,2390.25 -2931.53,4171.57 -5219.41,5347.67l-81.42 41.85 0 0.18 -19.03 9.6 -369.3 189.85 -3.43 1.43 -3.46 -1.43 -369.29 -189.85 -19.04 -9.6 0 -0.18 -81.42 -41.85c-2287.88,-1176.1 -4196.69,-2957.42 -5219.4,-5347.67 -948.9,-2217.7 -901.98,-4741.17 -355.27,-6693.43 114.39,-408.48 363.85,-717.73 738.85,-916.01 957.63,-506.33 1823.76,-791.2 2991.98,-961.24z"/>
   <path class="fil2" d="M5356.08 4867.72l1957.46 0c47.11,0 85.52,38.68 85.52,86.09l0 292.17c0,38.21 -23.64,70.63 -59.86,82.11 -287.92,91.2 -498.23,363.1 -498.23,682.06l0 566.25 1419.9 0 0 -566.25c0,-317.77 -208.74,-588.8 -495,-681.03 -36.01,-11.61 -59.45,-43.93 -59.45,-82l0 -293.31c0,-47.41 38.42,-86.09 85.52,-86.09l1957.46 0c47.1,0 85.51,38.68 85.51,86.09l0 267.27c0,43.83 -32.11,80.27 -75.34,85.48 -15.57,1.88 -31.1,4.44 -46.5,7.67 -42.97,8.97 -84.16,23 -122.94,41.37 -189.62,89.87 -321.69,284.35 -321.69,508.32l0 2579.49c0,253.76 169.48,469.6 400.12,538.42 29.82,8.9 60.27,15.22 91.01,18.93 43.23,5.22 75.34,41.68 75.34,85.48l0 302.54c0,47.42 -38.41,86.1 -85.51,86.1l-1957.46 0c-47.1,0 -85.52,-38.68 -85.52,-86.1l0 -310.36c0,-38.06 23.44,-70.4 59.45,-82 286.26,-92.23 495,-363.26 495,-681.04l0 -545.59 -1419.9 0 0 545.59c0,318.98 210.31,590.87 498.23,682.07 36.21,11.47 59.86,43.91 59.86,82.12l0 309.21c0,47.42 -38.41,86.1 -85.52,86.1l-1957.46 0c-47.1,0 -85.52,-38.68 -85.52,-86.1l0 -300.71c0,-44.63 33.5,-81.61 77.64,-85.72 54.07,-5.04 107.18,-18.05 157.94,-38.94 203.65,-83.78 348.11,-285.73 348.11,-520l0 -2579.49c0,-219.8 -127.17,-411.15 -311.09,-503.15 -61.51,-30.77 -127.43,-49.45 -194.97,-55.76 -44.14,-4.12 -77.63,-41.1 -77.63,-85.73l0 -265.47c0,-47.41 38.42,-86.09 85.52,-86.09zm8677.44 2009.19c-26.52,183.41 -58.16,366.74 -95.1,549.59l-773.69 0c-13.26,245.66 -44.46,496.08 -95.71,751.84l-552.49 0c-21.29,-136.19 -38.34,-272.59 -51.16,-409.2l-435.46 0 0 -2.85 -0.02 0c-467.34,41.11 -847.79,271.82 -1113.89,751.95 -4.03,10.76 -7.98,21.5 -11.88,32.21l0 1620.49c3.89,8.08 7.85,16.15 11.88,24.19 402.96,501.46 933.28,715.9 1663.01,481.07 12.56,-4.47 24.9,-9.2 37.16,-14.06 -59.18,91.88 -119.73,182.68 -181.73,272.33 -13.16,2.78 -26.37,5.5 -39.81,7.93 -608.8,104.39 -1103.25,-79.6 -1478.63,-554.84 -4.03,-5.2 -7.92,-10.41 -11.88,-15.62l0 546.51 -433.23 0c-527.03,139.18 -1237.29,542.56 -2108.87,1246.41 131.92,14.12 264.01,31.71 396.26,52.82l0 659.18c-293.74,60.08 -592.75,99.69 -897.9,115.44l-0.41 214.33c323.69,-13.38 639.87,-49.45 949.43,-105.55l0 779.49 -950.72 0 -0.04 25.2 -510.12 0 -0.29 -25.2 -1018.19 0 0 -779.49c345.27,61.21 681.83,96.11 1010.55,107.36l-2.42 -212.82 0 -0.01c-314.71,-12.3 -636.14,-50.72 -965.21,-118.75l0 -659.18c128.06,-20.66 256.27,-37.96 384.63,-51.93 -697.48,-607.67 -1384.17,-1110.15 -2094.69,-1247.3l-378.58 0 0 -530.87c-374.13,473.63 -866.54,657.94 -1472.53,555.82 -59.96,-86.51 -118.63,-174.06 -175.96,-262.65 722.24,227.33 1248.21,12.51 1648.49,-485.6l0 -1676.95c-266.1,-480.1 -646.54,-710.8 -1113.87,-751.91l-0.02 0 0 2.85 -435.46 0c-12.82,136.61 -29.87,273.01 -51.16,409.2l-654.21 0c-51.25,-255.76 -266.52,-506.18 -279.78,-751.84l-448.23 0c-36.95,-182.85 -68.57,-366.18 -95.1,-549.59l451.07 0c13.72,-258.48 -21.24,-511.88 28.13,-760.89l998.12 0c16.9,109.23 31.12,218.33 42.67,327.3l443.95 0 0 0.01c467.34,-41.12 847.79,-271.83 1113.89,-751.97l0 -1676.88c-402.96,-501.47 -933.28,-715.92 -1663.01,-481.07 -627.69,223.32 -885.5,941.29 -374.94,1467.99 519.83,536.28 1257.44,244.95 1357.55,-317.29 245.79,704.35 -842.87,1279.29 -1419.68,671.67 -609.46,-642.04 -420.81,-1900.13 621.45,-2088.57 608.8,-104.4 1103.25,79.59 1478.63,554.84l0 -385.07 95.41 0c930.14,-147.67 1597.08,-645.6 2377.95,-1327.92 -128.39,-13.97 -256.64,-31.28 -384.72,-51.94l0 -659.18c329.07,-68.03 650.5,-106.45 965.21,-118.75l0 -0.01 10.35 -910.15 510.12 0 1.74 913.47c305.15,15.75 604.16,55.36 897.9,115.44l0 659.18c-132.32,21.12 -264.48,38.72 -396.47,52.84 964.78,783.33 1661.15,1210.22 2394.89,1327.02l147.42 0 0 400.72c3.97,-5.21 7.86,-10.44 11.9,-15.65 375.38,-475.25 869.83,-659.24 1478.63,-554.84 1042.26,188.44 1230.91,1446.53 621.45,2088.57 -576.81,607.62 -1665.47,32.68 -1419.68,-671.67 100.11,562.24 837.72,853.57 1357.55,317.29 510.56,-526.7 252.75,-1244.67 -374.94,-1467.99 -729.73,-234.85 -1260.05,-20.4 -1663.01,481.07 -4.04,8.05 -8,16.13 -11.9,24.23l0 1620.39c3.9,10.73 7.86,21.48 11.9,32.26 266.1,480.14 646.55,710.85 1113.89,751.97l0 -0.01 443.95 0c11.55,-108.97 25.77,-218.07 42.67,-327.3l552.49 0c0,0 532.09,-3.28 532.09,-3.28 23.79,161.55 -74.76,598.62 -65.98,764.17l498.39 0zm-721.71 2506.25c-36.85,81.61 -74.61,162.58 -113.47,242.77 -38.07,-144.02 -117.47,-286.79 -244.39,-417.72 -519.83,-536.29 -1257.44,-244.96 -1357.55,317.29 -245.79,-704.35 842.87,-1279.31 1419.68,-671.67 142.37,149.99 241.17,333.6 295.73,529.33zm-11294.63 191.88c-38.57,-80.8 -76.18,-162.26 -112.68,-244.51 56.9,-175.92 150.24,-340.25 279.77,-476.7 576.8,-607.64 1665.46,-32.68 1419.67,671.67 -100.11,-562.25 -837.72,-853.58 -1357.55,-317.29 -111.95,115.49 -186.94,240.18 -229.21,366.83zm3752.79 -6138.06l1422.77 0c88.32,-126.98 238.21,-210.52 408.3,-210.52 170.08,0 319.96,83.54 408.29,210.52l1343.26 0c-512.28,-324.91 -1068.83,-758.26 -1613.1,-1286.29 -102.22,2.43 -204.33,2.75 -306.35,0.97 -442.71,421.28 -969.85,874.87 -1663.17,1285.32zm5134.15 2549.14l0 2237.32c20.5,-36.79 41.81,-73.68 63.94,-110.67 228.56,-377.85 598.48,-582.76 1061.83,-673.5l0.02 0 0 -668.94c-463.35,-90.73 -833.27,-295.65 -1061.82,-673.49 -22.15,-37.01 -43.46,-73.91 -63.97,-110.72zm-1676.2 4932.33l-1191.26 0c-82.28,151.51 -246.46,254.85 -435.62,254.85 -189.18,0 -353.37,-103.35 -435.64,-254.85l-1262.22 0c628.32,388.7 1116.04,810.81 1529.96,1204.69 102.02,-1.78 204.13,-1.46 306.35,0.97 500.41,-485.48 1011.2,-890.94 1488.43,-1205.66zm-4943.6 -2716.15l0 -2195.04c-16.84,29.8 -34.17,59.65 -52.07,89.58 -228.55,377.84 -598.47,582.76 -1061.82,673.49l0 668.94 0.02 0c463.35,90.74 833.27,295.65 1061.83,673.5 17.89,29.91 35.21,59.75 52.04,89.53zm3736.19 -4251.32c-86.5,136.35 -242.01,227.3 -419.47,227.3 -177.48,0 -332.98,-90.95 -419.48,-227.3l-2442.45 0 0 6453.47 2474.3 0c90.03,-111.37 230.17,-182.96 387.63,-182.96 157.45,0 297.61,71.59 387.64,182.96l2460.65 0 0 -6453.47 -2428.82 0z"/>
   <path class="fil2" d="M1161.74 4168.33c65.39,-610.72 179.05,-1196.32 330.85,-1738.4 9.18,-32.78 19.23,-64.93 30.13,-96.45l1303.54 930.3 -220.07 145.77 31.28 106.83 -909.68 1336.87 -566.05 -684.92z"/>
   <path class="fil2" d="M14069.84 4168.33c-65.39,-610.72 -179.05,-1196.32 -330.85,-1738.4 -9.18,-32.78 -19.23,-64.93 -30.13,-96.45l-1314.21 933.73 230.74 142.34 -31.28 106.83 909.68 1336.87 566.05 -684.92z"/>
   <path class="fil2" d="M5272.5 527.99c610.21,-88.82 1275.11,-141.62 1950.58,-157.99l0 -2.47c131.94,-2.36 264.13,-3.35 396.24,-2.95l1.37 0c132.12,-0.4 264.31,0.58 396.24,2.95l0 2.47c675.47,16.37 1340.37,69.17 1950.59,157.99 1183.59,172.28 2061.1,460.89 3031.33,973.89 379.93,200.88 632.68,514.2 748.57,928.05 553.9,1977.94 601.43,4534.6 -359.94,6781.46 -1036.17,2421.7 -2970.08,4226.45 -5288.06,5418.02l-82.49 42.4 0 0.18 -19.28 9.73 -374.16 192.34 -3.47 1.45 -3.5 -1.45 -374.16 -192.34 -19.28 -9.73 0 -0.18 -82.49 -42.4c-2317.98,-1191.57 -4251.89,-2996.32 -5288.05,-5418.02 -961.38,-2246.86 -913.85,-4803.52 -359.95,-6781.46 115.9,-413.85 368.64,-727.17 748.58,-928.05 970.22,-513 1847.74,-801.61 3031.33,-973.89zm151.33 1039.69c-1063.03,154.73 -2023.76,454.89 -2852.19,943.01 -1334,4290.73 309.12,8747.6 5049.28,11184.3 4789.49,-2416.98 6493.14,-6893.57 5159.14,-11184.3 -810,-477.25 -1746.44,-774.83 -2781.36,-932.47 -1360.59,-207.25 -3211.6,-208.97 -4574.87,-10.54z"/>
  </g>
 </g>
</svg>
