<?xml version="1.0" encoding="UTF-8"?>
<!DOCTYPE svg PUBLIC "-//W3C//DTD SVG 1.1//EN" "http://www.w3.org/Graphics/SVG/1.1/DTD/svg11.dtd">
<!-- Creator: CorelDRAW -->
<svg xmlns="http://www.w3.org/2000/svg" xml:space="preserve" width="152.4mm" height="152.4mm" version="1.1" style="shape-rendering:geometricPrecision; text-rendering:geometricPrecision; image-rendering:optimizeQuality; fill-rule:evenodd; clip-rule:evenodd"
viewBox="0 0 15240 15240"
 xmlns:xlink="http://www.w3.org/1999/xlink"
 xmlns:xodm="http://www.corel.com/coreldraw/odm/2003">
 <defs>
  <style type="text/css">
   <![CDATA[
    .fil0 {fill:none}
    .fil1 {fill:#26AAE1}
    .fil3 {fill:#9DD614}
    .fil2 {fill:#FAD806}
   ]]>
  </style>
 </defs>
 <g id="Capa_x0020_1">
  <metadata id="CorelCorpID_0Corel-Layer"/>
  <g id="_2981581892928">
   <rect class="fil0" x="-0" y="-0" width="15240" height="15240"/>
   <ellipse id="contour" class="fil1" cx="7620.01" cy="7620" rx="7200.69" ry="7200.73"/>
   <path id="contour_29" class="fil2" d="M7620.01 364.25c4007.22,0 7255.71,3248.52 7255.71,7255.75 0,4007.22 -3248.49,7255.74 -7255.71,7255.74 -4007.22,0 -7255.7,-3248.52 -7255.7,-7255.74 0,-4007.23 3248.48,-7255.75 7255.7,-7255.75zm-0.06 985.8c3462.82,0 6270.01,2807.18 6270.01,6270 0,3462.82 -2807.19,6270.01 -6270.01,6270.01 -3462.82,0 -6270,-2807.19 -6270,-6270.01 0,-3462.82 2807.18,-6270 6270,-6270z"/>
   <path class="fil2" d="M7631.54 4978.83c2515.35,0 4554.44,2039.09 4554.44,4554.45 0,64.08 -1.67,127.76 -4.29,191.2l-706.07 0c-23.07,-580.89 -501.19,-1044.75 -1087.74,-1044.75 -586.54,0 -1064.66,463.86 -1087.73,1044.75l-3081.96 0c-23.08,-580.89 -501.2,-1044.75 -1087.74,-1044.75 -586.53,0 -1064.65,463.86 -1087.73,1044.75l-961.34 0c-2.62,-63.44 -4.29,-127.12 -4.29,-191.2 0,-2515.36 2039.09,-4554.45 4554.45,-4554.45zm2690.6 1789.6c114.62,0 207.54,92.92 207.54,207.54 0,114.62 -92.92,207.54 -207.54,207.54 -114.62,0 -207.54,-92.92 -207.54,-207.54 0,-114.62 92.92,-207.54 207.54,-207.54zm-132.4 722.41c114.62,0 207.54,92.92 207.54,207.54 0,114.62 -92.92,207.54 -207.54,207.54 -114.62,0 -207.54,-92.92 -207.54,-207.54 0,-114.62 92.92,-207.54 207.54,-207.54zm706.69 -163.74c114.62,0 207.54,92.92 207.54,207.54 0,114.62 -92.92,207.54 -207.54,207.54 -114.62,0 -207.54,-92.92 -207.54,-207.54 0,-114.62 92.92,-207.54 207.54,-207.54z"/>
   <path class="fil3" d="M5167.11 9114.82c466.32,0 844.34,378.02 844.34,844.34 0,466.32 -378.02,844.34 -844.34,844.34 -466.32,0 -844.34,-378.02 -844.34,-844.34 0,-466.32 378.02,-844.34 844.34,-844.34zm-1923.45 -2520.51c130.39,-124.45 417.61,-413.87 523.55,-554.61 262.61,-348.83 492.44,-961.03 1052.69,-1373.08 343.66,-252.74 739.07,-237.75 1145.35,-240.63 340.36,-2.39 510.14,-19.98 828.98,-147.58 515.94,-206.45 848.64,-490.98 1362.02,-449.43 600.46,48.59 1200.33,582.02 1645.4,858.55 197.11,122.45 372.97,182.15 597.7,233.18 438.37,99.54 816.38,86.43 1144.28,390.7 416.91,386.88 388.52,864.75 512.88,1316.85 73.47,267.11 161.1,361.67 298.15,583.45 439.18,710.79 535.97,1387.35 231.86,2023.82l-14.64 0.1c-215.31,-2457.11 -2391.72,-4556.8 -4940.34,-4556.8 -2546.24,0 -4713.42,2121.41 -4922.17,4626.14 -505.78,-1202.59 -198.49,-2011.3 534.29,-2710.66zm7180.25 2520.51c466.32,0 844.34,378.02 844.34,844.34 0,466.32 -378.02,844.34 -844.34,844.34 -466.32,0 -844.34,-378.02 -844.34,-844.34 0,-466.32 378.02,-844.34 844.34,-844.34zm0 593.11c138.75,0 251.23,112.48 251.23,251.23 0,138.75 -112.48,251.23 -251.23,251.23 -138.75,0 -251.23,-112.48 -251.23,-251.23 0,-138.75 112.48,-251.23 251.23,-251.23zm-5256.8 0c138.75,0 251.23,112.48 251.23,251.23 0,138.75 -112.48,251.23 -251.23,251.23 -138.75,0 -251.23,-112.48 -251.23,-251.23 0,-138.75 112.48,-251.23 251.23,-251.23z"/>
  </g>
 </g>
</svg>
