<?xml version="1.0" encoding="UTF-8"?>
<!DOCTYPE svg PUBLIC "-//W3C//DTD SVG 1.1//EN" "http://www.w3.org/Graphics/SVG/1.1/DTD/svg11.dtd">
<!-- Creator: CorelDRAW -->
<svg xmlns="http://www.w3.org/2000/svg" xml:space="preserve" width="152.4mm" height="152.4mm" version="1.1" style="shape-rendering:geometricPrecision; text-rendering:geometricPrecision; image-rendering:optimizeQuality; fill-rule:evenodd; clip-rule:evenodd"
viewBox="0 0 15240 15240"
 xmlns:xlink="http://www.w3.org/1999/xlink"
 xmlns:xodm="http://www.corel.com/coreldraw/odm/2003">
 <defs>
  <style type="text/css">
   <![CDATA[
    .fil0 {fill:none}
    .fil1 {fill:#00AEEF}
    .fil3 {fill:#8CC63F}
    .fil2 {fill:#FFDA00}
   ]]>
  </style>
 </defs>
 <g id="Capa_x0020_1">
  <metadata id="CorelCorpID_0Corel-Layer"/>
  <g id="_2981914880240">
   <rect class="fil0" x="-0" y="-0" width="15240" height="15240"/>
   <ellipse id="contour" class="fil1" cx="7620.01" cy="7620" rx="7200.69" ry="7200.73"/>
   <path id="contour_47" class="fil2" d="M7620.01 364.25c4007.22,0 7255.71,3248.52 7255.71,7255.75 0,4007.22 -3248.49,7255.74 -7255.71,7255.74 -4007.22,0 -7255.7,-3248.52 -7255.7,-7255.74 0,-4007.23 3248.48,-7255.75 7255.7,-7255.75zm-0.06 985.8c3462.82,0 6270.01,2807.18 6270.01,6270 0,3462.82 -2807.19,6270.01 -6270.01,6270.01 -3462.82,0 -6270,-2807.19 -6270,-6270.01 0,-3462.82 2807.18,-6270 6270,-6270z"/>
   <path class="fil2" d="M10670.04 7135.2c102.87,0 186.27,82.98 186.27,185.34 0,102.36 -83.4,185.34 -186.27,185.34 -102.88,0 -186.28,-82.98 -186.28,-185.34 0,-102.36 83.4,-185.34 186.28,-185.34zm-634.29 171.62c102.88,0 186.28,82.98 186.28,185.34 0,102.36 -83.4,185.34 -186.28,185.34 -102.88,0 -186.28,-82.98 -186.28,-185.34 0,-102.36 83.4,-185.34 186.28,-185.34zm118.84 -670.53c102.87,0 186.27,82.98 186.27,185.34 0,102.36 -83.4,185.34 -186.27,185.34 -102.88,0 -186.28,-82.98 -186.28,-185.34 0,-102.36 83.4,-185.34 186.28,-185.34zm71.64 2015.07c419.58,0 759.72,340.14 759.72,759.72 0,419.59 -340.14,759.73 -759.72,759.73 -419.59,0 -759.73,-340.14 -759.73,-759.73 0,-419.58 340.14,-759.72 759.73,-759.72zm-4907.8 -25.4c419.59,0 759.73,340.14 759.73,759.72 0,419.59 -340.14,759.73 -759.73,759.73 -419.59,0 -759.72,-340.14 -759.72,-759.73 0,-419.58 340.13,-759.72 759.72,-759.72zm2316.35 -3549.44c2271.51,0 4112.93,1841.42 4112.93,4112.93 0,22.69 -0.49,45.26 -0.86,67.86l-514.22 0c-74.13,-489.23 -496.47,-864.19 -1006.4,-864.19 -509.94,0 -932.28,374.96 -1006.41,864.19l-2888.51 0c-63.14,-503.21 -492.54,-892.51 -1012.88,-892.51 -520.35,0 -949.73,389.3 -1012.87,892.51l-782.85 0c-0.37,-22.6 -0.86,-45.17 -0.86,-67.86 0,-2271.51 1841.42,-4112.93 4112.93,-4112.93zm-1057.88 528.33c-817.9,256.48 -1512.16,784.14 -1981.62,1474.61l1981.62 0 0 -1474.61zm-2781.02 1478.17l-708.33 456.33 -118.28 1714.99 288.22 12.01 -0.08 -4.7c-0.4,-24.07 -0.9,-48.13 -0.9,-72.2 0,-763.6 195.69,-1481.44 539.37,-2106.43z"/>
   <path class="fil3" d="M4562.5 6068.43l53.81 -189.75c261.55,-866.48 778.21,-1251.05 1568.69,-1118.42 516.47,47.4 902.31,-271.11 1287.89,-462.5 464.74,-230.67 881.98,-208.81 1297.16,81.92 1180.28,826.49 1155.19,749.57 2200.14,827.87 198.35,14.86 382.09,125.49 514.63,291.33 304,380.45 143.31,842.59 367.96,1265.75 148.65,280.02 298.7,315.21 437.36,423.02 279.77,217.56 341.44,650.5 194.9,961.81 -80.92,171.88 -226.05,315 -431.95,430.87l-55.68 222.73c-195.68,-2237.79 -2074.08,-3993.4 -4362.63,-3993.4 -1197,0 -2281.69,480.45 -3072.28,1258.77z"/>
  </g>
 </g>
</svg>
