<?xml version="1.0" encoding="UTF-8"?>
<!DOCTYPE svg PUBLIC "-//W3C//DTD SVG 1.1//EN" "http://www.w3.org/Graphics/SVG/1.1/DTD/svg11.dtd">
<!-- Creator: CorelDRAW -->
<svg xmlns="http://www.w3.org/2000/svg" xml:space="preserve" width="152.4mm" height="152.4mm" version="1.1" style="shape-rendering:geometricPrecision; text-rendering:geometricPrecision; image-rendering:optimizeQuality; fill-rule:evenodd; clip-rule:evenodd"
viewBox="0 0 15240 15240"
 xmlns:xlink="http://www.w3.org/1999/xlink"
 xmlns:xodm="http://www.corel.com/coreldraw/odm/2003">
 <defs>
  <style type="text/css">
   <![CDATA[
    .fil0 {fill:none}
    .fil2 {fill:#E02733}
    .fil1 {fill:white}
   ]]>
  </style>
 </defs>
 <g id="Capa_x0020_1">
  <metadata id="CorelCorpID_0Corel-Layer"/>
  <g id="_2981911950384">
   <rect class="fil0" x="-0" y="-0" width="15240" height="15240"/>
   <ellipse id="contour" class="fil1" cx="7620.01" cy="7620" rx="7200.69" ry="7200.73"/>
   <path id="contour_100" class="fil2" d="M7620.01 364.25c4007.22,0 7255.71,3248.52 7255.71,7255.75 0,4007.22 -3248.49,7255.74 -7255.71,7255.74 -4007.22,0 -7255.7,-3248.52 -7255.7,-7255.74 0,-4007.23 3248.48,-7255.75 7255.7,-7255.75zm-0.06 985.8c3462.82,0 6270.01,2807.18 6270.01,6270 0,3462.82 -2807.19,6270.01 -6270.01,6270.01 -3462.82,0 -6270,-2807.19 -6270,-6270.01 0,-3462.82 2807.18,-6270 6270,-6270z"/>
   <path class="fil2" d="M3811.86 6657.6l6639.39 -1769.68 980.63 3679.12 -6639.39 1769.67 -980.63 -3679.11zm-318.6 -186.36l7138.44 -1902.69 1109.38 4162.14 -7138.44 1902.69 -1109.38 -4162.14zm3904.94 -35.15l530.83 623.51 814.06 -108.85c28.98,-3.88 55.77,8.2 71.59,32.28 15.83,24.08 16.13,53.22 0.78,77.83l-433.39 696.78 354.12 740.28c12.51,26.12 8.73,55.27 -10,77.71 -18.74,22.45 -47.08,31.7 -75.51,24.69l-795.35 -196.26 -596.38 567.51c-21.23,20.2 -50.42,26.18 -77.83,15.98 -27.41,-10.2 -45.12,-33.66 -47.2,-62.54l-59.16 -817.77 -723.44 -390.59c-25.53,-13.79 -39.73,-39.23 -37.92,-67.97 1.77,-28.75 19.03,-52.54 46.11,-63.55l762.77 -310.51 146.19 -803.65c5.21,-28.64 25.46,-50.45 53.94,-58.1 28.47,-7.65 56.94,1.07 75.79,23.22zm-5180.02 183.32c-47.16,-176.93 59.02,-360.29 235.95,-407.45l8952.19 -2386.12c176.93,-47.16 360.28,59.02 407.44,235.95l404.23 1516.58c-15.06,3.17 -30.12,6.72 -45.18,10.73 -439.89,117.25 -705.4,554.09 -593.03,975.69 112.38,421.6 560.09,668.34 999.98,551.09 15.05,-4.02 29.89,-8.44 44.53,-13.19l396.3 1486.84c47.16,176.94 -59.02,360.29 -235.95,407.45l-8952.19 2386.13c-176.93,47.16 -360.28,-59.02 -407.44,-235.96l-402.68 -1510.76c10.2,-2.33 20.41,-4.79 30.62,-7.51 439.89,-117.25 705.4,-554.09 593.02,-975.69 -112.37,-421.6 -560.08,-668.34 -999.97,-551.09 -10.21,2.72 -20.29,5.67 -30.3,8.73l-397.52 -1491.42z"/>
  </g>
 </g>
</svg>
