<?xml version="1.0" encoding="UTF-8"?>
<!DOCTYPE svg PUBLIC "-//W3C//DTD SVG 1.1//EN" "http://www.w3.org/Graphics/SVG/1.1/DTD/svg11.dtd">
<!-- Creator: CorelDRAW -->
<svg xmlns="http://www.w3.org/2000/svg" xml:space="preserve" width="152.4mm" height="152.4mm" version="1.1" style="shape-rendering:geometricPrecision; text-rendering:geometricPrecision; image-rendering:optimizeQuality; fill-rule:evenodd; clip-rule:evenodd"
viewBox="0 0 15240 15240"
 xmlns:xlink="http://www.w3.org/1999/xlink"
 xmlns:xodm="http://www.corel.com/coreldraw/odm/2003">
 <defs>
  <style type="text/css">
   <![CDATA[
    .fil0 {fill:none}
    .fil1 {fill:#B4E4FB}
    .fil2 {fill:#EE1C25}
   ]]>
  </style>
 </defs>
 <g id="Capa_x0020_1">
  <metadata id="CorelCorpID_0Corel-Layer"/>
  <g id="_2981993125280">
   <rect class="fil0" x="-0" y="-0" width="15240" height="15240"/>
   <ellipse id="contour" class="fil1" cx="7620.01" cy="7620" rx="7200.69" ry="7200.73"/>
   <path id="contour_79" class="fil2" d="M7620.01 364.25c4007.22,0 7255.71,3248.52 7255.71,7255.75 0,4007.22 -3248.49,7255.74 -7255.71,7255.74 -4007.22,0 -7255.7,-3248.52 -7255.7,-7255.74 0,-4007.23 3248.48,-7255.75 7255.7,-7255.75zm-0.06 985.8c3462.82,0 6270.01,2807.18 6270.01,6270 0,3462.82 -2807.19,6270.01 -6270.01,6270.01 -3462.82,0 -6270,-2807.19 -6270,-6270.01 0,-3462.82 2807.18,-6270 6270,-6270z"/>
   <path class="fil2" d="M3425.69 5290.42l8481.9 0c167.64,0 304.8,137.16 304.8,304.8l0 1417.27c-7.96,-0.26 -15.94,-0.44 -23.96,-0.44 -399.92,0 -724.12,324.2 -724.12,724.13 0,399.92 324.2,724.12 724.12,724.12 8.02,0 16,-0.18 23.96,-0.44l0 1425.25c0,167.64 -137.16,304.8 -304.8,304.8l-8481.9 0c-167.64,0 -304.8,-137.16 -304.8,-304.8l0 -1424.95c3.64,0.05 7.28,0.14 10.93,0.14 399.92,0 724.12,-324.2 724.12,-724.12 0,-399.93 -324.2,-724.13 -724.12,-724.13 -3.65,0 -7.29,0.09 -10.93,0.14l0 -1416.97c0,-167.64 137.16,-304.8 304.8,-304.8zm4320.78 1364.02l322.56 676.73 745.8 95.65c26.55,3.41 47.4,20.41 55.72,45.44 8.32,25.03 1.72,50.88 -17.66,69.04l-547.68 514.19 138.72 738.36c4.9,26.06 -5.31,50.96 -27.18,66.39 -21.87,15.44 -49.12,16.94 -72.61,4.03l-657.31 -361.14 -661.39 361.41c-23.53,12.86 -50.77,11.27 -72.61,-4.21 -21.84,-15.49 -31.97,-40.42 -27.01,-66.46l140.48 -737.36 -547.86 -516.1c-19.34,-18.22 -25.9,-44.07 -17.53,-69.08 8.35,-25.01 29.23,-41.98 55.78,-45.34l747.97 -94.83 318.82 -676.46c11.36,-24.1 34.41,-38.62 61.42,-38.68 26.99,-0.05 50.11,14.38 61.57,38.42zm-3511.48 -1077.28l6913.09 0 0 4318.76 -6913.09 0 0 -4318.76zm228.29 237.39l6456.51 0 0 3866.28 -6456.51 0 0 -3866.28z"/>
  </g>
 </g>
</svg>
